<?xml version="1.0" encoding="UTF-8" standalone="no"?>
<!DOCTYPE svg PUBLIC "-//W3C//DTD SVG 1.1//EN"
 "http://www.w3.org/Graphics/SVG/1.1/DTD/svg11.dtd">
<!-- Generated by graphviz version 2.36.0 (20140111.2315)
 -->
<!-- Title: /home/travis/build/robotology&#45;playground/human&#45;dynamics&#45;estimation/build/human&#45;viz&#45;bridge/_yarp_idl_/msgs/geometry_msgs_Quaternion.h Pages: 1 -->
<svg width="379pt" height="408pt"
 viewBox="0.00 0.00 379.00 408.00" xmlns="http://www.w3.org/2000/svg" xmlns:xlink="http://www.w3.org/1999/xlink">
<g id="graph0" class="graph" transform="scale(1 1) rotate(0) translate(4 404)">
<title>/home/travis/build/robotology&#45;playground/human&#45;dynamics&#45;estimation/build/human&#45;viz&#45;bridge/_yarp_idl_/msgs/geometry_msgs_Quaternion.h</title>
<!-- Node1 -->
<g id="node1" class="node"><title>Node1</title>
<polygon fill="#bfbfbf" stroke="black" points="78.5,-325 78.5,-399 239.5,-399 239.5,-325 78.5,-325"/>
<text text-anchor="start" x="86.5" y="-387" font-family="Helvetica,sans-Serif" font-size="10.00">/home/travis/build</text>
<text text-anchor="start" x="86.5" y="-376" font-family="Helvetica,sans-Serif" font-size="10.00">/robotology&#45;playground</text>
<text text-anchor="start" x="86.5" y="-365" font-family="Helvetica,sans-Serif" font-size="10.00">/human&#45;dynamics&#45;estimation</text>
<text text-anchor="start" x="86.5" y="-354" font-family="Helvetica,sans-Serif" font-size="10.00">/build/human&#45;viz&#45;bridge/</text>
<text text-anchor="start" x="86.5" y="-343" font-family="Helvetica,sans-Serif" font-size="10.00">_yarp_idl_/msgs/geometry_msgs</text>
<text text-anchor="middle" x="159" y="-332" font-family="Helvetica,sans-Serif" font-size="10.00">_Quaternion.h</text>
</g>
<!-- Node2 -->
<g id="node2" class="node"><title>Node2</title>
<g id="a_node2"><a xlink:href="__yarp__idl___2msgs_2geometry__msgs___transform_8h.html" target="_top" xlink:title="/home/travis/build\l/robotology&#45;playground\l/human&#45;dynamics&#45;estimation\l/build/human&#45;viz&#45;bridge/\l_yarp_idl_/msgs/geometry_msgs\l_Transform.h">
<polygon fill="none" stroke="black" points="133.5,-213 133.5,-287 294.5,-287 294.5,-213 133.5,-213"/>
<text text-anchor="start" x="141.5" y="-275" font-family="Helvetica,sans-Serif" font-size="10.00">/home/travis/build</text>
<text text-anchor="start" x="141.5" y="-264" font-family="Helvetica,sans-Serif" font-size="10.00">/robotology&#45;playground</text>
<text text-anchor="start" x="141.5" y="-253" font-family="Helvetica,sans-Serif" font-size="10.00">/human&#45;dynamics&#45;estimation</text>
<text text-anchor="start" x="141.5" y="-242" font-family="Helvetica,sans-Serif" font-size="10.00">/build/human&#45;viz&#45;bridge/</text>
<text text-anchor="start" x="141.5" y="-231" font-family="Helvetica,sans-Serif" font-size="10.00">_yarp_idl_/msgs/geometry_msgs</text>
<text text-anchor="middle" x="214" y="-220" font-family="Helvetica,sans-Serif" font-size="10.00">_Transform.h</text>
</a>
</g>
</g>
<!-- Node1&#45;&gt;Node2 -->
<g id="edge1" class="edge"><title>Node1&#45;&gt;Node2</title>
<path fill="none" stroke="midnightblue" d="M181.529,-315.942C186.331,-306.338 191.342,-296.315 195.95,-287.099"/>
<polygon fill="midnightblue" stroke="midnightblue" points="178.351,-314.472 177.009,-324.982 184.612,-317.603 178.351,-314.472"/>
</g>
<!-- Node3 -->
<g id="node3" class="node"><title>Node3</title>
<g id="a_node3"><a xlink:href="__yarp__idl___2msgs_2geometry__msgs___transform_stamped_8h.html" target="_top" xlink:title="/home/travis/build\l/robotology&#45;playground\l/human&#45;dynamics&#45;estimation\l/build/human&#45;viz&#45;bridge/\l_yarp_idl_/msgs/geometry_msgs\l_TransformStamped.h">
<polygon fill="none" stroke="black" points="33.5,-101 33.5,-175 194.5,-175 194.5,-101 33.5,-101"/>
<text text-anchor="start" x="41.5" y="-163" font-family="Helvetica,sans-Serif" font-size="10.00">/home/travis/build</text>
<text text-anchor="start" x="41.5" y="-152" font-family="Helvetica,sans-Serif" font-size="10.00">/robotology&#45;playground</text>
<text text-anchor="start" x="41.5" y="-141" font-family="Helvetica,sans-Serif" font-size="10.00">/human&#45;dynamics&#45;estimation</text>
<text text-anchor="start" x="41.5" y="-130" font-family="Helvetica,sans-Serif" font-size="10.00">/build/human&#45;viz&#45;bridge/</text>
<text text-anchor="start" x="41.5" y="-119" font-family="Helvetica,sans-Serif" font-size="10.00">_yarp_idl_/msgs/geometry_msgs</text>
<text text-anchor="middle" x="114" y="-108" font-family="Helvetica,sans-Serif" font-size="10.00">_TransformStamped.h</text>
</a>
</g>
</g>
<!-- Node1&#45;&gt;Node3 -->
<g id="edge7" class="edge"><title>Node1&#45;&gt;Node3</title>
<path fill="none" stroke="midnightblue" d="M134.077,-315.782C130.068,-306.805 126.44,-297.282 124,-288 114.113,-250.388 112.379,-205.698 112.639,-175.137"/>
<polygon fill="midnightblue" stroke="midnightblue" points="130.942,-317.339 138.359,-324.905 137.279,-314.365 130.942,-317.339"/>
</g>
<!-- Node4 -->
<g id="node4" class="node"><title>Node4</title>
<g id="a_node4"><a xlink:href="__yarp__idl___2msgs_2tf2__msgs___t_f_message_8h.html" target="_top" xlink:title="/home/travis/build\l/robotology&#45;playground\l/human&#45;dynamics&#45;estimation\l/build/human&#45;viz&#45;bridge/\l_yarp_idl_/msgs/tf2_msgs_TFMessage.h">
<polygon fill="none" stroke="black" points="-0.5,-0.5 -0.5,-63.5 196.5,-63.5 196.5,-0.5 -0.5,-0.5"/>
<text text-anchor="start" x="7.5" y="-51.5" font-family="Helvetica,sans-Serif" font-size="10.00">/home/travis/build</text>
<text text-anchor="start" x="7.5" y="-40.5" font-family="Helvetica,sans-Serif" font-size="10.00">/robotology&#45;playground</text>
<text text-anchor="start" x="7.5" y="-29.5" font-family="Helvetica,sans-Serif" font-size="10.00">/human&#45;dynamics&#45;estimation</text>
<text text-anchor="start" x="7.5" y="-18.5" font-family="Helvetica,sans-Serif" font-size="10.00">/build/human&#45;viz&#45;bridge/</text>
<text text-anchor="middle" x="98" y="-7.5" font-family="Helvetica,sans-Serif" font-size="10.00">_yarp_idl_/msgs/tf2_msgs_TFMessage.h</text>
</a>
</g>
</g>
<!-- Node1&#45;&gt;Node4 -->
<g id="edge8" class="edge"><title>Node1&#45;&gt;Node4</title>
<path fill="none" stroke="midnightblue" d="M114.35,-317.084C82.3027,-282.238 41.762,-230.473 24,-176 13.5286,-143.886 10.3039,-130.876 24,-100 30.1839,-86.059 40.8606,-73.7854 52.2104,-63.6803"/>
<polygon fill="midnightblue" stroke="midnightblue" points="112.077,-319.778 121.462,-324.694 117.191,-314.998 112.077,-319.778"/>
</g>
<!-- Node5 -->
<g id="node5" class="node"><title>Node5</title>
<g id="a_node5"><a xlink:href="__yarp__idl___2msgs_2tf__tf_message_8h.html" target="_top" xlink:title="/home/travis/build\l/robotology&#45;playground\l/human&#45;dynamics&#45;estimation\l/build/human&#45;viz&#45;bridge/\l_yarp_idl_/msgs/tf_tfMessage.h">
<polygon fill="none" stroke="black" points="215,-0.5 215,-63.5 371,-63.5 371,-0.5 215,-0.5"/>
<text text-anchor="start" x="223" y="-51.5" font-family="Helvetica,sans-Serif" font-size="10.00">/home/travis/build</text>
<text text-anchor="start" x="223" y="-40.5" font-family="Helvetica,sans-Serif" font-size="10.00">/robotology&#45;playground</text>
<text text-anchor="start" x="223" y="-29.5" font-family="Helvetica,sans-Serif" font-size="10.00">/human&#45;dynamics&#45;estimation</text>
<text text-anchor="start" x="223" y="-18.5" font-family="Helvetica,sans-Serif" font-size="10.00">/build/human&#45;viz&#45;bridge/</text>
<text text-anchor="middle" x="293" y="-7.5" font-family="Helvetica,sans-Serif" font-size="10.00">_yarp_idl_/msgs/tf_tfMessage.h</text>
</a>
</g>
</g>
<!-- Node1&#45;&gt;Node5 -->
<g id="edge9" class="edge"><title>Node1&#45;&gt;Node5</title>
<path fill="none" stroke="midnightblue" d="M248.992,-334.092C270.319,-323.278 290.485,-308.376 303,-288 346.246,-217.592 321.174,-114.433 304.373,-63.6105"/>
<polygon fill="midnightblue" stroke="midnightblue" points="247.316,-331.014 239.799,-338.481 250.331,-337.331 247.316,-331.014"/>
</g>
<!-- Node2&#45;&gt;Node3 -->
<g id="edge2" class="edge"><title>Node2&#45;&gt;Node3</title>
<path fill="none" stroke="midnightblue" d="M174.385,-205.424C165.248,-195.373 155.628,-184.79 146.817,-175.099"/>
<polygon fill="midnightblue" stroke="midnightblue" points="171.94,-207.937 181.256,-212.982 177.119,-203.228 171.94,-207.937"/>
</g>
<!-- Node2&#45;&gt;Node4 -->
<g id="edge5" class="edge"><title>Node2&#45;&gt;Node4</title>
<path fill="none" stroke="midnightblue" d="M220.844,-202.741C223.111,-171.577 221.338,-130.714 203,-100 194.187,-85.2396 180.722,-73.1854 166.343,-63.58"/>
<polygon fill="midnightblue" stroke="midnightblue" points="217.339,-202.638 219.938,-212.909 224.312,-203.259 217.339,-202.638"/>
</g>
<!-- Node2&#45;&gt;Node5 -->
<g id="edge6" class="edge"><title>Node2&#45;&gt;Node5</title>
<path fill="none" stroke="midnightblue" d="M230.68,-203.395C246.052,-161.365 268.442,-100.146 281.782,-63.6716"/>
<polygon fill="midnightblue" stroke="midnightblue" points="227.371,-202.253 227.223,-212.846 233.945,-204.657 227.371,-202.253"/>
</g>
<!-- Node3&#45;&gt;Node4 -->
<g id="edge3" class="edge"><title>Node3&#45;&gt;Node4</title>
<path fill="none" stroke="midnightblue" d="M106.889,-90.78C105.486,-81.6565 104.045,-72.2926 102.743,-63.8307"/>
<polygon fill="midnightblue" stroke="midnightblue" points="103.469,-91.5662 108.449,-100.918 110.388,-90.5018 103.469,-91.5662"/>
</g>
<!-- Node3&#45;&gt;Node5 -->
<g id="edge4" class="edge"><title>Node3&#45;&gt;Node5</title>
<path fill="none" stroke="midnightblue" d="M184.787,-95.8726C203.268,-85.1349 222.863,-73.7498 240.227,-63.6612"/>
<polygon fill="midnightblue" stroke="midnightblue" points="182.991,-92.8677 176.103,-100.918 186.508,-98.9203 182.991,-92.8677"/>
</g>
</g>
</svg>
