<?xml version="1.0" encoding="UTF-8" standalone="no"?>
<!DOCTYPE svg PUBLIC "-//W3C//DTD SVG 1.1//EN"
 "http://www.w3.org/Graphics/SVG/1.1/DTD/svg11.dtd">
<!-- Generated by graphviz version 2.36.0 (20140111.2315)
 -->
<!-- Title: /home/travis/build/robotology&#45;playground/human&#45;dynamics&#45;estimation/build/human&#45;viz&#45;bridge/_yarp_idl_/msgs/geometry_msgs_Quaternion.h Pages: 1 -->
<svg width="484pt" height="308pt"
 viewBox="0.00 0.00 484.00 308.00" xmlns="http://www.w3.org/2000/svg" xmlns:xlink="http://www.w3.org/1999/xlink">
<g id="graph0" class="graph" transform="scale(1 1) rotate(0) translate(4 304)">
<title>/home/travis/build/robotology&#45;playground/human&#45;dynamics&#45;estimation/build/human&#45;viz&#45;bridge/_yarp_idl_/msgs/geometry_msgs_Quaternion.h</title>
<!-- Node1 -->
<g id="node1" class="node"><title>Node1</title>
<polygon fill="#bfbfbf" stroke="black" points="233.5,-225 233.5,-299 394.5,-299 394.5,-225 233.5,-225"/>
<text text-anchor="start" x="241.5" y="-287" font-family="Helvetica,sans-Serif" font-size="10.00">/home/travis/build</text>
<text text-anchor="start" x="241.5" y="-276" font-family="Helvetica,sans-Serif" font-size="10.00">/robotology&#45;playground</text>
<text text-anchor="start" x="241.5" y="-265" font-family="Helvetica,sans-Serif" font-size="10.00">/human&#45;dynamics&#45;estimation</text>
<text text-anchor="start" x="241.5" y="-254" font-family="Helvetica,sans-Serif" font-size="10.00">/build/human&#45;viz&#45;bridge/</text>
<text text-anchor="start" x="241.5" y="-243" font-family="Helvetica,sans-Serif" font-size="10.00">_yarp_idl_/msgs/geometry_msgs</text>
<text text-anchor="middle" x="314" y="-232" font-family="Helvetica,sans-Serif" font-size="10.00">_Quaternion.h</text>
</g>
<!-- Node2 -->
<g id="node2" class="node"><title>Node2</title>
<polygon fill="none" stroke="#bfbfbf" points="152.5,-0.5 152.5,-19.5 193.5,-19.5 193.5,-0.5 152.5,-0.5"/>
<text text-anchor="middle" x="173" y="-7.5" font-family="Helvetica,sans-Serif" font-size="10.00">string</text>
</g>
<!-- Node1&#45;&gt;Node2 -->
<g id="edge1" class="edge"><title>Node1&#45;&gt;Node2</title>
<path fill="none" stroke="midnightblue" d="M245.214,-224.867C211.023,-202.939 172.855,-171.527 153,-132 137.833,-101.806 143.384,-88.9199 151,-56 153.23,-46.3627 157.821,-36.4052 162.236,-28.3149"/>
<polygon fill="midnightblue" stroke="midnightblue" points="165.351,-29.9216 167.362,-19.5194 159.303,-26.3968 165.351,-29.9216"/>
</g>
<!-- Node3 -->
<g id="node3" class="node"><title>Node3</title>
<polygon fill="none" stroke="#bfbfbf" points="432,-0.5 432,-19.5 476,-19.5 476,-0.5 432,-0.5"/>
<text text-anchor="middle" x="454" y="-7.5" font-family="Helvetica,sans-Serif" font-size="10.00">vector</text>
</g>
<!-- Node1&#45;&gt;Node3 -->
<g id="edge2" class="edge"><title>Node1&#45;&gt;Node3</title>
<path fill="none" stroke="midnightblue" d="M386.875,-224.942C401.133,-214.809 414.569,-202.509 424,-188 456.506,-137.992 457.178,-63.8416 455.445,-29.5873"/>
<polygon fill="midnightblue" stroke="midnightblue" points="458.937,-29.3496 454.808,-19.5926 451.951,-29.7951 458.937,-29.3496"/>
</g>
<!-- Node4 -->
<g id="node4" class="node"><title>Node4</title>
<polygon fill="none" stroke="#bfbfbf" points="288,-0.5 288,-19.5 368,-19.5 368,-0.5 288,-0.5"/>
<text text-anchor="middle" x="328" y="-7.5" font-family="Helvetica,sans-Serif" font-size="10.00">yarp/os/Wire.h</text>
</g>
<!-- Node1&#45;&gt;Node4 -->
<g id="edge3" class="edge"><title>Node1&#45;&gt;Node4</title>
<path fill="none" stroke="midnightblue" d="M375.549,-224.971C387.839,-214.691 399.082,-202.32 406,-188 434.293,-129.433 375.121,-58.166 344.641,-26.9438"/>
<polygon fill="midnightblue" stroke="midnightblue" points="346.795,-24.1488 337.24,-19.5705 341.854,-29.1079 346.795,-24.1488"/>
</g>
<!-- Node5 -->
<g id="node5" class="node"><title>Node5</title>
<polygon fill="none" stroke="#bfbfbf" points="0,-0.5 0,-19.5 120,-19.5 120,-0.5 0,-0.5"/>
<text text-anchor="middle" x="60" y="-7.5" font-family="Helvetica,sans-Serif" font-size="10.00">yarp/os/idl/WireTypes.h</text>
</g>
<!-- Node1&#45;&gt;Node5 -->
<g id="edge4" class="edge"><title>Node1&#45;&gt;Node5</title>
<path fill="none" stroke="midnightblue" d="M233.366,-225.029C213.659,-214.477 193.288,-201.967 176,-188 125.451,-147.159 113.855,-132.643 82,-76 73.7877,-61.3974 67.9593,-43.224 64.3737,-29.8092"/>
<polygon fill="midnightblue" stroke="midnightblue" points="67.7037,-28.6976 61.8863,-19.8427 60.9121,-30.3927 67.7037,-28.6976"/>
</g>
<!-- Node6 -->
<g id="node6" class="node"><title>Node6</title>
<g id="a_node6"><a xlink:href="__yarp__idl___2msgs_2_tick_time_8h.html" target="_top" xlink:title="TickTime.h">
<polygon fill="none" stroke="black" points="265.5,-56.5 265.5,-75.5 330.5,-75.5 330.5,-56.5 265.5,-56.5"/>
<text text-anchor="middle" x="298" y="-63.5" font-family="Helvetica,sans-Serif" font-size="10.00">TickTime.h</text>
</a>
</g>
</g>
<!-- Node1&#45;&gt;Node6 -->
<g id="edge5" class="edge"><title>Node1&#45;&gt;Node6</title>
<path fill="none" stroke="midnightblue" d="M368.986,-224.747C385.875,-208.834 398.131,-189 390,-168 375.711,-131.094 340.967,-99.3919 318.501,-81.7874"/>
<polygon fill="midnightblue" stroke="midnightblue" points="320.361,-78.8046 310.281,-75.5429 316.127,-84.3788 320.361,-78.8046"/>
</g>
<!-- Node7 -->
<g id="node7" class="node"><title>Node7</title>
<g id="a_node7"><a xlink:href="__yarp__idl___2msgs_2std__msgs___header_8h.html" target="_top" xlink:title="std_msgs_Header.h">
<polygon fill="none" stroke="black" points="175,-112.5 175,-131.5 279,-131.5 279,-112.5 175,-112.5"/>
<text text-anchor="middle" x="227" y="-119.5" font-family="Helvetica,sans-Serif" font-size="10.00">std_msgs_Header.h</text>
</a>
</g>
</g>
<!-- Node1&#45;&gt;Node7 -->
<g id="edge10" class="edge"><title>Node1&#45;&gt;Node7</title>
<path fill="none" stroke="midnightblue" d="M266.91,-224.817C255.839,-214.113 245.186,-201.584 238,-188 230.39,-173.615 227.84,-155.158 227.077,-141.589"/>
<polygon fill="midnightblue" stroke="midnightblue" points="230.574,-141.432 226.784,-131.538 223.577,-141.636 230.574,-141.432"/>
</g>
<!-- Node8 -->
<g id="node8" class="node"><title>Node8</title>
<g id="a_node8"><a xlink:href="__yarp__idl___2msgs_2geometry__msgs___vector3_8h.html" target="_top" xlink:title="geometry_msgs_Vector3.h">
<polygon fill="none" stroke="black" points="247,-168.5 247,-187.5 381,-187.5 381,-168.5 247,-168.5"/>
<text text-anchor="middle" x="314" y="-175.5" font-family="Helvetica,sans-Serif" font-size="10.00">geometry_msgs_Vector3.h</text>
</a>
</g>
</g>
<!-- Node1&#45;&gt;Node8 -->
<g id="edge16" class="edge"><title>Node1&#45;&gt;Node8</title>
<path fill="none" stroke="midnightblue" d="M314,-224.795C314,-215.463 314,-205.796 314,-197.762"/>
<polygon fill="midnightblue" stroke="midnightblue" points="317.5,-197.698 314,-187.698 310.5,-197.698 317.5,-197.698"/>
</g>
<!-- Node6&#45;&gt;Node2 -->
<g id="edge6" class="edge"><title>Node6&#45;&gt;Node2</title>
<path fill="none" stroke="midnightblue" d="M278.193,-56.4435C257.713,-47.5961 225.517,-33.6875 202.135,-23.5865"/>
<polygon fill="midnightblue" stroke="midnightblue" points="203.282,-20.2692 192.714,-19.5164 200.506,-26.6953 203.282,-20.2692"/>
</g>
<!-- Node6&#45;&gt;Node3 -->
<g id="edge7" class="edge"><title>Node6&#45;&gt;Node3</title>
<path fill="none" stroke="midnightblue" d="M322.719,-56.4435C349.617,-47.1326 392.709,-32.2163 422.131,-22.0315"/>
<polygon fill="midnightblue" stroke="midnightblue" points="423.614,-25.222 431.919,-18.6433 421.324,-18.607 423.614,-25.222"/>
</g>
<!-- Node6&#45;&gt;Node4 -->
<g id="edge8" class="edge"><title>Node6&#45;&gt;Node4</title>
<path fill="none" stroke="midnightblue" d="M302.954,-56.083C307.104,-48.6127 313.153,-37.7244 318.267,-28.5199"/>
<polygon fill="midnightblue" stroke="midnightblue" points="321.341,-30.1924 323.138,-19.7511 315.222,-26.7929 321.341,-30.1924"/>
</g>
<!-- Node6&#45;&gt;Node5 -->
<g id="edge9" class="edge"><title>Node6&#45;&gt;Node5</title>
<path fill="none" stroke="midnightblue" d="M265.406,-57.6048C224.606,-48.3475 154.403,-32.4192 107.593,-21.7983"/>
<polygon fill="midnightblue" stroke="midnightblue" points="108.214,-18.3504 97.6872,-19.5509 106.665,-25.1769 108.214,-18.3504"/>
</g>
<!-- Node7&#45;&gt;Node2 -->
<g id="edge11" class="edge"><title>Node7&#45;&gt;Node2</title>
<path fill="none" stroke="midnightblue" d="M222.763,-112.368C213.93,-94.376 193.397,-52.5503 181.653,-28.6267"/>
<polygon fill="midnightblue" stroke="midnightblue" points="184.766,-27.0257 177.218,-19.5914 178.483,-30.1105 184.766,-27.0257"/>
</g>
<!-- Node7&#45;&gt;Node3 -->
<g id="edge12" class="edge"><title>Node7&#45;&gt;Node3</title>
<path fill="none" stroke="midnightblue" d="M250.992,-112.413C273.943,-103.953 309.351,-90.2583 339,-76 372.061,-60.1012 408.706,-38.6928 431.548,-24.8676"/>
<polygon fill="midnightblue" stroke="midnightblue" points="433.44,-27.8128 440.157,-19.6192 429.797,-21.8357 433.44,-27.8128"/>
</g>
<!-- Node7&#45;&gt;Node4 -->
<g id="edge13" class="edge"><title>Node7&#45;&gt;Node4</title>
<path fill="none" stroke="midnightblue" d="M229.169,-112.1C232.809,-98.6628 241.24,-72.9681 256,-56 267.666,-42.5889 284.317,-31.8276 298.668,-24.1954"/>
<polygon fill="midnightblue" stroke="midnightblue" points="300.345,-27.2697 307.691,-19.6355 297.188,-21.0221 300.345,-27.2697"/>
</g>
<!-- Node7&#45;&gt;Node5 -->
<g id="edge14" class="edge"><title>Node7&#45;&gt;Node5</title>
<path fill="none" stroke="midnightblue" d="M213.896,-112.368C185.239,-93.4924 116.757,-48.385 81.6139,-25.2367"/>
<polygon fill="midnightblue" stroke="midnightblue" points="83.3198,-22.1693 73.0433,-19.5914 79.4692,-28.0151 83.3198,-22.1693"/>
</g>
<!-- Node7&#45;&gt;Node6 -->
<g id="edge15" class="edge"><title>Node7&#45;&gt;Node6</title>
<path fill="none" stroke="midnightblue" d="M238.407,-112.324C249.109,-104.185 265.341,-91.8395 278.163,-82.0874"/>
<polygon fill="midnightblue" stroke="midnightblue" points="280.544,-84.6734 286.385,-75.8339 276.307,-79.1018 280.544,-84.6734"/>
</g>
<!-- Node8&#45;&gt;Node2 -->
<g id="edge17" class="edge"><title>Node8&#45;&gt;Node2</title>
<path fill="none" stroke="midnightblue" d="M246.65,-173.868C216.954,-168.714 184.63,-157.136 166,-132 143.635,-101.824 155.862,-54.9018 165.315,-29.2573"/>
<polygon fill="midnightblue" stroke="midnightblue" points="168.679,-30.2674 169.087,-19.6804 162.166,-27.7019 168.679,-30.2674"/>
</g>
<!-- Node8&#45;&gt;Node3 -->
<g id="edge18" class="edge"><title>Node8&#45;&gt;Node3</title>
<path fill="none" stroke="midnightblue" d="M321.527,-168.075C344.041,-141.38 411.102,-61.865 440.235,-27.3218"/>
<polygon fill="midnightblue" stroke="midnightblue" points="443.002,-29.4689 446.774,-19.5681 437.651,-24.956 443.002,-29.4689"/>
</g>
<!-- Node8&#45;&gt;Node4 -->
<g id="edge19" class="edge"><title>Node8&#45;&gt;Node4</title>
<path fill="none" stroke="midnightblue" d="M317.802,-168.278C325.986,-148.487 344.13,-98.5934 339,-56 337.929,-47.1069 335.708,-37.4344 333.54,-29.344"/>
<polygon fill="midnightblue" stroke="midnightblue" points="336.844,-28.1668 330.73,-19.5139 330.113,-30.0908 336.844,-28.1668"/>
</g>
<!-- Node8&#45;&gt;Node5 -->
<g id="edge20" class="edge"><title>Node8&#45;&gt;Node5</title>
<path fill="none" stroke="midnightblue" d="M248.432,-168.498C217.495,-162.132 181.26,-151.087 153,-132 113.071,-105.032 82.9394,-55.3165 68.8357,-28.7823"/>
<polygon fill="midnightblue" stroke="midnightblue" points="71.7707,-26.8367 64.0811,-19.5484 65.5473,-30.0412 71.7707,-26.8367"/>
</g>
<!-- Node8&#45;&gt;Node6 -->
<g id="edge21" class="edge"><title>Node8&#45;&gt;Node6</title>
<path fill="none" stroke="midnightblue" d="M312.745,-168.368C310.162,-150.617 304.206,-109.666 300.705,-85.5974"/>
<polygon fill="midnightblue" stroke="midnightblue" points="304.153,-84.9835 299.25,-75.5914 297.226,-85.9911 304.153,-84.9835"/>
</g>
<!-- Node8&#45;&gt;Node7 -->
<g id="edge22" class="edge"><title>Node8&#45;&gt;Node7</title>
<path fill="none" stroke="midnightblue" d="M300.022,-168.324C286.45,-159.9 265.62,-146.971 249.675,-137.074"/>
<polygon fill="midnightblue" stroke="midnightblue" points="251.286,-133.954 240.943,-131.655 247.594,-139.902 251.286,-133.954"/>
</g>
</g>
</svg>
