<?xml version="1.0" encoding="UTF-8" standalone="no"?>
<!DOCTYPE svg PUBLIC "-//W3C//DTD SVG 1.1//EN"
 "http://www.w3.org/Graphics/SVG/1.1/DTD/svg11.dtd">
<!-- Generated by graphviz version 2.36.0 (20140111.2315)
 -->
<!-- Title: /home/travis/build/robotology&#45;playground/human&#45;dynamics&#45;estimation/build/human&#45;viz&#45;bridge/_yarp_idl_/msgs/TickTime.h Pages: 1 -->
<!--zoomable 720 -->
<svg id="main" version="1.1" xmlns="http://www.w3.org/2000/svg" xmlns:xlink="http://www.w3.org/1999/xlink" xml:space="preserve" onload="init(evt)">
<style type="text/css"><![CDATA[
.edge:hover path { stroke: red; }
.edge:hover polygon { stroke: red; fill: red; }
]]></style>
<script type="text/javascript"><![CDATA[
var edges = document.getElementsByTagName('g');
if (edges && edges.length) {
  for (var i=0;i<edges.length;i++) {
    if (edges[i].id.substr(0,4)=='edge') {
      edges[i].setAttribute('class','edge');
    }
  }
}
]]></script>
        <defs>
                <circle id="rim" cx="0" cy="0" r="7"/>
                <circle id="rim2" cx="0" cy="0" r="3.5"/>
                <g id="zoomPlus">
                        <use xlink:href="#rim" fill="#404040">
                                <set attributeName="fill" to="#808080" begin="zoomplus.mouseover" end="zoomplus.mouseout"/>
                        </use>
                        <path d="M-4,0h8M0,-4v8" fill="none" stroke="white" stroke-width="1.5" pointer-events="none"/>
                </g>
                <g id="zoomMin">
                        <use xlink:href="#rim" fill="#404040">
                                <set attributeName="fill" to="#808080" begin="zoomminus.mouseover" end="zoomminus.mouseout"/>
                        </use>
                        <path d="M-4,0h8" fill="none" stroke="white" stroke-width="1.5" pointer-events="none"/>
                </g>
                <g id="dirArrow">
                        <path fill="none" stroke="white" stroke-width="1.5" d="M0,-3.0v7 M-2.5,-0.5L0,-3.0L2.5,-0.5"/>
                </g>
               <g id="resetDef">
                       <use xlink:href="#rim2" fill="#404040">
                               <set attributeName="fill" to="#808080" begin="reset.mouseover" end="reset.mouseout"/>
                       </use>
               </g>
        </defs>

<script type="text/javascript">
var viewWidth = 919;
var viewHeight = 720;
var sectionId = 'dynsection-1';
</script>
<script xlink:href="svgpan.js"/>
<svg id="graph" class="graph">
<g id="viewport">
<title>/home/travis/build/robotology&#45;playground/human&#45;dynamics&#45;estimation/build/human&#45;viz&#45;bridge/_yarp_idl_/msgs/TickTime.h</title>
<!-- Node1 -->
<g id="node1" class="node"><title>Node1</title>
<polygon fill="#bfbfbf" stroke="black" points="563,-648.5 563,-711.5 705,-711.5 705,-648.5 563,-648.5"/>
<text text-anchor="start" x="571" y="-699.5" font-family="Helvetica,sans-Serif" font-size="10.00">/home/travis/build</text>
<text text-anchor="start" x="571" y="-688.5" font-family="Helvetica,sans-Serif" font-size="10.00">/robotology&#45;playground</text>
<text text-anchor="start" x="571" y="-677.5" font-family="Helvetica,sans-Serif" font-size="10.00">/human&#45;dynamics&#45;estimation</text>
<text text-anchor="start" x="571" y="-666.5" font-family="Helvetica,sans-Serif" font-size="10.00">/build/human&#45;viz&#45;bridge/</text>
<text text-anchor="middle" x="634" y="-655.5" font-family="Helvetica,sans-Serif" font-size="10.00">_yarp_idl_/msgs/TickTime.h</text>
</g>
<!-- Node2 -->
<g id="node2" class="node"><title>Node2</title>
<g id="a_node2"><a xlink:href="__yarp__idl___2msgs_2geometry__msgs___quaternion_8h.html" target="_top" xlink:title="/home/travis/build\l/robotology&#45;playground\l/human&#45;dynamics&#45;estimation\l/build/human&#45;viz&#45;bridge/\l_yarp_idl_/msgs/geometry_msgs\l_Quaternion.h">
<polygon fill="none" stroke="black" points="142.5,-325 142.5,-399 303.5,-399 303.5,-325 142.5,-325"/>
<text text-anchor="start" x="150.5" y="-387" font-family="Helvetica,sans-Serif" font-size="10.00">/home/travis/build</text>
<text text-anchor="start" x="150.5" y="-376" font-family="Helvetica,sans-Serif" font-size="10.00">/robotology&#45;playground</text>
<text text-anchor="start" x="150.5" y="-365" font-family="Helvetica,sans-Serif" font-size="10.00">/human&#45;dynamics&#45;estimation</text>
<text text-anchor="start" x="150.5" y="-354" font-family="Helvetica,sans-Serif" font-size="10.00">/build/human&#45;viz&#45;bridge/</text>
<text text-anchor="start" x="150.5" y="-343" font-family="Helvetica,sans-Serif" font-size="10.00">_yarp_idl_/msgs/geometry_msgs</text>
<text text-anchor="middle" x="223" y="-332" font-family="Helvetica,sans-Serif" font-size="10.00">_Quaternion.h</text>
</a>
</g>
</g>
<!-- Node1&#45;&gt;Node2 -->
<g id="edge1" class="edge"><title>Node1&#45;&gt;Node2</title>
<path fill="none" stroke="midnightblue" d="M552.54,-675.352C487.076,-669.258 394.848,-653.317 325,-612 274.296,-582.007 261.383,-566.071 238,-512 222.366,-475.847 219.983,-430.302 220.642,-399.142"/>
<polygon fill="midnightblue" stroke="midnightblue" points="552.542,-678.866 562.809,-676.248 553.151,-671.892 552.542,-678.866"/>
</g>
<!-- Node3 -->
<g id="node3" class="node"><title>Node3</title>
<g id="a_node3"><a xlink:href="__yarp__idl___2msgs_2geometry__msgs___transform_8h.html" target="_top" xlink:title="/home/travis/build\l/robotology&#45;playground\l/human&#45;dynamics&#45;estimation\l/build/human&#45;viz&#45;bridge/\l_yarp_idl_/msgs/geometry_msgs\l_Transform.h">
<polygon fill="none" stroke="black" points="104.5,-213 104.5,-287 265.5,-287 265.5,-213 104.5,-213"/>
<text text-anchor="start" x="112.5" y="-275" font-family="Helvetica,sans-Serif" font-size="10.00">/home/travis/build</text>
<text text-anchor="start" x="112.5" y="-264" font-family="Helvetica,sans-Serif" font-size="10.00">/robotology&#45;playground</text>
<text text-anchor="start" x="112.5" y="-253" font-family="Helvetica,sans-Serif" font-size="10.00">/human&#45;dynamics&#45;estimation</text>
<text text-anchor="start" x="112.5" y="-242" font-family="Helvetica,sans-Serif" font-size="10.00">/build/human&#45;viz&#45;bridge/</text>
<text text-anchor="start" x="112.5" y="-231" font-family="Helvetica,sans-Serif" font-size="10.00">_yarp_idl_/msgs/geometry_msgs</text>
<text text-anchor="middle" x="185" y="-220" font-family="Helvetica,sans-Serif" font-size="10.00">_Transform.h</text>
</a>
</g>
</g>
<!-- Node1&#45;&gt;Node3 -->
<g id="edge30" class="edge"><title>Node1&#45;&gt;Node3</title>
<path fill="none" stroke="midnightblue" d="M552.648,-678.631C472.106,-675.171 347.364,-661.288 252,-612 153.605,-561.146 135.452,-509.813 121,-400 116.593,-366.511 109.104,-355.614 121,-324 126.045,-310.591 134.796,-298.039 144.235,-287.253"/>
<polygon fill="midnightblue" stroke="midnightblue" points="552.606,-682.132 562.734,-679.02 552.876,-675.138 552.606,-682.132"/>
</g>
<!-- Node4 -->
<g id="node4" class="node"><title>Node4</title>
<g id="a_node4"><a xlink:href="__yarp__idl___2msgs_2geometry__msgs___transform_stamped_8h.html" target="_top" xlink:title="/home/travis/build\l/robotology&#45;playground\l/human&#45;dynamics&#45;estimation\l/build/human&#45;viz&#45;bridge/\l_yarp_idl_/msgs/geometry_msgs\l_TransformStamped.h">
<polygon fill="none" stroke="black" points="256.5,-101 256.5,-175 417.5,-175 417.5,-101 256.5,-101"/>
<text text-anchor="start" x="264.5" y="-163" font-family="Helvetica,sans-Serif" font-size="10.00">/home/travis/build</text>
<text text-anchor="start" x="264.5" y="-152" font-family="Helvetica,sans-Serif" font-size="10.00">/robotology&#45;playground</text>
<text text-anchor="start" x="264.5" y="-141" font-family="Helvetica,sans-Serif" font-size="10.00">/human&#45;dynamics&#45;estimation</text>
<text text-anchor="start" x="264.5" y="-130" font-family="Helvetica,sans-Serif" font-size="10.00">/build/human&#45;viz&#45;bridge/</text>
<text text-anchor="start" x="264.5" y="-119" font-family="Helvetica,sans-Serif" font-size="10.00">_yarp_idl_/msgs/geometry_msgs</text>
<text text-anchor="middle" x="337" y="-108" font-family="Helvetica,sans-Serif" font-size="10.00">_TransformStamped.h</text>
</a>
</g>
</g>
<!-- Node1&#45;&gt;Node4 -->
<g id="edge31" class="edge"><title>Node1&#45;&gt;Node4</title>
<path fill="none" stroke="midnightblue" d="M714.521,-658.272C740.404,-648.089 767.21,-633.271 786,-612 870.75,-516.059 839.065,-442.236 790,-324 767.501,-269.783 768.439,-245.158 720,-212 671.893,-179.069 515.129,-157.404 417.707,-146.753"/>
<polygon fill="midnightblue" stroke="midnightblue" points="713.183,-655.036 705.044,-661.818 715.636,-661.592 713.183,-655.036"/>
</g>
<!-- Node5 -->
<g id="node5" class="node"><title>Node5</title>
<g id="a_node5"><a xlink:href="__yarp__idl___2msgs_2tf2__msgs___t_f_message_8h.html" target="_top" xlink:title="/home/travis/build\l/robotology&#45;playground\l/human&#45;dynamics&#45;estimation\l/build/human&#45;viz&#45;bridge/\l_yarp_idl_/msgs/tf2_msgs_TFMessage.h">
<polygon fill="none" stroke="black" points="5.5,-0.5 5.5,-63.5 202.5,-63.5 202.5,-0.5 5.5,-0.5"/>
<text text-anchor="start" x="13.5" y="-51.5" font-family="Helvetica,sans-Serif" font-size="10.00">/home/travis/build</text>
<text text-anchor="start" x="13.5" y="-40.5" font-family="Helvetica,sans-Serif" font-size="10.00">/robotology&#45;playground</text>
<text text-anchor="start" x="13.5" y="-29.5" font-family="Helvetica,sans-Serif" font-size="10.00">/human&#45;dynamics&#45;estimation</text>
<text text-anchor="start" x="13.5" y="-18.5" font-family="Helvetica,sans-Serif" font-size="10.00">/build/human&#45;viz&#45;bridge/</text>
<text text-anchor="middle" x="104" y="-7.5" font-family="Helvetica,sans-Serif" font-size="10.00">_yarp_idl_/msgs/tf2_msgs_TFMessage.h</text>
</a>
</g>
</g>
<!-- Node1&#45;&gt;Node5 -->
<g id="edge35" class="edge"><title>Node1&#45;&gt;Node5</title>
<path fill="none" stroke="midnightblue" d="M552.74,-672.696C437.639,-662.867 233.592,-641.868 166,-612 78.503,-573.336 0,-570.659 0,-475 0,-475 0,-475 0,-249 0,-180.316 7.37555,-159.89 41,-100 48.3475,-86.913 58.7933,-74.4033 69.0714,-63.8115"/>
<polygon fill="midnightblue" stroke="midnightblue" points="552.653,-676.201 562.912,-673.556 553.242,-669.226 552.653,-676.201"/>
</g>
<!-- Node6 -->
<g id="node6" class="node"><title>Node6</title>
<g id="a_node6"><a xlink:href="__yarp__idl___2msgs_2tf__tf_message_8h.html" target="_top" xlink:title="/home/travis/build\l/robotology&#45;playground\l/human&#45;dynamics&#45;estimation\l/build/human&#45;viz&#45;bridge/\l_yarp_idl_/msgs/tf_tfMessage.h">
<polygon fill="none" stroke="black" points="332,-0.5 332,-63.5 488,-63.5 488,-0.5 332,-0.5"/>
<text text-anchor="start" x="340" y="-51.5" font-family="Helvetica,sans-Serif" font-size="10.00">/home/travis/build</text>
<text text-anchor="start" x="340" y="-40.5" font-family="Helvetica,sans-Serif" font-size="10.00">/robotology&#45;playground</text>
<text text-anchor="start" x="340" y="-29.5" font-family="Helvetica,sans-Serif" font-size="10.00">/human&#45;dynamics&#45;estimation</text>
<text text-anchor="start" x="340" y="-18.5" font-family="Helvetica,sans-Serif" font-size="10.00">/build/human&#45;viz&#45;bridge/</text>
<text text-anchor="middle" x="410" y="-7.5" font-family="Helvetica,sans-Serif" font-size="10.00">_yarp_idl_/msgs/tf_tfMessage.h</text>
</a>
</g>
</g>
<!-- Node1&#45;&gt;Node6 -->
<g id="edge36" class="edge"><title>Node1&#45;&gt;Node6</title>
<path fill="none" stroke="midnightblue" d="M714.875,-662.292C750.111,-652.077 790.285,-636.175 821,-612 878.248,-566.943 911,-547.852 911,-475 911,-475 911,-475 911,-249 911,-67.0218 628.82,-36.5303 488.006,-32.6437"/>
<polygon fill="midnightblue" stroke="midnightblue" points="713.771,-658.967 705.079,-665.025 715.652,-665.709 713.771,-658.967"/>
</g>
<!-- Node7 -->
<g id="node7" class="node"><title>Node7</title>
<g id="a_node7"><a xlink:href="__yarp__idl___2msgs_2std__msgs___header_8h.html" target="_top" xlink:title="/home/travis/build\l/robotology&#45;playground\l/human&#45;dynamics&#45;estimation\l/build/human&#45;viz&#45;bridge/\l_yarp_idl_/msgs/std_msgs_Header.h">
<polygon fill="none" stroke="black" points="334.5,-548.5 334.5,-611.5 513.5,-611.5 513.5,-548.5 334.5,-548.5"/>
<text text-anchor="start" x="342.5" y="-599.5" font-family="Helvetica,sans-Serif" font-size="10.00">/home/travis/build</text>
<text text-anchor="start" x="342.5" y="-588.5" font-family="Helvetica,sans-Serif" font-size="10.00">/robotology&#45;playground</text>
<text text-anchor="start" x="342.5" y="-577.5" font-family="Helvetica,sans-Serif" font-size="10.00">/human&#45;dynamics&#45;estimation</text>
<text text-anchor="start" x="342.5" y="-566.5" font-family="Helvetica,sans-Serif" font-size="10.00">/build/human&#45;viz&#45;bridge/</text>
<text text-anchor="middle" x="424" y="-555.5" font-family="Helvetica,sans-Serif" font-size="10.00">_yarp_idl_/msgs/std_msgs_Header.h</text>
</a>
</g>
</g>
<!-- Node1&#45;&gt;Node7 -->
<g id="edge11" class="edge"><title>Node1&#45;&gt;Node7</title>
<path fill="none" stroke="midnightblue" d="M559.139,-644.065C536.372,-633.44 511.54,-621.852 489.445,-611.541"/>
<polygon fill="midnightblue" stroke="midnightblue" points="557.877,-647.338 568.418,-648.395 560.837,-640.995 557.877,-647.338"/>
</g>
<!-- Node8 -->
<g id="node8" class="node"><title>Node8</title>
<g id="a_node8"><a xlink:href="__yarp__idl___2msgs_2geometry__msgs___vector3_8h.html" target="_top" xlink:title="/home/travis/build\l/robotology&#45;playground\l/human&#45;dynamics&#45;estimation\l/build/human&#45;viz&#45;bridge/\l_yarp_idl_/msgs/geometry_msgs\l_Vector3.h">
<polygon fill="none" stroke="black" points="327.5,-437 327.5,-511 488.5,-511 488.5,-437 327.5,-437"/>
<text text-anchor="start" x="335.5" y="-499" font-family="Helvetica,sans-Serif" font-size="10.00">/home/travis/build</text>
<text text-anchor="start" x="335.5" y="-488" font-family="Helvetica,sans-Serif" font-size="10.00">/robotology&#45;playground</text>
<text text-anchor="start" x="335.5" y="-477" font-family="Helvetica,sans-Serif" font-size="10.00">/human&#45;dynamics&#45;estimation</text>
<text text-anchor="start" x="335.5" y="-466" font-family="Helvetica,sans-Serif" font-size="10.00">/build/human&#45;viz&#45;bridge/</text>
<text text-anchor="start" x="335.5" y="-455" font-family="Helvetica,sans-Serif" font-size="10.00">_yarp_idl_/msgs/geometry_msgs</text>
<text text-anchor="middle" x="408" y="-444" font-family="Helvetica,sans-Serif" font-size="10.00">_Vector3.h</text>
</a>
</g>
</g>
<!-- Node1&#45;&gt;Node8 -->
<g id="edge29" class="edge"><title>Node1&#45;&gt;Node8</title>
<path fill="none" stroke="midnightblue" d="M605.728,-640.173C584.527,-612.593 553.798,-575.693 522,-548 506.67,-534.649 488.684,-521.986 471.587,-511.07"/>
<polygon fill="midnightblue" stroke="midnightblue" points="603.154,-642.57 611.992,-648.412 608.726,-638.333 603.154,-642.57"/>
</g>
<!-- Node9 -->
<g id="node9" class="node"><title>Node9</title>
<g id="a_node9"><a xlink:href="__yarp__idl___2msgs_2geometry__msgs___wrench_8h.html" target="_top" xlink:title="/home/travis/build\l/robotology&#45;playground\l/human&#45;dynamics&#45;estimation\l/build/human&#45;viz&#45;bridge/\l_yarp_idl_/msgs/geometry_msgs\l_Wrench.h">
<polygon fill="none" stroke="black" points="588.5,-325 588.5,-399 749.5,-399 749.5,-325 588.5,-325"/>
<text text-anchor="start" x="596.5" y="-387" font-family="Helvetica,sans-Serif" font-size="10.00">/home/travis/build</text>
<text text-anchor="start" x="596.5" y="-376" font-family="Helvetica,sans-Serif" font-size="10.00">/robotology&#45;playground</text>
<text text-anchor="start" x="596.5" y="-365" font-family="Helvetica,sans-Serif" font-size="10.00">/human&#45;dynamics&#45;estimation</text>
<text text-anchor="start" x="596.5" y="-354" font-family="Helvetica,sans-Serif" font-size="10.00">/build/human&#45;viz&#45;bridge/</text>
<text text-anchor="start" x="596.5" y="-343" font-family="Helvetica,sans-Serif" font-size="10.00">_yarp_idl_/msgs/geometry_msgs</text>
<text text-anchor="middle" x="669" y="-332" font-family="Helvetica,sans-Serif" font-size="10.00">_Wrench.h</text>
</a>
</g>
</g>
<!-- Node1&#45;&gt;Node9 -->
<g id="edge32" class="edge"><title>Node1&#45;&gt;Node9</title>
<path fill="none" stroke="midnightblue" d="M680.484,-641.699C714.736,-611.019 758.598,-564.212 778,-512 789.766,-480.338 793.907,-465.798 778,-436 770.17,-421.333 757.943,-409.095 744.462,-399.093"/>
<polygon fill="midnightblue" stroke="midnightblue" points="678.088,-639.145 672.892,-648.379 682.712,-644.401 678.088,-639.145"/>
</g>
<!-- Node10 -->
<g id="node10" class="node"><title>Node10</title>
<g id="a_node10"><a xlink:href="__yarp__idl___2msgs_2geometry__msgs___wrench_stamped_8h.html" target="_top" xlink:title="/home/travis/build\l/robotology&#45;playground\l/human&#45;dynamics&#45;estimation\l/build/human&#45;viz&#45;bridge/\l_yarp_idl_/msgs/geometry_msgs\l_WrenchStamped.h">
<polygon fill="none" stroke="black" points="550.5,-213 550.5,-287 711.5,-287 711.5,-213 550.5,-213"/>
<text text-anchor="start" x="558.5" y="-275" font-family="Helvetica,sans-Serif" font-size="10.00">/home/travis/build</text>
<text text-anchor="start" x="558.5" y="-264" font-family="Helvetica,sans-Serif" font-size="10.00">/robotology&#45;playground</text>
<text text-anchor="start" x="558.5" y="-253" font-family="Helvetica,sans-Serif" font-size="10.00">/human&#45;dynamics&#45;estimation</text>
<text text-anchor="start" x="558.5" y="-242" font-family="Helvetica,sans-Serif" font-size="10.00">/build/human&#45;viz&#45;bridge/</text>
<text text-anchor="start" x="558.5" y="-231" font-family="Helvetica,sans-Serif" font-size="10.00">_yarp_idl_/msgs/geometry_msgs</text>
<text text-anchor="middle" x="631" y="-220" font-family="Helvetica,sans-Serif" font-size="10.00">_WrenchStamped.h</text>
</a>
</g>
</g>
<!-- Node1&#45;&gt;Node10 -->
<g id="edge33" class="edge"><title>Node1&#45;&gt;Node10</title>
<path fill="none" stroke="midnightblue" d="M711.216,-643.192C725.258,-634.356 738.939,-623.938 750,-612 805.105,-552.525 811.838,-515.89 798,-436 788.979,-383.918 791.892,-364.561 758,-324 745.362,-308.876 728.737,-296.218 711.697,-285.92"/>
<polygon fill="midnightblue" stroke="midnightblue" points="709.196,-640.323 702.446,-648.489 712.815,-646.315 709.196,-640.323"/>
</g>
<!-- Node11 -->
<g id="node11" class="node"><title>Node11</title>
<g id="a_node11"><a xlink:href="__yarp__idl___2msgs_2sensor__msgs___joint_state_8h.html" target="_top" xlink:title="/home/travis/build\l/robotology&#45;playground\l/human&#45;dynamics&#45;estimation\l/build/human&#45;viz&#45;bridge/\l_yarp_idl_/msgs/sensor_msgs\l_JointState.h">
<polygon fill="none" stroke="black" points="620.5,-437 620.5,-511 769.5,-511 769.5,-437 620.5,-437"/>
<text text-anchor="start" x="628.5" y="-499" font-family="Helvetica,sans-Serif" font-size="10.00">/home/travis/build</text>
<text text-anchor="start" x="628.5" y="-488" font-family="Helvetica,sans-Serif" font-size="10.00">/robotology&#45;playground</text>
<text text-anchor="start" x="628.5" y="-477" font-family="Helvetica,sans-Serif" font-size="10.00">/human&#45;dynamics&#45;estimation</text>
<text text-anchor="start" x="628.5" y="-466" font-family="Helvetica,sans-Serif" font-size="10.00">/build/human&#45;viz&#45;bridge/</text>
<text text-anchor="start" x="628.5" y="-455" font-family="Helvetica,sans-Serif" font-size="10.00">_yarp_idl_/msgs/sensor_msgs</text>
<text text-anchor="middle" x="695" y="-444" font-family="Helvetica,sans-Serif" font-size="10.00">_JointState.h</text>
</a>
</g>
</g>
<!-- Node1&#45;&gt;Node11 -->
<g id="edge34" class="edge"><title>Node1&#45;&gt;Node11</title>
<path fill="none" stroke="midnightblue" d="M646.115,-638.484C657.209,-601.382 673.48,-546.967 684.155,-511.267"/>
<polygon fill="midnightblue" stroke="midnightblue" points="642.644,-637.876 643.132,-648.459 649.351,-639.881 642.644,-637.876"/>
</g>
<!-- Node2&#45;&gt;Node3 -->
<g id="edge2" class="edge"><title>Node2&#45;&gt;Node3</title>
<path fill="none" stroke="midnightblue" d="M207.229,-315.347C203.974,-305.925 200.589,-296.125 197.471,-287.099"/>
<polygon fill="midnightblue" stroke="midnightblue" points="203.984,-316.673 210.557,-324.982 210.6,-314.387 203.984,-316.673"/>
</g>
<!-- Node2&#45;&gt;Node4 -->
<g id="edge8" class="edge"><title>Node2&#45;&gt;Node4</title>
<path fill="none" stroke="midnightblue" d="M283.856,-317.859C293.114,-308.924 301.673,-298.88 308,-288 328.269,-253.144 334.669,-206.73 336.538,-175.024"/>
<polygon fill="midnightblue" stroke="midnightblue" points="281.313,-315.442 276.311,-324.782 286.046,-320.6 281.313,-315.442"/>
</g>
<!-- Node2&#45;&gt;Node5 -->
<g id="edge9" class="edge"><title>Node2&#45;&gt;Node5</title>
<path fill="none" stroke="midnightblue" d="M133.562,-326.463C118.148,-316.42 104.161,-303.771 95,-288 53.6137,-216.753 77.1179,-114.424 93.0661,-63.79"/>
<polygon fill="midnightblue" stroke="midnightblue" points="131.893,-329.545 142.25,-331.777 135.545,-323.573 131.893,-329.545"/>
</g>
<!-- Node2&#45;&gt;Node6 -->
<g id="edge10" class="edge"><title>Node2&#45;&gt;Node6</title>
<path fill="none" stroke="midnightblue" d="M260.516,-316.139C266.063,-307.3 270.937,-297.733 274,-288 284.14,-255.78 284.681,-244.044 274,-212 267.675,-193.026 253.325,-194.974 247,-176 236.319,-143.956 228.196,-128.06 247,-100 266.162,-71.4064 299.961,-55.0049 331.831,-45.6018"/>
<polygon fill="midnightblue" stroke="midnightblue" points="257.432,-314.455 254.787,-324.714 263.253,-318.343 257.432,-314.455"/>
</g>
<!-- Node3&#45;&gt;Node4 -->
<g id="edge3" class="edge"><title>Node3&#45;&gt;Node4</title>
<path fill="none" stroke="midnightblue" d="M243.178,-206.898C257.666,-196.413 273.069,-185.266 287.118,-175.099"/>
<polygon fill="midnightblue" stroke="midnightblue" points="240.82,-204.284 234.77,-212.982 244.924,-209.955 240.82,-204.284"/>
</g>
<!-- Node3&#45;&gt;Node5 -->
<g id="edge6" class="edge"><title>Node3&#45;&gt;Node5</title>
<path fill="none" stroke="midnightblue" d="M167.898,-203.395C152.137,-161.365 129.18,-100.146 115.502,-63.6716"/>
<polygon fill="midnightblue" stroke="midnightblue" points="164.654,-204.712 171.442,-212.846 171.208,-202.254 164.654,-204.712"/>
</g>
<!-- Node3&#45;&gt;Node6 -->
<g id="edge7" class="edge"><title>Node3&#45;&gt;Node6</title>
<path fill="none" stroke="midnightblue" d="M182.523,-202.608C183.29,-170.228 189.628,-127.967 214,-100 243.533,-66.1113 290.955,-49.343 331.755,-41.0557"/>
<polygon fill="midnightblue" stroke="midnightblue" points="179.022,-202.72 182.454,-212.743 186.022,-202.767 179.022,-202.72"/>
</g>
<!-- Node4&#45;&gt;Node5 -->
<g id="edge4" class="edge"><title>Node4&#45;&gt;Node5</title>
<path fill="none" stroke="midnightblue" d="M247.087,-96.8673C222.315,-85.8102 195.849,-73.997 172.5,-63.5752"/>
<polygon fill="midnightblue" stroke="midnightblue" points="245.93,-100.184 256.488,-101.063 248.783,-93.7914 245.93,-100.184"/>
</g>
<!-- Node4&#45;&gt;Node6 -->
<g id="edge5" class="edge"><title>Node4&#45;&gt;Node6</title>
<path fill="none" stroke="midnightblue" d="M368.206,-92.5425C374.996,-82.8685 382.036,-72.8386 388.359,-63.8307"/>
<polygon fill="midnightblue" stroke="midnightblue" points="365.207,-90.722 362.327,-100.918 370.937,-94.7436 365.207,-90.722"/>
</g>
<!-- Node7&#45;&gt;Node2 -->
<g id="edge12" class="edge"><title>Node7&#45;&gt;Node2</title>
<path fill="none" stroke="midnightblue" d="M326.572,-543.46C311.344,-534.848 296.777,-524.441 285,-512 255.049,-480.36 238.608,-432.182 230.315,-399.232"/>
<polygon fill="midnightblue" stroke="midnightblue" points="325.135,-546.661 335.598,-548.325 328.456,-540.499 325.135,-546.661"/>
</g>
<!-- Node7&#45;&gt;Node3 -->
<g id="edge22" class="edge"><title>Node7&#45;&gt;Node3</title>
<path fill="none" stroke="midnightblue" d="M324.786,-552.202C253.478,-526.621 164.573,-479.841 133,-400 120.579,-368.589 122.713,-356.173 133,-324 137.17,-310.957 144.618,-298.256 152.597,-287.202"/>
<polygon fill="midnightblue" stroke="midnightblue" points="323.683,-555.524 334.278,-555.52 325.993,-548.916 323.683,-555.524"/>
</g>
<!-- Node7&#45;&gt;Node4 -->
<g id="edge23" class="edge"><title>Node7&#45;&gt;Node4</title>
<path fill="none" stroke="midnightblue" d="M345.262,-542.565C334.326,-534.095 324.594,-523.968 318,-512 303.026,-484.82 332.169,-332.247 335,-288 337.461,-249.532 337.735,-205.368 337.534,-175.17"/>
<polygon fill="midnightblue" stroke="midnightblue" points="343.252,-545.43 353.41,-548.441 347.346,-539.753 343.252,-545.43"/>
</g>
<!-- Node7&#45;&gt;Node5 -->
<g id="edge27" class="edge"><title>Node7&#45;&gt;Node5</title>
<path fill="none" stroke="midnightblue" d="M324.282,-566.75C209.912,-546.481 38,-494.195 38,-363 38,-363 38,-363 38,-249 38,-181.36 46.2349,-163.694 69,-100 73.4168,-87.6422 79.7236,-74.7155 85.7698,-63.5501"/>
<polygon fill="midnightblue" stroke="midnightblue" points="324.026,-570.257 334.474,-568.499 325.21,-563.358 324.026,-570.257"/>
</g>
<!-- Node7&#45;&gt;Node6 -->
<g id="edge28" class="edge"><title>Node7&#45;&gt;Node6</title>
<path fill="none" stroke="midnightblue" d="M522.737,-543.759C539.358,-535.034 555.553,-524.512 569,-512 597.254,-485.711 580.349,-459.449 611,-436 664.423,-395.129 716.478,-452.918 758,-400 778.851,-373.426 763.5,-357.327 758,-324 749.441,-272.137 753.343,-252.637 720,-212 658.898,-137.531 558.143,-87.6194 488.152,-59.8273"/>
<polygon fill="midnightblue" stroke="midnightblue" points="520.832,-540.8 513.474,-548.423 523.98,-547.052 520.832,-540.8"/>
</g>
<!-- Node7&#45;&gt;Node8 -->
<g id="edge13" class="edge"><title>Node7&#45;&gt;Node8</title>
<path fill="none" stroke="midnightblue" d="M417.724,-538.209C416.358,-529.326 414.921,-519.986 413.583,-511.292"/>
<polygon fill="midnightblue" stroke="midnightblue" points="414.306,-539.008 419.286,-548.359 421.225,-537.943 414.306,-539.008"/>
</g>
<!-- Node7&#45;&gt;Node9 -->
<g id="edge24" class="edge"><title>Node7&#45;&gt;Node9</title>
<path fill="none" stroke="midnightblue" d="M491.858,-542.957C505.677,-533.907 519.491,-523.464 531,-512 559.304,-483.805 552.468,-465.868 579,-436 590.624,-422.914 604.742,-410.292 618.316,-399.329"/>
<polygon fill="midnightblue" stroke="midnightblue" points="489.838,-540.094 483.273,-548.41 493.591,-546.003 489.838,-540.094"/>
</g>
<!-- Node7&#45;&gt;Node10 -->
<g id="edge25" class="edge"><title>Node7&#45;&gt;Node10</title>
<path fill="none" stroke="midnightblue" d="M470.951,-541.333C480.344,-532.378 489.589,-522.386 497,-512 503.619,-502.725 573.386,-333.916 579,-324 586.052,-311.542 594.752,-298.611 603.003,-287.154"/>
<polygon fill="midnightblue" stroke="midnightblue" points="468.396,-538.927 463.417,-548.28 473.142,-544.074 468.396,-538.927"/>
</g>
<!-- Node7&#45;&gt;Node11 -->
<g id="edge26" class="edge"><title>Node7&#45;&gt;Node11</title>
<path fill="none" stroke="midnightblue" d="M519.449,-545.017C547.737,-534.686 578.71,-523.119 607,-512 611.319,-510.303 615.746,-508.534 620.205,-506.73"/>
<polygon fill="midnightblue" stroke="midnightblue" points="518.164,-541.759 509.966,-548.47 520.56,-548.337 518.164,-541.759"/>
</g>
<!-- Node8&#45;&gt;Node2 -->
<g id="edge14" class="edge"><title>Node8&#45;&gt;Node2</title>
<path fill="none" stroke="midnightblue" d="M338.672,-431.778C320.611,-421.039 301.29,-409.551 283.712,-399.099"/>
<polygon fill="midnightblue" stroke="midnightblue" points="337.04,-434.879 347.424,-436.982 340.617,-428.863 337.04,-434.879"/>
</g>
<!-- Node8&#45;&gt;Node3 -->
<g id="edge15" class="edge"><title>Node8&#45;&gt;Node3</title>
<path fill="none" stroke="midnightblue" d="M386.188,-427.65C369.236,-395.83 343.363,-353.813 312,-324 297.254,-309.983 279.322,-297.597 261.635,-287.193"/>
<polygon fill="midnightblue" stroke="midnightblue" points="383.211,-429.51 390.944,-436.753 389.416,-426.269 383.211,-429.51"/>
</g>
<!-- Node8&#45;&gt;Node4 -->
<g id="edge16" class="edge"><title>Node8&#45;&gt;Node4</title>
<path fill="none" stroke="midnightblue" d="M410.285,-426.676C411.439,-373.391 408.809,-283.993 384,-212 379.58,-199.174 372.459,-186.344 365.082,-175.098"/>
<polygon fill="midnightblue" stroke="midnightblue" points="406.782,-426.745 410.009,-436.836 413.779,-426.935 406.782,-426.745"/>
</g>
<!-- Node8&#45;&gt;Node5 -->
<g id="edge20" class="edge"><title>Node8&#45;&gt;Node5</title>
<path fill="none" stroke="midnightblue" d="M418.83,-426.983C420.535,-418.078 422.047,-408.785 423,-400 430.188,-333.719 468.068,-151.722 426,-100 411.746,-82.4746 292.07,-61.0139 202.755,-47.1801"/>
<polygon fill="midnightblue" stroke="midnightblue" points="415.392,-426.33 416.843,-436.825 422.253,-427.716 415.392,-426.33"/>
</g>
<!-- Node8&#45;&gt;Node6 -->
<g id="edge21" class="edge"><title>Node8&#45;&gt;Node6</title>
<path fill="none" stroke="midnightblue" d="M446.068,-428.496C451.797,-419.572 456.84,-409.884 460,-400 500.608,-273.001 502.012,-226.541 460,-100 455.655,-86.9141 447.65,-74.3138 439.299,-63.6408"/>
<polygon fill="midnightblue" stroke="midnightblue" points="443.148,-426.565 440.403,-436.798 448.93,-430.51 443.148,-426.565"/>
</g>
<!-- Node8&#45;&gt;Node9 -->
<g id="edge17" class="edge"><title>Node8&#45;&gt;Node9</title>
<path fill="none" stroke="midnightblue" d="M498.172,-434.997C527.403,-422.677 559.627,-409.096 588.138,-397.08"/>
<polygon fill="midnightblue" stroke="midnightblue" points="496.65,-431.84 488.795,-438.949 499.369,-438.29 496.65,-431.84"/>
</g>
<!-- Node8&#45;&gt;Node10 -->
<g id="edge19" class="edge"><title>Node8&#45;&gt;Node10</title>
<path fill="none" stroke="midnightblue" d="M466.677,-430.067C477.678,-420.76 488.646,-410.53 498,-400 524.532,-370.132 519.89,-354.238 546,-324 557.187,-311.044 570.727,-298.369 583.681,-287.313"/>
<polygon fill="midnightblue" stroke="midnightblue" points="464.163,-427.604 458.684,-436.671 468.622,-433 464.163,-427.604"/>
</g>
<!-- Node9&#45;&gt;Node10 -->
<g id="edge18" class="edge"><title>Node9&#45;&gt;Node10</title>
<path fill="none" stroke="midnightblue" d="M653.229,-315.347C649.974,-305.925 646.589,-296.125 643.471,-287.099"/>
<polygon fill="midnightblue" stroke="midnightblue" points="649.984,-316.673 656.557,-324.982 656.6,-314.387 649.984,-316.673"/>
</g>
</g>
</svg>
        <g id="navigator" transform="translate(0 0)" fill="#404254">
                <rect fill="#f2f5e9" fill-opacity="0.5" stroke="#606060" stroke-width=".5" x="0" y="0" width="60" height="60"/>
                <use id="zoomplus" xlink:href="#zoomPlus" x="17" y="9" onmousedown="handleZoom(evt,'in')"/>
                <use id="zoomminus" xlink:href="#zoomMin" x="42" y="9" onmousedown="handleZoom(evt,'out')"/>
                <use id="reset" xlink:href="#resetDef" x="30" y="36" onmousedown="handleReset()"/>
                <g id="arrowUp" xlink:href="#dirArrow" transform="translate(30 24)" onmousedown="handlePan(0,-1)">
                  <use xlink:href="#rim" fill="#404040">
                        <set attributeName="fill" to="#808080" begin="arrowUp.mouseover" end="arrowUp.mouseout"/>
                  </use>
                  <path fill="none" stroke="white" stroke-width="1.5" d="M0,-3.0v7 M-2.5,-0.5L0,-3.0L2.5,-0.5"/>
                </g>
                <g id="arrowRight" xlink:href="#dirArrow" transform="rotate(90) translate(36 -43)" onmousedown="handlePan(1,0)">
                  <use xlink:href="#rim" fill="#404040">
                        <set attributeName="fill" to="#808080" begin="arrowRight.mouseover" end="arrowRight.mouseout"/>
                  </use>
                  <path fill="none" stroke="white" stroke-width="1.5" d="M0,-3.0v7 M-2.5,-0.5L0,-3.0L2.5,-0.5"/>
                </g>
                <g id="arrowDown" xlink:href="#dirArrow" transform="rotate(180) translate(-30 -48)" onmousedown="handlePan(0,1)">
                  <use xlink:href="#rim" fill="#404040">
                        <set attributeName="fill" to="#808080" begin="arrowDown.mouseover" end="arrowDown.mouseout"/>
                  </use>
                  <path fill="none" stroke="white" stroke-width="1.5" d="M0,-3.0v7 M-2.5,-0.5L0,-3.0L2.5,-0.5"/>
                </g>
                <g id="arrowLeft" xlink:href="#dirArrow" transform="rotate(270) translate(-36 17)" onmousedown="handlePan(-1,0)">
                  <use xlink:href="#rim" fill="#404040">
                        <set attributeName="fill" to="#808080" begin="arrowLeft.mouseover" end="arrowLeft.mouseout"/>
                  </use>
                  <path fill="none" stroke="white" stroke-width="1.5" d="M0,-3.0v7 M-2.5,-0.5L0,-3.0L2.5,-0.5"/>
                </g>
        </g>
        <svg viewBox="0 0 15 15" width="100%" height="30px" preserveAspectRatio="xMaxYMin meet">
         <g id="arrow_out" transform="scale(0.3 0.3)">
          <a xlink:href="__yarp__idl___2msgs_2_tick_time_8h__dep__incl_org.svg" target="_base">
           <rect id="button" ry="5" rx="5" y="6" x="6" height="38" width="38"
                fill="#f2f5e9" fill-opacity="0.5" stroke="#606060" stroke-width="1.0"/>
           <path id="arrow"
             d="M 11.500037,31.436501 C 11.940474,20.09759 22.043105,11.32322 32.158766,21.979434 L 37.068811,17.246167 C 37.068811,17.246167 37.088388,32 37.088388,32 L 22.160133,31.978069 C 22.160133,31.978069 26.997745,27.140456 26.997745,27.140456 C 18.528582,18.264221 13.291696,25.230495 11.500037,31.436501 z"
             style="fill:#404040;"/>
          </a>
         </g>
        </svg>
</svg>
