<?xml version="1.0" encoding="UTF-8" standalone="no"?>
<!DOCTYPE svg PUBLIC "-//W3C//DTD SVG 1.1//EN"
 "http://www.w3.org/Graphics/SVG/1.1/DTD/svg11.dtd">
<!-- Generated by graphviz version 2.36.0 (20140111.2315)
 -->
<!-- Title: /home/travis/build/robotology&#45;playground/human&#45;dynamics&#45;estimation/build/human&#45;viz&#45;bridge/_yarp_idl_/thrift/xsensframe/XsensSensorData.h Pages: 1 -->
<svg width="231pt" height="252pt"
 viewBox="0.00 0.00 231.29 252.00" xmlns="http://www.w3.org/2000/svg" xmlns:xlink="http://www.w3.org/1999/xlink">
<g id="graph0" class="graph" transform="scale(1 1) rotate(0) translate(4 248)">
<title>/home/travis/build/robotology&#45;playground/human&#45;dynamics&#45;estimation/build/human&#45;viz&#45;bridge/_yarp_idl_/thrift/xsensframe/XsensSensorData.h</title>
<!-- Node1 -->
<g id="node1" class="node"><title>Node1</title>
<polygon fill="#bfbfbf" stroke="black" points="12.2926,-169 12.2926,-243 154.293,-243 154.293,-169 12.2926,-169"/>
<text text-anchor="start" x="20.2926" y="-231" font-family="Helvetica,sans-Serif" font-size="10.00">/home/travis/build</text>
<text text-anchor="start" x="20.2926" y="-220" font-family="Helvetica,sans-Serif" font-size="10.00">/robotology&#45;playground</text>
<text text-anchor="start" x="20.2926" y="-209" font-family="Helvetica,sans-Serif" font-size="10.00">/human&#45;dynamics&#45;estimation</text>
<text text-anchor="start" x="20.2926" y="-198" font-family="Helvetica,sans-Serif" font-size="10.00">/build/human&#45;viz&#45;bridge/</text>
<text text-anchor="start" x="20.2926" y="-187" font-family="Helvetica,sans-Serif" font-size="10.00">_yarp_idl_/thrift/xsensframe</text>
<text text-anchor="middle" x="83.2926" y="-176" font-family="Helvetica,sans-Serif" font-size="10.00">/XsensSensorData.h</text>
</g>
<!-- Node2 -->
<g id="node2" class="node"><title>Node2</title>
<polygon fill="none" stroke="#bfbfbf" points="6.29258,-0.5 6.29258,-19.5 86.2926,-19.5 86.2926,-0.5 6.29258,-0.5"/>
<text text-anchor="middle" x="46.2926" y="-7.5" font-family="Helvetica,sans-Serif" font-size="10.00">yarp/os/Wire.h</text>
</g>
<!-- Node1&#45;&gt;Node2 -->
<g id="edge1" class="edge"><title>Node1&#45;&gt;Node2</title>
<path fill="none" stroke="midnightblue" d="M52.7318,-168.779C34.1556,-144.304 12.1704,-110.307 2.29258,-76 -0.16685,-67.4581 -1.06286,-64.2312 2.29258,-56 7.09259,-44.2251 16.6212,-33.8564 25.5874,-26.0486"/>
<polygon fill="midnightblue" stroke="midnightblue" points="27.943,-28.6448 33.5117,-19.6314 23.5376,-23.2048 27.943,-28.6448"/>
</g>
<!-- Node3 -->
<g id="node3" class="node"><title>Node3</title>
<polygon fill="none" stroke="#bfbfbf" points="104.293,-0.5 104.293,-19.5 224.293,-19.5 224.293,-0.5 104.293,-0.5"/>
<text text-anchor="middle" x="164.293" y="-7.5" font-family="Helvetica,sans-Serif" font-size="10.00">yarp/os/idl/WireTypes.h</text>
</g>
<!-- Node1&#45;&gt;Node3 -->
<g id="edge2" class="edge"><title>Node1&#45;&gt;Node3</title>
<path fill="none" stroke="midnightblue" d="M146.636,-168.799C159.006,-158.588 170.297,-146.29 177.293,-132 193.639,-98.6096 181.372,-53.9548 172.104,-29.2959"/>
<polygon fill="midnightblue" stroke="midnightblue" points="175.254,-27.7471 168.289,-19.7636 168.755,-30.3482 175.254,-27.7471"/>
</g>
<!-- Node4 -->
<g id="node4" class="node"><title>Node4</title>
<g id="a_node4"><a xlink:href="human-viz-bridge_2autogenerated_2data_2include_2thrift_2_quaternion_8h.html" target="_top" xlink:title="thrift/Quaternion.h">
<polygon fill="none" stroke="black" points="73.7926,-112.5 73.7926,-131.5 168.793,-131.5 168.793,-112.5 73.7926,-112.5"/>
<text text-anchor="middle" x="121.293" y="-119.5" font-family="Helvetica,sans-Serif" font-size="10.00">thrift/Quaternion.h</text>
</a>
</g>
</g>
<!-- Node1&#45;&gt;Node4 -->
<g id="edge3" class="edge"><title>Node1&#45;&gt;Node4</title>
<path fill="none" stroke="midnightblue" d="M100.071,-168.795C104.544,-159.142 109.184,-149.129 112.98,-140.937"/>
<polygon fill="midnightblue" stroke="midnightblue" points="116.233,-142.243 117.262,-131.698 109.882,-139.299 116.233,-142.243"/>
</g>
<!-- Node5 -->
<g id="node5" class="node"><title>Node5</title>
<g id="a_node5"><a xlink:href="human-viz-bridge_2autogenerated_2data_2include_2thrift_2_vector3_8h.html" target="_top" xlink:title="thrift/Vector3.h">
<polygon fill="none" stroke="black" points="11.7926,-56.5 11.7926,-75.5 92.7926,-75.5 92.7926,-56.5 11.7926,-56.5"/>
<text text-anchor="middle" x="52.2926" y="-63.5" font-family="Helvetica,sans-Serif" font-size="10.00">thrift/Vector3.h</text>
</a>
</g>
</g>
<!-- Node1&#45;&gt;Node5 -->
<g id="edge9" class="edge"><title>Node1&#45;&gt;Node5</title>
<path fill="none" stroke="midnightblue" d="M73.3035,-168.736C70.2329,-157.052 66.9621,-144.017 64.2926,-132 60.8666,-116.578 57.655,-98.9443 55.418,-85.9385"/>
<polygon fill="midnightblue" stroke="midnightblue" points="58.8348,-85.1518 53.7221,-75.8722 51.9321,-86.3147 58.8348,-85.1518"/>
</g>
<!-- Node4&#45;&gt;Node2 -->
<g id="edge4" class="edge"><title>Node4&#45;&gt;Node2</title>
<path fill="none" stroke="midnightblue" d="M120.25,-112.317C118.331,-99.1635 113.28,-73.8343 101.293,-56 93.0381,-43.7191 80.4458,-33.0682 69.3921,-25.2155"/>
<polygon fill="midnightblue" stroke="midnightblue" points="71.2182,-22.2256 60.9694,-19.5401 67.3066,-28.0307 71.2182,-22.2256"/>
</g>
<!-- Node4&#45;&gt;Node3 -->
<g id="edge5" class="edge"><title>Node4&#45;&gt;Node3</title>
<path fill="none" stroke="midnightblue" d="M124.667,-112.368C131.669,-94.4563 147.904,-52.9233 157.276,-28.9482"/>
<polygon fill="midnightblue" stroke="midnightblue" points="160.553,-30.1794 160.934,-19.5914 154.033,-27.6308 160.553,-30.1794"/>
</g>
<!-- Node4&#45;&gt;Node5 -->
<g id="edge6" class="edge"><title>Node4&#45;&gt;Node5</title>
<path fill="none" stroke="midnightblue" d="M110.207,-112.324C99.8066,-104.185 84.0319,-91.8395 71.571,-82.0874"/>
<polygon fill="midnightblue" stroke="midnightblue" points="73.6125,-79.2407 63.5803,-75.8339 69.2983,-84.7533 73.6125,-79.2407"/>
</g>
<!-- Node5&#45;&gt;Node2 -->
<g id="edge7" class="edge"><title>Node5&#45;&gt;Node2</title>
<path fill="none" stroke="midnightblue" d="M51.3018,-56.083C50.5067,-48.9272 49.3632,-38.6353 48.3694,-29.6911"/>
<polygon fill="midnightblue" stroke="midnightblue" points="51.8479,-29.3034 47.2649,-19.7511 44.8907,-30.0765 51.8479,-29.3034"/>
</g>
<!-- Node5&#45;&gt;Node3 -->
<g id="edge8" class="edge"><title>Node5&#45;&gt;Node3</title>
<path fill="none" stroke="midnightblue" d="M70.2873,-56.324C88.3303,-47.6247 116.339,-34.1202 137.095,-24.113"/>
<polygon fill="midnightblue" stroke="midnightblue" points="138.855,-27.1502 146.342,-19.6545 135.815,-20.8449 138.855,-27.1502"/>
</g>
</g>
</svg>
