<?xml version="1.0" encoding="UTF-8" standalone="no"?>
<!DOCTYPE svg PUBLIC "-//W3C//DTD SVG 1.1//EN"
 "http://www.w3.org/Graphics/SVG/1.1/DTD/svg11.dtd">
<!-- Generated by graphviz version 2.36.0 (20140111.2315)
 -->
<!-- Title: /home/travis/build/robotology&#45;playground/human&#45;dynamics&#45;estimation/build/human&#45;viz&#45;bridge/_yarp_idl_/thrift/xsensframe/XsensStatus.cpp Pages: 1 -->
<svg width="247pt" height="196pt"
 viewBox="0.00 0.00 247.00 196.00" xmlns="http://www.w3.org/2000/svg" xmlns:xlink="http://www.w3.org/1999/xlink">
<g id="graph0" class="graph" transform="scale(1 1) rotate(0) translate(4 192)">
<title>/home/travis/build/robotology&#45;playground/human&#45;dynamics&#45;estimation/build/human&#45;viz&#45;bridge/_yarp_idl_/thrift/xsensframe/XsensStatus.cpp</title>
<!-- Node1 -->
<g id="node1" class="node"><title>Node1</title>
<polygon fill="#bfbfbf" stroke="black" points="39,-113 39,-187 181,-187 181,-113 39,-113"/>
<text text-anchor="start" x="47" y="-175" font-family="Helvetica,sans-Serif" font-size="10.00">/home/travis/build</text>
<text text-anchor="start" x="47" y="-164" font-family="Helvetica,sans-Serif" font-size="10.00">/robotology&#45;playground</text>
<text text-anchor="start" x="47" y="-153" font-family="Helvetica,sans-Serif" font-size="10.00">/human&#45;dynamics&#45;estimation</text>
<text text-anchor="start" x="47" y="-142" font-family="Helvetica,sans-Serif" font-size="10.00">/build/human&#45;viz&#45;bridge/</text>
<text text-anchor="start" x="47" y="-131" font-family="Helvetica,sans-Serif" font-size="10.00">_yarp_idl_/thrift/xsensframe</text>
<text text-anchor="middle" x="110" y="-120" font-family="Helvetica,sans-Serif" font-size="10.00">/XsensStatus.cpp</text>
</g>
<!-- Node2 -->
<g id="node2" class="node"><title>Node2</title>
<polygon fill="none" stroke="#bfbfbf" points="0,-0.5 0,-19.5 80,-19.5 80,-0.5 0,-0.5"/>
<text text-anchor="middle" x="40" y="-7.5" font-family="Helvetica,sans-Serif" font-size="10.00">yarp/os/Wire.h</text>
</g>
<!-- Node1&#45;&gt;Node2 -->
<g id="edge1" class="edge"><title>Node1&#45;&gt;Node2</title>
<path fill="none" stroke="midnightblue" d="M72.9528,-112.74C63.726,-101.778 54.8175,-89.1385 49,-76 42.5786,-61.4977 40.4798,-43.5454 39.9011,-30.1845"/>
<polygon fill="midnightblue" stroke="midnightblue" points="43.3941,-29.7621 39.7135,-19.8271 36.3953,-29.8889 43.3941,-29.7621"/>
</g>
<!-- Node3 -->
<g id="node3" class="node"><title>Node3</title>
<polygon fill="none" stroke="#bfbfbf" points="119,-0.5 119,-19.5 239,-19.5 239,-0.5 119,-0.5"/>
<text text-anchor="middle" x="179" y="-7.5" font-family="Helvetica,sans-Serif" font-size="10.00">yarp/os/idl/WireTypes.h</text>
</g>
<!-- Node1&#45;&gt;Node3 -->
<g id="edge2" class="edge"><title>Node1&#45;&gt;Node3</title>
<path fill="none" stroke="midnightblue" d="M147.177,-112.797C156.405,-101.836 165.282,-89.1821 171,-76 177.299,-61.4783 179.113,-43.5277 179.457,-30.1724"/>
<polygon fill="midnightblue" stroke="midnightblue" points="182.957,-29.8204 179.457,-19.8205 175.957,-29.8206 182.957,-29.8204"/>
</g>
<!-- Node4 -->
<g id="node4" class="node"><title>Node4</title>
<g id="a_node4"><a xlink:href="autogenerated_2data_2include_2thrift_2_xsens_status_8h.html" target="_top" xlink:title="thrift/XsensStatus.h">
<polygon fill="none" stroke="black" points="58,-56.5 58,-75.5 162,-75.5 162,-56.5 58,-56.5"/>
<text text-anchor="middle" x="110" y="-63.5" font-family="Helvetica,sans-Serif" font-size="10.00">thrift/XsensStatus.h</text>
</a>
</g>
</g>
<!-- Node1&#45;&gt;Node4 -->
<g id="edge3" class="edge"><title>Node1&#45;&gt;Node4</title>
<path fill="none" stroke="midnightblue" d="M110,-112.795C110,-103.463 110,-93.7959 110,-85.7618"/>
<polygon fill="midnightblue" stroke="midnightblue" points="113.5,-85.6978 110,-75.6978 106.5,-85.6978 113.5,-85.6978"/>
</g>
<!-- Node4&#45;&gt;Node2 -->
<g id="edge4" class="edge"><title>Node4&#45;&gt;Node2</title>
<path fill="none" stroke="midnightblue" d="M98.7533,-56.324C88.2026,-48.1849 72.1993,-35.8395 59.5578,-26.0874"/>
<polygon fill="midnightblue" stroke="midnightblue" points="61.507,-23.1707 51.4513,-19.8339 57.2314,-28.7132 61.507,-23.1707"/>
</g>
<!-- Node4&#45;&gt;Node3 -->
<g id="edge5" class="edge"><title>Node4&#45;&gt;Node3</title>
<path fill="none" stroke="midnightblue" d="M121.086,-56.324C131.486,-48.1849 147.261,-35.8395 159.722,-26.0874"/>
<polygon fill="midnightblue" stroke="midnightblue" points="161.994,-28.7533 167.712,-19.8339 157.68,-23.2407 161.994,-28.7533"/>
</g>
</g>
</svg>
