<?xml version="1.0" encoding="UTF-8" standalone="no"?>
<!DOCTYPE svg PUBLIC "-//W3C//DTD SVG 1.1//EN"
 "http://www.w3.org/Graphics/SVG/1.1/DTD/svg11.dtd">
<!-- Generated by graphviz version 2.36.0 (20140111.2315)
 -->
<!-- Title: /home/travis/build/robotology&#45;playground/human&#45;dynamics&#45;estimation/build/human&#45;viz&#45;bridge/_yarp_idl_/msgs/std_msgs_Header.h Pages: 1 -->
<svg width="948pt" height="620pt"
 viewBox="0.00 0.00 948.00 620.00" xmlns="http://www.w3.org/2000/svg" xmlns:xlink="http://www.w3.org/1999/xlink">
<g id="graph0" class="graph" transform="scale(1 1) rotate(0) translate(4 616)">
<title>/home/travis/build/robotology&#45;playground/human&#45;dynamics&#45;estimation/build/human&#45;viz&#45;bridge/_yarp_idl_/msgs/std_msgs_Header.h</title>
<!-- Node1 -->
<g id="node1" class="node"><title>Node1</title>
<polygon fill="#bfbfbf" stroke="black" points="380.5,-548.5 380.5,-611.5 559.5,-611.5 559.5,-548.5 380.5,-548.5"/>
<text text-anchor="start" x="388.5" y="-599.5" font-family="Helvetica,sans-Serif" font-size="10.00">/home/travis/build</text>
<text text-anchor="start" x="388.5" y="-588.5" font-family="Helvetica,sans-Serif" font-size="10.00">/robotology&#45;playground</text>
<text text-anchor="start" x="388.5" y="-577.5" font-family="Helvetica,sans-Serif" font-size="10.00">/human&#45;dynamics&#45;estimation</text>
<text text-anchor="start" x="388.5" y="-566.5" font-family="Helvetica,sans-Serif" font-size="10.00">/build/human&#45;viz&#45;bridge/</text>
<text text-anchor="middle" x="470" y="-555.5" font-family="Helvetica,sans-Serif" font-size="10.00">_yarp_idl_/msgs/std_msgs_Header.h</text>
</g>
<!-- Node2 -->
<g id="node2" class="node"><title>Node2</title>
<g id="a_node2"><a xlink:href="__yarp__idl___2msgs_2geometry__msgs___quaternion_8h.html" target="_top" xlink:title="/home/travis/build\l/robotology&#45;playground\l/human&#45;dynamics&#45;estimation\l/build/human&#45;viz&#45;bridge/\l_yarp_idl_/msgs/geometry_msgs\l_Quaternion.h">
<polygon fill="none" stroke="black" points="280.5,-325 280.5,-399 441.5,-399 441.5,-325 280.5,-325"/>
<text text-anchor="start" x="288.5" y="-387" font-family="Helvetica,sans-Serif" font-size="10.00">/home/travis/build</text>
<text text-anchor="start" x="288.5" y="-376" font-family="Helvetica,sans-Serif" font-size="10.00">/robotology&#45;playground</text>
<text text-anchor="start" x="288.5" y="-365" font-family="Helvetica,sans-Serif" font-size="10.00">/human&#45;dynamics&#45;estimation</text>
<text text-anchor="start" x="288.5" y="-354" font-family="Helvetica,sans-Serif" font-size="10.00">/build/human&#45;viz&#45;bridge/</text>
<text text-anchor="start" x="288.5" y="-343" font-family="Helvetica,sans-Serif" font-size="10.00">_yarp_idl_/msgs/geometry_msgs</text>
<text text-anchor="middle" x="361" y="-332" font-family="Helvetica,sans-Serif" font-size="10.00">_Quaternion.h</text>
</a>
</g>
</g>
<!-- Node1&#45;&gt;Node2 -->
<g id="edge1" class="edge"><title>Node1&#45;&gt;Node2</title>
<path fill="none" stroke="midnightblue" d="M472.002,-538.08C471.709,-508.033 467.504,-467.191 450,-436 442.176,-422.058 430.55,-409.701 418.263,-399.3"/>
<polygon fill="midnightblue" stroke="midnightblue" points="468.502,-538.209 471.958,-548.224 475.502,-538.24 468.502,-538.209"/>
</g>
<!-- Node3 -->
<g id="node3" class="node"><title>Node3</title>
<g id="a_node3"><a xlink:href="__yarp__idl___2msgs_2geometry__msgs___transform_8h.html" target="_top" xlink:title="/home/travis/build\l/robotology&#45;playground\l/human&#45;dynamics&#45;estimation\l/build/human&#45;viz&#45;bridge/\l_yarp_idl_/msgs/geometry_msgs\l_Transform.h">
<polygon fill="none" stroke="black" points="104.5,-213 104.5,-287 265.5,-287 265.5,-213 104.5,-213"/>
<text text-anchor="start" x="112.5" y="-275" font-family="Helvetica,sans-Serif" font-size="10.00">/home/travis/build</text>
<text text-anchor="start" x="112.5" y="-264" font-family="Helvetica,sans-Serif" font-size="10.00">/robotology&#45;playground</text>
<text text-anchor="start" x="112.5" y="-253" font-family="Helvetica,sans-Serif" font-size="10.00">/human&#45;dynamics&#45;estimation</text>
<text text-anchor="start" x="112.5" y="-242" font-family="Helvetica,sans-Serif" font-size="10.00">/build/human&#45;viz&#45;bridge/</text>
<text text-anchor="start" x="112.5" y="-231" font-family="Helvetica,sans-Serif" font-size="10.00">_yarp_idl_/msgs/geometry_msgs</text>
<text text-anchor="middle" x="185" y="-220" font-family="Helvetica,sans-Serif" font-size="10.00">_Transform.h</text>
</a>
</g>
</g>
<!-- Node1&#45;&gt;Node3 -->
<g id="edge20" class="edge"><title>Node1&#45;&gt;Node3</title>
<path fill="none" stroke="midnightblue" d="M370.445,-559.415C336.495,-549.284 299.859,-534.206 271,-512 223.716,-475.617 216.452,-456.401 197,-400 184.266,-363.077 182.357,-318.071 182.946,-287.246"/>
<polygon fill="midnightblue" stroke="midnightblue" points="369.833,-562.88 380.41,-562.273 371.762,-556.152 369.833,-562.88"/>
</g>
<!-- Node4 -->
<g id="node4" class="node"><title>Node4</title>
<g id="a_node4"><a xlink:href="__yarp__idl___2msgs_2geometry__msgs___transform_stamped_8h.html" target="_top" xlink:title="/home/travis/build\l/robotology&#45;playground\l/human&#45;dynamics&#45;estimation\l/build/human&#45;viz&#45;bridge/\l_yarp_idl_/msgs/geometry_msgs\l_TransformStamped.h">
<polygon fill="none" stroke="black" points="166.5,-101 166.5,-175 327.5,-175 327.5,-101 166.5,-101"/>
<text text-anchor="start" x="174.5" y="-163" font-family="Helvetica,sans-Serif" font-size="10.00">/home/travis/build</text>
<text text-anchor="start" x="174.5" y="-152" font-family="Helvetica,sans-Serif" font-size="10.00">/robotology&#45;playground</text>
<text text-anchor="start" x="174.5" y="-141" font-family="Helvetica,sans-Serif" font-size="10.00">/human&#45;dynamics&#45;estimation</text>
<text text-anchor="start" x="174.5" y="-130" font-family="Helvetica,sans-Serif" font-size="10.00">/build/human&#45;viz&#45;bridge/</text>
<text text-anchor="start" x="174.5" y="-119" font-family="Helvetica,sans-Serif" font-size="10.00">_yarp_idl_/msgs/geometry_msgs</text>
<text text-anchor="middle" x="247" y="-108" font-family="Helvetica,sans-Serif" font-size="10.00">_TransformStamped.h</text>
</a>
</g>
</g>
<!-- Node1&#45;&gt;Node4 -->
<g id="edge21" class="edge"><title>Node1&#45;&gt;Node4</title>
<path fill="none" stroke="midnightblue" d="M370.137,-573.387C316.825,-565.846 252.927,-549.01 207,-512 120.332,-442.159 120.573,-396.329 95,-288 87.2395,-255.126 77.0139,-240.591 95,-212 111.056,-186.478 138.798,-169.675 166.223,-158.708"/>
<polygon fill="midnightblue" stroke="midnightblue" points="369.932,-576.891 380.305,-574.732 370.85,-569.951 369.932,-576.891"/>
</g>
<!-- Node5 -->
<g id="node5" class="node"><title>Node5</title>
<g id="a_node5"><a xlink:href="__yarp__idl___2msgs_2tf2__msgs___t_f_message_8h.html" target="_top" xlink:title="/home/travis/build\l/robotology&#45;playground\l/human&#45;dynamics&#45;estimation\l/build/human&#45;viz&#45;bridge/\l_yarp_idl_/msgs/tf2_msgs_TFMessage.h">
<polygon fill="none" stroke="black" points="39.5,-0.5 39.5,-63.5 236.5,-63.5 236.5,-0.5 39.5,-0.5"/>
<text text-anchor="start" x="47.5" y="-51.5" font-family="Helvetica,sans-Serif" font-size="10.00">/home/travis/build</text>
<text text-anchor="start" x="47.5" y="-40.5" font-family="Helvetica,sans-Serif" font-size="10.00">/robotology&#45;playground</text>
<text text-anchor="start" x="47.5" y="-29.5" font-family="Helvetica,sans-Serif" font-size="10.00">/human&#45;dynamics&#45;estimation</text>
<text text-anchor="start" x="47.5" y="-18.5" font-family="Helvetica,sans-Serif" font-size="10.00">/build/human&#45;viz&#45;bridge/</text>
<text text-anchor="middle" x="138" y="-7.5" font-family="Helvetica,sans-Serif" font-size="10.00">_yarp_idl_/msgs/tf2_msgs_TFMessage.h</text>
</a>
</g>
</g>
<!-- Node1&#45;&gt;Node5 -->
<g id="edge25" class="edge"><title>Node1&#45;&gt;Node5</title>
<path fill="none" stroke="midnightblue" d="M370.315,-575.93C232.349,-565.761 0,-524.639 0,-363 0,-363 0,-363 0,-249 0,-173.127 61.2136,-102.507 102.102,-63.7979"/>
<polygon fill="midnightblue" stroke="midnightblue" points="370.272,-579.436 380.49,-576.637 370.757,-572.453 370.272,-579.436"/>
</g>
<!-- Node6 -->
<g id="node6" class="node"><title>Node6</title>
<g id="a_node6"><a xlink:href="__yarp__idl___2msgs_2tf__tf_message_8h.html" target="_top" xlink:title="/home/travis/build\l/robotology&#45;playground\l/human&#45;dynamics&#45;estimation\l/build/human&#45;viz&#45;bridge/\l_yarp_idl_/msgs/tf_tfMessage.h">
<polygon fill="none" stroke="black" points="354,-0.5 354,-63.5 510,-63.5 510,-0.5 354,-0.5"/>
<text text-anchor="start" x="362" y="-51.5" font-family="Helvetica,sans-Serif" font-size="10.00">/home/travis/build</text>
<text text-anchor="start" x="362" y="-40.5" font-family="Helvetica,sans-Serif" font-size="10.00">/robotology&#45;playground</text>
<text text-anchor="start" x="362" y="-29.5" font-family="Helvetica,sans-Serif" font-size="10.00">/human&#45;dynamics&#45;estimation</text>
<text text-anchor="start" x="362" y="-18.5" font-family="Helvetica,sans-Serif" font-size="10.00">/build/human&#45;viz&#45;bridge/</text>
<text text-anchor="middle" x="432" y="-7.5" font-family="Helvetica,sans-Serif" font-size="10.00">_yarp_idl_/msgs/tf_tfMessage.h</text>
</a>
</g>
</g>
<!-- Node1&#45;&gt;Node6 -->
<g id="edge26" class="edge"><title>Node1&#45;&gt;Node6</title>
<path fill="none" stroke="midnightblue" d="M569.22,-555.413C599.003,-545.252 630.502,-531.17 656,-512 721.373,-462.85 764,-444.789 764,-363 764,-363 764,-363 764,-249 764,-128.491 608.413,-71.7503 510.259,-47.945"/>
<polygon fill="midnightblue" stroke="midnightblue" points="568.022,-552.122 559.62,-558.576 570.213,-558.771 568.022,-552.122"/>
</g>
<!-- Node7 -->
<g id="node7" class="node"><title>Node7</title>
<g id="a_node7"><a xlink:href="__yarp__idl___2msgs_2geometry__msgs___vector3_8h.html" target="_top" xlink:title="/home/travis/build\l/robotology&#45;playground\l/human&#45;dynamics&#45;estimation\l/build/human&#45;viz&#45;bridge/\l_yarp_idl_/msgs/geometry_msgs\l_Vector3.h">
<polygon fill="none" stroke="black" points="280.5,-437 280.5,-511 441.5,-511 441.5,-437 280.5,-437"/>
<text text-anchor="start" x="288.5" y="-499" font-family="Helvetica,sans-Serif" font-size="10.00">/home/travis/build</text>
<text text-anchor="start" x="288.5" y="-488" font-family="Helvetica,sans-Serif" font-size="10.00">/robotology&#45;playground</text>
<text text-anchor="start" x="288.5" y="-477" font-family="Helvetica,sans-Serif" font-size="10.00">/human&#45;dynamics&#45;estimation</text>
<text text-anchor="start" x="288.5" y="-466" font-family="Helvetica,sans-Serif" font-size="10.00">/build/human&#45;viz&#45;bridge/</text>
<text text-anchor="start" x="288.5" y="-455" font-family="Helvetica,sans-Serif" font-size="10.00">_yarp_idl_/msgs/geometry_msgs</text>
<text text-anchor="middle" x="361" y="-444" font-family="Helvetica,sans-Serif" font-size="10.00">_Vector3.h</text>
</a>
</g>
</g>
<!-- Node1&#45;&gt;Node7 -->
<g id="edge11" class="edge"><title>Node1&#45;&gt;Node7</title>
<path fill="none" stroke="midnightblue" d="M430.564,-541.373C420.289,-531.569 409.238,-521.025 399.037,-511.292"/>
<polygon fill="midnightblue" stroke="midnightblue" points="428.235,-543.988 437.886,-548.359 433.067,-538.924 428.235,-543.988"/>
</g>
<!-- Node8 -->
<g id="node8" class="node"><title>Node8</title>
<g id="a_node8"><a xlink:href="__yarp__idl___2msgs_2geometry__msgs___wrench_8h.html" target="_top" xlink:title="/home/travis/build\l/robotology&#45;playground\l/human&#45;dynamics&#45;estimation\l/build/human&#45;viz&#45;bridge/\l_yarp_idl_/msgs/geometry_msgs\l_Wrench.h">
<polygon fill="none" stroke="black" points="536.5,-325 536.5,-399 697.5,-399 697.5,-325 536.5,-325"/>
<text text-anchor="start" x="544.5" y="-387" font-family="Helvetica,sans-Serif" font-size="10.00">/home/travis/build</text>
<text text-anchor="start" x="544.5" y="-376" font-family="Helvetica,sans-Serif" font-size="10.00">/robotology&#45;playground</text>
<text text-anchor="start" x="544.5" y="-365" font-family="Helvetica,sans-Serif" font-size="10.00">/human&#45;dynamics&#45;estimation</text>
<text text-anchor="start" x="544.5" y="-354" font-family="Helvetica,sans-Serif" font-size="10.00">/build/human&#45;viz&#45;bridge/</text>
<text text-anchor="start" x="544.5" y="-343" font-family="Helvetica,sans-Serif" font-size="10.00">_yarp_idl_/msgs/geometry_msgs</text>
<text text-anchor="middle" x="617" y="-332" font-family="Helvetica,sans-Serif" font-size="10.00">_Wrench.h</text>
</a>
</g>
</g>
<!-- Node1&#45;&gt;Node8 -->
<g id="edge22" class="edge"><title>Node1&#45;&gt;Node8</title>
<path fill="none" stroke="midnightblue" d="M496.807,-539.609C524.035,-499.602 565.851,-438.157 592.296,-399.3"/>
<polygon fill="midnightblue" stroke="midnightblue" points="493.794,-537.816 491.062,-548.052 499.581,-541.755 493.794,-537.816"/>
</g>
<!-- Node9 -->
<g id="node9" class="node"><title>Node9</title>
<g id="a_node9"><a xlink:href="__yarp__idl___2msgs_2geometry__msgs___wrench_stamped_8h.html" target="_top" xlink:title="/home/travis/build\l/robotology&#45;playground\l/human&#45;dynamics&#45;estimation\l/build/human&#45;viz&#45;bridge/\l_yarp_idl_/msgs/geometry_msgs\l_WrenchStamped.h">
<polygon fill="none" stroke="black" points="536.5,-213 536.5,-287 697.5,-287 697.5,-213 536.5,-213"/>
<text text-anchor="start" x="544.5" y="-275" font-family="Helvetica,sans-Serif" font-size="10.00">/home/travis/build</text>
<text text-anchor="start" x="544.5" y="-264" font-family="Helvetica,sans-Serif" font-size="10.00">/robotology&#45;playground</text>
<text text-anchor="start" x="544.5" y="-253" font-family="Helvetica,sans-Serif" font-size="10.00">/human&#45;dynamics&#45;estimation</text>
<text text-anchor="start" x="544.5" y="-242" font-family="Helvetica,sans-Serif" font-size="10.00">/build/human&#45;viz&#45;bridge/</text>
<text text-anchor="start" x="544.5" y="-231" font-family="Helvetica,sans-Serif" font-size="10.00">_yarp_idl_/msgs/geometry_msgs</text>
<text text-anchor="middle" x="617" y="-220" font-family="Helvetica,sans-Serif" font-size="10.00">_WrenchStamped.h</text>
</a>
</g>
</g>
<!-- Node1&#45;&gt;Node9 -->
<g id="edge23" class="edge"><title>Node1&#45;&gt;Node9</title>
<path fill="none" stroke="midnightblue" d="M548.191,-543.681C603.45,-514.022 673.283,-465.879 706,-400 721.024,-369.748 720.446,-354.533 706,-324 699.334,-309.91 688.467,-297.629 676.579,-287.363"/>
<polygon fill="midnightblue" stroke="midnightblue" points="546.325,-540.708 539.106,-548.462 549.586,-546.902 546.325,-540.708"/>
</g>
<!-- Node10 -->
<g id="node10" class="node"><title>Node10</title>
<g id="a_node10"><a xlink:href="__yarp__idl___2msgs_2sensor__msgs___joint_state_8h.html" target="_top" xlink:title="/home/travis/build\l/robotology&#45;playground\l/human&#45;dynamics&#45;estimation\l/build/human&#45;viz&#45;bridge/\l_yarp_idl_/msgs/sensor_msgs\l_JointState.h">
<polygon fill="none" stroke="black" points="791.5,-437 791.5,-511 940.5,-511 940.5,-437 791.5,-437"/>
<text text-anchor="start" x="799.5" y="-499" font-family="Helvetica,sans-Serif" font-size="10.00">/home/travis/build</text>
<text text-anchor="start" x="799.5" y="-488" font-family="Helvetica,sans-Serif" font-size="10.00">/robotology&#45;playground</text>
<text text-anchor="start" x="799.5" y="-477" font-family="Helvetica,sans-Serif" font-size="10.00">/human&#45;dynamics&#45;estimation</text>
<text text-anchor="start" x="799.5" y="-466" font-family="Helvetica,sans-Serif" font-size="10.00">/build/human&#45;viz&#45;bridge/</text>
<text text-anchor="start" x="799.5" y="-455" font-family="Helvetica,sans-Serif" font-size="10.00">_yarp_idl_/msgs/sensor_msgs</text>
<text text-anchor="middle" x="866" y="-444" font-family="Helvetica,sans-Serif" font-size="10.00">_JointState.h</text>
</a>
</g>
</g>
<!-- Node1&#45;&gt;Node10 -->
<g id="edge24" class="edge"><title>Node1&#45;&gt;Node10</title>
<path fill="none" stroke="midnightblue" d="M569.753,-562.118C630.645,-550.63 709.667,-533.596 778,-512 782.425,-510.602 786.934,-509.066 791.457,-507.441"/>
<polygon fill="midnightblue" stroke="midnightblue" points="568.944,-558.709 559.756,-563.985 570.229,-565.59 568.944,-558.709"/>
</g>
<!-- Node2&#45;&gt;Node3 -->
<g id="edge2" class="edge"><title>Node2&#45;&gt;Node3</title>
<path fill="none" stroke="midnightblue" d="M294.576,-319.485C277.528,-308.83 259.329,-297.456 242.758,-287.099"/>
<polygon fill="midnightblue" stroke="midnightblue" points="293.036,-322.65 303.371,-324.982 296.746,-316.714 293.036,-322.65"/>
</g>
<!-- Node2&#45;&gt;Node4 -->
<g id="edge8" class="edge"><title>Node2&#45;&gt;Node4</title>
<path fill="none" stroke="midnightblue" d="M349.21,-314.925C340.342,-284.516 326.534,-244.451 308,-212 300.71,-199.236 291.116,-186.524 281.701,-175.37"/>
<polygon fill="midnightblue" stroke="midnightblue" points="345.928,-316.179 352.028,-324.842 352.662,-314.266 345.928,-316.179"/>
</g>
<!-- Node2&#45;&gt;Node5 -->
<g id="edge9" class="edge"><title>Node2&#45;&gt;Node5</title>
<path fill="none" stroke="midnightblue" d="M370.425,-314.769C379.204,-257.875 384.565,-161.3 336,-100 311.887,-69.5642 273.341,-52.8661 236.639,-43.7389"/>
<polygon fill="midnightblue" stroke="midnightblue" points="366.926,-314.477 368.758,-324.913 373.834,-315.613 366.926,-314.477"/>
</g>
<!-- Node2&#45;&gt;Node6 -->
<g id="edge10" class="edge"><title>Node2&#45;&gt;Node6</title>
<path fill="none" stroke="midnightblue" d="M376.315,-315.299C379.069,-306.304 381.769,-296.897 384,-288 404.047,-208.036 419.961,-112.09 427.407,-63.8733"/>
<polygon fill="midnightblue" stroke="midnightblue" points="372.972,-314.265 373.325,-324.854 379.652,-316.356 372.972,-314.265"/>
</g>
<!-- Node3&#45;&gt;Node4 -->
<g id="edge3" class="edge"><title>Node3&#45;&gt;Node4</title>
<path fill="none" stroke="midnightblue" d="M210.229,-204.239C215.693,-194.545 221.405,-184.41 226.653,-175.099"/>
<polygon fill="midnightblue" stroke="midnightblue" points="207.162,-202.552 205.301,-212.982 213.26,-205.989 207.162,-202.552"/>
</g>
<!-- Node3&#45;&gt;Node5 -->
<g id="edge6" class="edge"><title>Node3&#45;&gt;Node5</title>
<path fill="none" stroke="midnightblue" d="M165.602,-203.305C162.345,-194.37 159.286,-184.984 157,-176 147.304,-137.894 142.354,-92.7434 139.976,-63.5207"/>
<polygon fill="midnightblue" stroke="midnightblue" points="162.375,-204.667 169.187,-212.782 168.923,-202.19 162.375,-204.667"/>
</g>
<!-- Node3&#45;&gt;Node6 -->
<g id="edge7" class="edge"><title>Node3&#45;&gt;Node6</title>
<path fill="none" stroke="midnightblue" d="M274.951,-215.122C296.332,-204.568 318.107,-191.534 336,-176 372.692,-144.145 401.484,-95.1124 417.62,-63.5448"/>
<polygon fill="midnightblue" stroke="midnightblue" points="273.331,-212.018 265.825,-219.494 276.355,-218.331 273.331,-212.018"/>
</g>
<!-- Node4&#45;&gt;Node5 -->
<g id="edge4" class="edge"><title>Node4&#45;&gt;Node5</title>
<path fill="none" stroke="midnightblue" d="M201.938,-94.0054C191.331,-83.8842 180.231,-73.2935 170.313,-63.8307"/>
<polygon fill="midnightblue" stroke="midnightblue" points="199.532,-96.5468 209.183,-100.918 204.364,-91.4822 199.532,-96.5468"/>
</g>
<!-- Node4&#45;&gt;Node6 -->
<g id="edge5" class="edge"><title>Node4&#45;&gt;Node6</title>
<path fill="none" stroke="midnightblue" d="M320.159,-95.8726C339.26,-85.1349 359.512,-73.7498 377.458,-63.6612"/>
<polygon fill="midnightblue" stroke="midnightblue" points="318.187,-92.9663 311.185,-100.918 321.617,-99.0683 318.187,-92.9663"/>
</g>
<!-- Node7&#45;&gt;Node2 -->
<g id="edge12" class="edge"><title>Node7&#45;&gt;Node2</title>
<path fill="none" stroke="midnightblue" d="M361,-426.752C361,-417.513 361,-407.935 361,-399.099"/>
<polygon fill="midnightblue" stroke="midnightblue" points="357.5,-426.982 361,-436.982 364.5,-426.982 357.5,-426.982"/>
</g>
<!-- Node7&#45;&gt;Node3 -->
<g id="edge13" class="edge"><title>Node7&#45;&gt;Node3</title>
<path fill="none" stroke="midnightblue" d="M272.96,-431.225C260.014,-422.279 247.771,-411.876 238,-400 211.049,-367.243 197.324,-319.754 190.678,-287.247"/>
<polygon fill="midnightblue" stroke="midnightblue" points="271.276,-434.308 281.55,-436.895 275.132,-428.466 271.276,-434.308"/>
</g>
<!-- Node7&#45;&gt;Node4 -->
<g id="edge14" class="edge"><title>Node7&#45;&gt;Node4</title>
<path fill="none" stroke="midnightblue" d="M293.324,-429.978C284.294,-421.201 276.326,-411.178 271,-400 256.471,-369.507 269.596,-357.749 271,-324 273.069,-274.247 282.774,-261.017 274,-212 271.786,-199.63 267.617,-186.613 263.206,-175.053"/>
<polygon fill="midnightblue" stroke="midnightblue" points="291.012,-432.607 300.764,-436.748 295.723,-427.429 291.012,-432.607"/>
</g>
<!-- Node7&#45;&gt;Node5 -->
<g id="edge18" class="edge"><title>Node7&#45;&gt;Node5</title>
<path fill="none" stroke="midnightblue" d="M270.78,-441.647C205.732,-413.228 124.42,-363.998 95,-288 65.1775,-210.963 100.439,-112.933 122.632,-63.8852"/>
<polygon fill="midnightblue" stroke="midnightblue" points="269.68,-444.983 280.251,-445.689 272.428,-438.545 269.68,-444.983"/>
</g>
<!-- Node7&#45;&gt;Node6 -->
<g id="edge19" class="edge"><title>Node7&#45;&gt;Node6</title>
<path fill="none" stroke="midnightblue" d="M428.201,-429.613C437.02,-420.912 444.792,-411.008 450,-400 503.951,-285.971 463.811,-129.12 442.751,-63.6449"/>
<polygon fill="midnightblue" stroke="midnightblue" points="425.561,-427.286 420.579,-436.637 430.304,-432.434 425.561,-427.286"/>
</g>
<!-- Node7&#45;&gt;Node8 -->
<g id="edge15" class="edge"><title>Node7&#45;&gt;Node8</title>
<path fill="none" stroke="midnightblue" d="M450.966,-434.343C478.761,-422.399 509.189,-409.325 536.317,-397.668"/>
<polygon fill="midnightblue" stroke="midnightblue" points="449.455,-431.183 441.649,-438.346 452.218,-437.614 449.455,-431.183"/>
</g>
<!-- Node7&#45;&gt;Node9 -->
<g id="edge17" class="edge"><title>Node7&#45;&gt;Node9</title>
<path fill="none" stroke="midnightblue" d="M444.843,-431.334C458.87,-422.179 472.561,-411.679 484,-400 511.156,-372.275 501.936,-353.631 527,-324 538.174,-310.79 551.997,-298.217 565.429,-287.344"/>
<polygon fill="midnightblue" stroke="midnightblue" points="442.674,-428.564 436.082,-436.859 446.408,-434.485 442.674,-428.564"/>
</g>
<!-- Node8&#45;&gt;Node9 -->
<g id="edge16" class="edge"><title>Node8&#45;&gt;Node9</title>
<path fill="none" stroke="midnightblue" d="M617,-314.752C617,-305.513 617,-295.935 617,-287.099"/>
<polygon fill="midnightblue" stroke="midnightblue" points="613.5,-314.982 617,-324.982 620.5,-314.982 613.5,-314.982"/>
</g>
</g>
</svg>
