<?xml version="1.0" encoding="UTF-8" standalone="no"?>
<!DOCTYPE svg PUBLIC "-//W3C//DTD SVG 1.1//EN"
 "http://www.w3.org/Graphics/SVG/1.1/DTD/svg11.dtd">
<!-- Generated by graphviz version 2.36.0 (20140111.2315)
 -->
<!-- Title: /home/travis/build/robotology&#45;playground/human&#45;dynamics&#45;estimation/build/human&#45;viz&#45;bridge/_yarp_idl_/msgs/geometry_msgs_Transform.h Pages: 1 -->
<svg width="390pt" height="296pt"
 viewBox="0.00 0.00 390.00 296.00" xmlns="http://www.w3.org/2000/svg" xmlns:xlink="http://www.w3.org/1999/xlink">
<g id="graph0" class="graph" transform="scale(1 1) rotate(0) translate(4 292)">
<title>/home/travis/build/robotology&#45;playground/human&#45;dynamics&#45;estimation/build/human&#45;viz&#45;bridge/_yarp_idl_/msgs/geometry_msgs_Transform.h</title>
<!-- Node1 -->
<g id="node1" class="node"><title>Node1</title>
<polygon fill="#bfbfbf" stroke="black" points="120.5,-213 120.5,-287 281.5,-287 281.5,-213 120.5,-213"/>
<text text-anchor="start" x="128.5" y="-275" font-family="Helvetica,sans-Serif" font-size="10.00">/home/travis/build</text>
<text text-anchor="start" x="128.5" y="-264" font-family="Helvetica,sans-Serif" font-size="10.00">/robotology&#45;playground</text>
<text text-anchor="start" x="128.5" y="-253" font-family="Helvetica,sans-Serif" font-size="10.00">/human&#45;dynamics&#45;estimation</text>
<text text-anchor="start" x="128.5" y="-242" font-family="Helvetica,sans-Serif" font-size="10.00">/build/human&#45;viz&#45;bridge/</text>
<text text-anchor="start" x="128.5" y="-231" font-family="Helvetica,sans-Serif" font-size="10.00">_yarp_idl_/msgs/geometry_msgs</text>
<text text-anchor="middle" x="201" y="-220" font-family="Helvetica,sans-Serif" font-size="10.00">_Transform.h</text>
</g>
<!-- Node2 -->
<g id="node2" class="node"><title>Node2</title>
<g id="a_node2"><a xlink:href="__yarp__idl___2msgs_2geometry__msgs___transform_stamped_8h.html" target="_top" xlink:title="/home/travis/build\l/robotology&#45;playground\l/human&#45;dynamics&#45;estimation\l/build/human&#45;viz&#45;bridge/\l_yarp_idl_/msgs/geometry_msgs\l_TransformStamped.h">
<polygon fill="none" stroke="black" points="120.5,-101 120.5,-175 281.5,-175 281.5,-101 120.5,-101"/>
<text text-anchor="start" x="128.5" y="-163" font-family="Helvetica,sans-Serif" font-size="10.00">/home/travis/build</text>
<text text-anchor="start" x="128.5" y="-152" font-family="Helvetica,sans-Serif" font-size="10.00">/robotology&#45;playground</text>
<text text-anchor="start" x="128.5" y="-141" font-family="Helvetica,sans-Serif" font-size="10.00">/human&#45;dynamics&#45;estimation</text>
<text text-anchor="start" x="128.5" y="-130" font-family="Helvetica,sans-Serif" font-size="10.00">/build/human&#45;viz&#45;bridge/</text>
<text text-anchor="start" x="128.5" y="-119" font-family="Helvetica,sans-Serif" font-size="10.00">_yarp_idl_/msgs/geometry_msgs</text>
<text text-anchor="middle" x="201" y="-108" font-family="Helvetica,sans-Serif" font-size="10.00">_TransformStamped.h</text>
</a>
</g>
</g>
<!-- Node1&#45;&gt;Node2 -->
<g id="edge1" class="edge"><title>Node1&#45;&gt;Node2</title>
<path fill="none" stroke="midnightblue" d="M201,-202.752C201,-193.513 201,-183.935 201,-175.099"/>
<polygon fill="midnightblue" stroke="midnightblue" points="197.5,-202.982 201,-212.982 204.5,-202.982 197.5,-202.982"/>
</g>
<!-- Node3 -->
<g id="node3" class="node"><title>Node3</title>
<g id="a_node3"><a xlink:href="__yarp__idl___2msgs_2tf2__msgs___t_f_message_8h.html" target="_top" xlink:title="/home/travis/build\l/robotology&#45;playground\l/human&#45;dynamics&#45;estimation\l/build/human&#45;viz&#45;bridge/\l_yarp_idl_/msgs/tf2_msgs_TFMessage.h">
<polygon fill="none" stroke="black" points="-0.5,-0.5 -0.5,-63.5 196.5,-63.5 196.5,-0.5 -0.5,-0.5"/>
<text text-anchor="start" x="7.5" y="-51.5" font-family="Helvetica,sans-Serif" font-size="10.00">/home/travis/build</text>
<text text-anchor="start" x="7.5" y="-40.5" font-family="Helvetica,sans-Serif" font-size="10.00">/robotology&#45;playground</text>
<text text-anchor="start" x="7.5" y="-29.5" font-family="Helvetica,sans-Serif" font-size="10.00">/human&#45;dynamics&#45;estimation</text>
<text text-anchor="start" x="7.5" y="-18.5" font-family="Helvetica,sans-Serif" font-size="10.00">/build/human&#45;viz&#45;bridge/</text>
<text text-anchor="middle" x="98" y="-7.5" font-family="Helvetica,sans-Serif" font-size="10.00">_yarp_idl_/msgs/tf2_msgs_TFMessage.h</text>
</a>
</g>
</g>
<!-- Node1&#45;&gt;Node3 -->
<g id="edge4" class="edge"><title>Node1&#45;&gt;Node3</title>
<path fill="none" stroke="midnightblue" d="M134.543,-205.875C125.266,-197.071 116.902,-187.066 111,-176 92.2877,-140.917 91.8462,-94.0399 94.1723,-63.6841"/>
<polygon fill="midnightblue" stroke="midnightblue" points="132.362,-208.62 142.149,-212.677 137.028,-203.402 132.362,-208.62"/>
</g>
<!-- Node4 -->
<g id="node4" class="node"><title>Node4</title>
<g id="a_node4"><a xlink:href="__yarp__idl___2msgs_2tf__tf_message_8h.html" target="_top" xlink:title="/home/travis/build\l/robotology&#45;playground\l/human&#45;dynamics&#45;estimation\l/build/human&#45;viz&#45;bridge/\l_yarp_idl_/msgs/tf_tfMessage.h">
<polygon fill="none" stroke="black" points="226,-0.5 226,-63.5 382,-63.5 382,-0.5 226,-0.5"/>
<text text-anchor="start" x="234" y="-51.5" font-family="Helvetica,sans-Serif" font-size="10.00">/home/travis/build</text>
<text text-anchor="start" x="234" y="-40.5" font-family="Helvetica,sans-Serif" font-size="10.00">/robotology&#45;playground</text>
<text text-anchor="start" x="234" y="-29.5" font-family="Helvetica,sans-Serif" font-size="10.00">/human&#45;dynamics&#45;estimation</text>
<text text-anchor="start" x="234" y="-18.5" font-family="Helvetica,sans-Serif" font-size="10.00">/build/human&#45;viz&#45;bridge/</text>
<text text-anchor="middle" x="304" y="-7.5" font-family="Helvetica,sans-Serif" font-size="10.00">_yarp_idl_/msgs/tf_tfMessage.h</text>
</a>
</g>
</g>
<!-- Node1&#45;&gt;Node4 -->
<g id="edge5" class="edge"><title>Node1&#45;&gt;Node4</title>
<path fill="none" stroke="midnightblue" d="M266.311,-206.074C275.631,-197.204 284.055,-187.126 290,-176 308.75,-140.908 309.57,-94.0329 307.525,-63.6801"/>
<polygon fill="midnightblue" stroke="midnightblue" points="263.78,-203.642 258.675,-212.926 268.455,-208.852 263.78,-203.642"/>
</g>
<!-- Node2&#45;&gt;Node3 -->
<g id="edge2" class="edge"><title>Node2&#45;&gt;Node3</title>
<path fill="none" stroke="midnightblue" d="M158.13,-93.7133C148.193,-83.6806 137.816,-73.2025 128.534,-63.8307"/>
<polygon fill="midnightblue" stroke="midnightblue" points="155.741,-96.2754 165.265,-100.918 160.715,-91.3496 155.741,-96.2754"/>
</g>
<!-- Node2&#45;&gt;Node4 -->
<g id="edge3" class="edge"><title>Node2&#45;&gt;Node4</title>
<path fill="none" stroke="midnightblue" d="M243.87,-93.7133C253.807,-83.6806 264.184,-73.2025 273.466,-63.8307"/>
<polygon fill="midnightblue" stroke="midnightblue" points="241.285,-91.3496 236.735,-100.918 246.259,-96.2754 241.285,-91.3496"/>
</g>
</g>
</svg>
