<?xml version="1.0" encoding="UTF-8" standalone="no"?>
<!DOCTYPE svg PUBLIC "-//W3C//DTD SVG 1.1//EN"
 "http://www.w3.org/Graphics/SVG/1.1/DTD/svg11.dtd">
<!-- Generated by graphviz version 2.36.0 (20140111.2315)
 -->
<!-- Title: /home/travis/build/robotology&#45;playground/human&#45;dynamics&#45;estimation/human&#45;forces&#45;provider/src/AbstractForceReader.cpp Pages: 1 -->
<svg width="619pt" height="184pt"
 viewBox="0.00 0.00 619.00 184.00" xmlns="http://www.w3.org/2000/svg" xmlns:xlink="http://www.w3.org/1999/xlink">
<g id="graph0" class="graph" transform="scale(1 1) rotate(0) translate(4 180)">
<title>/home/travis/build/robotology&#45;playground/human&#45;dynamics&#45;estimation/human&#45;forces&#45;provider/src/AbstractForceReader.cpp</title>
<!-- Node1 -->
<g id="node1" class="node"><title>Node1</title>
<polygon fill="#bfbfbf" stroke="black" points="242,-112.5 242,-175.5 384,-175.5 384,-112.5 242,-112.5"/>
<text text-anchor="start" x="250" y="-163.5" font-family="Helvetica,sans-Serif" font-size="10.00">/home/travis/build</text>
<text text-anchor="start" x="250" y="-152.5" font-family="Helvetica,sans-Serif" font-size="10.00">/robotology&#45;playground</text>
<text text-anchor="start" x="250" y="-141.5" font-family="Helvetica,sans-Serif" font-size="10.00">/human&#45;dynamics&#45;estimation</text>
<text text-anchor="start" x="250" y="-130.5" font-family="Helvetica,sans-Serif" font-size="10.00">/human&#45;forces&#45;provider/src</text>
<text text-anchor="middle" x="313" y="-119.5" font-family="Helvetica,sans-Serif" font-size="10.00">/AbstractForceReader.cpp</text>
</g>
<!-- Node2 -->
<g id="node2" class="node"><title>Node2</title>
<g id="a_node2"><a xlink:href="_abstract_force_reader_8h.html" target="_top" xlink:title="AbstractForceReader.h">
<polygon fill="none" stroke="black" points="62,-56.5 62,-75.5 180,-75.5 180,-56.5 62,-56.5"/>
<text text-anchor="middle" x="121" y="-63.5" font-family="Helvetica,sans-Serif" font-size="10.00">AbstractForceReader.h</text>
</a>
</g>
</g>
<!-- Node1&#45;&gt;Node2 -->
<g id="edge1" class="edge"><title>Node1&#45;&gt;Node2</title>
<path fill="none" stroke="midnightblue" d="M241.779,-114.808C210.826,-102.556 176.183,-88.8434 151.964,-79.2566"/>
<polygon fill="midnightblue" stroke="midnightblue" points="153.17,-75.9699 142.584,-75.5437 150.594,-82.4786 153.17,-75.9699"/>
</g>
<!-- Node5 -->
<g id="node5" class="node"><title>Node5</title>
<g id="a_node5"><a xlink:href="_frame_transformer_8h.html" target="_top" xlink:title="FrameTransformer.h">
<polygon fill="none" stroke="black" points="198.5,-56.5 198.5,-75.5 303.5,-75.5 303.5,-56.5 198.5,-56.5"/>
<text text-anchor="middle" x="251" y="-63.5" font-family="Helvetica,sans-Serif" font-size="10.00">FrameTransformer.h</text>
</a>
</g>
</g>
<!-- Node1&#45;&gt;Node5 -->
<g id="edge4" class="edge"><title>Node1&#45;&gt;Node5</title>
<path fill="none" stroke="midnightblue" d="M287.782,-112.088C279.82,-102.328 271.33,-91.9206 264.515,-83.567"/>
<polygon fill="midnightblue" stroke="midnightblue" points="267.146,-81.2544 258.112,-75.7182 261.721,-85.6793 267.146,-81.2544"/>
</g>
<!-- Node7 -->
<g id="node7" class="node"><title>Node7</title>
<polygon fill="none" stroke="#bfbfbf" points="321.5,-56.5 321.5,-75.5 428.5,-75.5 428.5,-56.5 321.5,-56.5"/>
<text text-anchor="middle" x="375" y="-63.5" font-family="Helvetica,sans-Serif" font-size="10.00">yarp/os/LogStream.h</text>
</g>
<!-- Node1&#45;&gt;Node7 -->
<g id="edge6" class="edge"><title>Node1&#45;&gt;Node7</title>
<path fill="none" stroke="midnightblue" d="M338.218,-112.088C346.18,-102.328 354.67,-91.9206 361.485,-83.567"/>
<polygon fill="midnightblue" stroke="midnightblue" points="364.279,-85.6793 367.888,-75.7182 358.854,-81.2544 364.279,-85.6793"/>
</g>
<!-- Node8 -->
<g id="node8" class="node"><title>Node8</title>
<g id="a_node8"><a xlink:href="autogenerated_2include_2thrifts_2_force6_d_8h.html" target="_top" xlink:title="thrifts/Force6D.h">
<polygon fill="none" stroke="black" points="447,-56.5 447,-75.5 537,-75.5 537,-56.5 447,-56.5"/>
<text text-anchor="middle" x="492" y="-63.5" font-family="Helvetica,sans-Serif" font-size="10.00">thrifts/Force6D.h</text>
</a>
</g>
</g>
<!-- Node1&#45;&gt;Node8 -->
<g id="edge7" class="edge"><title>Node1&#45;&gt;Node8</title>
<path fill="none" stroke="midnightblue" d="M384.003,-112.854C411.304,-101.262 441.007,-88.6507 462.339,-79.5933"/>
<polygon fill="midnightblue" stroke="midnightblue" points="463.965,-82.7055 471.802,-75.5756 461.23,-76.2622 463.965,-82.7055"/>
</g>
<!-- Node3 -->
<g id="node3" class="node"><title>Node3</title>
<g id="a_node3"><a xlink:href="_force_reader_8h.html" target="_top" xlink:title="ForceReader.h">
<polygon fill="none" stroke="black" points="-0.5,-0.5 -0.5,-19.5 80.5,-19.5 80.5,-0.5 -0.5,-0.5"/>
<text text-anchor="middle" x="40" y="-7.5" font-family="Helvetica,sans-Serif" font-size="10.00">ForceReader.h</text>
</a>
</g>
</g>
<!-- Node2&#45;&gt;Node3 -->
<g id="edge2" class="edge"><title>Node2&#45;&gt;Node3</title>
<path fill="none" stroke="midnightblue" d="M107.986,-56.324C95.4684,-47.979 76.3183,-35.2122 61.5286,-25.3524"/>
<polygon fill="midnightblue" stroke="midnightblue" points="63.2437,-22.2894 52.9818,-19.6545 59.3608,-28.1137 63.2437,-22.2894"/>
</g>
<!-- Node4 -->
<g id="node4" class="node"><title>Node4</title>
<polygon fill="none" stroke="#bfbfbf" points="98.5,-0.5 98.5,-19.5 189.5,-19.5 189.5,-0.5 98.5,-0.5"/>
<text text-anchor="middle" x="144" y="-7.5" font-family="Helvetica,sans-Serif" font-size="10.00">yarp/sig/Vector.h</text>
</g>
<!-- Node2&#45;&gt;Node4 -->
<g id="edge3" class="edge"><title>Node2&#45;&gt;Node4</title>
<path fill="none" stroke="midnightblue" d="M124.798,-56.083C127.913,-48.77 132.423,-38.1814 136.289,-29.1034"/>
<polygon fill="midnightblue" stroke="midnightblue" points="139.574,-30.3229 140.273,-19.7511 133.134,-27.5798 139.574,-30.3229"/>
</g>
<!-- Node6 -->
<g id="node6" class="node"><title>Node6</title>
<polygon fill="none" stroke="#bfbfbf" points="230.5,-0.5 230.5,-19.5 271.5,-19.5 271.5,-0.5 230.5,-0.5"/>
<text text-anchor="middle" x="251" y="-7.5" font-family="Helvetica,sans-Serif" font-size="10.00">string</text>
</g>
<!-- Node5&#45;&gt;Node6 -->
<g id="edge5" class="edge"><title>Node5&#45;&gt;Node6</title>
<path fill="none" stroke="midnightblue" d="M251,-56.083C251,-49.0059 251,-38.8611 251,-29.9865"/>
<polygon fill="midnightblue" stroke="midnightblue" points="254.5,-29.751 251,-19.7511 247.5,-29.7511 254.5,-29.751"/>
</g>
<!-- Node9 -->
<g id="node9" class="node"><title>Node9</title>
<polygon fill="none" stroke="#bfbfbf" points="393,-0.5 393,-19.5 473,-19.5 473,-0.5 393,-0.5"/>
<text text-anchor="middle" x="433" y="-7.5" font-family="Helvetica,sans-Serif" font-size="10.00">yarp/os/Wire.h</text>
</g>
<!-- Node8&#45;&gt;Node9 -->
<g id="edge8" class="edge"><title>Node8&#45;&gt;Node9</title>
<path fill="none" stroke="midnightblue" d="M482.521,-56.324C473.799,-48.3414 460.657,-36.3128 450.102,-26.6529"/>
<polygon fill="midnightblue" stroke="midnightblue" points="452.392,-24.0036 442.652,-19.8339 447.666,-29.1674 452.392,-24.0036"/>
</g>
<!-- Node10 -->
<g id="node10" class="node"><title>Node10</title>
<polygon fill="none" stroke="#bfbfbf" points="491,-0.5 491,-19.5 611,-19.5 611,-0.5 491,-0.5"/>
<text text-anchor="middle" x="551" y="-7.5" font-family="Helvetica,sans-Serif" font-size="10.00">yarp/os/idl/WireTypes.h</text>
</g>
<!-- Node8&#45;&gt;Node10 -->
<g id="edge9" class="edge"><title>Node8&#45;&gt;Node10</title>
<path fill="none" stroke="midnightblue" d="M501.479,-56.324C510.201,-48.3414 523.343,-36.3128 533.898,-26.6529"/>
<polygon fill="midnightblue" stroke="midnightblue" points="536.334,-29.1674 541.348,-19.8339 531.608,-24.0036 536.334,-29.1674"/>
</g>
</g>
</svg>
