<?xml version="1.0" encoding="UTF-8" standalone="no"?>
<!DOCTYPE svg PUBLIC "-//W3C//DTD SVG 1.1//EN"
 "http://www.w3.org/Graphics/SVG/1.1/DTD/svg11.dtd">
<!-- Generated by graphviz version 2.36.0 (20140111.2315)
 -->
<!-- Title: /home/travis/build/robotology&#45;playground/human&#45;dynamics&#45;estimation/human&#45;forces&#45;provider/include/AbstractForceReader.h Pages: 1 -->
<svg width="197pt" height="128pt"
 viewBox="0.00 0.00 197.00 128.00" xmlns="http://www.w3.org/2000/svg" xmlns:xlink="http://www.w3.org/1999/xlink">
<g id="graph0" class="graph" transform="scale(1 1) rotate(0) translate(4 124)">
<title>/home/travis/build/robotology&#45;playground/human&#45;dynamics&#45;estimation/human&#45;forces&#45;provider/include/AbstractForceReader.h</title>
<!-- Node1 -->
<g id="node1" class="node"><title>Node1</title>
<polygon fill="#bfbfbf" stroke="black" points="17,-56.5 17,-119.5 167,-119.5 167,-56.5 17,-56.5"/>
<text text-anchor="start" x="25" y="-107.5" font-family="Helvetica,sans-Serif" font-size="10.00">/home/travis/build</text>
<text text-anchor="start" x="25" y="-96.5" font-family="Helvetica,sans-Serif" font-size="10.00">/robotology&#45;playground</text>
<text text-anchor="start" x="25" y="-85.5" font-family="Helvetica,sans-Serif" font-size="10.00">/human&#45;dynamics&#45;estimation</text>
<text text-anchor="start" x="25" y="-74.5" font-family="Helvetica,sans-Serif" font-size="10.00">/human&#45;forces&#45;provider/include</text>
<text text-anchor="middle" x="92" y="-63.5" font-family="Helvetica,sans-Serif" font-size="10.00">/AbstractForceReader.h</text>
</g>
<!-- Node2 -->
<g id="node2" class="node"><title>Node2</title>
<g id="a_node2"><a xlink:href="_force_reader_8h.html" target="_top" xlink:title="ForceReader.h">
<polygon fill="none" stroke="black" points="-0.5,-0.5 -0.5,-19.5 80.5,-19.5 80.5,-0.5 -0.5,-0.5"/>
<text text-anchor="middle" x="40" y="-7.5" font-family="Helvetica,sans-Serif" font-size="10.00">ForceReader.h</text>
</a>
</g>
</g>
<!-- Node1&#45;&gt;Node2 -->
<g id="edge1" class="edge"><title>Node1&#45;&gt;Node2</title>
<path fill="none" stroke="midnightblue" d="M70.8496,-56.0879C64.3121,-46.5331 57.3506,-36.3585 51.6982,-28.0973"/>
<polygon fill="midnightblue" stroke="midnightblue" points="54.5005,-25.9948 45.9651,-19.7182 48.7234,-29.9477 54.5005,-25.9948"/>
</g>
<!-- Node3 -->
<g id="node3" class="node"><title>Node3</title>
<polygon fill="none" stroke="#bfbfbf" points="98.5,-0.5 98.5,-19.5 189.5,-19.5 189.5,-0.5 98.5,-0.5"/>
<text text-anchor="middle" x="144" y="-7.5" font-family="Helvetica,sans-Serif" font-size="10.00">yarp/sig/Vector.h</text>
</g>
<!-- Node1&#45;&gt;Node3 -->
<g id="edge2" class="edge"><title>Node1&#45;&gt;Node3</title>
<path fill="none" stroke="midnightblue" d="M113.15,-56.0879C119.688,-46.5331 126.649,-36.3585 132.302,-28.0973"/>
<polygon fill="midnightblue" stroke="midnightblue" points="135.277,-29.9477 138.035,-19.7182 129.499,-25.9948 135.277,-29.9477"/>
</g>
</g>
</svg>
