<?xml version="1.0" encoding="UTF-8" standalone="no"?>
<!DOCTYPE svg PUBLIC "-//W3C//DTD SVG 1.1//EN"
 "http://www.w3.org/Graphics/SVG/1.1/DTD/svg11.dtd">
<!-- Generated by graphviz version 2.36.0 (20140111.2315)
 -->
<!-- Title: /home/travis/build/robotology&#45;playground/human&#45;dynamics&#45;estimation/human&#45;forces&#45;provider/include/AbstractForceReader.h Pages: 1 -->
<svg width="577pt" height="272pt"
 viewBox="0.00 0.00 577.00 272.00" xmlns="http://www.w3.org/2000/svg" xmlns:xlink="http://www.w3.org/1999/xlink">
<g id="graph0" class="graph" transform="scale(1 1) rotate(0) translate(4 268)">
<title>/home/travis/build/robotology&#45;playground/human&#45;dynamics&#45;estimation/human&#45;forces&#45;provider/include/AbstractForceReader.h</title>
<!-- Node1 -->
<g id="node1" class="node"><title>Node1</title>
<polygon fill="#bfbfbf" stroke="black" points="207,-200.5 207,-263.5 357,-263.5 357,-200.5 207,-200.5"/>
<text text-anchor="start" x="215" y="-251.5" font-family="Helvetica,sans-Serif" font-size="10.00">/home/travis/build</text>
<text text-anchor="start" x="215" y="-240.5" font-family="Helvetica,sans-Serif" font-size="10.00">/robotology&#45;playground</text>
<text text-anchor="start" x="215" y="-229.5" font-family="Helvetica,sans-Serif" font-size="10.00">/human&#45;dynamics&#45;estimation</text>
<text text-anchor="start" x="215" y="-218.5" font-family="Helvetica,sans-Serif" font-size="10.00">/human&#45;forces&#45;provider/include</text>
<text text-anchor="middle" x="282" y="-207.5" font-family="Helvetica,sans-Serif" font-size="10.00">/AbstractForceReader.h</text>
</g>
<!-- Node2 -->
<g id="node2" class="node"><title>Node2</title>
<g id="a_node2"><a xlink:href="_f_t_force_reader_8h.html" target="_top" xlink:title="/home/travis/build\l/robotology&#45;playground\l/human&#45;dynamics&#45;estimation\l/human&#45;forces&#45;provider/include\l/FTForceReader.h">
<polygon fill="none" stroke="black" points="53,-100.5 53,-163.5 203,-163.5 203,-100.5 53,-100.5"/>
<text text-anchor="start" x="61" y="-151.5" font-family="Helvetica,sans-Serif" font-size="10.00">/home/travis/build</text>
<text text-anchor="start" x="61" y="-140.5" font-family="Helvetica,sans-Serif" font-size="10.00">/robotology&#45;playground</text>
<text text-anchor="start" x="61" y="-129.5" font-family="Helvetica,sans-Serif" font-size="10.00">/human&#45;dynamics&#45;estimation</text>
<text text-anchor="start" x="61" y="-118.5" font-family="Helvetica,sans-Serif" font-size="10.00">/human&#45;forces&#45;provider/include</text>
<text text-anchor="middle" x="128" y="-107.5" font-family="Helvetica,sans-Serif" font-size="10.00">/FTForceReader.h</text>
</a>
</g>
</g>
<!-- Node1&#45;&gt;Node2 -->
<g id="edge1" class="edge"><title>Node1&#45;&gt;Node2</title>
<path fill="none" stroke="midnightblue" d="M224.929,-194.682C208.884,-184.472 191.6,-173.473 176.133,-163.63"/>
<polygon fill="midnightblue" stroke="midnightblue" points="223.38,-197.845 233.696,-200.261 227.138,-191.939 223.38,-197.845"/>
</g>
<!-- Node4 -->
<g id="node4" class="node"><title>Node4</title>
<g id="a_node4"><a xlink:href="_human_forces_provider_8cpp.html" target="_top" xlink:title="/home/travis/build\l/robotology&#45;playground\l/human&#45;dynamics&#45;estimation\l/human&#45;forces&#45;provider/src\l/HumanForcesProvider.cpp">
<polygon fill="none" stroke="black" points="160,-0.5 160,-63.5 302,-63.5 302,-0.5 160,-0.5"/>
<text text-anchor="start" x="168" y="-51.5" font-family="Helvetica,sans-Serif" font-size="10.00">/home/travis/build</text>
<text text-anchor="start" x="168" y="-40.5" font-family="Helvetica,sans-Serif" font-size="10.00">/robotology&#45;playground</text>
<text text-anchor="start" x="168" y="-29.5" font-family="Helvetica,sans-Serif" font-size="10.00">/human&#45;dynamics&#45;estimation</text>
<text text-anchor="start" x="168" y="-18.5" font-family="Helvetica,sans-Serif" font-size="10.00">/human&#45;forces&#45;provider/src</text>
<text text-anchor="middle" x="231" y="-7.5" font-family="Helvetica,sans-Serif" font-size="10.00">/HumanForcesProvider.cpp</text>
</a>
</g>
</g>
<!-- Node1&#45;&gt;Node4 -->
<g id="edge8" class="edge"><title>Node1&#45;&gt;Node4</title>
<path fill="none" stroke="midnightblue" d="M260.586,-191.197C256.556,-182.433 252.751,-173.058 250,-164 239.851,-130.576 235.055,-90.6602 232.834,-63.7451"/>
<polygon fill="midnightblue" stroke="midnightblue" points="257.529,-192.918 265.006,-200.424 263.842,-189.893 257.529,-192.918"/>
</g>
<!-- Node5 -->
<g id="node5" class="node"><title>Node5</title>
<g id="a_node5"><a xlink:href="_port_force_reader_8h.html" target="_top" xlink:title="/home/travis/build\l/robotology&#45;playground\l/human&#45;dynamics&#45;estimation\l/human&#45;forces&#45;provider/include\l/PortForceReader.h">
<polygon fill="none" stroke="black" points="259,-100.5 259,-163.5 409,-163.5 409,-100.5 259,-100.5"/>
<text text-anchor="start" x="267" y="-151.5" font-family="Helvetica,sans-Serif" font-size="10.00">/home/travis/build</text>
<text text-anchor="start" x="267" y="-140.5" font-family="Helvetica,sans-Serif" font-size="10.00">/robotology&#45;playground</text>
<text text-anchor="start" x="267" y="-129.5" font-family="Helvetica,sans-Serif" font-size="10.00">/human&#45;dynamics&#45;estimation</text>
<text text-anchor="start" x="267" y="-118.5" font-family="Helvetica,sans-Serif" font-size="10.00">/human&#45;forces&#45;provider/include</text>
<text text-anchor="middle" x="334" y="-107.5" font-family="Helvetica,sans-Serif" font-size="10.00">/PortForceReader.h</text>
</a>
</g>
</g>
<!-- Node1&#45;&gt;Node5 -->
<g id="edge4" class="edge"><title>Node1&#45;&gt;Node5</title>
<path fill="none" stroke="midnightblue" d="M303.091,-191.252C307.978,-182.042 313.105,-172.379 317.747,-163.63"/>
<polygon fill="midnightblue" stroke="midnightblue" points="299.906,-189.787 298.31,-200.261 306.089,-193.068 299.906,-189.787"/>
</g>
<!-- Node7 -->
<g id="node7" class="node"><title>Node7</title>
<g id="a_node7"><a xlink:href="_abstract_force_reader_8cpp.html" target="_top" xlink:title="/home/travis/build\l/robotology&#45;playground\l/human&#45;dynamics&#45;estimation\l/human&#45;forces&#45;provider/src\l/AbstractForceReader.cpp">
<polygon fill="none" stroke="black" points="427,-100.5 427,-163.5 569,-163.5 569,-100.5 427,-100.5"/>
<text text-anchor="start" x="435" y="-151.5" font-family="Helvetica,sans-Serif" font-size="10.00">/home/travis/build</text>
<text text-anchor="start" x="435" y="-140.5" font-family="Helvetica,sans-Serif" font-size="10.00">/robotology&#45;playground</text>
<text text-anchor="start" x="435" y="-129.5" font-family="Helvetica,sans-Serif" font-size="10.00">/human&#45;dynamics&#45;estimation</text>
<text text-anchor="start" x="435" y="-118.5" font-family="Helvetica,sans-Serif" font-size="10.00">/human&#45;forces&#45;provider/src</text>
<text text-anchor="middle" x="498" y="-107.5" font-family="Helvetica,sans-Serif" font-size="10.00">/AbstractForceReader.cpp</text>
</a>
</g>
</g>
<!-- Node1&#45;&gt;Node7 -->
<g id="edge7" class="edge"><title>Node1&#45;&gt;Node7</title>
<path fill="none" stroke="midnightblue" d="M358.688,-196.206C382.19,-185.543 407.858,-173.898 430.685,-163.541"/>
<polygon fill="midnightblue" stroke="midnightblue" points="357.116,-193.076 349.455,-200.395 360.008,-199.451 357.116,-193.076"/>
</g>
<!-- Node3 -->
<g id="node3" class="node"><title>Node3</title>
<g id="a_node3"><a xlink:href="_f_t_force_reader_8cpp.html" target="_top" xlink:title="/home/travis/build\l/robotology&#45;playground\l/human&#45;dynamics&#45;estimation\l/human&#45;forces&#45;provider/src\l/FTForceReader.cpp">
<polygon fill="none" stroke="black" points="0,-0.5 0,-63.5 142,-63.5 142,-0.5 0,-0.5"/>
<text text-anchor="start" x="8" y="-51.5" font-family="Helvetica,sans-Serif" font-size="10.00">/home/travis/build</text>
<text text-anchor="start" x="8" y="-40.5" font-family="Helvetica,sans-Serif" font-size="10.00">/robotology&#45;playground</text>
<text text-anchor="start" x="8" y="-29.5" font-family="Helvetica,sans-Serif" font-size="10.00">/human&#45;dynamics&#45;estimation</text>
<text text-anchor="start" x="8" y="-18.5" font-family="Helvetica,sans-Serif" font-size="10.00">/human&#45;forces&#45;provider/src</text>
<text text-anchor="middle" x="71" y="-7.5" font-family="Helvetica,sans-Serif" font-size="10.00">/FTForceReader.cpp</text>
</a>
</g>
</g>
<!-- Node2&#45;&gt;Node3 -->
<g id="edge2" class="edge"><title>Node2&#45;&gt;Node3</title>
<path fill="none" stroke="midnightblue" d="M105.049,-91.5399C99.6415,-82.2433 93.9572,-72.4702 88.8153,-63.6299"/>
<polygon fill="midnightblue" stroke="midnightblue" points="102.068,-93.3766 110.121,-100.261 108.119,-89.8572 102.068,-93.3766"/>
</g>
<!-- Node2&#45;&gt;Node4 -->
<g id="edge3" class="edge"><title>Node2&#45;&gt;Node4</title>
<path fill="none" stroke="midnightblue" d="M167.666,-93.2592C177.97,-83.456 188.941,-73.017 198.807,-63.6299"/>
<polygon fill="midnightblue" stroke="midnightblue" points="165.139,-90.8323 160.307,-100.261 169.965,-95.9037 165.139,-90.8323"/>
</g>
<!-- Node5&#45;&gt;Node4 -->
<g id="edge5" class="edge"><title>Node5&#45;&gt;Node4</title>
<path fill="none" stroke="midnightblue" d="M294.334,-93.2592C284.03,-83.456 273.059,-73.017 263.193,-63.6299"/>
<polygon fill="midnightblue" stroke="midnightblue" points="292.035,-95.9037 301.693,-100.261 296.861,-90.8323 292.035,-95.9037"/>
</g>
<!-- Node6 -->
<g id="node6" class="node"><title>Node6</title>
<g id="a_node6"><a xlink:href="_port_force_reader_8cpp.html" target="_top" xlink:title="/home/travis/build\l/robotology&#45;playground\l/human&#45;dynamics&#45;estimation\l/human&#45;forces&#45;provider/src\l/PortForceReader.cpp">
<polygon fill="none" stroke="black" points="320,-0.5 320,-63.5 462,-63.5 462,-0.5 320,-0.5"/>
<text text-anchor="start" x="328" y="-51.5" font-family="Helvetica,sans-Serif" font-size="10.00">/home/travis/build</text>
<text text-anchor="start" x="328" y="-40.5" font-family="Helvetica,sans-Serif" font-size="10.00">/robotology&#45;playground</text>
<text text-anchor="start" x="328" y="-29.5" font-family="Helvetica,sans-Serif" font-size="10.00">/human&#45;dynamics&#45;estimation</text>
<text text-anchor="start" x="328" y="-18.5" font-family="Helvetica,sans-Serif" font-size="10.00">/human&#45;forces&#45;provider/src</text>
<text text-anchor="middle" x="391" y="-7.5" font-family="Helvetica,sans-Serif" font-size="10.00">/PortForceReader.cpp</text>
</a>
</g>
</g>
<!-- Node5&#45;&gt;Node6 -->
<g id="edge6" class="edge"><title>Node5&#45;&gt;Node6</title>
<path fill="none" stroke="midnightblue" d="M356.951,-91.5399C362.358,-82.2433 368.043,-72.4702 373.185,-63.6299"/>
<polygon fill="midnightblue" stroke="midnightblue" points="353.881,-89.8572 351.879,-100.261 359.932,-93.3766 353.881,-89.8572"/>
</g>
</g>
</svg>
