<?xml version="1.0" encoding="UTF-8" standalone="no"?>
<!DOCTYPE svg PUBLIC "-//W3C//DTD SVG 1.1//EN"
 "http://www.w3.org/Graphics/SVG/1.1/DTD/svg11.dtd">
<!-- Generated by graphviz version 2.36.0 (20140111.2315)
 -->
<!-- Title: /home/travis/build/robotology&#45;playground/human&#45;dynamics&#45;estimation/human&#45;forces&#45;provider/include/FrameTransformer.h Pages: 1 -->
<svg width="724pt" height="372pt"
 viewBox="0.00 0.00 724.00 372.00" xmlns="http://www.w3.org/2000/svg" xmlns:xlink="http://www.w3.org/1999/xlink">
<g id="graph0" class="graph" transform="scale(1 1) rotate(0) translate(4 368)">
<title>/home/travis/build/robotology&#45;playground/human&#45;dynamics&#45;estimation/human&#45;forces&#45;provider/include/FrameTransformer.h</title>
<!-- Node1 -->
<g id="node1" class="node"><title>Node1</title>
<polygon fill="#bfbfbf" stroke="black" points="360,-300.5 360,-363.5 510,-363.5 510,-300.5 360,-300.5"/>
<text text-anchor="start" x="368" y="-351.5" font-family="Helvetica,sans-Serif" font-size="10.00">/home/travis/build</text>
<text text-anchor="start" x="368" y="-340.5" font-family="Helvetica,sans-Serif" font-size="10.00">/robotology&#45;playground</text>
<text text-anchor="start" x="368" y="-329.5" font-family="Helvetica,sans-Serif" font-size="10.00">/human&#45;dynamics&#45;estimation</text>
<text text-anchor="start" x="368" y="-318.5" font-family="Helvetica,sans-Serif" font-size="10.00">/human&#45;forces&#45;provider/include</text>
<text text-anchor="middle" x="435" y="-307.5" font-family="Helvetica,sans-Serif" font-size="10.00">/FrameTransformer.h</text>
</g>
<!-- Node2 -->
<g id="node2" class="node"><title>Node2</title>
<g id="a_node2"><a xlink:href="_generic_frame_transformer_8h.html" target="_top" xlink:title="/home/travis/build\l/robotology&#45;playground\l/human&#45;dynamics&#45;estimation\l/human&#45;forces&#45;provider/include\l/GenericFrameTransformer.h">
<polygon fill="none" stroke="black" points="189,-200.5 189,-263.5 339,-263.5 339,-200.5 189,-200.5"/>
<text text-anchor="start" x="197" y="-251.5" font-family="Helvetica,sans-Serif" font-size="10.00">/home/travis/build</text>
<text text-anchor="start" x="197" y="-240.5" font-family="Helvetica,sans-Serif" font-size="10.00">/robotology&#45;playground</text>
<text text-anchor="start" x="197" y="-229.5" font-family="Helvetica,sans-Serif" font-size="10.00">/human&#45;dynamics&#45;estimation</text>
<text text-anchor="start" x="197" y="-218.5" font-family="Helvetica,sans-Serif" font-size="10.00">/human&#45;forces&#45;provider/include</text>
<text text-anchor="middle" x="264" y="-207.5" font-family="Helvetica,sans-Serif" font-size="10.00">/GenericFrameTransformer.h</text>
</a>
</g>
</g>
<!-- Node1&#45;&gt;Node2 -->
<g id="edge1" class="edge"><title>Node1&#45;&gt;Node2</title>
<path fill="none" stroke="midnightblue" d="M372.618,-295.249C354.525,-284.88 334.939,-273.655 317.446,-263.63"/>
<polygon fill="midnightblue" stroke="midnightblue" points="370.947,-298.325 381.364,-300.261 374.428,-292.252 370.947,-298.325"/>
</g>
<!-- Node4 -->
<g id="node4" class="node"><title>Node4</title>
<g id="a_node4"><a xlink:href="_human_forces_provider_8cpp.html" target="_top" xlink:title="/home/travis/build\l/robotology&#45;playground\l/human&#45;dynamics&#45;estimation\l/human&#45;forces&#45;provider/src\l/HumanForcesProvider.cpp">
<polygon fill="none" stroke="black" points="277,-0.5 277,-63.5 419,-63.5 419,-0.5 277,-0.5"/>
<text text-anchor="start" x="285" y="-51.5" font-family="Helvetica,sans-Serif" font-size="10.00">/home/travis/build</text>
<text text-anchor="start" x="285" y="-40.5" font-family="Helvetica,sans-Serif" font-size="10.00">/robotology&#45;playground</text>
<text text-anchor="start" x="285" y="-29.5" font-family="Helvetica,sans-Serif" font-size="10.00">/human&#45;dynamics&#45;estimation</text>
<text text-anchor="start" x="285" y="-18.5" font-family="Helvetica,sans-Serif" font-size="10.00">/human&#45;forces&#45;provider/src</text>
<text text-anchor="middle" x="348" y="-7.5" font-family="Helvetica,sans-Serif" font-size="10.00">/HumanForcesProvider.cpp</text>
</a>
</g>
</g>
<!-- Node1&#45;&gt;Node4 -->
<g id="edge9" class="edge"><title>Node1&#45;&gt;Node4</title>
<path fill="none" stroke="midnightblue" d="M415.751,-291.142C411.888,-282.322 408.076,-272.938 405,-264 380.871,-193.89 362.556,-108.529 353.764,-63.7731"/>
<polygon fill="midnightblue" stroke="midnightblue" points="412.64,-292.757 419.931,-300.444 419.025,-289.888 412.64,-292.757"/>
</g>
<!-- Node7 -->
<g id="node7" class="node"><title>Node7</title>
<g id="a_node7"><a xlink:href="_abstract_force_reader_8cpp.html" target="_top" xlink:title="/home/travis/build\l/robotology&#45;playground\l/human&#45;dynamics&#45;estimation\l/human&#45;forces&#45;provider/src\l/AbstractForceReader.cpp">
<polygon fill="none" stroke="black" points="414,-200.5 414,-263.5 556,-263.5 556,-200.5 414,-200.5"/>
<text text-anchor="start" x="422" y="-251.5" font-family="Helvetica,sans-Serif" font-size="10.00">/home/travis/build</text>
<text text-anchor="start" x="422" y="-240.5" font-family="Helvetica,sans-Serif" font-size="10.00">/robotology&#45;playground</text>
<text text-anchor="start" x="422" y="-229.5" font-family="Helvetica,sans-Serif" font-size="10.00">/human&#45;dynamics&#45;estimation</text>
<text text-anchor="start" x="422" y="-218.5" font-family="Helvetica,sans-Serif" font-size="10.00">/human&#45;forces&#45;provider/src</text>
<text text-anchor="middle" x="485" y="-207.5" font-family="Helvetica,sans-Serif" font-size="10.00">/AbstractForceReader.cpp</text>
</a>
</g>
</g>
<!-- Node1&#45;&gt;Node7 -->
<g id="edge7" class="edge"><title>Node1&#45;&gt;Node7</title>
<path fill="none" stroke="midnightblue" d="M455.279,-291.252C459.979,-282.042 464.909,-272.379 469.373,-263.63"/>
<polygon fill="midnightblue" stroke="midnightblue" points="452.11,-289.763 450.683,-300.261 458.346,-292.944 452.11,-289.763"/>
</g>
<!-- Node8 -->
<g id="node8" class="node"><title>Node8</title>
<g id="a_node8"><a xlink:href="_frame_transformer_8cpp.html" target="_top" xlink:title="/home/travis/build\l/robotology&#45;playground\l/human&#45;dynamics&#45;estimation\l/human&#45;forces&#45;provider/src\l/FrameTransformer.cpp">
<polygon fill="none" stroke="black" points="574,-200.5 574,-263.5 716,-263.5 716,-200.5 574,-200.5"/>
<text text-anchor="start" x="582" y="-251.5" font-family="Helvetica,sans-Serif" font-size="10.00">/home/travis/build</text>
<text text-anchor="start" x="582" y="-240.5" font-family="Helvetica,sans-Serif" font-size="10.00">/robotology&#45;playground</text>
<text text-anchor="start" x="582" y="-229.5" font-family="Helvetica,sans-Serif" font-size="10.00">/human&#45;dynamics&#45;estimation</text>
<text text-anchor="start" x="582" y="-218.5" font-family="Helvetica,sans-Serif" font-size="10.00">/human&#45;forces&#45;provider/src</text>
<text text-anchor="middle" x="645" y="-207.5" font-family="Helvetica,sans-Serif" font-size="10.00">/FrameTransformer.cpp</text>
</a>
</g>
</g>
<!-- Node1&#45;&gt;Node8 -->
<g id="edge8" class="edge"><title>Node1&#45;&gt;Node8</title>
<path fill="none" stroke="midnightblue" d="M509.861,-296.065C532.628,-285.44 557.46,-273.852 579.555,-263.541"/>
<polygon fill="midnightblue" stroke="midnightblue" points="508.163,-292.995 500.582,-300.395 511.123,-299.338 508.163,-292.995"/>
</g>
<!-- Node3 -->
<g id="node3" class="node"><title>Node3</title>
<g id="a_node3"><a xlink:href="_robot_frame_transformer_8h.html" target="_top" xlink:title="/home/travis/build\l/robotology&#45;playground\l/human&#45;dynamics&#45;estimation\l/human&#45;forces&#45;provider/include\l/RobotFrameTransformer.h">
<polygon fill="none" stroke="black" points="0,-100.5 0,-163.5 150,-163.5 150,-100.5 0,-100.5"/>
<text text-anchor="start" x="8" y="-151.5" font-family="Helvetica,sans-Serif" font-size="10.00">/home/travis/build</text>
<text text-anchor="start" x="8" y="-140.5" font-family="Helvetica,sans-Serif" font-size="10.00">/robotology&#45;playground</text>
<text text-anchor="start" x="8" y="-129.5" font-family="Helvetica,sans-Serif" font-size="10.00">/human&#45;dynamics&#45;estimation</text>
<text text-anchor="start" x="8" y="-118.5" font-family="Helvetica,sans-Serif" font-size="10.00">/human&#45;forces&#45;provider/include</text>
<text text-anchor="middle" x="75" y="-107.5" font-family="Helvetica,sans-Serif" font-size="10.00">/RobotFrameTransformer.h</text>
</a>
</g>
</g>
<!-- Node2&#45;&gt;Node3 -->
<g id="edge2" class="edge"><title>Node2&#45;&gt;Node3</title>
<path fill="none" stroke="midnightblue" d="M196.078,-195.781C175.738,-185.234 153.609,-173.76 133.901,-163.541"/>
<polygon fill="midnightblue" stroke="midnightblue" points="194.488,-198.899 204.977,-200.395 197.71,-192.685 194.488,-198.899"/>
</g>
<!-- Node2&#45;&gt;Node4 -->
<g id="edge6" class="edge"><title>Node2&#45;&gt;Node4</title>
<path fill="none" stroke="midnightblue" d="M308.765,-192.836C316.628,-184.119 323.91,-174.348 329,-164 344.621,-132.243 348.324,-91.2879 348.794,-63.693"/>
<polygon fill="midnightblue" stroke="midnightblue" points="306.104,-190.555 301.747,-200.212 311.176,-195.38 306.104,-190.555"/>
</g>
<!-- Node6 -->
<g id="node6" class="node"><title>Node6</title>
<g id="a_node6"><a xlink:href="_generic_frame_transformer_8cpp.html" target="_top" xlink:title="/home/travis/build\l/robotology&#45;playground\l/human&#45;dynamics&#45;estimation\l/human&#45;forces&#45;provider/src\l/GenericFrameTransformer.cpp">
<polygon fill="none" stroke="black" points="168,-100.5 168,-163.5 320,-163.5 320,-100.5 168,-100.5"/>
<text text-anchor="start" x="176" y="-151.5" font-family="Helvetica,sans-Serif" font-size="10.00">/home/travis/build</text>
<text text-anchor="start" x="176" y="-140.5" font-family="Helvetica,sans-Serif" font-size="10.00">/robotology&#45;playground</text>
<text text-anchor="start" x="176" y="-129.5" font-family="Helvetica,sans-Serif" font-size="10.00">/human&#45;dynamics&#45;estimation</text>
<text text-anchor="start" x="176" y="-118.5" font-family="Helvetica,sans-Serif" font-size="10.00">/human&#45;forces&#45;provider/src</text>
<text text-anchor="middle" x="244" y="-107.5" font-family="Helvetica,sans-Serif" font-size="10.00">/GenericFrameTransformer.cpp</text>
</a>
</g>
</g>
<!-- Node2&#45;&gt;Node6 -->
<g id="edge5" class="edge"><title>Node2&#45;&gt;Node6</title>
<path fill="none" stroke="midnightblue" d="M255.712,-190.387C253.885,-181.439 251.981,-172.106 250.251,-163.63"/>
<polygon fill="midnightblue" stroke="midnightblue" points="252.298,-191.163 257.727,-200.261 259.156,-189.763 252.298,-191.163"/>
</g>
<!-- Node3&#45;&gt;Node4 -->
<g id="edge3" class="edge"><title>Node3&#45;&gt;Node4</title>
<path fill="none" stroke="midnightblue" d="M159.534,-99.8194C203.519,-83.9341 243.52,-69.7393 276.573,-58.077"/>
<polygon fill="midnightblue" stroke="midnightblue" points="158.302,-96.5428 150.088,-103.234 160.683,-103.126 158.302,-96.5428"/>
</g>
<!-- Node5 -->
<g id="node5" class="node"><title>Node5</title>
<g id="a_node5"><a xlink:href="_robot_frame_transformer_8cpp.html" target="_top" xlink:title="/home/travis/build\l/robotology&#45;playground\l/human&#45;dynamics&#45;estimation\l/human&#45;forces&#45;provider/src\l/RobotFrameTransformer.cpp">
<polygon fill="none" stroke="black" points="2.5,-0.5 2.5,-63.5 147.5,-63.5 147.5,-0.5 2.5,-0.5"/>
<text text-anchor="start" x="10.5" y="-51.5" font-family="Helvetica,sans-Serif" font-size="10.00">/home/travis/build</text>
<text text-anchor="start" x="10.5" y="-40.5" font-family="Helvetica,sans-Serif" font-size="10.00">/robotology&#45;playground</text>
<text text-anchor="start" x="10.5" y="-29.5" font-family="Helvetica,sans-Serif" font-size="10.00">/human&#45;dynamics&#45;estimation</text>
<text text-anchor="start" x="10.5" y="-18.5" font-family="Helvetica,sans-Serif" font-size="10.00">/human&#45;forces&#45;provider/src</text>
<text text-anchor="middle" x="75" y="-7.5" font-family="Helvetica,sans-Serif" font-size="10.00">/RobotFrameTransformer.cpp</text>
</a>
</g>
</g>
<!-- Node3&#45;&gt;Node5 -->
<g id="edge4" class="edge"><title>Node3&#45;&gt;Node5</title>
<path fill="none" stroke="midnightblue" d="M75,-90.0987C75,-81.2383 75,-72.0145 75,-63.6299"/>
<polygon fill="midnightblue" stroke="midnightblue" points="71.5001,-90.261 75,-100.261 78.5001,-90.2611 71.5001,-90.261"/>
</g>
</g>
</svg>
