<?xml version="1.0" encoding="UTF-8" standalone="no"?>
<!DOCTYPE svg PUBLIC "-//W3C//DTD SVG 1.1//EN"
 "http://www.w3.org/Graphics/SVG/1.1/DTD/svg11.dtd">
<!-- Generated by graphviz version 2.36.0 (20140111.2315)
 -->
<!-- Title: /home/travis/build/robotology&#45;playground/human&#45;dynamics&#45;estimation/human&#45;state&#45;provider/include/private/HumanStateProviderPrivate.h Pages: 1 -->
<svg width="2000pt" height="320pt"
 viewBox="0.00 0.00 2000.00 320.00" xmlns="http://www.w3.org/2000/svg" xmlns:xlink="http://www.w3.org/1999/xlink">
<g id="graph0" class="graph" transform="scale(1 1) rotate(0) translate(4 316)">
<title>/home/travis/build/robotology&#45;playground/human&#45;dynamics&#45;estimation/human&#45;state&#45;provider/include/private/HumanStateProviderPrivate.h</title>
<!-- Node1 -->
<g id="node1" class="node"><title>Node1</title>
<polygon fill="#bfbfbf" stroke="black" points="1015,-248.5 1015,-311.5 1197,-311.5 1197,-248.5 1015,-248.5"/>
<text text-anchor="start" x="1023" y="-299.5" font-family="Helvetica,sans-Serif" font-size="10.00">/home/travis/build</text>
<text text-anchor="start" x="1023" y="-288.5" font-family="Helvetica,sans-Serif" font-size="10.00">/robotology&#45;playground</text>
<text text-anchor="start" x="1023" y="-277.5" font-family="Helvetica,sans-Serif" font-size="10.00">/human&#45;dynamics&#45;estimation</text>
<text text-anchor="start" x="1023" y="-266.5" font-family="Helvetica,sans-Serif" font-size="10.00">/human&#45;state&#45;provider/include</text>
<text text-anchor="middle" x="1106" y="-255.5" font-family="Helvetica,sans-Serif" font-size="10.00">/private/HumanStateProviderPrivate.h</text>
</g>
<!-- Node2 -->
<g id="node2" class="node"><title>Node2</title>
<g id="a_node2"><a xlink:href="_human_state_provider_8h.html" target="_top" xlink:title="HumanStateProvider.h">
<polygon fill="none" stroke="black" points="57,-186.5 57,-205.5 173,-205.5 173,-186.5 57,-186.5"/>
<text text-anchor="middle" x="115" y="-193.5" font-family="Helvetica,sans-Serif" font-size="10.00">HumanStateProvider.h</text>
</a>
</g>
</g>
<!-- Node1&#45;&gt;Node2 -->
<g id="edge1" class="edge"><title>Node1&#45;&gt;Node2</title>
<path fill="none" stroke="midnightblue" d="M1014.9,-272.316C860.666,-260.87 538.302,-236.382 266,-212 238.898,-209.573 209.084,-206.663 183.159,-204.054"/>
<polygon fill="midnightblue" stroke="midnightblue" points="183.357,-200.556 173.056,-203.033 182.653,-207.521 183.357,-200.556"/>
</g>
<!-- Node4 -->
<g id="node4" class="node"><title>Node4</title>
<g id="a_node4"><a xlink:href="autogenerated_2include_2thrifts_2_human_state_8h.html" target="_top" xlink:title="thrifts/HumanState.h">
<polygon fill="none" stroke="black" points="275.5,-186.5 275.5,-205.5 382.5,-205.5 382.5,-186.5 275.5,-186.5"/>
<text text-anchor="middle" x="329" y="-193.5" font-family="Helvetica,sans-Serif" font-size="10.00">thrifts/HumanState.h</text>
</a>
</g>
</g>
<!-- Node1&#45;&gt;Node4 -->
<g id="edge3" class="edge"><title>Node1&#45;&gt;Node4</title>
<path fill="none" stroke="midnightblue" d="M1014.97,-269.393C855.651,-252.58 530.172,-218.23 392.622,-203.714"/>
<polygon fill="midnightblue" stroke="midnightblue" points="392.966,-200.231 382.654,-202.662 392.231,-207.193 392.966,-200.231"/>
</g>
<!-- Node9 -->
<g id="node9" class="node"><title>Node9</title>
<polygon fill="none" stroke="#bfbfbf" points="466.5,-124.5 466.5,-143.5 557.5,-143.5 557.5,-124.5 466.5,-124.5"/>
<text text-anchor="middle" x="512" y="-131.5" font-family="Helvetica,sans-Serif" font-size="10.00">yarp/sig/Vector.h</text>
</g>
<!-- Node1&#45;&gt;Node9 -->
<g id="edge39" class="edge"><title>Node1&#45;&gt;Node9</title>
<path fill="none" stroke="midnightblue" d="M1014.78,-272.522C891.831,-262.801 680.146,-242.288 609,-212 575.89,-197.904 544.613,-169.328 526.924,-151.23"/>
<polygon fill="midnightblue" stroke="midnightblue" points="529.225,-148.571 519.795,-143.741 524.155,-153.398 529.225,-148.571"/>
</g>
<!-- Node10 -->
<g id="node10" class="node"><title>Node10</title>
<g id="a_node10"><a xlink:href="autogenerated_2include_2thrifts_2_human_state_provider_service_8h.html" target="_top" xlink:title="thrifts/HumanStateProvider\lService.h">
<polygon fill="none" stroke="black" points="379.5,-57 379.5,-87 514.5,-87 514.5,-57 379.5,-57"/>
<text text-anchor="start" x="387.5" y="-75" font-family="Helvetica,sans-Serif" font-size="10.00">thrifts/HumanStateProvider</text>
<text text-anchor="middle" x="447" y="-64" font-family="Helvetica,sans-Serif" font-size="10.00">Service.h</text>
</a>
</g>
</g>
<!-- Node1&#45;&gt;Node10 -->
<g id="edge14" class="edge"><title>Node1&#45;&gt;Node10</title>
<path fill="none" stroke="midnightblue" d="M1014.73,-269.312C940.24,-259.715 832.973,-242.011 743,-212 659.661,-184.202 645.74,-160.874 566,-124 541.187,-112.526 513.091,-100.443 490.432,-90.9192"/>
<polygon fill="midnightblue" stroke="midnightblue" points="491.655,-87.637 481.079,-87.0037 488.952,-94.094 491.655,-87.637"/>
</g>
<!-- Node11 -->
<g id="node11" class="node"><title>Node11</title>
<polygon fill="none" stroke="#bfbfbf" points="533,-62.5 533,-81.5 689,-81.5 689,-62.5 533,-62.5"/>
<text text-anchor="middle" x="611" y="-69.5" font-family="Helvetica,sans-Serif" font-size="10.00">iDynTree/Core/MatrixDynSize.h</text>
</g>
<!-- Node1&#45;&gt;Node11 -->
<g id="edge17" class="edge"><title>Node1&#45;&gt;Node11</title>
<path fill="none" stroke="midnightblue" d="M1014.76,-268.581C953.212,-259.22 871.267,-242.14 804,-212 731.704,-179.607 659.371,-117.697 627.662,-88.7059"/>
<polygon fill="midnightblue" stroke="midnightblue" points="629.88,-85.9901 620.164,-81.767 625.126,-91.1278 629.88,-85.9901"/>
</g>
<!-- Node12 -->
<g id="node12" class="node"><title>Node12</title>
<polygon fill="none" stroke="#bfbfbf" points="707,-62.5 707,-81.5 865,-81.5 865,-62.5 707,-62.5"/>
<text text-anchor="middle" x="786" y="-69.5" font-family="Helvetica,sans-Serif" font-size="10.00">iDynTree/Core/VectorDynSize.h</text>
</g>
<!-- Node1&#45;&gt;Node12 -->
<g id="edge18" class="edge"><title>Node1&#45;&gt;Node12</title>
<path fill="none" stroke="midnightblue" d="M1014.67,-266.641C945.046,-255.468 856.713,-236.946 830,-212 795.866,-180.125 788.079,-121.992 786.392,-92.0091"/>
<polygon fill="midnightblue" stroke="midnightblue" points="789.876,-91.5424 785.995,-81.6843 782.882,-91.8113 789.876,-91.5424"/>
</g>
<!-- Node13 -->
<g id="node13" class="node"><title>Node13</title>
<polygon fill="none" stroke="#bfbfbf" points="883,-62.5 883,-81.5 1019,-81.5 1019,-62.5 883,-62.5"/>
<text text-anchor="middle" x="951" y="-69.5" font-family="Helvetica,sans-Serif" font-size="10.00">iDynTree/Core/Transform.h</text>
</g>
<!-- Node1&#45;&gt;Node13 -->
<g id="edge19" class="edge"><title>Node1&#45;&gt;Node13</title>
<path fill="none" stroke="midnightblue" d="M1014.78,-267.723C947.531,-257.316 864.216,-239.298 843,-212 807.346,-166.125 884.217,-111.724 926.141,-86.7635"/>
<polygon fill="midnightblue" stroke="midnightblue" points="928.102,-89.6721 934.99,-81.6217 924.585,-83.6196 928.102,-89.6721"/>
</g>
<!-- Node14 -->
<g id="node14" class="node"><title>Node14</title>
<polygon fill="none" stroke="#bfbfbf" points="852.5,-186.5 852.5,-205.5 983.5,-205.5 983.5,-186.5 852.5,-186.5"/>
<text text-anchor="middle" x="918" y="-193.5" font-family="Helvetica,sans-Serif" font-size="10.00">iDynTree/Model/Indeces.h</text>
</g>
<!-- Node1&#45;&gt;Node14 -->
<g id="edge20" class="edge"><title>Node1&#45;&gt;Node14</title>
<path fill="none" stroke="midnightblue" d="M1036,-248.466C1005.3,-235.079 970.953,-220.096 947.265,-209.765"/>
<polygon fill="midnightblue" stroke="midnightblue" points="948.374,-206.43 937.808,-205.64 945.575,-212.846 948.374,-206.43"/>
</g>
<!-- Node15 -->
<g id="node15" class="node"><title>Node15</title>
<polygon fill="none" stroke="#bfbfbf" points="1037.5,-62.5 1037.5,-81.5 1198.5,-81.5 1198.5,-62.5 1037.5,-62.5"/>
<text text-anchor="middle" x="1118" y="-69.5" font-family="Helvetica,sans-Serif" font-size="10.00">iDynTree/KinDynComputations.h</text>
</g>
<!-- Node1&#45;&gt;Node15 -->
<g id="edge21" class="edge"><title>Node1&#45;&gt;Node15</title>
<path fill="none" stroke="midnightblue" d="M1059.6,-248.427C1048.1,-238.323 1037.28,-226.024 1031,-212 1025.19,-199.019 1030.49,-194.213 1031,-180 1031.89,-155.064 1022.05,-145.33 1035,-124 1045.74,-106.312 1065.17,-93.8824 1082.53,-85.7249"/>
<polygon fill="midnightblue" stroke="midnightblue" points="1084.14,-88.842 1091.9,-81.6262 1081.33,-82.4293 1084.14,-88.842"/>
</g>
<!-- Node16 -->
<g id="node16" class="node"><title>Node16</title>
<g id="a_node16"><a xlink:href="_inverse_kinematics_8h.html" target="_top" xlink:title="inversekinematics/Inverse\lKinematics.h">
<polygon fill="none" stroke="black" points="1040.5,-181 1040.5,-211 1171.5,-211 1171.5,-181 1040.5,-181"/>
<text text-anchor="start" x="1048.5" y="-199" font-family="Helvetica,sans-Serif" font-size="10.00">inversekinematics/Inverse</text>
<text text-anchor="middle" x="1106" y="-188" font-family="Helvetica,sans-Serif" font-size="10.00">Kinematics.h</text>
</a>
</g>
</g>
<!-- Node1&#45;&gt;Node16 -->
<g id="edge22" class="edge"><title>Node1&#45;&gt;Node16</title>
<path fill="none" stroke="midnightblue" d="M1106,-248.466C1106,-239.502 1106,-229.822 1106,-221.302"/>
<polygon fill="midnightblue" stroke="midnightblue" points="1109.5,-221.272 1106,-211.272 1102.5,-221.272 1109.5,-221.272"/>
</g>
<!-- Node24 -->
<g id="node24" class="node"><title>Node24</title>
<polygon fill="none" stroke="#bfbfbf" points="1210.5,-124.5 1210.5,-143.5 1251.5,-143.5 1251.5,-124.5 1210.5,-124.5"/>
<text text-anchor="middle" x="1231" y="-131.5" font-family="Helvetica,sans-Serif" font-size="10.00">string</text>
</g>
<!-- Node1&#45;&gt;Node24 -->
<g id="edge43" class="edge"><title>Node1&#45;&gt;Node24</title>
<path fill="none" stroke="midnightblue" d="M1143.5,-248.322C1155.76,-237.455 1169.04,-224.749 1180,-212 1196.27,-193.069 1211.61,-168.685 1221.14,-152.483"/>
<polygon fill="midnightblue" stroke="midnightblue" points="1224.31,-153.985 1226.28,-143.573 1218.25,-150.489 1224.31,-153.985"/>
</g>
<!-- Node25 -->
<g id="node25" class="node"><title>Node25</title>
<polygon fill="none" stroke="#bfbfbf" points="1228.5,-186.5 1228.5,-205.5 1339.5,-205.5 1339.5,-186.5 1228.5,-186.5"/>
<text text-anchor="middle" x="1284" y="-193.5" font-family="Helvetica,sans-Serif" font-size="10.00">yarp/dev/PolyDriver.h</text>
</g>
<!-- Node1&#45;&gt;Node25 -->
<g id="edge35" class="edge"><title>Node1&#45;&gt;Node25</title>
<path fill="none" stroke="midnightblue" d="M1172.28,-248.466C1201.21,-235.139 1233.57,-220.23 1255.99,-209.903"/>
<polygon fill="midnightblue" stroke="midnightblue" points="1257.63,-213.003 1265.25,-205.64 1254.7,-206.645 1257.63,-213.003"/>
</g>
<!-- Node26 -->
<g id="node26" class="node"><title>Node26</title>
<polygon fill="none" stroke="#bfbfbf" points="1357.5,-186.5 1357.5,-205.5 1490.5,-205.5 1490.5,-186.5 1357.5,-186.5"/>
<text text-anchor="middle" x="1424" y="-193.5" font-family="Helvetica,sans-Serif" font-size="10.00">yarp/dev/PreciselyTimed.h</text>
</g>
<!-- Node1&#45;&gt;Node26 -->
<g id="edge36" class="edge"><title>Node1&#45;&gt;Node26</title>
<path fill="none" stroke="midnightblue" d="M1197.13,-255.502C1257.48,-239.938 1333.91,-220.232 1380.85,-208.126"/>
<polygon fill="midnightblue" stroke="midnightblue" points="1381.89,-211.474 1390.69,-205.588 1380.14,-204.696 1381.89,-211.474"/>
</g>
<!-- Node27 -->
<g id="node27" class="node"><title>Node27</title>
<polygon fill="none" stroke="#bfbfbf" points="1508.5,-186.5 1508.5,-205.5 1623.5,-205.5 1623.5,-186.5 1508.5,-186.5"/>
<text text-anchor="middle" x="1566" y="-193.5" font-family="Helvetica,sans-Serif" font-size="10.00">yarp/os/BufferedPort.h</text>
</g>
<!-- Node1&#45;&gt;Node27 -->
<g id="edge37" class="edge"><title>Node1&#45;&gt;Node27</title>
<path fill="none" stroke="midnightblue" d="M1197.17,-264.819C1276.98,-252.081 1395.95,-232.306 1499,-212 1505.68,-210.684 1512.71,-209.209 1519.61,-207.71"/>
<polygon fill="midnightblue" stroke="midnightblue" points="1520.55,-211.087 1529.56,-205.515 1519.04,-204.252 1520.55,-211.087"/>
</g>
<!-- Node28 -->
<g id="node28" class="node"><title>Node28</title>
<polygon fill="none" stroke="#bfbfbf" points="1642,-186.5 1642,-205.5 1720,-205.5 1720,-186.5 1642,-186.5"/>
<text text-anchor="middle" x="1681" y="-193.5" font-family="Helvetica,sans-Serif" font-size="10.00">yarp/os/Port.h</text>
</g>
<!-- Node1&#45;&gt;Node28 -->
<g id="edge38" class="edge"><title>Node1&#45;&gt;Node28</title>
<path fill="none" stroke="midnightblue" d="M1197.08,-272.141C1302.59,-263.103 1481.25,-244.427 1632,-212 1636.7,-210.989 1641.6,-209.737 1646.4,-208.39"/>
<polygon fill="midnightblue" stroke="midnightblue" points="1647.44,-211.733 1656.04,-205.54 1645.45,-205.02 1647.44,-211.733"/>
</g>
<!-- Node29 -->
<g id="node29" class="node"><title>Node29</title>
<polygon fill="none" stroke="#bfbfbf" points="1738.5,-186.5 1738.5,-205.5 1797.5,-205.5 1797.5,-186.5 1738.5,-186.5"/>
<text text-anchor="middle" x="1768" y="-193.5" font-family="Helvetica,sans-Serif" font-size="10.00">Eigen/QR</text>
</g>
<!-- Node1&#45;&gt;Node29 -->
<g id="edge40" class="edge"><title>Node1&#45;&gt;Node29</title>
<path fill="none" stroke="midnightblue" d="M1197.02,-276.597C1319.5,-271.697 1543.43,-256.853 1729,-212 1732.24,-211.216 1735.58,-210.229 1738.87,-209.138"/>
<polygon fill="midnightblue" stroke="midnightblue" points="1740.27,-212.354 1748.48,-205.65 1737.88,-205.774 1740.27,-212.354"/>
</g>
<!-- Node30 -->
<g id="node30" class="node"><title>Node30</title>
<polygon fill="none" stroke="#bfbfbf" points="1816,-186.5 1816,-205.5 1868,-205.5 1868,-186.5 1816,-186.5"/>
<text text-anchor="middle" x="1842" y="-193.5" font-family="Helvetica,sans-Serif" font-size="10.00">memory</text>
</g>
<!-- Node1&#45;&gt;Node30 -->
<g id="edge41" class="edge"><title>Node1&#45;&gt;Node30</title>
<path fill="none" stroke="midnightblue" d="M1197.24,-278.903C1332.27,-276.833 1592.37,-265.436 1806,-212 1808.99,-211.252 1812.06,-210.295 1815.08,-209.228"/>
<polygon fill="midnightblue" stroke="midnightblue" points="1816.38,-212.475 1824.41,-205.563 1813.83,-205.959 1816.38,-212.475"/>
</g>
<!-- Node31 -->
<g id="node31" class="node"><title>Node31</title>
<polygon fill="none" stroke="#bfbfbf" points="1886,-186.5 1886,-205.5 1930,-205.5 1930,-186.5 1886,-186.5"/>
<text text-anchor="middle" x="1908" y="-193.5" font-family="Helvetica,sans-Serif" font-size="10.00">mutex</text>
</g>
<!-- Node1&#45;&gt;Node31 -->
<g id="edge42" class="edge"><title>Node1&#45;&gt;Node31</title>
<path fill="none" stroke="midnightblue" d="M1197.31,-275.217C1372.88,-267.261 1751.27,-246.618 1877,-212 1879.2,-211.394 1881.44,-210.635 1883.64,-209.782"/>
<polygon fill="midnightblue" stroke="midnightblue" points="1885.27,-212.891 1892.98,-205.626 1882.42,-206.496 1885.27,-212.891"/>
</g>
<!-- Node32 -->
<g id="node32" class="node"><title>Node32</title>
<polygon fill="none" stroke="#bfbfbf" points="1948,-186.5 1948,-205.5 1992,-205.5 1992,-186.5 1948,-186.5"/>
<text text-anchor="middle" x="1970" y="-193.5" font-family="Helvetica,sans-Serif" font-size="10.00">vector</text>
</g>
<!-- Node1&#45;&gt;Node32 -->
<g id="edge44" class="edge"><title>Node1&#45;&gt;Node32</title>
<path fill="none" stroke="midnightblue" d="M1197.28,-275.755C1383.31,-268.473 1800.3,-248.535 1938,-212 1940.35,-211.376 1942.74,-210.585 1945.1,-209.695"/>
<polygon fill="midnightblue" stroke="midnightblue" points="1946.68,-212.825 1954.47,-205.641 1943.9,-206.401 1946.68,-212.825"/>
</g>
<!-- Node3 -->
<g id="node3" class="node"><title>Node3</title>
<polygon fill="none" stroke="#bfbfbf" points="-0.5,-124.5 -0.5,-143.5 104.5,-143.5 104.5,-124.5 -0.5,-124.5"/>
<text text-anchor="middle" x="52" y="-131.5" font-family="Helvetica,sans-Serif" font-size="10.00">yarp/os/RFModule.h</text>
</g>
<!-- Node2&#45;&gt;Node3 -->
<g id="edge2" class="edge"><title>Node2&#45;&gt;Node3</title>
<path fill="none" stroke="midnightblue" d="M105.974,-186.403C96.2429,-177.136 80.542,-162.183 68.577,-150.788"/>
<polygon fill="midnightblue" stroke="midnightblue" points="70.6648,-147.943 61.0096,-143.581 65.8372,-153.012 70.6648,-147.943"/>
</g>
<!-- Node5 -->
<g id="node5" class="node"><title>Node5</title>
<polygon fill="none" stroke="#bfbfbf" points="295,-0.5 295,-19.5 375,-19.5 375,-0.5 295,-0.5"/>
<text text-anchor="middle" x="335" y="-7.5" font-family="Helvetica,sans-Serif" font-size="10.00">yarp/os/Wire.h</text>
</g>
<!-- Node4&#45;&gt;Node5 -->
<g id="edge4" class="edge"><title>Node4&#45;&gt;Node5</title>
<path fill="none" stroke="midnightblue" d="M329.289,-186.125C330.214,-157.769 333.111,-68.9299 334.387,-29.8108"/>
<polygon fill="midnightblue" stroke="midnightblue" points="337.886,-29.8944 334.714,-19.7857 330.889,-29.6662 337.886,-29.8944"/>
</g>
<!-- Node6 -->
<g id="node6" class="node"><title>Node6</title>
<polygon fill="none" stroke="#bfbfbf" points="126,-0.5 126,-19.5 246,-19.5 246,-0.5 126,-0.5"/>
<text text-anchor="middle" x="186" y="-7.5" font-family="Helvetica,sans-Serif" font-size="10.00">yarp/os/idl/WireTypes.h</text>
</g>
<!-- Node4&#45;&gt;Node6 -->
<g id="edge5" class="edge"><title>Node4&#45;&gt;Node6</title>
<path fill="none" stroke="midnightblue" d="M276.851,-186.438C232.008,-177.886 172.347,-163.251 158,-144 132.016,-109.136 157.947,-55.5509 174.518,-28.2609"/>
<polygon fill="midnightblue" stroke="midnightblue" points="177.497,-30.0997 179.889,-19.7785 171.582,-26.3552 177.497,-30.0997"/>
</g>
<!-- Node7 -->
<g id="node7" class="node"><title>Node7</title>
<g id="a_node7"><a xlink:href="human-state-provider_2autogenerated_2include_2thrifts_2_quaternion_8h.html" target="_top" xlink:title="thrifts/Quaternion.h">
<polygon fill="none" stroke="black" points="167,-124.5 167,-143.5 267,-143.5 267,-124.5 167,-124.5"/>
<text text-anchor="middle" x="217" y="-131.5" font-family="Helvetica,sans-Serif" font-size="10.00">thrifts/Quaternion.h</text>
</a>
</g>
</g>
<!-- Node4&#45;&gt;Node7 -->
<g id="edge6" class="edge"><title>Node4&#45;&gt;Node7</title>
<path fill="none" stroke="midnightblue" d="M312.953,-186.403C294.407,-176.468 263.66,-159.997 241.978,-148.381"/>
<polygon fill="midnightblue" stroke="midnightblue" points="243.485,-145.218 233.017,-143.581 240.179,-151.388 243.485,-145.218"/>
</g>
<!-- Node8 -->
<g id="node8" class="node"><title>Node8</title>
<g id="a_node8"><a xlink:href="human-state-provider_2autogenerated_2include_2thrifts_2_vector3_8h.html" target="_top" xlink:title="thrifts/Vector3.h">
<polygon fill="none" stroke="black" points="237,-62.5 237,-81.5 323,-81.5 323,-62.5 237,-62.5"/>
<text text-anchor="middle" x="280" y="-69.5" font-family="Helvetica,sans-Serif" font-size="10.00">thrifts/Vector3.h</text>
</a>
</g>
</g>
<!-- Node4&#45;&gt;Node8 -->
<g id="edge12" class="edge"><title>Node4&#45;&gt;Node8</title>
<path fill="none" stroke="midnightblue" d="M325.476,-186.226C317.495,-166.354 297.903,-117.576 287.225,-90.9894"/>
<polygon fill="midnightblue" stroke="midnightblue" points="290.467,-89.6695 283.492,-81.6944 283.971,-92.2784 290.467,-89.6695"/>
</g>
<!-- Node4&#45;&gt;Node9 -->
<g id="edge13" class="edge"><title>Node4&#45;&gt;Node9</title>
<path fill="none" stroke="midnightblue" d="M355.219,-186.403C387.018,-175.978 440.765,-158.356 476.317,-146.699"/>
<polygon fill="midnightblue" stroke="midnightblue" points="477.417,-150.022 485.829,-143.581 475.236,-143.37 477.417,-150.022"/>
</g>
<!-- Node7&#45;&gt;Node5 -->
<g id="edge7" class="edge"><title>Node7&#45;&gt;Node5</title>
<path fill="none" stroke="midnightblue" d="M215.691,-124.335C213.858,-108.888 212.324,-76.3115 228,-56 241.924,-37.9581 264.427,-27.0748 285.212,-20.5462"/>
<polygon fill="midnightblue" stroke="midnightblue" points="286.271,-23.8837 294.917,-17.7609 284.34,-17.1553 286.271,-23.8837"/>
</g>
<!-- Node7&#45;&gt;Node6 -->
<g id="edge8" class="edge"><title>Node7&#45;&gt;Node6</title>
<path fill="none" stroke="midnightblue" d="M211.692,-124.394C206.533,-115.591 198.919,-101.351 195,-88 189.326,-68.6712 187.21,-45.6235 186.432,-29.8124"/>
<polygon fill="midnightblue" stroke="midnightblue" points="189.926,-29.6029 186.069,-19.7351 182.931,-29.8545 189.926,-29.6029"/>
</g>
<!-- Node7&#45;&gt;Node8 -->
<g id="edge9" class="edge"><title>Node7&#45;&gt;Node8</title>
<path fill="none" stroke="midnightblue" d="M226.026,-124.403C235.757,-115.136 251.458,-100.183 263.423,-88.7876"/>
<polygon fill="midnightblue" stroke="midnightblue" points="266.163,-91.0117 270.99,-81.5806 261.335,-85.9427 266.163,-91.0117"/>
</g>
<!-- Node8&#45;&gt;Node5 -->
<g id="edge10" class="edge"><title>Node8&#45;&gt;Node5</title>
<path fill="none" stroke="midnightblue" d="M287.88,-62.4035C296.294,-53.2252 309.819,-38.4699 320.226,-27.1173"/>
<polygon fill="midnightblue" stroke="midnightblue" points="322.957,-29.3172 327.134,-19.5806 317.797,-24.5871 322.957,-29.3172"/>
</g>
<!-- Node8&#45;&gt;Node6 -->
<g id="edge11" class="edge"><title>Node8&#45;&gt;Node6</title>
<path fill="none" stroke="midnightblue" d="M266.532,-62.4035C251.315,-52.6905 226.313,-36.7319 208.199,-25.1697"/>
<polygon fill="midnightblue" stroke="midnightblue" points="209.755,-22.0108 199.443,-19.5806 205.989,-27.9112 209.755,-22.0108"/>
</g>
<!-- Node10&#45;&gt;Node5 -->
<g id="edge15" class="edge"><title>Node10&#45;&gt;Node5</title>
<path fill="none" stroke="midnightblue" d="M420.741,-56.9327C402.52,-47.1715 378.382,-34.2401 360.36,-24.5856"/>
<polygon fill="midnightblue" stroke="midnightblue" points="361.521,-21.2371 351.053,-19.6 358.215,-27.4075 361.521,-21.2371"/>
</g>
<!-- Node10&#45;&gt;Node6 -->
<g id="edge16" class="edge"><title>Node10&#45;&gt;Node6</title>
<path fill="none" stroke="midnightblue" d="M385.807,-56.9327C339.078,-46.1904 275.648,-31.6087 232.895,-21.7804"/>
<polygon fill="midnightblue" stroke="midnightblue" points="233.56,-18.3422 223.03,-19.5127 231.992,-25.1642 233.56,-18.3422"/>
</g>
<!-- Node17 -->
<g id="node17" class="node"><title>Node17</title>
<g id="a_node17"><a xlink:href="_inverse_kinematics_v2_i_p_o_p_t_8h.html" target="_top" xlink:title="InverseKinematicsV2IPOPT.h">
<polygon fill="none" stroke="black" points="1044,-124.5 1044,-143.5 1192,-143.5 1192,-124.5 1044,-124.5"/>
<text text-anchor="middle" x="1118" y="-131.5" font-family="Helvetica,sans-Serif" font-size="10.00">InverseKinematicsV2IPOPT.h</text>
</a>
</g>
</g>
<!-- Node16&#45;&gt;Node17 -->
<g id="edge23" class="edge"><title>Node16&#45;&gt;Node17</title>
<path fill="none" stroke="midnightblue" d="M1108.84,-180.781C1110.46,-172.691 1112.51,-162.462 1114.25,-153.725"/>
<polygon fill="midnightblue" stroke="midnightblue" points="1117.72,-154.223 1116.25,-143.731 1110.86,-152.85 1117.72,-154.223"/>
</g>
<!-- Node16&#45;&gt;Node24 -->
<g id="edge34" class="edge"><title>Node16&#45;&gt;Node24</title>
<path fill="none" stroke="midnightblue" d="M1135.31,-180.933C1156.02,-170.991 1183.58,-157.76 1203.81,-148.053"/>
<polygon fill="midnightblue" stroke="midnightblue" points="1205.58,-151.083 1213.08,-143.6 1202.55,-144.772 1205.58,-151.083"/>
</g>
<!-- Node17&#45;&gt;Node11 -->
<g id="edge27" class="edge"><title>Node17&#45;&gt;Node11</title>
<path fill="none" stroke="midnightblue" d="M1043.85,-126.502C959.794,-118.8 818.746,-104.86 698,-88 688.095,-86.617 677.588,-84.9645 667.428,-83.2697"/>
<polygon fill="midnightblue" stroke="midnightblue" points="667.864,-79.7938 657.419,-81.5693 666.692,-86.6949 667.864,-79.7938"/>
</g>
<!-- Node17&#45;&gt;Node12 -->
<g id="edge26" class="edge"><title>Node17&#45;&gt;Node12</title>
<path fill="none" stroke="midnightblue" d="M1070.79,-124.467C1010.8,-113.626 907.356,-94.9318 843.028,-83.3062"/>
<polygon fill="midnightblue" stroke="midnightblue" points="843.515,-79.8377 833.052,-81.5034 842.27,-86.7261 843.515,-79.8377"/>
</g>
<!-- Node17&#45;&gt;Node13 -->
<g id="edge28" class="edge"><title>Node17&#45;&gt;Node13</title>
<path fill="none" stroke="midnightblue" d="M1094.07,-124.403C1065.3,-114.067 1016.84,-96.6564 984.398,-84.9994"/>
<polygon fill="midnightblue" stroke="midnightblue" points="985.477,-81.668 974.883,-81.5806 983.11,-88.2557 985.477,-81.668"/>
</g>
<!-- Node17&#45;&gt;Node15 -->
<g id="edge31" class="edge"><title>Node17&#45;&gt;Node15</title>
<path fill="none" stroke="midnightblue" d="M1118,-124.403C1118,-115.938 1118,-102.728 1118,-91.8199"/>
<polygon fill="midnightblue" stroke="midnightblue" points="1121.5,-91.5806 1118,-81.5806 1114.5,-91.5806 1121.5,-91.5806"/>
</g>
<!-- Node18 -->
<g id="node18" class="node"><title>Node18</title>
<polygon fill="none" stroke="#bfbfbf" points="1430.5,-62.5 1430.5,-81.5 1499.5,-81.5 1499.5,-62.5 1430.5,-62.5"/>
<text text-anchor="middle" x="1465" y="-69.5" font-family="Helvetica,sans-Serif" font-size="10.00">IpTNLP.hpp</text>
</g>
<!-- Node17&#45;&gt;Node18 -->
<g id="edge24" class="edge"><title>Node17&#45;&gt;Node18</title>
<path fill="none" stroke="midnightblue" d="M1185.07,-124.481C1260.31,-114.668 1377.52,-98.5473 1421,-88 1424.86,-87.0635 1428.86,-85.9327 1432.81,-84.7168"/>
<polygon fill="midnightblue" stroke="midnightblue" points="1433.98,-88.0171 1442.39,-81.5817 1431.8,-81.3639 1433.98,-88.0171"/>
</g>
<!-- Node19 -->
<g id="node19" class="node"><title>Node19</title>
<polygon fill="none" stroke="#bfbfbf" points="1517.5,-62.5 1517.5,-81.5 1670.5,-81.5 1670.5,-62.5 1517.5,-62.5"/>
<text text-anchor="middle" x="1594" y="-69.5" font-family="Helvetica,sans-Serif" font-size="10.00">iDynTree/Core/VectorFixSize.h</text>
</g>
<!-- Node17&#45;&gt;Node19 -->
<g id="edge25" class="edge"><title>Node17&#45;&gt;Node19</title>
<path fill="none" stroke="midnightblue" d="M1192.29,-124.947C1287.94,-114.487 1448.89,-96.5574 1508,-88 1517.79,-86.583 1528.17,-84.9139 1538.21,-83.2132"/>
<polygon fill="midnightblue" stroke="midnightblue" points="1538.85,-86.656 1548.11,-81.5102 1537.66,-79.7575 1538.85,-86.656"/>
</g>
<!-- Node20 -->
<g id="node20" class="node"><title>Node20</title>
<polygon fill="none" stroke="#bfbfbf" points="1688.5,-62.5 1688.5,-81.5 1811.5,-81.5 1811.5,-62.5 1688.5,-62.5"/>
<text text-anchor="middle" x="1750" y="-69.5" font-family="Helvetica,sans-Serif" font-size="10.00">iDynTree/Model/Model.h</text>
</g>
<!-- Node17&#45;&gt;Node20 -->
<g id="edge29" class="edge"><title>Node17&#45;&gt;Node20</title>
<path fill="none" stroke="midnightblue" d="M1192.19,-124.923C1195.51,-124.603 1198.79,-124.293 1202,-124 1413.72,-104.673 1468.53,-118.039 1679,-88 1687.16,-86.8357 1695.78,-85.2872 1704.1,-83.6268"/>
<polygon fill="midnightblue" stroke="midnightblue" points="1704.96,-87.0222 1714.05,-81.5643 1703.54,-80.168 1704.96,-87.0222"/>
</g>
<!-- Node21 -->
<g id="node21" class="node"><title>Node21</title>
<polygon fill="none" stroke="#bfbfbf" points="1829.5,-62.5 1829.5,-81.5 1992.5,-81.5 1992.5,-62.5 1829.5,-62.5"/>
<text text-anchor="middle" x="1911" y="-69.5" font-family="Helvetica,sans-Serif" font-size="10.00">iDynTree/ModelIO/ModelLoader.h</text>
</g>
<!-- Node17&#45;&gt;Node21 -->
<g id="edge30" class="edge"><title>Node17&#45;&gt;Node21</title>
<path fill="none" stroke="midnightblue" d="M1192.19,-124.854C1195.5,-124.552 1198.78,-124.266 1202,-124 1476.2,-101.338 1546.55,-118.416 1820,-88 1831.32,-86.7405 1843.38,-85.0222 1854.89,-83.1976"/>
<polygon fill="midnightblue" stroke="midnightblue" points="1855.53,-86.6401 1864.84,-81.5756 1854.4,-79.7315 1855.53,-86.6401"/>
</g>
<!-- Node22 -->
<g id="node22" class="node"><title>Node22</title>
<polygon fill="none" stroke="#bfbfbf" points="1216.5,-62.5 1216.5,-81.5 1329.5,-81.5 1329.5,-62.5 1216.5,-62.5"/>
<text text-anchor="middle" x="1273" y="-69.5" font-family="Helvetica,sans-Serif" font-size="10.00">IpIpoptApplication.hpp</text>
</g>
<!-- Node17&#45;&gt;Node22 -->
<g id="edge32" class="edge"><title>Node17&#45;&gt;Node22</title>
<path fill="none" stroke="midnightblue" d="M1140.21,-124.403C1166.68,-114.156 1211.11,-96.9561 1241.22,-85.3021"/>
<polygon fill="midnightblue" stroke="midnightblue" points="1242.77,-88.4546 1250.83,-81.5806 1240.24,-81.9266 1242.77,-88.4546"/>
</g>
<!-- Node23 -->
<g id="node23" class="node"><title>Node23</title>
<polygon fill="none" stroke="#bfbfbf" points="1347.5,-62.5 1347.5,-81.5 1412.5,-81.5 1412.5,-62.5 1347.5,-62.5"/>
<text text-anchor="middle" x="1380" y="-69.5" font-family="Helvetica,sans-Serif" font-size="10.00">Eigen/Core</text>
</g>
<!-- Node17&#45;&gt;Node23 -->
<g id="edge33" class="edge"><title>Node17&#45;&gt;Node23</title>
<path fill="none" stroke="midnightblue" d="M1170.06,-124.492C1214.95,-116.648 1281.3,-103.838 1338,-88 1341.38,-87.0548 1344.89,-85.9734 1348.36,-84.8338"/>
<polygon fill="midnightblue" stroke="midnightblue" points="1349.64,-88.0963 1357.96,-81.5328 1347.36,-81.4772 1349.64,-88.0963"/>
</g>
</g>
</svg>
