<?xml version="1.0" encoding="UTF-8" standalone="no"?>
<!DOCTYPE svg PUBLIC "-//W3C//DTD SVG 1.1//EN"
 "http://www.w3.org/Graphics/SVG/1.1/DTD/svg11.dtd">
<!-- Generated by graphviz version 2.36.0 (20140111.2315)
 -->
<!-- Title: /home/travis/build/robotology&#45;playground/human&#45;dynamics&#45;estimation/human&#45;viz&#45;bridge/src/HumanTFBridge.cpp Pages: 1 -->
<svg width="2695pt" height="342pt"
 viewBox="0.00 0.00 2695.00 342.00" xmlns="http://www.w3.org/2000/svg" xmlns:xlink="http://www.w3.org/1999/xlink">
<g id="graph0" class="graph" transform="scale(1 1) rotate(0) translate(4 338)">
<title>/home/travis/build/robotology&#45;playground/human&#45;dynamics&#45;estimation/human&#45;viz&#45;bridge/src/HumanTFBridge.cpp</title>
<!-- Node1 -->
<g id="node1" class="node"><title>Node1</title>
<polygon fill="#bfbfbf" stroke="black" points="1512.5,-281 1512.5,-333 1715.5,-333 1715.5,-281 1512.5,-281"/>
<text text-anchor="start" x="1520.5" y="-321" font-family="Helvetica,sans-Serif" font-size="10.00">/home/travis/build</text>
<text text-anchor="start" x="1520.5" y="-310" font-family="Helvetica,sans-Serif" font-size="10.00">/robotology&#45;playground</text>
<text text-anchor="start" x="1520.5" y="-299" font-family="Helvetica,sans-Serif" font-size="10.00">/human&#45;dynamics&#45;estimation</text>
<text text-anchor="middle" x="1614" y="-288" font-family="Helvetica,sans-Serif" font-size="10.00">/human&#45;viz&#45;bridge/src/HumanTFBridge.cpp</text>
</g>
<!-- Node2 -->
<g id="node2" class="node"><title>Node2</title>
<polygon fill="none" stroke="#bfbfbf" points="-0.5,-224.5 -0.5,-243.5 146.5,-243.5 146.5,-224.5 -0.5,-224.5"/>
<text text-anchor="middle" x="73" y="-231.5" font-family="Helvetica,sans-Serif" font-size="10.00">geometry_msgs_Quaternion.h</text>
</g>
<!-- Node1&#45;&gt;Node2 -->
<g id="edge1" class="edge"><title>Node1&#45;&gt;Node2</title>
<path fill="none" stroke="midnightblue" d="M1512.15,-304.014C1275.85,-298.897 671.788,-282.899 156.972,-244.103"/>
<polygon fill="midnightblue" stroke="midnightblue" points="156.971,-240.593 146.736,-243.328 156.443,-247.573 156.971,-240.593"/>
</g>
<!-- Node3 -->
<g id="node3" class="node"><title>Node3</title>
<polygon fill="none" stroke="#bfbfbf" points="164.5,-224.5 164.5,-243.5 347.5,-243.5 347.5,-224.5 164.5,-224.5"/>
<text text-anchor="middle" x="256" y="-231.5" font-family="Helvetica,sans-Serif" font-size="10.00">geometry_msgs_TransformStamped.h</text>
</g>
<!-- Node1&#45;&gt;Node3 -->
<g id="edge2" class="edge"><title>Node1&#45;&gt;Node3</title>
<path fill="none" stroke="midnightblue" d="M1512.49,-302.357C1300.32,-294.446 794.125,-274.014 357.936,-244.036"/>
<polygon fill="midnightblue" stroke="midnightblue" points="357.863,-240.523 347.646,-243.326 357.381,-247.506 357.863,-240.523"/>
</g>
<!-- Node4 -->
<g id="node4" class="node"><title>Node4</title>
<polygon fill="none" stroke="#bfbfbf" points="366,-224.5 366,-243.5 500,-243.5 500,-224.5 366,-224.5"/>
<text text-anchor="middle" x="433" y="-231.5" font-family="Helvetica,sans-Serif" font-size="10.00">geometry_msgs_Vector3.h</text>
</g>
<!-- Node1&#45;&gt;Node4 -->
<g id="edge3" class="edge"><title>Node1&#45;&gt;Node4</title>
<path fill="none" stroke="midnightblue" d="M1512.26,-302.337C1319.17,-294.935 886.105,-276.179 510.154,-243.953"/>
<polygon fill="midnightblue" stroke="midnightblue" points="510.431,-240.464 500.167,-243.092 509.83,-247.438 510.431,-240.464"/>
</g>
<!-- Node5 -->
<g id="node5" class="node"><title>Node5</title>
<polygon fill="none" stroke="#bfbfbf" points="518.5,-224.5 518.5,-243.5 595.5,-243.5 595.5,-224.5 518.5,-224.5"/>
<text text-anchor="middle" x="557" y="-231.5" font-family="Helvetica,sans-Serif" font-size="10.00">msgs/String.h</text>
</g>
<!-- Node1&#45;&gt;Node5 -->
<g id="edge4" class="edge"><title>Node1&#45;&gt;Node5</title>
<path fill="none" stroke="midnightblue" d="M1512.29,-303.916C1331.65,-299.298 942.957,-285.228 605.672,-243.914"/>
<polygon fill="midnightblue" stroke="midnightblue" points="606.062,-240.436 595.708,-242.684 605.204,-247.383 606.062,-240.436"/>
</g>
<!-- Node6 -->
<g id="node6" class="node"><title>Node6</title>
<polygon fill="none" stroke="#bfbfbf" points="614,-224.5 614,-243.5 718,-243.5 718,-224.5 614,-224.5"/>
<text text-anchor="middle" x="666" y="-231.5" font-family="Helvetica,sans-Serif" font-size="10.00">std_msgs_Header.h</text>
</g>
<!-- Node1&#45;&gt;Node6 -->
<g id="edge5" class="edge"><title>Node1&#45;&gt;Node6</title>
<path fill="none" stroke="midnightblue" d="M1512.34,-301.434C1349.18,-293.543 1018.59,-275.236 728.511,-244.085"/>
<polygon fill="midnightblue" stroke="midnightblue" points="728.528,-240.567 718.21,-242.972 727.776,-247.526 728.528,-240.567"/>
</g>
<!-- Node7 -->
<g id="node7" class="node"><title>Node7</title>
<polygon fill="none" stroke="#bfbfbf" points="736,-224.5 736,-243.5 858,-243.5 858,-224.5 736,-224.5"/>
<text text-anchor="middle" x="797" y="-231.5" font-family="Helvetica,sans-Serif" font-size="10.00">tf2_msgs_TFMessage.h</text>
</g>
<!-- Node1&#45;&gt;Node7 -->
<g id="edge6" class="edge"><title>Node1&#45;&gt;Node7</title>
<path fill="none" stroke="midnightblue" d="M1512.48,-298.682C1369.47,-288.109 1100.59,-267.258 872,-244 870.891,-243.887 869.773,-243.772 868.648,-243.654"/>
<polygon fill="midnightblue" stroke="midnightblue" points="868.692,-240.139 858.375,-242.548 867.942,-247.099 868.692,-240.139"/>
</g>
<!-- Node8 -->
<g id="node8" class="node"><title>Node8</title>
<g id="a_node8"><a xlink:href="autogenerated_2services_2include_2thrift_2_xsens_driver_service_8h.html" target="_top" xlink:title="thrift/XsensDriverService.h">
<polygon fill="none" stroke="black" points="912,-112.5 912,-131.5 1046,-131.5 1046,-112.5 912,-112.5"/>
<text text-anchor="middle" x="979" y="-119.5" font-family="Helvetica,sans-Serif" font-size="10.00">thrift/XsensDriverService.h</text>
</a>
</g>
</g>
<!-- Node1&#45;&gt;Node8 -->
<g id="edge7" class="edge"><title>Node1&#45;&gt;Node8</title>
<path fill="none" stroke="midnightblue" d="M1512.33,-304.53C1326.23,-300.776 946.115,-287.781 906,-244 875.246,-210.435 927.426,-161.958 958.473,-137.82"/>
<polygon fill="midnightblue" stroke="midnightblue" points="960.716,-140.512 966.582,-131.69 956.495,-134.928 960.716,-140.512"/>
</g>
<!-- Node12 -->
<g id="node12" class="node"><title>Node12</title>
<g id="a_node12"><a xlink:href="autogenerated_2data_2include_2thrift_2_xsens_segments_frame_8h.html" target="_top" xlink:title="thrift/XsensSegmentsFrame.h">
<polygon fill="none" stroke="black" points="914.5,-224.5 914.5,-243.5 1061.5,-243.5 1061.5,-224.5 914.5,-224.5"/>
<text text-anchor="middle" x="988" y="-231.5" font-family="Helvetica,sans-Serif" font-size="10.00">thrift/XsensSegmentsFrame.h</text>
</a>
</g>
</g>
<!-- Node1&#45;&gt;Node12 -->
<g id="edge13" class="edge"><title>Node1&#45;&gt;Node12</title>
<path fill="none" stroke="midnightblue" d="M1512.38,-294.474C1389.7,-280.56 1185.7,-257.423 1071.68,-244.49"/>
<polygon fill="midnightblue" stroke="midnightblue" points="1071.93,-240.997 1061.6,-243.348 1071.14,-247.953 1071.93,-240.997"/>
</g>
<!-- Node17 -->
<g id="node17" class="node"><title>Node17</title>
<polygon fill="none" stroke="#bfbfbf" points="1079.5,-224.5 1079.5,-243.5 1210.5,-243.5 1210.5,-224.5 1079.5,-224.5"/>
<text text-anchor="middle" x="1145" y="-231.5" font-family="Helvetica,sans-Serif" font-size="10.00">iDynTree/Model/Indeces.h</text>
</g>
<!-- Node1&#45;&gt;Node17 -->
<g id="edge29" class="edge"><title>Node1&#45;&gt;Node17</title>
<path fill="none" stroke="midnightblue" d="M1512.23,-290.594C1421.09,-276.796 1290.06,-256.96 1211.65,-245.089"/>
<polygon fill="midnightblue" stroke="midnightblue" points="1211.82,-241.576 1201.41,-243.54 1210.77,-248.497 1211.82,-241.576"/>
</g>
<!-- Node18 -->
<g id="node18" class="node"><title>Node18</title>
<polygon fill="none" stroke="#bfbfbf" points="1228.5,-224.5 1228.5,-243.5 1391.5,-243.5 1391.5,-224.5 1228.5,-224.5"/>
<text text-anchor="middle" x="1310" y="-231.5" font-family="Helvetica,sans-Serif" font-size="10.00">iDynTree/ModelIO/ModelLoader.h</text>
</g>
<!-- Node1&#45;&gt;Node18 -->
<g id="edge30" class="edge"><title>Node1&#45;&gt;Node18</title>
<path fill="none" stroke="midnightblue" d="M1512.35,-282.259C1459.57,-269.932 1397.66,-255.472 1356.35,-245.824"/>
<polygon fill="midnightblue" stroke="midnightblue" points="1357.1,-242.406 1346.57,-243.54 1355.51,-249.223 1357.1,-242.406"/>
</g>
<!-- Node19 -->
<g id="node19" class="node"><title>Node19</title>
<polygon fill="none" stroke="#bfbfbf" points="1409.5,-224.5 1409.5,-243.5 1474.5,-243.5 1474.5,-224.5 1409.5,-224.5"/>
<text text-anchor="middle" x="1442" y="-231.5" font-family="Helvetica,sans-Serif" font-size="10.00">TickTime.h</text>
</g>
<!-- Node1&#45;&gt;Node19 -->
<g id="edge31" class="edge"><title>Node1&#45;&gt;Node19</title>
<path fill="none" stroke="midnightblue" d="M1553.36,-280.968C1525.89,-269.63 1494.64,-256.728 1472.25,-247.485"/>
<polygon fill="midnightblue" stroke="midnightblue" points="1473.51,-244.219 1462.93,-243.639 1470.84,-250.69 1473.51,-244.219"/>
</g>
<!-- Node20 -->
<g id="node20" class="node"><title>Node20</title>
<polygon fill="none" stroke="#bfbfbf" points="1492.5,-224.5 1492.5,-243.5 1607.5,-243.5 1607.5,-224.5 1492.5,-224.5"/>
<text text-anchor="middle" x="1550" y="-231.5" font-family="Helvetica,sans-Serif" font-size="10.00">yarp/os/BufferedPort.h</text>
</g>
<!-- Node1&#45;&gt;Node20 -->
<g id="edge32" class="edge"><title>Node1&#45;&gt;Node20</title>
<path fill="none" stroke="midnightblue" d="M1591.26,-280.768C1582.43,-270.982 1572.59,-260.056 1564.72,-251.335"/>
<polygon fill="midnightblue" stroke="midnightblue" points="1567.19,-248.842 1557.89,-243.757 1561.99,-253.528 1567.19,-248.842"/>
</g>
<!-- Node21 -->
<g id="node21" class="node"><title>Node21</title>
<polygon fill="none" stroke="#bfbfbf" points="1625.5,-224.5 1625.5,-243.5 1732.5,-243.5 1732.5,-224.5 1625.5,-224.5"/>
<text text-anchor="middle" x="1679" y="-231.5" font-family="Helvetica,sans-Serif" font-size="10.00">yarp/os/LogStream.h</text>
</g>
<!-- Node1&#45;&gt;Node21 -->
<g id="edge33" class="edge"><title>Node1&#45;&gt;Node21</title>
<path fill="none" stroke="midnightblue" d="M1637.1,-280.768C1646.06,-270.982 1656.06,-260.056 1664.05,-251.335"/>
<polygon fill="midnightblue" stroke="midnightblue" points="1666.81,-253.496 1670.98,-243.757 1661.65,-248.77 1666.81,-253.496"/>
</g>
<!-- Node22 -->
<g id="node22" class="node"><title>Node22</title>
<polygon fill="none" stroke="#bfbfbf" points="1750.5,-224.5 1750.5,-243.5 1847.5,-243.5 1847.5,-224.5 1750.5,-224.5"/>
<text text-anchor="middle" x="1799" y="-231.5" font-family="Helvetica,sans-Serif" font-size="10.00">yarp/os/Network.h</text>
</g>
<!-- Node1&#45;&gt;Node22 -->
<g id="edge34" class="edge"><title>Node1&#45;&gt;Node22</title>
<path fill="none" stroke="midnightblue" d="M1679.22,-280.968C1709.03,-269.529 1742.99,-256.497 1767.11,-247.237"/>
<polygon fill="midnightblue" stroke="midnightblue" points="1768.41,-250.49 1776.49,-243.639 1765.9,-243.954 1768.41,-250.49"/>
</g>
<!-- Node23 -->
<g id="node23" class="node"><title>Node23</title>
<polygon fill="none" stroke="#bfbfbf" points="1865.5,-224.5 1865.5,-243.5 1948.5,-243.5 1948.5,-224.5 1865.5,-224.5"/>
<text text-anchor="middle" x="1907" y="-231.5" font-family="Helvetica,sans-Serif" font-size="10.00">yarp/os/Node.h</text>
</g>
<!-- Node1&#45;&gt;Node23 -->
<g id="edge35" class="edge"><title>Node1&#45;&gt;Node23</title>
<path fill="none" stroke="midnightblue" d="M1715.65,-281.367C1765.42,-269.308 1822.83,-255.397 1861.68,-245.982"/>
<polygon fill="midnightblue" stroke="midnightblue" points="1862.74,-249.328 1871.63,-243.571 1861.09,-242.524 1862.74,-249.328"/>
</g>
<!-- Node24 -->
<g id="node24" class="node"><title>Node24</title>
<polygon fill="none" stroke="#bfbfbf" points="1966.5,-224.5 1966.5,-243.5 2067.5,-243.5 2067.5,-224.5 1966.5,-224.5"/>
<text text-anchor="middle" x="2017" y="-231.5" font-family="Helvetica,sans-Serif" font-size="10.00">yarp/os/Publisher.h</text>
</g>
<!-- Node1&#45;&gt;Node24 -->
<g id="edge36" class="edge"><title>Node1&#45;&gt;Node24</title>
<path fill="none" stroke="midnightblue" d="M1715.69,-288.084C1792.34,-274.581 1894.76,-256.536 1958.27,-245.347"/>
<polygon fill="midnightblue" stroke="midnightblue" points="1959.26,-248.726 1968.5,-243.544 1958.05,-241.833 1959.26,-248.726"/>
</g>
<!-- Node25 -->
<g id="node25" class="node"><title>Node25</title>
<polygon fill="none" stroke="#bfbfbf" points="2085.5,-224.5 2085.5,-243.5 2190.5,-243.5 2190.5,-224.5 2085.5,-224.5"/>
<text text-anchor="middle" x="2138" y="-231.5" font-family="Helvetica,sans-Serif" font-size="10.00">yarp/os/RFModule.h</text>
</g>
<!-- Node1&#45;&gt;Node25 -->
<g id="edge37" class="edge"><title>Node1&#45;&gt;Node25</title>
<path fill="none" stroke="midnightblue" d="M1715.89,-292.646C1807.15,-280.611 1944.96,-262.257 2075.09,-244.115"/>
<polygon fill="midnightblue" stroke="midnightblue" points="2075.82,-247.547 2085.24,-242.698 2074.85,-240.614 2075.82,-247.547"/>
</g>
<!-- Node26 -->
<g id="node26" class="node"><title>Node26</title>
<polygon fill="none" stroke="#bfbfbf" points="2209,-224.5 2209,-243.5 2291,-243.5 2291,-224.5 2209,-224.5"/>
<text text-anchor="middle" x="2250" y="-231.5" font-family="Helvetica,sans-Serif" font-size="10.00">yarp/os/Time.h</text>
</g>
<!-- Node1&#45;&gt;Node26 -->
<g id="edge38" class="edge"><title>Node1&#45;&gt;Node26</title>
<path fill="none" stroke="midnightblue" d="M1715.72,-297.367C1830.45,-287.142 2022.81,-268.529 2198.88,-243.917"/>
<polygon fill="midnightblue" stroke="midnightblue" points="2199.43,-247.374 2208.84,-242.514 2198.45,-240.442 2199.43,-247.374"/>
</g>
<!-- Node27 -->
<g id="node27" class="node"><title>Node27</title>
<polygon fill="none" stroke="#bfbfbf" points="2309,-224.5 2309,-243.5 2365,-243.5 2365,-224.5 2309,-224.5"/>
<text text-anchor="middle" x="2337" y="-231.5" font-family="Helvetica,sans-Serif" font-size="10.00">algorithm</text>
</g>
<!-- Node1&#45;&gt;Node27 -->
<g id="edge39" class="edge"><title>Node1&#45;&gt;Node27</title>
<path fill="none" stroke="midnightblue" d="M1715.72,-301.532C1848.09,-294.657 2086.54,-278.656 2298.72,-243.98"/>
<polygon fill="midnightblue" stroke="midnightblue" points="2299.51,-247.397 2308.81,-242.315 2298.37,-240.491 2299.51,-247.397"/>
</g>
<!-- Node28 -->
<g id="node28" class="node"><title>Node28</title>
<polygon fill="none" stroke="#bfbfbf" points="2383,-224.5 2383,-243.5 2427,-243.5 2427,-224.5 2383,-224.5"/>
<text text-anchor="middle" x="2405" y="-231.5" font-family="Helvetica,sans-Serif" font-size="10.00">cmath</text>
</g>
<!-- Node1&#45;&gt;Node28 -->
<g id="edge40" class="edge"><title>Node1&#45;&gt;Node28</title>
<path fill="none" stroke="midnightblue" d="M1715.78,-303.9C1860.19,-299.538 2132.66,-286.207 2372.78,-243.637"/>
<polygon fill="midnightblue" stroke="midnightblue" points="2373.52,-247.06 2382.75,-241.85 2372.29,-240.17 2373.52,-247.06"/>
</g>
<!-- Node29 -->
<g id="node29" class="node"><title>Node29</title>
<polygon fill="none" stroke="#bfbfbf" points="2445,-224.5 2445,-243.5 2499,-243.5 2499,-224.5 2445,-224.5"/>
<text text-anchor="middle" x="2472" y="-231.5" font-family="Helvetica,sans-Serif" font-size="10.00">iostream</text>
</g>
<!-- Node1&#45;&gt;Node29 -->
<g id="edge41" class="edge"><title>Node1&#45;&gt;Node29</title>
<path fill="none" stroke="midnightblue" d="M1715.73,-303.649C1869.51,-298.912 2170.29,-285.033 2434.45,-243.791"/>
<polygon fill="midnightblue" stroke="midnightblue" points="2435.29,-247.202 2444.62,-242.187 2434.2,-240.288 2435.29,-247.202"/>
</g>
<!-- Node30 -->
<g id="node30" class="node"><title>Node30</title>
<polygon fill="none" stroke="#bfbfbf" points="2517,-224.5 2517,-243.5 2565,-243.5 2565,-224.5 2517,-224.5"/>
<text text-anchor="middle" x="2541" y="-231.5" font-family="Helvetica,sans-Serif" font-size="10.00">limits.h</text>
</g>
<!-- Node1&#45;&gt;Node30 -->
<g id="edge42" class="edge"><title>Node1&#45;&gt;Node30</title>
<path fill="none" stroke="midnightblue" d="M1715.66,-305.442C1880.46,-303.105 2216,-292.397 2507.07,-243.811"/>
<polygon fill="midnightblue" stroke="midnightblue" points="2507.69,-247.256 2516.97,-242.141 2506.53,-240.353 2507.69,-247.256"/>
</g>
<!-- Node31 -->
<g id="node31" class="node"><title>Node31</title>
<polygon fill="none" stroke="#bfbfbf" points="2583.5,-224.5 2583.5,-243.5 2624.5,-243.5 2624.5,-224.5 2583.5,-224.5"/>
<text text-anchor="middle" x="2604" y="-231.5" font-family="Helvetica,sans-Serif" font-size="10.00">string</text>
</g>
<!-- Node1&#45;&gt;Node31 -->
<g id="edge43" class="edge"><title>Node1&#45;&gt;Node31</title>
<path fill="none" stroke="midnightblue" d="M1715.81,-306.967C1890.2,-306.968 2256.99,-299.745 2573.21,-243.666"/>
<polygon fill="midnightblue" stroke="midnightblue" points="2574.27,-247.032 2583.49,-241.821 2573.03,-240.142 2574.27,-247.032"/>
</g>
<!-- Node32 -->
<g id="node32" class="node"><title>Node32</title>
<polygon fill="none" stroke="#bfbfbf" points="2643,-224.5 2643,-243.5 2687,-243.5 2687,-224.5 2643,-224.5"/>
<text text-anchor="middle" x="2665" y="-231.5" font-family="Helvetica,sans-Serif" font-size="10.00">vector</text>
</g>
<!-- Node1&#45;&gt;Node32 -->
<g id="edge44" class="edge"><title>Node1&#45;&gt;Node32</title>
<path fill="none" stroke="midnightblue" d="M1715.69,-306.954C1898.16,-307.103 2292.94,-300.303 2632.72,-243.602"/>
<polygon fill="midnightblue" stroke="midnightblue" points="2633.48,-247.024 2642.76,-241.91 2632.32,-240.121 2633.48,-247.024"/>
</g>
<!-- Node9 -->
<g id="node9" class="node"><title>Node9</title>
<polygon fill="none" stroke="#bfbfbf" points="1184,-0.5 1184,-19.5 1264,-19.5 1264,-0.5 1184,-0.5"/>
<text text-anchor="middle" x="1224" y="-7.5" font-family="Helvetica,sans-Serif" font-size="10.00">yarp/os/Wire.h</text>
</g>
<!-- Node8&#45;&gt;Node9 -->
<g id="edge8" class="edge"><title>Node8&#45;&gt;Node9</title>
<path fill="none" stroke="midnightblue" d="M998.225,-112.368C1041.16,-93.0908 1145.04,-46.4536 1195.51,-23.7894"/>
<polygon fill="midnightblue" stroke="midnightblue" points="1197.18,-26.8803 1204.86,-19.5914 1194.31,-20.4944 1197.18,-26.8803"/>
</g>
<!-- Node10 -->
<g id="node10" class="node"><title>Node10</title>
<polygon fill="none" stroke="#bfbfbf" points="933,-0.5 933,-19.5 1053,-19.5 1053,-0.5 933,-0.5"/>
<text text-anchor="middle" x="993" y="-7.5" font-family="Helvetica,sans-Serif" font-size="10.00">yarp/os/idl/WireTypes.h</text>
</g>
<!-- Node8&#45;&gt;Node10 -->
<g id="edge9" class="edge"><title>Node8&#45;&gt;Node10</title>
<path fill="none" stroke="midnightblue" d="M963.128,-112.311C943.822,-100.524 915.183,-78.3595 927,-56 934.424,-41.9533 948.421,-31.4667 961.621,-24.167"/>
<polygon fill="midnightblue" stroke="midnightblue" points="963.223,-27.2788 970.541,-19.6178 960.043,-21.0428 963.223,-27.2788"/>
</g>
<!-- Node11 -->
<g id="node11" class="node"><title>Node11</title>
<g id="a_node11"><a xlink:href="autogenerated_2services_2include_2thrift_2_frame_referece_8h.html" target="_top" xlink:title="thrift/FrameReferece.h">
<polygon fill="none" stroke="black" points="935.5,-56.5 935.5,-75.5 1050.5,-75.5 1050.5,-56.5 935.5,-56.5"/>
<text text-anchor="middle" x="993" y="-63.5" font-family="Helvetica,sans-Serif" font-size="10.00">thrift/FrameReferece.h</text>
</a>
</g>
</g>
<!-- Node8&#45;&gt;Node11 -->
<g id="edge10" class="edge"><title>Node8&#45;&gt;Node11</title>
<path fill="none" stroke="midnightblue" d="M981.312,-112.083C983.167,-104.927 985.835,-94.6353 988.154,-85.6911"/>
<polygon fill="midnightblue" stroke="midnightblue" points="991.609,-86.3094 990.731,-75.7511 984.834,-84.5527 991.609,-86.3094"/>
</g>
<!-- Node11&#45;&gt;Node9 -->
<g id="edge11" class="edge"><title>Node11&#45;&gt;Node9</title>
<path fill="none" stroke="midnightblue" d="M1029.6,-56.4435C1069.73,-47.0629 1134.2,-31.9926 1177.78,-21.8036"/>
<polygon fill="midnightblue" stroke="midnightblue" points="1178.63,-25.2009 1187.57,-19.5164 1177.03,-18.3847 1178.63,-25.2009"/>
</g>
<!-- Node11&#45;&gt;Node10 -->
<g id="edge12" class="edge"><title>Node11&#45;&gt;Node10</title>
<path fill="none" stroke="midnightblue" d="M993,-56.083C993,-49.0059 993,-38.8611 993,-29.9865"/>
<polygon fill="midnightblue" stroke="midnightblue" points="996.5,-29.751 993,-19.7511 989.5,-29.7511 996.5,-29.751"/>
</g>
<!-- Node12&#45;&gt;Node9 -->
<g id="edge14" class="edge"><title>Node12&#45;&gt;Node9</title>
<path fill="none" stroke="midnightblue" d="M1051.16,-224.472C1117.04,-215.176 1215.7,-200.025 1252,-188 1334.75,-160.592 1381.53,-157.288 1413,-76 1416.21,-67.7106 1418.51,-62.9754 1413,-56 1395.98,-34.4563 1324.19,-22.1155 1274.16,-15.9849"/>
<polygon fill="midnightblue" stroke="midnightblue" points="1274.49,-12.5003 1264.15,-14.8052 1273.67,-19.4522 1274.49,-12.5003"/>
</g>
<!-- Node12&#45;&gt;Node10 -->
<g id="edge15" class="edge"><title>Node12&#45;&gt;Node10</title>
<path fill="none" stroke="midnightblue" d="M974.982,-224.312C953.094,-208.82 909.677,-174.072 893,-132 889.724,-123.737 892.139,-120.847 893,-112 895.456,-86.7547 888.684,-76.2182 904,-56 915.536,-40.7712 933.663,-30.3102 950.555,-23.3361"/>
<polygon fill="midnightblue" stroke="midnightblue" points="952.201,-26.4545 960.299,-19.6231 949.708,-19.9133 952.201,-26.4545"/>
</g>
<!-- Node13 -->
<g id="node13" class="node"><title>Node13</title>
<g id="a_node13"><a xlink:href="autogenerated_2data_2include_2thrift_2_xsens_segment_data_8h.html" target="_top" xlink:title="thrift/XsensSegmentData.h">
<polygon fill="none" stroke="black" points="1080.5,-168.5 1080.5,-187.5 1215.5,-187.5 1215.5,-168.5 1080.5,-168.5"/>
<text text-anchor="middle" x="1148" y="-175.5" font-family="Helvetica,sans-Serif" font-size="10.00">thrift/XsensSegmentData.h</text>
</a>
</g>
</g>
<!-- Node12&#45;&gt;Node13 -->
<g id="edge16" class="edge"><title>Node12&#45;&gt;Node13</title>
<path fill="none" stroke="midnightblue" d="M1013.35,-224.444C1040.27,-215.359 1083,-200.939 1113.09,-190.783"/>
<polygon fill="midnightblue" stroke="midnightblue" points="1114.41,-194.031 1122.77,-187.516 1112.17,-187.398 1114.41,-194.031"/>
</g>
<!-- Node16 -->
<g id="node16" class="node"><title>Node16</title>
<g id="a_node16"><a xlink:href="autogenerated_2data_2include_2thrift_2_xsens_status_8h.html" target="_top" xlink:title="thrift/XsensStatus.h">
<polygon fill="none" stroke="black" points="1283,-56.5 1283,-75.5 1387,-75.5 1387,-56.5 1283,-56.5"/>
<text text-anchor="middle" x="1335" y="-63.5" font-family="Helvetica,sans-Serif" font-size="10.00">thrift/XsensStatus.h</text>
</a>
</g>
</g>
<!-- Node12&#45;&gt;Node16 -->
<g id="edge26" class="edge"><title>Node12&#45;&gt;Node16</title>
<path fill="none" stroke="midnightblue" d="M1058.91,-224.473C1117.79,-216.488 1196.22,-203.483 1224,-188 1269.69,-162.538 1306.9,-111.424 1324.32,-84.5036"/>
<polygon fill="midnightblue" stroke="midnightblue" points="1327.45,-86.099 1329.82,-75.7726 1321.53,-82.3673 1327.45,-86.099"/>
</g>
<!-- Node13&#45;&gt;Node9 -->
<g id="edge17" class="edge"><title>Node13&#45;&gt;Node9</title>
<path fill="none" stroke="midnightblue" d="M1215.71,-169.969C1274.42,-159.891 1356.05,-135.409 1396,-76 1427.07,-29.7996 1335.97,-16.3808 1274.74,-12.5202"/>
<polygon fill="midnightblue" stroke="midnightblue" points="1274.63,-9.00831 1264.45,-11.9417 1274.24,-15.9973 1274.63,-9.00831"/>
</g>
<!-- Node13&#45;&gt;Node10 -->
<g id="edge18" class="edge"><title>Node13&#45;&gt;Node10</title>
<path fill="none" stroke="midnightblue" d="M1080.43,-174.018C1015.88,-169.583 925.213,-158.665 903,-132 888.809,-114.965 903.723,-77.1226 920,-56 930.735,-42.0697 947.106,-31.4138 961.626,-23.9766"/>
<polygon fill="midnightblue" stroke="midnightblue" points="963.328,-27.0414 970.822,-19.552 960.294,-20.7335 963.328,-27.0414"/>
</g>
<!-- Node14 -->
<g id="node14" class="node"><title>Node14</title>
<g id="a_node14"><a xlink:href="human-viz-bridge_2autogenerated_2data_2include_2thrift_2_quaternion_8h.html" target="_top" xlink:title="thrift/Quaternion.h">
<polygon fill="none" stroke="black" points="1100.5,-112.5 1100.5,-131.5 1195.5,-131.5 1195.5,-112.5 1100.5,-112.5"/>
<text text-anchor="middle" x="1148" y="-119.5" font-family="Helvetica,sans-Serif" font-size="10.00">thrift/Quaternion.h</text>
</a>
</g>
</g>
<!-- Node13&#45;&gt;Node14 -->
<g id="edge19" class="edge"><title>Node13&#45;&gt;Node14</title>
<path fill="none" stroke="midnightblue" d="M1148,-168.083C1148,-161.006 1148,-150.861 1148,-141.986"/>
<polygon fill="midnightblue" stroke="midnightblue" points="1151.5,-141.751 1148,-131.751 1144.5,-141.751 1151.5,-141.751"/>
</g>
<!-- Node15 -->
<g id="node15" class="node"><title>Node15</title>
<g id="a_node15"><a xlink:href="human-viz-bridge_2autogenerated_2data_2include_2thrift_2_vector3_8h.html" target="_top" xlink:title="thrift/Vector3.h">
<polygon fill="none" stroke="black" points="1183.5,-56.5 1183.5,-75.5 1264.5,-75.5 1264.5,-56.5 1183.5,-56.5"/>
<text text-anchor="middle" x="1224" y="-63.5" font-family="Helvetica,sans-Serif" font-size="10.00">thrift/Vector3.h</text>
</a>
</g>
</g>
<!-- Node13&#45;&gt;Node15 -->
<g id="edge25" class="edge"><title>Node13&#45;&gt;Node15</title>
<path fill="none" stroke="midnightblue" d="M1163.2,-168.364C1175.84,-160.44 1193.43,-147.584 1204,-132 1213.43,-118.108 1218.55,-99.5962 1221.25,-85.8816"/>
<polygon fill="midnightblue" stroke="midnightblue" points="1224.75,-86.1417 1222.98,-75.6965 1217.85,-84.9681 1224.75,-86.1417"/>
</g>
<!-- Node14&#45;&gt;Node9 -->
<g id="edge20" class="edge"><title>Node14&#45;&gt;Node9</title>
<path fill="none" stroke="midnightblue" d="M1150.27,-112.413C1153.98,-99.3855 1162.24,-74.2183 1175,-56 1182.89,-44.7304 1194.05,-34.2061 1203.72,-26.1733"/>
<polygon fill="midnightblue" stroke="midnightblue" points="1206.08,-28.7679 1211.72,-19.7993 1201.72,-23.2928 1206.08,-28.7679"/>
</g>
<!-- Node14&#45;&gt;Node10 -->
<g id="edge21" class="edge"><title>Node14&#45;&gt;Node10</title>
<path fill="none" stroke="midnightblue" d="M1136.57,-112.466C1119.71,-99.9266 1087.14,-75.8596 1059,-56 1044.09,-45.474 1027.06,-33.8759 1014.04,-25.0908"/>
<polygon fill="midnightblue" stroke="midnightblue" points="1015.99,-22.1839 1005.74,-19.5059 1012.08,-27.9919 1015.99,-22.1839"/>
</g>
<!-- Node14&#45;&gt;Node15 -->
<g id="edge22" class="edge"><title>Node14&#45;&gt;Node15</title>
<path fill="none" stroke="midnightblue" d="M1160.21,-112.324C1171.78,-104.107 1189.38,-91.6017 1203.16,-81.8069"/>
<polygon fill="midnightblue" stroke="midnightblue" points="1205.44,-84.4791 1211.57,-75.8339 1201.39,-78.7729 1205.44,-84.4791"/>
</g>
<!-- Node15&#45;&gt;Node9 -->
<g id="edge23" class="edge"><title>Node15&#45;&gt;Node9</title>
<path fill="none" stroke="midnightblue" d="M1224,-56.083C1224,-49.0059 1224,-38.8611 1224,-29.9865"/>
<polygon fill="midnightblue" stroke="midnightblue" points="1227.5,-29.751 1224,-19.7511 1220.5,-29.7511 1227.5,-29.751"/>
</g>
<!-- Node15&#45;&gt;Node10 -->
<g id="edge24" class="edge"><title>Node15&#45;&gt;Node10</title>
<path fill="none" stroke="midnightblue" d="M1187.4,-56.4435C1147.27,-47.0629 1082.8,-31.9926 1039.22,-21.8036"/>
<polygon fill="midnightblue" stroke="midnightblue" points="1039.97,-18.3847 1029.43,-19.5164 1038.37,-25.2009 1039.97,-18.3847"/>
</g>
<!-- Node16&#45;&gt;Node9 -->
<g id="edge27" class="edge"><title>Node16&#45;&gt;Node9</title>
<path fill="none" stroke="midnightblue" d="M1317.17,-56.324C1299.28,-47.6247 1271.52,-34.1202 1250.95,-24.113"/>
<polygon fill="midnightblue" stroke="midnightblue" points="1252.31,-20.8819 1241.79,-19.6545 1249.25,-27.1765 1252.31,-20.8819"/>
</g>
<!-- Node16&#45;&gt;Node10 -->
<g id="edge28" class="edge"><title>Node16&#45;&gt;Node10</title>
<path fill="none" stroke="midnightblue" d="M1282.69,-56.7398C1222.12,-47.1766 1122.35,-31.4242 1057.16,-21.1302"/>
<polygon fill="midnightblue" stroke="midnightblue" points="1057.43,-17.6293 1047,-19.5268 1056.33,-24.5437 1057.43,-17.6293"/>
</g>
</g>
</svg>
