<?xml version="1.0" encoding="UTF-8" standalone="no"?>
<!DOCTYPE svg PUBLIC "-//W3C//DTD SVG 1.1//EN"
 "http://www.w3.org/Graphics/SVG/1.1/DTD/svg11.dtd">
<!-- Generated by graphviz version 2.36.0 (20140111.2315)
 -->
<!-- Title: /home/travis/build/robotology&#45;playground/human&#45;dynamics&#45;estimation/human&#45;state&#45;provider/src/HumanIKWorkerPool.cpp Pages: 1 -->
<svg width="2684pt" height="376pt"
 viewBox="0.00 0.00 2684.00 376.00" xmlns="http://www.w3.org/2000/svg" xmlns:xlink="http://www.w3.org/1999/xlink">
<g id="graph0" class="graph" transform="scale(1 1) rotate(0) translate(4 372)">
<title>/home/travis/build/robotology&#45;playground/human&#45;dynamics&#45;estimation/human&#45;state&#45;provider/src/HumanIKWorkerPool.cpp</title>
<!-- Node1 -->
<g id="node1" class="node"><title>Node1</title>
<polygon fill="#bfbfbf" stroke="black" points="1252,-304.5 1252,-367.5 1394,-367.5 1394,-304.5 1252,-304.5"/>
<text text-anchor="start" x="1260" y="-355.5" font-family="Helvetica,sans-Serif" font-size="10.00">/home/travis/build</text>
<text text-anchor="start" x="1260" y="-344.5" font-family="Helvetica,sans-Serif" font-size="10.00">/robotology&#45;playground</text>
<text text-anchor="start" x="1260" y="-333.5" font-family="Helvetica,sans-Serif" font-size="10.00">/human&#45;dynamics&#45;estimation</text>
<text text-anchor="start" x="1260" y="-322.5" font-family="Helvetica,sans-Serif" font-size="10.00">/human&#45;state&#45;provider/src</text>
<text text-anchor="middle" x="1323" y="-311.5" font-family="Helvetica,sans-Serif" font-size="10.00">/HumanIKWorkerPool.cpp</text>
</g>
<!-- Node2 -->
<g id="node2" class="node"><title>Node2</title>
<g id="a_node2"><a xlink:href="_human_i_k_worker_pool_8h.html" target="_top" xlink:title="HumanIKWorkerPool.h">
<polygon fill="none" stroke="black" points="194.5,-248.5 194.5,-267.5 311.5,-267.5 311.5,-248.5 194.5,-248.5"/>
<text text-anchor="middle" x="253" y="-255.5" font-family="Helvetica,sans-Serif" font-size="10.00">HumanIKWorkerPool.h</text>
</a>
</g>
</g>
<!-- Node1&#45;&gt;Node2 -->
<g id="edge1" class="edge"><title>Node1&#45;&gt;Node2</title>
<path fill="none" stroke="midnightblue" d="M1251.97,-329.955C1056.74,-316.088 513.805,-277.524 321.555,-263.869"/>
<polygon fill="midnightblue" stroke="midnightblue" points="321.799,-260.378 311.576,-263.161 321.303,-267.36 321.799,-260.378"/>
</g>
<!-- Node8 -->
<g id="node8" class="node"><title>Node8</title>
<g id="a_node8"><a xlink:href="_human_state_provider_private_8h.html" target="_top" xlink:title="HumanStateProviderPrivate.h">
<polygon fill="none" stroke="black" points="1149,-248.5 1149,-267.5 1295,-267.5 1295,-248.5 1149,-248.5"/>
<text text-anchor="middle" x="1222" y="-255.5" font-family="Helvetica,sans-Serif" font-size="10.00">HumanStateProviderPrivate.h</text>
</a>
</g>
</g>
<!-- Node1&#45;&gt;Node8 -->
<g id="edge7" class="edge"><title>Node1&#45;&gt;Node8</title>
<path fill="none" stroke="midnightblue" d="M1282.21,-304.307C1268.25,-293.802 1253.26,-282.522 1241.73,-273.846"/>
<polygon fill="midnightblue" stroke="midnightblue" points="1243.75,-270.99 1233.66,-267.774 1239.55,-276.583 1243.75,-270.99"/>
</g>
<!-- Node23 -->
<g id="node23" class="node"><title>Node23</title>
<g id="a_node23"><a xlink:href="_inverse_kinematics_8h.html" target="_top" xlink:title="inversekinematics/Inverse\lKinematics.h">
<polygon fill="none" stroke="black" points="1732.5,-181 1732.5,-211 1863.5,-211 1863.5,-181 1732.5,-181"/>
<text text-anchor="start" x="1740.5" y="-199" font-family="Helvetica,sans-Serif" font-size="10.00">inversekinematics/Inverse</text>
<text text-anchor="middle" x="1798" y="-188" font-family="Helvetica,sans-Serif" font-size="10.00">Kinematics.h</text>
</a>
</g>
</g>
<!-- Node1&#45;&gt;Node23 -->
<g id="edge53" class="edge"><title>Node1&#45;&gt;Node23</title>
<path fill="none" stroke="midnightblue" d="M1321.26,-304.347C1321.96,-285.287 1326.39,-261.85 1342,-248 1404.79,-192.299 1634.89,-223.746 1718,-212 1719.3,-211.816 1720.61,-211.627 1721.93,-211.431"/>
<polygon fill="midnightblue" stroke="midnightblue" points="1722.82,-214.834 1732.16,-209.831 1721.74,-207.918 1722.82,-214.834"/>
</g>
<!-- Node38 -->
<g id="node38" class="node"><title>Node38</title>
<polygon fill="none" stroke="#bfbfbf" points="1351,-248.5 1351,-267.5 1501,-267.5 1501,-248.5 1351,-248.5"/>
<text text-anchor="middle" x="1426" y="-255.5" font-family="Helvetica,sans-Serif" font-size="10.00">iDynTree/Core/EigenHelpers.h</text>
</g>
<!-- Node1&#45;&gt;Node38 -->
<g id="edge52" class="edge"><title>Node1&#45;&gt;Node38</title>
<path fill="none" stroke="midnightblue" d="M1364.6,-304.307C1378.83,-293.802 1394.12,-282.522 1405.88,-273.846"/>
<polygon fill="midnightblue" stroke="midnightblue" points="1408.14,-276.528 1414.11,-267.774 1403.98,-270.895 1408.14,-276.528"/>
</g>
<!-- Node39 -->
<g id="node39" class="node"><title>Node39</title>
<polygon fill="none" stroke="#bfbfbf" points="1519,-248.5 1519,-267.5 1563,-267.5 1563,-248.5 1519,-248.5"/>
<text text-anchor="middle" x="1541" y="-255.5" font-family="Helvetica,sans-Serif" font-size="10.00">thread</text>
</g>
<!-- Node1&#45;&gt;Node39 -->
<g id="edge54" class="edge"><title>Node1&#45;&gt;Node39</title>
<path fill="none" stroke="midnightblue" d="M1394.08,-310.22C1432.93,-296.677 1479.12,-280.574 1509.19,-270.088"/>
<polygon fill="midnightblue" stroke="midnightblue" points="1510.45,-273.356 1518.74,-266.759 1508.15,-266.746 1510.45,-273.356"/>
</g>
<!-- Node3 -->
<g id="node3" class="node"><title>Node3</title>
<polygon fill="none" stroke="#bfbfbf" points="275,-186.5 275,-205.5 319,-205.5 319,-186.5 275,-186.5"/>
<text text-anchor="middle" x="297" y="-193.5" font-family="Helvetica,sans-Serif" font-size="10.00">mutex</text>
</g>
<!-- Node2&#45;&gt;Node3 -->
<g id="edge2" class="edge"><title>Node2&#45;&gt;Node3</title>
<path fill="none" stroke="midnightblue" d="M259.304,-248.403C265.904,-239.403 276.437,-225.041 284.693,-213.782"/>
<polygon fill="midnightblue" stroke="midnightblue" points="287.616,-215.714 290.708,-205.581 281.971,-211.575 287.616,-215.714"/>
</g>
<!-- Node4 -->
<g id="node4" class="node"><title>Node4</title>
<polygon fill="none" stroke="#bfbfbf" points="161.5,-186.5 161.5,-205.5 256.5,-205.5 256.5,-186.5 161.5,-186.5"/>
<text text-anchor="middle" x="209" y="-193.5" font-family="Helvetica,sans-Serif" font-size="10.00">condition_variable</text>
</g>
<!-- Node2&#45;&gt;Node4 -->
<g id="edge3" class="edge"><title>Node2&#45;&gt;Node4</title>
<path fill="none" stroke="midnightblue" d="M246.696,-248.403C240.096,-239.403 229.563,-225.041 221.307,-213.782"/>
<polygon fill="midnightblue" stroke="midnightblue" points="224.029,-211.575 215.292,-205.581 218.384,-215.714 224.029,-211.575"/>
</g>
<!-- Node5 -->
<g id="node5" class="node"><title>Node5</title>
<polygon fill="none" stroke="#bfbfbf" points="-0.5,-186.5 -0.5,-205.5 82.5,-205.5 82.5,-186.5 -0.5,-186.5"/>
<text text-anchor="middle" x="41" y="-193.5" font-family="Helvetica,sans-Serif" font-size="10.00">unordered_map</text>
</g>
<!-- Node2&#45;&gt;Node5 -->
<g id="edge4" class="edge"><title>Node2&#45;&gt;Node5</title>
<path fill="none" stroke="midnightblue" d="M221.587,-248.479C188.91,-239.568 136.29,-225.082 91,-212 86.984,-210.84 82.792,-209.611 78.6178,-208.376"/>
<polygon fill="midnightblue" stroke="midnightblue" points="79.5845,-205.012 69.0015,-205.511 77.5859,-211.72 79.5845,-205.012"/>
</g>
<!-- Node6 -->
<g id="node6" class="node"><title>Node6</title>
<polygon fill="none" stroke="#bfbfbf" points="100.5,-186.5 100.5,-205.5 143.5,-205.5 143.5,-186.5 100.5,-186.5"/>
<text text-anchor="middle" x="122" y="-193.5" font-family="Helvetica,sans-Serif" font-size="10.00">queue</text>
</g>
<!-- Node2&#45;&gt;Node6 -->
<g id="edge5" class="edge"><title>Node2&#45;&gt;Node6</title>
<path fill="none" stroke="midnightblue" d="M233.141,-248.463C212.688,-239.598 179.944,-225.203 152,-212 150.651,-211.363 149.271,-210.702 147.881,-210.031"/>
<polygon fill="midnightblue" stroke="midnightblue" points="149.273,-206.815 138.754,-205.542 146.183,-213.096 149.273,-206.815"/>
</g>
<!-- Node7 -->
<g id="node7" class="node"><title>Node7</title>
<polygon fill="none" stroke="#bfbfbf" points="337,-186.5 337,-205.5 381,-205.5 381,-186.5 337,-186.5"/>
<text text-anchor="middle" x="359" y="-193.5" font-family="Helvetica,sans-Serif" font-size="10.00">vector</text>
</g>
<!-- Node2&#45;&gt;Node7 -->
<g id="edge6" class="edge"><title>Node2&#45;&gt;Node7</title>
<path fill="none" stroke="midnightblue" d="M268.187,-248.403C285.662,-238.512 314.579,-222.144 335.083,-210.538"/>
<polygon fill="midnightblue" stroke="midnightblue" points="336.862,-213.553 343.841,-205.581 333.414,-207.461 336.862,-213.553"/>
</g>
<!-- Node8&#45;&gt;Node3 -->
<g id="edge49" class="edge"><title>Node8&#45;&gt;Node3</title>
<path fill="none" stroke="midnightblue" d="M1148.74,-257.056C963.937,-256.6 482.507,-251.531 328,-212 325.654,-211.4 323.275,-210.614 320.931,-209.717"/>
<polygon fill="midnightblue" stroke="midnightblue" points="322.233,-206.465 311.675,-205.587 319.381,-212.858 322.233,-206.465"/>
</g>
<!-- Node8&#45;&gt;Node7 -->
<g id="edge51" class="edge"><title>Node8&#45;&gt;Node7</title>
<path fill="none" stroke="midnightblue" d="M1148.71,-256.731C973.114,-255.492 532.35,-248.704 390,-212 387.655,-211.395 385.277,-210.607 382.933,-209.707"/>
<polygon fill="midnightblue" stroke="midnightblue" points="384.236,-206.456 373.678,-205.575 381.382,-212.848 384.236,-206.456"/>
</g>
<!-- Node9 -->
<g id="node9" class="node"><title>Node9</title>
<g id="a_node9"><a xlink:href="_human_state_provider_8h.html" target="_top" xlink:title="HumanStateProvider.h">
<polygon fill="none" stroke="black" points="399,-186.5 399,-205.5 515,-205.5 515,-186.5 399,-186.5"/>
<text text-anchor="middle" x="457" y="-193.5" font-family="Helvetica,sans-Serif" font-size="10.00">HumanStateProvider.h</text>
</a>
</g>
</g>
<!-- Node8&#45;&gt;Node9 -->
<g id="edge8" class="edge"><title>Node8&#45;&gt;Node9</title>
<path fill="none" stroke="midnightblue" d="M1148.76,-256.026C1021.21,-253.495 750.285,-244.423 524,-212 516.201,-210.883 507.964,-209.342 500.033,-207.672"/>
<polygon fill="midnightblue" stroke="midnightblue" points="500.728,-204.241 490.209,-205.509 499.222,-211.077 500.728,-204.241"/>
</g>
<!-- Node11 -->
<g id="node11" class="node"><title>Node11</title>
<g id="a_node11"><a xlink:href="autogenerated_2include_2thrifts_2_human_state_8h.html" target="_top" xlink:title="thrifts/HumanState.h">
<polygon fill="none" stroke="black" points="682.5,-186.5 682.5,-205.5 789.5,-205.5 789.5,-186.5 682.5,-186.5"/>
<text text-anchor="middle" x="736" y="-193.5" font-family="Helvetica,sans-Serif" font-size="10.00">thrifts/HumanState.h</text>
</a>
</g>
</g>
<!-- Node8&#45;&gt;Node11 -->
<g id="edge10" class="edge"><title>Node8&#45;&gt;Node11</title>
<path fill="none" stroke="midnightblue" d="M1148.8,-251.571C1065.1,-244.795 924.112,-231.652 804,-212 796.534,-210.778 788.655,-209.258 781.011,-207.657"/>
<polygon fill="midnightblue" stroke="midnightblue" points="781.665,-204.218 771.151,-205.526 780.186,-211.06 781.665,-204.218"/>
</g>
<!-- Node16 -->
<g id="node16" class="node"><title>Node16</title>
<polygon fill="none" stroke="#bfbfbf" points="763.5,-124.5 763.5,-143.5 854.5,-143.5 854.5,-124.5 763.5,-124.5"/>
<text text-anchor="middle" x="809" y="-131.5" font-family="Helvetica,sans-Serif" font-size="10.00">yarp/sig/Vector.h</text>
</g>
<!-- Node8&#45;&gt;Node16 -->
<g id="edge46" class="edge"><title>Node8&#45;&gt;Node16</title>
<path fill="none" stroke="midnightblue" d="M1148.82,-256.838C1052.26,-255.214 889.025,-247.15 842,-212 823.478,-198.155 815.234,-171.805 811.645,-153.824"/>
<polygon fill="midnightblue" stroke="midnightblue" points="815.085,-153.171 809.963,-143.897 808.183,-154.341 815.085,-153.171"/>
</g>
<!-- Node17 -->
<g id="node17" class="node"><title>Node17</title>
<g id="a_node17"><a xlink:href="autogenerated_2include_2thrifts_2_human_state_provider_service_8h.html" target="_top" xlink:title="thrifts/HumanStateProvider\lService.h">
<polygon fill="none" stroke="black" points="784.5,-57 784.5,-87 919.5,-87 919.5,-57 784.5,-57"/>
<text text-anchor="start" x="792.5" y="-75" font-family="Helvetica,sans-Serif" font-size="10.00">thrifts/HumanStateProvider</text>
<text text-anchor="middle" x="852" y="-64" font-family="Helvetica,sans-Serif" font-size="10.00">Service.h</text>
</a>
</g>
</g>
<!-- Node8&#45;&gt;Node17 -->
<g id="edge21" class="edge"><title>Node8&#45;&gt;Node17</title>
<path fill="none" stroke="midnightblue" d="M1148.76,-257.564C1058.48,-256.608 912.386,-249.141 875,-212 846.997,-184.18 869.833,-162.877 863,-124 861.457,-115.218 859.474,-105.649 857.617,-97.1972"/>
<polygon fill="midnightblue" stroke="midnightblue" points="860.985,-96.2201 855.377,-87.2315 854.156,-97.7557 860.985,-96.2201"/>
</g>
<!-- Node18 -->
<g id="node18" class="node"><title>Node18</title>
<polygon fill="none" stroke="#bfbfbf" points="1550,-62.5 1550,-81.5 1706,-81.5 1706,-62.5 1550,-62.5"/>
<text text-anchor="middle" x="1628" y="-69.5" font-family="Helvetica,sans-Serif" font-size="10.00">iDynTree/Core/MatrixDynSize.h</text>
</g>
<!-- Node8&#45;&gt;Node18 -->
<g id="edge24" class="edge"><title>Node8&#45;&gt;Node18</title>
<path fill="none" stroke="midnightblue" d="M1295.18,-249.377C1393.76,-238.839 1558.2,-220.194 1569,-212 1607.89,-182.489 1621.42,-122.366 1625.91,-91.7787"/>
<polygon fill="midnightblue" stroke="midnightblue" points="1629.41,-91.9933 1627.22,-81.6273 1622.47,-91.0966 1629.41,-91.9933"/>
</g>
<!-- Node19 -->
<g id="node19" class="node"><title>Node19</title>
<polygon fill="none" stroke="#bfbfbf" points="1724,-62.5 1724,-81.5 1882,-81.5 1882,-62.5 1724,-62.5"/>
<text text-anchor="middle" x="1803" y="-69.5" font-family="Helvetica,sans-Serif" font-size="10.00">iDynTree/Core/VectorDynSize.h</text>
</g>
<!-- Node8&#45;&gt;Node19 -->
<g id="edge25" class="edge"><title>Node8&#45;&gt;Node19</title>
<path fill="none" stroke="midnightblue" d="M1295.28,-250.042C1396.16,-240.179 1568.53,-222.202 1596,-212 1601.19,-210.072 1730.44,-122.347 1782.03,-87.2713"/>
<polygon fill="midnightblue" stroke="midnightblue" points="1784.13,-90.0708 1790.43,-81.5528 1780.2,-84.2827 1784.13,-90.0708"/>
</g>
<!-- Node20 -->
<g id="node20" class="node"><title>Node20</title>
<polygon fill="none" stroke="#bfbfbf" points="1216,-62.5 1216,-81.5 1352,-81.5 1352,-62.5 1216,-62.5"/>
<text text-anchor="middle" x="1284" y="-69.5" font-family="Helvetica,sans-Serif" font-size="10.00">iDynTree/Core/Transform.h</text>
</g>
<!-- Node8&#45;&gt;Node20 -->
<g id="edge26" class="edge"><title>Node8&#45;&gt;Node20</title>
<path fill="none" stroke="midnightblue" d="M1295.28,-248.823C1384.75,-238.486 1525.24,-220.958 1533,-212 1542.31,-201.247 1540.82,-191.877 1533,-180 1508.92,-143.448 1388.33,-103.511 1324.22,-84.4144"/>
<polygon fill="midnightblue" stroke="midnightblue" points="1325.02,-81.0017 1314.44,-81.5321 1323.05,-87.7162 1325.02,-81.0017"/>
</g>
<!-- Node21 -->
<g id="node21" class="node"><title>Node21</title>
<polygon fill="none" stroke="#bfbfbf" points="533.5,-186.5 533.5,-205.5 664.5,-205.5 664.5,-186.5 533.5,-186.5"/>
<text text-anchor="middle" x="599" y="-193.5" font-family="Helvetica,sans-Serif" font-size="10.00">iDynTree/Model/Indeces.h</text>
</g>
<!-- Node8&#45;&gt;Node21 -->
<g id="edge27" class="edge"><title>Node8&#45;&gt;Node21</title>
<path fill="none" stroke="midnightblue" d="M1148.87,-253.76C1043.37,-248.461 842.485,-236.038 673,-212 664.511,-210.796 655.53,-209.228 646.861,-207.561"/>
<polygon fill="midnightblue" stroke="midnightblue" points="647.368,-204.093 636.877,-205.574 646.002,-210.959 647.368,-204.093"/>
</g>
<!-- Node22 -->
<g id="node22" class="node"><title>Node22</title>
<polygon fill="none" stroke="#bfbfbf" points="1370.5,-62.5 1370.5,-81.5 1531.5,-81.5 1531.5,-62.5 1370.5,-62.5"/>
<text text-anchor="middle" x="1451" y="-69.5" font-family="Helvetica,sans-Serif" font-size="10.00">iDynTree/KinDynComputations.h</text>
</g>
<!-- Node8&#45;&gt;Node22 -->
<g id="edge28" class="edge"><title>Node8&#45;&gt;Node22</title>
<path fill="none" stroke="midnightblue" d="M1295.24,-249.398C1389.34,-239.276 1541.68,-221.543 1550,-212 1587.22,-169.328 1513.69,-112.902 1474.03,-87.0387"/>
<polygon fill="midnightblue" stroke="midnightblue" points="1475.76,-83.9917 1465.45,-81.5723 1472,-89.8961 1475.76,-83.9917"/>
</g>
<!-- Node8&#45;&gt;Node23 -->
<g id="edge29" class="edge"><title>Node8&#45;&gt;Node23</title>
<path fill="none" stroke="midnightblue" d="M1295.09,-249.357C1299.8,-248.89 1304.47,-248.434 1309,-248 1490.65,-230.611 1537.22,-236.844 1718,-212 1719.3,-211.821 1720.61,-211.636 1721.93,-211.445"/>
<polygon fill="midnightblue" stroke="midnightblue" points="1722.81,-214.85 1732.16,-209.871 1721.75,-207.932 1722.81,-214.85"/>
</g>
<!-- Node31 -->
<g id="node31" class="node"><title>Node31</title>
<polygon fill="none" stroke="#bfbfbf" points="1736.5,-124.5 1736.5,-143.5 1777.5,-143.5 1777.5,-124.5 1736.5,-124.5"/>
<text text-anchor="middle" x="1757" y="-131.5" font-family="Helvetica,sans-Serif" font-size="10.00">string</text>
</g>
<!-- Node8&#45;&gt;Node31 -->
<g id="edge50" class="edge"><title>Node8&#45;&gt;Node31</title>
<path fill="none" stroke="midnightblue" d="M1295.17,-250.446C1422.31,-238.969 1671.41,-216.064 1680,-212 1708.36,-198.589 1732.31,-170.205 1745.65,-151.898"/>
<polygon fill="midnightblue" stroke="midnightblue" points="1748.59,-153.799 1751.47,-143.603 1742.86,-149.778 1748.59,-153.799"/>
</g>
<!-- Node32 -->
<g id="node32" class="node"><title>Node32</title>
<polygon fill="none" stroke="#bfbfbf" points="884.5,-186.5 884.5,-205.5 995.5,-205.5 995.5,-186.5 884.5,-186.5"/>
<text text-anchor="middle" x="940" y="-193.5" font-family="Helvetica,sans-Serif" font-size="10.00">yarp/dev/PolyDriver.h</text>
</g>
<!-- Node8&#45;&gt;Node32 -->
<g id="edge42" class="edge"><title>Node8&#45;&gt;Node32</title>
<path fill="none" stroke="midnightblue" d="M1178.91,-248.458C1134.88,-239.647 1064.57,-225.348 1004,-212 998.145,-210.71 991.999,-209.318 985.926,-207.92"/>
<polygon fill="midnightblue" stroke="midnightblue" points="986.374,-204.43 975.842,-205.578 984.791,-211.249 986.374,-204.43"/>
</g>
<!-- Node33 -->
<g id="node33" class="node"><title>Node33</title>
<polygon fill="none" stroke="#bfbfbf" points="1013.5,-186.5 1013.5,-205.5 1146.5,-205.5 1146.5,-186.5 1013.5,-186.5"/>
<text text-anchor="middle" x="1080" y="-193.5" font-family="Helvetica,sans-Serif" font-size="10.00">yarp/dev/PreciselyTimed.h</text>
</g>
<!-- Node8&#45;&gt;Node33 -->
<g id="edge43" class="edge"><title>Node8&#45;&gt;Node33</title>
<path fill="none" stroke="midnightblue" d="M1201.65,-248.403C1177.61,-238.245 1137.4,-221.255 1109.84,-209.607"/>
<polygon fill="midnightblue" stroke="midnightblue" points="1110.88,-206.249 1100.31,-205.581 1108.16,-212.697 1110.88,-206.249"/>
</g>
<!-- Node34 -->
<g id="node34" class="node"><title>Node34</title>
<polygon fill="none" stroke="#bfbfbf" points="1164.5,-186.5 1164.5,-205.5 1279.5,-205.5 1279.5,-186.5 1164.5,-186.5"/>
<text text-anchor="middle" x="1222" y="-193.5" font-family="Helvetica,sans-Serif" font-size="10.00">yarp/os/BufferedPort.h</text>
</g>
<!-- Node8&#45;&gt;Node34 -->
<g id="edge44" class="edge"><title>Node8&#45;&gt;Node34</title>
<path fill="none" stroke="midnightblue" d="M1222,-248.403C1222,-239.938 1222,-226.728 1222,-215.82"/>
<polygon fill="midnightblue" stroke="midnightblue" points="1225.5,-215.581 1222,-205.581 1218.5,-215.581 1225.5,-215.581"/>
</g>
<!-- Node35 -->
<g id="node35" class="node"><title>Node35</title>
<polygon fill="none" stroke="#bfbfbf" points="1298,-186.5 1298,-205.5 1376,-205.5 1376,-186.5 1298,-186.5"/>
<text text-anchor="middle" x="1337" y="-193.5" font-family="Helvetica,sans-Serif" font-size="10.00">yarp/os/Port.h</text>
</g>
<!-- Node8&#45;&gt;Node35 -->
<g id="edge45" class="edge"><title>Node8&#45;&gt;Node35</title>
<path fill="none" stroke="midnightblue" d="M1238.48,-248.403C1257.61,-238.423 1289.37,-221.849 1311.65,-210.225"/>
<polygon fill="midnightblue" stroke="midnightblue" points="1313.31,-213.309 1320.55,-205.581 1310.07,-207.103 1313.31,-213.309"/>
</g>
<!-- Node36 -->
<g id="node36" class="node"><title>Node36</title>
<polygon fill="none" stroke="#bfbfbf" points="1394.5,-186.5 1394.5,-205.5 1453.5,-205.5 1453.5,-186.5 1394.5,-186.5"/>
<text text-anchor="middle" x="1424" y="-193.5" font-family="Helvetica,sans-Serif" font-size="10.00">Eigen/QR</text>
</g>
<!-- Node8&#45;&gt;Node36 -->
<g id="edge47" class="edge"><title>Node8&#45;&gt;Node36</title>
<path fill="none" stroke="midnightblue" d="M1256.64,-248.487C1289.84,-240.08 1341.22,-226.423 1385,-212 1387.62,-211.136 1390.33,-210.197 1393.03,-209.225"/>
<polygon fill="midnightblue" stroke="midnightblue" points="1394.53,-212.402 1402.68,-205.633 1392.09,-205.843 1394.53,-212.402"/>
</g>
<!-- Node37 -->
<g id="node37" class="node"><title>Node37</title>
<polygon fill="none" stroke="#bfbfbf" points="1472,-186.5 1472,-205.5 1524,-205.5 1524,-186.5 1472,-186.5"/>
<text text-anchor="middle" x="1498" y="-193.5" font-family="Helvetica,sans-Serif" font-size="10.00">memory</text>
</g>
<!-- Node8&#45;&gt;Node37 -->
<g id="edge48" class="edge"><title>Node8&#45;&gt;Node37</title>
<path fill="none" stroke="midnightblue" d="M1287.56,-248.496C1336.31,-241.264 1404.11,-229.278 1462,-212 1464.65,-211.21 1467.36,-210.291 1470.06,-209.305"/>
<polygon fill="midnightblue" stroke="midnightblue" points="1471.57,-212.471 1479.59,-205.543 1469,-205.961 1471.57,-212.471"/>
</g>
<!-- Node10 -->
<g id="node10" class="node"><title>Node10</title>
<polygon fill="none" stroke="#bfbfbf" points="404.5,-124.5 404.5,-143.5 509.5,-143.5 509.5,-124.5 404.5,-124.5"/>
<text text-anchor="middle" x="457" y="-131.5" font-family="Helvetica,sans-Serif" font-size="10.00">yarp/os/RFModule.h</text>
</g>
<!-- Node9&#45;&gt;Node10 -->
<g id="edge9" class="edge"><title>Node9&#45;&gt;Node10</title>
<path fill="none" stroke="midnightblue" d="M457,-186.403C457,-177.938 457,-164.728 457,-153.82"/>
<polygon fill="midnightblue" stroke="midnightblue" points="460.5,-153.581 457,-143.581 453.5,-153.581 460.5,-153.581"/>
</g>
<!-- Node12 -->
<g id="node12" class="node"><title>Node12</title>
<polygon fill="none" stroke="#bfbfbf" points="700,-0.5 700,-19.5 780,-19.5 780,-0.5 700,-0.5"/>
<text text-anchor="middle" x="740" y="-7.5" font-family="Helvetica,sans-Serif" font-size="10.00">yarp/os/Wire.h</text>
</g>
<!-- Node11&#45;&gt;Node12 -->
<g id="edge11" class="edge"><title>Node11&#45;&gt;Node12</title>
<path fill="none" stroke="midnightblue" d="M736.193,-186.125C736.809,-157.769 738.741,-68.9299 739.591,-29.8108"/>
<polygon fill="midnightblue" stroke="midnightblue" points="743.091,-29.8594 739.809,-19.7857 736.092,-29.7072 743.091,-29.8594"/>
</g>
<!-- Node13 -->
<g id="node13" class="node"><title>Node13</title>
<polygon fill="none" stroke="#bfbfbf" points="531,-0.5 531,-19.5 651,-19.5 651,-0.5 531,-0.5"/>
<text text-anchor="middle" x="591" y="-7.5" font-family="Helvetica,sans-Serif" font-size="10.00">yarp/os/idl/WireTypes.h</text>
</g>
<!-- Node11&#45;&gt;Node13 -->
<g id="edge12" class="edge"><title>Node11&#45;&gt;Node13</title>
<path fill="none" stroke="midnightblue" d="M702.137,-186.469C651.499,-173.554 561.466,-149.916 557,-144 530.54,-108.948 559.79,-55.4459 578.257,-28.2167"/>
<polygon fill="midnightblue" stroke="midnightblue" points="581.323,-29.9425 584.231,-19.7545 575.604,-25.9057 581.323,-29.9425"/>
</g>
<!-- Node14 -->
<g id="node14" class="node"><title>Node14</title>
<g id="a_node14"><a xlink:href="human-state-provider_2autogenerated_2include_2thrifts_2_quaternion_8h.html" target="_top" xlink:title="thrifts/Quaternion.h">
<polygon fill="none" stroke="black" points="566,-124.5 566,-143.5 666,-143.5 666,-124.5 566,-124.5"/>
<text text-anchor="middle" x="616" y="-131.5" font-family="Helvetica,sans-Serif" font-size="10.00">thrifts/Quaternion.h</text>
</a>
</g>
</g>
<!-- Node11&#45;&gt;Node14 -->
<g id="edge13" class="edge"><title>Node11&#45;&gt;Node14</title>
<path fill="none" stroke="midnightblue" d="M718.807,-186.403C698.757,-176.379 665.401,-159.701 642.14,-148.07"/>
<polygon fill="midnightblue" stroke="midnightblue" points="643.671,-144.922 633.161,-143.581 640.54,-151.183 643.671,-144.922"/>
</g>
<!-- Node15 -->
<g id="node15" class="node"><title>Node15</title>
<g id="a_node15"><a xlink:href="human-state-provider_2autogenerated_2include_2thrifts_2_vector3_8h.html" target="_top" xlink:title="thrifts/Vector3.h">
<polygon fill="none" stroke="black" points="642,-62.5 642,-81.5 728,-81.5 728,-62.5 642,-62.5"/>
<text text-anchor="middle" x="685" y="-69.5" font-family="Helvetica,sans-Serif" font-size="10.00">thrifts/Vector3.h</text>
</a>
</g>
</g>
<!-- Node11&#45;&gt;Node15 -->
<g id="edge19" class="edge"><title>Node11&#45;&gt;Node15</title>
<path fill="none" stroke="midnightblue" d="M732.332,-186.226C724.025,-166.354 703.634,-117.576 692.52,-90.9894"/>
<polygon fill="midnightblue" stroke="midnightblue" points="695.721,-89.5708 688.635,-81.6944 689.262,-92.2707 695.721,-89.5708"/>
</g>
<!-- Node11&#45;&gt;Node16 -->
<g id="edge20" class="edge"><title>Node11&#45;&gt;Node16</title>
<path fill="none" stroke="midnightblue" d="M746.459,-186.403C757.951,-176.958 776.63,-161.606 790.587,-150.134"/>
<polygon fill="midnightblue" stroke="midnightblue" points="793.057,-152.634 798.56,-143.581 788.612,-147.226 793.057,-152.634"/>
</g>
<!-- Node14&#45;&gt;Node12 -->
<g id="edge14" class="edge"><title>Node14&#45;&gt;Node12</title>
<path fill="none" stroke="midnightblue" d="M615.486,-124.269C615.047,-108.716 616.343,-75.9779 633,-56 647.417,-38.708 669.629,-27.9384 690.086,-21.2917"/>
<polygon fill="midnightblue" stroke="midnightblue" points="691.365,-24.5628 699.946,-18.3494 689.363,-17.8551 691.365,-24.5628"/>
</g>
<!-- Node14&#45;&gt;Node13 -->
<g id="edge15" class="edge"><title>Node14&#45;&gt;Node13</title>
<path fill="none" stroke="midnightblue" d="M612.208,-124.212C608.509,-115.268 603.011,-100.92 600,-88 595.427,-68.3814 593.125,-45.3827 592.002,-29.6624"/>
<polygon fill="midnightblue" stroke="midnightblue" points="595.493,-29.4165 591.376,-19.6544 588.507,-29.8532 595.493,-29.4165"/>
</g>
<!-- Node14&#45;&gt;Node15 -->
<g id="edge16" class="edge"><title>Node14&#45;&gt;Node15</title>
<path fill="none" stroke="midnightblue" d="M625.886,-124.403C636.646,-115.047 654.071,-99.8948 667.221,-88.4599"/>
<polygon fill="midnightblue" stroke="midnightblue" points="669.883,-90.7835 675.132,-81.5806 665.29,-85.5013 669.883,-90.7835"/>
</g>
<!-- Node15&#45;&gt;Node12 -->
<g id="edge17" class="edge"><title>Node15&#45;&gt;Node12</title>
<path fill="none" stroke="midnightblue" d="M692.88,-62.4035C701.294,-53.2252 714.819,-38.4699 725.226,-27.1173"/>
<polygon fill="midnightblue" stroke="midnightblue" points="727.957,-29.3172 732.134,-19.5806 722.797,-24.5871 727.957,-29.3172"/>
</g>
<!-- Node15&#45;&gt;Node13 -->
<g id="edge18" class="edge"><title>Node15&#45;&gt;Node13</title>
<path fill="none" stroke="midnightblue" d="M671.532,-62.4035C656.315,-52.6905 631.313,-36.7319 613.199,-25.1697"/>
<polygon fill="midnightblue" stroke="midnightblue" points="614.755,-22.0108 604.443,-19.5806 610.989,-27.9112 614.755,-22.0108"/>
</g>
<!-- Node17&#45;&gt;Node12 -->
<g id="edge22" class="edge"><title>Node17&#45;&gt;Node12</title>
<path fill="none" stroke="midnightblue" d="M825.741,-56.9327C807.52,-47.1715 783.382,-34.2401 765.36,-24.5856"/>
<polygon fill="midnightblue" stroke="midnightblue" points="766.521,-21.2371 756.053,-19.6 763.215,-27.4075 766.521,-21.2371"/>
</g>
<!-- Node17&#45;&gt;Node13 -->
<g id="edge23" class="edge"><title>Node17&#45;&gt;Node13</title>
<path fill="none" stroke="midnightblue" d="M790.807,-56.9327C744.078,-46.1904 680.648,-31.6087 637.895,-21.7804"/>
<polygon fill="midnightblue" stroke="midnightblue" points="638.56,-18.3422 628.03,-19.5127 636.992,-25.1642 638.56,-18.3422"/>
</g>
<!-- Node24 -->
<g id="node24" class="node"><title>Node24</title>
<g id="a_node24"><a xlink:href="_inverse_kinematics_v2_i_p_o_p_t_8h.html" target="_top" xlink:title="InverseKinematicsV2IPOPT.h">
<polygon fill="none" stroke="black" points="1883,-124.5 1883,-143.5 2031,-143.5 2031,-124.5 1883,-124.5"/>
<text text-anchor="middle" x="1957" y="-131.5" font-family="Helvetica,sans-Serif" font-size="10.00">InverseKinematicsV2IPOPT.h</text>
</a>
</g>
</g>
<!-- Node23&#45;&gt;Node24 -->
<g id="edge30" class="edge"><title>Node23&#45;&gt;Node24</title>
<path fill="none" stroke="midnightblue" d="M1835.28,-180.933C1862.46,-170.674 1898.93,-156.915 1924.84,-147.137"/>
<polygon fill="midnightblue" stroke="midnightblue" points="1926.09,-150.405 1934.21,-143.6 1923.62,-143.856 1926.09,-150.405"/>
</g>
<!-- Node23&#45;&gt;Node31 -->
<g id="edge41" class="edge"><title>Node23&#45;&gt;Node31</title>
<path fill="none" stroke="midnightblue" d="M1788.28,-180.781C1782.39,-172.152 1774.83,-161.088 1768.62,-151.999"/>
<polygon fill="midnightblue" stroke="midnightblue" points="1771.5,-150.012 1762.97,-143.731 1765.72,-153.962 1771.5,-150.012"/>
</g>
<!-- Node24&#45;&gt;Node18 -->
<g id="edge34" class="edge"><title>Node24&#45;&gt;Node18</title>
<path fill="none" stroke="midnightblue" d="M1910.21,-124.467C1850.77,-113.626 1748.26,-94.9318 1684.51,-83.3062"/>
<polygon fill="midnightblue" stroke="midnightblue" points="1685.09,-79.8544 1674.63,-81.5034 1683.84,-86.7408 1685.09,-79.8544"/>
</g>
<!-- Node24&#45;&gt;Node19 -->
<g id="edge33" class="edge"><title>Node24&#45;&gt;Node19</title>
<path fill="none" stroke="midnightblue" d="M1934.94,-124.403C1908.63,-114.156 1864.49,-96.9561 1834.58,-85.3021"/>
<polygon fill="midnightblue" stroke="midnightblue" points="1835.61,-81.9497 1825.02,-81.5806 1833.07,-88.4722 1835.61,-81.9497"/>
</g>
<!-- Node24&#45;&gt;Node20 -->
<g id="edge35" class="edge"><title>Node24&#45;&gt;Node20</title>
<path fill="none" stroke="midnightblue" d="M1882.78,-128.453C1746.35,-119.918 1460.64,-101.171 1362,-88 1352.77,-86.7669 1342.97,-85.14 1333.56,-83.4129"/>
<polygon fill="midnightblue" stroke="midnightblue" points="1334.01,-79.937 1323.54,-81.5134 1332.71,-86.8145 1334.01,-79.937"/>
</g>
<!-- Node24&#45;&gt;Node22 -->
<g id="edge38" class="edge"><title>Node24&#45;&gt;Node22</title>
<path fill="none" stroke="midnightblue" d="M1882.82,-126.272C1799.5,-118.413 1660.29,-104.379 1541,-88 1530.65,-86.5794 1519.67,-84.8956 1509.06,-83.1784"/>
<polygon fill="midnightblue" stroke="midnightblue" points="1509.47,-79.699 1499.03,-81.5293 1508.33,-86.6062 1509.47,-79.699"/>
</g>
<!-- Node25 -->
<g id="node25" class="node"><title>Node25</title>
<polygon fill="none" stroke="#bfbfbf" points="2114.5,-62.5 2114.5,-81.5 2183.5,-81.5 2183.5,-62.5 2114.5,-62.5"/>
<text text-anchor="middle" x="2149" y="-69.5" font-family="Helvetica,sans-Serif" font-size="10.00">IpTNLP.hpp</text>
</g>
<!-- Node24&#45;&gt;Node25 -->
<g id="edge31" class="edge"><title>Node24&#45;&gt;Node25</title>
<path fill="none" stroke="midnightblue" d="M1986.02,-124.489C2015.92,-115.645 2063.85,-101.267 2105,-88 2108.15,-86.9847 2111.42,-85.9099 2114.69,-84.8206"/>
<polygon fill="midnightblue" stroke="midnightblue" points="2116.02,-88.0647 2124.38,-81.5547 2113.79,-81.4312 2116.02,-88.0647"/>
</g>
<!-- Node26 -->
<g id="node26" class="node"><title>Node26</title>
<polygon fill="none" stroke="#bfbfbf" points="2201.5,-62.5 2201.5,-81.5 2354.5,-81.5 2354.5,-62.5 2201.5,-62.5"/>
<text text-anchor="middle" x="2278" y="-69.5" font-family="Helvetica,sans-Serif" font-size="10.00">iDynTree/Core/VectorFixSize.h</text>
</g>
<!-- Node24&#45;&gt;Node26 -->
<g id="edge32" class="edge"><title>Node24&#45;&gt;Node26</title>
<path fill="none" stroke="midnightblue" d="M2002.65,-124.467C2060.53,-113.649 2160.25,-95.0087 2222.48,-83.3781"/>
<polygon fill="midnightblue" stroke="midnightblue" points="2223.32,-86.7812 2232.51,-81.5034 2222.03,-79.9004 2223.32,-86.7812"/>
</g>
<!-- Node27 -->
<g id="node27" class="node"><title>Node27</title>
<polygon fill="none" stroke="#bfbfbf" points="2372.5,-62.5 2372.5,-81.5 2495.5,-81.5 2495.5,-62.5 2372.5,-62.5"/>
<text text-anchor="middle" x="2434" y="-69.5" font-family="Helvetica,sans-Serif" font-size="10.00">iDynTree/Model/Model.h</text>
</g>
<!-- Node24&#45;&gt;Node27 -->
<g id="edge36" class="edge"><title>Node24&#45;&gt;Node27</title>
<path fill="none" stroke="midnightblue" d="M2031.01,-126.988C2112.61,-119.849 2247.64,-106.533 2363,-88 2370.78,-86.7494 2379.01,-85.2139 2386.98,-83.6076"/>
<polygon fill="midnightblue" stroke="midnightblue" points="2387.83,-87.007 2396.91,-81.551 2386.41,-80.1525 2387.83,-87.007"/>
</g>
<!-- Node28 -->
<g id="node28" class="node"><title>Node28</title>
<polygon fill="none" stroke="#bfbfbf" points="2513.5,-62.5 2513.5,-81.5 2676.5,-81.5 2676.5,-62.5 2513.5,-62.5"/>
<text text-anchor="middle" x="2595" y="-69.5" font-family="Helvetica,sans-Serif" font-size="10.00">iDynTree/ModelIO/ModelLoader.h</text>
</g>
<!-- Node24&#45;&gt;Node28 -->
<g id="edge37" class="edge"><title>Node24&#45;&gt;Node28</title>
<path fill="none" stroke="midnightblue" d="M2031.07,-128.822C2136.41,-122.446 2335.43,-108.792 2504,-88 2514.95,-86.6494 2526.6,-84.9391 2537.78,-83.1606"/>
<polygon fill="midnightblue" stroke="midnightblue" points="2538.57,-86.5779 2547.87,-81.5165 2537.44,-79.6689 2538.57,-86.5779"/>
</g>
<!-- Node29 -->
<g id="node29" class="node"><title>Node29</title>
<polygon fill="none" stroke="#bfbfbf" points="1900.5,-62.5 1900.5,-81.5 2013.5,-81.5 2013.5,-62.5 1900.5,-62.5"/>
<text text-anchor="middle" x="1957" y="-69.5" font-family="Helvetica,sans-Serif" font-size="10.00">IpIpoptApplication.hpp</text>
</g>
<!-- Node24&#45;&gt;Node29 -->
<g id="edge39" class="edge"><title>Node24&#45;&gt;Node29</title>
<path fill="none" stroke="midnightblue" d="M1957,-124.403C1957,-115.938 1957,-102.728 1957,-91.8199"/>
<polygon fill="midnightblue" stroke="midnightblue" points="1960.5,-91.5806 1957,-81.5806 1953.5,-91.5806 1960.5,-91.5806"/>
</g>
<!-- Node30 -->
<g id="node30" class="node"><title>Node30</title>
<polygon fill="none" stroke="#bfbfbf" points="2031.5,-62.5 2031.5,-81.5 2096.5,-81.5 2096.5,-62.5 2031.5,-62.5"/>
<text text-anchor="middle" x="2064" y="-69.5" font-family="Helvetica,sans-Serif" font-size="10.00">Eigen/Core</text>
</g>
<!-- Node24&#45;&gt;Node30 -->
<g id="edge40" class="edge"><title>Node24&#45;&gt;Node30</title>
<path fill="none" stroke="midnightblue" d="M1972.33,-124.403C1989.97,-114.512 2019.16,-98.1442 2039.86,-86.5378"/>
<polygon fill="midnightblue" stroke="midnightblue" points="2041.69,-89.5244 2048.7,-81.5806 2038.26,-83.4188 2041.69,-89.5244"/>
</g>
</g>
</svg>
