<?xml version="1.0" encoding="UTF-8" standalone="no"?>
<!DOCTYPE svg PUBLIC "-//W3C//DTD SVG 1.1//EN"
 "http://www.w3.org/Graphics/SVG/1.1/DTD/svg11.dtd">
<!-- Generated by graphviz version 2.36.0 (20140111.2315)
 -->
<!-- Title: /home/travis/build/robotology&#45;playground/human&#45;dynamics&#45;estimation/build/human&#45;state&#45;provider/_yarp_idl_/thrifts/humanstateproviderservice/HumanStateProviderService_index.h Pages: 1 -->
<svg width="232pt" height="196pt"
 viewBox="0.00 0.00 232.00 196.00" xmlns="http://www.w3.org/2000/svg" xmlns:xlink="http://www.w3.org/1999/xlink">
<g id="graph0" class="graph" transform="scale(1 1) rotate(0) translate(4 192)">
<title>/home/travis/build/robotology&#45;playground/human&#45;dynamics&#45;estimation/build/human&#45;state&#45;provider/_yarp_idl_/thrifts/humanstateproviderservice/HumanStateProviderService_index.h</title>
<!-- Node1 -->
<g id="node1" class="node"><title>Node1</title>
<polygon fill="#bfbfbf" stroke="black" points="-1,-113 -1,-187 211,-187 211,-113 -1,-113"/>
<text text-anchor="start" x="7" y="-175" font-family="Helvetica,sans-Serif" font-size="10.00">/home/travis/build</text>
<text text-anchor="start" x="7" y="-164" font-family="Helvetica,sans-Serif" font-size="10.00">/robotology&#45;playground</text>
<text text-anchor="start" x="7" y="-153" font-family="Helvetica,sans-Serif" font-size="10.00">/human&#45;dynamics&#45;estimation</text>
<text text-anchor="start" x="7" y="-142" font-family="Helvetica,sans-Serif" font-size="10.00">/build/human&#45;state&#45;provider</text>
<text text-anchor="start" x="7" y="-131" font-family="Helvetica,sans-Serif" font-size="10.00">/_yarp_idl_/thrifts/humanstateproviderservice</text>
<text text-anchor="middle" x="105" y="-120" font-family="Helvetica,sans-Serif" font-size="10.00">/HumanStateProviderService_index.h</text>
</g>
<!-- Node2 -->
<g id="node2" class="node"><title>Node2</title>
<g id="a_node2"><a xlink:href="__yarp__idl___2thrifts_2humanstateproviderservice_2_human_state_provider_service_8h.html" target="_top" xlink:title="HumanStateProviderService.h">
<polygon fill="none" stroke="black" points="30.5,-56.5 30.5,-75.5 179.5,-75.5 179.5,-56.5 30.5,-56.5"/>
<text text-anchor="middle" x="105" y="-63.5" font-family="Helvetica,sans-Serif" font-size="10.00">HumanStateProviderService.h</text>
</a>
</g>
</g>
<!-- Node1&#45;&gt;Node2 -->
<g id="edge1" class="edge"><title>Node1&#45;&gt;Node2</title>
<path fill="none" stroke="midnightblue" d="M105,-112.795C105,-103.463 105,-93.7959 105,-85.7618"/>
<polygon fill="midnightblue" stroke="midnightblue" points="108.5,-85.6978 105,-75.6978 101.5,-85.6978 108.5,-85.6978"/>
</g>
<!-- Node3 -->
<g id="node3" class="node"><title>Node3</title>
<polygon fill="none" stroke="#bfbfbf" points="6,-0.5 6,-19.5 86,-19.5 86,-0.5 6,-0.5"/>
<text text-anchor="middle" x="46" y="-7.5" font-family="Helvetica,sans-Serif" font-size="10.00">yarp/os/Wire.h</text>
</g>
<!-- Node2&#45;&gt;Node3 -->
<g id="edge2" class="edge"><title>Node2&#45;&gt;Node3</title>
<path fill="none" stroke="midnightblue" d="M95.5206,-56.324C86.7989,-48.3414 73.6565,-36.3128 63.1022,-26.6529"/>
<polygon fill="midnightblue" stroke="midnightblue" points="65.3917,-24.0036 55.6519,-19.8339 60.6655,-29.1674 65.3917,-24.0036"/>
</g>
<!-- Node4 -->
<g id="node4" class="node"><title>Node4</title>
<polygon fill="none" stroke="#bfbfbf" points="104,-0.5 104,-19.5 224,-19.5 224,-0.5 104,-0.5"/>
<text text-anchor="middle" x="164" y="-7.5" font-family="Helvetica,sans-Serif" font-size="10.00">yarp/os/idl/WireTypes.h</text>
</g>
<!-- Node2&#45;&gt;Node4 -->
<g id="edge3" class="edge"><title>Node2&#45;&gt;Node4</title>
<path fill="none" stroke="midnightblue" d="M114.479,-56.324C123.201,-48.3414 136.343,-36.3128 146.898,-26.6529"/>
<polygon fill="midnightblue" stroke="midnightblue" points="149.334,-29.1674 154.348,-19.8339 144.608,-24.0036 149.334,-29.1674"/>
</g>
</g>
</svg>
