<?xml version="1.0" encoding="UTF-8" standalone="no"?>
<!DOCTYPE svg PUBLIC "-//W3C//DTD SVG 1.1//EN"
 "http://www.w3.org/Graphics/SVG/1.1/DTD/svg11.dtd">
<!-- Generated by graphviz version 2.36.0 (20140111.2315)
 -->
<!-- Title: /home/travis/build/robotology&#45;playground/human&#45;dynamics&#45;estimation/human&#45;state&#45;provider/src/HumanStateProvider.cpp Pages: 1 -->
<svg width="3345pt" height="376pt"
 viewBox="0.00 0.00 3345.00 376.00" xmlns="http://www.w3.org/2000/svg" xmlns:xlink="http://www.w3.org/1999/xlink">
<g id="graph0" class="graph" transform="scale(1 1) rotate(0) translate(4 372)">
<title>/home/travis/build/robotology&#45;playground/human&#45;dynamics&#45;estimation/human&#45;state&#45;provider/src/HumanStateProvider.cpp</title>
<!-- Node1 -->
<g id="node1" class="node"><title>Node1</title>
<polygon fill="#bfbfbf" stroke="black" points="1912,-304.5 1912,-367.5 2054,-367.5 2054,-304.5 1912,-304.5"/>
<text text-anchor="start" x="1920" y="-355.5" font-family="Helvetica,sans-Serif" font-size="10.00">/home/travis/build</text>
<text text-anchor="start" x="1920" y="-344.5" font-family="Helvetica,sans-Serif" font-size="10.00">/robotology&#45;playground</text>
<text text-anchor="start" x="1920" y="-333.5" font-family="Helvetica,sans-Serif" font-size="10.00">/human&#45;dynamics&#45;estimation</text>
<text text-anchor="start" x="1920" y="-322.5" font-family="Helvetica,sans-Serif" font-size="10.00">/human&#45;state&#45;provider/src</text>
<text text-anchor="middle" x="1983" y="-311.5" font-family="Helvetica,sans-Serif" font-size="10.00">/HumanStateProvider.cpp</text>
</g>
<!-- Node2 -->
<g id="node2" class="node"><title>Node2</title>
<g id="a_node2"><a xlink:href="_human_state_provider_8h.html" target="_top" xlink:title="HumanStateProvider.h">
<polygon fill="none" stroke="black" points="221,-186.5 221,-205.5 337,-205.5 337,-186.5 221,-186.5"/>
<text text-anchor="middle" x="279" y="-193.5" font-family="Helvetica,sans-Serif" font-size="10.00">HumanStateProvider.h</text>
</a>
</g>
</g>
<!-- Node1&#45;&gt;Node2 -->
<g id="edge1" class="edge"><title>Node1&#45;&gt;Node2</title>
<path fill="none" stroke="midnightblue" d="M1911.92,-335.086C1616.63,-335.038 495.356,-330.693 351,-268 324.914,-256.671 303.011,-231.248 290.442,-214.106"/>
<polygon fill="midnightblue" stroke="midnightblue" points="293.064,-211.749 284.453,-205.576 287.335,-215.771 293.064,-211.749"/>
</g>
<!-- Node4 -->
<g id="node4" class="node"><title>Node4</title>
<g id="a_node4"><a xlink:href="_human_state_provider_private_8h.html" target="_top" xlink:title="HumanStateProviderPrivate.h">
<polygon fill="none" stroke="black" points="1203,-248.5 1203,-267.5 1349,-267.5 1349,-248.5 1203,-248.5"/>
<text text-anchor="middle" x="1276" y="-255.5" font-family="Helvetica,sans-Serif" font-size="10.00">HumanStateProviderPrivate.h</text>
</a>
</g>
</g>
<!-- Node1&#45;&gt;Node4 -->
<g id="edge3" class="edge"><title>Node1&#45;&gt;Node4</title>
<path fill="none" stroke="midnightblue" d="M1911.97,-327.365C1780.45,-313.227 1499.64,-283.041 1359.36,-267.96"/>
<polygon fill="midnightblue" stroke="midnightblue" points="1359.41,-264.446 1349.09,-266.857 1358.66,-271.406 1359.41,-264.446"/>
</g>
<!-- Node5 -->
<g id="node5" class="node"><title>Node5</title>
<g id="a_node5"><a xlink:href="autogenerated_2include_2thrifts_2_human_state_8h.html" target="_top" xlink:title="thrifts/HumanState.h">
<polygon fill="none" stroke="black" points="431.5,-186.5 431.5,-205.5 538.5,-205.5 538.5,-186.5 431.5,-186.5"/>
<text text-anchor="middle" x="485" y="-193.5" font-family="Helvetica,sans-Serif" font-size="10.00">thrifts/HumanState.h</text>
</a>
</g>
</g>
<!-- Node1&#45;&gt;Node5 -->
<g id="edge53" class="edge"><title>Node1&#45;&gt;Node5</title>
<path fill="none" stroke="midnightblue" d="M1911.56,-334.569C1640.38,-332.534 683.709,-321.59 559,-268 532.5,-256.612 509.906,-231.205 496.886,-214.082"/>
<polygon fill="midnightblue" stroke="midnightblue" points="499.394,-211.581 490.674,-205.563 493.738,-215.705 499.394,-211.581"/>
</g>
<!-- Node10 -->
<g id="node10" class="node"><title>Node10</title>
<polygon fill="none" stroke="#bfbfbf" points="601.5,-118.5 601.5,-137.5 692.5,-137.5 692.5,-118.5 601.5,-118.5"/>
<text text-anchor="middle" x="647" y="-125.5" font-family="Helvetica,sans-Serif" font-size="10.00">yarp/sig/Vector.h</text>
</g>
<!-- Node1&#45;&gt;Node10 -->
<g id="edge69" class="edge"><title>Node1&#45;&gt;Node10</title>
<path fill="none" stroke="midnightblue" d="M1911.82,-335.584C1657.84,-337.084 806.014,-336.891 707,-268 666.824,-240.047 653.349,-179.215 648.989,-148.126"/>
<polygon fill="midnightblue" stroke="midnightblue" points="652.414,-147.299 647.727,-137.798 645.465,-148.148 652.414,-147.299"/>
</g>
<!-- Node11 -->
<g id="node11" class="node"><title>Node11</title>
<g id="a_node11"><a xlink:href="autogenerated_2include_2thrifts_2_human_state_provider_service_8h.html" target="_top" xlink:title="thrifts/HumanStateProvider\lService.h">
<polygon fill="none" stroke="black" points="122.5,-113 122.5,-143 257.5,-143 257.5,-113 122.5,-113"/>
<text text-anchor="start" x="130.5" y="-131" font-family="Helvetica,sans-Serif" font-size="10.00">thrifts/HumanStateProvider</text>
<text text-anchor="middle" x="190" y="-120" font-family="Helvetica,sans-Serif" font-size="10.00">Service.h</text>
</a>
</g>
</g>
<!-- Node1&#45;&gt;Node11 -->
<g id="edge54" class="edge"><title>Node1&#45;&gt;Node11</title>
<path fill="none" stroke="midnightblue" d="M1911.85,-334.733C1657.57,-333.314 794.578,-324.357 525,-268 456.972,-253.778 437.858,-248.957 379,-212 361.426,-200.965 362.836,-190.606 345,-180 319.844,-165.041 289.749,-153.85 262.797,-145.821"/>
<polygon fill="midnightblue" stroke="midnightblue" points="263.603,-142.411 253.025,-143.006 261.665,-149.138 263.603,-142.411"/>
</g>
<!-- Node13 -->
<g id="node13" class="node"><title>Node13</title>
<polygon fill="none" stroke="#bfbfbf" points="1517,-56.5 1517,-75.5 1675,-75.5 1675,-56.5 1517,-56.5"/>
<text text-anchor="middle" x="1596" y="-63.5" font-family="Helvetica,sans-Serif" font-size="10.00">iDynTree/Core/VectorDynSize.h</text>
</g>
<!-- Node1&#45;&gt;Node13 -->
<g id="edge58" class="edge"><title>Node1&#45;&gt;Node13</title>
<path fill="none" stroke="midnightblue" d="M1976.95,-304.25C1968.58,-269.526 1950.21,-213.512 1914,-180 1847.81,-118.742 1746.24,-90.2969 1675.78,-77.3519"/>
<polygon fill="midnightblue" stroke="midnightblue" points="1676.07,-73.8496 1665.62,-75.5524 1674.85,-80.7424 1676.07,-73.8496"/>
</g>
<!-- Node14 -->
<g id="node14" class="node"><title>Node14</title>
<polygon fill="none" stroke="#bfbfbf" points="1693,-56.5 1693,-75.5 1829,-75.5 1829,-56.5 1693,-56.5"/>
<text text-anchor="middle" x="1761" y="-63.5" font-family="Helvetica,sans-Serif" font-size="10.00">iDynTree/Core/Transform.h</text>
</g>
<!-- Node1&#45;&gt;Node14 -->
<g id="edge56" class="edge"><title>Node1&#45;&gt;Node14</title>
<path fill="none" stroke="midnightblue" d="M1985.72,-304.197C1987.08,-270.701 1984.48,-217.009 1959,-180 1921.47,-125.482 1848.48,-93.9707 1802.37,-78.6728"/>
<polygon fill="midnightblue" stroke="midnightblue" points="1803.27,-75.2861 1792.68,-75.5645 1801.14,-81.9516 1803.27,-75.2861"/>
</g>
<!-- Node16 -->
<g id="node16" class="node"><title>Node16</title>
<polygon fill="none" stroke="#bfbfbf" points="681.5,-56.5 681.5,-75.5 842.5,-75.5 842.5,-56.5 681.5,-56.5"/>
<text text-anchor="middle" x="762" y="-63.5" font-family="Helvetica,sans-Serif" font-size="10.00">iDynTree/KinDynComputations.h</text>
</g>
<!-- Node1&#45;&gt;Node16 -->
<g id="edge60" class="edge"><title>Node1&#45;&gt;Node16</title>
<path fill="none" stroke="midnightblue" d="M1911.76,-333.221C1661.76,-326.263 835.196,-296.954 756,-212 723.727,-177.38 742.048,-115.492 754.09,-84.9955"/>
<polygon fill="midnightblue" stroke="midnightblue" points="757.383,-86.1911 757.994,-75.6139 750.92,-83.5016 757.383,-86.1911"/>
</g>
<!-- Node17 -->
<g id="node17" class="node"><title>Node17</title>
<g id="a_node17"><a xlink:href="_inverse_kinematics_8h.html" target="_top" xlink:title="inversekinematics/Inverse\lKinematics.h">
<polygon fill="none" stroke="black" points="787.5,-181 787.5,-211 918.5,-211 918.5,-181 787.5,-181"/>
<text text-anchor="start" x="795.5" y="-199" font-family="Helvetica,sans-Serif" font-size="10.00">inversekinematics/Inverse</text>
<text text-anchor="middle" x="853" y="-188" font-family="Helvetica,sans-Serif" font-size="10.00">Kinematics.h</text>
</a>
</g>
</g>
<!-- Node1&#45;&gt;Node17 -->
<g id="edge55" class="edge"><title>Node1&#45;&gt;Node17</title>
<path fill="none" stroke="midnightblue" d="M1911.95,-331.842C1773.3,-325.046 1457.22,-306.435 1194,-268 1097.9,-253.968 988.171,-229.598 919.734,-213.385"/>
<polygon fill="midnightblue" stroke="midnightblue" points="920.482,-209.965 909.943,-211.054 918.861,-216.775 920.482,-209.965"/>
</g>
<!-- Node20 -->
<g id="node20" class="node"><title>Node20</title>
<polygon fill="none" stroke="#bfbfbf" points="510.5,-56.5 510.5,-75.5 663.5,-75.5 663.5,-56.5 510.5,-56.5"/>
<text text-anchor="middle" x="587" y="-63.5" font-family="Helvetica,sans-Serif" font-size="10.00">iDynTree/Core/VectorFixSize.h</text>
</g>
<!-- Node1&#45;&gt;Node20 -->
<g id="edge57" class="edge"><title>Node1&#45;&gt;Node20</title>
<path fill="none" stroke="midnightblue" d="M1911.86,-334.871C1655.9,-333.925 791.282,-326.397 683,-268 622.833,-235.552 615.374,-208.239 592,-144 585.144,-125.158 584.596,-102.028 585.323,-86.0644"/>
<polygon fill="midnightblue" stroke="midnightblue" points="588.83,-86.0825 586.006,-75.8709 581.845,-85.6145 588.83,-86.0825"/>
</g>
<!-- Node21 -->
<g id="node21" class="node"><title>Node21</title>
<polygon fill="none" stroke="#bfbfbf" points="1903.5,-56.5 1903.5,-75.5 2026.5,-75.5 2026.5,-56.5 1903.5,-56.5"/>
<text text-anchor="middle" x="1965" y="-63.5" font-family="Helvetica,sans-Serif" font-size="10.00">iDynTree/Model/Model.h</text>
</g>
<!-- Node1&#45;&gt;Node21 -->
<g id="edge59" class="edge"><title>Node1&#45;&gt;Node21</title>
<path fill="none" stroke="midnightblue" d="M1991.86,-304.198C2002.95,-260.356 2018.06,-177.962 1997,-112 1993.66,-101.538 1986.9,-91.4277 1980.45,-83.4496"/>
<polygon fill="midnightblue" stroke="midnightblue" points="1982.94,-80.9815 1973.75,-75.7136 1977.65,-85.5641 1982.94,-80.9815"/>
</g>
<!-- Node25 -->
<g id="node25" class="node"><title>Node25</title>
<polygon fill="none" stroke="#bfbfbf" points="1271.5,-118.5 1271.5,-137.5 1312.5,-137.5 1312.5,-118.5 1271.5,-118.5"/>
<text text-anchor="middle" x="1292" y="-125.5" font-family="Helvetica,sans-Serif" font-size="10.00">string</text>
</g>
<!-- Node1&#45;&gt;Node25 -->
<g id="edge73" class="edge"><title>Node1&#45;&gt;Node25</title>
<path fill="none" stroke="midnightblue" d="M1957.08,-304.23C1948.3,-293.151 1938.77,-280.336 1931,-268 1907.7,-230.994 1923.18,-204.558 1887,-180 1840.05,-148.13 1438.22,-133.47 1322.85,-129.893"/>
<polygon fill="midnightblue" stroke="midnightblue" points="1322.7,-126.387 1312.6,-129.582 1322.49,-133.384 1322.7,-126.387"/>
</g>
<!-- Node26 -->
<g id="node26" class="node"><title>Node26</title>
<polygon fill="none" stroke="#bfbfbf" points="1557.5,-186.5 1557.5,-205.5 1668.5,-205.5 1668.5,-186.5 1557.5,-186.5"/>
<text text-anchor="middle" x="1613" y="-193.5" font-family="Helvetica,sans-Serif" font-size="10.00">yarp/dev/PolyDriver.h</text>
</g>
<!-- Node1&#45;&gt;Node26 -->
<g id="edge66" class="edge"><title>Node1&#45;&gt;Node26</title>
<path fill="none" stroke="midnightblue" d="M1911.66,-308.392C1831.46,-278.48 1704.74,-231.215 1645.51,-209.127"/>
<polygon fill="midnightblue" stroke="midnightblue" points="1646.53,-205.77 1635.94,-205.554 1644.08,-212.328 1646.53,-205.77"/>
</g>
<!-- Node28 -->
<g id="node28" class="node"><title>Node28</title>
<polygon fill="none" stroke="#bfbfbf" points="1686.5,-186.5 1686.5,-205.5 1801.5,-205.5 1801.5,-186.5 1686.5,-186.5"/>
<text text-anchor="middle" x="1744" y="-193.5" font-family="Helvetica,sans-Serif" font-size="10.00">yarp/os/BufferedPort.h</text>
</g>
<!-- Node1&#45;&gt;Node28 -->
<g id="edge62" class="edge"><title>Node1&#45;&gt;Node28</title>
<path fill="none" stroke="midnightblue" d="M1929.96,-304.373C1879.25,-275.092 1805.12,-232.293 1767.62,-210.636"/>
<polygon fill="midnightblue" stroke="midnightblue" points="1769.32,-207.576 1758.91,-205.606 1765.82,-213.638 1769.32,-207.576"/>
</g>
<!-- Node30 -->
<g id="node30" class="node"><title>Node30</title>
<polygon fill="none" stroke="#bfbfbf" points="1819.5,-186.5 1819.5,-205.5 1878.5,-205.5 1878.5,-186.5 1819.5,-186.5"/>
<text text-anchor="middle" x="1849" y="-193.5" font-family="Helvetica,sans-Serif" font-size="10.00">Eigen/QR</text>
</g>
<!-- Node1&#45;&gt;Node30 -->
<g id="edge70" class="edge"><title>Node1&#45;&gt;Node30</title>
<path fill="none" stroke="midnightblue" d="M1934.91,-304.331C1920.48,-293.834 1905.25,-281.343 1893,-268 1878.18,-251.858 1865.52,-230.031 1857.64,-214.857"/>
<polygon fill="midnightblue" stroke="midnightblue" points="1860.59,-212.935 1852.98,-205.566 1854.33,-216.074 1860.59,-212.935"/>
</g>
<!-- Node33 -->
<g id="node33" class="node"><title>Node33</title>
<polygon fill="none" stroke="#bfbfbf" points="2111,-186.5 2111,-205.5 2155,-205.5 2155,-186.5 2111,-186.5"/>
<text text-anchor="middle" x="2133" y="-193.5" font-family="Helvetica,sans-Serif" font-size="10.00">vector</text>
</g>
<!-- Node1&#45;&gt;Node33 -->
<g id="edge74" class="edge"><title>Node1&#45;&gt;Node33</title>
<path fill="none" stroke="midnightblue" d="M2016.29,-304.373C2047.17,-275.961 2091.89,-234.82 2116.02,-212.618"/>
<polygon fill="midnightblue" stroke="midnightblue" points="2118.66,-214.953 2123.65,-205.606 2113.92,-209.801 2118.66,-214.953"/>
</g>
<!-- Node34 -->
<g id="node34" class="node"><title>Node34</title>
<g id="a_node34"><a xlink:href="_human_i_k_worker_pool_8h.html" target="_top" xlink:title="HumanIKWorkerPool.h">
<polygon fill="none" stroke="black" points="2087.5,-248.5 2087.5,-267.5 2204.5,-267.5 2204.5,-248.5 2087.5,-248.5"/>
<text text-anchor="middle" x="2146" y="-255.5" font-family="Helvetica,sans-Serif" font-size="10.00">HumanIKWorkerPool.h</text>
</a>
</g>
</g>
<!-- Node1&#45;&gt;Node34 -->
<g id="edge47" class="edge"><title>Node1&#45;&gt;Node34</title>
<path fill="none" stroke="midnightblue" d="M2048.83,-304.307C2073.06,-293.011 2099.2,-280.819 2118.27,-271.931"/>
<polygon fill="midnightblue" stroke="midnightblue" points="2119.96,-275.005 2127.54,-267.607 2117,-268.66 2119.96,-275.005"/>
</g>
<!-- Node38 -->
<g id="node38" class="node"><title>Node38</title>
<polygon fill="none" stroke="#bfbfbf" points="2223,-248.5 2223,-267.5 2373,-267.5 2373,-248.5 2223,-248.5"/>
<text text-anchor="middle" x="2298" y="-255.5" font-family="Helvetica,sans-Serif" font-size="10.00">iDynTree/Core/EigenHelpers.h</text>
</g>
<!-- Node1&#45;&gt;Node38 -->
<g id="edge61" class="edge"><title>Node1&#45;&gt;Node38</title>
<path fill="none" stroke="midnightblue" d="M2054.08,-317.849C2114.99,-303.156 2200.86,-282.438 2252.79,-269.908"/>
<polygon fill="midnightblue" stroke="midnightblue" points="2253.81,-273.263 2262.71,-267.516 2252.16,-266.459 2253.81,-273.263"/>
</g>
<!-- Node39 -->
<g id="node39" class="node"><title>Node39</title>
<polygon fill="none" stroke="#bfbfbf" points="2390.5,-248.5 2390.5,-267.5 2497.5,-267.5 2497.5,-248.5 2390.5,-248.5"/>
<text text-anchor="middle" x="2444" y="-255.5" font-family="Helvetica,sans-Serif" font-size="10.00">yarp/os/LogStream.h</text>
</g>
<!-- Node1&#45;&gt;Node39 -->
<g id="edge63" class="edge"><title>Node1&#45;&gt;Node39</title>
<path fill="none" stroke="midnightblue" d="M2054.02,-323.292C2143.82,-308.487 2296.96,-283.241 2382.17,-269.194"/>
<polygon fill="midnightblue" stroke="midnightblue" points="2382.91,-272.618 2392.21,-267.538 2381.78,-265.711 2382.91,-272.618"/>
</g>
<!-- Node40 -->
<g id="node40" class="node"><title>Node40</title>
<polygon fill="none" stroke="#bfbfbf" points="2515.5,-248.5 2515.5,-267.5 2644.5,-267.5 2644.5,-248.5 2515.5,-248.5"/>
<text text-anchor="middle" x="2580" y="-255.5" font-family="Helvetica,sans-Serif" font-size="10.00">yarp/os/ResourceFinder.h</text>
</g>
<!-- Node1&#45;&gt;Node40 -->
<g id="edge64" class="edge"><title>Node1&#45;&gt;Node40</title>
<path fill="none" stroke="midnightblue" d="M2054.12,-325.946C2167.72,-311.484 2389.08,-283.304 2505.05,-268.541"/>
<polygon fill="midnightblue" stroke="midnightblue" points="2505.78,-271.977 2515.26,-267.242 2504.89,-265.033 2505.78,-271.977"/>
</g>
<!-- Node41 -->
<g id="node41" class="node"><title>Node41</title>
<polygon fill="none" stroke="#bfbfbf" points="2662.5,-248.5 2662.5,-267.5 2747.5,-267.5 2747.5,-248.5 2662.5,-248.5"/>
<text text-anchor="middle" x="2705" y="-255.5" font-family="Helvetica,sans-Serif" font-size="10.00">yarp/os/Value.h</text>
</g>
<!-- Node1&#45;&gt;Node41 -->
<g id="edge65" class="edge"><title>Node1&#45;&gt;Node41</title>
<path fill="none" stroke="midnightblue" d="M2054.1,-329.576C2174.88,-319.991 2427.98,-298.301 2652.48,-267.975"/>
<polygon fill="midnightblue" stroke="midnightblue" points="2653.03,-271.431 2662.47,-266.616 2652.09,-264.495 2653.03,-271.431"/>
</g>
<!-- Node42 -->
<g id="node42" class="node"><title>Node42</title>
<polygon fill="none" stroke="#bfbfbf" points="2766,-248.5 2766,-267.5 2898,-267.5 2898,-248.5 2766,-248.5"/>
<text text-anchor="middle" x="2832" y="-255.5" font-family="Helvetica,sans-Serif" font-size="10.00">yarp/dev/IFrameProvider.h</text>
</g>
<!-- Node1&#45;&gt;Node42 -->
<g id="edge67" class="edge"><title>Node1&#45;&gt;Node42</title>
<path fill="none" stroke="midnightblue" d="M2054.21,-329.58C2188.82,-319.17 2490.1,-295.085 2755.48,-268.022"/>
<polygon fill="midnightblue" stroke="midnightblue" points="2756.1,-271.476 2765.69,-266.976 2755.39,-264.512 2756.1,-271.476"/>
</g>
<!-- Node43 -->
<g id="node43" class="node"><title>Node43</title>
<polygon fill="none" stroke="#bfbfbf" points="2916.5,-248.5 2916.5,-267.5 3073.5,-267.5 3073.5,-248.5 2916.5,-248.5"/>
<text text-anchor="middle" x="2995" y="-255.5" font-family="Helvetica,sans-Serif" font-size="10.00">yarp/dev/IXsensMVNInterface.h</text>
</g>
<!-- Node1&#45;&gt;Node43 -->
<g id="edge68" class="edge"><title>Node1&#45;&gt;Node43</title>
<path fill="none" stroke="midnightblue" d="M2054.06,-330.565C2207.48,-320.835 2581.38,-296.282 2906.25,-268.041"/>
<polygon fill="midnightblue" stroke="midnightblue" points="2906.67,-271.518 2916.33,-267.162 2906.06,-264.544 2906.67,-271.518"/>
</g>
<!-- Node44 -->
<g id="node44" class="node"><title>Node44</title>
<polygon fill="none" stroke="#bfbfbf" points="3092,-248.5 3092,-267.5 3148,-267.5 3148,-248.5 3092,-248.5"/>
<text text-anchor="middle" x="3120" y="-255.5" font-family="Helvetica,sans-Serif" font-size="10.00">algorithm</text>
</g>
<!-- Node1&#45;&gt;Node44 -->
<g id="edge71" class="edge"><title>Node1&#45;&gt;Node44</title>
<path fill="none" stroke="midnightblue" d="M2054.15,-334.878C2229.71,-333.663 2697.18,-324.87 3082,-268 3082.1,-267.985 3082.2,-267.97 3082.3,-267.955"/>
<polygon fill="midnightblue" stroke="midnightblue" points="3082.66,-271.447 3091.88,-266.227 3081.42,-264.558 3082.66,-271.447"/>
</g>
<!-- Node45 -->
<g id="node45" class="node"><title>Node45</title>
<polygon fill="none" stroke="#bfbfbf" points="3166.5,-248.5 3166.5,-267.5 3215.5,-267.5 3215.5,-248.5 3166.5,-248.5"/>
<text text-anchor="middle" x="3191" y="-255.5" font-family="Helvetica,sans-Serif" font-size="10.00">cassert</text>
</g>
<!-- Node1&#45;&gt;Node45 -->
<g id="edge72" class="edge"><title>Node1&#45;&gt;Node45</title>
<path fill="none" stroke="midnightblue" d="M2054.25,-335.734C2237.96,-336.592 2742.31,-332.374 3156,-268 3156.1,-267.984 3156.21,-267.967 3156.31,-267.951"/>
<polygon fill="midnightblue" stroke="midnightblue" points="3157.13,-271.357 3166.27,-265.995 3155.78,-264.489 3157.13,-271.357"/>
</g>
<!-- Node46 -->
<g id="node46" class="node"><title>Node46</title>
<polygon fill="none" stroke="#bfbfbf" points="3233.5,-248.5 3233.5,-267.5 3274.5,-267.5 3274.5,-248.5 3233.5,-248.5"/>
<text text-anchor="middle" x="3254" y="-255.5" font-family="Helvetica,sans-Serif" font-size="10.00">stack</text>
</g>
<!-- Node1&#45;&gt;Node46 -->
<g id="edge75" class="edge"><title>Node1&#45;&gt;Node46</title>
<path fill="none" stroke="midnightblue" d="M2054.28,-333.375C2279.88,-327.889 2977.27,-308.198 3223.52,-267.553"/>
<polygon fill="midnightblue" stroke="midnightblue" points="3224.23,-270.983 3233.5,-265.851 3223.05,-264.083 3224.23,-270.983"/>
</g>
<!-- Node47 -->
<g id="node47" class="node"><title>Node47</title>
<polygon fill="none" stroke="#bfbfbf" points="3293,-248.5 3293,-267.5 3337,-267.5 3337,-248.5 3293,-248.5"/>
<text text-anchor="middle" x="3315" y="-255.5" font-family="Helvetica,sans-Serif" font-size="10.00">thread</text>
</g>
<!-- Node1&#45;&gt;Node47 -->
<g id="edge76" class="edge"><title>Node1&#45;&gt;Node47</title>
<path fill="none" stroke="midnightblue" d="M2054.32,-333.416C2287.04,-327.922 3023.64,-307.899 3282.64,-267.565"/>
<polygon fill="midnightblue" stroke="midnightblue" points="3283.45,-270.98 3292.76,-265.937 3282.33,-264.069 3283.45,-270.98"/>
</g>
<!-- Node3 -->
<g id="node3" class="node"><title>Node3</title>
<polygon fill="none" stroke="#bfbfbf" points="-0.5,-118.5 -0.5,-137.5 104.5,-137.5 104.5,-118.5 -0.5,-118.5"/>
<text text-anchor="middle" x="52" y="-125.5" font-family="Helvetica,sans-Serif" font-size="10.00">yarp/os/RFModule.h</text>
</g>
<!-- Node2&#45;&gt;Node3 -->
<g id="edge2" class="edge"><title>Node2&#45;&gt;Node3</title>
<path fill="none" stroke="midnightblue" d="M249.324,-186.372C208.767,-174.58 135.946,-153.407 91.0139,-140.343"/>
<polygon fill="midnightblue" stroke="midnightblue" points="91.9034,-136.957 81.3239,-137.526 89.949,-143.679 91.9034,-136.957"/>
</g>
<!-- Node4&#45;&gt;Node2 -->
<g id="edge4" class="edge"><title>Node4&#45;&gt;Node2</title>
<path fill="none" stroke="midnightblue" d="M1202.84,-255.388C1050.91,-251.578 690.289,-240.134 389,-212 374.577,-210.653 359.142,-208.804 344.532,-206.864"/>
<polygon fill="midnightblue" stroke="midnightblue" points="344.952,-203.389 334.572,-205.512 344.01,-210.326 344.952,-203.389"/>
</g>
<!-- Node4&#45;&gt;Node5 -->
<g id="edge5" class="edge"><title>Node4&#45;&gt;Node5</title>
<path fill="none" stroke="midnightblue" d="M1202.64,-251.736C1088.51,-243.507 861.532,-226.984 669,-212 629.011,-208.888 584.148,-205.234 548.732,-202.311"/>
<polygon fill="midnightblue" stroke="midnightblue" points="548.788,-198.804 538.534,-201.469 548.212,-205.78 548.788,-198.804"/>
</g>
<!-- Node4&#45;&gt;Node10 -->
<g id="edge41" class="edge"><title>Node4&#45;&gt;Node10</title>
<path fill="none" stroke="midnightblue" d="M1202.52,-256.257C1076.69,-254.08 825.743,-245.533 745,-212 709.665,-197.325 677.666,-165.029 660.409,-145.329"/>
<polygon fill="midnightblue" stroke="midnightblue" points="662.9,-142.856 653.753,-137.509 657.569,-147.393 662.9,-142.856"/>
</g>
<!-- Node4&#45;&gt;Node11 -->
<g id="edge16" class="edge"><title>Node4&#45;&gt;Node11</title>
<path fill="none" stroke="midnightblue" d="M1202.76,-255.566C1009.27,-251.435 494.362,-238.103 422,-212 399.591,-203.916 400.433,-190.398 379,-180 344.212,-163.124 303.016,-151.175 267.979,-143.107"/>
<polygon fill="midnightblue" stroke="midnightblue" points="268.318,-139.596 257.795,-140.83 266.791,-146.428 268.318,-139.596"/>
</g>
<!-- Node12 -->
<g id="node12" class="node"><title>Node12</title>
<polygon fill="none" stroke="#bfbfbf" points="1343,-56.5 1343,-75.5 1499,-75.5 1499,-56.5 1343,-56.5"/>
<text text-anchor="middle" x="1421" y="-63.5" font-family="Helvetica,sans-Serif" font-size="10.00">iDynTree/Core/MatrixDynSize.h</text>
</g>
<!-- Node4&#45;&gt;Node12 -->
<g id="edge19" class="edge"><title>Node4&#45;&gt;Node12</title>
<path fill="none" stroke="midnightblue" d="M1202.72,-251.356C1115.98,-243.919 981.302,-229.684 966,-212 956.694,-201.245 957.239,-191.203 966,-180 990.634,-148.5 1245.58,-98.7708 1362.72,-77.3636"/>
<polygon fill="midnightblue" stroke="midnightblue" points="1363.39,-80.7992 1372.6,-75.5652 1362.14,-73.9124 1363.39,-80.7992"/>
</g>
<!-- Node4&#45;&gt;Node13 -->
<g id="edge20" class="edge"><title>Node4&#45;&gt;Node13</title>
<path fill="none" stroke="midnightblue" d="M1283.66,-248.481C1297.67,-233.266 1328.86,-201.045 1360,-180 1427.47,-134.41 1516.16,-97.2627 1563.27,-79.0868"/>
<polygon fill="midnightblue" stroke="midnightblue" points="1564.58,-82.3351 1572.68,-75.5 1562.08,-75.795 1564.58,-82.3351"/>
</g>
<!-- Node4&#45;&gt;Node14 -->
<g id="edge21" class="edge"><title>Node4&#45;&gt;Node14</title>
<path fill="none" stroke="midnightblue" d="M1349.21,-252.186C1396.61,-246.859 1458.65,-235.637 1509,-212 1529.3,-202.471 1529.34,-192.427 1548,-180 1610.74,-138.224 1690.6,-99.3109 1732.46,-79.9017"/>
<polygon fill="midnightblue" stroke="midnightblue" points="1734.14,-82.979 1741.76,-75.6183 1731.21,-76.6204 1734.14,-82.979"/>
</g>
<!-- Node15 -->
<g id="node15" class="node"><title>Node15</title>
<polygon fill="none" stroke="#bfbfbf" points="1369.5,-186.5 1369.5,-205.5 1500.5,-205.5 1500.5,-186.5 1369.5,-186.5"/>
<text text-anchor="middle" x="1435" y="-193.5" font-family="Helvetica,sans-Serif" font-size="10.00">iDynTree/Model/Indeces.h</text>
</g>
<!-- Node4&#45;&gt;Node15 -->
<g id="edge22" class="edge"><title>Node4&#45;&gt;Node15</title>
<path fill="none" stroke="midnightblue" d="M1298.78,-248.403C1326.05,-238.111 1371.91,-220.806 1402.8,-209.15"/>
<polygon fill="midnightblue" stroke="midnightblue" points="1404.14,-212.386 1412.26,-205.581 1401.67,-205.837 1404.14,-212.386"/>
</g>
<!-- Node4&#45;&gt;Node16 -->
<g id="edge23" class="edge"><title>Node4&#45;&gt;Node16</title>
<path fill="none" stroke="midnightblue" d="M1203,-255.418C1071.97,-251.856 807.696,-241.115 778,-212 744.176,-178.839 751.235,-116.736 757.493,-85.6815"/>
<polygon fill="midnightblue" stroke="midnightblue" points="760.946,-86.2756 759.686,-75.756 754.111,-84.7658 760.946,-86.2756"/>
</g>
<!-- Node4&#45;&gt;Node17 -->
<g id="edge24" class="edge"><title>Node4&#45;&gt;Node17</title>
<path fill="none" stroke="midnightblue" d="M1202.9,-248.589C1133.34,-240.306 1025.82,-226.78 933,-212 931.705,-211.794 930.398,-211.583 929.083,-211.368"/>
<polygon fill="midnightblue" stroke="midnightblue" points="929.314,-207.857 918.871,-209.647 928.151,-214.76 929.314,-207.857"/>
</g>
<!-- Node4&#45;&gt;Node25 -->
<g id="edge45" class="edge"><title>Node4&#45;&gt;Node25</title>
<path fill="none" stroke="midnightblue" d="M1277.74,-248.405C1279.52,-239.373 1282.26,-224.736 1284,-212 1287,-190.091 1289.27,-164.777 1290.61,-147.922"/>
<polygon fill="midnightblue" stroke="midnightblue" points="1294.11,-147.988 1291.39,-137.75 1287.13,-147.454 1294.11,-147.988"/>
</g>
<!-- Node4&#45;&gt;Node26 -->
<g id="edge37" class="edge"><title>Node4&#45;&gt;Node26</title>
<path fill="none" stroke="midnightblue" d="M1330.84,-248.482C1384.91,-239.915 1469.82,-226.001 1543,-212 1550.05,-210.651 1557.48,-209.148 1564.76,-207.628"/>
<polygon fill="midnightblue" stroke="midnightblue" points="1565.49,-211.051 1574.55,-205.558 1564.04,-204.203 1565.49,-211.051"/>
</g>
<!-- Node27 -->
<g id="node27" class="node"><title>Node27</title>
<polygon fill="none" stroke="#bfbfbf" points="975.5,-186.5 975.5,-205.5 1108.5,-205.5 1108.5,-186.5 975.5,-186.5"/>
<text text-anchor="middle" x="1042" y="-193.5" font-family="Helvetica,sans-Serif" font-size="10.00">yarp/dev/PreciselyTimed.h</text>
</g>
<!-- Node4&#45;&gt;Node27 -->
<g id="edge38" class="edge"><title>Node4&#45;&gt;Node27</title>
<path fill="none" stroke="midnightblue" d="M1242.47,-248.403C1201.12,-237.799 1130.73,-219.751 1085.32,-208.107"/>
<polygon fill="midnightblue" stroke="midnightblue" points="1086.02,-204.674 1075.46,-205.581 1084.28,-211.455 1086.02,-204.674"/>
</g>
<!-- Node4&#45;&gt;Node28 -->
<g id="edge39" class="edge"><title>Node4&#45;&gt;Node28</title>
<path fill="none" stroke="midnightblue" d="M1349.14,-251.193C1429.77,-244.233 1563.17,-231.071 1677,-212 1684.27,-210.781 1691.95,-209.275 1699.4,-207.692"/>
<polygon fill="midnightblue" stroke="midnightblue" points="1700.35,-211.067 1709.37,-205.506 1698.85,-204.23 1700.35,-211.067"/>
</g>
<!-- Node29 -->
<g id="node29" class="node"><title>Node29</title>
<polygon fill="none" stroke="#bfbfbf" points="1127,-186.5 1127,-205.5 1205,-205.5 1205,-186.5 1127,-186.5"/>
<text text-anchor="middle" x="1166" y="-193.5" font-family="Helvetica,sans-Serif" font-size="10.00">yarp/os/Port.h</text>
</g>
<!-- Node4&#45;&gt;Node29 -->
<g id="edge40" class="edge"><title>Node4&#45;&gt;Node29</title>
<path fill="none" stroke="midnightblue" d="M1260.24,-248.403C1242.02,-238.468 1211.83,-221.997 1190.53,-210.381"/>
<polygon fill="midnightblue" stroke="midnightblue" points="1192.19,-207.297 1181.73,-205.581 1188.83,-213.442 1192.19,-207.297"/>
</g>
<!-- Node4&#45;&gt;Node30 -->
<g id="edge42" class="edge"><title>Node4&#45;&gt;Node30</title>
<path fill="none" stroke="midnightblue" d="M1349.12,-257.335C1452.93,-256.352 1648.36,-249.1 1810,-212 1813.43,-211.213 1816.95,-210.187 1820.42,-209.04"/>
<polygon fill="midnightblue" stroke="midnightblue" points="1821.7,-212.298 1829.9,-205.585 1819.3,-205.722 1821.7,-212.298"/>
</g>
<!-- Node31 -->
<g id="node31" class="node"><title>Node31</title>
<polygon fill="none" stroke="#bfbfbf" points="1223,-186.5 1223,-205.5 1275,-205.5 1275,-186.5 1223,-186.5"/>
<text text-anchor="middle" x="1249" y="-193.5" font-family="Helvetica,sans-Serif" font-size="10.00">memory</text>
</g>
<!-- Node4&#45;&gt;Node31 -->
<g id="edge43" class="edge"><title>Node4&#45;&gt;Node31</title>
<path fill="none" stroke="midnightblue" d="M1272.13,-248.403C1268.2,-239.671 1262,-225.889 1257.01,-214.794"/>
<polygon fill="midnightblue" stroke="midnightblue" points="1260.16,-213.264 1252.86,-205.581 1253.77,-216.136 1260.16,-213.264"/>
</g>
<!-- Node32 -->
<g id="node32" class="node"><title>Node32</title>
<polygon fill="none" stroke="#bfbfbf" points="2049,-186.5 2049,-205.5 2093,-205.5 2093,-186.5 2049,-186.5"/>
<text text-anchor="middle" x="2071" y="-193.5" font-family="Helvetica,sans-Serif" font-size="10.00">mutex</text>
</g>
<!-- Node4&#45;&gt;Node32 -->
<g id="edge44" class="edge"><title>Node4&#45;&gt;Node32</title>
<path fill="none" stroke="midnightblue" d="M1349.37,-251.782C1464.1,-243.582 1692.94,-227.056 1887,-212 1940.22,-207.871 2002.08,-202.765 2038.8,-199.701"/>
<polygon fill="midnightblue" stroke="midnightblue" points="2039.24,-203.177 2048.91,-198.857 2038.66,-196.202 2039.24,-203.177"/>
</g>
<!-- Node4&#45;&gt;Node33 -->
<g id="edge46" class="edge"><title>Node4&#45;&gt;Node33</title>
<path fill="none" stroke="midnightblue" d="M1349.29,-256.579C1523.78,-255.001 1959.8,-247.514 2101,-212 2103.5,-211.371 2106.04,-210.545 2108.54,-209.603"/>
<polygon fill="midnightblue" stroke="midnightblue" points="2110.04,-212.767 2117.82,-205.57 2107.25,-206.347 2110.04,-212.767"/>
</g>
<!-- Node6 -->
<g id="node6" class="node"><title>Node6</title>
<polygon fill="none" stroke="#bfbfbf" points="368,-0.5 368,-19.5 448,-19.5 448,-0.5 368,-0.5"/>
<text text-anchor="middle" x="408" y="-7.5" font-family="Helvetica,sans-Serif" font-size="10.00">yarp/os/Wire.h</text>
</g>
<!-- Node5&#45;&gt;Node6 -->
<g id="edge6" class="edge"><title>Node5&#45;&gt;Node6</title>
<path fill="none" stroke="midnightblue" d="M483.321,-186.485C478.709,-164.168 464.599,-102.497 441,-56 435.912,-45.976 428.657,-35.7942 422.245,-27.6569"/>
<polygon fill="midnightblue" stroke="midnightblue" points="424.802,-25.2552 415.76,-19.7338 419.385,-29.689 424.802,-25.2552"/>
</g>
<!-- Node7 -->
<g id="node7" class="node"><title>Node7</title>
<polygon fill="none" stroke="#bfbfbf" points="185,-0.5 185,-19.5 305,-19.5 305,-0.5 185,-0.5"/>
<text text-anchor="middle" x="245" y="-7.5" font-family="Helvetica,sans-Serif" font-size="10.00">yarp/os/idl/WireTypes.h</text>
</g>
<!-- Node5&#45;&gt;Node7 -->
<g id="edge7" class="edge"><title>Node5&#45;&gt;Node7</title>
<path fill="none" stroke="midnightblue" d="M449.346,-186.469C400.606,-174.554 317.939,-153.342 307,-144 271.427,-113.62 254.987,-58.3942 248.535,-29.5959"/>
<polygon fill="midnightblue" stroke="midnightblue" points="251.929,-28.7259 246.472,-19.6445 245.075,-30.1468 251.929,-28.7259"/>
</g>
<!-- Node8 -->
<g id="node8" class="node"><title>Node8</title>
<g id="a_node8"><a xlink:href="human-state-provider_2autogenerated_2include_2thrifts_2_quaternion_8h.html" target="_top" xlink:title="thrifts/Quaternion.h">
<polygon fill="none" stroke="black" points="316,-118.5 316,-137.5 416,-137.5 416,-118.5 316,-118.5"/>
<text text-anchor="middle" x="366" y="-125.5" font-family="Helvetica,sans-Serif" font-size="10.00">thrifts/Quaternion.h</text>
</a>
</g>
</g>
<!-- Node5&#45;&gt;Node8 -->
<g id="edge8" class="edge"><title>Node5&#45;&gt;Node8</title>
<path fill="none" stroke="midnightblue" d="M469.443,-186.372C449.309,-175.205 414.009,-155.627 390.319,-142.488"/>
<polygon fill="midnightblue" stroke="midnightblue" points="392.004,-139.42 381.561,-137.63 388.608,-145.541 392.004,-139.42"/>
</g>
<!-- Node9 -->
<g id="node9" class="node"><title>Node9</title>
<g id="a_node9"><a xlink:href="human-state-provider_2autogenerated_2include_2thrifts_2_vector3_8h.html" target="_top" xlink:title="thrifts/Vector3.h">
<polygon fill="none" stroke="black" points="330,-56.5 330,-75.5 416,-75.5 416,-56.5 330,-56.5"/>
<text text-anchor="middle" x="373" y="-63.5" font-family="Helvetica,sans-Serif" font-size="10.00">thrifts/Vector3.h</text>
</a>
</g>
</g>
<!-- Node5&#45;&gt;Node9 -->
<g id="edge14" class="edge"><title>Node5&#45;&gt;Node9</title>
<path fill="none" stroke="midnightblue" d="M479.643,-186.261C469.818,-170.564 447.821,-136.909 425,-112 415.045,-101.134 402.6,-90.2843 392.381,-81.9616"/>
<polygon fill="midnightblue" stroke="midnightblue" points="394.426,-79.1157 384.425,-75.62 390.063,-84.5897 394.426,-79.1157"/>
</g>
<!-- Node5&#45;&gt;Node10 -->
<g id="edge15" class="edge"><title>Node5&#45;&gt;Node10</title>
<path fill="none" stroke="midnightblue" d="M506.179,-186.372C534.393,-174.877 584.486,-154.469 616.695,-141.346"/>
<polygon fill="midnightblue" stroke="midnightblue" points="618.132,-144.54 626.073,-137.526 615.491,-138.058 618.132,-144.54"/>
</g>
<!-- Node8&#45;&gt;Node6 -->
<g id="edge9" class="edge"><title>Node8&#45;&gt;Node6</title>
<path fill="none" stroke="midnightblue" d="M382.228,-118.36C396.483,-109.755 416.271,-95.0844 425,-76 431.959,-60.7852 425.783,-42.2141 419.006,-28.8244"/>
<polygon fill="midnightblue" stroke="midnightblue" points="421.856,-26.7497 413.914,-19.7365 415.749,-30.1713 421.856,-26.7497"/>
</g>
<!-- Node8&#45;&gt;Node7 -->
<g id="edge10" class="edge"><title>Node8&#45;&gt;Node7</title>
<path fill="none" stroke="midnightblue" d="M356.905,-118.281C336.572,-98.788 287.195,-51.4517 261.364,-26.6879"/>
<polygon fill="midnightblue" stroke="midnightblue" points="263.512,-23.8986 253.871,-19.5048 258.668,-28.9517 263.512,-23.8986"/>
</g>
<!-- Node8&#45;&gt;Node9 -->
<g id="edge11" class="edge"><title>Node8&#45;&gt;Node9</title>
<path fill="none" stroke="midnightblue" d="M367.003,-118.403C367.991,-109.938 369.532,-96.7283 370.804,-85.8199"/>
<polygon fill="midnightblue" stroke="midnightblue" points="374.316,-85.9188 371.999,-75.5806 367.364,-85.1076 374.316,-85.9188"/>
</g>
<!-- Node9&#45;&gt;Node6 -->
<g id="edge12" class="edge"><title>Node9&#45;&gt;Node6</title>
<path fill="none" stroke="midnightblue" d="M378.78,-56.083C383.672,-48.5341 390.827,-37.4948 396.833,-28.2298"/>
<polygon fill="midnightblue" stroke="midnightblue" points="399.826,-30.0463 402.328,-19.7511 393.952,-26.239 399.826,-30.0463"/>
</g>
<!-- Node9&#45;&gt;Node7 -->
<g id="edge13" class="edge"><title>Node9&#45;&gt;Node7</title>
<path fill="none" stroke="midnightblue" d="M352.718,-56.4435C331.653,-47.5566 298.483,-33.5632 274.514,-23.4514"/>
<polygon fill="midnightblue" stroke="midnightblue" points="275.761,-20.1787 265.187,-19.5164 273.04,-26.6283 275.761,-20.1787"/>
</g>
<!-- Node11&#45;&gt;Node6 -->
<g id="edge17" class="edge"><title>Node11&#45;&gt;Node6</title>
<path fill="none" stroke="midnightblue" d="M215.525,-112.977C241.869,-98.548 284.194,-75.4908 321,-56 341.541,-45.1223 364.95,-33.0317 382.308,-24.1244"/>
<polygon fill="midnightblue" stroke="midnightblue" points="383.968,-27.2065 391.272,-19.5314 380.776,-20.9766 383.968,-27.2065"/>
</g>
<!-- Node11&#45;&gt;Node7 -->
<g id="edge18" class="edge"><title>Node11&#45;&gt;Node7</title>
<path fill="none" stroke="midnightblue" d="M192.916,-112.864C196.284,-98.1433 202.595,-74.6706 212,-56 217.057,-45.9605 224.309,-35.7773 230.728,-27.6431"/>
<polygon fill="midnightblue" stroke="midnightblue" points="233.587,-29.6762 237.222,-19.7245 228.174,-25.2372 233.587,-29.6762"/>
</g>
<!-- Node18 -->
<g id="node18" class="node"><title>Node18</title>
<g id="a_node18"><a xlink:href="_inverse_kinematics_v2_i_p_o_p_t_8h.html" target="_top" xlink:title="InverseKinematicsV2IPOPT.h">
<polygon fill="none" stroke="black" points="888,-118.5 888,-137.5 1036,-137.5 1036,-118.5 888,-118.5"/>
<text text-anchor="middle" x="962" y="-125.5" font-family="Helvetica,sans-Serif" font-size="10.00">InverseKinematicsV2IPOPT.h</text>
</a>
</g>
</g>
<!-- Node17&#45;&gt;Node18 -->
<g id="edge25" class="edge"><title>Node17&#45;&gt;Node18</title>
<path fill="none" stroke="midnightblue" d="M876.383,-180.841C894.899,-169.63 920.62,-154.056 939.028,-142.91"/>
<polygon fill="midnightblue" stroke="midnightblue" points="940.92,-145.855 947.662,-137.682 937.295,-139.868 940.92,-145.855"/>
</g>
<!-- Node17&#45;&gt;Node25 -->
<g id="edge36" class="edge"><title>Node17&#45;&gt;Node25</title>
<path fill="none" stroke="midnightblue" d="M918.723,-185.119C1014.96,-170.651 1190.46,-144.266 1261.21,-133.629"/>
<polygon fill="midnightblue" stroke="midnightblue" points="1261.89,-137.067 1271.26,-132.119 1260.85,-130.144 1261.89,-137.067"/>
</g>
<!-- Node18&#45;&gt;Node12 -->
<g id="edge29" class="edge"><title>Node18&#45;&gt;Node12</title>
<path fill="none" stroke="midnightblue" d="M1009.43,-118.485C1022.55,-116.247 1036.81,-113.923 1050,-112 1146.27,-97.9649 1257.05,-84.9327 1332.31,-76.5438"/>
<polygon fill="midnightblue" stroke="midnightblue" points="1333.13,-79.9737 1342.69,-75.3913 1332.36,-73.0164 1333.13,-79.9737"/>
</g>
<!-- Node18&#45;&gt;Node13 -->
<g id="edge28" class="edge"><title>Node18&#45;&gt;Node13</title>
<path fill="none" stroke="midnightblue" d="M1036.2,-120.277C1139.25,-110.894 1331.83,-93.1916 1506.69,-76.1214"/>
<polygon fill="midnightblue" stroke="midnightblue" points="1507.24,-79.5844 1516.85,-75.1281 1506.56,-72.6176 1507.24,-79.5844"/>
</g>
<!-- Node18&#45;&gt;Node14 -->
<g id="edge30" class="edge"><title>Node18&#45;&gt;Node14</title>
<path fill="none" stroke="midnightblue" d="M1036.04,-122.847C1166.77,-115.273 1447.01,-97.9507 1683,-76 1683.1,-75.9905 1683.2,-75.981 1683.31,-75.9715"/>
<polygon fill="midnightblue" stroke="midnightblue" points="1683.34,-79.4848 1692.95,-75.031 1682.66,-72.5178 1683.34,-79.4848"/>
</g>
<!-- Node18&#45;&gt;Node16 -->
<g id="edge33" class="edge"><title>Node18&#45;&gt;Node16</title>
<path fill="none" stroke="midnightblue" d="M933.345,-118.403C898.444,-107.933 839.35,-90.2049 800.5,-78.5501"/>
<polygon fill="midnightblue" stroke="midnightblue" points="801.186,-75.1017 790.602,-75.5806 799.174,-81.8065 801.186,-75.1017"/>
</g>
<!-- Node19 -->
<g id="node19" class="node"><title>Node19</title>
<polygon fill="none" stroke="#bfbfbf" points="860.5,-56.5 860.5,-75.5 929.5,-75.5 929.5,-56.5 860.5,-56.5"/>
<text text-anchor="middle" x="895" y="-63.5" font-family="Helvetica,sans-Serif" font-size="10.00">IpTNLP.hpp</text>
</g>
<!-- Node18&#45;&gt;Node19 -->
<g id="edge26" class="edge"><title>Node18&#45;&gt;Node19</title>
<path fill="none" stroke="midnightblue" d="M952.401,-118.403C941.952,-109.047 925.032,-93.8948 912.264,-82.4599"/>
<polygon fill="midnightblue" stroke="midnightblue" points="914.366,-79.6445 904.582,-75.5806 909.696,-84.8592 914.366,-79.6445"/>
</g>
<!-- Node18&#45;&gt;Node20 -->
<g id="edge27" class="edge"><title>Node18&#45;&gt;Node20</title>
<path fill="none" stroke="midnightblue" d="M908.67,-118.467C840.497,-107.559 722.63,-88.7008 650.074,-77.0918"/>
<polygon fill="midnightblue" stroke="midnightblue" points="650.574,-73.6273 640.146,-75.5034 649.468,-80.5394 650.574,-73.6273"/>
</g>
<!-- Node18&#45;&gt;Node21 -->
<g id="edge31" class="edge"><title>Node18&#45;&gt;Node21</title>
<path fill="none" stroke="midnightblue" d="M1036.14,-122.999C1187.1,-114.784 1540.98,-95.1696 1838,-76 1855.88,-74.8462 1875.16,-73.521 1893.17,-72.2484"/>
<polygon fill="midnightblue" stroke="midnightblue" points="1893.59,-75.7275 1903.32,-71.5277 1893.1,-68.7451 1893.59,-75.7275"/>
</g>
<!-- Node22 -->
<g id="node22" class="node"><title>Node22</title>
<polygon fill="none" stroke="#bfbfbf" points="947.5,-56.5 947.5,-75.5 1110.5,-75.5 1110.5,-56.5 947.5,-56.5"/>
<text text-anchor="middle" x="1029" y="-63.5" font-family="Helvetica,sans-Serif" font-size="10.00">iDynTree/ModelIO/ModelLoader.h</text>
</g>
<!-- Node18&#45;&gt;Node22 -->
<g id="edge32" class="edge"><title>Node18&#45;&gt;Node22</title>
<path fill="none" stroke="midnightblue" d="M971.599,-118.403C982.048,-109.047 998.968,-93.8948 1011.74,-82.4599"/>
<polygon fill="midnightblue" stroke="midnightblue" points="1014.3,-84.8592 1019.42,-75.5806 1009.63,-79.6445 1014.3,-84.8592"/>
</g>
<!-- Node23 -->
<g id="node23" class="node"><title>Node23</title>
<polygon fill="none" stroke="#bfbfbf" points="1128.5,-56.5 1128.5,-75.5 1241.5,-75.5 1241.5,-56.5 1128.5,-56.5"/>
<text text-anchor="middle" x="1185" y="-63.5" font-family="Helvetica,sans-Serif" font-size="10.00">IpIpoptApplication.hpp</text>
</g>
<!-- Node18&#45;&gt;Node23 -->
<g id="edge34" class="edge"><title>Node18&#45;&gt;Node23</title>
<path fill="none" stroke="midnightblue" d="M993.95,-118.403C1033.28,-107.822 1100.16,-89.8269 1143.45,-78.1802"/>
<polygon fill="midnightblue" stroke="midnightblue" points="1144.36,-81.5586 1153.11,-75.5806 1142.54,-74.799 1144.36,-81.5586"/>
</g>
<!-- Node24 -->
<g id="node24" class="node"><title>Node24</title>
<polygon fill="none" stroke="#bfbfbf" points="1259.5,-56.5 1259.5,-75.5 1324.5,-75.5 1324.5,-56.5 1259.5,-56.5"/>
<text text-anchor="middle" x="1292" y="-63.5" font-family="Helvetica,sans-Serif" font-size="10.00">Eigen/Core</text>
</g>
<!-- Node18&#45;&gt;Node24 -->
<g id="edge35" class="edge"><title>Node18&#45;&gt;Node24</title>
<path fill="none" stroke="midnightblue" d="M1011.51,-118.454C1077.38,-107.048 1191.35,-87.1779 1249.6,-76.0066"/>
<polygon fill="midnightblue" stroke="midnightblue" points="1250.31,-79.4331 1259.46,-74.0922 1248.98,-72.5612 1250.31,-79.4331"/>
</g>
<!-- Node34&#45;&gt;Node32 -->
<g id="edge48" class="edge"><title>Node34&#45;&gt;Node32</title>
<path fill="none" stroke="midnightblue" d="M2135.25,-248.403C2123.45,-238.958 2104.26,-223.606 2089.92,-212.134"/>
<polygon fill="midnightblue" stroke="midnightblue" points="2091.72,-209.095 2081.73,-205.581 2087.35,-214.561 2091.72,-209.095"/>
</g>
<!-- Node34&#45;&gt;Node33 -->
<g id="edge52" class="edge"><title>Node34&#45;&gt;Node33</title>
<path fill="none" stroke="midnightblue" d="M2144.14,-248.403C2142.28,-239.849 2139.38,-226.45 2137,-215.476"/>
<polygon fill="midnightblue" stroke="midnightblue" points="2140.4,-214.613 2134.86,-205.581 2133.56,-216.095 2140.4,-214.613"/>
</g>
<!-- Node35 -->
<g id="node35" class="node"><title>Node35</title>
<polygon fill="none" stroke="#bfbfbf" points="2173.5,-186.5 2173.5,-205.5 2268.5,-205.5 2268.5,-186.5 2173.5,-186.5"/>
<text text-anchor="middle" x="2221" y="-193.5" font-family="Helvetica,sans-Serif" font-size="10.00">condition_variable</text>
</g>
<!-- Node34&#45;&gt;Node35 -->
<g id="edge49" class="edge"><title>Node34&#45;&gt;Node35</title>
<path fill="none" stroke="midnightblue" d="M2156.75,-248.403C2168.55,-238.958 2187.74,-223.606 2202.08,-212.134"/>
<polygon fill="midnightblue" stroke="midnightblue" points="2204.65,-214.561 2210.27,-205.581 2200.28,-209.095 2204.65,-214.561"/>
</g>
<!-- Node36 -->
<g id="node36" class="node"><title>Node36</title>
<polygon fill="none" stroke="#bfbfbf" points="2286.5,-186.5 2286.5,-205.5 2369.5,-205.5 2369.5,-186.5 2286.5,-186.5"/>
<text text-anchor="middle" x="2328" y="-193.5" font-family="Helvetica,sans-Serif" font-size="10.00">unordered_map</text>
</g>
<!-- Node34&#45;&gt;Node36 -->
<g id="edge50" class="edge"><title>Node34&#45;&gt;Node36</title>
<path fill="none" stroke="midnightblue" d="M2172.08,-248.403C2203.57,-238.022 2256.7,-220.506 2292.06,-208.849"/>
<polygon fill="midnightblue" stroke="midnightblue" points="2293.57,-212.036 2301.97,-205.581 2291.38,-205.388 2293.57,-212.036"/>
</g>
<!-- Node37 -->
<g id="node37" class="node"><title>Node37</title>
<polygon fill="none" stroke="#bfbfbf" points="2387.5,-186.5 2387.5,-205.5 2430.5,-205.5 2430.5,-186.5 2387.5,-186.5"/>
<text text-anchor="middle" x="2409" y="-193.5" font-family="Helvetica,sans-Serif" font-size="10.00">queue</text>
</g>
<!-- Node34&#45;&gt;Node37 -->
<g id="edge51" class="edge"><title>Node34&#45;&gt;Node37</title>
<path fill="none" stroke="midnightblue" d="M2198.32,-248.473C2256.14,-238.763 2345.4,-222.846 2378,-212 2379.91,-211.363 2381.86,-210.633 2383.8,-209.846"/>
<polygon fill="midnightblue" stroke="midnightblue" points="2385.56,-212.895 2393.24,-205.599 2382.69,-206.512 2385.56,-212.895"/>
</g>
</g>
</svg>
