<?xml version="1.0" encoding="UTF-8" standalone="no"?>
<!DOCTYPE svg PUBLIC "-//W3C//DTD SVG 1.1//EN"
 "http://www.w3.org/Graphics/SVG/1.1/DTD/svg11.dtd">
<!-- Generated by graphviz version 2.36.0 (20140111.2315)
 -->
<!-- Title: /home/travis/build/robotology&#45;playground/human&#45;dynamics&#45;estimation/human&#45;forces&#45;provider/src/HumanForcesProvider.cpp Pages: 1 -->
<!--zoomable 352 -->
<svg id="main" version="1.1" xmlns="http://www.w3.org/2000/svg" xmlns:xlink="http://www.w3.org/1999/xlink" xml:space="preserve" onload="init(evt)">
<style type="text/css"><![CDATA[
.edge:hover path { stroke: red; }
.edge:hover polygon { stroke: red; fill: red; }
]]></style>
<script type="text/javascript"><![CDATA[
var edges = document.getElementsByTagName('g');
if (edges && edges.length) {
  for (var i=0;i<edges.length;i++) {
    if (edges[i].id.substr(0,4)=='edge') {
      edges[i].setAttribute('class','edge');
    }
  }
}
]]></script>
        <defs>
                <circle id="rim" cx="0" cy="0" r="7"/>
                <circle id="rim2" cx="0" cy="0" r="3.5"/>
                <g id="zoomPlus">
                        <use xlink:href="#rim" fill="#404040">
                                <set attributeName="fill" to="#808080" begin="zoomplus.mouseover" end="zoomplus.mouseout"/>
                        </use>
                        <path d="M-4,0h8M0,-4v8" fill="none" stroke="white" stroke-width="1.5" pointer-events="none"/>
                </g>
                <g id="zoomMin">
                        <use xlink:href="#rim" fill="#404040">
                                <set attributeName="fill" to="#808080" begin="zoomminus.mouseover" end="zoomminus.mouseout"/>
                        </use>
                        <path d="M-4,0h8" fill="none" stroke="white" stroke-width="1.5" pointer-events="none"/>
                </g>
                <g id="dirArrow">
                        <path fill="none" stroke="white" stroke-width="1.5" d="M0,-3.0v7 M-2.5,-0.5L0,-3.0L2.5,-0.5"/>
                </g>
               <g id="resetDef">
                       <use xlink:href="#rim2" fill="#404040">
                               <set attributeName="fill" to="#808080" begin="reset.mouseover" end="reset.mouseout"/>
                       </use>
               </g>
        </defs>

<script type="text/javascript">
var viewWidth = 2095;
var viewHeight = 352;
var sectionId = 'dynsection-0';
</script>
<script xlink:href="svgpan.js"/>
<svg id="graph" class="graph">
<g id="viewport">
<title>/home/travis/build/robotology&#45;playground/human&#45;dynamics&#45;estimation/human&#45;forces&#45;provider/src/HumanForcesProvider.cpp</title>
<!-- Node1 -->
<g id="node1" class="node"><title>Node1</title>
<polygon fill="#bfbfbf" stroke="black" points="999,-280.5 999,-343.5 1141,-343.5 1141,-280.5 999,-280.5"/>
<text text-anchor="start" x="1007" y="-331.5" font-family="Helvetica,sans-Serif" font-size="10.00">/home/travis/build</text>
<text text-anchor="start" x="1007" y="-320.5" font-family="Helvetica,sans-Serif" font-size="10.00">/robotology&#45;playground</text>
<text text-anchor="start" x="1007" y="-309.5" font-family="Helvetica,sans-Serif" font-size="10.00">/human&#45;dynamics&#45;estimation</text>
<text text-anchor="start" x="1007" y="-298.5" font-family="Helvetica,sans-Serif" font-size="10.00">/human&#45;forces&#45;provider/src</text>
<text text-anchor="middle" x="1070" y="-287.5" font-family="Helvetica,sans-Serif" font-size="10.00">/HumanForcesProvider.cpp</text>
</g>
<!-- Node2 -->
<g id="node2" class="node"><title>Node2</title>
<g id="a_node2"><a xlink:href="_human_forces_provider_8h.html" target="_top" xlink:title="HumanForcesProvider.h">
<polygon fill="none" stroke="black" points="395,-224.5 395,-243.5 517,-243.5 517,-224.5 395,-224.5"/>
<text text-anchor="middle" x="456" y="-231.5" font-family="Helvetica,sans-Serif" font-size="10.00">HumanForcesProvider.h</text>
</a>
</g>
</g>
<!-- Node1&#45;&gt;Node2 -->
<g id="edge1" class="edge"><title>Node1&#45;&gt;Node2</title>
<path fill="none" stroke="midnightblue" d="M998.967,-302.208C880.875,-287.59 645.484,-258.454 527.249,-243.819"/>
<polygon fill="midnightblue" stroke="midnightblue" points="527.57,-240.332 517.216,-242.577 526.71,-247.279 527.57,-240.332"/>
</g>
<!-- Node14 -->
<g id="node14" class="node"><title>Node14</title>
<g id="a_node14"><a xlink:href="_force_reader_8h.html" target="_top" xlink:title="ForceReader.h">
<polygon fill="none" stroke="black" points="-0.5,-112.5 -0.5,-131.5 80.5,-131.5 80.5,-112.5 -0.5,-112.5"/>
<text text-anchor="middle" x="40" y="-119.5" font-family="Helvetica,sans-Serif" font-size="10.00">ForceReader.h</text>
</a>
</g>
</g>
<!-- Node1&#45;&gt;Node14 -->
<g id="edge23" class="edge"><title>Node1&#45;&gt;Node14</title>
<path fill="none" stroke="midnightblue" d="M998.909,-311.31C775.711,-311.623 99.3536,-307.292 26,-244 0.109178,-221.661 5.14407,-201.03 14,-168 16.6536,-158.103 22.0693,-148.131 27.2743,-140.099"/>
<polygon fill="midnightblue" stroke="midnightblue" points="30.2891,-141.894 33.1097,-131.681 24.5361,-137.906 30.2891,-141.894"/>
</g>
<!-- Node15 -->
<g id="node15" class="node"><title>Node15</title>
<g id="a_node15"><a xlink:href="_abstract_force_reader_8h.html" target="_top" xlink:title="AbstractForceReader.h">
<polygon fill="none" stroke="black" points="23,-168.5 23,-187.5 141,-187.5 141,-168.5 23,-168.5"/>
<text text-anchor="middle" x="82" y="-175.5" font-family="Helvetica,sans-Serif" font-size="10.00">AbstractForceReader.h</text>
</a>
</g>
</g>
<!-- Node1&#45;&gt;Node15 -->
<g id="edge24" class="edge"><title>Node1&#45;&gt;Node15</title>
<path fill="none" stroke="midnightblue" d="M998.978,-310.455C815.106,-308.288 327.325,-297.512 176,-244 160.064,-238.365 123.702,-211.438 101.162,-194.057"/>
<polygon fill="midnightblue" stroke="midnightblue" points="103.041,-191.084 92.9969,-187.712 98.7457,-196.612 103.041,-191.084"/>
</g>
<!-- Node16 -->
<g id="node16" class="node"><title>Node16</title>
<g id="a_node16"><a xlink:href="_f_t_force_reader_8h.html" target="_top" xlink:title="FTForceReader.h">
<polygon fill="none" stroke="black" points="35.5,-224.5 35.5,-243.5 128.5,-243.5 128.5,-224.5 35.5,-224.5"/>
<text text-anchor="middle" x="82" y="-231.5" font-family="Helvetica,sans-Serif" font-size="10.00">FTForceReader.h</text>
</a>
</g>
</g>
<!-- Node1&#45;&gt;Node16 -->
<g id="edge27" class="edge"><title>Node1&#45;&gt;Node16</title>
<path fill="none" stroke="midnightblue" d="M998.895,-307.667C843.364,-299.98 461.382,-278.944 143,-244 141.537,-243.839 140.055,-243.67 138.56,-243.493"/>
<polygon fill="midnightblue" stroke="midnightblue" points="138.94,-240.014 128.581,-242.237 138.065,-246.959 138.94,-240.014"/>
</g>
<!-- Node17 -->
<g id="node17" class="node"><title>Node17</title>
<g id="a_node17"><a xlink:href="_port_force_reader_8h.html" target="_top" xlink:title="PortForceReader.h">
<polygon fill="none" stroke="black" points="185.5,-224.5 185.5,-243.5 284.5,-243.5 284.5,-224.5 185.5,-224.5"/>
<text text-anchor="middle" x="235" y="-231.5" font-family="Helvetica,sans-Serif" font-size="10.00">PortForceReader.h</text>
</a>
</g>
</g>
<!-- Node1&#45;&gt;Node17 -->
<g id="edge29" class="edge"><title>Node1&#45;&gt;Node17</title>
<path fill="none" stroke="midnightblue" d="M998.808,-304.52C837.24,-289.815 445.225,-254.134 294.976,-240.459"/>
<polygon fill="midnightblue" stroke="midnightblue" points="294.859,-236.934 284.583,-239.513 294.224,-243.905 294.859,-236.934"/>
</g>
<!-- Node18 -->
<g id="node18" class="node"><title>Node18</title>
<g id="a_node18"><a xlink:href="_frame_transformer_8h.html" target="_top" xlink:title="FrameTransformer.h">
<polygon fill="none" stroke="black" points="791.5,-112.5 791.5,-131.5 896.5,-131.5 896.5,-112.5 791.5,-112.5"/>
<text text-anchor="middle" x="844" y="-119.5" font-family="Helvetica,sans-Serif" font-size="10.00">FrameTransformer.h</text>
</a>
</g>
</g>
<!-- Node1&#45;&gt;Node18 -->
<g id="edge32" class="edge"><title>Node1&#45;&gt;Node18</title>
<path fill="none" stroke="midnightblue" d="M998.864,-294.799C959.905,-284.008 911.803,-267.448 873,-244 842.058,-225.302 828.27,-221.218 814,-188 806.837,-171.326 817.605,-152.526 828.18,-139.451"/>
<polygon fill="midnightblue" stroke="midnightblue" points="830.955,-141.594 834.91,-131.765 825.689,-136.982 830.955,-141.594"/>
</g>
<!-- Node20 -->
<g id="node20" class="node"><title>Node20</title>
<g id="a_node20"><a xlink:href="_generic_frame_transformer_8h.html" target="_top" xlink:title="GenericFrameTransformer.h">
<polygon fill="none" stroke="black" points="823.5,-168.5 823.5,-187.5 962.5,-187.5 962.5,-168.5 823.5,-168.5"/>
<text text-anchor="middle" x="893" y="-175.5" font-family="Helvetica,sans-Serif" font-size="10.00">GenericFrameTransformer.h</text>
</a>
</g>
</g>
<!-- Node1&#45;&gt;Node20 -->
<g id="edge34" class="edge"><title>Node1&#45;&gt;Node20</title>
<path fill="none" stroke="midnightblue" d="M998.958,-305.378C957.519,-298.023 908.36,-281.378 882,-244 872.34,-230.302 877.332,-211.004 883.374,-196.996"/>
<polygon fill="midnightblue" stroke="midnightblue" points="886.576,-198.414 887.765,-187.887 880.27,-195.375 886.576,-198.414"/>
</g>
<!-- Node21 -->
<g id="node21" class="node"><title>Node21</title>
<polygon fill="none" stroke="#bfbfbf" points="1102,-112.5 1102,-131.5 1238,-131.5 1238,-112.5 1102,-112.5"/>
<text text-anchor="middle" x="1170" y="-119.5" font-family="Helvetica,sans-Serif" font-size="10.00">iDynTree/Core/Transform.h</text>
</g>
<!-- Node1&#45;&gt;Node21 -->
<g id="edge50" class="edge"><title>Node1&#45;&gt;Node21</title>
<path fill="none" stroke="midnightblue" d="M1075.81,-280.492C1081.13,-261.238 1091.01,-237.53 1109,-224 1200.48,-155.206 1288.94,-274.405 1364,-188 1401.08,-145.318 1317.05,-130.584 1248.18,-125.544"/>
<polygon fill="midnightblue" stroke="midnightblue" points="1248.36,-122.048 1238.15,-124.869 1247.89,-129.032 1248.36,-122.048"/>
</g>
<!-- Node22 -->
<g id="node22" class="node"><title>Node22</title>
<g id="a_node22"><a xlink:href="_robot_frame_transformer_8h.html" target="_top" xlink:title="RobotFrameTransformer.h">
<polygon fill="none" stroke="black" points="891.5,-224.5 891.5,-243.5 1022.5,-243.5 1022.5,-224.5 891.5,-224.5"/>
<text text-anchor="middle" x="957" y="-231.5" font-family="Helvetica,sans-Serif" font-size="10.00">RobotFrameTransformer.h</text>
</a>
</g>
</g>
<!-- Node1&#45;&gt;Node22 -->
<g id="edge37" class="edge"><title>Node1&#45;&gt;Node22</title>
<path fill="none" stroke="midnightblue" d="M1024.36,-280.307C1008.59,-269.699 991.645,-258.301 978.695,-249.591"/>
<polygon fill="midnightblue" stroke="midnightblue" points="980.296,-246.45 970.045,-243.774 976.39,-252.259 980.296,-246.45"/>
</g>
<!-- Node24 -->
<g id="node24" class="node"><title>Node24</title>
<polygon fill="none" stroke="#bfbfbf" points="1198,-168.5 1198,-187.5 1356,-187.5 1356,-168.5 1198,-168.5"/>
<text text-anchor="middle" x="1277" y="-175.5" font-family="Helvetica,sans-Serif" font-size="10.00">iDynTree/Core/VectorDynSize.h</text>
</g>
<!-- Node1&#45;&gt;Node24 -->
<g id="edge49" class="edge"><title>Node1&#45;&gt;Node24</title>
<path fill="none" stroke="midnightblue" d="M1063.28,-280.248C1061.14,-261.871 1062.07,-239.216 1075,-224 1089.96,-206.397 1140.87,-195.124 1187.83,-188.263"/>
<polygon fill="midnightblue" stroke="midnightblue" points="1188.36,-191.723 1197.78,-186.865 1187.39,-184.791 1188.36,-191.723"/>
</g>
<!-- Node25 -->
<g id="node25" class="node"><title>Node25</title>
<polygon fill="none" stroke="#bfbfbf" points="1117.5,-224.5 1117.5,-243.5 1224.5,-243.5 1224.5,-224.5 1117.5,-224.5"/>
<text text-anchor="middle" x="1171" y="-231.5" font-family="Helvetica,sans-Serif" font-size="10.00">yarp/os/LogStream.h</text>
</g>
<!-- Node1&#45;&gt;Node25 -->
<g id="edge44" class="edge"><title>Node1&#45;&gt;Node25</title>
<path fill="none" stroke="midnightblue" d="M1110.79,-280.307C1124.75,-269.802 1139.74,-258.522 1151.27,-249.846"/>
<polygon fill="midnightblue" stroke="midnightblue" points="1153.45,-252.583 1159.34,-243.774 1149.25,-246.99 1153.45,-252.583"/>
</g>
<!-- Node26 -->
<g id="node26" class="node"><title>Node26</title>
<polygon fill="none" stroke="#bfbfbf" points="1242.5,-224.5 1242.5,-243.5 1371.5,-243.5 1371.5,-224.5 1242.5,-224.5"/>
<text text-anchor="middle" x="1307" y="-231.5" font-family="Helvetica,sans-Serif" font-size="10.00">yarp/dev/IAnalogSensor.h</text>
</g>
<!-- Node1&#45;&gt;Node26 -->
<g id="edge45" class="edge"><title>Node1&#45;&gt;Node26</title>
<path fill="none" stroke="midnightblue" d="M1141.11,-288.197C1183.8,-274.508 1236.31,-257.668 1270.67,-246.65"/>
<polygon fill="midnightblue" stroke="midnightblue" points="1271.83,-249.952 1280.29,-243.566 1269.7,-243.287 1271.83,-249.952"/>
</g>
<!-- Node27 -->
<g id="node27" class="node"><title>Node27</title>
<polygon fill="none" stroke="#bfbfbf" points="1390,-224.5 1390,-243.5 1468,-243.5 1468,-224.5 1390,-224.5"/>
<text text-anchor="middle" x="1429" y="-231.5" font-family="Helvetica,sans-Serif" font-size="10.00">yarp/dev/api.h</text>
</g>
<!-- Node1&#45;&gt;Node27 -->
<g id="edge46" class="edge"><title>Node1&#45;&gt;Node27</title>
<path fill="none" stroke="midnightblue" d="M1141.36,-295.894C1212.06,-280.927 1318.44,-258.405 1380.08,-245.357"/>
<polygon fill="midnightblue" stroke="midnightblue" points="1380.88,-248.764 1389.94,-243.269 1379.43,-241.916 1380.88,-248.764"/>
</g>
<!-- Node28 -->
<g id="node28" class="node"><title>Node28</title>
<polygon fill="none" stroke="#bfbfbf" points="1486,-224.5 1486,-243.5 1596,-243.5 1596,-224.5 1486,-224.5"/>
<text text-anchor="middle" x="1541" y="-231.5" font-family="Helvetica,sans-Serif" font-size="10.00">yarp/dev/IEncoders.h</text>
</g>
<!-- Node1&#45;&gt;Node28 -->
<g id="edge47" class="edge"><title>Node1&#45;&gt;Node28</title>
<path fill="none" stroke="midnightblue" d="M1141.02,-299.54C1232.61,-284.761 1390.49,-259.286 1478,-245.166"/>
<polygon fill="midnightblue" stroke="midnightblue" points="1478.74,-248.592 1488.05,-243.543 1477.62,-241.681 1478.74,-248.592"/>
</g>
<!-- Node29 -->
<g id="node29" class="node"><title>Node29</title>
<polygon fill="none" stroke="#bfbfbf" points="1614,-224.5 1614,-243.5 1766,-243.5 1766,-224.5 1614,-224.5"/>
<text text-anchor="middle" x="1690" y="-231.5" font-family="Helvetica,sans-Serif" font-size="10.00">iDynTree/Core/MatrixFixSize.h</text>
</g>
<!-- Node1&#45;&gt;Node29 -->
<g id="edge48" class="edge"><title>Node1&#45;&gt;Node29</title>
<path fill="none" stroke="midnightblue" d="M1141.12,-302.282C1257.76,-287.985 1488.86,-259.655 1610.65,-244.727"/>
<polygon fill="midnightblue" stroke="midnightblue" points="1611.15,-248.191 1620.65,-243.5 1610.3,-241.243 1611.15,-248.191"/>
</g>
<!-- Node30 -->
<g id="node30" class="node"><title>Node30</title>
<polygon fill="none" stroke="#bfbfbf" points="1784.5,-224.5 1784.5,-243.5 1947.5,-243.5 1947.5,-224.5 1784.5,-224.5"/>
<text text-anchor="middle" x="1866" y="-231.5" font-family="Helvetica,sans-Serif" font-size="10.00">iDynTree/ModelIO/ModelLoader.h</text>
</g>
<!-- Node1&#45;&gt;Node30 -->
<g id="edge51" class="edge"><title>Node1&#45;&gt;Node30</title>
<path fill="none" stroke="midnightblue" d="M1141.06,-304.338C1266.42,-292.564 1535.35,-267.218 1773.89,-244.105"/>
<polygon fill="midnightblue" stroke="midnightblue" points="1774.53,-247.559 1784.15,-243.11 1773.86,-240.591 1774.53,-247.559"/>
</g>
<!-- Node31 -->
<g id="node31" class="node"><title>Node31</title>
<polygon fill="none" stroke="#bfbfbf" points="1966,-224.5 1966,-243.5 2020,-243.5 2020,-224.5 1966,-224.5"/>
<text text-anchor="middle" x="1993" y="-231.5" font-family="Helvetica,sans-Serif" font-size="10.00">iostream</text>
</g>
<!-- Node1&#45;&gt;Node31 -->
<g id="edge52" class="edge"><title>Node1&#45;&gt;Node31</title>
<path fill="none" stroke="midnightblue" d="M1141.09,-309.553C1290.44,-305.661 1647.69,-291.888 1955.61,-243.766"/>
<polygon fill="midnightblue" stroke="midnightblue" points="1956.29,-247.202 1965.62,-242.187 1955.2,-240.288 1956.29,-247.202"/>
</g>
<!-- Node32 -->
<g id="node32" class="node"><title>Node32</title>
<polygon fill="none" stroke="#bfbfbf" points="2038.5,-224.5 2038.5,-243.5 2087.5,-243.5 2087.5,-224.5 2038.5,-224.5"/>
<text text-anchor="middle" x="2063" y="-231.5" font-family="Helvetica,sans-Serif" font-size="10.00">cassert</text>
</g>
<!-- Node1&#45;&gt;Node32 -->
<g id="edge53" class="edge"><title>Node1&#45;&gt;Node32</title>
<path fill="none" stroke="midnightblue" d="M1141.22,-310.61C1299.54,-308.754 1692.54,-298.681 2028.32,-243.772"/>
<polygon fill="midnightblue" stroke="midnightblue" points="2028.94,-247.217 2038.24,-242.134 2027.8,-240.31 2028.94,-247.217"/>
</g>
<!-- Node3 -->
<g id="node3" class="node"><title>Node3</title>
<polygon fill="none" stroke="#bfbfbf" points="403.5,-168.5 403.5,-187.5 508.5,-187.5 508.5,-168.5 403.5,-168.5"/>
<text text-anchor="middle" x="456" y="-175.5" font-family="Helvetica,sans-Serif" font-size="10.00">yarp/os/RFModule.h</text>
</g>
<!-- Node2&#45;&gt;Node3 -->
<g id="edge2" class="edge"><title>Node2&#45;&gt;Node3</title>
<path fill="none" stroke="midnightblue" d="M456,-224.083C456,-217.006 456,-206.861 456,-197.986"/>
<polygon fill="midnightblue" stroke="midnightblue" points="459.5,-197.751 456,-187.751 452.5,-197.751 459.5,-197.751"/>
</g>
<!-- Node4 -->
<g id="node4" class="node"><title>Node4</title>
<polygon fill="none" stroke="#bfbfbf" points="651.5,-168.5 651.5,-187.5 766.5,-187.5 766.5,-168.5 651.5,-168.5"/>
<text text-anchor="middle" x="709" y="-175.5" font-family="Helvetica,sans-Serif" font-size="10.00">yarp/os/BufferedPort.h</text>
</g>
<!-- Node2&#45;&gt;Node4 -->
<g id="edge3" class="edge"><title>Node2&#45;&gt;Node4</title>
<path fill="none" stroke="midnightblue" d="M496.089,-224.444C540.316,-215.004 611.539,-199.802 659.285,-189.611"/>
<polygon fill="midnightblue" stroke="midnightblue" points="660.05,-193.027 669.099,-187.516 658.589,-186.181 660.05,-193.027"/>
</g>
<!-- Node5 -->
<g id="node5" class="node"><title>Node5</title>
<polygon fill="none" stroke="#bfbfbf" points="235.5,-168.5 235.5,-187.5 346.5,-187.5 346.5,-168.5 235.5,-168.5"/>
<text text-anchor="middle" x="291" y="-175.5" font-family="Helvetica,sans-Serif" font-size="10.00">yarp/dev/PolyDriver.h</text>
</g>
<!-- Node2&#45;&gt;Node5 -->
<g id="edge4" class="edge"><title>Node2&#45;&gt;Node5</title>
<path fill="none" stroke="midnightblue" d="M429.855,-224.444C401.977,-215.32 357.652,-200.813 326.6,-190.651"/>
<polygon fill="midnightblue" stroke="midnightblue" points="327.615,-187.3 317.022,-187.516 325.438,-193.953 327.615,-187.3"/>
</g>
<!-- Node6 -->
<g id="node6" class="node"><title>Node6</title>
<polygon fill="none" stroke="#bfbfbf" points="133.5,-112.5 133.5,-131.5 224.5,-131.5 224.5,-112.5 133.5,-112.5"/>
<text text-anchor="middle" x="179" y="-119.5" font-family="Helvetica,sans-Serif" font-size="10.00">yarp/sig/Vector.h</text>
</g>
<!-- Node2&#45;&gt;Node6 -->
<g id="edge5" class="edge"><title>Node2&#45;&gt;Node6</title>
<path fill="none" stroke="midnightblue" d="M394.821,-233.053C345.676,-230.415 276.73,-220.444 226,-188 208.27,-176.661 195.094,-156.058 187.274,-141.08"/>
<polygon fill="midnightblue" stroke="midnightblue" points="190.267,-139.233 182.726,-131.792 183.981,-142.312 190.267,-139.233"/>
</g>
<!-- Node7 -->
<g id="node7" class="node"><title>Node7</title>
<g id="a_node7"><a xlink:href="autogenerated_2include_2thrifts_2_human_forces_8h.html" target="_top" xlink:title="thrifts/HumanForces.h">
<polygon fill="none" stroke="black" points="318,-112.5 318,-131.5 432,-131.5 432,-112.5 318,-112.5"/>
<text text-anchor="middle" x="375" y="-119.5" font-family="Helvetica,sans-Serif" font-size="10.00">thrifts/HumanForces.h</text>
</a>
</g>
</g>
<!-- Node2&#45;&gt;Node7 -->
<g id="edge6" class="edge"><title>Node2&#45;&gt;Node7</title>
<path fill="none" stroke="midnightblue" d="M438.542,-224.479C424.543,-216.788 405.412,-204.201 394,-188 384.373,-174.333 379.579,-155.796 377.219,-142.015"/>
<polygon fill="midnightblue" stroke="midnightblue" points="380.634,-141.174 375.756,-131.769 373.704,-142.163 380.634,-141.174"/>
</g>
<!-- Node11 -->
<g id="node11" class="node"><title>Node11</title>
<g id="a_node11"><a xlink:href="autogenerated_2include_2thrifts_2_human_state_8h.html" target="_top" xlink:title="thrifts/HumanState.h">
<polygon fill="none" stroke="black" points="526.5,-168.5 526.5,-187.5 633.5,-187.5 633.5,-168.5 526.5,-168.5"/>
<text text-anchor="middle" x="580" y="-175.5" font-family="Helvetica,sans-Serif" font-size="10.00">thrifts/HumanState.h</text>
</a>
</g>
</g>
<!-- Node2&#45;&gt;Node11 -->
<g id="edge12" class="edge"><title>Node2&#45;&gt;Node11</title>
<path fill="none" stroke="midnightblue" d="M475.648,-224.444C495.965,-215.596 527.903,-201.687 551.098,-191.586"/>
<polygon fill="midnightblue" stroke="midnightblue" points="552.673,-194.718 560.444,-187.516 549.878,-188.3 552.673,-194.718"/>
</g>
<!-- Node8 -->
<g id="node8" class="node"><title>Node8</title>
<polygon fill="none" stroke="#bfbfbf" points="335,-0.5 335,-19.5 415,-19.5 415,-0.5 335,-0.5"/>
<text text-anchor="middle" x="375" y="-7.5" font-family="Helvetica,sans-Serif" font-size="10.00">yarp/os/Wire.h</text>
</g>
<!-- Node7&#45;&gt;Node8 -->
<g id="edge7" class="edge"><title>Node7&#45;&gt;Node8</title>
<path fill="none" stroke="midnightblue" d="M358.595,-112.381C339.01,-100.838 310.172,-79.1173 321,-56 327.045,-43.0941 338.812,-32.5985 349.823,-24.9999"/>
<polygon fill="midnightblue" stroke="midnightblue" points="351.828,-27.8723 358.367,-19.5364 348.057,-21.9748 351.828,-27.8723"/>
</g>
<!-- Node9 -->
<g id="node9" class="node"><title>Node9</title>
<polygon fill="none" stroke="#bfbfbf" points="497,-0.5 497,-19.5 617,-19.5 617,-0.5 497,-0.5"/>
<text text-anchor="middle" x="557" y="-7.5" font-family="Helvetica,sans-Serif" font-size="10.00">yarp/os/idl/WireTypes.h</text>
</g>
<!-- Node7&#45;&gt;Node9 -->
<g id="edge8" class="edge"><title>Node7&#45;&gt;Node9</title>
<path fill="none" stroke="midnightblue" d="M389.281,-112.368C420.645,-93.4121 495.781,-48.0006 533.932,-24.9424"/>
<polygon fill="midnightblue" stroke="midnightblue" points="536.037,-27.7595 542.785,-19.5914 532.416,-21.7687 536.037,-27.7595"/>
</g>
<!-- Node10 -->
<g id="node10" class="node"><title>Node10</title>
<g id="a_node10"><a xlink:href="autogenerated_2include_2thrifts_2_force6_d_8h.html" target="_top" xlink:title="thrifts/Force6D.h">
<polygon fill="none" stroke="black" points="330,-56.5 330,-75.5 420,-75.5 420,-56.5 330,-56.5"/>
<text text-anchor="middle" x="375" y="-63.5" font-family="Helvetica,sans-Serif" font-size="10.00">thrifts/Force6D.h</text>
</a>
</g>
</g>
<!-- Node7&#45;&gt;Node10 -->
<g id="edge9" class="edge"><title>Node7&#45;&gt;Node10</title>
<path fill="none" stroke="midnightblue" d="M375,-112.083C375,-105.006 375,-94.8611 375,-85.9865"/>
<polygon fill="midnightblue" stroke="midnightblue" points="378.5,-85.751 375,-75.7511 371.5,-85.7511 378.5,-85.751"/>
</g>
<!-- Node10&#45;&gt;Node8 -->
<g id="edge10" class="edge"><title>Node10&#45;&gt;Node8</title>
<path fill="none" stroke="midnightblue" d="M375,-56.083C375,-49.0059 375,-38.8611 375,-29.9865"/>
<polygon fill="midnightblue" stroke="midnightblue" points="378.5,-29.751 375,-19.7511 371.5,-29.7511 378.5,-29.751"/>
</g>
<!-- Node10&#45;&gt;Node9 -->
<g id="edge11" class="edge"><title>Node10&#45;&gt;Node9</title>
<path fill="none" stroke="midnightblue" d="M403.838,-56.4435C434.856,-47.2406 484.329,-32.5617 518.618,-22.3879"/>
<polygon fill="midnightblue" stroke="midnightblue" points="519.705,-25.7164 528.296,-19.5164 517.714,-19.0055 519.705,-25.7164"/>
</g>
<!-- Node11&#45;&gt;Node6 -->
<g id="edge22" class="edge"><title>Node11&#45;&gt;Node6</title>
<path fill="none" stroke="midnightblue" d="M526.389,-169.306C523.212,-168.861 520.065,-168.423 517,-168 417.574,-154.28 301.589,-138.995 234.59,-130.236"/>
<polygon fill="midnightblue" stroke="midnightblue" points="235.037,-126.765 224.668,-128.94 234.13,-133.706 235.037,-126.765"/>
</g>
<!-- Node11&#45;&gt;Node8 -->
<g id="edge13" class="edge"><title>Node11&#45;&gt;Node8</title>
<path fill="none" stroke="midnightblue" d="M526.36,-168.98C448.373,-157.195 312.513,-136.144 309,-132 299.596,-120.906 297.466,-86.837 315,-56 322.488,-42.8311 335.562,-32.3375 347.599,-24.8075"/>
<polygon fill="midnightblue" stroke="midnightblue" points="349.609,-27.6871 356.491,-19.6317 346.088,-21.6372 349.609,-27.6871"/>
</g>
<!-- Node11&#45;&gt;Node9 -->
<g id="edge14" class="edge"><title>Node11&#45;&gt;Node9</title>
<path fill="none" stroke="midnightblue" d="M588.023,-168.443C606.023,-148.161 646.431,-95.8802 625,-56 617.378,-41.8153 603.103,-31.3516 589.594,-24.1027"/>
<polygon fill="midnightblue" stroke="midnightblue" points="590.97,-20.8791 580.454,-19.5916 587.872,-27.1562 590.97,-20.8791"/>
</g>
<!-- Node12 -->
<g id="node12" class="node"><title>Node12</title>
<g id="a_node12"><a xlink:href="human-state-provider_2autogenerated_2include_2thrifts_2_quaternion_8h.html" target="_top" xlink:title="thrifts/Quaternion.h">
<polygon fill="none" stroke="black" points="476,-112.5 476,-131.5 576,-131.5 576,-112.5 476,-112.5"/>
<text text-anchor="middle" x="526" y="-119.5" font-family="Helvetica,sans-Serif" font-size="10.00">thrifts/Quaternion.h</text>
</a>
</g>
</g>
<!-- Node11&#45;&gt;Node12 -->
<g id="edge15" class="edge"><title>Node11&#45;&gt;Node12</title>
<path fill="none" stroke="midnightblue" d="M571.083,-168.083C563.22,-160.22 551.569,-148.569 542.081,-139.081"/>
<polygon fill="midnightblue" stroke="midnightblue" points="544.297,-136.347 534.751,-131.751 539.347,-141.297 544.297,-136.347"/>
</g>
<!-- Node13 -->
<g id="node13" class="node"><title>Node13</title>
<g id="a_node13"><a xlink:href="human-state-provider_2autogenerated_2include_2thrifts_2_vector3_8h.html" target="_top" xlink:title="thrifts/Vector3.h">
<polygon fill="none" stroke="black" points="514,-56.5 514,-75.5 600,-75.5 600,-56.5 514,-56.5"/>
<text text-anchor="middle" x="557" y="-63.5" font-family="Helvetica,sans-Serif" font-size="10.00">thrifts/Vector3.h</text>
</a>
</g>
</g>
<!-- Node11&#45;&gt;Node13 -->
<g id="edge21" class="edge"><title>Node11&#45;&gt;Node13</title>
<path fill="none" stroke="midnightblue" d="M582.54,-168.394C585.851,-155.766 590.597,-131.589 585,-112 582.098,-101.844 576.168,-91.747 570.51,-83.6991"/>
<polygon fill="midnightblue" stroke="midnightblue" points="573.219,-81.4786 564.412,-75.5891 567.624,-85.6853 573.219,-81.4786"/>
</g>
<!-- Node12&#45;&gt;Node8 -->
<g id="edge16" class="edge"><title>Node12&#45;&gt;Node8</title>
<path fill="none" stroke="midnightblue" d="M514.151,-112.368C488.35,-93.5728 426.846,-48.7684 394.95,-25.5334"/>
<polygon fill="midnightblue" stroke="midnightblue" points="396.937,-22.6506 386.794,-19.5914 392.816,-28.3085 396.937,-22.6506"/>
</g>
<!-- Node12&#45;&gt;Node9 -->
<g id="edge17" class="edge"><title>Node12&#45;&gt;Node9</title>
<path fill="none" stroke="midnightblue" d="M558.185,-112.488C576.539,-105.801 598.016,-94.4504 609,-76 620.232,-57.1332 599.815,-37.7653 581.36,-25.137"/>
<polygon fill="midnightblue" stroke="midnightblue" points="583.175,-22.1433 572.872,-19.6729 579.386,-28.029 583.175,-22.1433"/>
</g>
<!-- Node12&#45;&gt;Node13 -->
<g id="edge18" class="edge"><title>Node12&#45;&gt;Node13</title>
<path fill="none" stroke="midnightblue" d="M531.119,-112.083C535.408,-104.613 541.658,-93.7244 546.942,-84.5199"/>
<polygon fill="midnightblue" stroke="midnightblue" points="550.033,-86.1662 551.976,-75.7511 543.962,-82.6811 550.033,-86.1662"/>
</g>
<!-- Node13&#45;&gt;Node8 -->
<g id="edge19" class="edge"><title>Node13&#45;&gt;Node8</title>
<path fill="none" stroke="midnightblue" d="M528.162,-56.4435C497.144,-47.2406 447.671,-32.5617 413.382,-22.3879"/>
<polygon fill="midnightblue" stroke="midnightblue" points="414.286,-19.0055 403.704,-19.5164 412.295,-25.7164 414.286,-19.0055"/>
</g>
<!-- Node13&#45;&gt;Node9 -->
<g id="edge20" class="edge"><title>Node13&#45;&gt;Node9</title>
<path fill="none" stroke="midnightblue" d="M557,-56.083C557,-49.0059 557,-38.8611 557,-29.9865"/>
<polygon fill="midnightblue" stroke="midnightblue" points="560.5,-29.751 557,-19.7511 553.5,-29.7511 560.5,-29.751"/>
</g>
<!-- Node15&#45;&gt;Node6 -->
<g id="edge26" class="edge"><title>Node15&#45;&gt;Node6</title>
<path fill="none" stroke="midnightblue" d="M97.5847,-168.324C112.999,-159.743 136.812,-146.486 154.71,-136.522"/>
<polygon fill="midnightblue" stroke="midnightblue" points="156.419,-139.577 163.454,-131.655 153.014,-133.461 156.419,-139.577"/>
</g>
<!-- Node15&#45;&gt;Node14 -->
<g id="edge25" class="edge"><title>Node15&#45;&gt;Node14</title>
<path fill="none" stroke="midnightblue" d="M75.0646,-168.083C69.0708,-160.377 60.2482,-149.033 52.9524,-139.653"/>
<polygon fill="midnightblue" stroke="midnightblue" points="55.7086,-137.496 46.8064,-131.751 50.1831,-141.793 55.7086,-137.496"/>
</g>
<!-- Node16&#45;&gt;Node15 -->
<g id="edge28" class="edge"><title>Node16&#45;&gt;Node15</title>
<path fill="none" stroke="midnightblue" d="M82,-224.083C82,-217.006 82,-206.861 82,-197.986"/>
<polygon fill="midnightblue" stroke="midnightblue" points="85.5001,-197.751 82,-187.751 78.5001,-197.751 85.5001,-197.751"/>
</g>
<!-- Node17&#45;&gt;Node6 -->
<g id="edge31" class="edge"><title>Node17&#45;&gt;Node6</title>
<path fill="none" stroke="midnightblue" d="M223.941,-224.208C214.273,-215.908 200.622,-202.586 193,-188 185.482,-173.613 181.999,-155.418 180.387,-141.941"/>
<polygon fill="midnightblue" stroke="midnightblue" points="183.864,-141.536 179.425,-131.916 176.896,-142.204 183.864,-141.536"/>
</g>
<!-- Node17&#45;&gt;Node15 -->
<g id="edge30" class="edge"><title>Node17&#45;&gt;Node15</title>
<path fill="none" stroke="midnightblue" d="M210.757,-224.444C185.129,-215.399 144.515,-201.064 115.762,-190.916"/>
<polygon fill="midnightblue" stroke="midnightblue" points="116.725,-187.544 106.13,-187.516 114.395,-194.145 116.725,-187.544"/>
</g>
<!-- Node19 -->
<g id="node19" class="node"><title>Node19</title>
<polygon fill="none" stroke="#bfbfbf" points="823.5,-56.5 823.5,-75.5 864.5,-75.5 864.5,-56.5 823.5,-56.5"/>
<text text-anchor="middle" x="844" y="-63.5" font-family="Helvetica,sans-Serif" font-size="10.00">string</text>
</g>
<!-- Node18&#45;&gt;Node19 -->
<g id="edge33" class="edge"><title>Node18&#45;&gt;Node19</title>
<path fill="none" stroke="midnightblue" d="M844,-112.083C844,-105.006 844,-94.8611 844,-85.9865"/>
<polygon fill="midnightblue" stroke="midnightblue" points="847.5,-85.751 844,-75.7511 840.5,-85.7511 847.5,-85.751"/>
</g>
<!-- Node20&#45;&gt;Node18 -->
<g id="edge35" class="edge"><title>Node20&#45;&gt;Node18</title>
<path fill="none" stroke="midnightblue" d="M884.909,-168.083C877.845,-160.298 867.412,-148.801 858.851,-139.367"/>
<polygon fill="midnightblue" stroke="midnightblue" points="861.253,-136.805 851.941,-131.751 856.069,-141.509 861.253,-136.805"/>
</g>
<!-- Node20&#45;&gt;Node21 -->
<g id="edge36" class="edge"><title>Node20&#45;&gt;Node21</title>
<path fill="none" stroke="midnightblue" d="M936.891,-168.444C985.517,-158.964 1063.95,-143.675 1116.22,-133.483"/>
<polygon fill="midnightblue" stroke="midnightblue" points="1117.17,-136.865 1126.31,-131.516 1115.83,-129.995 1117.17,-136.865"/>
</g>
<!-- Node22&#45;&gt;Node4 -->
<g id="edge39" class="edge"><title>Node22&#45;&gt;Node4</title>
<path fill="none" stroke="midnightblue" d="M917.704,-224.444C874.441,-215.023 804.827,-199.866 758.027,-189.675"/>
<polygon fill="midnightblue" stroke="midnightblue" points="758.628,-186.224 748.112,-187.516 757.139,-193.064 758.628,-186.224"/>
</g>
<!-- Node22&#45;&gt;Node11 -->
<g id="edge43" class="edge"><title>Node22&#45;&gt;Node11</title>
<path fill="none" stroke="midnightblue" d="M897.193,-224.497C835.992,-215.787 737.846,-201.793 643.741,-188.249"/>
<polygon fill="midnightblue" stroke="midnightblue" points="644.164,-184.773 633.767,-186.813 643.167,-191.702 644.164,-184.773"/>
</g>
<!-- Node22&#45;&gt;Node20 -->
<g id="edge38" class="edge"><title>Node22&#45;&gt;Node20</title>
<path fill="none" stroke="midnightblue" d="M946.717,-224.324C937.164,-216.263 922.72,-204.077 911.216,-194.369"/>
<polygon fill="midnightblue" stroke="midnightblue" points="913.37,-191.608 903.47,-187.834 908.856,-196.958 913.37,-191.608"/>
</g>
<!-- Node22&#45;&gt;Node21 -->
<g id="edge40" class="edge"><title>Node22&#45;&gt;Node21</title>
<path fill="none" stroke="midnightblue" d="M1022.61,-224.78C1071.03,-217.444 1131.57,-205.191 1150,-188 1162.67,-176.18 1167.39,-156.549 1169.1,-141.948"/>
<polygon fill="midnightblue" stroke="midnightblue" points="1172.63,-141.809 1169.93,-131.562 1165.65,-141.252 1172.63,-141.809"/>
</g>
<!-- Node23 -->
<g id="node23" class="node"><title>Node23</title>
<polygon fill="none" stroke="#bfbfbf" points="980.5,-168.5 980.5,-187.5 1141.5,-187.5 1141.5,-168.5 980.5,-168.5"/>
<text text-anchor="middle" x="1061" y="-175.5" font-family="Helvetica,sans-Serif" font-size="10.00">iDynTree/KinDynComputations.h</text>
</g>
<!-- Node22&#45;&gt;Node23 -->
<g id="edge41" class="edge"><title>Node22&#45;&gt;Node23</title>
<path fill="none" stroke="midnightblue" d="M973.709,-224.324C990.312,-215.703 1016,-202.364 1035.22,-192.386"/>
<polygon fill="midnightblue" stroke="midnightblue" points="1037.07,-195.369 1044.33,-187.655 1033.84,-189.156 1037.07,-195.369"/>
</g>
<!-- Node22&#45;&gt;Node24 -->
<g id="edge42" class="edge"><title>Node22&#45;&gt;Node24</title>
<path fill="none" stroke="midnightblue" d="M1007.7,-224.444C1064.35,-214.885 1156,-199.419 1216.38,-189.23"/>
<polygon fill="midnightblue" stroke="midnightblue" points="1217.25,-192.632 1226.53,-187.516 1216.09,-185.729 1217.25,-192.632"/>
</g>
</g>
</svg>
        <g id="navigator" transform="translate(0 0)" fill="#404254">
                <rect fill="#f2f5e9" fill-opacity="0.5" stroke="#606060" stroke-width=".5" x="0" y="0" width="60" height="60"/>
                <use id="zoomplus" xlink:href="#zoomPlus" x="17" y="9" onmousedown="handleZoom(evt,'in')"/>
                <use id="zoomminus" xlink:href="#zoomMin" x="42" y="9" onmousedown="handleZoom(evt,'out')"/>
                <use id="reset" xlink:href="#resetDef" x="30" y="36" onmousedown="handleReset()"/>
                <g id="arrowUp" xlink:href="#dirArrow" transform="translate(30 24)" onmousedown="handlePan(0,-1)">
                  <use xlink:href="#rim" fill="#404040">
                        <set attributeName="fill" to="#808080" begin="arrowUp.mouseover" end="arrowUp.mouseout"/>
                  </use>
                  <path fill="none" stroke="white" stroke-width="1.5" d="M0,-3.0v7 M-2.5,-0.5L0,-3.0L2.5,-0.5"/>
                </g>
                <g id="arrowRight" xlink:href="#dirArrow" transform="rotate(90) translate(36 -43)" onmousedown="handlePan(1,0)">
                  <use xlink:href="#rim" fill="#404040">
                        <set attributeName="fill" to="#808080" begin="arrowRight.mouseover" end="arrowRight.mouseout"/>
                  </use>
                  <path fill="none" stroke="white" stroke-width="1.5" d="M0,-3.0v7 M-2.5,-0.5L0,-3.0L2.5,-0.5"/>
                </g>
                <g id="arrowDown" xlink:href="#dirArrow" transform="rotate(180) translate(-30 -48)" onmousedown="handlePan(0,1)">
                  <use xlink:href="#rim" fill="#404040">
                        <set attributeName="fill" to="#808080" begin="arrowDown.mouseover" end="arrowDown.mouseout"/>
                  </use>
                  <path fill="none" stroke="white" stroke-width="1.5" d="M0,-3.0v7 M-2.5,-0.5L0,-3.0L2.5,-0.5"/>
                </g>
                <g id="arrowLeft" xlink:href="#dirArrow" transform="rotate(270) translate(-36 17)" onmousedown="handlePan(-1,0)">
                  <use xlink:href="#rim" fill="#404040">
                        <set attributeName="fill" to="#808080" begin="arrowLeft.mouseover" end="arrowLeft.mouseout"/>
                  </use>
                  <path fill="none" stroke="white" stroke-width="1.5" d="M0,-3.0v7 M-2.5,-0.5L0,-3.0L2.5,-0.5"/>
                </g>
        </g>
        <svg viewBox="0 0 15 15" width="100%" height="30px" preserveAspectRatio="xMaxYMin meet">
         <g id="arrow_out" transform="scale(0.3 0.3)">
          <a xlink:href="_human_forces_provider_8cpp__incl_org.svg" target="_base">
           <rect id="button" ry="5" rx="5" y="6" x="6" height="38" width="38"
                fill="#f2f5e9" fill-opacity="0.5" stroke="#606060" stroke-width="1.0"/>
           <path id="arrow"
             d="M 11.500037,31.436501 C 11.940474,20.09759 22.043105,11.32322 32.158766,21.979434 L 37.068811,17.246167 C 37.068811,17.246167 37.088388,32 37.088388,32 L 22.160133,31.978069 C 22.160133,31.978069 26.997745,27.140456 26.997745,27.140456 C 18.528582,18.264221 13.291696,25.230495 11.500037,31.436501 z"
             style="fill:#404040;"/>
          </a>
         </g>
        </svg>
</svg>
