<?xml version="1.0" encoding="UTF-8" standalone="no"?>
<!DOCTYPE svg PUBLIC "-//W3C//DTD SVG 1.1//EN"
 "http://www.w3.org/Graphics/SVG/1.1/DTD/svg11.dtd">
<!-- Generated by graphviz version 2.36.0 (20140111.2315)
 -->
<!-- Title: /home/travis/build/robotology&#45;playground/human&#45;dynamics&#45;estimation/human&#45;viz&#45;bridge/src/HumanJointStateBridge.cpp Pages: 1 -->
<!--zoomable 296 -->
<svg id="main" version="1.1" xmlns="http://www.w3.org/2000/svg" xmlns:xlink="http://www.w3.org/1999/xlink" xml:space="preserve" onload="init(evt)">
<style type="text/css"><![CDATA[
.edge:hover path { stroke: red; }
.edge:hover polygon { stroke: red; fill: red; }
]]></style>
<script type="text/javascript"><![CDATA[
var edges = document.getElementsByTagName('g');
if (edges && edges.length) {
  for (var i=0;i<edges.length;i++) {
    if (edges[i].id.substr(0,4)=='edge') {
      edges[i].setAttribute('class','edge');
    }
  }
}
]]></script>
        <defs>
                <circle id="rim" cx="0" cy="0" r="7"/>
                <circle id="rim2" cx="0" cy="0" r="3.5"/>
                <g id="zoomPlus">
                        <use xlink:href="#rim" fill="#404040">
                                <set attributeName="fill" to="#808080" begin="zoomplus.mouseover" end="zoomplus.mouseout"/>
                        </use>
                        <path d="M-4,0h8M0,-4v8" fill="none" stroke="white" stroke-width="1.5" pointer-events="none"/>
                </g>
                <g id="zoomMin">
                        <use xlink:href="#rim" fill="#404040">
                                <set attributeName="fill" to="#808080" begin="zoomminus.mouseover" end="zoomminus.mouseout"/>
                        </use>
                        <path d="M-4,0h8" fill="none" stroke="white" stroke-width="1.5" pointer-events="none"/>
                </g>
                <g id="dirArrow">
                        <path fill="none" stroke="white" stroke-width="1.5" d="M0,-3.0v7 M-2.5,-0.5L0,-3.0L2.5,-0.5"/>
                </g>
               <g id="resetDef">
                       <use xlink:href="#rim2" fill="#404040">
                               <set attributeName="fill" to="#808080" begin="reset.mouseover" end="reset.mouseout"/>
                       </use>
               </g>
        </defs>

<script type="text/javascript">
var viewWidth = 2619;
var viewHeight = 296;
var sectionId = 'dynsection-0';
</script>
<script xlink:href="svgpan.js"/>
<svg id="graph" class="graph">
<g id="viewport">
<title>/home/travis/build/robotology&#45;playground/human&#45;dynamics&#45;estimation/human&#45;viz&#45;bridge/src/HumanJointStateBridge.cpp</title>
<!-- Node1 -->
<g id="node1" class="node"><title>Node1</title>
<polygon fill="#bfbfbf" stroke="black" points="1520,-224.5 1520,-287.5 1686,-287.5 1686,-224.5 1520,-224.5"/>
<text text-anchor="start" x="1528" y="-275.5" font-family="Helvetica,sans-Serif" font-size="10.00">/home/travis/build</text>
<text text-anchor="start" x="1528" y="-264.5" font-family="Helvetica,sans-Serif" font-size="10.00">/robotology&#45;playground</text>
<text text-anchor="start" x="1528" y="-253.5" font-family="Helvetica,sans-Serif" font-size="10.00">/human&#45;dynamics&#45;estimation</text>
<text text-anchor="start" x="1528" y="-242.5" font-family="Helvetica,sans-Serif" font-size="10.00">/human&#45;viz&#45;bridge/src/HumanJoint</text>
<text text-anchor="middle" x="1603" y="-231.5" font-family="Helvetica,sans-Serif" font-size="10.00">StateBridge.cpp</text>
</g>
<!-- Node2 -->
<g id="node2" class="node"><title>Node2</title>
<polygon fill="none" stroke="#bfbfbf" points="-0.5,-168.5 -0.5,-187.5 146.5,-187.5 146.5,-168.5 -0.5,-168.5"/>
<text text-anchor="middle" x="73" y="-175.5" font-family="Helvetica,sans-Serif" font-size="10.00">geometry_msgs_Quaternion.h</text>
</g>
<!-- Node1&#45;&gt;Node2 -->
<g id="edge1" class="edge"><title>Node1&#45;&gt;Node2</title>
<path fill="none" stroke="midnightblue" d="M1519.64,-252.983C1298.94,-247.247 681.013,-228.617 156.772,-188.094"/>
<polygon fill="midnightblue" stroke="midnightblue" points="156.978,-184.6 146.737,-187.315 156.436,-191.579 156.978,-184.6"/>
</g>
<!-- Node3 -->
<g id="node3" class="node"><title>Node3</title>
<polygon fill="none" stroke="#bfbfbf" points="164.5,-168.5 164.5,-187.5 347.5,-187.5 347.5,-168.5 164.5,-168.5"/>
<text text-anchor="middle" x="256" y="-175.5" font-family="Helvetica,sans-Serif" font-size="10.00">geometry_msgs_TransformStamped.h</text>
</g>
<!-- Node1&#45;&gt;Node3 -->
<g id="edge2" class="edge"><title>Node1&#45;&gt;Node3</title>
<path fill="none" stroke="midnightblue" d="M1519.82,-251.539C1321.03,-243.049 802.493,-219.609 357.808,-188.032"/>
<polygon fill="midnightblue" stroke="midnightblue" points="357.871,-184.528 347.647,-187.308 357.373,-191.51 357.871,-184.528"/>
</g>
<!-- Node4 -->
<g id="node4" class="node"><title>Node4</title>
<polygon fill="none" stroke="#bfbfbf" points="366,-168.5 366,-187.5 500,-187.5 500,-168.5 366,-168.5"/>
<text text-anchor="middle" x="433" y="-175.5" font-family="Helvetica,sans-Serif" font-size="10.00">geometry_msgs_Vector3.h</text>
</g>
<!-- Node1&#45;&gt;Node4 -->
<g id="edge3" class="edge"><title>Node1&#45;&gt;Node4</title>
<path fill="none" stroke="midnightblue" d="M1519.93,-251.473C1338.74,-243.441 894.264,-221.888 510.367,-187.977"/>
<polygon fill="midnightblue" stroke="midnightblue" points="510.44,-184.47 500.169,-187.072 509.821,-191.442 510.44,-184.47"/>
</g>
<!-- Node5 -->
<g id="node5" class="node"><title>Node5</title>
<polygon fill="none" stroke="#bfbfbf" points="518.5,-168.5 518.5,-187.5 595.5,-187.5 595.5,-168.5 518.5,-168.5"/>
<text text-anchor="middle" x="557" y="-175.5" font-family="Helvetica,sans-Serif" font-size="10.00">msgs/String.h</text>
</g>
<!-- Node1&#45;&gt;Node5 -->
<g id="edge4" class="edge"><title>Node1&#45;&gt;Node5</title>
<path fill="none" stroke="midnightblue" d="M1519.88,-252.743C1349.92,-247.405 950.358,-231.15 605.637,-187.919"/>
<polygon fill="midnightblue" stroke="midnightblue" points="606.07,-184.446 595.711,-186.665 605.193,-191.391 606.07,-184.446"/>
</g>
<!-- Node6 -->
<g id="node6" class="node"><title>Node6</title>
<polygon fill="none" stroke="#bfbfbf" points="613.5,-168.5 613.5,-187.5 746.5,-187.5 746.5,-168.5 613.5,-168.5"/>
<text text-anchor="middle" x="680" y="-175.5" font-family="Helvetica,sans-Serif" font-size="10.00">sensor_msgs_JointState.h</text>
</g>
<!-- Node1&#45;&gt;Node6 -->
<g id="edge5" class="edge"><title>Node1&#45;&gt;Node6</title>
<path fill="none" stroke="midnightblue" d="M1519.95,-249.508C1369.9,-239.349 1043.41,-216.159 756.887,-188.051"/>
<polygon fill="midnightblue" stroke="midnightblue" points="757.007,-184.546 746.712,-187.049 756.321,-191.512 757.007,-184.546"/>
</g>
<!-- Node7 -->
<g id="node7" class="node"><title>Node7</title>
<polygon fill="none" stroke="#bfbfbf" points="765,-168.5 765,-187.5 869,-187.5 869,-168.5 765,-168.5"/>
<text text-anchor="middle" x="817" y="-175.5" font-family="Helvetica,sans-Serif" font-size="10.00">std_msgs_Header.h</text>
</g>
<!-- Node1&#45;&gt;Node7 -->
<g id="edge6" class="edge"><title>Node1&#45;&gt;Node7</title>
<path fill="none" stroke="midnightblue" d="M1519.94,-248.8C1386.95,-238.547 1117.79,-216.454 879.468,-188.12"/>
<polygon fill="midnightblue" stroke="midnightblue" points="879.563,-184.606 869.218,-186.895 878.732,-191.557 879.563,-184.606"/>
</g>
<!-- Node8 -->
<g id="node8" class="node"><title>Node8</title>
<polygon fill="none" stroke="#bfbfbf" points="887,-168.5 887,-187.5 1009,-187.5 1009,-168.5 887,-168.5"/>
<text text-anchor="middle" x="948" y="-175.5" font-family="Helvetica,sans-Serif" font-size="10.00">tf2_msgs_TFMessage.h</text>
</g>
<!-- Node1&#45;&gt;Node8 -->
<g id="edge7" class="edge"><title>Node1&#45;&gt;Node8</title>
<path fill="none" stroke="midnightblue" d="M1519.79,-245.768C1408.47,-233.347 1204.64,-210.356 1019.13,-188.002"/>
<polygon fill="midnightblue" stroke="midnightblue" points="1019.53,-184.526 1009.19,-186.803 1018.69,-191.475 1019.53,-184.526"/>
</g>
<!-- Node9 -->
<g id="node9" class="node"><title>Node9</title>
<g id="a_node9"><a xlink:href="autogenerated_2include_2thrifts_2_human_state_8h.html" target="_top" xlink:title="thrifts/HumanState.h">
<polygon fill="none" stroke="black" points="1027.5,-168.5 1027.5,-187.5 1134.5,-187.5 1134.5,-168.5 1027.5,-168.5"/>
<text text-anchor="middle" x="1081" y="-175.5" font-family="Helvetica,sans-Serif" font-size="10.00">thrifts/HumanState.h</text>
</a>
</g>
</g>
<!-- Node1&#45;&gt;Node9 -->
<g id="edge8" class="edge"><title>Node1&#45;&gt;Node9</title>
<path fill="none" stroke="midnightblue" d="M1520,-242.916C1415.64,-227.722 1238.77,-201.97 1144.54,-188.251"/>
<polygon fill="midnightblue" stroke="midnightblue" points="1144.97,-184.777 1134.57,-186.8 1143.96,-191.704 1144.97,-184.777"/>
</g>
<!-- Node15 -->
<g id="node15" class="node"><title>Node15</title>
<polygon fill="none" stroke="#bfbfbf" points="1152.5,-168.5 1152.5,-187.5 1315.5,-187.5 1315.5,-168.5 1152.5,-168.5"/>
<text text-anchor="middle" x="1234" y="-175.5" font-family="Helvetica,sans-Serif" font-size="10.00">iDynTree/ModelIO/ModelLoader.h</text>
</g>
<!-- Node1&#45;&gt;Node15 -->
<g id="edge19" class="edge"><title>Node1&#45;&gt;Node15</title>
<path fill="none" stroke="midnightblue" d="M1519.73,-237.849C1447.79,-223.033 1346.12,-202.092 1285.45,-189.597"/>
<polygon fill="midnightblue" stroke="midnightblue" points="1285.85,-186.105 1275.35,-187.516 1284.43,-192.961 1285.85,-186.105"/>
</g>
<!-- Node16 -->
<g id="node16" class="node"><title>Node16</title>
<polygon fill="none" stroke="#bfbfbf" points="1333.5,-168.5 1333.5,-187.5 1398.5,-187.5 1398.5,-168.5 1333.5,-168.5"/>
<text text-anchor="middle" x="1366" y="-175.5" font-family="Helvetica,sans-Serif" font-size="10.00">TickTime.h</text>
</g>
<!-- Node1&#45;&gt;Node16 -->
<g id="edge20" class="edge"><title>Node1&#45;&gt;Node16</title>
<path fill="none" stroke="midnightblue" d="M1519.78,-228.312C1479.58,-215.422 1433.42,-200.62 1402.25,-190.624"/>
<polygon fill="midnightblue" stroke="midnightblue" points="1403.27,-187.277 1392.68,-187.556 1401.14,-193.943 1403.27,-187.277"/>
</g>
<!-- Node17 -->
<g id="node17" class="node"><title>Node17</title>
<polygon fill="none" stroke="#bfbfbf" points="1416.5,-168.5 1416.5,-187.5 1531.5,-187.5 1531.5,-168.5 1416.5,-168.5"/>
<text text-anchor="middle" x="1474" y="-175.5" font-family="Helvetica,sans-Serif" font-size="10.00">yarp/os/BufferedPort.h</text>
</g>
<!-- Node1&#45;&gt;Node17 -->
<g id="edge21" class="edge"><title>Node1&#45;&gt;Node17</title>
<path fill="none" stroke="midnightblue" d="M1550.9,-224.307C1532.43,-213.425 1512.55,-201.713 1497.63,-192.923"/>
<polygon fill="midnightblue" stroke="midnightblue" points="1499,-189.667 1488.61,-187.607 1495.45,-195.698 1499,-189.667"/>
</g>
<!-- Node18 -->
<g id="node18" class="node"><title>Node18</title>
<polygon fill="none" stroke="#bfbfbf" points="1549.5,-168.5 1549.5,-187.5 1656.5,-187.5 1656.5,-168.5 1549.5,-168.5"/>
<text text-anchor="middle" x="1603" y="-175.5" font-family="Helvetica,sans-Serif" font-size="10.00">yarp/os/LogStream.h</text>
</g>
<!-- Node1&#45;&gt;Node18 -->
<g id="edge22" class="edge"><title>Node1&#45;&gt;Node18</title>
<path fill="none" stroke="midnightblue" d="M1603,-224.088C1603,-215.15 1603,-205.669 1603,-197.719"/>
<polygon fill="midnightblue" stroke="midnightblue" points="1606.5,-197.718 1603,-187.718 1599.5,-197.718 1606.5,-197.718"/>
</g>
<!-- Node19 -->
<g id="node19" class="node"><title>Node19</title>
<polygon fill="none" stroke="#bfbfbf" points="1674.5,-168.5 1674.5,-187.5 1771.5,-187.5 1771.5,-168.5 1674.5,-168.5"/>
<text text-anchor="middle" x="1723" y="-175.5" font-family="Helvetica,sans-Serif" font-size="10.00">yarp/os/Network.h</text>
</g>
<!-- Node1&#45;&gt;Node19 -->
<g id="edge23" class="edge"><title>Node1&#45;&gt;Node19</title>
<path fill="none" stroke="midnightblue" d="M1651.46,-224.307C1668.48,-213.529 1686.79,-201.936 1700.62,-193.175"/>
<polygon fill="midnightblue" stroke="midnightblue" points="1702.83,-195.914 1709.41,-187.607 1699.09,-190 1702.83,-195.914"/>
</g>
<!-- Node20 -->
<g id="node20" class="node"><title>Node20</title>
<polygon fill="none" stroke="#bfbfbf" points="1789.5,-168.5 1789.5,-187.5 1872.5,-187.5 1872.5,-168.5 1789.5,-168.5"/>
<text text-anchor="middle" x="1831" y="-175.5" font-family="Helvetica,sans-Serif" font-size="10.00">yarp/os/Node.h</text>
</g>
<!-- Node1&#45;&gt;Node20 -->
<g id="edge24" class="edge"><title>Node1&#45;&gt;Node20</title>
<path fill="none" stroke="midnightblue" d="M1686.28,-227.24C1723.95,-214.684 1766.45,-200.518 1795.59,-190.802"/>
<polygon fill="midnightblue" stroke="midnightblue" points="1796.94,-194.044 1805.32,-187.561 1794.72,-187.403 1796.94,-194.044"/>
</g>
<!-- Node21 -->
<g id="node21" class="node"><title>Node21</title>
<polygon fill="none" stroke="#bfbfbf" points="1890.5,-168.5 1890.5,-187.5 1991.5,-187.5 1991.5,-168.5 1890.5,-168.5"/>
<text text-anchor="middle" x="1941" y="-175.5" font-family="Helvetica,sans-Serif" font-size="10.00">yarp/os/Publisher.h</text>
</g>
<!-- Node1&#45;&gt;Node21 -->
<g id="edge25" class="edge"><title>Node1&#45;&gt;Node21</title>
<path fill="none" stroke="midnightblue" d="M1686.12,-236.311C1751.12,-221.694 1839.22,-201.886 1892.98,-189.797"/>
<polygon fill="midnightblue" stroke="midnightblue" points="1893.94,-193.168 1902.93,-187.56 1892.41,-186.339 1893.94,-193.168"/>
</g>
<!-- Node22 -->
<g id="node22" class="node"><title>Node22</title>
<polygon fill="none" stroke="#bfbfbf" points="2009.5,-168.5 2009.5,-187.5 2114.5,-187.5 2114.5,-168.5 2009.5,-168.5"/>
<text text-anchor="middle" x="2062" y="-175.5" font-family="Helvetica,sans-Serif" font-size="10.00">yarp/os/RFModule.h</text>
</g>
<!-- Node1&#45;&gt;Node22 -->
<g id="edge26" class="edge"><title>Node1&#45;&gt;Node22</title>
<path fill="none" stroke="midnightblue" d="M1686.12,-241.237C1776.67,-226.244 1919.4,-202.611 2000.43,-189.194"/>
<polygon fill="midnightblue" stroke="midnightblue" points="2001.19,-192.617 2010.48,-187.53 2000.04,-185.711 2001.19,-192.617"/>
</g>
<!-- Node23 -->
<g id="node23" class="node"><title>Node23</title>
<polygon fill="none" stroke="#bfbfbf" points="2133,-168.5 2133,-187.5 2215,-187.5 2215,-168.5 2133,-168.5"/>
<text text-anchor="middle" x="2174" y="-175.5" font-family="Helvetica,sans-Serif" font-size="10.00">yarp/os/Time.h</text>
</g>
<!-- Node1&#45;&gt;Node23 -->
<g id="edge27" class="edge"><title>Node1&#45;&gt;Node23</title>
<path fill="none" stroke="midnightblue" d="M1686.02,-245.51C1786.7,-233.731 1961.77,-212.375 2122.74,-187.971"/>
<polygon fill="midnightblue" stroke="midnightblue" points="2123.47,-191.4 2132.83,-186.434 2122.42,-184.48 2123.47,-191.4"/>
</g>
<!-- Node24 -->
<g id="node24" class="node"><title>Node24</title>
<polygon fill="none" stroke="#bfbfbf" points="2233,-168.5 2233,-187.5 2289,-187.5 2289,-168.5 2233,-168.5"/>
<text text-anchor="middle" x="2261" y="-175.5" font-family="Helvetica,sans-Serif" font-size="10.00">algorithm</text>
</g>
<!-- Node1&#45;&gt;Node24 -->
<g id="edge28" class="edge"><title>Node1&#45;&gt;Node24</title>
<path fill="none" stroke="midnightblue" d="M1686.1,-249.515C1803.7,-240.978 2025.41,-222.04 2222.82,-188"/>
<polygon fill="midnightblue" stroke="midnightblue" points="2223.55,-191.427 2232.8,-186.263 2222.35,-184.531 2223.55,-191.427"/>
</g>
<!-- Node25 -->
<g id="node25" class="node"><title>Node25</title>
<polygon fill="none" stroke="#bfbfbf" points="2307,-168.5 2307,-187.5 2351,-187.5 2351,-168.5 2307,-168.5"/>
<text text-anchor="middle" x="2329" y="-175.5" font-family="Helvetica,sans-Serif" font-size="10.00">cmath</text>
</g>
<!-- Node1&#45;&gt;Node25 -->
<g id="edge29" class="edge"><title>Node1&#45;&gt;Node25</title>
<path fill="none" stroke="midnightblue" d="M1686.19,-251.752C1815.2,-245.66 2071.19,-229.362 2296.7,-187.682"/>
<polygon fill="midnightblue" stroke="midnightblue" points="2297.55,-191.084 2306.74,-185.807 2296.27,-184.203 2297.55,-191.084"/>
</g>
<!-- Node26 -->
<g id="node26" class="node"><title>Node26</title>
<polygon fill="none" stroke="#bfbfbf" points="2369,-168.5 2369,-187.5 2423,-187.5 2423,-168.5 2369,-168.5"/>
<text text-anchor="middle" x="2396" y="-175.5" font-family="Helvetica,sans-Serif" font-size="10.00">iostream</text>
</g>
<!-- Node1&#45;&gt;Node26 -->
<g id="edge30" class="edge"><title>Node1&#45;&gt;Node26</title>
<path fill="none" stroke="midnightblue" d="M1686.01,-251.724C1823.88,-245.386 2108.74,-228.481 2358.62,-187.79"/>
<polygon fill="midnightblue" stroke="midnightblue" points="2359.32,-191.223 2368.62,-186.146 2358.18,-184.315 2359.32,-191.223"/>
</g>
<!-- Node27 -->
<g id="node27" class="node"><title>Node27</title>
<polygon fill="none" stroke="#bfbfbf" points="2441,-168.5 2441,-187.5 2489,-187.5 2489,-168.5 2441,-168.5"/>
<text text-anchor="middle" x="2465" y="-175.5" font-family="Helvetica,sans-Serif" font-size="10.00">limits.h</text>
</g>
<!-- Node1&#45;&gt;Node27 -->
<g id="edge31" class="edge"><title>Node1&#45;&gt;Node27</title>
<path fill="none" stroke="midnightblue" d="M1686.01,-253.377C1834.18,-249.369 2153.84,-235.686 2430.72,-187.896"/>
<polygon fill="midnightblue" stroke="midnightblue" points="2431.72,-191.275 2440.97,-186.109 2430.51,-184.38 2431.72,-191.275"/>
</g>
<!-- Node28 -->
<g id="node28" class="node"><title>Node28</title>
<polygon fill="none" stroke="#bfbfbf" points="2507.5,-168.5 2507.5,-187.5 2548.5,-187.5 2548.5,-168.5 2507.5,-168.5"/>
<text text-anchor="middle" x="2528" y="-175.5" font-family="Helvetica,sans-Serif" font-size="10.00">string</text>
</g>
<!-- Node1&#45;&gt;Node28 -->
<g id="edge32" class="edge"><title>Node1&#45;&gt;Node28</title>
<path fill="none" stroke="midnightblue" d="M1686.13,-254.762C1843.45,-253.009 2195.21,-242.867 2497.65,-187.609"/>
<polygon fill="midnightblue" stroke="midnightblue" points="2498.29,-191.051 2507.49,-185.793 2497.02,-184.167 2498.29,-191.051"/>
</g>
<!-- Node29 -->
<g id="node29" class="node"><title>Node29</title>
<polygon fill="none" stroke="#bfbfbf" points="2567,-168.5 2567,-187.5 2611,-187.5 2611,-168.5 2567,-168.5"/>
<text text-anchor="middle" x="2589" y="-175.5" font-family="Helvetica,sans-Serif" font-size="10.00">vector</text>
</g>
<!-- Node1&#45;&gt;Node29 -->
<g id="edge33" class="edge"><title>Node1&#45;&gt;Node29</title>
<path fill="none" stroke="midnightblue" d="M1686.31,-254.838C1851.24,-253.282 2230.75,-243.554 2556.64,-187.636"/>
<polygon fill="midnightblue" stroke="midnightblue" points="2557.5,-191.04 2566.75,-185.883 2556.3,-184.142 2557.5,-191.04"/>
</g>
<!-- Node10 -->
<g id="node10" class="node"><title>Node10</title>
<polygon fill="none" stroke="#bfbfbf" points="918,-0.5 918,-19.5 998,-19.5 998,-0.5 918,-0.5"/>
<text text-anchor="middle" x="958" y="-7.5" font-family="Helvetica,sans-Serif" font-size="10.00">yarp/os/Wire.h</text>
</g>
<!-- Node9&#45;&gt;Node10 -->
<g id="edge9" class="edge"><title>Node9&#45;&gt;Node10</title>
<path fill="none" stroke="midnightblue" d="M1037.42,-168.463C1001.67,-160.471 955.196,-147.461 944,-132 921.763,-101.29 937.542,-54.2429 948.994,-28.8074"/>
<polygon fill="midnightblue" stroke="midnightblue" points="952.228,-30.1571 953.37,-19.6241 945.908,-27.1458 952.228,-30.1571"/>
</g>
<!-- Node11 -->
<g id="node11" class="node"><title>Node11</title>
<polygon fill="none" stroke="#bfbfbf" points="1016,-0.5 1016,-19.5 1136,-19.5 1136,-0.5 1016,-0.5"/>
<text text-anchor="middle" x="1076" y="-7.5" font-family="Helvetica,sans-Serif" font-size="10.00">yarp/os/idl/WireTypes.h</text>
</g>
<!-- Node9&#45;&gt;Node11 -->
<g id="edge10" class="edge"><title>Node9&#45;&gt;Node11</title>
<path fill="none" stroke="midnightblue" d="M1088.57,-168.338C1105.15,-148.261 1141.81,-97.118 1124,-56 1118.73,-43.8399 1108.38,-33.4594 1098.64,-25.7429"/>
<polygon fill="midnightblue" stroke="midnightblue" points="1100.5,-22.7707 1090.37,-19.6698 1096.36,-28.4116 1100.5,-22.7707"/>
</g>
<!-- Node12 -->
<g id="node12" class="node"><title>Node12</title>
<g id="a_node12"><a xlink:href="human-state-provider_2autogenerated_2include_2thrifts_2_quaternion_8h.html" target="_top" xlink:title="thrifts/Quaternion.h">
<polygon fill="none" stroke="black" points="953,-112.5 953,-131.5 1053,-131.5 1053,-112.5 953,-112.5"/>
<text text-anchor="middle" x="1003" y="-119.5" font-family="Helvetica,sans-Serif" font-size="10.00">thrifts/Quaternion.h</text>
</a>
</g>
</g>
<!-- Node9&#45;&gt;Node12 -->
<g id="edge11" class="edge"><title>Node9&#45;&gt;Node12</title>
<path fill="none" stroke="midnightblue" d="M1068.47,-168.324C1056.41,-159.979 1037.97,-147.212 1023.73,-137.352"/>
<polygon fill="midnightblue" stroke="midnightblue" points="1025.72,-134.469 1015.5,-131.655 1021.73,-140.224 1025.72,-134.469"/>
</g>
<!-- Node13 -->
<g id="node13" class="node"><title>Node13</title>
<g id="a_node13"><a xlink:href="human-state-provider_2autogenerated_2include_2thrifts_2_vector3_8h.html" target="_top" xlink:title="thrifts/Vector3.h">
<polygon fill="none" stroke="black" points="1029,-56.5 1029,-75.5 1115,-75.5 1115,-56.5 1029,-56.5"/>
<text text-anchor="middle" x="1072" y="-63.5" font-family="Helvetica,sans-Serif" font-size="10.00">thrifts/Vector3.h</text>
</a>
</g>
</g>
<!-- Node9&#45;&gt;Node13 -->
<g id="edge17" class="edge"><title>Node9&#45;&gt;Node13</title>
<path fill="none" stroke="midnightblue" d="M1080.29,-168.368C1078.84,-150.617 1075.49,-109.666 1073.52,-85.5974"/>
<polygon fill="midnightblue" stroke="midnightblue" points="1077.01,-85.2727 1072.7,-75.5914 1070.03,-85.8436 1077.01,-85.2727"/>
</g>
<!-- Node14 -->
<g id="node14" class="node"><title>Node14</title>
<polygon fill="none" stroke="#bfbfbf" points="1171.5,-112.5 1171.5,-131.5 1262.5,-131.5 1262.5,-112.5 1171.5,-112.5"/>
<text text-anchor="middle" x="1217" y="-119.5" font-family="Helvetica,sans-Serif" font-size="10.00">yarp/sig/Vector.h</text>
</g>
<!-- Node9&#45;&gt;Node14 -->
<g id="edge18" class="edge"><title>Node9&#45;&gt;Node14</title>
<path fill="none" stroke="midnightblue" d="M1102.55,-168.444C1125.03,-159.517 1160.49,-145.439 1185.98,-135.317"/>
<polygon fill="midnightblue" stroke="midnightblue" points="1187.55,-138.46 1195.55,-131.516 1184.97,-131.954 1187.55,-138.46"/>
</g>
<!-- Node12&#45;&gt;Node10 -->
<g id="edge12" class="edge"><title>Node12&#45;&gt;Node10</title>
<path fill="none" stroke="midnightblue" d="M999.469,-112.368C992.141,-94.4563 975.15,-52.9233 965.342,-28.9482"/>
<polygon fill="midnightblue" stroke="midnightblue" points="968.54,-27.5217 961.515,-19.5914 962.062,-30.1721 968.54,-27.5217"/>
</g>
<!-- Node12&#45;&gt;Node11 -->
<g id="edge13" class="edge"><title>Node12&#45;&gt;Node11</title>
<path fill="none" stroke="midnightblue" d="M1003.55,-112.312C1004.73,-99.1535 1008.46,-73.817 1020,-56 1028.08,-43.5279 1040.77,-32.9176 1052.03,-25.1377"/>
<polygon fill="midnightblue" stroke="midnightblue" points="1054.17,-27.9187 1060.63,-19.5237 1050.35,-22.0557 1054.17,-27.9187"/>
</g>
<!-- Node12&#45;&gt;Node13 -->
<g id="edge14" class="edge"><title>Node12&#45;&gt;Node13</title>
<path fill="none" stroke="midnightblue" d="M1014.09,-112.324C1024.49,-104.185 1040.26,-91.8395 1052.72,-82.0874"/>
<polygon fill="midnightblue" stroke="midnightblue" points="1054.99,-84.7533 1060.71,-75.8339 1050.68,-79.2407 1054.99,-84.7533"/>
</g>
<!-- Node13&#45;&gt;Node10 -->
<g id="edge15" class="edge"><title>Node13&#45;&gt;Node10</title>
<path fill="none" stroke="midnightblue" d="M1053.94,-56.4435C1035.43,-47.6751 1006.42,-33.9355 985.145,-23.8579"/>
<polygon fill="midnightblue" stroke="midnightblue" points="986.515,-20.6343 975.979,-19.5164 983.518,-26.9604 986.515,-20.6343"/>
</g>
<!-- Node13&#45;&gt;Node11 -->
<g id="edge16" class="edge"><title>Node13&#45;&gt;Node11</title>
<path fill="none" stroke="midnightblue" d="M1072.66,-56.083C1073.18,-49.0059 1073.94,-38.8611 1074.59,-29.9865"/>
<polygon fill="midnightblue" stroke="midnightblue" points="1078.1,-29.9823 1075.35,-19.7511 1071.12,-29.4652 1078.1,-29.9823"/>
</g>
</g>
</svg>
        <g id="navigator" transform="translate(0 0)" fill="#404254">
                <rect fill="#f2f5e9" fill-opacity="0.5" stroke="#606060" stroke-width=".5" x="0" y="0" width="60" height="60"/>
                <use id="zoomplus" xlink:href="#zoomPlus" x="17" y="9" onmousedown="handleZoom(evt,'in')"/>
                <use id="zoomminus" xlink:href="#zoomMin" x="42" y="9" onmousedown="handleZoom(evt,'out')"/>
                <use id="reset" xlink:href="#resetDef" x="30" y="36" onmousedown="handleReset()"/>
                <g id="arrowUp" xlink:href="#dirArrow" transform="translate(30 24)" onmousedown="handlePan(0,-1)">
                  <use xlink:href="#rim" fill="#404040">
                        <set attributeName="fill" to="#808080" begin="arrowUp.mouseover" end="arrowUp.mouseout"/>
                  </use>
                  <path fill="none" stroke="white" stroke-width="1.5" d="M0,-3.0v7 M-2.5,-0.5L0,-3.0L2.5,-0.5"/>
                </g>
                <g id="arrowRight" xlink:href="#dirArrow" transform="rotate(90) translate(36 -43)" onmousedown="handlePan(1,0)">
                  <use xlink:href="#rim" fill="#404040">
                        <set attributeName="fill" to="#808080" begin="arrowRight.mouseover" end="arrowRight.mouseout"/>
                  </use>
                  <path fill="none" stroke="white" stroke-width="1.5" d="M0,-3.0v7 M-2.5,-0.5L0,-3.0L2.5,-0.5"/>
                </g>
                <g id="arrowDown" xlink:href="#dirArrow" transform="rotate(180) translate(-30 -48)" onmousedown="handlePan(0,1)">
                  <use xlink:href="#rim" fill="#404040">
                        <set attributeName="fill" to="#808080" begin="arrowDown.mouseover" end="arrowDown.mouseout"/>
                  </use>
                  <path fill="none" stroke="white" stroke-width="1.5" d="M0,-3.0v7 M-2.5,-0.5L0,-3.0L2.5,-0.5"/>
                </g>
                <g id="arrowLeft" xlink:href="#dirArrow" transform="rotate(270) translate(-36 17)" onmousedown="handlePan(-1,0)">
                  <use xlink:href="#rim" fill="#404040">
                        <set attributeName="fill" to="#808080" begin="arrowLeft.mouseover" end="arrowLeft.mouseout"/>
                  </use>
                  <path fill="none" stroke="white" stroke-width="1.5" d="M0,-3.0v7 M-2.5,-0.5L0,-3.0L2.5,-0.5"/>
                </g>
        </g>
        <svg viewBox="0 0 15 15" width="100%" height="30px" preserveAspectRatio="xMaxYMin meet">
         <g id="arrow_out" transform="scale(0.3 0.3)">
          <a xlink:href="_human_joint_state_bridge_8cpp__incl_org.svg" target="_base">
           <rect id="button" ry="5" rx="5" y="6" x="6" height="38" width="38"
                fill="#f2f5e9" fill-opacity="0.5" stroke="#606060" stroke-width="1.0"/>
           <path id="arrow"
             d="M 11.500037,31.436501 C 11.940474,20.09759 22.043105,11.32322 32.158766,21.979434 L 37.068811,17.246167 C 37.068811,17.246167 37.088388,32 37.088388,32 L 22.160133,31.978069 C 22.160133,31.978069 26.997745,27.140456 26.997745,27.140456 C 18.528582,18.264221 13.291696,25.230495 11.500037,31.436501 z"
             style="fill:#404040;"/>
          </a>
         </g>
        </svg>
</svg>
