<?xml version="1.0" encoding="UTF-8" standalone="no"?>
<!DOCTYPE svg PUBLIC "-//W3C//DTD SVG 1.1//EN"
 "http://www.w3.org/Graphics/SVG/1.1/DTD/svg11.dtd">
<!-- Generated by graphviz version 2.36.0 (20140111.2315)
 -->
<!-- Title: /home/travis/build/robotology&#45;playground/human&#45;dynamics&#45;estimation/human&#45;dynamics&#45;estimator/src/HumanDynamicsEstimator.cpp Pages: 1 -->
<svg width="729pt" height="196pt"
 viewBox="0.00 0.00 729.00 196.00" xmlns="http://www.w3.org/2000/svg" xmlns:xlink="http://www.w3.org/1999/xlink">
<g id="graph0" class="graph" transform="scale(1 1) rotate(0) translate(4 192)">
<title>/home/travis/build/robotology&#45;playground/human&#45;dynamics&#45;estimation/human&#45;dynamics&#45;estimator/src/HumanDynamicsEstimator.cpp</title>
<!-- Node1 -->
<g id="node1" class="node"><title>Node1</title>
<polygon fill="#bfbfbf" stroke="black" points="176.5,-124.5 176.5,-187.5 349.5,-187.5 349.5,-124.5 176.5,-124.5"/>
<text text-anchor="start" x="184.5" y="-175.5" font-family="Helvetica,sans-Serif" font-size="10.00">/home/travis/build</text>
<text text-anchor="start" x="184.5" y="-164.5" font-family="Helvetica,sans-Serif" font-size="10.00">/robotology&#45;playground</text>
<text text-anchor="start" x="184.5" y="-153.5" font-family="Helvetica,sans-Serif" font-size="10.00">/human&#45;dynamics&#45;estimation</text>
<text text-anchor="start" x="184.5" y="-142.5" font-family="Helvetica,sans-Serif" font-size="10.00">/human&#45;dynamics&#45;estimator</text>
<text text-anchor="middle" x="263" y="-131.5" font-family="Helvetica,sans-Serif" font-size="10.00">/src/HumanDynamicsEstimator.cpp</text>
</g>
<!-- Node2 -->
<g id="node2" class="node"><title>Node2</title>
<polygon fill="none" stroke="#bfbfbf" points="0,-68.5 0,-87.5 54,-87.5 54,-68.5 0,-68.5"/>
<text text-anchor="middle" x="27" y="-75.5" font-family="Helvetica,sans-Serif" font-size="10.00">iostream</text>
</g>
<!-- Node1&#45;&gt;Node2 -->
<g id="edge1" class="edge"><title>Node1&#45;&gt;Node2</title>
<path fill="none" stroke="midnightblue" d="M176.462,-127.132C137.341,-114.534 93.2428,-100.332 63.1468,-90.6405"/>
<polygon fill="midnightblue" stroke="midnightblue" points="64.0961,-87.2692 53.5046,-87.5354 61.9503,-93.9323 64.0961,-87.2692"/>
</g>
<!-- Node3 -->
<g id="node3" class="node"><title>Node3</title>
<polygon fill="none" stroke="#bfbfbf" points="72.5,-68.5 72.5,-87.5 179.5,-87.5 179.5,-68.5 72.5,-68.5"/>
<text text-anchor="middle" x="126" y="-75.5" font-family="Helvetica,sans-Serif" font-size="10.00">yarp/os/LogStream.h</text>
</g>
<!-- Node1&#45;&gt;Node3 -->
<g id="edge2" class="edge"><title>Node1&#45;&gt;Node3</title>
<path fill="none" stroke="midnightblue" d="M207.672,-124.307C187.869,-113.322 166.54,-101.489 150.646,-92.6724"/>
<polygon fill="midnightblue" stroke="midnightblue" points="151.957,-89.3971 141.515,-87.6067 148.561,-95.5184 151.957,-89.3971"/>
</g>
<!-- Node4 -->
<g id="node4" class="node"><title>Node4</title>
<polygon fill="none" stroke="#bfbfbf" points="314,-1 314,-31 420,-31 420,-1 314,-1"/>
<text text-anchor="start" x="322" y="-19" font-family="Helvetica,sans-Serif" font-size="10.00">iDynTree/Estimation</text>
<text text-anchor="middle" x="367" y="-8" font-family="Helvetica,sans-Serif" font-size="10.00">/BerdyHelper.h</text>
</g>
<!-- Node1&#45;&gt;Node4 -->
<g id="edge3" class="edge"><title>Node1&#45;&gt;Node4</title>
<path fill="none" stroke="midnightblue" d="M236.001,-124.356C224.001,-106.891 215.001,-85.1409 227,-68 244.45,-43.0717 275.422,-30.2844 303.806,-23.7438"/>
<polygon fill="midnightblue" stroke="midnightblue" points="304.635,-27.1464 313.712,-21.6812 303.208,-20.2934 304.635,-27.1464"/>
</g>
<!-- Node5 -->
<g id="node5" class="node"><title>Node5</title>
<polygon fill="none" stroke="#bfbfbf" points="236.5,-68.5 236.5,-87.5 399.5,-87.5 399.5,-68.5 236.5,-68.5"/>
<text text-anchor="middle" x="318" y="-75.5" font-family="Helvetica,sans-Serif" font-size="10.00">iDynTree/ModelIO/ModelLoader.h</text>
</g>
<!-- Node1&#45;&gt;Node5 -->
<g id="edge4" class="edge"><title>Node1&#45;&gt;Node5</title>
<path fill="none" stroke="midnightblue" d="M285.371,-124.088C292.36,-114.43 299.807,-104.14 305.819,-95.8315"/>
<polygon fill="midnightblue" stroke="midnightblue" points="308.663,-97.8713 311.691,-87.7182 302.993,-93.7674 308.663,-97.8713"/>
</g>
<!-- Node6 -->
<g id="node6" class="node"><title>Node6</title>
<polygon fill="none" stroke="#bfbfbf" points="417.5,-68.5 417.5,-87.5 560.5,-87.5 560.5,-68.5 417.5,-68.5"/>
<text text-anchor="middle" x="489" y="-75.5" font-family="Helvetica,sans-Serif" font-size="10.00">iDynTree/Sensors/Sensors.h</text>
</g>
<!-- Node1&#45;&gt;Node6 -->
<g id="edge5" class="edge"><title>Node1&#45;&gt;Node6</title>
<path fill="none" stroke="midnightblue" d="M349.731,-125.834C385.984,-113.643 426.055,-100.167 453.871,-90.8133"/>
<polygon fill="midnightblue" stroke="midnightblue" points="455.172,-94.0685 463.535,-87.5635 452.941,-87.4336 455.172,-94.0685"/>
</g>
<!-- Node7 -->
<g id="node7" class="node"><title>Node7</title>
<g id="a_node7"><a xlink:href="_human_dynamics_estimator_8h.html" target="_top" xlink:title="HumanDynamicsEstimator.h">
<polygon fill="none" stroke="black" points="578.5,-68.5 578.5,-87.5 721.5,-87.5 721.5,-68.5 578.5,-68.5"/>
<text text-anchor="middle" x="650" y="-75.5" font-family="Helvetica,sans-Serif" font-size="10.00">HumanDynamicsEstimator.h</text>
</a>
</g>
</g>
<!-- Node1&#45;&gt;Node7 -->
<g id="edge6" class="edge"><title>Node1&#45;&gt;Node7</title>
<path fill="none" stroke="midnightblue" d="M349.85,-137.944C425.58,-123.072 533.004,-101.976 596.691,-89.4689"/>
<polygon fill="midnightblue" stroke="midnightblue" points="597.387,-92.8992 606.525,-87.5377 596.038,-86.0304 597.387,-92.8992"/>
</g>
<!-- Node7&#45;&gt;Node4 -->
<g id="edge8" class="edge"><title>Node7&#45;&gt;Node4</title>
<path fill="none" stroke="midnightblue" d="M609.754,-68.4672C562.921,-58.538 485.012,-42.0203 430.109,-30.38"/>
<polygon fill="midnightblue" stroke="midnightblue" points="430.646,-26.9162 420.138,-28.266 429.195,-33.764 430.646,-26.9162"/>
</g>
<!-- Node8 -->
<g id="node8" class="node"><title>Node8</title>
<polygon fill="none" stroke="#bfbfbf" points="597.5,-6.5 597.5,-25.5 702.5,-25.5 702.5,-6.5 597.5,-6.5"/>
<text text-anchor="middle" x="650" y="-13.5" font-family="Helvetica,sans-Serif" font-size="10.00">yarp/os/RFModule.h</text>
</g>
<!-- Node7&#45;&gt;Node8 -->
<g id="edge7" class="edge"><title>Node7&#45;&gt;Node8</title>
<path fill="none" stroke="midnightblue" d="M650,-68.4035C650,-59.9381 650,-46.7283 650,-35.8199"/>
<polygon fill="midnightblue" stroke="midnightblue" points="653.5,-35.5806 650,-25.5806 646.5,-35.5806 653.5,-35.5806"/>
</g>
</g>
</svg>
