<?xml version="1.0" encoding="UTF-8" standalone="no"?>
<!DOCTYPE svg PUBLIC "-//W3C//DTD SVG 1.1//EN"
 "http://www.w3.org/Graphics/SVG/1.1/DTD/svg11.dtd">
<!-- Generated by graphviz version 2.36.0 (20140111.2315)
 -->
<!-- Title: /home/travis/build/robotology&#45;playground/human&#45;dynamics&#45;estimation/human&#45;state&#45;provider/src/HumanStateProviderPrivate.cpp Pages: 1 -->
<!--zoomable 376 -->
<svg id="main" version="1.1" xmlns="http://www.w3.org/2000/svg" xmlns:xlink="http://www.w3.org/1999/xlink" xml:space="preserve" onload="init(evt)">
<style type="text/css"><![CDATA[
.edge:hover path { stroke: red; }
.edge:hover polygon { stroke: red; fill: red; }
]]></style>
<script type="text/javascript"><![CDATA[
var edges = document.getElementsByTagName('g');
if (edges && edges.length) {
  for (var i=0;i<edges.length;i++) {
    if (edges[i].id.substr(0,4)=='edge') {
      edges[i].setAttribute('class','edge');
    }
  }
}
]]></script>
        <defs>
                <circle id="rim" cx="0" cy="0" r="7"/>
                <circle id="rim2" cx="0" cy="0" r="3.5"/>
                <g id="zoomPlus">
                        <use xlink:href="#rim" fill="#404040">
                                <set attributeName="fill" to="#808080" begin="zoomplus.mouseover" end="zoomplus.mouseout"/>
                        </use>
                        <path d="M-4,0h8M0,-4v8" fill="none" stroke="white" stroke-width="1.5" pointer-events="none"/>
                </g>
                <g id="zoomMin">
                        <use xlink:href="#rim" fill="#404040">
                                <set attributeName="fill" to="#808080" begin="zoomminus.mouseover" end="zoomminus.mouseout"/>
                        </use>
                        <path d="M-4,0h8" fill="none" stroke="white" stroke-width="1.5" pointer-events="none"/>
                </g>
                <g id="dirArrow">
                        <path fill="none" stroke="white" stroke-width="1.5" d="M0,-3.0v7 M-2.5,-0.5L0,-3.0L2.5,-0.5"/>
                </g>
               <g id="resetDef">
                       <use xlink:href="#rim2" fill="#404040">
                               <set attributeName="fill" to="#808080" begin="reset.mouseover" end="reset.mouseout"/>
                       </use>
               </g>
        </defs>

<script type="text/javascript">
var viewWidth = 2170;
var viewHeight = 376;
var sectionId = 'dynsection-0';
</script>
<script xlink:href="svgpan.js"/>
<svg id="graph" class="graph">
<g id="viewport">
<title>/home/travis/build/robotology&#45;playground/human&#45;dynamics&#45;estimation/human&#45;state&#45;provider/src/HumanStateProviderPrivate.cpp</title>
<!-- Node1 -->
<g id="node1" class="node"><title>Node1</title>
<polygon fill="#bfbfbf" stroke="black" points="1388.49,-304.5 1388.49,-367.5 1548.49,-367.5 1548.49,-304.5 1388.49,-304.5"/>
<text text-anchor="start" x="1396.49" y="-355.5" font-family="Helvetica,sans-Serif" font-size="10.00">/home/travis/build</text>
<text text-anchor="start" x="1396.49" y="-344.5" font-family="Helvetica,sans-Serif" font-size="10.00">/robotology&#45;playground</text>
<text text-anchor="start" x="1396.49" y="-333.5" font-family="Helvetica,sans-Serif" font-size="10.00">/human&#45;dynamics&#45;estimation</text>
<text text-anchor="start" x="1396.49" y="-322.5" font-family="Helvetica,sans-Serif" font-size="10.00">/human&#45;state&#45;provider/src</text>
<text text-anchor="middle" x="1468.49" y="-311.5" font-family="Helvetica,sans-Serif" font-size="10.00">/HumanStateProviderPrivate.cpp</text>
</g>
<!-- Node2 -->
<g id="node2" class="node"><title>Node2</title>
<g id="a_node2"><a xlink:href="_human_state_provider_private_8h.html" target="_top" xlink:title="HumanStateProviderPrivate.h">
<polygon fill="none" stroke="black" points="951.486,-248.5 951.486,-267.5 1097.49,-267.5 1097.49,-248.5 951.486,-248.5"/>
<text text-anchor="middle" x="1024.49" y="-255.5" font-family="Helvetica,sans-Serif" font-size="10.00">HumanStateProviderPrivate.h</text>
</a>
</g>
</g>
<!-- Node1&#45;&gt;Node2 -->
<g id="edge1" class="edge"><title>Node1&#45;&gt;Node2</title>
<path fill="none" stroke="midnightblue" d="M1388.34,-321.281C1300.96,-306.325 1163.15,-282.735 1084.59,-269.289"/>
<polygon fill="midnightblue" stroke="midnightblue" points="1084.83,-265.778 1074.38,-267.541 1083.65,-272.678 1084.83,-265.778"/>
</g>
<!-- Node34 -->
<g id="node34" class="node"><title>Node34</title>
<g id="a_node34"><a xlink:href="_human_i_k_worker_pool_8h.html" target="_top" xlink:title="HumanIKWorkerPool.h">
<polygon fill="none" stroke="black" points="1850.99,-248.5 1850.99,-267.5 1967.99,-267.5 1967.99,-248.5 1850.99,-248.5"/>
<text text-anchor="middle" x="1909.49" y="-255.5" font-family="Helvetica,sans-Serif" font-size="10.00">HumanIKWorkerPool.h</text>
</a>
</g>
</g>
<!-- Node1&#45;&gt;Node34 -->
<g id="edge46" class="edge"><title>Node1&#45;&gt;Node34</title>
<path fill="none" stroke="midnightblue" d="M1548.6,-321.193C1635.47,-306.223 1772.08,-282.679 1849.93,-269.264"/>
<polygon fill="midnightblue" stroke="midnightblue" points="1850.79,-272.667 1860.05,-267.52 1849.6,-265.769 1850.79,-272.667"/>
</g>
<!-- Node3 -->
<g id="node3" class="node"><title>Node3</title>
<g id="a_node3"><a xlink:href="_human_state_provider_8h.html" target="_top" xlink:title="HumanStateProvider.h">
<polygon fill="none" stroke="black" points="1137.49,-186.5 1137.49,-205.5 1253.49,-205.5 1253.49,-186.5 1137.49,-186.5"/>
<text text-anchor="middle" x="1195.49" y="-193.5" font-family="Helvetica,sans-Serif" font-size="10.00">HumanStateProvider.h</text>
</a>
</g>
</g>
<!-- Node2&#45;&gt;Node3 -->
<g id="edge2" class="edge"><title>Node2&#45;&gt;Node3</title>
<path fill="none" stroke="midnightblue" d="M1048.99,-248.403C1078.45,-238.067 1128.06,-220.656 1161.29,-208.999"/>
<polygon fill="midnightblue" stroke="midnightblue" points="1162.75,-212.194 1171.03,-205.581 1160.44,-205.589 1162.75,-212.194"/>
</g>
<!-- Node5 -->
<g id="node5" class="node"><title>Node5</title>
<g id="a_node5"><a xlink:href="autogenerated_2include_2thrifts_2_human_state_8h.html" target="_top" xlink:title="thrifts/HumanState.h">
<polygon fill="none" stroke="black" points="255.986,-186.5 255.986,-205.5 362.986,-205.5 362.986,-186.5 255.986,-186.5"/>
<text text-anchor="middle" x="309.486" y="-193.5" font-family="Helvetica,sans-Serif" font-size="10.00">thrifts/HumanState.h</text>
</a>
</g>
</g>
<!-- Node2&#45;&gt;Node5 -->
<g id="edge4" class="edge"><title>Node2&#45;&gt;Node5</title>
<path fill="none" stroke="midnightblue" d="M951.172,-252.096C841.062,-244.554 626.482,-229.166 444.486,-212 421.174,-209.801 395.637,-207.052 373.107,-204.509"/>
<polygon fill="midnightblue" stroke="midnightblue" points="373.318,-201.01 362.986,-203.358 372.527,-207.966 373.318,-201.01"/>
</g>
<!-- Node10 -->
<g id="node10" class="node"><title>Node10</title>
<polygon fill="none" stroke="#bfbfbf" points="300.986,-124.5 300.986,-143.5 391.986,-143.5 391.986,-124.5 300.986,-124.5"/>
<text text-anchor="middle" x="346.486" y="-131.5" font-family="Helvetica,sans-Serif" font-size="10.00">yarp/sig/Vector.h</text>
</g>
<!-- Node2&#45;&gt;Node10 -->
<g id="edge40" class="edge"><title>Node2&#45;&gt;Node10</title>
<path fill="none" stroke="midnightblue" d="M951.101,-254.256C826.705,-249.019 579.826,-235.932 496.486,-212 447.447,-197.918 395.651,-167.318 367.584,-149.22"/>
<polygon fill="midnightblue" stroke="midnightblue" points="369.296,-146.157 359.014,-143.604 365.46,-152.012 369.296,-146.157"/>
</g>
<!-- Node11 -->
<g id="node11" class="node"><title>Node11</title>
<g id="a_node11"><a xlink:href="autogenerated_2include_2thrifts_2_human_state_provider_service_8h.html" target="_top" xlink:title="thrifts/HumanStateProvider\lService.h">
<polygon fill="none" stroke="black" points="233.986,-57 233.986,-87 368.986,-87 368.986,-57 233.986,-57"/>
<text text-anchor="start" x="241.986" y="-75" font-family="Helvetica,sans-Serif" font-size="10.00">thrifts/HumanStateProvider</text>
<text text-anchor="middle" x="301.486" y="-64" font-family="Helvetica,sans-Serif" font-size="10.00">Service.h</text>
</a>
</g>
</g>
<!-- Node2&#45;&gt;Node11 -->
<g id="edge15" class="edge"><title>Node2&#45;&gt;Node11</title>
<path fill="none" stroke="midnightblue" d="M951.407,-255.203C870.297,-251.736 736.109,-241.599 624.486,-212 567.589,-196.912 413.127,-125.681 340.375,-91.4518"/>
<polygon fill="midnightblue" stroke="midnightblue" points="341.624,-88.1713 331.086,-87.0736 338.64,-94.5032 341.624,-88.1713"/>
</g>
<!-- Node12 -->
<g id="node12" class="node"><title>Node12</title>
<polygon fill="none" stroke="#bfbfbf" points="387.486,-62.5 387.486,-81.5 543.486,-81.5 543.486,-62.5 387.486,-62.5"/>
<text text-anchor="middle" x="465.486" y="-69.5" font-family="Helvetica,sans-Serif" font-size="10.00">iDynTree/Core/MatrixDynSize.h</text>
</g>
<!-- Node2&#45;&gt;Node12 -->
<g id="edge18" class="edge"><title>Node2&#45;&gt;Node12</title>
<path fill="none" stroke="midnightblue" d="M951.354,-255.54C883.118,-252.214 779.372,-242.078 694.486,-212 609.26,-181.801 521.408,-117.304 484.071,-88.0198"/>
<polygon fill="midnightblue" stroke="midnightblue" points="486.103,-85.1637 476.093,-81.6914 481.753,-90.648 486.103,-85.1637"/>
</g>
<!-- Node13 -->
<g id="node13" class="node"><title>Node13</title>
<polygon fill="none" stroke="#bfbfbf" points="1356.49,-62.5 1356.49,-81.5 1514.49,-81.5 1514.49,-62.5 1356.49,-62.5"/>
<text text-anchor="middle" x="1435.49" y="-69.5" font-family="Helvetica,sans-Serif" font-size="10.00">iDynTree/Core/VectorDynSize.h</text>
</g>
<!-- Node2&#45;&gt;Node13 -->
<g id="edge19" class="edge"><title>Node2&#45;&gt;Node13</title>
<path fill="none" stroke="midnightblue" d="M960.09,-248.434C938.128,-242.087 915.782,-231.076 902.486,-212 894.353,-200.332 894.314,-191.64 902.486,-180 962.125,-95.0404 1329.57,-90.4786 1346.49,-88 1356.37,-86.5522 1366.85,-84.8953 1377.02,-83.2232"/>
<polygon fill="midnightblue" stroke="midnightblue" points="1377.76,-86.6483 1387.04,-81.5532 1376.61,-79.7434 1377.76,-86.6483"/>
</g>
<!-- Node14 -->
<g id="node14" class="node"><title>Node14</title>
<polygon fill="none" stroke="#bfbfbf" points="1532.49,-62.5 1532.49,-81.5 1668.49,-81.5 1668.49,-62.5 1532.49,-62.5"/>
<text text-anchor="middle" x="1600.49" y="-69.5" font-family="Helvetica,sans-Serif" font-size="10.00">iDynTree/Core/Transform.h</text>
</g>
<!-- Node2&#45;&gt;Node14 -->
<g id="edge20" class="edge"><title>Node2&#45;&gt;Node14</title>
<path fill="none" stroke="midnightblue" d="M1029.86,-248.487C1035.46,-239.522 1044.38,-224.938 1051.49,-212 1072.53,-173.668 1059.29,-148.532 1095.49,-124 1174.31,-70.5756 1428.15,-101.01 1522.49,-88 1531.61,-86.741 1541.29,-85.1171 1550.61,-83.4046"/>
<polygon fill="midnightblue" stroke="midnightblue" points="1551.36,-86.8243 1560.54,-81.5248 1550.06,-79.9465 1551.36,-86.8243"/>
</g>
<!-- Node15 -->
<g id="node15" class="node"><title>Node15</title>
<polygon fill="none" stroke="#bfbfbf" points="911.986,-186.5 911.986,-205.5 1042.99,-205.5 1042.99,-186.5 911.986,-186.5"/>
<text text-anchor="middle" x="977.486" y="-193.5" font-family="Helvetica,sans-Serif" font-size="10.00">iDynTree/Model/Indeces.h</text>
</g>
<!-- Node2&#45;&gt;Node15 -->
<g id="edge21" class="edge"><title>Node2&#45;&gt;Node15</title>
<path fill="none" stroke="midnightblue" d="M1017.75,-248.403C1010.7,-239.403 999.451,-225.041 990.632,-213.782"/>
<polygon fill="midnightblue" stroke="midnightblue" points="993.129,-211.295 984.207,-205.581 987.618,-215.611 993.129,-211.295"/>
</g>
<!-- Node16 -->
<g id="node16" class="node"><title>Node16</title>
<polygon fill="none" stroke="#bfbfbf" points="1686.99,-62.5 1686.99,-81.5 1847.99,-81.5 1847.99,-62.5 1686.99,-62.5"/>
<text text-anchor="middle" x="1767.49" y="-69.5" font-family="Helvetica,sans-Serif" font-size="10.00">iDynTree/KinDynComputations.h</text>
</g>
<!-- Node2&#45;&gt;Node16 -->
<g id="edge22" class="edge"><title>Node2&#45;&gt;Node16</title>
<path fill="none" stroke="midnightblue" d="M1034.76,-248.214C1044.67,-239.501 1059.84,-225.531 1071.49,-212 1102.69,-175.732 1091.77,-147.421 1133.49,-124 1239.13,-64.6916 1557.14,-101.976 1677.49,-88 1688.57,-86.7129 1700.37,-84.9985 1711.65,-83.1894"/>
<polygon fill="midnightblue" stroke="midnightblue" points="1712.53,-86.5914 1721.82,-81.5108 1711.39,-79.6847 1712.53,-86.5914"/>
</g>
<!-- Node17 -->
<g id="node17" class="node"><title>Node17</title>
<g id="a_node17"><a xlink:href="_inverse_kinematics_8h.html" target="_top" xlink:title="inversekinematics/Inverse\lKinematics.h">
<polygon fill="none" stroke="black" points="723.986,-181 723.986,-211 854.986,-211 854.986,-181 723.986,-181"/>
<text text-anchor="start" x="731.986" y="-199" font-family="Helvetica,sans-Serif" font-size="10.00">inversekinematics/Inverse</text>
<text text-anchor="middle" x="789.486" y="-188" font-family="Helvetica,sans-Serif" font-size="10.00">Kinematics.h</text>
</a>
</g>
</g>
<!-- Node2&#45;&gt;Node17 -->
<g id="edge23" class="edge"><title>Node2&#45;&gt;Node17</title>
<path fill="none" stroke="midnightblue" d="M990.816,-248.403C955.301,-239.336 898.466,-224.825 854.225,-213.529"/>
<polygon fill="midnightblue" stroke="midnightblue" points="854.973,-210.108 844.418,-211.025 853.241,-216.89 854.973,-210.108"/>
</g>
<!-- Node25 -->
<g id="node25" class="node"><title>Node25</title>
<polygon fill="none" stroke="#bfbfbf" points="674.986,-124.5 674.986,-143.5 715.986,-143.5 715.986,-124.5 674.986,-124.5"/>
<text text-anchor="middle" x="695.486" y="-131.5" font-family="Helvetica,sans-Serif" font-size="10.00">string</text>
</g>
<!-- Node2&#45;&gt;Node25 -->
<g id="edge44" class="edge"><title>Node2&#45;&gt;Node25</title>
<path fill="none" stroke="midnightblue" d="M951.414,-255.567C870.892,-252.447 748.277,-242.64 714.486,-212 698.344,-197.364 694.898,-171.399 694.62,-153.704"/>
<polygon fill="midnightblue" stroke="midnightblue" points="698.12,-153.757 694.782,-143.702 691.121,-153.644 698.12,-153.757"/>
</g>
<!-- Node26 -->
<g id="node26" class="node"><title>Node26</title>
<polygon fill="none" stroke="#bfbfbf" points="1271.99,-186.5 1271.99,-205.5 1382.99,-205.5 1382.99,-186.5 1271.99,-186.5"/>
<text text-anchor="middle" x="1327.49" y="-193.5" font-family="Helvetica,sans-Serif" font-size="10.00">yarp/dev/PolyDriver.h</text>
</g>
<!-- Node2&#45;&gt;Node26 -->
<g id="edge36" class="edge"><title>Node2&#45;&gt;Node26</title>
<path fill="none" stroke="midnightblue" d="M1072.25,-248.45C1120.18,-239.748 1196.09,-225.635 1261.49,-212 1267.75,-210.694 1274.34,-209.264 1280.83,-207.823"/>
<polygon fill="midnightblue" stroke="midnightblue" points="1281.89,-211.171 1290.88,-205.565 1280.36,-204.341 1281.89,-211.171"/>
</g>
<!-- Node27 -->
<g id="node27" class="node"><title>Node27</title>
<polygon fill="none" stroke="#bfbfbf" points="1400.99,-186.5 1400.99,-205.5 1533.99,-205.5 1533.99,-186.5 1400.99,-186.5"/>
<text text-anchor="middle" x="1467.49" y="-193.5" font-family="Helvetica,sans-Serif" font-size="10.00">yarp/dev/PreciselyTimed.h</text>
</g>
<!-- Node2&#45;&gt;Node27 -->
<g id="edge37" class="edge"><title>Node2&#45;&gt;Node27</title>
<path fill="none" stroke="midnightblue" d="M1097.82,-249.598C1172.06,-241.732 1290.06,-228.205 1391.49,-212 1399.79,-210.673 1408.57,-209.1 1417.1,-207.479"/>
<polygon fill="midnightblue" stroke="midnightblue" points="1417.81,-210.907 1426.96,-205.567 1416.47,-204.036 1417.81,-210.907"/>
</g>
<!-- Node28 -->
<g id="node28" class="node"><title>Node28</title>
<polygon fill="none" stroke="#bfbfbf" points="1551.99,-186.5 1551.99,-205.5 1666.99,-205.5 1666.99,-186.5 1551.99,-186.5"/>
<text text-anchor="middle" x="1609.49" y="-193.5" font-family="Helvetica,sans-Serif" font-size="10.00">yarp/os/BufferedPort.h</text>
</g>
<!-- Node2&#45;&gt;Node28 -->
<g id="edge38" class="edge"><title>Node2&#45;&gt;Node28</title>
<path fill="none" stroke="midnightblue" d="M1097.77,-253.722C1198.46,-248.516 1385.03,-236.353 1542.49,-212 1550.02,-210.835 1557.97,-209.315 1565.67,-207.691"/>
<polygon fill="midnightblue" stroke="midnightblue" points="1566.55,-211.08 1575.57,-205.517 1565.05,-204.243 1566.55,-211.08"/>
</g>
<!-- Node29 -->
<g id="node29" class="node"><title>Node29</title>
<polygon fill="none" stroke="#bfbfbf" points="1685.49,-186.5 1685.49,-205.5 1763.49,-205.5 1763.49,-186.5 1685.49,-186.5"/>
<text text-anchor="middle" x="1724.49" y="-193.5" font-family="Helvetica,sans-Serif" font-size="10.00">yarp/os/Port.h</text>
</g>
<!-- Node2&#45;&gt;Node29 -->
<g id="edge39" class="edge"><title>Node2&#45;&gt;Node29</title>
<path fill="none" stroke="midnightblue" d="M1097.9,-257.347C1219.19,-256.713 1468.56,-250.304 1675.49,-212 1680.55,-211.063 1685.83,-209.782 1690.97,-208.362"/>
<polygon fill="midnightblue" stroke="midnightblue" points="1691.99,-211.709 1700.58,-205.511 1690,-204.998 1691.99,-211.709"/>
</g>
<!-- Node30 -->
<g id="node30" class="node"><title>Node30</title>
<polygon fill="none" stroke="#bfbfbf" points="107.986,-186.5 107.986,-205.5 166.986,-205.5 166.986,-186.5 107.986,-186.5"/>
<text text-anchor="middle" x="137.486" y="-193.5" font-family="Helvetica,sans-Serif" font-size="10.00">Eigen/QR</text>
</g>
<!-- Node2&#45;&gt;Node30 -->
<g id="edge41" class="edge"><title>Node2&#45;&gt;Node30</title>
<path fill="none" stroke="midnightblue" d="M951.286,-256.056C773.616,-253.292 323.377,-243.323 176.486,-212 172.974,-211.251 169.362,-210.231 165.82,-209.073"/>
<polygon fill="midnightblue" stroke="midnightblue" points="166.758,-205.689 156.164,-205.552 164.36,-212.266 166.758,-205.689"/>
</g>
<!-- Node31 -->
<g id="node31" class="node"><title>Node31</title>
<polygon fill="none" stroke="#bfbfbf" points="185.486,-186.5 185.486,-205.5 237.486,-205.5 237.486,-186.5 185.486,-186.5"/>
<text text-anchor="middle" x="211.486" y="-193.5" font-family="Helvetica,sans-Serif" font-size="10.00">memory</text>
</g>
<!-- Node2&#45;&gt;Node31 -->
<g id="edge42" class="edge"><title>Node2&#45;&gt;Node31</title>
<path fill="none" stroke="midnightblue" d="M951.446,-255.994C784.477,-253.174 379.082,-243.233 246.486,-212 243.59,-211.318 240.631,-210.412 237.72,-209.382"/>
<polygon fill="midnightblue" stroke="midnightblue" points="238.756,-206.027 228.172,-205.549 236.148,-212.523 238.756,-206.027"/>
</g>
<!-- Node32 -->
<g id="node32" class="node"><title>Node32</title>
<polygon fill="none" stroke="#bfbfbf" points="1781.49,-186.5 1781.49,-205.5 1825.49,-205.5 1825.49,-186.5 1781.49,-186.5"/>
<text text-anchor="middle" x="1803.49" y="-193.5" font-family="Helvetica,sans-Serif" font-size="10.00">mutex</text>
</g>
<!-- Node2&#45;&gt;Node32 -->
<g id="edge43" class="edge"><title>Node2&#45;&gt;Node32</title>
<path fill="none" stroke="midnightblue" d="M1097.53,-256.209C1259.91,-253.866 1646.45,-244.904 1772.49,-212 1774.83,-211.388 1777.21,-210.595 1779.55,-209.692"/>
<polygon fill="midnightblue" stroke="midnightblue" points="1781.1,-212.832 1788.8,-205.555 1778.24,-206.441 1781.1,-212.832"/>
</g>
<!-- Node33 -->
<g id="node33" class="node"><title>Node33</title>
<polygon fill="none" stroke="#bfbfbf" points="1843.49,-186.5 1843.49,-205.5 1887.49,-205.5 1887.49,-186.5 1843.49,-186.5"/>
<text text-anchor="middle" x="1865.49" y="-193.5" font-family="Helvetica,sans-Serif" font-size="10.00">vector</text>
</g>
<!-- Node2&#45;&gt;Node33 -->
<g id="edge45" class="edge"><title>Node2&#45;&gt;Node33</title>
<path fill="none" stroke="midnightblue" d="M1097.62,-256.487C1269.57,-254.709 1695.38,-246.816 1833.49,-212 1835.98,-211.37 1838.52,-210.543 1841.03,-209.601"/>
<polygon fill="midnightblue" stroke="midnightblue" points="1842.53,-212.764 1850.3,-205.567 1839.74,-206.344 1842.53,-212.764"/>
</g>
<!-- Node4 -->
<g id="node4" class="node"><title>Node4</title>
<polygon fill="none" stroke="#bfbfbf" points="1142.99,-124.5 1142.99,-143.5 1247.99,-143.5 1247.99,-124.5 1142.99,-124.5"/>
<text text-anchor="middle" x="1195.49" y="-131.5" font-family="Helvetica,sans-Serif" font-size="10.00">yarp/os/RFModule.h</text>
</g>
<!-- Node3&#45;&gt;Node4 -->
<g id="edge3" class="edge"><title>Node3&#45;&gt;Node4</title>
<path fill="none" stroke="midnightblue" d="M1195.49,-186.403C1195.49,-177.938 1195.49,-164.728 1195.49,-153.82"/>
<polygon fill="midnightblue" stroke="midnightblue" points="1198.99,-153.581 1195.49,-143.581 1191.99,-153.581 1198.99,-153.581"/>
</g>
<!-- Node6 -->
<g id="node6" class="node"><title>Node6</title>
<polygon fill="none" stroke="#bfbfbf" points="0.485544,-0.5 0.485544,-19.5 80.4855,-19.5 80.4855,-0.5 0.485544,-0.5"/>
<text text-anchor="middle" x="40.4855" y="-7.5" font-family="Helvetica,sans-Serif" font-size="10.00">yarp/os/Wire.h</text>
</g>
<!-- Node5&#45;&gt;Node6 -->
<g id="edge5" class="edge"><title>Node5&#45;&gt;Node6</title>
<path fill="none" stroke="midnightblue" d="M275.919,-186.475C266.436,-184.212 256.085,-181.878 246.486,-180 194.853,-169.899 46.7427,-183.931 12.4855,-144 -15.9643,-110.839 11.3911,-56.0662 28.707,-28.2953"/>
<polygon fill="midnightblue" stroke="midnightblue" points="31.7923,-29.9707 34.3052,-19.6781 25.9223,-26.1571 31.7923,-29.9707"/>
</g>
<!-- Node7 -->
<g id="node7" class="node"><title>Node7</title>
<polygon fill="none" stroke="#bfbfbf" points="129.486,-0.5 129.486,-19.5 249.486,-19.5 249.486,-0.5 129.486,-0.5"/>
<text text-anchor="middle" x="189.486" y="-7.5" font-family="Helvetica,sans-Serif" font-size="10.00">yarp/os/idl/WireTypes.h</text>
</g>
<!-- Node5&#45;&gt;Node7 -->
<g id="edge6" class="edge"><title>Node5&#45;&gt;Node7</title>
<path fill="none" stroke="midnightblue" d="M301.419,-186.392C285.308,-168.891 248.626,-127.465 224.486,-88 212.906,-69.0692 202.801,-45.6554 196.464,-29.6488"/>
<polygon fill="midnightblue" stroke="midnightblue" points="199.569,-27.9705 192.708,-19.8968 193.037,-30.4866 199.569,-27.9705"/>
</g>
<!-- Node8 -->
<g id="node8" class="node"><title>Node8</title>
<g id="a_node8"><a xlink:href="human-state-provider_2autogenerated_2include_2thrifts_2_quaternion_8h.html" target="_top" xlink:title="thrifts/Quaternion.h">
<polygon fill="none" stroke="black" points="21.4855,-124.5 21.4855,-143.5 121.486,-143.5 121.486,-124.5 21.4855,-124.5"/>
<text text-anchor="middle" x="71.4855" y="-131.5" font-family="Helvetica,sans-Serif" font-size="10.00">thrifts/Quaternion.h</text>
</a>
</g>
</g>
<!-- Node5&#45;&gt;Node8 -->
<g id="edge7" class="edge"><title>Node5&#45;&gt;Node8</title>
<path fill="none" stroke="midnightblue" d="M275.639,-186.467C233.433,-175.827 161.218,-157.622 114.957,-145.959"/>
<polygon fill="midnightblue" stroke="midnightblue" points="115.768,-142.554 105.216,-143.503 114.057,-149.342 115.768,-142.554"/>
</g>
<!-- Node9 -->
<g id="node9" class="node"><title>Node9</title>
<g id="a_node9"><a xlink:href="human-state-provider_2autogenerated_2include_2thrifts_2_vector3_8h.html" target="_top" xlink:title="thrifts/Vector3.h">
<polygon fill="none" stroke="black" points="91.4855,-62.5 91.4855,-81.5 177.486,-81.5 177.486,-62.5 91.4855,-62.5"/>
<text text-anchor="middle" x="134.486" y="-69.5" font-family="Helvetica,sans-Serif" font-size="10.00">thrifts/Vector3.h</text>
</a>
</g>
</g>
<!-- Node5&#45;&gt;Node9 -->
<g id="edge13" class="edge"><title>Node5&#45;&gt;Node9</title>
<path fill="none" stroke="midnightblue" d="M279.242,-186.446C254.048,-178.312 218.112,-164.29 191.486,-144 171.911,-129.084 155.064,-106.051 144.866,-90.2905"/>
<polygon fill="midnightblue" stroke="midnightblue" points="147.676,-88.1829 139.411,-81.5547 141.739,-91.8906 147.676,-88.1829"/>
</g>
<!-- Node5&#45;&gt;Node10 -->
<g id="edge14" class="edge"><title>Node5&#45;&gt;Node10</title>
<path fill="none" stroke="midnightblue" d="M314.787,-186.403C320.282,-177.493 329.019,-163.325 335.93,-152.118"/>
<polygon fill="midnightblue" stroke="midnightblue" points="338.924,-153.929 341.194,-143.581 332.966,-150.255 338.924,-153.929"/>
</g>
<!-- Node8&#45;&gt;Node6 -->
<g id="edge8" class="edge"><title>Node8&#45;&gt;Node6</title>
<path fill="none" stroke="midnightblue" d="M66.178,-124.394C61.0187,-115.591 53.4047,-101.351 49.4855,-88 43.8114,-68.6712 41.6957,-45.6235 40.9171,-29.8124"/>
<polygon fill="midnightblue" stroke="midnightblue" points="44.4119,-29.6029 40.5546,-19.7351 37.4164,-29.8545 44.4119,-29.6029"/>
</g>
<!-- Node8&#45;&gt;Node7 -->
<g id="edge9" class="edge"><title>Node8&#45;&gt;Node7</title>
<path fill="none" stroke="midnightblue" d="M70.1762,-124.335C68.3434,-108.888 66.8096,-76.3115 82.4855,-56 94.9627,-39.8333 114.328,-29.4144 133.173,-22.7261"/>
<polygon fill="midnightblue" stroke="midnightblue" points="134.509,-25.9724 142.941,-19.5579 132.349,-19.3139 134.509,-25.9724"/>
</g>
<!-- Node8&#45;&gt;Node9 -->
<g id="edge10" class="edge"><title>Node8&#45;&gt;Node9</title>
<path fill="none" stroke="midnightblue" d="M80.5119,-124.403C90.2426,-115.136 105.944,-100.183 117.909,-88.7876"/>
<polygon fill="midnightblue" stroke="midnightblue" points="120.648,-91.0117 125.476,-81.5806 115.821,-85.9427 120.648,-91.0117"/>
</g>
<!-- Node9&#45;&gt;Node6 -->
<g id="edge11" class="edge"><title>Node9&#45;&gt;Node6</title>
<path fill="none" stroke="midnightblue" d="M121.018,-62.4035C105.801,-52.6905 80.7988,-36.7319 62.6848,-25.1697"/>
<polygon fill="midnightblue" stroke="midnightblue" points="64.2408,-22.0108 53.9285,-19.5806 60.4746,-27.9112 64.2408,-22.0108"/>
</g>
<!-- Node9&#45;&gt;Node7 -->
<g id="edge12" class="edge"><title>Node9&#45;&gt;Node7</title>
<path fill="none" stroke="midnightblue" d="M142.366,-62.4035C150.779,-53.2252 164.305,-38.4699 174.711,-27.1173"/>
<polygon fill="midnightblue" stroke="midnightblue" points="177.443,-29.3172 181.62,-19.5806 172.283,-24.5871 177.443,-29.3172"/>
</g>
<!-- Node11&#45;&gt;Node6 -->
<g id="edge16" class="edge"><title>Node11&#45;&gt;Node6</title>
<path fill="none" stroke="midnightblue" d="M240.293,-56.9327C193.564,-46.1904 130.133,-31.6087 87.3802,-21.7804"/>
<polygon fill="midnightblue" stroke="midnightblue" points="88.0457,-18.3422 77.5158,-19.5127 86.4774,-25.1642 88.0457,-18.3422"/>
</g>
<!-- Node11&#45;&gt;Node7 -->
<g id="edge17" class="edge"><title>Node11&#45;&gt;Node7</title>
<path fill="none" stroke="midnightblue" d="M275.227,-56.9327C257.006,-47.1715 232.867,-34.2401 214.845,-24.5856"/>
<polygon fill="midnightblue" stroke="midnightblue" points="216.007,-21.2371 205.539,-19.6 212.701,-27.4075 216.007,-21.2371"/>
</g>
<!-- Node18 -->
<g id="node18" class="node"><title>Node18</title>
<g id="a_node18"><a xlink:href="_inverse_kinematics_v2_i_p_o_p_t_8h.html" target="_top" xlink:title="InverseKinematicsV2IPOPT.h">
<polygon fill="none" stroke="black" points="734.486,-124.5 734.486,-143.5 882.486,-143.5 882.486,-124.5 734.486,-124.5"/>
<text text-anchor="middle" x="808.486" y="-131.5" font-family="Helvetica,sans-Serif" font-size="10.00">InverseKinematicsV2IPOPT.h</text>
</a>
</g>
</g>
<!-- Node17&#45;&gt;Node18 -->
<g id="edge24" class="edge"><title>Node17&#45;&gt;Node18</title>
<path fill="none" stroke="midnightblue" d="M793.988,-180.781C796.578,-172.601 799.861,-162.234 802.648,-153.434"/>
<polygon fill="midnightblue" stroke="midnightblue" points="806.039,-154.321 805.721,-143.731 799.365,-152.207 806.039,-154.321"/>
</g>
<!-- Node17&#45;&gt;Node25 -->
<g id="edge35" class="edge"><title>Node17&#45;&gt;Node25</title>
<path fill="none" stroke="midnightblue" d="M767.209,-180.781C752.192,-171.196 732.469,-158.606 717.506,-149.056"/>
<polygon fill="midnightblue" stroke="midnightblue" points="719.202,-145.986 708.889,-143.556 715.436,-151.886 719.202,-145.986"/>
</g>
<!-- Node18&#45;&gt;Node12 -->
<g id="edge28" class="edge"><title>Node18&#45;&gt;Node12</title>
<path fill="none" stroke="midnightblue" d="M759.706,-124.467C697.606,-113.604 590.423,-94.8549 523.993,-83.2346"/>
<polygon fill="midnightblue" stroke="midnightblue" points="524.55,-79.7789 514.097,-81.5034 523.344,-86.6742 524.55,-79.7789"/>
</g>
<!-- Node18&#45;&gt;Node13 -->
<g id="edge27" class="edge"><title>Node18&#45;&gt;Node13</title>
<path fill="none" stroke="midnightblue" d="M882.892,-125.274C887.491,-124.832 892.05,-124.404 896.486,-124 1096.3,-105.792 1147.37,-112.696 1346.49,-88 1357.2,-86.671 1368.6,-84.9707 1379.53,-83.1953"/>
<polygon fill="midnightblue" stroke="midnightblue" points="1380.11,-86.6458 1389.4,-81.5521 1378.97,-79.7407 1380.11,-86.6458"/>
</g>
<!-- Node18&#45;&gt;Node14 -->
<g id="edge29" class="edge"><title>Node18&#45;&gt;Node14</title>
<path fill="none" stroke="midnightblue" d="M882.747,-129.52C1039.64,-121.97 1400.43,-103.519 1522.49,-88 1531.83,-86.8121 1541.74,-85.1905 1551.25,-83.451"/>
<polygon fill="midnightblue" stroke="midnightblue" points="1552.19,-86.8347 1561.36,-81.5322 1550.88,-79.9574 1552.19,-86.8347"/>
</g>
<!-- Node18&#45;&gt;Node16 -->
<g id="edge32" class="edge"><title>Node18&#45;&gt;Node16</title>
<path fill="none" stroke="midnightblue" d="M882.522,-130.249C1063.43,-123.351 1524.3,-104.677 1677.49,-88 1688.81,-86.7668 1700.88,-85.0424 1712.38,-83.2002"/>
<polygon fill="midnightblue" stroke="midnightblue" points="1713,-86.6439 1722.3,-81.5603 1711.86,-79.7376 1713,-86.6439"/>
</g>
<!-- Node19 -->
<g id="node19" class="node"><title>Node19</title>
<polygon fill="none" stroke="#bfbfbf" points="644.986,-62.5 644.986,-81.5 713.986,-81.5 713.986,-62.5 644.986,-62.5"/>
<text text-anchor="middle" x="679.486" y="-69.5" font-family="Helvetica,sans-Serif" font-size="10.00">IpTNLP.hpp</text>
</g>
<!-- Node18&#45;&gt;Node19 -->
<g id="edge25" class="edge"><title>Node18&#45;&gt;Node19</title>
<path fill="none" stroke="midnightblue" d="M790.003,-124.403C768.354,-114.334 732.273,-97.5522 707.253,-85.9151"/>
<polygon fill="midnightblue" stroke="midnightblue" points="708.477,-82.6244 697.934,-81.5806 705.525,-88.9715 708.477,-82.6244"/>
</g>
<!-- Node20 -->
<g id="node20" class="node"><title>Node20</title>
<polygon fill="none" stroke="#bfbfbf" points="731.986,-62.5 731.986,-81.5 884.986,-81.5 884.986,-62.5 731.986,-62.5"/>
<text text-anchor="middle" x="808.486" y="-69.5" font-family="Helvetica,sans-Serif" font-size="10.00">iDynTree/Core/VectorFixSize.h</text>
</g>
<!-- Node18&#45;&gt;Node20 -->
<g id="edge26" class="edge"><title>Node18&#45;&gt;Node20</title>
<path fill="none" stroke="midnightblue" d="M808.486,-124.403C808.486,-115.938 808.486,-102.728 808.486,-91.8199"/>
<polygon fill="midnightblue" stroke="midnightblue" points="811.986,-91.5806 808.486,-81.5806 804.986,-91.5806 811.986,-91.5806"/>
</g>
<!-- Node21 -->
<g id="node21" class="node"><title>Node21</title>
<polygon fill="none" stroke="#bfbfbf" points="902.986,-62.5 902.986,-81.5 1025.99,-81.5 1025.99,-62.5 902.986,-62.5"/>
<text text-anchor="middle" x="964.486" y="-69.5" font-family="Helvetica,sans-Serif" font-size="10.00">iDynTree/Model/Model.h</text>
</g>
<!-- Node18&#45;&gt;Node21 -->
<g id="edge30" class="edge"><title>Node18&#45;&gt;Node21</title>
<path fill="none" stroke="midnightblue" d="M830.837,-124.403C857.48,-114.156 902.2,-96.9561 932.5,-85.3021"/>
<polygon fill="midnightblue" stroke="midnightblue" points="934.099,-88.4372 942.176,-81.5806 931.586,-81.9037 934.099,-88.4372"/>
</g>
<!-- Node22 -->
<g id="node22" class="node"><title>Node22</title>
<polygon fill="none" stroke="#bfbfbf" points="1043.99,-62.5 1043.99,-81.5 1206.99,-81.5 1206.99,-62.5 1043.99,-62.5"/>
<text text-anchor="middle" x="1125.49" y="-69.5" font-family="Helvetica,sans-Serif" font-size="10.00">iDynTree/ModelIO/ModelLoader.h</text>
</g>
<!-- Node18&#45;&gt;Node22 -->
<g id="edge31" class="edge"><title>Node18&#45;&gt;Node22</title>
<path fill="none" stroke="midnightblue" d="M853.567,-124.467C910.725,-113.649 1009.21,-95.0087 1070.65,-83.3781"/>
<polygon fill="midnightblue" stroke="midnightblue" points="1071.38,-86.8021 1080.56,-81.5034 1070.08,-79.9242 1071.38,-86.8021"/>
</g>
<!-- Node23 -->
<g id="node23" class="node"><title>Node23</title>
<polygon fill="none" stroke="#bfbfbf" points="1224.99,-62.5 1224.99,-81.5 1337.99,-81.5 1337.99,-62.5 1224.99,-62.5"/>
<text text-anchor="middle" x="1281.49" y="-69.5" font-family="Helvetica,sans-Serif" font-size="10.00">IpIpoptApplication.hpp</text>
</g>
<!-- Node18&#45;&gt;Node23 -->
<g id="edge33" class="edge"><title>Node18&#45;&gt;Node23</title>
<path fill="none" stroke="midnightblue" d="M882.852,-125.24C991.334,-113.849 1183.59,-93.3703 1215.49,-88 1222.66,-86.7929 1230.21,-85.293 1237.56,-83.7124"/>
<polygon fill="midnightblue" stroke="midnightblue" points="1238.38,-87.1158 1247.38,-81.5269 1236.86,-80.283 1238.38,-87.1158"/>
</g>
<!-- Node24 -->
<g id="node24" class="node"><title>Node24</title>
<polygon fill="none" stroke="#bfbfbf" points="561.986,-62.5 561.986,-81.5 626.986,-81.5 626.986,-62.5 561.986,-62.5"/>
<text text-anchor="middle" x="594.486" y="-69.5" font-family="Helvetica,sans-Serif" font-size="10.00">Eigen/Core</text>
</g>
<!-- Node18&#45;&gt;Node24 -->
<g id="edge34" class="edge"><title>Node18&#45;&gt;Node24</title>
<path fill="none" stroke="midnightblue" d="M771.409,-124.45C736.178,-116.068 681.847,-102.474 635.486,-88 632.542,-87.081 629.498,-86.0752 626.461,-85.0334"/>
<polygon fill="midnightblue" stroke="midnightblue" points="627.504,-81.6899 616.909,-81.6454 625.164,-88.2871 627.504,-81.6899"/>
</g>
<!-- Node34&#45;&gt;Node32 -->
<g id="edge47" class="edge"><title>Node34&#45;&gt;Node32</title>
<path fill="none" stroke="midnightblue" d="M1894.3,-248.403C1876.82,-238.512 1847.91,-222.144 1827.4,-210.538"/>
<polygon fill="midnightblue" stroke="midnightblue" points="1829.07,-207.461 1818.64,-205.581 1825.62,-213.553 1829.07,-207.461"/>
</g>
<!-- Node34&#45;&gt;Node33 -->
<g id="edge51" class="edge"><title>Node34&#45;&gt;Node33</title>
<path fill="none" stroke="midnightblue" d="M1903.18,-248.403C1896.58,-239.403 1886.05,-225.041 1877.79,-213.782"/>
<polygon fill="midnightblue" stroke="midnightblue" points="1880.51,-211.575 1871.78,-205.581 1874.87,-215.714 1880.51,-211.575"/>
</g>
<!-- Node35 -->
<g id="node35" class="node"><title>Node35</title>
<polygon fill="none" stroke="#bfbfbf" points="1905.99,-186.5 1905.99,-205.5 2000.99,-205.5 2000.99,-186.5 1905.99,-186.5"/>
<text text-anchor="middle" x="1953.49" y="-193.5" font-family="Helvetica,sans-Serif" font-size="10.00">condition_variable</text>
</g>
<!-- Node34&#45;&gt;Node35 -->
<g id="edge48" class="edge"><title>Node34&#45;&gt;Node35</title>
<path fill="none" stroke="midnightblue" d="M1915.79,-248.403C1922.39,-239.403 1932.92,-225.041 1941.18,-213.782"/>
<polygon fill="midnightblue" stroke="midnightblue" points="1944.1,-215.714 1947.19,-205.581 1938.46,-211.575 1944.1,-215.714"/>
</g>
<!-- Node36 -->
<g id="node36" class="node"><title>Node36</title>
<polygon fill="none" stroke="#bfbfbf" points="2018.99,-186.5 2018.99,-205.5 2101.99,-205.5 2101.99,-186.5 2018.99,-186.5"/>
<text text-anchor="middle" x="2060.49" y="-193.5" font-family="Helvetica,sans-Serif" font-size="10.00">unordered_map</text>
</g>
<!-- Node34&#45;&gt;Node36 -->
<g id="edge49" class="edge"><title>Node34&#45;&gt;Node36</title>
<path fill="none" stroke="midnightblue" d="M1931.12,-248.403C1956.91,-238.156 2000.2,-220.956 2029.53,-209.302"/>
<polygon fill="midnightblue" stroke="midnightblue" points="2030.89,-212.526 2038.89,-205.581 2028.31,-206.021 2030.89,-212.526"/>
</g>
<!-- Node37 -->
<g id="node37" class="node"><title>Node37</title>
<polygon fill="none" stroke="#bfbfbf" points="2119.99,-186.5 2119.99,-205.5 2162.99,-205.5 2162.99,-186.5 2119.99,-186.5"/>
<text text-anchor="middle" x="2141.49" y="-193.5" font-family="Helvetica,sans-Serif" font-size="10.00">queue</text>
</g>
<!-- Node34&#45;&gt;Node37 -->
<g id="edge50" class="edge"><title>Node34&#45;&gt;Node37</title>
<path fill="none" stroke="midnightblue" d="M1963.32,-248.431C2004.34,-241.071 2061.86,-228.952 2110.49,-212 2112.39,-211.336 2114.33,-210.586 2116.27,-209.785"/>
<polygon fill="midnightblue" stroke="midnightblue" points="2118.04,-212.826 2125.7,-205.507 2115.14,-206.452 2118.04,-212.826"/>
</g>
</g>
</svg>
        <g id="navigator" transform="translate(0 0)" fill="#404254">
                <rect fill="#f2f5e9" fill-opacity="0.5" stroke="#606060" stroke-width=".5" x="0" y="0" width="60" height="60"/>
                <use id="zoomplus" xlink:href="#zoomPlus" x="17" y="9" onmousedown="handleZoom(evt,'in')"/>
                <use id="zoomminus" xlink:href="#zoomMin" x="42" y="9" onmousedown="handleZoom(evt,'out')"/>
                <use id="reset" xlink:href="#resetDef" x="30" y="36" onmousedown="handleReset()"/>
                <g id="arrowUp" xlink:href="#dirArrow" transform="translate(30 24)" onmousedown="handlePan(0,-1)">
                  <use xlink:href="#rim" fill="#404040">
                        <set attributeName="fill" to="#808080" begin="arrowUp.mouseover" end="arrowUp.mouseout"/>
                  </use>
                  <path fill="none" stroke="white" stroke-width="1.5" d="M0,-3.0v7 M-2.5,-0.5L0,-3.0L2.5,-0.5"/>
                </g>
                <g id="arrowRight" xlink:href="#dirArrow" transform="rotate(90) translate(36 -43)" onmousedown="handlePan(1,0)">
                  <use xlink:href="#rim" fill="#404040">
                        <set attributeName="fill" to="#808080" begin="arrowRight.mouseover" end="arrowRight.mouseout"/>
                  </use>
                  <path fill="none" stroke="white" stroke-width="1.5" d="M0,-3.0v7 M-2.5,-0.5L0,-3.0L2.5,-0.5"/>
                </g>
                <g id="arrowDown" xlink:href="#dirArrow" transform="rotate(180) translate(-30 -48)" onmousedown="handlePan(0,1)">
                  <use xlink:href="#rim" fill="#404040">
                        <set attributeName="fill" to="#808080" begin="arrowDown.mouseover" end="arrowDown.mouseout"/>
                  </use>
                  <path fill="none" stroke="white" stroke-width="1.5" d="M0,-3.0v7 M-2.5,-0.5L0,-3.0L2.5,-0.5"/>
                </g>
                <g id="arrowLeft" xlink:href="#dirArrow" transform="rotate(270) translate(-36 17)" onmousedown="handlePan(-1,0)">
                  <use xlink:href="#rim" fill="#404040">
                        <set attributeName="fill" to="#808080" begin="arrowLeft.mouseover" end="arrowLeft.mouseout"/>
                  </use>
                  <path fill="none" stroke="white" stroke-width="1.5" d="M0,-3.0v7 M-2.5,-0.5L0,-3.0L2.5,-0.5"/>
                </g>
        </g>
        <svg viewBox="0 0 15 15" width="100%" height="30px" preserveAspectRatio="xMaxYMin meet">
         <g id="arrow_out" transform="scale(0.3 0.3)">
          <a xlink:href="_human_state_provider_private_8cpp__incl_org.svg" target="_base">
           <rect id="button" ry="5" rx="5" y="6" x="6" height="38" width="38"
                fill="#f2f5e9" fill-opacity="0.5" stroke="#606060" stroke-width="1.0"/>
           <path id="arrow"
             d="M 11.500037,31.436501 C 11.940474,20.09759 22.043105,11.32322 32.158766,21.979434 L 37.068811,17.246167 C 37.068811,17.246167 37.088388,32 37.088388,32 L 22.160133,31.978069 C 22.160133,31.978069 26.997745,27.140456 26.997745,27.140456 C 18.528582,18.264221 13.291696,25.230495 11.500037,31.436501 z"
             style="fill:#404040;"/>
          </a>
         </g>
        </svg>
</svg>
