<?xml version="1.0" encoding="UTF-8" standalone="no"?>
<!DOCTYPE svg PUBLIC "-//W3C//DTD SVG 1.1//EN"
 "http://www.w3.org/Graphics/SVG/1.1/DTD/svg11.dtd">
<!-- Generated by graphviz version 2.36.0 (20140111.2315)
 -->
<!-- Title: /home/travis/build/robotology&#45;playground/human&#45;dynamics&#45;estimation/inverse&#45;kinematics/include/inversekinematics/InverseKinematicsV2IPOPT.h Pages: 1 -->
<svg width="1467pt" height="140pt"
 viewBox="0.00 0.00 1467.00 140.00" xmlns="http://www.w3.org/2000/svg" xmlns:xlink="http://www.w3.org/1999/xlink">
<g id="graph0" class="graph" transform="scale(1 1) rotate(0) translate(4 136)">
<title>/home/travis/build/robotology&#45;playground/human&#45;dynamics&#45;estimation/inverse&#45;kinematics/include/inversekinematics/InverseKinematicsV2IPOPT.h</title>
<!-- Node1 -->
<g id="node1" class="node"><title>Node1</title>
<polygon fill="#bfbfbf" stroke="black" points="659,-57 659,-131 841,-131 841,-57 659,-57"/>
<text text-anchor="start" x="667" y="-119" font-family="Helvetica,sans-Serif" font-size="10.00">/home/travis/build</text>
<text text-anchor="start" x="667" y="-108" font-family="Helvetica,sans-Serif" font-size="10.00">/robotology&#45;playground</text>
<text text-anchor="start" x="667" y="-97" font-family="Helvetica,sans-Serif" font-size="10.00">/human&#45;dynamics&#45;estimation</text>
<text text-anchor="start" x="667" y="-86" font-family="Helvetica,sans-Serif" font-size="10.00">/inverse&#45;kinematics/include</text>
<text text-anchor="start" x="667" y="-75" font-family="Helvetica,sans-Serif" font-size="10.00">/inversekinematics/InverseKinematics</text>
<text text-anchor="middle" x="750" y="-64" font-family="Helvetica,sans-Serif" font-size="10.00">V2IPOPT.h</text>
</g>
<!-- Node2 -->
<g id="node2" class="node"><title>Node2</title>
<polygon fill="none" stroke="#bfbfbf" points="-0.5,-0.5 -0.5,-19.5 68.5,-19.5 68.5,-0.5 -0.5,-0.5"/>
<text text-anchor="middle" x="34" y="-7.5" font-family="Helvetica,sans-Serif" font-size="10.00">IpTNLP.hpp</text>
</g>
<!-- Node1&#45;&gt;Node2 -->
<g id="edge1" class="edge"><title>Node1&#45;&gt;Node2</title>
<path fill="none" stroke="midnightblue" d="M658.73,-85.9641C530.99,-75.4775 291.537,-53.4941 78.7898,-20.1598"/>
<polygon fill="midnightblue" stroke="midnightblue" points="79.1032,-16.666 68.6797,-18.5638 78.0117,-23.5804 79.1032,-16.666"/>
</g>
<!-- Node3 -->
<g id="node3" class="node"><title>Node3</title>
<polygon fill="none" stroke="#bfbfbf" points="86.5,-0.5 86.5,-19.5 239.5,-19.5 239.5,-0.5 86.5,-0.5"/>
<text text-anchor="middle" x="163" y="-7.5" font-family="Helvetica,sans-Serif" font-size="10.00">iDynTree/Core/VectorFixSize.h</text>
</g>
<!-- Node1&#45;&gt;Node3 -->
<g id="edge2" class="edge"><title>Node1&#45;&gt;Node3</title>
<path fill="none" stroke="midnightblue" d="M658.925,-80.2775C541.783,-63.9135 340.761,-35.8321 234.181,-20.9435"/>
<polygon fill="midnightblue" stroke="midnightblue" points="234.555,-17.4619 224.167,-19.5447 233.587,-24.3946 234.555,-17.4619"/>
</g>
<!-- Node4 -->
<g id="node4" class="node"><title>Node4</title>
<polygon fill="none" stroke="#bfbfbf" points="258,-0.5 258,-19.5 416,-19.5 416,-0.5 258,-0.5"/>
<text text-anchor="middle" x="337" y="-7.5" font-family="Helvetica,sans-Serif" font-size="10.00">iDynTree/Core/VectorDynSize.h</text>
</g>
<!-- Node1&#45;&gt;Node4 -->
<g id="edge3" class="edge"><title>Node1&#45;&gt;Node4</title>
<path fill="none" stroke="midnightblue" d="M658.854,-74.9032C576.383,-58.5288 457.769,-34.9784 389.948,-21.5127"/>
<polygon fill="midnightblue" stroke="midnightblue" points="390.407,-18.0356 379.917,-19.521 389.044,-24.9015 390.407,-18.0356"/>
</g>
<!-- Node5 -->
<g id="node5" class="node"><title>Node5</title>
<polygon fill="none" stroke="#bfbfbf" points="434,-0.5 434,-19.5 590,-19.5 590,-0.5 434,-0.5"/>
<text text-anchor="middle" x="512" y="-7.5" font-family="Helvetica,sans-Serif" font-size="10.00">iDynTree/Core/MatrixDynSize.h</text>
</g>
<!-- Node1&#45;&gt;Node5 -->
<g id="edge4" class="edge"><title>Node1&#45;&gt;Node5</title>
<path fill="none" stroke="midnightblue" d="M658.664,-61.5312C619.381,-47.9967 575.84,-32.9953 546.482,-22.8805"/>
<polygon fill="midnightblue" stroke="midnightblue" points="547.315,-19.4654 536.72,-19.517 545.034,-26.0836 547.315,-19.4654"/>
</g>
<!-- Node6 -->
<g id="node6" class="node"><title>Node6</title>
<polygon fill="none" stroke="#bfbfbf" points="608,-0.5 608,-19.5 744,-19.5 744,-0.5 608,-0.5"/>
<text text-anchor="middle" x="676" y="-7.5" font-family="Helvetica,sans-Serif" font-size="10.00">iDynTree/Core/Transform.h</text>
</g>
<!-- Node1&#45;&gt;Node6 -->
<g id="edge5" class="edge"><title>Node1&#45;&gt;Node6</title>
<path fill="none" stroke="midnightblue" d="M717.327,-56.7949C708.035,-46.498 698.373,-35.7921 690.731,-27.3231"/>
<polygon fill="midnightblue" stroke="midnightblue" points="693.147,-24.7769 683.849,-19.6978 687.951,-29.4666 693.147,-24.7769"/>
</g>
<!-- Node7 -->
<g id="node7" class="node"><title>Node7</title>
<polygon fill="none" stroke="#bfbfbf" points="762.5,-0.5 762.5,-19.5 885.5,-19.5 885.5,-0.5 762.5,-0.5"/>
<text text-anchor="middle" x="824" y="-7.5" font-family="Helvetica,sans-Serif" font-size="10.00">iDynTree/Model/Model.h</text>
</g>
<!-- Node1&#45;&gt;Node7 -->
<g id="edge6" class="edge"><title>Node1&#45;&gt;Node7</title>
<path fill="none" stroke="midnightblue" d="M782.673,-56.7949C791.965,-46.498 801.627,-35.7921 809.269,-27.3231"/>
<polygon fill="midnightblue" stroke="midnightblue" points="812.049,-29.4666 816.151,-19.6978 806.853,-24.7769 812.049,-29.4666"/>
</g>
<!-- Node8 -->
<g id="node8" class="node"><title>Node8</title>
<polygon fill="none" stroke="#bfbfbf" points="903.5,-0.5 903.5,-19.5 1066.5,-19.5 1066.5,-0.5 903.5,-0.5"/>
<text text-anchor="middle" x="985" y="-7.5" font-family="Helvetica,sans-Serif" font-size="10.00">iDynTree/ModelIO/ModelLoader.h</text>
</g>
<!-- Node1&#45;&gt;Node8 -->
<g id="edge7" class="edge"><title>Node1&#45;&gt;Node8</title>
<path fill="none" stroke="midnightblue" d="M841.193,-61.1793C879.74,-47.7289 922.269,-32.8891 951.006,-22.8616"/>
<polygon fill="midnightblue" stroke="midnightblue" points="952.278,-26.1249 960.567,-19.5257 949.972,-19.5157 952.278,-26.1249"/>
</g>
<!-- Node9 -->
<g id="node9" class="node"><title>Node9</title>
<polygon fill="none" stroke="#bfbfbf" points="1084.5,-0.5 1084.5,-19.5 1245.5,-19.5 1245.5,-0.5 1084.5,-0.5"/>
<text text-anchor="middle" x="1165" y="-7.5" font-family="Helvetica,sans-Serif" font-size="10.00">iDynTree/KinDynComputations.h</text>
</g>
<!-- Node1&#45;&gt;Node9 -->
<g id="edge8" class="edge"><title>Node1&#45;&gt;Node9</title>
<path fill="none" stroke="midnightblue" d="M841.074,-75.0048C923.909,-58.6372 1043.35,-35.0377 1111.66,-21.5396"/>
<polygon fill="midnightblue" stroke="midnightblue" points="1112.63,-24.9152 1121.76,-19.5431 1111.27,-18.048 1112.63,-24.9152"/>
</g>
<!-- Node10 -->
<g id="node10" class="node"><title>Node10</title>
<polygon fill="none" stroke="#bfbfbf" points="1263.5,-0.5 1263.5,-19.5 1376.5,-19.5 1376.5,-0.5 1263.5,-0.5"/>
<text text-anchor="middle" x="1320" y="-7.5" font-family="Helvetica,sans-Serif" font-size="10.00">IpIpoptApplication.hpp</text>
</g>
<!-- Node1&#45;&gt;Node10 -->
<g id="edge9" class="edge"><title>Node1&#45;&gt;Node10</title>
<path fill="none" stroke="midnightblue" d="M841.264,-79.8708C956.2,-63.3362 1150.96,-35.3181 1253.04,-20.6334"/>
<polygon fill="midnightblue" stroke="midnightblue" points="1253.82,-24.057 1263.22,-19.1686 1252.82,-17.1283 1253.82,-24.057"/>
</g>
<!-- Node11 -->
<g id="node11" class="node"><title>Node11</title>
<polygon fill="none" stroke="#bfbfbf" points="1394.5,-0.5 1394.5,-19.5 1459.5,-19.5 1459.5,-0.5 1394.5,-0.5"/>
<text text-anchor="middle" x="1427" y="-7.5" font-family="Helvetica,sans-Serif" font-size="10.00">Eigen/Core</text>
</g>
<!-- Node1&#45;&gt;Node11 -->
<g id="edge10" class="edge"><title>Node1&#45;&gt;Node11</title>
<path fill="none" stroke="midnightblue" d="M841.079,-85.318C962.682,-74.4372 1184.88,-52.3764 1384.41,-19.9403"/>
<polygon fill="midnightblue" stroke="midnightblue" points="1385.2,-23.3589 1394.5,-18.2887 1384.07,-16.4509 1385.2,-23.3589"/>
</g>
</g>
</svg>
