<?xml version="1.0" encoding="UTF-8" standalone="no"?>
<!DOCTYPE svg PUBLIC "-//W3C//DTD SVG 1.1//EN"
 "http://www.w3.org/Graphics/SVG/1.1/DTD/svg11.dtd">
<!-- Generated by graphviz version 2.36.0 (20140111.2315)
 -->
<!-- Title: /home/travis/build/robotology&#45;playground/human&#45;dynamics&#45;estimation/inverse&#45;kinematics/include/inversekinematics/InverseKinematicsV2IPOPT.h Pages: 1 -->
<svg width="937pt" height="384pt"
 viewBox="0.00 0.00 937.00 384.00" xmlns="http://www.w3.org/2000/svg" xmlns:xlink="http://www.w3.org/1999/xlink">
<g id="graph0" class="graph" transform="scale(1 1) rotate(0) translate(4 380)">
<title>/home/travis/build/robotology&#45;playground/human&#45;dynamics&#45;estimation/inverse&#45;kinematics/include/inversekinematics/InverseKinematicsV2IPOPT.h</title>
<!-- Node1 -->
<g id="node1" class="node"><title>Node1</title>
<polygon fill="#bfbfbf" stroke="black" points="444,-301 444,-375 626,-375 626,-301 444,-301"/>
<text text-anchor="start" x="452" y="-363" font-family="Helvetica,sans-Serif" font-size="10.00">/home/travis/build</text>
<text text-anchor="start" x="452" y="-352" font-family="Helvetica,sans-Serif" font-size="10.00">/robotology&#45;playground</text>
<text text-anchor="start" x="452" y="-341" font-family="Helvetica,sans-Serif" font-size="10.00">/human&#45;dynamics&#45;estimation</text>
<text text-anchor="start" x="452" y="-330" font-family="Helvetica,sans-Serif" font-size="10.00">/inverse&#45;kinematics/include</text>
<text text-anchor="start" x="452" y="-319" font-family="Helvetica,sans-Serif" font-size="10.00">/inversekinematics/InverseKinematics</text>
<text text-anchor="middle" x="535" y="-308" font-family="Helvetica,sans-Serif" font-size="10.00">V2IPOPT.h</text>
</g>
<!-- Node2 -->
<g id="node2" class="node"><title>Node2</title>
<g id="a_node2"><a xlink:href="_inverse_kinematics_8h.html" target="_top" xlink:title="/home/travis/build\l/robotology&#45;playground\l/human&#45;dynamics&#45;estimation\l/inverse&#45;kinematics/include\l/inversekinematics/InverseKinematics.h">
<polygon fill="none" stroke="black" points="332.5,-200.5 332.5,-263.5 523.5,-263.5 523.5,-200.5 332.5,-200.5"/>
<text text-anchor="start" x="340.5" y="-251.5" font-family="Helvetica,sans-Serif" font-size="10.00">/home/travis/build</text>
<text text-anchor="start" x="340.5" y="-240.5" font-family="Helvetica,sans-Serif" font-size="10.00">/robotology&#45;playground</text>
<text text-anchor="start" x="340.5" y="-229.5" font-family="Helvetica,sans-Serif" font-size="10.00">/human&#45;dynamics&#45;estimation</text>
<text text-anchor="start" x="340.5" y="-218.5" font-family="Helvetica,sans-Serif" font-size="10.00">/inverse&#45;kinematics/include</text>
<text text-anchor="middle" x="428" y="-207.5" font-family="Helvetica,sans-Serif" font-size="10.00">/inversekinematics/InverseKinematics.h</text>
</a>
</g>
</g>
<!-- Node1&#45;&gt;Node2 -->
<g id="edge1" class="edge"><title>Node1&#45;&gt;Node2</title>
<path fill="none" stroke="midnightblue" d="M490.465,-293.713C480.143,-283.681 469.362,-273.203 459.72,-263.831"/>
<polygon fill="midnightblue" stroke="midnightblue" points="488.267,-296.458 497.877,-300.918 493.145,-291.438 488.267,-296.458"/>
</g>
<!-- Node10 -->
<g id="node10" class="node"><title>Node10</title>
<g id="a_node10"><a xlink:href="_inverse_kinematics_v2_i_p_o_p_t_8cpp.html" target="_top" xlink:title="/home/travis/build\l/robotology&#45;playground\l/human&#45;dynamics&#45;estimation\l/inverse&#45;kinematics/src/InverseKinematics\lV2IPOPT.cpp">
<polygon fill="none" stroke="black" points="542,-200.5 542,-263.5 744,-263.5 744,-200.5 542,-200.5"/>
<text text-anchor="start" x="550" y="-251.5" font-family="Helvetica,sans-Serif" font-size="10.00">/home/travis/build</text>
<text text-anchor="start" x="550" y="-240.5" font-family="Helvetica,sans-Serif" font-size="10.00">/robotology&#45;playground</text>
<text text-anchor="start" x="550" y="-229.5" font-family="Helvetica,sans-Serif" font-size="10.00">/human&#45;dynamics&#45;estimation</text>
<text text-anchor="start" x="550" y="-218.5" font-family="Helvetica,sans-Serif" font-size="10.00">/inverse&#45;kinematics/src/InverseKinematics</text>
<text text-anchor="middle" x="643" y="-207.5" font-family="Helvetica,sans-Serif" font-size="10.00">V2IPOPT.cpp</text>
</a>
</g>
</g>
<!-- Node1&#45;&gt;Node10 -->
<g id="edge11" class="edge"><title>Node1&#45;&gt;Node10</title>
<path fill="none" stroke="midnightblue" d="M579.952,-293.713C590.37,-283.681 601.251,-273.203 610.984,-263.831"/>
<polygon fill="midnightblue" stroke="midnightblue" points="577.246,-291.46 572.47,-300.918 582.101,-296.502 577.246,-291.46"/>
</g>
<!-- Node3 -->
<g id="node3" class="node"><title>Node3</title>
<g id="a_node3"><a xlink:href="_human_state_provider_private_8h.html" target="_top" xlink:title="/home/travis/build\l/robotology&#45;playground\l/human&#45;dynamics&#45;estimation\l/human&#45;state&#45;provider/include\l/private/HumanStateProviderPrivate.h">
<polygon fill="none" stroke="black" points="149,-100.5 149,-163.5 331,-163.5 331,-100.5 149,-100.5"/>
<text text-anchor="start" x="157" y="-151.5" font-family="Helvetica,sans-Serif" font-size="10.00">/home/travis/build</text>
<text text-anchor="start" x="157" y="-140.5" font-family="Helvetica,sans-Serif" font-size="10.00">/robotology&#45;playground</text>
<text text-anchor="start" x="157" y="-129.5" font-family="Helvetica,sans-Serif" font-size="10.00">/human&#45;dynamics&#45;estimation</text>
<text text-anchor="start" x="157" y="-118.5" font-family="Helvetica,sans-Serif" font-size="10.00">/human&#45;state&#45;provider/include</text>
<text text-anchor="middle" x="240" y="-107.5" font-family="Helvetica,sans-Serif" font-size="10.00">/private/HumanStateProviderPrivate.h</text>
</a>
</g>
</g>
<!-- Node2&#45;&gt;Node3 -->
<g id="edge2" class="edge"><title>Node2&#45;&gt;Node3</title>
<path fill="none" stroke="midnightblue" d="M360.165,-195.639C340.007,-185.131 318.106,-173.715 298.589,-163.541"/>
<polygon fill="midnightblue" stroke="midnightblue" points="358.804,-198.876 369.289,-200.395 362.039,-192.669 358.804,-198.876"/>
</g>
<!-- Node4 -->
<g id="node4" class="node"><title>Node4</title>
<g id="a_node4"><a xlink:href="_human_i_k_worker_pool_8cpp.html" target="_top" xlink:title="/home/travis/build\l/robotology&#45;playground\l/human&#45;dynamics&#45;estimation\l/human&#45;state&#45;provider/src\l/HumanIKWorkerPool.cpp">
<polygon fill="none" stroke="black" points="0,-0.5 0,-63.5 142,-63.5 142,-0.5 0,-0.5"/>
<text text-anchor="start" x="8" y="-51.5" font-family="Helvetica,sans-Serif" font-size="10.00">/home/travis/build</text>
<text text-anchor="start" x="8" y="-40.5" font-family="Helvetica,sans-Serif" font-size="10.00">/robotology&#45;playground</text>
<text text-anchor="start" x="8" y="-29.5" font-family="Helvetica,sans-Serif" font-size="10.00">/human&#45;dynamics&#45;estimation</text>
<text text-anchor="start" x="8" y="-18.5" font-family="Helvetica,sans-Serif" font-size="10.00">/human&#45;state&#45;provider/src</text>
<text text-anchor="middle" x="71" y="-7.5" font-family="Helvetica,sans-Serif" font-size="10.00">/HumanIKWorkerPool.cpp</text>
</a>
</g>
</g>
<!-- Node2&#45;&gt;Node4 -->
<g id="edge6" class="edge"><title>Node2&#45;&gt;Node4</title>
<path fill="none" stroke="midnightblue" d="M322.157,-227.512C263.323,-220.734 191.767,-203.952 140,-164 107.339,-138.793 88.5101,-93.7013 79.0071,-63.5662"/>
<polygon fill="midnightblue" stroke="midnightblue" points="321.918,-231.006 332.234,-228.59 322.663,-224.046 321.918,-231.006"/>
</g>
<!-- Node5 -->
<g id="node5" class="node"><title>Node5</title>
<g id="a_node5"><a xlink:href="_human_state_provider_8cpp.html" target="_top" xlink:title="/home/travis/build\l/robotology&#45;playground\l/human&#45;dynamics&#45;estimation\l/human&#45;state&#45;provider/src\l/HumanStateProvider.cpp">
<polygon fill="none" stroke="black" points="338,-0.5 338,-63.5 480,-63.5 480,-0.5 338,-0.5"/>
<text text-anchor="start" x="346" y="-51.5" font-family="Helvetica,sans-Serif" font-size="10.00">/home/travis/build</text>
<text text-anchor="start" x="346" y="-40.5" font-family="Helvetica,sans-Serif" font-size="10.00">/robotology&#45;playground</text>
<text text-anchor="start" x="346" y="-29.5" font-family="Helvetica,sans-Serif" font-size="10.00">/human&#45;dynamics&#45;estimation</text>
<text text-anchor="start" x="346" y="-18.5" font-family="Helvetica,sans-Serif" font-size="10.00">/human&#45;state&#45;provider/src</text>
<text text-anchor="middle" x="409" y="-7.5" font-family="Helvetica,sans-Serif" font-size="10.00">/HumanStateProvider.cpp</text>
</a>
</g>
</g>
<!-- Node2&#45;&gt;Node5 -->
<g id="edge7" class="edge"><title>Node2&#45;&gt;Node5</title>
<path fill="none" stroke="midnightblue" d="M393.256,-191.931C387.397,-183.277 382.188,-173.76 379,-164 370.168,-136.962 373.057,-127.817 379,-100 381.636,-87.6612 386.72,-74.8457 391.964,-63.7676"/>
<polygon fill="midnightblue" stroke="midnightblue" points="390.588,-194.215 399.279,-200.273 396.263,-190.117 390.588,-194.215"/>
</g>
<!-- Node7 -->
<g id="node7" class="node"><title>Node7</title>
<g id="a_node7"><a xlink:href="_inverse_kinematics_8cpp.html" target="_top" xlink:title="/home/travis/build\l/robotology&#45;playground\l/human&#45;dynamics&#45;estimation\l/inverse&#45;kinematics/src/InverseKinematics.cpp">
<polygon fill="none" stroke="black" points="387.5,-106 387.5,-158 608.5,-158 608.5,-106 387.5,-106"/>
<text text-anchor="start" x="395.5" y="-146" font-family="Helvetica,sans-Serif" font-size="10.00">/home/travis/build</text>
<text text-anchor="start" x="395.5" y="-135" font-family="Helvetica,sans-Serif" font-size="10.00">/robotology&#45;playground</text>
<text text-anchor="start" x="395.5" y="-124" font-family="Helvetica,sans-Serif" font-size="10.00">/human&#45;dynamics&#45;estimation</text>
<text text-anchor="middle" x="498" y="-113" font-family="Helvetica,sans-Serif" font-size="10.00">/inverse&#45;kinematics/src/InverseKinematics.cpp</text>
</a>
</g>
</g>
<!-- Node2&#45;&gt;Node7 -->
<g id="edge8" class="edge"><title>Node2&#45;&gt;Node7</title>
<path fill="none" stroke="midnightblue" d="M455.793,-192.09C463.98,-180.628 472.716,-168.397 480.105,-158.054"/>
<polygon fill="midnightblue" stroke="midnightblue" points="452.921,-190.089 449.956,-200.261 458.617,-194.158 452.921,-190.089"/>
</g>
<!-- Node8 -->
<g id="node8" class="node"><title>Node8</title>
<g id="a_node8"><a xlink:href="test_i_k_8cpp.html" target="_top" xlink:title="/home/travis/build\l/robotology&#45;playground\l/human&#45;dynamics&#45;estimation\l/inverse&#45;kinematics/tests\l/testIK.cpp">
<polygon fill="none" stroke="black" points="627,-100.5 627,-163.5 769,-163.5 769,-100.5 627,-100.5"/>
<text text-anchor="start" x="635" y="-151.5" font-family="Helvetica,sans-Serif" font-size="10.00">/home/travis/build</text>
<text text-anchor="start" x="635" y="-140.5" font-family="Helvetica,sans-Serif" font-size="10.00">/robotology&#45;playground</text>
<text text-anchor="start" x="635" y="-129.5" font-family="Helvetica,sans-Serif" font-size="10.00">/human&#45;dynamics&#45;estimation</text>
<text text-anchor="start" x="635" y="-118.5" font-family="Helvetica,sans-Serif" font-size="10.00">/inverse&#45;kinematics/tests</text>
<text text-anchor="middle" x="698" y="-107.5" font-family="Helvetica,sans-Serif" font-size="10.00">/testIK.cpp</text>
</a>
</g>
</g>
<!-- Node2&#45;&gt;Node8 -->
<g id="edge9" class="edge"><title>Node2&#45;&gt;Node8</title>
<path fill="none" stroke="midnightblue" d="M525.155,-197.079C554.703,-186.623 587.23,-174.972 617,-164 620.25,-162.802 623.569,-161.57 626.919,-160.318"/>
<polygon fill="midnightblue" stroke="midnightblue" points="523.935,-193.798 515.673,-200.43 526.268,-200.398 523.935,-193.798"/>
</g>
<!-- Node9 -->
<g id="node9" class="node"><title>Node9</title>
<g id="a_node9"><a xlink:href="test_suit_8cpp.html" target="_top" xlink:title="/home/travis/build\l/robotology&#45;playground\l/human&#45;dynamics&#45;estimation\l/inverse&#45;kinematics/tests\l/testSuit.cpp">
<polygon fill="none" stroke="black" points="787,-100.5 787,-163.5 929,-163.5 929,-100.5 787,-100.5"/>
<text text-anchor="start" x="795" y="-151.5" font-family="Helvetica,sans-Serif" font-size="10.00">/home/travis/build</text>
<text text-anchor="start" x="795" y="-140.5" font-family="Helvetica,sans-Serif" font-size="10.00">/robotology&#45;playground</text>
<text text-anchor="start" x="795" y="-129.5" font-family="Helvetica,sans-Serif" font-size="10.00">/human&#45;dynamics&#45;estimation</text>
<text text-anchor="start" x="795" y="-118.5" font-family="Helvetica,sans-Serif" font-size="10.00">/inverse&#45;kinematics/tests</text>
<text text-anchor="middle" x="858" y="-107.5" font-family="Helvetica,sans-Serif" font-size="10.00">/testSuit.cpp</text>
</a>
</g>
</g>
<!-- Node2&#45;&gt;Node9 -->
<g id="edge10" class="edge"><title>Node2&#45;&gt;Node9</title>
<path fill="none" stroke="midnightblue" d="M533.753,-199.977C642.375,-177.242 674.696,-191.237 778,-164 780.881,-163.241 783.799,-162.41 786.733,-161.526"/>
<polygon fill="midnightblue" stroke="midnightblue" points="532.746,-196.614 523.705,-202.139 534.218,-203.457 532.746,-196.614"/>
</g>
<!-- Node3&#45;&gt;Node4 -->
<g id="edge3" class="edge"><title>Node3&#45;&gt;Node4</title>
<path fill="none" stroke="midnightblue" d="M177.859,-94.9656C160.114,-84.6757 140.952,-73.5639 123.821,-63.6299"/>
<polygon fill="midnightblue" stroke="midnightblue" points="176.584,-98.2724 186.991,-100.261 180.096,-92.2168 176.584,-98.2724"/>
</g>
<!-- Node3&#45;&gt;Node5 -->
<g id="edge4" class="edge"><title>Node3&#45;&gt;Node5</title>
<path fill="none" stroke="midnightblue" d="M302.141,-94.9656C319.886,-84.6757 339.048,-73.5639 356.179,-63.6299"/>
<polygon fill="midnightblue" stroke="midnightblue" points="299.904,-92.2168 293.009,-100.261 303.416,-98.2724 299.904,-92.2168"/>
</g>
<!-- Node6 -->
<g id="node6" class="node"><title>Node6</title>
<g id="a_node6"><a xlink:href="_human_state_provider_private_8cpp.html" target="_top" xlink:title="/home/travis/build\l/robotology&#45;playground\l/human&#45;dynamics&#45;estimation\l/human&#45;state&#45;provider/src\l/HumanStateProviderPrivate.cpp">
<polygon fill="none" stroke="black" points="160,-0.5 160,-63.5 320,-63.5 320,-0.5 160,-0.5"/>
<text text-anchor="start" x="168" y="-51.5" font-family="Helvetica,sans-Serif" font-size="10.00">/home/travis/build</text>
<text text-anchor="start" x="168" y="-40.5" font-family="Helvetica,sans-Serif" font-size="10.00">/robotology&#45;playground</text>
<text text-anchor="start" x="168" y="-29.5" font-family="Helvetica,sans-Serif" font-size="10.00">/human&#45;dynamics&#45;estimation</text>
<text text-anchor="start" x="168" y="-18.5" font-family="Helvetica,sans-Serif" font-size="10.00">/human&#45;state&#45;provider/src</text>
<text text-anchor="middle" x="240" y="-7.5" font-family="Helvetica,sans-Serif" font-size="10.00">/HumanStateProviderPrivate.cpp</text>
</a>
</g>
</g>
<!-- Node3&#45;&gt;Node6 -->
<g id="edge5" class="edge"><title>Node3&#45;&gt;Node6</title>
<path fill="none" stroke="midnightblue" d="M240,-90.0987C240,-81.2383 240,-72.0145 240,-63.6299"/>
<polygon fill="midnightblue" stroke="midnightblue" points="236.5,-90.261 240,-100.261 243.5,-90.2611 236.5,-90.261"/>
</g>
</g>
</svg>
