<?xml version="1.0" encoding="UTF-8" standalone="no"?>
<!DOCTYPE svg PUBLIC "-//W3C//DTD SVG 1.1//EN"
 "http://www.w3.org/Graphics/SVG/1.1/DTD/svg11.dtd">
<!-- Generated by graphviz version 2.36.0 (20140111.2315)
 -->
<!-- Title: /home/travis/build/robotology&#45;playground/human&#45;dynamics&#45;estimation/human&#45;forces&#45;provider/src/PortForceReader.cpp Pages: 1 -->
<svg width="460pt" height="240pt"
 viewBox="0.00 0.00 460.00 240.00" xmlns="http://www.w3.org/2000/svg" xmlns:xlink="http://www.w3.org/1999/xlink">
<g id="graph0" class="graph" transform="scale(1 1) rotate(0) translate(4 236)">
<title>/home/travis/build/robotology&#45;playground/human&#45;dynamics&#45;estimation/human&#45;forces&#45;provider/src/PortForceReader.cpp</title>
<!-- Node1 -->
<g id="node1" class="node"><title>Node1</title>
<polygon fill="#bfbfbf" stroke="black" points="156,-168.5 156,-231.5 298,-231.5 298,-168.5 156,-168.5"/>
<text text-anchor="start" x="164" y="-219.5" font-family="Helvetica,sans-Serif" font-size="10.00">/home/travis/build</text>
<text text-anchor="start" x="164" y="-208.5" font-family="Helvetica,sans-Serif" font-size="10.00">/robotology&#45;playground</text>
<text text-anchor="start" x="164" y="-197.5" font-family="Helvetica,sans-Serif" font-size="10.00">/human&#45;dynamics&#45;estimation</text>
<text text-anchor="start" x="164" y="-186.5" font-family="Helvetica,sans-Serif" font-size="10.00">/human&#45;forces&#45;provider/src</text>
<text text-anchor="middle" x="227" y="-175.5" font-family="Helvetica,sans-Serif" font-size="10.00">/PortForceReader.cpp</text>
</g>
<!-- Node2 -->
<g id="node2" class="node"><title>Node2</title>
<g id="a_node2"><a xlink:href="_port_force_reader_8h.html" target="_top" xlink:title="PortForceReader.h">
<polygon fill="none" stroke="black" points="56.5,-112.5 56.5,-131.5 155.5,-131.5 155.5,-112.5 56.5,-112.5"/>
<text text-anchor="middle" x="106" y="-119.5" font-family="Helvetica,sans-Serif" font-size="10.00">PortForceReader.h</text>
</a>
</g>
</g>
<!-- Node1&#45;&gt;Node2 -->
<g id="edge1" class="edge"><title>Node1&#45;&gt;Node2</title>
<path fill="none" stroke="midnightblue" d="M178.133,-168.307C160.974,-157.529 142.516,-145.936 128.568,-137.175"/>
<polygon fill="midnightblue" stroke="midnightblue" points="130.033,-133.962 119.703,-131.607 126.309,-139.889 130.033,-133.962"/>
</g>
<!-- Node5 -->
<g id="node5" class="node"><title>Node5</title>
<polygon fill="none" stroke="#bfbfbf" points="109.5,-0.5 109.5,-19.5 200.5,-19.5 200.5,-0.5 109.5,-0.5"/>
<text text-anchor="middle" x="155" y="-7.5" font-family="Helvetica,sans-Serif" font-size="10.00">yarp/sig/Vector.h</text>
</g>
<!-- Node1&#45;&gt;Node5 -->
<g id="edge6" class="edge"><title>Node1&#45;&gt;Node5</title>
<path fill="none" stroke="midnightblue" d="M215.272,-168.376C200.164,-128.928 174.381,-61.6053 162.017,-29.3225"/>
<polygon fill="midnightblue" stroke="midnightblue" points="165.219,-27.8954 158.374,-19.8086 158.682,-30.399 165.219,-27.8954"/>
</g>
<!-- Node6 -->
<g id="node6" class="node"><title>Node6</title>
<polygon fill="none" stroke="#bfbfbf" points="212.5,-112.5 212.5,-131.5 327.5,-131.5 327.5,-112.5 212.5,-112.5"/>
<text text-anchor="middle" x="270" y="-119.5" font-family="Helvetica,sans-Serif" font-size="10.00">yarp/os/BufferedPort.h</text>
</g>
<!-- Node1&#45;&gt;Node6 -->
<g id="edge7" class="edge"><title>Node1&#45;&gt;Node6</title>
<path fill="none" stroke="midnightblue" d="M244.49,-168.088C249.779,-158.739 255.405,-148.796 260.023,-140.633"/>
<polygon fill="midnightblue" stroke="midnightblue" points="263.189,-142.145 265.067,-131.718 257.097,-138.698 263.189,-142.145"/>
</g>
<!-- Node7 -->
<g id="node7" class="node"><title>Node7</title>
<polygon fill="none" stroke="#bfbfbf" points="345.5,-112.5 345.5,-131.5 452.5,-131.5 452.5,-112.5 345.5,-112.5"/>
<text text-anchor="middle" x="399" y="-119.5" font-family="Helvetica,sans-Serif" font-size="10.00">yarp/os/LogStream.h</text>
</g>
<!-- Node1&#45;&gt;Node7 -->
<g id="edge8" class="edge"><title>Node1&#45;&gt;Node7</title>
<path fill="none" stroke="midnightblue" d="M296.463,-168.307C322.263,-156.907 350.126,-144.595 370.287,-135.687"/>
<polygon fill="midnightblue" stroke="midnightblue" points="371.789,-138.85 379.522,-131.607 368.96,-132.447 371.789,-138.85"/>
</g>
<!-- Node3 -->
<g id="node3" class="node"><title>Node3</title>
<g id="a_node3"><a xlink:href="_abstract_force_reader_8h.html" target="_top" xlink:title="AbstractForceReader.h">
<polygon fill="none" stroke="black" points="0,-56.5 0,-75.5 118,-75.5 118,-56.5 0,-56.5"/>
<text text-anchor="middle" x="59" y="-63.5" font-family="Helvetica,sans-Serif" font-size="10.00">AbstractForceReader.h</text>
</a>
</g>
</g>
<!-- Node2&#45;&gt;Node3 -->
<g id="edge2" class="edge"><title>Node2&#45;&gt;Node3</title>
<path fill="none" stroke="midnightblue" d="M98.2389,-112.083C91.4632,-104.298 81.4568,-92.8015 73.2449,-83.3665"/>
<polygon fill="midnightblue" stroke="midnightblue" points="75.822,-80.9963 66.6167,-75.7511 70.5419,-85.592 75.822,-80.9963"/>
</g>
<!-- Node2&#45;&gt;Node5 -->
<g id="edge5" class="edge"><title>Node2&#45;&gt;Node5</title>
<path fill="none" stroke="midnightblue" d="M110.103,-112.408C114.392,-103.379 121.283,-88.7431 127,-76 134.064,-60.254 141.805,-42.2202 147.354,-29.1487"/>
<polygon fill="midnightblue" stroke="midnightblue" points="150.607,-30.4415 151.279,-19.868 144.16,-27.7146 150.607,-30.4415"/>
</g>
<!-- Node4 -->
<g id="node4" class="node"><title>Node4</title>
<g id="a_node4"><a xlink:href="_force_reader_8h.html" target="_top" xlink:title="ForceReader.h">
<polygon fill="none" stroke="black" points="10.5,-0.5 10.5,-19.5 91.5,-19.5 91.5,-0.5 10.5,-0.5"/>
<text text-anchor="middle" x="51" y="-7.5" font-family="Helvetica,sans-Serif" font-size="10.00">ForceReader.h</text>
</a>
</g>
</g>
<!-- Node3&#45;&gt;Node4 -->
<g id="edge3" class="edge"><title>Node3&#45;&gt;Node4</title>
<path fill="none" stroke="midnightblue" d="M57.679,-56.083C56.6189,-48.9272 55.0941,-38.6353 53.7691,-29.6911"/>
<polygon fill="midnightblue" stroke="midnightblue" points="57.2242,-29.1302 52.2965,-19.7511 50.2998,-30.1561 57.2242,-29.1302"/>
</g>
<!-- Node3&#45;&gt;Node5 -->
<g id="edge4" class="edge"><title>Node3&#45;&gt;Node5</title>
<path fill="none" stroke="midnightblue" d="M74.4241,-56.324C89.5395,-47.8215 112.815,-34.7288 130.471,-24.7975"/>
<polygon fill="midnightblue" stroke="midnightblue" points="132.614,-27.6077 139.614,-19.6545 129.183,-21.5066 132.614,-27.6077"/>
</g>
</g>
</svg>
