<?xml version="1.0" encoding="UTF-8" standalone="no"?>
<!DOCTYPE svg PUBLIC "-//W3C//DTD SVG 1.1//EN"
 "http://www.w3.org/Graphics/SVG/1.1/DTD/svg11.dtd">
<!-- Generated by graphviz version 2.36.0 (20140111.2315)
 -->
<!-- Title: /home/travis/build/robotology&#45;playground/human&#45;dynamics&#45;estimation/build/human&#45;viz&#45;bridge/_yarp_idl_/thrift/xsensdriverservice/XsensDriverService_index.h Pages: 1 -->
<svg width="290pt" height="252pt"
 viewBox="0.00 0.00 290.00 252.00" xmlns="http://www.w3.org/2000/svg" xmlns:xlink="http://www.w3.org/1999/xlink">
<g id="graph0" class="graph" transform="scale(1 1) rotate(0) translate(4 248)">
<title>/home/travis/build/robotology&#45;playground/human&#45;dynamics&#45;estimation/build/human&#45;viz&#45;bridge/_yarp_idl_/thrift/xsensdriverservice/XsensDriverService_index.h</title>
<!-- Node1 -->
<g id="node1" class="node"><title>Node1</title>
<polygon fill="#bfbfbf" stroke="black" points="51,-169 51,-243 219,-243 219,-169 51,-169"/>
<text text-anchor="start" x="59" y="-231" font-family="Helvetica,sans-Serif" font-size="10.00">/home/travis/build</text>
<text text-anchor="start" x="59" y="-220" font-family="Helvetica,sans-Serif" font-size="10.00">/robotology&#45;playground</text>
<text text-anchor="start" x="59" y="-209" font-family="Helvetica,sans-Serif" font-size="10.00">/human&#45;dynamics&#45;estimation</text>
<text text-anchor="start" x="59" y="-198" font-family="Helvetica,sans-Serif" font-size="10.00">/build/human&#45;viz&#45;bridge/</text>
<text text-anchor="start" x="59" y="-187" font-family="Helvetica,sans-Serif" font-size="10.00">_yarp_idl_/thrift/xsensdriverservice</text>
<text text-anchor="middle" x="135" y="-176" font-family="Helvetica,sans-Serif" font-size="10.00">/XsensDriverService_index.h</text>
</g>
<!-- Node2 -->
<g id="node2" class="node"><title>Node2</title>
<g id="a_node2"><a xlink:href="__yarp__idl___2thrift_2xsensdriverservice_2_frame_referece_8h.html" target="_top" xlink:title="FrameReferece.h">
<polygon fill="none" stroke="black" points="0,-56.5 0,-75.5 92,-75.5 92,-56.5 0,-56.5"/>
<text text-anchor="middle" x="46" y="-63.5" font-family="Helvetica,sans-Serif" font-size="10.00">FrameReferece.h</text>
</a>
</g>
</g>
<!-- Node1&#45;&gt;Node2 -->
<g id="edge1" class="edge"><title>Node1&#45;&gt;Node2</title>
<path fill="none" stroke="midnightblue" d="M111.616,-168.742C94.0194,-141.457 70.6876,-105.28 57.1114,-84.229"/>
<polygon fill="midnightblue" stroke="midnightblue" points="59.9771,-82.2146 51.6158,-75.7077 54.0944,-86.0086 59.9771,-82.2146"/>
</g>
<!-- Node5 -->
<g id="node5" class="node"><title>Node5</title>
<g id="a_node5"><a xlink:href="__yarp__idl___2thrift_2xsensdriverservice_2_xsens_driver_service_8h.html" target="_top" xlink:title="XsensDriverService.h">
<polygon fill="none" stroke="black" points="131,-112.5 131,-131.5 243,-131.5 243,-112.5 131,-112.5"/>
<text text-anchor="middle" x="187" y="-119.5" font-family="Helvetica,sans-Serif" font-size="10.00">XsensDriverService.h</text>
</a>
</g>
</g>
<!-- Node1&#45;&gt;Node5 -->
<g id="edge4" class="edge"><title>Node1&#45;&gt;Node5</title>
<path fill="none" stroke="midnightblue" d="M157.959,-168.795C164.217,-158.927 170.713,-148.684 175.97,-140.393"/>
<polygon fill="midnightblue" stroke="midnightblue" points="179.085,-142.017 181.484,-131.698 173.173,-138.268 179.085,-142.017"/>
</g>
<!-- Node3 -->
<g id="node3" class="node"><title>Node3</title>
<polygon fill="none" stroke="#bfbfbf" points="64,-0.5 64,-19.5 144,-19.5 144,-0.5 64,-0.5"/>
<text text-anchor="middle" x="104" y="-7.5" font-family="Helvetica,sans-Serif" font-size="10.00">yarp/os/Wire.h</text>
</g>
<!-- Node2&#45;&gt;Node3 -->
<g id="edge2" class="edge"><title>Node2&#45;&gt;Node3</title>
<path fill="none" stroke="midnightblue" d="M55.3187,-56.324C63.8926,-48.3414 76.8122,-36.3128 87.1876,-26.6529"/>
<polygon fill="midnightblue" stroke="midnightblue" points="89.5777,-29.2098 94.5117,-19.8339 84.8078,-24.0865 89.5777,-29.2098"/>
</g>
<!-- Node4 -->
<g id="node4" class="node"><title>Node4</title>
<polygon fill="none" stroke="#bfbfbf" points="162,-0.5 162,-19.5 282,-19.5 282,-0.5 162,-0.5"/>
<text text-anchor="middle" x="222" y="-7.5" font-family="Helvetica,sans-Serif" font-size="10.00">yarp/os/idl/WireTypes.h</text>
</g>
<!-- Node2&#45;&gt;Node4 -->
<g id="edge3" class="edge"><title>Node2&#45;&gt;Node4</title>
<path fill="none" stroke="midnightblue" d="M73.8877,-56.4435C103.754,-47.2801 151.315,-32.6876 184.456,-22.5192"/>
<polygon fill="midnightblue" stroke="midnightblue" points="185.709,-25.7958 194.243,-19.5164 183.656,-19.1037 185.709,-25.7958"/>
</g>
<!-- Node5&#45;&gt;Node3 -->
<g id="edge5" class="edge"><title>Node5&#45;&gt;Node3</title>
<path fill="none" stroke="midnightblue" d="M175.724,-112.23C165.313,-103.744 149.866,-90.1231 139,-76 127.665,-61.2677 117.94,-42.3659 111.638,-28.7472"/>
<polygon fill="midnightblue" stroke="midnightblue" points="114.791,-27.2228 107.517,-19.5194 108.399,-30.0774 114.791,-27.2228"/>
</g>
<!-- Node5&#45;&gt;Node4 -->
<g id="edge6" class="edge"><title>Node5&#45;&gt;Node4</title>
<path fill="none" stroke="midnightblue" d="M220.799,-112.388C239.393,-105.735 260.89,-94.4531 272,-76 283.17,-57.4471 263.414,-37.9936 245.539,-25.2598"/>
<polygon fill="midnightblue" stroke="midnightblue" points="247.316,-22.2373 237.059,-19.5818 243.421,-28.0538 247.316,-22.2373"/>
</g>
<!-- Node6 -->
<g id="node6" class="node"><title>Node6</title>
<g id="a_node6"><a xlink:href="autogenerated_2services_2include_2thrift_2_frame_referece_8h.html" target="_top" xlink:title="thrift/FrameReferece.h">
<polygon fill="none" stroke="black" points="148.5,-56.5 148.5,-75.5 263.5,-75.5 263.5,-56.5 148.5,-56.5"/>
<text text-anchor="middle" x="206" y="-63.5" font-family="Helvetica,sans-Serif" font-size="10.00">thrift/FrameReferece.h</text>
</a>
</g>
</g>
<!-- Node5&#45;&gt;Node6 -->
<g id="edge7" class="edge"><title>Node5&#45;&gt;Node6</title>
<path fill="none" stroke="midnightblue" d="M190.137,-112.083C192.683,-104.849 196.356,-94.4087 199.527,-85.3968"/>
<polygon fill="midnightblue" stroke="midnightblue" points="202.903,-86.3459 202.921,-75.7511 196.3,-84.0225 202.903,-86.3459"/>
</g>
<!-- Node6&#45;&gt;Node3 -->
<g id="edge8" class="edge"><title>Node6&#45;&gt;Node3</title>
<path fill="none" stroke="midnightblue" d="M189.612,-56.324C173.329,-47.7034 148.133,-34.3643 129.284,-24.3855"/>
<polygon fill="midnightblue" stroke="midnightblue" points="130.823,-21.2402 120.347,-19.6545 127.548,-27.4267 130.823,-21.2402"/>
</g>
<!-- Node6&#45;&gt;Node4 -->
<g id="edge9" class="edge"><title>Node6&#45;&gt;Node4</title>
<path fill="none" stroke="midnightblue" d="M208.642,-56.083C210.786,-48.8486 213.879,-38.4087 216.549,-29.3968"/>
<polygon fill="midnightblue" stroke="midnightblue" points="219.922,-30.3334 219.407,-19.7511 213.21,-28.3447 219.922,-30.3334"/>
</g>
</g>
</svg>
