<?xml version="1.0" encoding="UTF-8" standalone="no"?>
<!DOCTYPE svg PUBLIC "-//W3C//DTD SVG 1.1//EN"
 "http://www.w3.org/Graphics/SVG/1.1/DTD/svg11.dtd">
<!-- Generated by graphviz version 2.36.0 (20140111.2315)
 -->
<!-- Title: /home/travis/build/robotology&#45;playground/human&#45;dynamics&#45;estimation/build/human&#45;viz&#45;bridge/autogenerated/msgs/include/geometry_msgs_TransformStamped.h Pages: 1 -->
<svg width="1220pt" height="284pt"
 viewBox="0.00 0.00 1220.00 284.00" xmlns="http://www.w3.org/2000/svg" xmlns:xlink="http://www.w3.org/1999/xlink">
<g id="graph0" class="graph" transform="scale(1 1) rotate(0) translate(4 280)">
<title>/home/travis/build/robotology&#45;playground/human&#45;dynamics&#45;estimation/build/human&#45;viz&#45;bridge/autogenerated/msgs/include/geometry_msgs_TransformStamped.h</title>
<!-- Node1 -->
<g id="node1" class="node"><title>Node1</title>
<polygon fill="#bfbfbf" stroke="black" points="471.5,-212.5 471.5,-275.5 718.5,-275.5 718.5,-212.5 471.5,-212.5"/>
<text text-anchor="start" x="479.5" y="-263.5" font-family="Helvetica,sans-Serif" font-size="10.00">/home/travis/build</text>
<text text-anchor="start" x="479.5" y="-252.5" font-family="Helvetica,sans-Serif" font-size="10.00">/robotology&#45;playground</text>
<text text-anchor="start" x="479.5" y="-241.5" font-family="Helvetica,sans-Serif" font-size="10.00">/human&#45;dynamics&#45;estimation</text>
<text text-anchor="start" x="479.5" y="-230.5" font-family="Helvetica,sans-Serif" font-size="10.00">/build/human&#45;viz&#45;bridge/autogenerated</text>
<text text-anchor="middle" x="595" y="-219.5" font-family="Helvetica,sans-Serif" font-size="10.00">/msgs/include/geometry_msgs_TransformStamped.h</text>
</g>
<!-- Node2 -->
<g id="node2" class="node"><title>Node2</title>
<g id="a_node2"><a xlink:href="__yarp__idl___2msgs_2geometry__msgs_2_transform_stamped_8h.html" target="_top" xlink:title="/home/travis/build\l/robotology&#45;playground\l/human&#45;dynamics&#45;estimation\l/build/human&#45;viz&#45;bridge/\l_yarp_idl_/msgs/geometry_msgs\l/TransformStamped.h">
<polygon fill="none" stroke="black" points="-0.5,-101 -0.5,-175 160.5,-175 160.5,-101 -0.5,-101"/>
<text text-anchor="start" x="7.5" y="-163" font-family="Helvetica,sans-Serif" font-size="10.00">/home/travis/build</text>
<text text-anchor="start" x="7.5" y="-152" font-family="Helvetica,sans-Serif" font-size="10.00">/robotology&#45;playground</text>
<text text-anchor="start" x="7.5" y="-141" font-family="Helvetica,sans-Serif" font-size="10.00">/human&#45;dynamics&#45;estimation</text>
<text text-anchor="start" x="7.5" y="-130" font-family="Helvetica,sans-Serif" font-size="10.00">/build/human&#45;viz&#45;bridge/</text>
<text text-anchor="start" x="7.5" y="-119" font-family="Helvetica,sans-Serif" font-size="10.00">_yarp_idl_/msgs/geometry_msgs</text>
<text text-anchor="middle" x="80" y="-108" font-family="Helvetica,sans-Serif" font-size="10.00">/TransformStamped.h</text>
</a>
</g>
</g>
<!-- Node1&#45;&gt;Node2 -->
<g id="edge1" class="edge"><title>Node1&#45;&gt;Node2</title>
<path fill="none" stroke="midnightblue" d="M461.273,-230.239C376.448,-220.124 264.995,-203.084 169,-176 166.262,-175.228 163.496,-174.395 160.716,-173.512"/>
<polygon fill="midnightblue" stroke="midnightblue" points="460.881,-233.717 471.221,-231.408 461.698,-226.765 460.881,-233.717"/>
</g>
<!-- Node3 -->
<g id="node3" class="node"><title>Node3</title>
<g id="a_node3"><a xlink:href="autogenerated_2msgs_2include_2geometry__msgs_2_transform_stamped_8h.html" target="_top" xlink:title="/home/travis/build\l/robotology&#45;playground\l/human&#45;dynamics&#45;estimation\l/build/human&#45;viz&#45;bridge/autogenerated\l/msgs/include/geometry_msgs/TransformStamped.h">
<polygon fill="none" stroke="black" points="178.5,-106.5 178.5,-169.5 423.5,-169.5 423.5,-106.5 178.5,-106.5"/>
<text text-anchor="start" x="186.5" y="-157.5" font-family="Helvetica,sans-Serif" font-size="10.00">/home/travis/build</text>
<text text-anchor="start" x="186.5" y="-146.5" font-family="Helvetica,sans-Serif" font-size="10.00">/robotology&#45;playground</text>
<text text-anchor="start" x="186.5" y="-135.5" font-family="Helvetica,sans-Serif" font-size="10.00">/human&#45;dynamics&#45;estimation</text>
<text text-anchor="start" x="186.5" y="-124.5" font-family="Helvetica,sans-Serif" font-size="10.00">/build/human&#45;viz&#45;bridge/autogenerated</text>
<text text-anchor="middle" x="301" y="-113.5" font-family="Helvetica,sans-Serif" font-size="10.00">/msgs/include/geometry_msgs/TransformStamped.h</text>
</a>
</g>
</g>
<!-- Node1&#45;&gt;Node3 -->
<g id="edge2" class="edge"><title>Node1&#45;&gt;Node3</title>
<path fill="none" stroke="midnightblue" d="M499.226,-209.121C463.151,-196.36 422.373,-181.935 387.222,-169.5"/>
<polygon fill="midnightblue" stroke="midnightblue" points="498.182,-212.464 508.777,-212.499 500.517,-205.865 498.182,-212.464"/>
</g>
<!-- Node4 -->
<g id="node4" class="node"><title>Node4</title>
<g id="a_node4"><a xlink:href="autogenerated_2msgs_2include_2tf2__msgs___t_f_message_8h.html" target="_top" xlink:title="/home/travis/build\l/robotology&#45;playground\l/human&#45;dynamics&#45;estimation\l/build/human&#45;viz&#45;bridge/autogenerated\l/msgs/include/tf2_msgs_TFMessage.h">
<polygon fill="none" stroke="black" points="442,-106.5 442,-169.5 628,-169.5 628,-106.5 442,-106.5"/>
<text text-anchor="start" x="450" y="-157.5" font-family="Helvetica,sans-Serif" font-size="10.00">/home/travis/build</text>
<text text-anchor="start" x="450" y="-146.5" font-family="Helvetica,sans-Serif" font-size="10.00">/robotology&#45;playground</text>
<text text-anchor="start" x="450" y="-135.5" font-family="Helvetica,sans-Serif" font-size="10.00">/human&#45;dynamics&#45;estimation</text>
<text text-anchor="start" x="450" y="-124.5" font-family="Helvetica,sans-Serif" font-size="10.00">/build/human&#45;viz&#45;bridge/autogenerated</text>
<text text-anchor="middle" x="535" y="-113.5" font-family="Helvetica,sans-Serif" font-size="10.00">/msgs/include/tf2_msgs_TFMessage.h</text>
</a>
</g>
</g>
<!-- Node1&#45;&gt;Node4 -->
<g id="edge3" class="edge"><title>Node1&#45;&gt;Node4</title>
<path fill="none" stroke="midnightblue" d="M572.27,-203.602C565.812,-192.408 558.876,-180.384 552.758,-169.781"/>
<polygon fill="midnightblue" stroke="midnightblue" points="569.294,-205.446 577.323,-212.359 575.357,-201.948 569.294,-205.446"/>
</g>
<!-- Node7 -->
<g id="node7" class="node"><title>Node7</title>
<g id="a_node7"><a xlink:href="_human_joint_state_bridge_8cpp.html" target="_top" xlink:title="/home/travis/build\l/robotology&#45;playground\l/human&#45;dynamics&#45;estimation\l/human&#45;viz&#45;bridge/src/HumanJoint\lStateBridge.cpp">
<polygon fill="none" stroke="black" points="452,-0.5 452,-63.5 618,-63.5 618,-0.5 452,-0.5"/>
<text text-anchor="start" x="460" y="-51.5" font-family="Helvetica,sans-Serif" font-size="10.00">/home/travis/build</text>
<text text-anchor="start" x="460" y="-40.5" font-family="Helvetica,sans-Serif" font-size="10.00">/robotology&#45;playground</text>
<text text-anchor="start" x="460" y="-29.5" font-family="Helvetica,sans-Serif" font-size="10.00">/human&#45;dynamics&#45;estimation</text>
<text text-anchor="start" x="460" y="-18.5" font-family="Helvetica,sans-Serif" font-size="10.00">/human&#45;viz&#45;bridge/src/HumanJoint</text>
<text text-anchor="middle" x="535" y="-7.5" font-family="Helvetica,sans-Serif" font-size="10.00">StateBridge.cpp</text>
</a>
</g>
</g>
<!-- Node1&#45;&gt;Node7 -->
<g id="edge11" class="edge"><title>Node1&#45;&gt;Node7</title>
<path fill="none" stroke="midnightblue" d="M623.97,-203.562C628.931,-194.883 633.338,-185.45 636,-176 645.158,-143.488 651.972,-129.763 636,-100 628.09,-85.26 615.352,-73.2135 601.548,-63.6091"/>
<polygon fill="midnightblue" stroke="midnightblue" points="620.86,-201.941 618.651,-212.303 626.84,-205.58 620.86,-201.941"/>
</g>
<!-- Node8 -->
<g id="node8" class="node"><title>Node8</title>
<g id="a_node8"><a xlink:href="_human_t_f_bridge_8cpp.html" target="_top" xlink:title="/home/travis/build\l/robotology&#45;playground\l/human&#45;dynamics&#45;estimation\l/human&#45;viz&#45;bridge/src/HumanTFBridge.cpp">
<polygon fill="none" stroke="black" points="636.5,-6 636.5,-58 839.5,-58 839.5,-6 636.5,-6"/>
<text text-anchor="start" x="644.5" y="-46" font-family="Helvetica,sans-Serif" font-size="10.00">/home/travis/build</text>
<text text-anchor="start" x="644.5" y="-35" font-family="Helvetica,sans-Serif" font-size="10.00">/robotology&#45;playground</text>
<text text-anchor="start" x="644.5" y="-24" font-family="Helvetica,sans-Serif" font-size="10.00">/human&#45;dynamics&#45;estimation</text>
<text text-anchor="middle" x="738" y="-13" font-family="Helvetica,sans-Serif" font-size="10.00">/human&#45;viz&#45;bridge/src/HumanTFBridge.cpp</text>
</a>
</g>
</g>
<!-- Node1&#45;&gt;Node8 -->
<g id="edge12" class="edge"><title>Node1&#45;&gt;Node8</title>
<path fill="none" stroke="midnightblue" d="M630.828,-204.84C638.804,-195.669 646.971,-185.711 654,-176 682.363,-136.816 709.675,-87.4762 725.101,-58.185"/>
<polygon fill="midnightblue" stroke="midnightblue" points="628.203,-202.524 624.202,-212.335 633.448,-207.161 628.203,-202.524"/>
</g>
<!-- Node9 -->
<g id="node9" class="node"><title>Node9</title>
<g id="a_node9"><a xlink:href="autogenerated_2msgs_2include_2tf__tf_message_8h.html" target="_top" xlink:title="/home/travis/build\l/robotology&#45;playground\l/human&#45;dynamics&#45;estimation\l/build/human&#45;viz&#45;bridge/autogenerated\l/msgs/include/tf_tfMessage.h">
<polygon fill="none" stroke="black" points="844,-106.5 844,-169.5 1026,-169.5 1026,-106.5 844,-106.5"/>
<text text-anchor="start" x="852" y="-157.5" font-family="Helvetica,sans-Serif" font-size="10.00">/home/travis/build</text>
<text text-anchor="start" x="852" y="-146.5" font-family="Helvetica,sans-Serif" font-size="10.00">/robotology&#45;playground</text>
<text text-anchor="start" x="852" y="-135.5" font-family="Helvetica,sans-Serif" font-size="10.00">/human&#45;dynamics&#45;estimation</text>
<text text-anchor="start" x="852" y="-124.5" font-family="Helvetica,sans-Serif" font-size="10.00">/build/human&#45;viz&#45;bridge/autogenerated</text>
<text text-anchor="middle" x="935" y="-113.5" font-family="Helvetica,sans-Serif" font-size="10.00">/msgs/include/tf_tfMessage.h</text>
</a>
</g>
</g>
<!-- Node1&#45;&gt;Node9 -->
<g id="edge8" class="edge"><title>Node1&#45;&gt;Node9</title>
<path fill="none" stroke="midnightblue" d="M704.515,-209.501C749.547,-195.727 801.09,-179.961 843.999,-166.836"/>
<polygon fill="midnightblue" stroke="midnightblue" points="703.253,-206.227 694.714,-212.499 705.3,-212.921 703.253,-206.227"/>
</g>
<!-- Node5 -->
<g id="node5" class="node"><title>Node5</title>
<g id="a_node5"><a xlink:href="__yarp__idl___2msgs_2tf2__msgs_2_t_f_message_8h.html" target="_top" xlink:title="/home/travis/build\l/robotology&#45;playground\l/human&#45;dynamics&#45;estimation\l/build/human&#45;viz&#45;bridge/\l_yarp_idl_/msgs/tf2_msgs/TFMessage.h">
<polygon fill="none" stroke="black" points="38,-0.5 38,-63.5 232,-63.5 232,-0.5 38,-0.5"/>
<text text-anchor="start" x="46" y="-51.5" font-family="Helvetica,sans-Serif" font-size="10.00">/home/travis/build</text>
<text text-anchor="start" x="46" y="-40.5" font-family="Helvetica,sans-Serif" font-size="10.00">/robotology&#45;playground</text>
<text text-anchor="start" x="46" y="-29.5" font-family="Helvetica,sans-Serif" font-size="10.00">/human&#45;dynamics&#45;estimation</text>
<text text-anchor="start" x="46" y="-18.5" font-family="Helvetica,sans-Serif" font-size="10.00">/build/human&#45;viz&#45;bridge/</text>
<text text-anchor="middle" x="135" y="-7.5" font-family="Helvetica,sans-Serif" font-size="10.00">_yarp_idl_/msgs/tf2_msgs/TFMessage.h</text>
</a>
</g>
</g>
<!-- Node4&#45;&gt;Node5 -->
<g id="edge4" class="edge"><title>Node4&#45;&gt;Node5</title>
<path fill="none" stroke="midnightblue" d="M443.73,-103.363C439.782,-102.178 435.86,-101.05 432,-100 348.645,-77.3268 325.001,-84.148 241,-64 238.11,-63.3068 235.181,-62.584 232.23,-61.8375"/>
<polygon fill="midnightblue" stroke="midnightblue" points="442.986,-106.797 453.574,-106.417 445.06,-100.111 442.986,-106.797"/>
</g>
<!-- Node6 -->
<g id="node6" class="node"><title>Node6</title>
<g id="a_node6"><a xlink:href="autogenerated_2msgs_2include_2tf2__msgs_2_t_f_message_8h.html" target="_top" xlink:title="/home/travis/build\l/robotology&#45;playground\l/human&#45;dynamics&#45;estimation\l/build/human&#45;viz&#45;bridge/autogenerated\l/msgs/include/tf2_msgs/TFMessage.h">
<polygon fill="none" stroke="black" points="250,-0.5 250,-63.5 434,-63.5 434,-0.5 250,-0.5"/>
<text text-anchor="start" x="258" y="-51.5" font-family="Helvetica,sans-Serif" font-size="10.00">/home/travis/build</text>
<text text-anchor="start" x="258" y="-40.5" font-family="Helvetica,sans-Serif" font-size="10.00">/robotology&#45;playground</text>
<text text-anchor="start" x="258" y="-29.5" font-family="Helvetica,sans-Serif" font-size="10.00">/human&#45;dynamics&#45;estimation</text>
<text text-anchor="start" x="258" y="-18.5" font-family="Helvetica,sans-Serif" font-size="10.00">/build/human&#45;viz&#45;bridge/autogenerated</text>
<text text-anchor="middle" x="342" y="-7.5" font-family="Helvetica,sans-Serif" font-size="10.00">/msgs/include/tf2_msgs/TFMessage.h</text>
</a>
</g>
</g>
<!-- Node4&#45;&gt;Node6 -->
<g id="edge5" class="edge"><title>Node4&#45;&gt;Node6</title>
<path fill="none" stroke="midnightblue" d="M469.394,-101.647C446.401,-89.2577 420.793,-75.4584 398.601,-63.5002"/>
<polygon fill="midnightblue" stroke="midnightblue" points="467.934,-104.837 478.398,-106.499 471.255,-98.6744 467.934,-104.837"/>
</g>
<!-- Node4&#45;&gt;Node7 -->
<g id="edge6" class="edge"><title>Node4&#45;&gt;Node7</title>
<path fill="none" stroke="midnightblue" d="M535,-96.2683C535,-85.4576 535,-73.9643 535,-63.7813"/>
<polygon fill="midnightblue" stroke="midnightblue" points="531.5,-96.359 535,-106.359 538.5,-96.3591 531.5,-96.359"/>
</g>
<!-- Node4&#45;&gt;Node8 -->
<g id="edge7" class="edge"><title>Node4&#45;&gt;Node8</title>
<path fill="none" stroke="midnightblue" d="M603.502,-101.906C631.566,-87.5276 663.408,-71.2147 689.062,-58.0717"/>
<polygon fill="midnightblue" stroke="midnightblue" points="601.839,-98.8246 594.535,-106.499 605.031,-105.055 601.839,-98.8246"/>
</g>
<!-- Node10 -->
<g id="node10" class="node"><title>Node10</title>
<g id="a_node10"><a xlink:href="__yarp__idl___2msgs_2tf_2tf_message_8h.html" target="_top" xlink:title="/home/travis/build\l/robotology&#45;playground\l/human&#45;dynamics&#45;estimation\l/build/human&#45;viz&#45;bridge/\l_yarp_idl_/msgs/tf/tfMessage.h">
<polygon fill="none" stroke="black" points="858,-0.5 858,-63.5 1012,-63.5 1012,-0.5 858,-0.5"/>
<text text-anchor="start" x="866" y="-51.5" font-family="Helvetica,sans-Serif" font-size="10.00">/home/travis/build</text>
<text text-anchor="start" x="866" y="-40.5" font-family="Helvetica,sans-Serif" font-size="10.00">/robotology&#45;playground</text>
<text text-anchor="start" x="866" y="-29.5" font-family="Helvetica,sans-Serif" font-size="10.00">/human&#45;dynamics&#45;estimation</text>
<text text-anchor="start" x="866" y="-18.5" font-family="Helvetica,sans-Serif" font-size="10.00">/build/human&#45;viz&#45;bridge/</text>
<text text-anchor="middle" x="935" y="-7.5" font-family="Helvetica,sans-Serif" font-size="10.00">_yarp_idl_/msgs/tf/tfMessage.h</text>
</a>
</g>
</g>
<!-- Node9&#45;&gt;Node10 -->
<g id="edge9" class="edge"><title>Node9&#45;&gt;Node10</title>
<path fill="none" stroke="midnightblue" d="M935,-96.2683C935,-85.4576 935,-73.9643 935,-63.7813"/>
<polygon fill="midnightblue" stroke="midnightblue" points="931.5,-96.359 935,-106.359 938.5,-96.3591 931.5,-96.359"/>
</g>
<!-- Node11 -->
<g id="node11" class="node"><title>Node11</title>
<g id="a_node11"><a xlink:href="autogenerated_2msgs_2include_2tf_2tf_message_8h.html" target="_top" xlink:title="/home/travis/build\l/robotology&#45;playground\l/human&#45;dynamics&#45;estimation\l/build/human&#45;viz&#45;bridge/autogenerated\l/msgs/include/tf/tfMessage.h">
<polygon fill="none" stroke="black" points="1030,-0.5 1030,-63.5 1212,-63.5 1212,-0.5 1030,-0.5"/>
<text text-anchor="start" x="1038" y="-51.5" font-family="Helvetica,sans-Serif" font-size="10.00">/home/travis/build</text>
<text text-anchor="start" x="1038" y="-40.5" font-family="Helvetica,sans-Serif" font-size="10.00">/robotology&#45;playground</text>
<text text-anchor="start" x="1038" y="-29.5" font-family="Helvetica,sans-Serif" font-size="10.00">/human&#45;dynamics&#45;estimation</text>
<text text-anchor="start" x="1038" y="-18.5" font-family="Helvetica,sans-Serif" font-size="10.00">/build/human&#45;viz&#45;bridge/autogenerated</text>
<text text-anchor="middle" x="1121" y="-7.5" font-family="Helvetica,sans-Serif" font-size="10.00">/msgs/include/tf/tfMessage.h</text>
</a>
</g>
</g>
<!-- Node9&#45;&gt;Node11 -->
<g id="edge10" class="edge"><title>Node9&#45;&gt;Node11</title>
<path fill="none" stroke="midnightblue" d="M998.521,-101.483C1020.6,-89.1356 1045.16,-75.4054 1066.45,-63.5002"/>
<polygon fill="midnightblue" stroke="midnightblue" points="996.57,-98.564 989.549,-106.499 999.986,-104.674 996.57,-98.564"/>
</g>
</g>
</svg>
