<?xml version="1.0" encoding="UTF-8" standalone="no"?>
<!DOCTYPE svg PUBLIC "-//W3C//DTD SVG 1.1//EN"
 "http://www.w3.org/Graphics/SVG/1.1/DTD/svg11.dtd">
<!-- Generated by graphviz version 2.36.0 (20140111.2315)
 -->
<!-- Title: /home/travis/build/robotology&#45;playground/human&#45;dynamics&#45;estimation/build/human&#45;viz&#45;bridge/autogenerated/data/include/thrift/XsensStatus.h Pages: 1 -->
<svg width="1115pt" height="296pt"
 viewBox="0.00 0.00 1115.00 296.00" xmlns="http://www.w3.org/2000/svg" xmlns:xlink="http://www.w3.org/1999/xlink">
<g id="graph0" class="graph" transform="scale(1 1) rotate(0) translate(4 292)">
<title>/home/travis/build/robotology&#45;playground/human&#45;dynamics&#45;estimation/build/human&#45;viz&#45;bridge/autogenerated/data/include/thrift/XsensStatus.h</title>
<!-- Node1 -->
<g id="node1" class="node"><title>Node1</title>
<polygon fill="#bfbfbf" stroke="black" points="396,-224.5 396,-287.5 578,-287.5 578,-224.5 396,-224.5"/>
<text text-anchor="start" x="404" y="-275.5" font-family="Helvetica,sans-Serif" font-size="10.00">/home/travis/build</text>
<text text-anchor="start" x="404" y="-264.5" font-family="Helvetica,sans-Serif" font-size="10.00">/robotology&#45;playground</text>
<text text-anchor="start" x="404" y="-253.5" font-family="Helvetica,sans-Serif" font-size="10.00">/human&#45;dynamics&#45;estimation</text>
<text text-anchor="start" x="404" y="-242.5" font-family="Helvetica,sans-Serif" font-size="10.00">/build/human&#45;viz&#45;bridge/autogenerated</text>
<text text-anchor="middle" x="487" y="-231.5" font-family="Helvetica,sans-Serif" font-size="10.00">/data/include/thrift/XsensStatus.h</text>
</g>
<!-- Node2 -->
<g id="node2" class="node"><title>Node2</title>
<g id="a_node2"><a xlink:href="__yarp__idl___2thrift_2xsensframe_2_xsens_segments_frame_8h.html" target="_top" xlink:title="/home/travis/build\l/robotology&#45;playground\l/human&#45;dynamics&#45;estimation\l/build/human&#45;viz&#45;bridge/\l_yarp_idl_/thrift/xsensframe\l/XsensSegmentsFrame.h">
<polygon fill="none" stroke="black" points="0,-113 0,-187 142,-187 142,-113 0,-113"/>
<text text-anchor="start" x="8" y="-175" font-family="Helvetica,sans-Serif" font-size="10.00">/home/travis/build</text>
<text text-anchor="start" x="8" y="-164" font-family="Helvetica,sans-Serif" font-size="10.00">/robotology&#45;playground</text>
<text text-anchor="start" x="8" y="-153" font-family="Helvetica,sans-Serif" font-size="10.00">/human&#45;dynamics&#45;estimation</text>
<text text-anchor="start" x="8" y="-142" font-family="Helvetica,sans-Serif" font-size="10.00">/build/human&#45;viz&#45;bridge/</text>
<text text-anchor="start" x="8" y="-131" font-family="Helvetica,sans-Serif" font-size="10.00">_yarp_idl_/thrift/xsensframe</text>
<text text-anchor="middle" x="71" y="-120" font-family="Helvetica,sans-Serif" font-size="10.00">/XsensSegmentsFrame.h</text>
</a>
</g>
</g>
<!-- Node1&#45;&gt;Node2 -->
<g id="edge1" class="edge"><title>Node1&#45;&gt;Node2</title>
<path fill="none" stroke="midnightblue" d="M385.456,-241.162C317.959,-230.411 227.925,-213.067 151,-188 148.09,-187.052 145.147,-186.026 142.193,-184.94"/>
<polygon fill="midnightblue" stroke="midnightblue" points="385.246,-244.672 395.668,-242.766 386.332,-237.757 385.246,-244.672"/>
</g>
<!-- Node4 -->
<g id="node4" class="node"><title>Node4</title>
<g id="a_node4"><a xlink:href="__yarp__idl___2thrift_2xsensframe_2_xsens_sensors_frame_8h.html" target="_top" xlink:title="/home/travis/build\l/robotology&#45;playground\l/human&#45;dynamics&#45;estimation\l/build/human&#45;viz&#45;bridge/\l_yarp_idl_/thrift/xsensframe\l/XsensSensorsFrame.h">
<polygon fill="none" stroke="black" points="160,-113 160,-187 302,-187 302,-113 160,-113"/>
<text text-anchor="start" x="168" y="-175" font-family="Helvetica,sans-Serif" font-size="10.00">/home/travis/build</text>
<text text-anchor="start" x="168" y="-164" font-family="Helvetica,sans-Serif" font-size="10.00">/robotology&#45;playground</text>
<text text-anchor="start" x="168" y="-153" font-family="Helvetica,sans-Serif" font-size="10.00">/human&#45;dynamics&#45;estimation</text>
<text text-anchor="start" x="168" y="-142" font-family="Helvetica,sans-Serif" font-size="10.00">/build/human&#45;viz&#45;bridge/</text>
<text text-anchor="start" x="168" y="-131" font-family="Helvetica,sans-Serif" font-size="10.00">_yarp_idl_/thrift/xsensframe</text>
<text text-anchor="middle" x="231" y="-120" font-family="Helvetica,sans-Serif" font-size="10.00">/XsensSensorsFrame.h</text>
</a>
</g>
</g>
<!-- Node1&#45;&gt;Node4 -->
<g id="edge3" class="edge"><title>Node1&#45;&gt;Node4</title>
<path fill="none" stroke="midnightblue" d="M393.862,-220.925C366.97,-210.714 337.686,-199.234 311,-188 308.179,-186.813 305.311,-185.585 302.42,-184.33"/>
<polygon fill="midnightblue" stroke="midnightblue" points="392.674,-224.217 403.266,-224.481 395.151,-217.67 392.674,-224.217"/>
</g>
<!-- Node5 -->
<g id="node5" class="node"><title>Node5</title>
<g id="a_node5"><a xlink:href="__yarp__idl___2thrift_2xsensframe_2_xsens_status_8cpp.html" target="_top" xlink:title="/home/travis/build\l/robotology&#45;playground\l/human&#45;dynamics&#45;estimation\l/build/human&#45;viz&#45;bridge/\l_yarp_idl_/thrift/xsensframe\l/XsensStatus.cpp">
<polygon fill="none" stroke="black" points="320,-113 320,-187 462,-187 462,-113 320,-113"/>
<text text-anchor="start" x="328" y="-175" font-family="Helvetica,sans-Serif" font-size="10.00">/home/travis/build</text>
<text text-anchor="start" x="328" y="-164" font-family="Helvetica,sans-Serif" font-size="10.00">/robotology&#45;playground</text>
<text text-anchor="start" x="328" y="-153" font-family="Helvetica,sans-Serif" font-size="10.00">/human&#45;dynamics&#45;estimation</text>
<text text-anchor="start" x="328" y="-142" font-family="Helvetica,sans-Serif" font-size="10.00">/build/human&#45;viz&#45;bridge/</text>
<text text-anchor="start" x="328" y="-131" font-family="Helvetica,sans-Serif" font-size="10.00">_yarp_idl_/thrift/xsensframe</text>
<text text-anchor="middle" x="391" y="-120" font-family="Helvetica,sans-Serif" font-size="10.00">/XsensStatus.cpp</text>
</a>
</g>
</g>
<!-- Node1&#45;&gt;Node5 -->
<g id="edge5" class="edge"><title>Node1&#45;&gt;Node5</title>
<path fill="none" stroke="midnightblue" d="M451.74,-216.801C442.84,-207.16 433.311,-196.836 424.5,-187.292"/>
<polygon fill="midnightblue" stroke="midnightblue" points="449.361,-219.385 458.716,-224.359 454.505,-214.637 449.361,-219.385"/>
</g>
<!-- Node6 -->
<g id="node6" class="node"><title>Node6</title>
<g id="a_node6"><a xlink:href="autogenerated_2data_2include_2thrift_2_xsens_segments_frame_8h.html" target="_top" xlink:title="/home/travis/build\l/robotology&#45;playground\l/human&#45;dynamics&#45;estimation\l/build/human&#45;viz&#45;bridge/autogenerated\l/data/include/thrift/XsensSegmentsFrame.h">
<polygon fill="none" stroke="black" points="480,-118.5 480,-181.5 686,-181.5 686,-118.5 480,-118.5"/>
<text text-anchor="start" x="488" y="-169.5" font-family="Helvetica,sans-Serif" font-size="10.00">/home/travis/build</text>
<text text-anchor="start" x="488" y="-158.5" font-family="Helvetica,sans-Serif" font-size="10.00">/robotology&#45;playground</text>
<text text-anchor="start" x="488" y="-147.5" font-family="Helvetica,sans-Serif" font-size="10.00">/human&#45;dynamics&#45;estimation</text>
<text text-anchor="start" x="488" y="-136.5" font-family="Helvetica,sans-Serif" font-size="10.00">/build/human&#45;viz&#45;bridge/autogenerated</text>
<text text-anchor="middle" x="583" y="-125.5" font-family="Helvetica,sans-Serif" font-size="10.00">/data/include/thrift/XsensSegmentsFrame.h</text>
</a>
</g>
</g>
<!-- Node1&#45;&gt;Node6 -->
<g id="edge6" class="edge"><title>Node1&#45;&gt;Node6</title>
<path fill="none" stroke="midnightblue" d="M522.143,-216.928C532.819,-205.362 544.412,-192.804 554.586,-181.781"/>
<polygon fill="midnightblue" stroke="midnightblue" points="519.495,-214.637 515.284,-224.359 524.639,-219.385 519.495,-214.637"/>
</g>
<!-- Node10 -->
<g id="node10" class="node"><title>Node10</title>
<g id="a_node10"><a xlink:href="autogenerated_2data_2include_2thrift_2_xsens_sensors_frame_8h.html" target="_top" xlink:title="/home/travis/build\l/robotology&#45;playground\l/human&#45;dynamics&#45;estimation\l/build/human&#45;viz&#45;bridge/autogenerated\l/data/include/thrift/XsensSensorsFrame.h">
<polygon fill="none" stroke="black" points="709.5,-118.5 709.5,-181.5 906.5,-181.5 906.5,-118.5 709.5,-118.5"/>
<text text-anchor="start" x="717.5" y="-169.5" font-family="Helvetica,sans-Serif" font-size="10.00">/home/travis/build</text>
<text text-anchor="start" x="717.5" y="-158.5" font-family="Helvetica,sans-Serif" font-size="10.00">/robotology&#45;playground</text>
<text text-anchor="start" x="717.5" y="-147.5" font-family="Helvetica,sans-Serif" font-size="10.00">/human&#45;dynamics&#45;estimation</text>
<text text-anchor="start" x="717.5" y="-136.5" font-family="Helvetica,sans-Serif" font-size="10.00">/build/human&#45;viz&#45;bridge/autogenerated</text>
<text text-anchor="middle" x="808" y="-125.5" font-family="Helvetica,sans-Serif" font-size="10.00">/data/include/thrift/XsensSensorsFrame.h</text>
</a>
</g>
</g>
<!-- Node1&#45;&gt;Node10 -->
<g id="edge10" class="edge"><title>Node1&#45;&gt;Node10</title>
<path fill="none" stroke="midnightblue" d="M588.09,-222.545C622.074,-211.606 660.188,-199.306 695,-188 701.479,-185.896 708.165,-183.719 714.898,-181.524"/>
<polygon fill="midnightblue" stroke="midnightblue" points="586.601,-219.347 578.154,-225.742 588.746,-226.011 586.601,-219.347"/>
</g>
<!-- Node13 -->
<g id="node13" class="node"><title>Node13</title>
<g id="a_node13"><a xlink:href="autogenerated_2data_2src_2_xsens_status_8cpp.html" target="_top" xlink:title="/home/travis/build\l/robotology&#45;playground\l/human&#45;dynamics&#45;estimation\l/build/human&#45;viz&#45;bridge/autogenerated\l/data/src/XsensStatus.cpp">
<polygon fill="none" stroke="black" points="925,-118.5 925,-181.5 1107,-181.5 1107,-118.5 925,-118.5"/>
<text text-anchor="start" x="933" y="-169.5" font-family="Helvetica,sans-Serif" font-size="10.00">/home/travis/build</text>
<text text-anchor="start" x="933" y="-158.5" font-family="Helvetica,sans-Serif" font-size="10.00">/robotology&#45;playground</text>
<text text-anchor="start" x="933" y="-147.5" font-family="Helvetica,sans-Serif" font-size="10.00">/human&#45;dynamics&#45;estimation</text>
<text text-anchor="start" x="933" y="-136.5" font-family="Helvetica,sans-Serif" font-size="10.00">/build/human&#45;viz&#45;bridge/autogenerated</text>
<text text-anchor="middle" x="1016" y="-125.5" font-family="Helvetica,sans-Serif" font-size="10.00">/data/src/XsensStatus.cpp</text>
</a>
</g>
</g>
<!-- Node1&#45;&gt;Node13 -->
<g id="edge13" class="edge"><title>Node1&#45;&gt;Node13</title>
<path fill="none" stroke="midnightblue" d="M588.417,-244.795C675.867,-234.654 805.039,-216.455 915,-188 922.232,-186.129 929.669,-183.939 937.072,-181.576"/>
<polygon fill="midnightblue" stroke="midnightblue" points="587.767,-241.347 578.23,-245.962 588.563,-248.301 587.767,-241.347"/>
</g>
<!-- Node3 -->
<g id="node3" class="node"><title>Node3</title>
<g id="a_node3"><a xlink:href="_xsens_frame__index_8h.html" target="_top" xlink:title="/home/travis/build\l/robotology&#45;playground\l/human&#45;dynamics&#45;estimation\l/build/human&#45;viz&#45;bridge/\l_yarp_idl_/thrift/xsensframe\l/XsensFrame_index.h">
<polygon fill="none" stroke="black" points="0,-1 0,-75 142,-75 142,-1 0,-1"/>
<text text-anchor="start" x="8" y="-63" font-family="Helvetica,sans-Serif" font-size="10.00">/home/travis/build</text>
<text text-anchor="start" x="8" y="-52" font-family="Helvetica,sans-Serif" font-size="10.00">/robotology&#45;playground</text>
<text text-anchor="start" x="8" y="-41" font-family="Helvetica,sans-Serif" font-size="10.00">/human&#45;dynamics&#45;estimation</text>
<text text-anchor="start" x="8" y="-30" font-family="Helvetica,sans-Serif" font-size="10.00">/build/human&#45;viz&#45;bridge/</text>
<text text-anchor="start" x="8" y="-19" font-family="Helvetica,sans-Serif" font-size="10.00">_yarp_idl_/thrift/xsensframe</text>
<text text-anchor="middle" x="71" y="-8" font-family="Helvetica,sans-Serif" font-size="10.00">/XsensFrame_index.h</text>
</a>
</g>
</g>
<!-- Node2&#45;&gt;Node3 -->
<g id="edge2" class="edge"><title>Node2&#45;&gt;Node3</title>
<path fill="none" stroke="midnightblue" d="M71,-102.752C71,-93.5127 71,-83.9353 71,-75.099"/>
<polygon fill="midnightblue" stroke="midnightblue" points="67.5001,-102.982 71,-112.982 74.5001,-102.982 67.5001,-102.982"/>
</g>
<!-- Node4&#45;&gt;Node3 -->
<g id="edge4" class="edge"><title>Node4&#45;&gt;Node3</title>
<path fill="none" stroke="midnightblue" d="M170.188,-107.191C154.813,-96.6214 138.434,-85.3606 123.508,-75.099"/>
<polygon fill="midnightblue" stroke="midnightblue" points="168.387,-110.201 178.61,-112.982 172.352,-104.432 168.387,-110.201"/>
</g>
<!-- Node7 -->
<g id="node7" class="node"><title>Node7</title>
<g id="a_node7"><a xlink:href="__yarp__idl___2thrift_2xsensframe_2_xsens_segments_frame_8cpp.html" target="_top" xlink:title="/home/travis/build\l/robotology&#45;playground\l/human&#45;dynamics&#45;estimation\l/build/human&#45;viz&#45;bridge/\l_yarp_idl_/thrift/xsensframe\l/XsensSegmentsFrame.cpp">
<polygon fill="none" stroke="black" points="160,-1 160,-75 302,-75 302,-1 160,-1"/>
<text text-anchor="start" x="168" y="-63" font-family="Helvetica,sans-Serif" font-size="10.00">/home/travis/build</text>
<text text-anchor="start" x="168" y="-52" font-family="Helvetica,sans-Serif" font-size="10.00">/robotology&#45;playground</text>
<text text-anchor="start" x="168" y="-41" font-family="Helvetica,sans-Serif" font-size="10.00">/human&#45;dynamics&#45;estimation</text>
<text text-anchor="start" x="168" y="-30" font-family="Helvetica,sans-Serif" font-size="10.00">/build/human&#45;viz&#45;bridge/</text>
<text text-anchor="start" x="168" y="-19" font-family="Helvetica,sans-Serif" font-size="10.00">_yarp_idl_/thrift/xsensframe</text>
<text text-anchor="middle" x="231" y="-8" font-family="Helvetica,sans-Serif" font-size="10.00">/XsensSegmentsFrame.cpp</text>
</a>
</g>
</g>
<!-- Node6&#45;&gt;Node7 -->
<g id="edge7" class="edge"><title>Node6&#45;&gt;Node7</title>
<path fill="none" stroke="midnightblue" d="M483.33,-115.524C479.174,-114.302 475.052,-113.122 471,-112 400.756,-92.5448 380.02,-99.4299 311,-76 308.102,-75.0162 305.168,-73.9603 302.223,-72.8496"/>
<polygon fill="midnightblue" stroke="midnightblue" points="482.484,-118.924 493.068,-118.442 484.494,-112.219 482.484,-118.924"/>
</g>
<!-- Node8 -->
<g id="node8" class="node"><title>Node8</title>
<g id="a_node8"><a xlink:href="autogenerated_2data_2src_2_xsens_segments_frame_8cpp.html" target="_top" xlink:title="/home/travis/build\l/robotology&#45;playground\l/human&#45;dynamics&#45;estimation\l/build/human&#45;viz&#45;bridge/autogenerated\l/data/src/XsensSegmentsFrame.cpp">
<polygon fill="none" stroke="black" points="320,-6.5 320,-69.5 502,-69.5 502,-6.5 320,-6.5"/>
<text text-anchor="start" x="328" y="-57.5" font-family="Helvetica,sans-Serif" font-size="10.00">/home/travis/build</text>
<text text-anchor="start" x="328" y="-46.5" font-family="Helvetica,sans-Serif" font-size="10.00">/robotology&#45;playground</text>
<text text-anchor="start" x="328" y="-35.5" font-family="Helvetica,sans-Serif" font-size="10.00">/human&#45;dynamics&#45;estimation</text>
<text text-anchor="start" x="328" y="-24.5" font-family="Helvetica,sans-Serif" font-size="10.00">/build/human&#45;viz&#45;bridge/autogenerated</text>
<text text-anchor="middle" x="411" y="-13.5" font-family="Helvetica,sans-Serif" font-size="10.00">/data/src/XsensSegmentsFrame.cpp</text>
</a>
</g>
</g>
<!-- Node6&#45;&gt;Node8 -->
<g id="edge8" class="edge"><title>Node6&#45;&gt;Node8</title>
<path fill="none" stroke="midnightblue" d="M526.552,-112.899C504.691,-98.9188 479.93,-83.0834 458.953,-69.6674"/>
<polygon fill="midnightblue" stroke="midnightblue" points="524.778,-115.92 535.088,-118.359 528.55,-110.022 524.778,-115.92"/>
</g>
<!-- Node9 -->
<g id="node9" class="node"><title>Node9</title>
<g id="a_node9"><a xlink:href="_human_t_f_bridge_8cpp.html" target="_top" xlink:title="/home/travis/build\l/robotology&#45;playground\l/human&#45;dynamics&#45;estimation\l/human&#45;viz&#45;bridge/src/HumanTFBridge.cpp">
<polygon fill="none" stroke="black" points="520.5,-12 520.5,-64 723.5,-64 723.5,-12 520.5,-12"/>
<text text-anchor="start" x="528.5" y="-52" font-family="Helvetica,sans-Serif" font-size="10.00">/home/travis/build</text>
<text text-anchor="start" x="528.5" y="-41" font-family="Helvetica,sans-Serif" font-size="10.00">/robotology&#45;playground</text>
<text text-anchor="start" x="528.5" y="-30" font-family="Helvetica,sans-Serif" font-size="10.00">/human&#45;dynamics&#45;estimation</text>
<text text-anchor="middle" x="622" y="-19" font-family="Helvetica,sans-Serif" font-size="10.00">/human&#45;viz&#45;bridge/src/HumanTFBridge.cpp</text>
</a>
</g>
</g>
<!-- Node6&#45;&gt;Node9 -->
<g id="edge9" class="edge"><title>Node6&#45;&gt;Node9</title>
<path fill="none" stroke="midnightblue" d="M597.236,-108.847C602.517,-93.9516 608.355,-77.4855 613.036,-64.2837"/>
<polygon fill="midnightblue" stroke="midnightblue" points="593.907,-107.764 593.864,-118.359 600.504,-110.103 593.907,-107.764"/>
</g>
<!-- Node11 -->
<g id="node11" class="node"><title>Node11</title>
<g id="a_node11"><a xlink:href="__yarp__idl___2thrift_2xsensframe_2_xsens_sensors_frame_8cpp.html" target="_top" xlink:title="/home/travis/build\l/robotology&#45;playground\l/human&#45;dynamics&#45;estimation\l/build/human&#45;viz&#45;bridge/\l_yarp_idl_/thrift/xsensframe\l/XsensSensorsFrame.cpp">
<polygon fill="none" stroke="black" points="742,-1 742,-75 884,-75 884,-1 742,-1"/>
<text text-anchor="start" x="750" y="-63" font-family="Helvetica,sans-Serif" font-size="10.00">/home/travis/build</text>
<text text-anchor="start" x="750" y="-52" font-family="Helvetica,sans-Serif" font-size="10.00">/robotology&#45;playground</text>
<text text-anchor="start" x="750" y="-41" font-family="Helvetica,sans-Serif" font-size="10.00">/human&#45;dynamics&#45;estimation</text>
<text text-anchor="start" x="750" y="-30" font-family="Helvetica,sans-Serif" font-size="10.00">/build/human&#45;viz&#45;bridge/</text>
<text text-anchor="start" x="750" y="-19" font-family="Helvetica,sans-Serif" font-size="10.00">_yarp_idl_/thrift/xsensframe</text>
<text text-anchor="middle" x="813" y="-8" font-family="Helvetica,sans-Serif" font-size="10.00">/XsensSensorsFrame.cpp</text>
</a>
</g>
</g>
<!-- Node10&#45;&gt;Node11 -->
<g id="edge11" class="edge"><title>Node10&#45;&gt;Node11</title>
<path fill="none" stroke="midnightblue" d="M809.85,-108.297C810.342,-97.487 810.869,-85.8851 811.349,-75.3254"/>
<polygon fill="midnightblue" stroke="midnightblue" points="806.351,-108.21 809.393,-118.359 813.343,-108.528 806.351,-108.21"/>
</g>
<!-- Node12 -->
<g id="node12" class="node"><title>Node12</title>
<g id="a_node12"><a xlink:href="autogenerated_2data_2src_2_xsens_sensors_frame_8cpp.html" target="_top" xlink:title="/home/travis/build\l/robotology&#45;playground\l/human&#45;dynamics&#45;estimation\l/build/human&#45;viz&#45;bridge/autogenerated\l/data/src/XsensSensorsFrame.cpp">
<polygon fill="none" stroke="black" points="902,-6.5 902,-69.5 1084,-69.5 1084,-6.5 902,-6.5"/>
<text text-anchor="start" x="910" y="-57.5" font-family="Helvetica,sans-Serif" font-size="10.00">/home/travis/build</text>
<text text-anchor="start" x="910" y="-46.5" font-family="Helvetica,sans-Serif" font-size="10.00">/robotology&#45;playground</text>
<text text-anchor="start" x="910" y="-35.5" font-family="Helvetica,sans-Serif" font-size="10.00">/human&#45;dynamics&#45;estimation</text>
<text text-anchor="start" x="910" y="-24.5" font-family="Helvetica,sans-Serif" font-size="10.00">/build/human&#45;viz&#45;bridge/autogenerated</text>
<text text-anchor="middle" x="993" y="-13.5" font-family="Helvetica,sans-Serif" font-size="10.00">/data/src/XsensSensorsFrame.cpp</text>
</a>
</g>
</g>
<!-- Node10&#45;&gt;Node12 -->
<g id="edge12" class="edge"><title>Node10&#45;&gt;Node12</title>
<path fill="none" stroke="midnightblue" d="M868.403,-113.085C891.992,-99.059 918.76,-83.1428 941.423,-69.6674"/>
<polygon fill="midnightblue" stroke="midnightblue" points="866.339,-110.24 859.533,-118.359 869.917,-116.256 866.339,-110.24"/>
</g>
</g>
</svg>
