<?xml version="1.0" encoding="UTF-8" standalone="no"?>
<!DOCTYPE svg PUBLIC "-//W3C//DTD SVG 1.1//EN"
 "http://www.w3.org/Graphics/SVG/1.1/DTD/svg11.dtd">
<!-- Generated by graphviz version 2.36.0 (20140111.2315)
 -->
<!-- Title: /home/travis/build/robotology&#45;playground/human&#45;dynamics&#45;estimation/build/human&#45;viz&#45;bridge/autogenerated/msgs/include/geometry_msgs_Quaternion.h Pages: 1 -->
<!--zoomable 508 -->
<svg id="main" version="1.1" xmlns="http://www.w3.org/2000/svg" xmlns:xlink="http://www.w3.org/1999/xlink" xml:space="preserve" onload="init(evt)">
<style type="text/css"><![CDATA[
.edge:hover path { stroke: red; }
.edge:hover polygon { stroke: red; fill: red; }
]]></style>
<script type="text/javascript"><![CDATA[
var edges = document.getElementsByTagName('g');
if (edges && edges.length) {
  for (var i=0;i<edges.length;i++) {
    if (edges[i].id.substr(0,4)=='edge') {
      edges[i].setAttribute('class','edge');
    }
  }
}
]]></script>
        <defs>
                <circle id="rim" cx="0" cy="0" r="7"/>
                <circle id="rim2" cx="0" cy="0" r="3.5"/>
                <g id="zoomPlus">
                        <use xlink:href="#rim" fill="#404040">
                                <set attributeName="fill" to="#808080" begin="zoomplus.mouseover" end="zoomplus.mouseout"/>
                        </use>
                        <path d="M-4,0h8M0,-4v8" fill="none" stroke="white" stroke-width="1.5" pointer-events="none"/>
                </g>
                <g id="zoomMin">
                        <use xlink:href="#rim" fill="#404040">
                                <set attributeName="fill" to="#808080" begin="zoomminus.mouseover" end="zoomminus.mouseout"/>
                        </use>
                        <path d="M-4,0h8" fill="none" stroke="white" stroke-width="1.5" pointer-events="none"/>
                </g>
                <g id="dirArrow">
                        <path fill="none" stroke="white" stroke-width="1.5" d="M0,-3.0v7 M-2.5,-0.5L0,-3.0L2.5,-0.5"/>
                </g>
               <g id="resetDef">
                       <use xlink:href="#rim2" fill="#404040">
                               <set attributeName="fill" to="#808080" begin="reset.mouseover" end="reset.mouseout"/>
                       </use>
               </g>
        </defs>

<script type="text/javascript">
var viewWidth = 1529;
var viewHeight = 508;
var sectionId = 'dynsection-1';
</script>
<script xlink:href="svgpan.js"/>
<svg id="graph" class="graph">
<g id="viewport">
<title>/home/travis/build/robotology&#45;playground/human&#45;dynamics&#45;estimation/build/human&#45;viz&#45;bridge/autogenerated/msgs/include/geometry_msgs_Quaternion.h</title>
<!-- Node1 -->
<g id="node1" class="node"><title>Node1</title>
<polygon fill="#bfbfbf" stroke="black" points="566.5,-436.5 566.5,-499.5 777.5,-499.5 777.5,-436.5 566.5,-436.5"/>
<text text-anchor="start" x="574.5" y="-487.5" font-family="Helvetica,sans-Serif" font-size="10.00">/home/travis/build</text>
<text text-anchor="start" x="574.5" y="-476.5" font-family="Helvetica,sans-Serif" font-size="10.00">/robotology&#45;playground</text>
<text text-anchor="start" x="574.5" y="-465.5" font-family="Helvetica,sans-Serif" font-size="10.00">/human&#45;dynamics&#45;estimation</text>
<text text-anchor="start" x="574.5" y="-454.5" font-family="Helvetica,sans-Serif" font-size="10.00">/build/human&#45;viz&#45;bridge/autogenerated</text>
<text text-anchor="middle" x="672" y="-443.5" font-family="Helvetica,sans-Serif" font-size="10.00">/msgs/include/geometry_msgs_Quaternion.h</text>
</g>
<!-- Node2 -->
<g id="node2" class="node"><title>Node2</title>
<g id="a_node2"><a xlink:href="human-viz-bridge_2__yarp__idl___2msgs_2geometry__msgs_2_quaternion_8h.html" target="_top" xlink:title="/home/travis/build\l/robotology&#45;playground\l/human&#45;dynamics&#45;estimation\l/build/human&#45;viz&#45;bridge/\l_yarp_idl_/msgs/geometry_msgs\l/Quaternion.h">
<polygon fill="none" stroke="black" points="-0.5,-325 -0.5,-399 160.5,-399 160.5,-325 -0.5,-325"/>
<text text-anchor="start" x="7.5" y="-387" font-family="Helvetica,sans-Serif" font-size="10.00">/home/travis/build</text>
<text text-anchor="start" x="7.5" y="-376" font-family="Helvetica,sans-Serif" font-size="10.00">/robotology&#45;playground</text>
<text text-anchor="start" x="7.5" y="-365" font-family="Helvetica,sans-Serif" font-size="10.00">/human&#45;dynamics&#45;estimation</text>
<text text-anchor="start" x="7.5" y="-354" font-family="Helvetica,sans-Serif" font-size="10.00">/build/human&#45;viz&#45;bridge/</text>
<text text-anchor="start" x="7.5" y="-343" font-family="Helvetica,sans-Serif" font-size="10.00">_yarp_idl_/msgs/geometry_msgs</text>
<text text-anchor="middle" x="80" y="-332" font-family="Helvetica,sans-Serif" font-size="10.00">/Quaternion.h</text>
</a>
</g>
</g>
<!-- Node1&#45;&gt;Node2 -->
<g id="edge1" class="edge"><title>Node1&#45;&gt;Node2</title>
<path fill="none" stroke="midnightblue" d="M556.264,-460.206C453.211,-452.131 299.069,-435.048 169,-400 166.253,-399.26 163.479,-398.455 160.693,-397.597"/>
<polygon fill="midnightblue" stroke="midnightblue" points="556.148,-463.708 566.386,-460.983 556.684,-456.728 556.148,-463.708"/>
</g>
<!-- Node3 -->
<g id="node3" class="node"><title>Node3</title>
<g id="a_node3"><a xlink:href="human-viz-bridge_2autogenerated_2msgs_2include_2geometry__msgs_2_quaternion_8h.html" target="_top" xlink:title="/home/travis/build\l/robotology&#45;playground\l/human&#45;dynamics&#45;estimation\l/build/human&#45;viz&#45;bridge/autogenerated\l/msgs/include/geometry_msgs/Quaternion.h">
<polygon fill="none" stroke="black" points="178.5,-330.5 178.5,-393.5 387.5,-393.5 387.5,-330.5 178.5,-330.5"/>
<text text-anchor="start" x="186.5" y="-381.5" font-family="Helvetica,sans-Serif" font-size="10.00">/home/travis/build</text>
<text text-anchor="start" x="186.5" y="-370.5" font-family="Helvetica,sans-Serif" font-size="10.00">/robotology&#45;playground</text>
<text text-anchor="start" x="186.5" y="-359.5" font-family="Helvetica,sans-Serif" font-size="10.00">/human&#45;dynamics&#45;estimation</text>
<text text-anchor="start" x="186.5" y="-348.5" font-family="Helvetica,sans-Serif" font-size="10.00">/build/human&#45;viz&#45;bridge/autogenerated</text>
<text text-anchor="middle" x="283" y="-337.5" font-family="Helvetica,sans-Serif" font-size="10.00">/msgs/include/geometry_msgs/Quaternion.h</text>
</a>
</g>
</g>
<!-- Node1&#45;&gt;Node3 -->
<g id="edge2" class="edge"><title>Node1&#45;&gt;Node3</title>
<path fill="none" stroke="midnightblue" d="M556.685,-439.949C508.684,-428.284 452.481,-414.099 402,-400 394.707,-397.963 387.183,-395.792 379.629,-393.56"/>
<polygon fill="midnightblue" stroke="midnightblue" points="555.941,-443.371 566.484,-442.324 557.59,-436.567 555.941,-443.371"/>
</g>
<!-- Node4 -->
<g id="node4" class="node"><title>Node4</title>
<g id="a_node4"><a xlink:href="autogenerated_2msgs_2include_2geometry__msgs___transform_8h.html" target="_top" xlink:title="/home/travis/build\l/robotology&#45;playground\l/human&#45;dynamics&#45;estimation\l/build/human&#45;viz&#45;bridge/autogenerated\l/msgs/include/geometry_msgs_Transform.h">
<polygon fill="none" stroke="black" points="661,-330.5 661,-393.5 869,-393.5 869,-330.5 661,-330.5"/>
<text text-anchor="start" x="669" y="-381.5" font-family="Helvetica,sans-Serif" font-size="10.00">/home/travis/build</text>
<text text-anchor="start" x="669" y="-370.5" font-family="Helvetica,sans-Serif" font-size="10.00">/robotology&#45;playground</text>
<text text-anchor="start" x="669" y="-359.5" font-family="Helvetica,sans-Serif" font-size="10.00">/human&#45;dynamics&#45;estimation</text>
<text text-anchor="start" x="669" y="-348.5" font-family="Helvetica,sans-Serif" font-size="10.00">/build/human&#45;viz&#45;bridge/autogenerated</text>
<text text-anchor="middle" x="765" y="-337.5" font-family="Helvetica,sans-Serif" font-size="10.00">/msgs/include/geometry_msgs_Transform.h</text>
</a>
</g>
</g>
<!-- Node1&#45;&gt;Node4 -->
<g id="edge3" class="edge"><title>Node1&#45;&gt;Node4</title>
<path fill="none" stroke="midnightblue" d="M706.341,-428.597C716.601,-417.123 727.711,-404.699 737.474,-393.781"/>
<polygon fill="midnightblue" stroke="midnightblue" points="703.457,-426.572 699.4,-436.359 708.675,-431.238 703.457,-426.572"/>
</g>
<!-- Node7 -->
<g id="node7" class="node"><title>Node7</title>
<g id="a_node7"><a xlink:href="autogenerated_2msgs_2include_2geometry__msgs___transform_stamped_8h.html" target="_top" xlink:title="/home/travis/build\l/robotology&#45;playground\l/human&#45;dynamics&#45;estimation\l/build/human&#45;viz&#45;bridge/autogenerated\l/msgs/include/geometry_msgs_TransformStamped.h">
<polygon fill="none" stroke="black" points="956.5,-218.5 956.5,-281.5 1203.5,-281.5 1203.5,-218.5 956.5,-218.5"/>
<text text-anchor="start" x="964.5" y="-269.5" font-family="Helvetica,sans-Serif" font-size="10.00">/home/travis/build</text>
<text text-anchor="start" x="964.5" y="-258.5" font-family="Helvetica,sans-Serif" font-size="10.00">/robotology&#45;playground</text>
<text text-anchor="start" x="964.5" y="-247.5" font-family="Helvetica,sans-Serif" font-size="10.00">/human&#45;dynamics&#45;estimation</text>
<text text-anchor="start" x="964.5" y="-236.5" font-family="Helvetica,sans-Serif" font-size="10.00">/build/human&#45;viz&#45;bridge/autogenerated</text>
<text text-anchor="middle" x="1080" y="-225.5" font-family="Helvetica,sans-Serif" font-size="10.00">/msgs/include/geometry_msgs_TransformStamped.h</text>
</a>
</g>
</g>
<!-- Node1&#45;&gt;Node7 -->
<g id="edge21" class="edge"><title>Node1&#45;&gt;Node7</title>
<path fill="none" stroke="midnightblue" d="M787.333,-436.681C817.619,-426.8 849.708,-414.55 878,-400 941.943,-367.116 1007.37,-314.724 1045.81,-281.632"/>
<polygon fill="midnightblue" stroke="midnightblue" points="786.027,-433.424 777.57,-439.806 788.161,-440.091 786.027,-433.424"/>
</g>
<!-- Node10 -->
<g id="node10" class="node"><title>Node10</title>
<g id="a_node10"><a xlink:href="autogenerated_2msgs_2include_2tf2__msgs___t_f_message_8h.html" target="_top" xlink:title="/home/travis/build\l/robotology&#45;playground\l/human&#45;dynamics&#45;estimation\l/build/human&#45;viz&#45;bridge/autogenerated\l/msgs/include/tf2_msgs_TFMessage.h">
<polygon fill="none" stroke="black" points="444,-106.5 444,-169.5 630,-169.5 630,-106.5 444,-106.5"/>
<text text-anchor="start" x="452" y="-157.5" font-family="Helvetica,sans-Serif" font-size="10.00">/home/travis/build</text>
<text text-anchor="start" x="452" y="-146.5" font-family="Helvetica,sans-Serif" font-size="10.00">/robotology&#45;playground</text>
<text text-anchor="start" x="452" y="-135.5" font-family="Helvetica,sans-Serif" font-size="10.00">/human&#45;dynamics&#45;estimation</text>
<text text-anchor="start" x="452" y="-124.5" font-family="Helvetica,sans-Serif" font-size="10.00">/build/human&#45;viz&#45;bridge/autogenerated</text>
<text text-anchor="middle" x="537" y="-113.5" font-family="Helvetica,sans-Serif" font-size="10.00">/msgs/include/tf2_msgs_TFMessage.h</text>
</a>
</g>
</g>
<!-- Node1&#45;&gt;Node10 -->
<g id="edge22" class="edge"><title>Node1&#45;&gt;Node10</title>
<path fill="none" stroke="midnightblue" d="M626.425,-429.704C590.075,-396.781 541.911,-345.22 521,-288 506.712,-248.902 516.534,-200.474 525.91,-169.65"/>
<polygon fill="midnightblue" stroke="midnightblue" points="624.193,-432.404 633.988,-436.442 628.85,-427.177 624.193,-432.404"/>
</g>
<!-- Node13 -->
<g id="node13" class="node"><title>Node13</title>
<g id="a_node13"><a xlink:href="_human_joint_state_bridge_8cpp.html" target="_top" xlink:title="/home/travis/build\l/robotology&#45;playground\l/human&#45;dynamics&#45;estimation\l/human&#45;viz&#45;bridge/src/HumanJoint\lStateBridge.cpp">
<polygon fill="none" stroke="black" points="983,-0.5 983,-63.5 1149,-63.5 1149,-0.5 983,-0.5"/>
<text text-anchor="start" x="991" y="-51.5" font-family="Helvetica,sans-Serif" font-size="10.00">/home/travis/build</text>
<text text-anchor="start" x="991" y="-40.5" font-family="Helvetica,sans-Serif" font-size="10.00">/robotology&#45;playground</text>
<text text-anchor="start" x="991" y="-29.5" font-family="Helvetica,sans-Serif" font-size="10.00">/human&#45;dynamics&#45;estimation</text>
<text text-anchor="start" x="991" y="-18.5" font-family="Helvetica,sans-Serif" font-size="10.00">/human&#45;viz&#45;bridge/src/HumanJoint</text>
<text text-anchor="middle" x="1066" y="-7.5" font-family="Helvetica,sans-Serif" font-size="10.00">StateBridge.cpp</text>
</a>
</g>
</g>
<!-- Node1&#45;&gt;Node13 -->
<g id="edge24" class="edge"><title>Node1&#45;&gt;Node13</title>
<path fill="none" stroke="midnightblue" d="M787.937,-464.46C879.725,-458.956 1009.57,-443.268 1115,-400 1250.89,-344.231 1309.61,-314.685 1358,-176 1369.13,-144.108 1379.67,-125.914 1358,-100 1329.03,-65.3548 1201.74,-75.2403 1158,-64 1155.06,-63.2449 1152.08,-62.4427 1149.08,-61.6037"/>
<polygon fill="midnightblue" stroke="midnightblue" points="787.563,-460.976 777.778,-465.037 787.96,-467.965 787.563,-460.976"/>
</g>
<!-- Node14 -->
<g id="node14" class="node"><title>Node14</title>
<g id="a_node14"><a xlink:href="_human_t_f_bridge_8cpp.html" target="_top" xlink:title="/home/travis/build\l/robotology&#45;playground\l/human&#45;dynamics&#45;estimation\l/human&#45;viz&#45;bridge/src/HumanTFBridge.cpp">
<polygon fill="none" stroke="black" points="647.5,-6 647.5,-58 850.5,-58 850.5,-6 647.5,-6"/>
<text text-anchor="start" x="655.5" y="-46" font-family="Helvetica,sans-Serif" font-size="10.00">/home/travis/build</text>
<text text-anchor="start" x="655.5" y="-35" font-family="Helvetica,sans-Serif" font-size="10.00">/robotology&#45;playground</text>
<text text-anchor="start" x="655.5" y="-24" font-family="Helvetica,sans-Serif" font-size="10.00">/human&#45;dynamics&#45;estimation</text>
<text text-anchor="middle" x="749" y="-13" font-family="Helvetica,sans-Serif" font-size="10.00">/human&#45;viz&#45;bridge/src/HumanTFBridge.cpp</text>
</a>
</g>
</g>
<!-- Node1&#45;&gt;Node14 -->
<g id="edge25" class="edge"><title>Node1&#45;&gt;Node14</title>
<path fill="none" stroke="midnightblue" d="M577.119,-431.52C561.763,-422.858 546.992,-412.419 535,-400 437.372,-298.897 344.712,-207.709 435,-100 464.432,-64.8892 593.329,-74.1737 638,-64 645.999,-62.1783 654.282,-60.145 662.555,-58.0146"/>
<polygon fill="midnightblue" stroke="midnightblue" points="575.747,-434.757 586.211,-436.416 579.066,-428.594 575.747,-434.757"/>
</g>
<!-- Node15 -->
<g id="node15" class="node"><title>Node15</title>
<g id="a_node15"><a xlink:href="autogenerated_2msgs_2include_2tf__tf_message_8h.html" target="_top" xlink:title="/home/travis/build\l/robotology&#45;playground\l/human&#45;dynamics&#45;estimation\l/build/human&#45;viz&#45;bridge/autogenerated\l/msgs/include/tf_tfMessage.h">
<polygon fill="none" stroke="black" points="1167,-106.5 1167,-169.5 1349,-169.5 1349,-106.5 1167,-106.5"/>
<text text-anchor="start" x="1175" y="-157.5" font-family="Helvetica,sans-Serif" font-size="10.00">/home/travis/build</text>
<text text-anchor="start" x="1175" y="-146.5" font-family="Helvetica,sans-Serif" font-size="10.00">/robotology&#45;playground</text>
<text text-anchor="start" x="1175" y="-135.5" font-family="Helvetica,sans-Serif" font-size="10.00">/human&#45;dynamics&#45;estimation</text>
<text text-anchor="start" x="1175" y="-124.5" font-family="Helvetica,sans-Serif" font-size="10.00">/build/human&#45;viz&#45;bridge/autogenerated</text>
<text text-anchor="middle" x="1258" y="-113.5" font-family="Helvetica,sans-Serif" font-size="10.00">/msgs/include/tf_tfMessage.h</text>
</a>
</g>
</g>
<!-- Node1&#45;&gt;Node15 -->
<g id="edge23" class="edge"><title>Node1&#45;&gt;Node15</title>
<path fill="none" stroke="midnightblue" d="M787.836,-447.054C938.622,-418.496 1189.5,-361.224 1245,-288 1270.72,-254.063 1268.82,-202.458 1264.14,-169.75"/>
<polygon fill="midnightblue" stroke="midnightblue" points="786.785,-443.69 777.604,-448.977 788.078,-450.57 786.785,-443.69"/>
</g>
<!-- Node5 -->
<g id="node5" class="node"><title>Node5</title>
<g id="a_node5"><a xlink:href="__yarp__idl___2msgs_2geometry__msgs_2_transform_8h.html" target="_top" xlink:title="/home/travis/build\l/robotology&#45;playground\l/human&#45;dynamics&#45;estimation\l/build/human&#45;viz&#45;bridge/\l_yarp_idl_/msgs/geometry_msgs\l/Transform.h">
<polygon fill="none" stroke="black" points="777.5,-213 777.5,-287 938.5,-287 938.5,-213 777.5,-213"/>
<text text-anchor="start" x="785.5" y="-275" font-family="Helvetica,sans-Serif" font-size="10.00">/home/travis/build</text>
<text text-anchor="start" x="785.5" y="-264" font-family="Helvetica,sans-Serif" font-size="10.00">/robotology&#45;playground</text>
<text text-anchor="start" x="785.5" y="-253" font-family="Helvetica,sans-Serif" font-size="10.00">/human&#45;dynamics&#45;estimation</text>
<text text-anchor="start" x="785.5" y="-242" font-family="Helvetica,sans-Serif" font-size="10.00">/build/human&#45;viz&#45;bridge/</text>
<text text-anchor="start" x="785.5" y="-231" font-family="Helvetica,sans-Serif" font-size="10.00">_yarp_idl_/msgs/geometry_msgs</text>
<text text-anchor="middle" x="858" y="-220" font-family="Helvetica,sans-Serif" font-size="10.00">/Transform.h</text>
</a>
</g>
</g>
<!-- Node4&#45;&gt;Node5 -->
<g id="edge4" class="edge"><title>Node4&#45;&gt;Node5</title>
<path fill="none" stroke="midnightblue" d="M797.445,-322.624C807.132,-311.167 817.717,-298.647 827.289,-287.325"/>
<polygon fill="midnightblue" stroke="midnightblue" points="794.689,-320.463 790.906,-330.359 800.035,-324.982 794.689,-320.463"/>
</g>
<!-- Node6 -->
<g id="node6" class="node"><title>Node6</title>
<g id="a_node6"><a xlink:href="autogenerated_2msgs_2include_2geometry__msgs_2_transform_8h.html" target="_top" xlink:title="/home/travis/build\l/robotology&#45;playground\l/human&#45;dynamics&#45;estimation\l/build/human&#45;viz&#45;bridge/autogenerated\l/msgs/include/geometry_msgs/Transform.h">
<polygon fill="none" stroke="black" points="553,-218.5 553,-281.5 759,-281.5 759,-218.5 553,-218.5"/>
<text text-anchor="start" x="561" y="-269.5" font-family="Helvetica,sans-Serif" font-size="10.00">/home/travis/build</text>
<text text-anchor="start" x="561" y="-258.5" font-family="Helvetica,sans-Serif" font-size="10.00">/robotology&#45;playground</text>
<text text-anchor="start" x="561" y="-247.5" font-family="Helvetica,sans-Serif" font-size="10.00">/human&#45;dynamics&#45;estimation</text>
<text text-anchor="start" x="561" y="-236.5" font-family="Helvetica,sans-Serif" font-size="10.00">/build/human&#45;viz&#45;bridge/autogenerated</text>
<text text-anchor="middle" x="656" y="-225.5" font-family="Helvetica,sans-Serif" font-size="10.00">/msgs/include/geometry_msgs/Transform.h</text>
</a>
</g>
</g>
<!-- Node4&#45;&gt;Node6 -->
<g id="edge5" class="edge"><title>Node4&#45;&gt;Node6</title>
<path fill="none" stroke="midnightblue" d="M727.409,-323.064C714.08,-309.612 699.252,-294.649 686.578,-281.858"/>
<polygon fill="midnightblue" stroke="midnightblue" points="725.113,-325.719 734.637,-330.359 730.085,-320.792 725.113,-325.719"/>
</g>
<!-- Node4&#45;&gt;Node7 -->
<g id="edge6" class="edge"><title>Node4&#45;&gt;Node7</title>
<path fill="none" stroke="midnightblue" d="M862.331,-327.012C903.891,-312.499 952.029,-295.688 992.453,-281.572"/>
<polygon fill="midnightblue" stroke="midnightblue" points="861.032,-323.758 852.745,-330.359 863.34,-330.366 861.032,-323.758"/>
</g>
<!-- Node4&#45;&gt;Node10 -->
<g id="edge19" class="edge"><title>Node4&#45;&gt;Node10</title>
<path fill="none" stroke="midnightblue" d="M650.847,-349.8C610.777,-339.851 569.45,-321.523 544,-288 518.319,-254.173 522.669,-202.537 529.112,-169.793"/>
<polygon fill="midnightblue" stroke="midnightblue" points="650.191,-353.241 660.723,-352.094 651.775,-346.422 650.191,-353.241"/>
</g>
<!-- Node4&#45;&gt;Node15 -->
<g id="edge20" class="edge"><title>Node4&#45;&gt;Node15</title>
<path fill="none" stroke="midnightblue" d="M879.559,-355.791C995.261,-348.223 1163.62,-330.145 1212,-288 1246.09,-258.303 1255.28,-203.944 1257.55,-169.737"/>
<polygon fill="midnightblue" stroke="midnightblue" points="878.989,-352.32 869.231,-356.448 879.433,-359.306 878.989,-352.32"/>
</g>
<!-- Node8 -->
<g id="node8" class="node"><title>Node8</title>
<g id="a_node8"><a xlink:href="__yarp__idl___2msgs_2geometry__msgs_2_transform_stamped_8h.html" target="_top" xlink:title="/home/travis/build\l/robotology&#45;playground\l/human&#45;dynamics&#45;estimation\l/build/human&#45;viz&#45;bridge/\l_yarp_idl_/msgs/geometry_msgs\l/TransformStamped.h">
<polygon fill="none" stroke="black" points="911.5,-101 911.5,-175 1072.5,-175 1072.5,-101 911.5,-101"/>
<text text-anchor="start" x="919.5" y="-163" font-family="Helvetica,sans-Serif" font-size="10.00">/home/travis/build</text>
<text text-anchor="start" x="919.5" y="-152" font-family="Helvetica,sans-Serif" font-size="10.00">/robotology&#45;playground</text>
<text text-anchor="start" x="919.5" y="-141" font-family="Helvetica,sans-Serif" font-size="10.00">/human&#45;dynamics&#45;estimation</text>
<text text-anchor="start" x="919.5" y="-130" font-family="Helvetica,sans-Serif" font-size="10.00">/build/human&#45;viz&#45;bridge/</text>
<text text-anchor="start" x="919.5" y="-119" font-family="Helvetica,sans-Serif" font-size="10.00">_yarp_idl_/msgs/geometry_msgs</text>
<text text-anchor="middle" x="992" y="-108" font-family="Helvetica,sans-Serif" font-size="10.00">/TransformStamped.h</text>
</a>
</g>
</g>
<!-- Node7&#45;&gt;Node8 -->
<g id="edge7" class="edge"><title>Node7&#45;&gt;Node8</title>
<path fill="none" stroke="midnightblue" d="M1049.03,-210.294C1039.94,-198.926 1030.03,-186.538 1021.06,-175.325"/>
<polygon fill="midnightblue" stroke="midnightblue" points="1046.51,-212.737 1055.49,-218.359 1051.97,-208.364 1046.51,-212.737"/>
</g>
<!-- Node9 -->
<g id="node9" class="node"><title>Node9</title>
<g id="a_node9"><a xlink:href="autogenerated_2msgs_2include_2geometry__msgs_2_transform_stamped_8h.html" target="_top" xlink:title="/home/travis/build\l/robotology&#45;playground\l/human&#45;dynamics&#45;estimation\l/build/human&#45;viz&#45;bridge/autogenerated\l/msgs/include/geometry_msgs/TransformStamped.h">
<polygon fill="none" stroke="black" points="648.5,-106.5 648.5,-169.5 893.5,-169.5 893.5,-106.5 648.5,-106.5"/>
<text text-anchor="start" x="656.5" y="-157.5" font-family="Helvetica,sans-Serif" font-size="10.00">/home/travis/build</text>
<text text-anchor="start" x="656.5" y="-146.5" font-family="Helvetica,sans-Serif" font-size="10.00">/robotology&#45;playground</text>
<text text-anchor="start" x="656.5" y="-135.5" font-family="Helvetica,sans-Serif" font-size="10.00">/human&#45;dynamics&#45;estimation</text>
<text text-anchor="start" x="656.5" y="-124.5" font-family="Helvetica,sans-Serif" font-size="10.00">/build/human&#45;viz&#45;bridge/autogenerated</text>
<text text-anchor="middle" x="771" y="-113.5" font-family="Helvetica,sans-Serif" font-size="10.00">/msgs/include/geometry_msgs/TransformStamped.h</text>
</a>
</g>
</g>
<!-- Node7&#45;&gt;Node9 -->
<g id="edge8" class="edge"><title>Node7&#45;&gt;Node9</title>
<path fill="none" stroke="midnightblue" d="M984.266,-214.92C943.556,-200.428 896.45,-183.658 856.88,-169.572"/>
<polygon fill="midnightblue" stroke="midnightblue" points="983.332,-218.302 993.926,-218.359 985.679,-211.708 983.332,-218.302"/>
</g>
<!-- Node7&#45;&gt;Node10 -->
<g id="edge9" class="edge"><title>Node7&#45;&gt;Node10</title>
<path fill="none" stroke="midnightblue" d="M966.063,-216.073C959.637,-214.6 953.25,-213.228 947,-212 812.199,-185.511 773.737,-207.426 640,-176 632.231,-174.174 624.239,-171.952 616.306,-169.512"/>
<polygon fill="midnightblue" stroke="midnightblue" points="965.644,-219.57 976.181,-218.464 967.254,-212.758 965.644,-219.57"/>
</g>
<!-- Node7&#45;&gt;Node13 -->
<g id="edge17" class="edge"><title>Node7&#45;&gt;Node13</title>
<path fill="none" stroke="midnightblue" d="M1103.14,-208.923C1108.03,-198.53 1112.47,-187.123 1115,-176 1122.49,-143.063 1125.49,-132.108 1115,-100 1110.75,-86.9865 1102.91,-74.4048 1094.72,-63.7266"/>
<polygon fill="midnightblue" stroke="midnightblue" points="1099.87,-207.632 1098.57,-218.145 1106.14,-210.742 1099.87,-207.632"/>
</g>
<!-- Node7&#45;&gt;Node14 -->
<g id="edge18" class="edge"><title>Node7&#45;&gt;Node14</title>
<path fill="none" stroke="midnightblue" d="M1093.09,-208.654C1101.04,-175.736 1105.5,-129.935 1081,-100 1066.27,-81.9969 942.883,-60.649 850.806,-46.9711"/>
<polygon fill="midnightblue" stroke="midnightblue" points="1089.68,-207.865 1090.54,-218.425 1096.45,-209.633 1089.68,-207.865"/>
</g>
<!-- Node7&#45;&gt;Node15 -->
<g id="edge14" class="edge"><title>Node7&#45;&gt;Node15</title>
<path fill="none" stroke="midnightblue" d="M1138.12,-213.085C1160.81,-199.059 1186.57,-183.143 1208.37,-169.667"/>
<polygon fill="midnightblue" stroke="midnightblue" points="1136.25,-210.124 1129.58,-218.359 1139.93,-216.079 1136.25,-210.124"/>
</g>
<!-- Node11 -->
<g id="node11" class="node"><title>Node11</title>
<g id="a_node11"><a xlink:href="__yarp__idl___2msgs_2tf2__msgs_2_t_f_message_8h.html" target="_top" xlink:title="/home/travis/build\l/robotology&#45;playground\l/human&#45;dynamics&#45;estimation\l/build/human&#45;viz&#45;bridge/\l_yarp_idl_/msgs/tf2_msgs/TFMessage.h">
<polygon fill="none" stroke="black" points="233,-0.5 233,-63.5 427,-63.5 427,-0.5 233,-0.5"/>
<text text-anchor="start" x="241" y="-51.5" font-family="Helvetica,sans-Serif" font-size="10.00">/home/travis/build</text>
<text text-anchor="start" x="241" y="-40.5" font-family="Helvetica,sans-Serif" font-size="10.00">/robotology&#45;playground</text>
<text text-anchor="start" x="241" y="-29.5" font-family="Helvetica,sans-Serif" font-size="10.00">/human&#45;dynamics&#45;estimation</text>
<text text-anchor="start" x="241" y="-18.5" font-family="Helvetica,sans-Serif" font-size="10.00">/build/human&#45;viz&#45;bridge/</text>
<text text-anchor="middle" x="330" y="-7.5" font-family="Helvetica,sans-Serif" font-size="10.00">_yarp_idl_/msgs/tf2_msgs/TFMessage.h</text>
</a>
</g>
</g>
<!-- Node10&#45;&gt;Node11 -->
<g id="edge10" class="edge"><title>Node10&#45;&gt;Node11</title>
<path fill="none" stroke="midnightblue" d="M467.289,-101.976C442.461,-89.5021 414.719,-75.5642 390.707,-63.5002"/>
<polygon fill="midnightblue" stroke="midnightblue" points="465.785,-105.137 476.292,-106.499 468.928,-98.8824 465.785,-105.137"/>
</g>
<!-- Node12 -->
<g id="node12" class="node"><title>Node12</title>
<g id="a_node12"><a xlink:href="autogenerated_2msgs_2include_2tf2__msgs_2_t_f_message_8h.html" target="_top" xlink:title="/home/travis/build\l/robotology&#45;playground\l/human&#45;dynamics&#45;estimation\l/build/human&#45;viz&#45;bridge/autogenerated\l/msgs/include/tf2_msgs/TFMessage.h">
<polygon fill="none" stroke="black" points="445,-0.5 445,-63.5 629,-63.5 629,-0.5 445,-0.5"/>
<text text-anchor="start" x="453" y="-51.5" font-family="Helvetica,sans-Serif" font-size="10.00">/home/travis/build</text>
<text text-anchor="start" x="453" y="-40.5" font-family="Helvetica,sans-Serif" font-size="10.00">/robotology&#45;playground</text>
<text text-anchor="start" x="453" y="-29.5" font-family="Helvetica,sans-Serif" font-size="10.00">/human&#45;dynamics&#45;estimation</text>
<text text-anchor="start" x="453" y="-18.5" font-family="Helvetica,sans-Serif" font-size="10.00">/build/human&#45;viz&#45;bridge/autogenerated</text>
<text text-anchor="middle" x="537" y="-7.5" font-family="Helvetica,sans-Serif" font-size="10.00">/msgs/include/tf2_msgs/TFMessage.h</text>
</a>
</g>
</g>
<!-- Node10&#45;&gt;Node12 -->
<g id="edge11" class="edge"><title>Node10&#45;&gt;Node12</title>
<path fill="none" stroke="midnightblue" d="M537,-96.2683C537,-85.4576 537,-73.9643 537,-63.7813"/>
<polygon fill="midnightblue" stroke="midnightblue" points="533.5,-96.359 537,-106.359 540.5,-96.3591 533.5,-96.359"/>
</g>
<!-- Node10&#45;&gt;Node13 -->
<g id="edge12" class="edge"><title>Node10&#45;&gt;Node13</title>
<path fill="none" stroke="midnightblue" d="M627.416,-103.452C631.649,-102.219 635.858,-101.059 640,-100 656.456,-95.7906 863.71,-63.8718 982.945,-45.6506"/>
<polygon fill="midnightblue" stroke="midnightblue" points="626.072,-100.201 617.516,-106.45 628.101,-106.901 626.072,-100.201"/>
</g>
<!-- Node10&#45;&gt;Node14 -->
<g id="edge13" class="edge"><title>Node10&#45;&gt;Node14</title>
<path fill="none" stroke="midnightblue" d="M608.158,-102.092C637.56,-87.6689 670.985,-71.2716 697.892,-58.0717"/>
<polygon fill="midnightblue" stroke="midnightblue" points="606.611,-98.9527 599.175,-106.499 609.694,-105.237 606.611,-98.9527"/>
</g>
<!-- Node16 -->
<g id="node16" class="node"><title>Node16</title>
<g id="a_node16"><a xlink:href="__yarp__idl___2msgs_2tf_2tf_message_8h.html" target="_top" xlink:title="/home/travis/build\l/robotology&#45;playground\l/human&#45;dynamics&#45;estimation\l/build/human&#45;viz&#45;bridge/\l_yarp_idl_/msgs/tf/tfMessage.h">
<polygon fill="none" stroke="black" points="1367,-0.5 1367,-63.5 1521,-63.5 1521,-0.5 1367,-0.5"/>
<text text-anchor="start" x="1375" y="-51.5" font-family="Helvetica,sans-Serif" font-size="10.00">/home/travis/build</text>
<text text-anchor="start" x="1375" y="-40.5" font-family="Helvetica,sans-Serif" font-size="10.00">/robotology&#45;playground</text>
<text text-anchor="start" x="1375" y="-29.5" font-family="Helvetica,sans-Serif" font-size="10.00">/human&#45;dynamics&#45;estimation</text>
<text text-anchor="start" x="1375" y="-18.5" font-family="Helvetica,sans-Serif" font-size="10.00">/build/human&#45;viz&#45;bridge/</text>
<text text-anchor="middle" x="1444" y="-7.5" font-family="Helvetica,sans-Serif" font-size="10.00">_yarp_idl_/msgs/tf/tfMessage.h</text>
</a>
</g>
</g>
<!-- Node15&#45;&gt;Node16 -->
<g id="edge15" class="edge"><title>Node15&#45;&gt;Node16</title>
<path fill="none" stroke="midnightblue" d="M1321.52,-101.483C1343.6,-89.1356 1368.16,-75.4054 1389.45,-63.5002"/>
<polygon fill="midnightblue" stroke="midnightblue" points="1319.57,-98.564 1312.55,-106.499 1322.99,-104.674 1319.57,-98.564"/>
</g>
<!-- Node17 -->
<g id="node17" class="node"><title>Node17</title>
<g id="a_node17"><a xlink:href="autogenerated_2msgs_2include_2tf_2tf_message_8h.html" target="_top" xlink:title="/home/travis/build\l/robotology&#45;playground\l/human&#45;dynamics&#45;estimation\l/build/human&#45;viz&#45;bridge/autogenerated\l/msgs/include/tf/tfMessage.h">
<polygon fill="none" stroke="black" points="1167,-0.5 1167,-63.5 1349,-63.5 1349,-0.5 1167,-0.5"/>
<text text-anchor="start" x="1175" y="-51.5" font-family="Helvetica,sans-Serif" font-size="10.00">/home/travis/build</text>
<text text-anchor="start" x="1175" y="-40.5" font-family="Helvetica,sans-Serif" font-size="10.00">/robotology&#45;playground</text>
<text text-anchor="start" x="1175" y="-29.5" font-family="Helvetica,sans-Serif" font-size="10.00">/human&#45;dynamics&#45;estimation</text>
<text text-anchor="start" x="1175" y="-18.5" font-family="Helvetica,sans-Serif" font-size="10.00">/build/human&#45;viz&#45;bridge/autogenerated</text>
<text text-anchor="middle" x="1258" y="-7.5" font-family="Helvetica,sans-Serif" font-size="10.00">/msgs/include/tf/tfMessage.h</text>
</a>
</g>
</g>
<!-- Node15&#45;&gt;Node17 -->
<g id="edge16" class="edge"><title>Node15&#45;&gt;Node17</title>
<path fill="none" stroke="midnightblue" d="M1258,-96.2683C1258,-85.4576 1258,-73.9643 1258,-63.7813"/>
<polygon fill="midnightblue" stroke="midnightblue" points="1254.5,-96.359 1258,-106.359 1261.5,-96.3591 1254.5,-96.359"/>
</g>
</g>
</svg>
        <g id="navigator" transform="translate(0 0)" fill="#404254">
                <rect fill="#f2f5e9" fill-opacity="0.5" stroke="#606060" stroke-width=".5" x="0" y="0" width="60" height="60"/>
                <use id="zoomplus" xlink:href="#zoomPlus" x="17" y="9" onmousedown="handleZoom(evt,'in')"/>
                <use id="zoomminus" xlink:href="#zoomMin" x="42" y="9" onmousedown="handleZoom(evt,'out')"/>
                <use id="reset" xlink:href="#resetDef" x="30" y="36" onmousedown="handleReset()"/>
                <g id="arrowUp" xlink:href="#dirArrow" transform="translate(30 24)" onmousedown="handlePan(0,-1)">
                  <use xlink:href="#rim" fill="#404040">
                        <set attributeName="fill" to="#808080" begin="arrowUp.mouseover" end="arrowUp.mouseout"/>
                  </use>
                  <path fill="none" stroke="white" stroke-width="1.5" d="M0,-3.0v7 M-2.5,-0.5L0,-3.0L2.5,-0.5"/>
                </g>
                <g id="arrowRight" xlink:href="#dirArrow" transform="rotate(90) translate(36 -43)" onmousedown="handlePan(1,0)">
                  <use xlink:href="#rim" fill="#404040">
                        <set attributeName="fill" to="#808080" begin="arrowRight.mouseover" end="arrowRight.mouseout"/>
                  </use>
                  <path fill="none" stroke="white" stroke-width="1.5" d="M0,-3.0v7 M-2.5,-0.5L0,-3.0L2.5,-0.5"/>
                </g>
                <g id="arrowDown" xlink:href="#dirArrow" transform="rotate(180) translate(-30 -48)" onmousedown="handlePan(0,1)">
                  <use xlink:href="#rim" fill="#404040">
                        <set attributeName="fill" to="#808080" begin="arrowDown.mouseover" end="arrowDown.mouseout"/>
                  </use>
                  <path fill="none" stroke="white" stroke-width="1.5" d="M0,-3.0v7 M-2.5,-0.5L0,-3.0L2.5,-0.5"/>
                </g>
                <g id="arrowLeft" xlink:href="#dirArrow" transform="rotate(270) translate(-36 17)" onmousedown="handlePan(-1,0)">
                  <use xlink:href="#rim" fill="#404040">
                        <set attributeName="fill" to="#808080" begin="arrowLeft.mouseover" end="arrowLeft.mouseout"/>
                  </use>
                  <path fill="none" stroke="white" stroke-width="1.5" d="M0,-3.0v7 M-2.5,-0.5L0,-3.0L2.5,-0.5"/>
                </g>
        </g>
        <svg viewBox="0 0 15 15" width="100%" height="30px" preserveAspectRatio="xMaxYMin meet">
         <g id="arrow_out" transform="scale(0.3 0.3)">
          <a xlink:href="autogenerated_2msgs_2include_2geometry__msgs___quaternion_8h__dep__incl_org.svg" target="_base">
           <rect id="button" ry="5" rx="5" y="6" x="6" height="38" width="38"
                fill="#f2f5e9" fill-opacity="0.5" stroke="#606060" stroke-width="1.0"/>
           <path id="arrow"
             d="M 11.500037,31.436501 C 11.940474,20.09759 22.043105,11.32322 32.158766,21.979434 L 37.068811,17.246167 C 37.068811,17.246167 37.088388,32 37.088388,32 L 22.160133,31.978069 C 22.160133,31.978069 26.997745,27.140456 26.997745,27.140456 C 18.528582,18.264221 13.291696,25.230495 11.500037,31.436501 z"
             style="fill:#404040;"/>
          </a>
         </g>
        </svg>
</svg>
