<?xml version="1.0" encoding="UTF-8" standalone="no"?>
<!DOCTYPE svg PUBLIC "-//W3C//DTD SVG 1.1//EN"
 "http://www.w3.org/Graphics/SVG/1.1/DTD/svg11.dtd">
<!-- Generated by graphviz version 2.36.0 (20140111.2315)
 -->
<!-- Title: /home/travis/build/robotology&#45;playground/human&#45;dynamics&#45;estimation/build/human&#45;viz&#45;bridge/autogenerated/data/src/XsensSensorData.cpp Pages: 1 -->
<svg width="239pt" height="296pt"
 viewBox="0.00 0.00 239.00 296.00" xmlns="http://www.w3.org/2000/svg" xmlns:xlink="http://www.w3.org/1999/xlink">
<g id="graph0" class="graph" transform="scale(1 1) rotate(0) translate(4 292)">
<title>/home/travis/build/robotology&#45;playground/human&#45;dynamics&#45;estimation/build/human&#45;viz&#45;bridge/autogenerated/data/src/XsensSensorData.cpp</title>
<!-- Node1 -->
<g id="node1" class="node"><title>Node1</title>
<polygon fill="#bfbfbf" stroke="black" points="0,-224.5 0,-287.5 182,-287.5 182,-224.5 0,-224.5"/>
<text text-anchor="start" x="8" y="-275.5" font-family="Helvetica,sans-Serif" font-size="10.00">/home/travis/build</text>
<text text-anchor="start" x="8" y="-264.5" font-family="Helvetica,sans-Serif" font-size="10.00">/robotology&#45;playground</text>
<text text-anchor="start" x="8" y="-253.5" font-family="Helvetica,sans-Serif" font-size="10.00">/human&#45;dynamics&#45;estimation</text>
<text text-anchor="start" x="8" y="-242.5" font-family="Helvetica,sans-Serif" font-size="10.00">/build/human&#45;viz&#45;bridge/autogenerated</text>
<text text-anchor="middle" x="91" y="-231.5" font-family="Helvetica,sans-Serif" font-size="10.00">/data/src/XsensSensorData.cpp</text>
</g>
<!-- Node2 -->
<g id="node2" class="node"><title>Node2</title>
<g id="a_node2"><a xlink:href="autogenerated_2data_2include_2thrift_2_xsens_sensor_data_8h.html" target="_top" xlink:title="thrift/XsensSensorData.h">
<polygon fill="none" stroke="black" points="27.5,-168.5 27.5,-187.5 154.5,-187.5 154.5,-168.5 27.5,-168.5"/>
<text text-anchor="middle" x="91" y="-175.5" font-family="Helvetica,sans-Serif" font-size="10.00">thrift/XsensSensorData.h</text>
</a>
</g>
</g>
<!-- Node1&#45;&gt;Node2 -->
<g id="edge1" class="edge"><title>Node1&#45;&gt;Node2</title>
<path fill="none" stroke="midnightblue" d="M91,-224.088C91,-215.15 91,-205.669 91,-197.719"/>
<polygon fill="midnightblue" stroke="midnightblue" points="94.5001,-197.718 91,-187.718 87.5001,-197.718 94.5001,-197.718"/>
</g>
<!-- Node3 -->
<g id="node3" class="node"><title>Node3</title>
<polygon fill="none" stroke="#bfbfbf" points="14,-0.5 14,-19.5 94,-19.5 94,-0.5 14,-0.5"/>
<text text-anchor="middle" x="54" y="-7.5" font-family="Helvetica,sans-Serif" font-size="10.00">yarp/os/Wire.h</text>
</g>
<!-- Node2&#45;&gt;Node3 -->
<g id="edge2" class="edge"><title>Node2&#45;&gt;Node3</title>
<path fill="none" stroke="midnightblue" d="M80.4481,-168.356C61.9197,-152.41 24.1605,-116.291 10,-76 7.05266,-67.614 6.64456,-64.2312 10,-56 14.8,-44.2251 24.3286,-33.8564 33.2948,-26.0486"/>
<polygon fill="midnightblue" stroke="midnightblue" points="35.6504,-28.6448 41.2191,-19.6314 31.245,-23.2048 35.6504,-28.6448"/>
</g>
<!-- Node4 -->
<g id="node4" class="node"><title>Node4</title>
<polygon fill="none" stroke="#bfbfbf" points="112,-0.5 112,-19.5 232,-19.5 232,-0.5 112,-0.5"/>
<text text-anchor="middle" x="172" y="-7.5" font-family="Helvetica,sans-Serif" font-size="10.00">yarp/os/idl/WireTypes.h</text>
</g>
<!-- Node2&#45;&gt;Node4 -->
<g id="edge3" class="edge"><title>Node2&#45;&gt;Node4</title>
<path fill="none" stroke="midnightblue" d="M131.147,-168.429C150.975,-161.953 173.138,-150.83 185,-132 205.003,-100.247 190.989,-54.3051 180.534,-29.1509"/>
<polygon fill="midnightblue" stroke="midnightblue" points="183.622,-27.479 176.38,-19.7452 177.218,-30.3068 183.622,-27.479"/>
</g>
<!-- Node5 -->
<g id="node5" class="node"><title>Node5</title>
<g id="a_node5"><a xlink:href="human-viz-bridge_2autogenerated_2data_2include_2thrift_2_quaternion_8h.html" target="_top" xlink:title="thrift/Quaternion.h">
<polygon fill="none" stroke="black" points="81.5,-112.5 81.5,-131.5 176.5,-131.5 176.5,-112.5 81.5,-112.5"/>
<text text-anchor="middle" x="129" y="-119.5" font-family="Helvetica,sans-Serif" font-size="10.00">thrift/Quaternion.h</text>
</a>
</g>
</g>
<!-- Node2&#45;&gt;Node5 -->
<g id="edge4" class="edge"><title>Node2&#45;&gt;Node5</title>
<path fill="none" stroke="midnightblue" d="M97.2749,-168.083C102.642,-160.455 110.518,-149.264 117.079,-139.941"/>
<polygon fill="midnightblue" stroke="midnightblue" points="119.949,-141.943 122.842,-131.751 114.225,-137.915 119.949,-141.943"/>
</g>
<!-- Node6 -->
<g id="node6" class="node"><title>Node6</title>
<g id="a_node6"><a xlink:href="human-viz-bridge_2autogenerated_2data_2include_2thrift_2_vector3_8h.html" target="_top" xlink:title="thrift/Vector3.h">
<polygon fill="none" stroke="black" points="19.5,-56.5 19.5,-75.5 100.5,-75.5 100.5,-56.5 19.5,-56.5"/>
<text text-anchor="middle" x="60" y="-63.5" font-family="Helvetica,sans-Serif" font-size="10.00">thrift/Vector3.h</text>
</a>
</g>
</g>
<!-- Node2&#45;&gt;Node6 -->
<g id="edge10" class="edge"><title>Node2&#45;&gt;Node6</title>
<path fill="none" stroke="midnightblue" d="M86.6308,-168.245C82.342,-159.327 75.8934,-144.998 72,-132 67.4158,-116.696 64.2686,-98.8139 62.3513,-85.684"/>
<polygon fill="midnightblue" stroke="midnightblue" points="65.7896,-84.9921 60.9777,-75.553 58.8531,-85.9326 65.7896,-84.9921"/>
</g>
<!-- Node5&#45;&gt;Node3 -->
<g id="edge5" class="edge"><title>Node5&#45;&gt;Node3</title>
<path fill="none" stroke="midnightblue" d="M127.958,-112.317C126.039,-99.1635 120.987,-73.8343 109,-56 100.746,-43.7191 88.1532,-33.0682 77.0995,-25.2155"/>
<polygon fill="midnightblue" stroke="midnightblue" points="78.9256,-22.2256 68.6768,-19.5401 75.014,-28.0307 78.9256,-22.2256"/>
</g>
<!-- Node5&#45;&gt;Node4 -->
<g id="edge6" class="edge"><title>Node5&#45;&gt;Node4</title>
<path fill="none" stroke="midnightblue" d="M132.374,-112.368C139.376,-94.4563 155.612,-52.9233 164.984,-28.9482"/>
<polygon fill="midnightblue" stroke="midnightblue" points="168.26,-30.1794 168.642,-19.5914 161.741,-27.6308 168.26,-30.1794"/>
</g>
<!-- Node5&#45;&gt;Node6 -->
<g id="edge7" class="edge"><title>Node5&#45;&gt;Node6</title>
<path fill="none" stroke="midnightblue" d="M117.914,-112.324C107.514,-104.185 91.7394,-91.8395 79.2784,-82.0874"/>
<polygon fill="midnightblue" stroke="midnightblue" points="81.3199,-79.2407 71.2878,-75.8339 77.0057,-84.7533 81.3199,-79.2407"/>
</g>
<!-- Node6&#45;&gt;Node3 -->
<g id="edge8" class="edge"><title>Node6&#45;&gt;Node3</title>
<path fill="none" stroke="midnightblue" d="M59.0092,-56.083C58.2141,-48.9272 57.0706,-38.6353 56.0768,-29.6911"/>
<polygon fill="midnightblue" stroke="midnightblue" points="59.5553,-29.3034 54.9723,-19.7511 52.5982,-30.0765 59.5553,-29.3034"/>
</g>
<!-- Node6&#45;&gt;Node4 -->
<g id="edge9" class="edge"><title>Node6&#45;&gt;Node4</title>
<path fill="none" stroke="midnightblue" d="M77.9947,-56.324C96.0377,-47.6247 124.047,-34.1202 144.803,-24.113"/>
<polygon fill="midnightblue" stroke="midnightblue" points="146.562,-27.1502 154.05,-19.6545 143.522,-20.8449 146.562,-27.1502"/>
</g>
</g>
</svg>
