<?xml version="1.0" encoding="UTF-8" standalone="no"?>
<!DOCTYPE svg PUBLIC "-//W3C//DTD SVG 1.1//EN"
 "http://www.w3.org/Graphics/SVG/1.1/DTD/svg11.dtd">
<!-- Generated by graphviz version 2.36.0 (20140111.2315)
 -->
<!-- Title: /home/travis/build/robotology&#45;playground/human&#45;dynamics&#45;estimation/build/human&#45;viz&#45;bridge/autogenerated/msgs/include/geometry_msgs_Vector3.h Pages: 1 -->
<svg width="2366pt" height="620pt"
 viewBox="0.00 0.00 2366.00 620.00" xmlns="http://www.w3.org/2000/svg" xmlns:xlink="http://www.w3.org/1999/xlink">
<g id="graph0" class="graph" transform="scale(1 1) rotate(0) translate(4 616)">
<title>/home/travis/build/robotology&#45;playground/human&#45;dynamics&#45;estimation/build/human&#45;viz&#45;bridge/autogenerated/msgs/include/geometry_msgs_Vector3.h</title>
<!-- Node1 -->
<g id="node1" class="node"><title>Node1</title>
<polygon fill="#bfbfbf" stroke="black" points="1143.5,-548.5 1143.5,-611.5 1340.5,-611.5 1340.5,-548.5 1143.5,-548.5"/>
<text text-anchor="start" x="1151.5" y="-599.5" font-family="Helvetica,sans-Serif" font-size="10.00">/home/travis/build</text>
<text text-anchor="start" x="1151.5" y="-588.5" font-family="Helvetica,sans-Serif" font-size="10.00">/robotology&#45;playground</text>
<text text-anchor="start" x="1151.5" y="-577.5" font-family="Helvetica,sans-Serif" font-size="10.00">/human&#45;dynamics&#45;estimation</text>
<text text-anchor="start" x="1151.5" y="-566.5" font-family="Helvetica,sans-Serif" font-size="10.00">/build/human&#45;viz&#45;bridge/autogenerated</text>
<text text-anchor="middle" x="1242" y="-555.5" font-family="Helvetica,sans-Serif" font-size="10.00">/msgs/include/geometry_msgs_Vector3.h</text>
</g>
<!-- Node2 -->
<g id="node2" class="node"><title>Node2</title>
<g id="a_node2"><a xlink:href="human-viz-bridge_2__yarp__idl___2msgs_2geometry__msgs_2_vector3_8h.html" target="_top" xlink:title="/home/travis/build\l/robotology&#45;playground\l/human&#45;dynamics&#45;estimation\l/build/human&#45;viz&#45;bridge/\l_yarp_idl_/msgs/geometry_msgs\l/Vector3.h">
<polygon fill="none" stroke="black" points="-0.5,-437 -0.5,-511 160.5,-511 160.5,-437 -0.5,-437"/>
<text text-anchor="start" x="7.5" y="-499" font-family="Helvetica,sans-Serif" font-size="10.00">/home/travis/build</text>
<text text-anchor="start" x="7.5" y="-488" font-family="Helvetica,sans-Serif" font-size="10.00">/robotology&#45;playground</text>
<text text-anchor="start" x="7.5" y="-477" font-family="Helvetica,sans-Serif" font-size="10.00">/human&#45;dynamics&#45;estimation</text>
<text text-anchor="start" x="7.5" y="-466" font-family="Helvetica,sans-Serif" font-size="10.00">/build/human&#45;viz&#45;bridge/</text>
<text text-anchor="start" x="7.5" y="-455" font-family="Helvetica,sans-Serif" font-size="10.00">_yarp_idl_/msgs/geometry_msgs</text>
<text text-anchor="middle" x="80" y="-444" font-family="Helvetica,sans-Serif" font-size="10.00">/Vector3.h</text>
</a>
</g>
</g>
<!-- Node1&#45;&gt;Node2 -->
<g id="edge1" class="edge"><title>Node1&#45;&gt;Node2</title>
<path fill="none" stroke="midnightblue" d="M1133.15,-576.766C898.158,-571.2 349.938,-554.018 169,-512 166.229,-511.357 163.434,-510.635 160.629,-509.85"/>
<polygon fill="midnightblue" stroke="midnightblue" points="1133.35,-580.271 1143.42,-577.006 1133.51,-573.273 1133.35,-580.271"/>
</g>
<!-- Node3 -->
<g id="node3" class="node"><title>Node3</title>
<g id="a_node3"><a xlink:href="human-viz-bridge_2autogenerated_2msgs_2include_2geometry__msgs_2_vector3_8h.html" target="_top" xlink:title="/home/travis/build\l/robotology&#45;playground\l/human&#45;dynamics&#45;estimation\l/build/human&#45;viz&#45;bridge/autogenerated\l/msgs/include/geometry_msgs/Vector3.h">
<polygon fill="none" stroke="black" points="178.5,-442.5 178.5,-505.5 373.5,-505.5 373.5,-442.5 178.5,-442.5"/>
<text text-anchor="start" x="186.5" y="-493.5" font-family="Helvetica,sans-Serif" font-size="10.00">/home/travis/build</text>
<text text-anchor="start" x="186.5" y="-482.5" font-family="Helvetica,sans-Serif" font-size="10.00">/robotology&#45;playground</text>
<text text-anchor="start" x="186.5" y="-471.5" font-family="Helvetica,sans-Serif" font-size="10.00">/human&#45;dynamics&#45;estimation</text>
<text text-anchor="start" x="186.5" y="-460.5" font-family="Helvetica,sans-Serif" font-size="10.00">/build/human&#45;viz&#45;bridge/autogenerated</text>
<text text-anchor="middle" x="276" y="-449.5" font-family="Helvetica,sans-Serif" font-size="10.00">/msgs/include/geometry_msgs/Vector3.h</text>
</a>
</g>
</g>
<!-- Node1&#45;&gt;Node3 -->
<g id="edge2" class="edge"><title>Node1&#45;&gt;Node3</title>
<path fill="none" stroke="midnightblue" d="M1133.41,-578.909C969.894,-576.886 651.425,-565.595 387,-512 378.34,-510.245 369.418,-508.018 360.573,-505.53"/>
<polygon fill="midnightblue" stroke="midnightblue" points="1133.44,-582.41 1143.48,-579.024 1133.52,-575.41 1133.44,-582.41"/>
</g>
<!-- Node4 -->
<g id="node4" class="node"><title>Node4</title>
<g id="a_node4"><a xlink:href="autogenerated_2msgs_2include_2geometry__msgs___quaternion_8h.html" target="_top" xlink:title="/home/travis/build\l/robotology&#45;playground\l/human&#45;dynamics&#45;estimation\l/build/human&#45;viz&#45;bridge/autogenerated\l/msgs/include/geometry_msgs_Quaternion.h">
<polygon fill="none" stroke="black" points="1136.5,-442.5 1136.5,-505.5 1347.5,-505.5 1347.5,-442.5 1136.5,-442.5"/>
<text text-anchor="start" x="1144.5" y="-493.5" font-family="Helvetica,sans-Serif" font-size="10.00">/home/travis/build</text>
<text text-anchor="start" x="1144.5" y="-482.5" font-family="Helvetica,sans-Serif" font-size="10.00">/robotology&#45;playground</text>
<text text-anchor="start" x="1144.5" y="-471.5" font-family="Helvetica,sans-Serif" font-size="10.00">/human&#45;dynamics&#45;estimation</text>
<text text-anchor="start" x="1144.5" y="-460.5" font-family="Helvetica,sans-Serif" font-size="10.00">/build/human&#45;viz&#45;bridge/autogenerated</text>
<text text-anchor="middle" x="1242" y="-449.5" font-family="Helvetica,sans-Serif" font-size="10.00">/msgs/include/geometry_msgs_Quaternion.h</text>
</a>
</g>
</g>
<!-- Node1&#45;&gt;Node4 -->
<g id="edge3" class="edge"><title>Node1&#45;&gt;Node4</title>
<path fill="none" stroke="midnightblue" d="M1242,-538.268C1242,-527.458 1242,-515.964 1242,-505.781"/>
<polygon fill="midnightblue" stroke="midnightblue" points="1238.5,-538.359 1242,-548.359 1245.5,-538.359 1238.5,-538.359"/>
</g>
<!-- Node7 -->
<g id="node7" class="node"><title>Node7</title>
<g id="a_node7"><a xlink:href="autogenerated_2msgs_2include_2geometry__msgs___transform_8h.html" target="_top" xlink:title="/home/travis/build\l/robotology&#45;playground\l/human&#45;dynamics&#45;estimation\l/build/human&#45;viz&#45;bridge/autogenerated\l/msgs/include/geometry_msgs_Transform.h">
<polygon fill="none" stroke="black" points="683,-330.5 683,-393.5 891,-393.5 891,-330.5 683,-330.5"/>
<text text-anchor="start" x="691" y="-381.5" font-family="Helvetica,sans-Serif" font-size="10.00">/home/travis/build</text>
<text text-anchor="start" x="691" y="-370.5" font-family="Helvetica,sans-Serif" font-size="10.00">/robotology&#45;playground</text>
<text text-anchor="start" x="691" y="-359.5" font-family="Helvetica,sans-Serif" font-size="10.00">/human&#45;dynamics&#45;estimation</text>
<text text-anchor="start" x="691" y="-348.5" font-family="Helvetica,sans-Serif" font-size="10.00">/build/human&#45;viz&#45;bridge/autogenerated</text>
<text text-anchor="middle" x="787" y="-337.5" font-family="Helvetica,sans-Serif" font-size="10.00">/msgs/include/geometry_msgs_Transform.h</text>
</a>
</g>
</g>
<!-- Node1&#45;&gt;Node7 -->
<g id="edge29" class="edge"><title>Node1&#45;&gt;Node7</title>
<path fill="none" stroke="midnightblue" d="M1133.15,-576.374C1063.49,-570.301 973.644,-553.956 905,-512 857.84,-483.176 821.877,-428.283 802.648,-393.775"/>
<polygon fill="midnightblue" stroke="midnightblue" points="1133.03,-579.876 1143.28,-577.198 1133.6,-572.899 1133.03,-579.876"/>
</g>
<!-- Node10 -->
<g id="node10" class="node"><title>Node10</title>
<g id="a_node10"><a xlink:href="autogenerated_2msgs_2include_2geometry__msgs___transform_stamped_8h.html" target="_top" xlink:title="/home/travis/build\l/robotology&#45;playground\l/human&#45;dynamics&#45;estimation\l/build/human&#45;viz&#45;bridge/autogenerated\l/msgs/include/geometry_msgs_TransformStamped.h">
<polygon fill="none" stroke="black" points="1185.5,-218.5 1185.5,-281.5 1432.5,-281.5 1432.5,-218.5 1185.5,-218.5"/>
<text text-anchor="start" x="1193.5" y="-269.5" font-family="Helvetica,sans-Serif" font-size="10.00">/home/travis/build</text>
<text text-anchor="start" x="1193.5" y="-258.5" font-family="Helvetica,sans-Serif" font-size="10.00">/robotology&#45;playground</text>
<text text-anchor="start" x="1193.5" y="-247.5" font-family="Helvetica,sans-Serif" font-size="10.00">/human&#45;dynamics&#45;estimation</text>
<text text-anchor="start" x="1193.5" y="-236.5" font-family="Helvetica,sans-Serif" font-size="10.00">/build/human&#45;viz&#45;bridge/autogenerated</text>
<text text-anchor="middle" x="1309" y="-225.5" font-family="Helvetica,sans-Serif" font-size="10.00">/msgs/include/geometry_msgs_TransformStamped.h</text>
</a>
</g>
</g>
<!-- Node1&#45;&gt;Node10 -->
<g id="edge30" class="edge"><title>Node1&#45;&gt;Node10</title>
<path fill="none" stroke="midnightblue" d="M1316.19,-543.475C1368.48,-513.598 1433.55,-465.271 1459,-400 1471.27,-368.53 1476.91,-352.637 1459,-324 1447.64,-305.83 1430.31,-292.064 1411.41,-281.676"/>
<polygon fill="midnightblue" stroke="midnightblue" points="1314.27,-540.538 1307.25,-548.475 1317.69,-546.647 1314.27,-540.538"/>
</g>
<!-- Node13 -->
<g id="node13" class="node"><title>Node13</title>
<g id="a_node13"><a xlink:href="autogenerated_2msgs_2include_2tf2__msgs___t_f_message_8h.html" target="_top" xlink:title="/home/travis/build\l/robotology&#45;playground\l/human&#45;dynamics&#45;estimation\l/build/human&#45;viz&#45;bridge/autogenerated\l/msgs/include/tf2_msgs_TFMessage.h">
<polygon fill="none" stroke="black" points="784,-106.5 784,-169.5 970,-169.5 970,-106.5 784,-106.5"/>
<text text-anchor="start" x="792" y="-157.5" font-family="Helvetica,sans-Serif" font-size="10.00">/home/travis/build</text>
<text text-anchor="start" x="792" y="-146.5" font-family="Helvetica,sans-Serif" font-size="10.00">/robotology&#45;playground</text>
<text text-anchor="start" x="792" y="-135.5" font-family="Helvetica,sans-Serif" font-size="10.00">/human&#45;dynamics&#45;estimation</text>
<text text-anchor="start" x="792" y="-124.5" font-family="Helvetica,sans-Serif" font-size="10.00">/build/human&#45;viz&#45;bridge/autogenerated</text>
<text text-anchor="middle" x="877" y="-113.5" font-family="Helvetica,sans-Serif" font-size="10.00">/msgs/include/tf2_msgs_TFMessage.h</text>
</a>
</g>
</g>
<!-- Node1&#45;&gt;Node13 -->
<g id="edge38" class="edge"><title>Node1&#45;&gt;Node13</title>
<path fill="none" stroke="midnightblue" d="M1163.45,-543.862C1104.14,-513.605 1024.87,-464.606 976,-400 921.33,-327.722 893.704,-221.772 882.784,-169.909"/>
<polygon fill="midnightblue" stroke="midnightblue" points="1161.91,-547.007 1172.42,-548.373 1165.06,-540.753 1161.91,-547.007"/>
</g>
<!-- Node16 -->
<g id="node16" class="node"><title>Node16</title>
<g id="a_node16"><a xlink:href="_human_joint_state_bridge_8cpp.html" target="_top" xlink:title="/home/travis/build\l/robotology&#45;playground\l/human&#45;dynamics&#45;estimation\l/human&#45;viz&#45;bridge/src/HumanJoint\lStateBridge.cpp">
<polygon fill="none" stroke="black" points="1307,-0.5 1307,-63.5 1473,-63.5 1473,-0.5 1307,-0.5"/>
<text text-anchor="start" x="1315" y="-51.5" font-family="Helvetica,sans-Serif" font-size="10.00">/home/travis/build</text>
<text text-anchor="start" x="1315" y="-40.5" font-family="Helvetica,sans-Serif" font-size="10.00">/robotology&#45;playground</text>
<text text-anchor="start" x="1315" y="-29.5" font-family="Helvetica,sans-Serif" font-size="10.00">/human&#45;dynamics&#45;estimation</text>
<text text-anchor="start" x="1315" y="-18.5" font-family="Helvetica,sans-Serif" font-size="10.00">/human&#45;viz&#45;bridge/src/HumanJoint</text>
<text text-anchor="middle" x="1390" y="-7.5" font-family="Helvetica,sans-Serif" font-size="10.00">StateBridge.cpp</text>
</a>
</g>
</g>
<!-- Node1&#45;&gt;Node16 -->
<g id="edge40" class="edge"><title>Node1&#45;&gt;Node16</title>
<path fill="none" stroke="midnightblue" d="M1350.56,-559.573C1453.66,-534.137 1593,-478.41 1593,-363 1593,-363 1593,-363 1593,-249 1593,-164.345 1509.18,-99.2972 1449.26,-63.6128"/>
<polygon fill="midnightblue" stroke="midnightblue" points="1349.61,-556.202 1340.71,-561.941 1351.25,-563.008 1349.61,-556.202"/>
</g>
<!-- Node17 -->
<g id="node17" class="node"><title>Node17</title>
<g id="a_node17"><a xlink:href="_human_t_f_bridge_8cpp.html" target="_top" xlink:title="/home/travis/build\l/robotology&#45;playground\l/human&#45;dynamics&#45;estimation\l/human&#45;viz&#45;bridge/src/HumanTFBridge.cpp">
<polygon fill="none" stroke="black" points="1491.5,-6 1491.5,-58 1694.5,-58 1694.5,-6 1491.5,-6"/>
<text text-anchor="start" x="1499.5" y="-46" font-family="Helvetica,sans-Serif" font-size="10.00">/home/travis/build</text>
<text text-anchor="start" x="1499.5" y="-35" font-family="Helvetica,sans-Serif" font-size="10.00">/robotology&#45;playground</text>
<text text-anchor="start" x="1499.5" y="-24" font-family="Helvetica,sans-Serif" font-size="10.00">/human&#45;dynamics&#45;estimation</text>
<text text-anchor="middle" x="1593" y="-13" font-family="Helvetica,sans-Serif" font-size="10.00">/human&#45;viz&#45;bridge/src/HumanTFBridge.cpp</text>
</a>
</g>
</g>
<!-- Node1&#45;&gt;Node17 -->
<g id="edge41" class="edge"><title>Node1&#45;&gt;Node17</title>
<path fill="none" stroke="midnightblue" d="M1350.75,-575.721C1412.17,-569.051 1487.5,-552.307 1543,-512 1605.23,-466.803 1631,-439.909 1631,-363 1631,-363 1631,-363 1631,-249 1631,-178.94 1611.37,-98.0055 1600.33,-58.0215"/>
<polygon fill="midnightblue" stroke="midnightblue" points="1350.22,-572.256 1340.62,-576.744 1350.93,-579.221 1350.22,-572.256"/>
</g>
<!-- Node18 -->
<g id="node18" class="node"><title>Node18</title>
<g id="a_node18"><a xlink:href="autogenerated_2msgs_2include_2tf__tf_message_8h.html" target="_top" xlink:title="/home/travis/build\l/robotology&#45;playground\l/human&#45;dynamics&#45;estimation\l/build/human&#45;viz&#45;bridge/autogenerated\l/msgs/include/tf_tfMessage.h">
<polygon fill="none" stroke="black" points="379,-106.5 379,-169.5 561,-169.5 561,-106.5 379,-106.5"/>
<text text-anchor="start" x="387" y="-157.5" font-family="Helvetica,sans-Serif" font-size="10.00">/home/travis/build</text>
<text text-anchor="start" x="387" y="-146.5" font-family="Helvetica,sans-Serif" font-size="10.00">/robotology&#45;playground</text>
<text text-anchor="start" x="387" y="-135.5" font-family="Helvetica,sans-Serif" font-size="10.00">/human&#45;dynamics&#45;estimation</text>
<text text-anchor="start" x="387" y="-124.5" font-family="Helvetica,sans-Serif" font-size="10.00">/build/human&#45;viz&#45;bridge/autogenerated</text>
<text text-anchor="middle" x="470" y="-113.5" font-family="Helvetica,sans-Serif" font-size="10.00">/msgs/include/tf_tfMessage.h</text>
</a>
</g>
</g>
<!-- Node1&#45;&gt;Node18 -->
<g id="edge39" class="edge"><title>Node1&#45;&gt;Node18</title>
<path fill="none" stroke="midnightblue" d="M1133.26,-572.366C1047.72,-564.584 926.591,-547.831 826,-512 638.788,-445.315 538.273,-460.163 439,-288 417.618,-250.919 435.712,-201.102 451.882,-169.516"/>
<polygon fill="midnightblue" stroke="midnightblue" points="1132.98,-575.854 1143.25,-573.248 1133.6,-568.882 1132.98,-575.854"/>
</g>
<!-- Node21 -->
<g id="node21" class="node"><title>Node21</title>
<g id="a_node21"><a xlink:href="autogenerated_2msgs_2include_2geometry__msgs___wrench_8h.html" target="_top" xlink:title="/home/travis/build\l/robotology&#45;playground\l/human&#45;dynamics&#45;estimation\l/build/human&#45;viz&#45;bridge/autogenerated\l/msgs/include/geometry_msgs_Wrench.h">
<polygon fill="none" stroke="black" points="1730.5,-442.5 1730.5,-505.5 1927.5,-505.5 1927.5,-442.5 1730.5,-442.5"/>
<text text-anchor="start" x="1738.5" y="-493.5" font-family="Helvetica,sans-Serif" font-size="10.00">/home/travis/build</text>
<text text-anchor="start" x="1738.5" y="-482.5" font-family="Helvetica,sans-Serif" font-size="10.00">/robotology&#45;playground</text>
<text text-anchor="start" x="1738.5" y="-471.5" font-family="Helvetica,sans-Serif" font-size="10.00">/human&#45;dynamics&#45;estimation</text>
<text text-anchor="start" x="1738.5" y="-460.5" font-family="Helvetica,sans-Serif" font-size="10.00">/build/human&#45;viz&#45;bridge/autogenerated</text>
<text text-anchor="middle" x="1829" y="-449.5" font-family="Helvetica,sans-Serif" font-size="10.00">/msgs/include/geometry_msgs_Wrench.h</text>
</a>
</g>
</g>
<!-- Node1&#45;&gt;Node21 -->
<g id="edge31" class="edge"><title>Node1&#45;&gt;Node21</title>
<path fill="none" stroke="midnightblue" d="M1350.94,-561.907C1432.13,-548.921 1545.66,-530.241 1645,-512 1672.72,-506.91 1702.72,-501.035 1730.28,-495.487"/>
<polygon fill="midnightblue" stroke="midnightblue" points="1350.03,-558.508 1340.71,-563.541 1351.13,-565.421 1350.03,-558.508"/>
</g>
<!-- Node24 -->
<g id="node24" class="node"><title>Node24</title>
<g id="a_node24"><a xlink:href="autogenerated_2msgs_2include_2geometry__msgs___wrench_stamped_8h.html" target="_top" xlink:title="/home/travis/build\l/robotology&#45;playground\l/human&#45;dynamics&#45;estimation\l/build/human&#45;viz&#45;bridge/autogenerated\l/msgs/include/geometry_msgs_WrenchStamped.h">
<polygon fill="none" stroke="black" points="2052,-330.5 2052,-393.5 2288,-393.5 2288,-330.5 2052,-330.5"/>
<text text-anchor="start" x="2060" y="-381.5" font-family="Helvetica,sans-Serif" font-size="10.00">/home/travis/build</text>
<text text-anchor="start" x="2060" y="-370.5" font-family="Helvetica,sans-Serif" font-size="10.00">/robotology&#45;playground</text>
<text text-anchor="start" x="2060" y="-359.5" font-family="Helvetica,sans-Serif" font-size="10.00">/human&#45;dynamics&#45;estimation</text>
<text text-anchor="start" x="2060" y="-348.5" font-family="Helvetica,sans-Serif" font-size="10.00">/build/human&#45;viz&#45;bridge/autogenerated</text>
<text text-anchor="middle" x="2170" y="-337.5" font-family="Helvetica,sans-Serif" font-size="10.00">/msgs/include/geometry_msgs_WrenchStamped.h</text>
</a>
</g>
</g>
<!-- Node1&#45;&gt;Node24 -->
<g id="edge37" class="edge"><title>Node1&#45;&gt;Node24</title>
<path fill="none" stroke="midnightblue" d="M1350.85,-574.685C1518.28,-567.005 1830.71,-548.256 1936,-512 2012.96,-485.5 2090.29,-429.053 2133.96,-393.748"/>
<polygon fill="midnightblue" stroke="midnightblue" points="1350.6,-571.192 1340.77,-575.142 1350.92,-578.185 1350.6,-571.192"/>
</g>
<!-- Node5 -->
<g id="node5" class="node"><title>Node5</title>
<g id="a_node5"><a xlink:href="human-viz-bridge_2__yarp__idl___2msgs_2geometry__msgs_2_quaternion_8h.html" target="_top" xlink:title="/home/travis/build\l/robotology&#45;playground\l/human&#45;dynamics&#45;estimation\l/build/human&#45;viz&#45;bridge/\l_yarp_idl_/msgs/geometry_msgs\l/Quaternion.h">
<polygon fill="none" stroke="black" points="1289.5,-325 1289.5,-399 1450.5,-399 1450.5,-325 1289.5,-325"/>
<text text-anchor="start" x="1297.5" y="-387" font-family="Helvetica,sans-Serif" font-size="10.00">/home/travis/build</text>
<text text-anchor="start" x="1297.5" y="-376" font-family="Helvetica,sans-Serif" font-size="10.00">/robotology&#45;playground</text>
<text text-anchor="start" x="1297.5" y="-365" font-family="Helvetica,sans-Serif" font-size="10.00">/human&#45;dynamics&#45;estimation</text>
<text text-anchor="start" x="1297.5" y="-354" font-family="Helvetica,sans-Serif" font-size="10.00">/build/human&#45;viz&#45;bridge/</text>
<text text-anchor="start" x="1297.5" y="-343" font-family="Helvetica,sans-Serif" font-size="10.00">_yarp_idl_/msgs/geometry_msgs</text>
<text text-anchor="middle" x="1370" y="-332" font-family="Helvetica,sans-Serif" font-size="10.00">/Quaternion.h</text>
</a>
</g>
</g>
<!-- Node4&#45;&gt;Node5 -->
<g id="edge4" class="edge"><title>Node4&#45;&gt;Node5</title>
<path fill="none" stroke="midnightblue" d="M1285.5,-435.613C1299.15,-423.89 1314.18,-410.974 1327.73,-399.325"/>
<polygon fill="midnightblue" stroke="midnightblue" points="1282.96,-433.187 1277.66,-442.359 1287.52,-438.496 1282.96,-433.187"/>
</g>
<!-- Node6 -->
<g id="node6" class="node"><title>Node6</title>
<g id="a_node6"><a xlink:href="human-viz-bridge_2autogenerated_2msgs_2include_2geometry__msgs_2_quaternion_8h.html" target="_top" xlink:title="/home/travis/build\l/robotology&#45;playground\l/human&#45;dynamics&#45;estimation\l/build/human&#45;viz&#45;bridge/autogenerated\l/msgs/include/geometry_msgs/Quaternion.h">
<polygon fill="none" stroke="black" points="985.5,-330.5 985.5,-393.5 1194.5,-393.5 1194.5,-330.5 985.5,-330.5"/>
<text text-anchor="start" x="993.5" y="-381.5" font-family="Helvetica,sans-Serif" font-size="10.00">/home/travis/build</text>
<text text-anchor="start" x="993.5" y="-370.5" font-family="Helvetica,sans-Serif" font-size="10.00">/robotology&#45;playground</text>
<text text-anchor="start" x="993.5" y="-359.5" font-family="Helvetica,sans-Serif" font-size="10.00">/human&#45;dynamics&#45;estimation</text>
<text text-anchor="start" x="993.5" y="-348.5" font-family="Helvetica,sans-Serif" font-size="10.00">/build/human&#45;viz&#45;bridge/autogenerated</text>
<text text-anchor="middle" x="1090" y="-337.5" font-family="Helvetica,sans-Serif" font-size="10.00">/msgs/include/geometry_msgs/Quaternion.h</text>
</a>
</g>
</g>
<!-- Node4&#45;&gt;Node6 -->
<g id="edge5" class="edge"><title>Node4&#45;&gt;Node6</title>
<path fill="none" stroke="midnightblue" d="M1191.34,-436.342C1172.22,-422.499 1150.67,-406.905 1132.38,-393.667"/>
<polygon fill="midnightblue" stroke="midnightblue" points="1189.51,-439.332 1199.66,-442.359 1193.61,-433.661 1189.51,-439.332"/>
</g>
<!-- Node4&#45;&gt;Node7 -->
<g id="edge6" class="edge"><title>Node4&#45;&gt;Node7</title>
<path fill="none" stroke="midnightblue" d="M1126.39,-445.049C1053.94,-427.535 961.34,-405.148 891.172,-388.184"/>
<polygon fill="midnightblue" stroke="midnightblue" points="1125.93,-448.539 1136.47,-447.487 1127.57,-441.735 1125.93,-448.539"/>
</g>
<!-- Node4&#45;&gt;Node10 -->
<g id="edge24" class="edge"><title>Node4&#45;&gt;Node10</title>
<path fill="none" stroke="midnightblue" d="M1251.27,-432.719C1258.52,-402.54 1269.31,-360.364 1281,-324 1285.53,-309.915 1291.28,-294.59 1296.39,-281.634"/>
<polygon fill="midnightblue" stroke="midnightblue" points="1247.86,-431.929 1248.95,-442.468 1254.67,-433.55 1247.86,-431.929"/>
</g>
<!-- Node4&#45;&gt;Node13 -->
<g id="edge25" class="edge"><title>Node4&#45;&gt;Node13</title>
<path fill="none" stroke="midnightblue" d="M1239.88,-432.266C1236.33,-399.991 1227.04,-355.278 1203,-324 1168.4,-278.983 1029.5,-209.38 944.564,-169.624"/>
<polygon fill="midnightblue" stroke="midnightblue" points="1236.4,-432.656 1240.84,-442.275 1243.37,-431.986 1236.4,-432.656"/>
</g>
<!-- Node4&#45;&gt;Node16 -->
<g id="edge27" class="edge"><title>Node4&#45;&gt;Node16</title>
<path fill="none" stroke="midnightblue" d="M1357.57,-461.235C1396.19,-451.152 1435.37,-432.88 1459,-400 1487.57,-360.245 1493.87,-245.671 1439,-100 1434.12,-87.0537 1426.01,-74.3953 1417.78,-63.6294"/>
<polygon fill="midnightblue" stroke="midnightblue" points="1356.66,-457.854 1347.77,-463.626 1358.32,-464.655 1356.66,-457.854"/>
</g>
<!-- Node4&#45;&gt;Node17 -->
<g id="edge28" class="edge"><title>Node4&#45;&gt;Node17</title>
<path fill="none" stroke="midnightblue" d="M1357.57,-461.432C1401.91,-451.52 1449.78,-433.314 1483,-400 1579.75,-302.97 1592.02,-124.457 1593.12,-58.4268"/>
<polygon fill="midnightblue" stroke="midnightblue" points="1356.63,-458.052 1347.57,-463.542 1358.08,-464.901 1356.63,-458.052"/>
</g>
<!-- Node4&#45;&gt;Node18 -->
<g id="edge26" class="edge"><title>Node4&#45;&gt;Node18</title>
<path fill="none" stroke="midnightblue" d="M1126.42,-460.692C1076.28,-450.719 1019.26,-432.668 976,-400 898.018,-341.115 942.378,-267.57 862,-212 814.311,-179.03 661.211,-157.953 561.055,-147.32"/>
<polygon fill="midnightblue" stroke="midnightblue" points="1125.88,-464.151 1136.35,-462.581 1127.18,-457.274 1125.88,-464.151"/>
</g>
<!-- Node8 -->
<g id="node8" class="node"><title>Node8</title>
<g id="a_node8"><a xlink:href="__yarp__idl___2msgs_2geometry__msgs_2_transform_8h.html" target="_top" xlink:title="/home/travis/build\l/robotology&#45;playground\l/human&#45;dynamics&#45;estimation\l/build/human&#45;viz&#45;bridge/\l_yarp_idl_/msgs/geometry_msgs\l/Transform.h">
<polygon fill="none" stroke="black" points="467.5,-213 467.5,-287 628.5,-287 628.5,-213 467.5,-213"/>
<text text-anchor="start" x="475.5" y="-275" font-family="Helvetica,sans-Serif" font-size="10.00">/home/travis/build</text>
<text text-anchor="start" x="475.5" y="-264" font-family="Helvetica,sans-Serif" font-size="10.00">/robotology&#45;playground</text>
<text text-anchor="start" x="475.5" y="-253" font-family="Helvetica,sans-Serif" font-size="10.00">/human&#45;dynamics&#45;estimation</text>
<text text-anchor="start" x="475.5" y="-242" font-family="Helvetica,sans-Serif" font-size="10.00">/build/human&#45;viz&#45;bridge/</text>
<text text-anchor="start" x="475.5" y="-231" font-family="Helvetica,sans-Serif" font-size="10.00">_yarp_idl_/msgs/geometry_msgs</text>
<text text-anchor="middle" x="548" y="-220" font-family="Helvetica,sans-Serif" font-size="10.00">/Transform.h</text>
</a>
</g>
</g>
<!-- Node7&#45;&gt;Node8 -->
<g id="edge7" class="edge"><title>Node7&#45;&gt;Node8</title>
<path fill="none" stroke="midnightblue" d="M711.039,-326.039C684.069,-313.626 653.671,-299.635 626.493,-287.126"/>
<polygon fill="midnightblue" stroke="midnightblue" points="709.878,-329.357 720.425,-330.359 712.804,-322.998 709.878,-329.357"/>
</g>
<!-- Node9 -->
<g id="node9" class="node"><title>Node9</title>
<g id="a_node9"><a xlink:href="autogenerated_2msgs_2include_2geometry__msgs_2_transform_8h.html" target="_top" xlink:title="/home/travis/build\l/robotology&#45;playground\l/human&#45;dynamics&#45;estimation\l/build/human&#45;viz&#45;bridge/autogenerated\l/msgs/include/geometry_msgs/Transform.h">
<polygon fill="none" stroke="black" points="647,-218.5 647,-281.5 853,-281.5 853,-218.5 647,-218.5"/>
<text text-anchor="start" x="655" y="-269.5" font-family="Helvetica,sans-Serif" font-size="10.00">/home/travis/build</text>
<text text-anchor="start" x="655" y="-258.5" font-family="Helvetica,sans-Serif" font-size="10.00">/robotology&#45;playground</text>
<text text-anchor="start" x="655" y="-247.5" font-family="Helvetica,sans-Serif" font-size="10.00">/human&#45;dynamics&#45;estimation</text>
<text text-anchor="start" x="655" y="-236.5" font-family="Helvetica,sans-Serif" font-size="10.00">/build/human&#45;viz&#45;bridge/autogenerated</text>
<text text-anchor="middle" x="750" y="-225.5" font-family="Helvetica,sans-Serif" font-size="10.00">/msgs/include/geometry_msgs/Transform.h</text>
</a>
</g>
</g>
<!-- Node7&#45;&gt;Node9 -->
<g id="edge8" class="edge"><title>Node7&#45;&gt;Node9</title>
<path fill="none" stroke="midnightblue" d="M773.481,-320.809C769.158,-307.957 764.443,-293.938 760.38,-281.858"/>
<polygon fill="midnightblue" stroke="midnightblue" points="770.188,-321.997 776.693,-330.359 776.823,-319.765 770.188,-321.997"/>
</g>
<!-- Node7&#45;&gt;Node10 -->
<g id="edge9" class="edge"><title>Node7&#45;&gt;Node10</title>
<path fill="none" stroke="midnightblue" d="M900.902,-336.998C984.922,-319.292 1099.14,-295.223 1185.38,-277.051"/>
<polygon fill="midnightblue" stroke="midnightblue" points="900.13,-333.583 891.067,-339.07 901.574,-340.433 900.13,-333.583"/>
</g>
<!-- Node7&#45;&gt;Node13 -->
<g id="edge22" class="edge"><title>Node7&#45;&gt;Node13</title>
<path fill="none" stroke="midnightblue" d="M836.088,-323.05C846.264,-312.786 855.772,-300.905 862,-288 880.193,-250.302 881.435,-201.088 879.852,-169.754"/>
<polygon fill="midnightblue" stroke="midnightblue" points="833.396,-320.783 828.598,-330.23 838.239,-325.837 833.396,-320.783"/>
</g>
<!-- Node7&#45;&gt;Node18 -->
<g id="edge23" class="edge"><title>Node7&#45;&gt;Node18</title>
<path fill="none" stroke="midnightblue" d="M672.71,-350.713C588.75,-340.512 484.83,-321.435 458,-288 431.282,-254.704 443.856,-202.675 456.257,-169.737"/>
<polygon fill="midnightblue" stroke="midnightblue" points="672.502,-354.213 682.844,-351.914 673.325,-347.262 672.502,-354.213"/>
</g>
<!-- Node11 -->
<g id="node11" class="node"><title>Node11</title>
<g id="a_node11"><a xlink:href="__yarp__idl___2msgs_2geometry__msgs_2_transform_stamped_8h.html" target="_top" xlink:title="/home/travis/build\l/robotology&#45;playground\l/human&#45;dynamics&#45;estimation\l/build/human&#45;viz&#45;bridge/\l_yarp_idl_/msgs/geometry_msgs\l/TransformStamped.h">
<polygon fill="none" stroke="black" points="988.5,-101 988.5,-175 1149.5,-175 1149.5,-101 988.5,-101"/>
<text text-anchor="start" x="996.5" y="-163" font-family="Helvetica,sans-Serif" font-size="10.00">/home/travis/build</text>
<text text-anchor="start" x="996.5" y="-152" font-family="Helvetica,sans-Serif" font-size="10.00">/robotology&#45;playground</text>
<text text-anchor="start" x="996.5" y="-141" font-family="Helvetica,sans-Serif" font-size="10.00">/human&#45;dynamics&#45;estimation</text>
<text text-anchor="start" x="996.5" y="-130" font-family="Helvetica,sans-Serif" font-size="10.00">/build/human&#45;viz&#45;bridge/</text>
<text text-anchor="start" x="996.5" y="-119" font-family="Helvetica,sans-Serif" font-size="10.00">_yarp_idl_/msgs/geometry_msgs</text>
<text text-anchor="middle" x="1069" y="-108" font-family="Helvetica,sans-Serif" font-size="10.00">/TransformStamped.h</text>
</a>
</g>
</g>
<!-- Node10&#45;&gt;Node11 -->
<g id="edge10" class="edge"><title>Node10&#45;&gt;Node11</title>
<path fill="none" stroke="midnightblue" d="M1232.72,-214.039C1205.64,-201.626 1175.11,-187.635 1147.82,-175.126"/>
<polygon fill="midnightblue" stroke="midnightblue" points="1231.6,-217.374 1242.15,-218.359 1234.51,-211.011 1231.6,-217.374"/>
</g>
<!-- Node12 -->
<g id="node12" class="node"><title>Node12</title>
<g id="a_node12"><a xlink:href="autogenerated_2msgs_2include_2geometry__msgs_2_transform_stamped_8h.html" target="_top" xlink:title="/home/travis/build\l/robotology&#45;playground\l/human&#45;dynamics&#45;estimation\l/build/human&#45;viz&#45;bridge/autogenerated\l/msgs/include/geometry_msgs/TransformStamped.h">
<polygon fill="none" stroke="black" points="1167.5,-106.5 1167.5,-169.5 1412.5,-169.5 1412.5,-106.5 1167.5,-106.5"/>
<text text-anchor="start" x="1175.5" y="-157.5" font-family="Helvetica,sans-Serif" font-size="10.00">/home/travis/build</text>
<text text-anchor="start" x="1175.5" y="-146.5" font-family="Helvetica,sans-Serif" font-size="10.00">/robotology&#45;playground</text>
<text text-anchor="start" x="1175.5" y="-135.5" font-family="Helvetica,sans-Serif" font-size="10.00">/human&#45;dynamics&#45;estimation</text>
<text text-anchor="start" x="1175.5" y="-124.5" font-family="Helvetica,sans-Serif" font-size="10.00">/build/human&#45;viz&#45;bridge/autogenerated</text>
<text text-anchor="middle" x="1290" y="-113.5" font-family="Helvetica,sans-Serif" font-size="10.00">/msgs/include/geometry_msgs/TransformStamped.h</text>
</a>
</g>
</g>
<!-- Node10&#45;&gt;Node12 -->
<g id="edge11" class="edge"><title>Node10&#45;&gt;Node12</title>
<path fill="none" stroke="midnightblue" d="M1301.99,-208.431C1299.79,-195.682 1297.4,-181.82 1295.33,-169.858"/>
<polygon fill="midnightblue" stroke="midnightblue" points="1298.56,-209.101 1303.71,-218.359 1305.45,-207.909 1298.56,-209.101"/>
</g>
<!-- Node10&#45;&gt;Node13 -->
<g id="edge12" class="edge"><title>Node10&#45;&gt;Node13</title>
<path fill="none" stroke="midnightblue" d="M1188.25,-216.056C1182.43,-214.646 1176.66,-213.286 1171,-212 1086.34,-192.744 1062.75,-198.879 979,-176 971.913,-174.064 964.618,-171.859 957.343,-169.512"/>
<polygon fill="midnightblue" stroke="midnightblue" points="1187.54,-219.485 1198.09,-218.471 1189.21,-212.687 1187.54,-219.485"/>
</g>
<!-- Node10&#45;&gt;Node16 -->
<g id="edge20" class="edge"><title>Node10&#45;&gt;Node16</title>
<path fill="none" stroke="midnightblue" d="M1387.51,-212.521C1400.96,-202.63 1413.12,-190.533 1421,-176 1440.24,-140.488 1423.62,-93.9251 1408.27,-63.7378"/>
<polygon fill="midnightblue" stroke="midnightblue" points="1385.24,-209.837 1378.99,-218.397 1389.21,-215.599 1385.24,-209.837"/>
</g>
<!-- Node10&#45;&gt;Node17 -->
<g id="edge21" class="edge"><title>Node10&#45;&gt;Node17</title>
<path fill="none" stroke="midnightblue" d="M1379.39,-213.457C1399.26,-202.372 1420.5,-189.489 1439,-176 1489.12,-139.457 1540.58,-88.388 1569.51,-58.1997"/>
<polygon fill="midnightblue" stroke="midnightblue" points="1377.45,-210.532 1370.37,-218.419 1380.82,-216.665 1377.45,-210.532"/>
</g>
<!-- Node10&#45;&gt;Node18 -->
<g id="edge17" class="edge"><title>Node10&#45;&gt;Node18</title>
<path fill="none" stroke="midnightblue" d="M1175.07,-231.441C1003.07,-208.89 709.138,-170.353 561.013,-150.933"/>
<polygon fill="midnightblue" stroke="midnightblue" points="1174.83,-234.939 1185.2,-232.769 1175.74,-227.999 1174.83,-234.939"/>
</g>
<!-- Node14 -->
<g id="node14" class="node"><title>Node14</title>
<g id="a_node14"><a xlink:href="__yarp__idl___2msgs_2tf2__msgs_2_t_f_message_8h.html" target="_top" xlink:title="/home/travis/build\l/robotology&#45;playground\l/human&#45;dynamics&#45;estimation\l/build/human&#45;viz&#45;bridge/\l_yarp_idl_/msgs/tf2_msgs/TFMessage.h">
<polygon fill="none" stroke="black" points="748,-0.5 748,-63.5 942,-63.5 942,-0.5 748,-0.5"/>
<text text-anchor="start" x="756" y="-51.5" font-family="Helvetica,sans-Serif" font-size="10.00">/home/travis/build</text>
<text text-anchor="start" x="756" y="-40.5" font-family="Helvetica,sans-Serif" font-size="10.00">/robotology&#45;playground</text>
<text text-anchor="start" x="756" y="-29.5" font-family="Helvetica,sans-Serif" font-size="10.00">/human&#45;dynamics&#45;estimation</text>
<text text-anchor="start" x="756" y="-18.5" font-family="Helvetica,sans-Serif" font-size="10.00">/build/human&#45;viz&#45;bridge/</text>
<text text-anchor="middle" x="845" y="-7.5" font-family="Helvetica,sans-Serif" font-size="10.00">_yarp_idl_/msgs/tf2_msgs/TFMessage.h</text>
</a>
</g>
</g>
<!-- Node13&#45;&gt;Node14 -->
<g id="edge13" class="edge"><title>Node13&#45;&gt;Node14</title>
<path fill="none" stroke="midnightblue" d="M864.57,-96.6025C861.214,-85.6947 857.637,-74.0693 854.471,-63.7813"/>
<polygon fill="midnightblue" stroke="midnightblue" points="861.286,-97.8306 867.572,-106.359 867.976,-95.772 861.286,-97.8306"/>
</g>
<!-- Node15 -->
<g id="node15" class="node"><title>Node15</title>
<g id="a_node15"><a xlink:href="autogenerated_2msgs_2include_2tf2__msgs_2_t_f_message_8h.html" target="_top" xlink:title="/home/travis/build\l/robotology&#45;playground\l/human&#45;dynamics&#45;estimation\l/build/human&#45;viz&#45;bridge/autogenerated\l/msgs/include/tf2_msgs/TFMessage.h">
<polygon fill="none" stroke="black" points="960,-0.5 960,-63.5 1144,-63.5 1144,-0.5 960,-0.5"/>
<text text-anchor="start" x="968" y="-51.5" font-family="Helvetica,sans-Serif" font-size="10.00">/home/travis/build</text>
<text text-anchor="start" x="968" y="-40.5" font-family="Helvetica,sans-Serif" font-size="10.00">/robotology&#45;playground</text>
<text text-anchor="start" x="968" y="-29.5" font-family="Helvetica,sans-Serif" font-size="10.00">/human&#45;dynamics&#45;estimation</text>
<text text-anchor="start" x="968" y="-18.5" font-family="Helvetica,sans-Serif" font-size="10.00">/build/human&#45;viz&#45;bridge/autogenerated</text>
<text text-anchor="middle" x="1052" y="-7.5" font-family="Helvetica,sans-Serif" font-size="10.00">/msgs/include/tf2_msgs/TFMessage.h</text>
</a>
</g>
</g>
<!-- Node13&#45;&gt;Node15 -->
<g id="edge14" class="edge"><title>Node13&#45;&gt;Node15</title>
<path fill="none" stroke="midnightblue" d="M937.234,-101.204C957.829,-88.9642 980.665,-75.3936 1000.51,-63.6015"/>
<polygon fill="midnightblue" stroke="midnightblue" points="935.368,-98.2414 928.559,-106.359 938.944,-104.259 935.368,-98.2414"/>
</g>
<!-- Node13&#45;&gt;Node16 -->
<g id="edge15" class="edge"><title>Node13&#45;&gt;Node16</title>
<path fill="none" stroke="midnightblue" d="M966.538,-103.473C970.73,-102.235 974.898,-101.068 979,-100 1039.34,-84.2838 1204.98,-59.3267 1306.61,-44.7181"/>
<polygon fill="midnightblue" stroke="midnightblue" points="965.266,-100.202 956.734,-106.484 967.321,-106.894 965.266,-100.202"/>
</g>
<!-- Node13&#45;&gt;Node17 -->
<g id="edge16" class="edge"><title>Node13&#45;&gt;Node17</title>
<path fill="none" stroke="midnightblue" d="M963.999,-103.661C969.036,-102.289 974.06,-101.051 979,-100 1198.22,-53.3406 1261.18,-102.337 1482,-64 1491.27,-62.3915 1500.87,-60.3287 1510.38,-58.0326"/>
<polygon fill="midnightblue" stroke="midnightblue" points="962.956,-100.319 954.317,-106.453 964.896,-107.045 962.956,-100.319"/>
</g>
<!-- Node19 -->
<g id="node19" class="node"><title>Node19</title>
<g id="a_node19"><a xlink:href="__yarp__idl___2msgs_2tf_2tf_message_8h.html" target="_top" xlink:title="/home/travis/build\l/robotology&#45;playground\l/human&#45;dynamics&#45;estimation\l/build/human&#45;viz&#45;bridge/\l_yarp_idl_/msgs/tf/tfMessage.h">
<polygon fill="none" stroke="black" points="313,-0.5 313,-63.5 467,-63.5 467,-0.5 313,-0.5"/>
<text text-anchor="start" x="321" y="-51.5" font-family="Helvetica,sans-Serif" font-size="10.00">/home/travis/build</text>
<text text-anchor="start" x="321" y="-40.5" font-family="Helvetica,sans-Serif" font-size="10.00">/robotology&#45;playground</text>
<text text-anchor="start" x="321" y="-29.5" font-family="Helvetica,sans-Serif" font-size="10.00">/human&#45;dynamics&#45;estimation</text>
<text text-anchor="start" x="321" y="-18.5" font-family="Helvetica,sans-Serif" font-size="10.00">/build/human&#45;viz&#45;bridge/</text>
<text text-anchor="middle" x="390" y="-7.5" font-family="Helvetica,sans-Serif" font-size="10.00">_yarp_idl_/msgs/tf/tfMessage.h</text>
</a>
</g>
</g>
<!-- Node18&#45;&gt;Node19 -->
<g id="edge18" class="edge"><title>Node18&#45;&gt;Node19</title>
<path fill="none" stroke="midnightblue" d="M440.205,-98.2662C431.45,-86.8845 421.996,-74.5942 413.678,-63.7813"/>
<polygon fill="midnightblue" stroke="midnightblue" points="437.559,-100.567 446.43,-106.359 443.107,-96.2988 437.559,-100.567"/>
</g>
<!-- Node20 -->
<g id="node20" class="node"><title>Node20</title>
<g id="a_node20"><a xlink:href="autogenerated_2msgs_2include_2tf_2tf_message_8h.html" target="_top" xlink:title="/home/travis/build\l/robotology&#45;playground\l/human&#45;dynamics&#45;estimation\l/build/human&#45;viz&#45;bridge/autogenerated\l/msgs/include/tf/tfMessage.h">
<polygon fill="none" stroke="black" points="485,-0.5 485,-63.5 667,-63.5 667,-0.5 485,-0.5"/>
<text text-anchor="start" x="493" y="-51.5" font-family="Helvetica,sans-Serif" font-size="10.00">/home/travis/build</text>
<text text-anchor="start" x="493" y="-40.5" font-family="Helvetica,sans-Serif" font-size="10.00">/robotology&#45;playground</text>
<text text-anchor="start" x="493" y="-29.5" font-family="Helvetica,sans-Serif" font-size="10.00">/human&#45;dynamics&#45;estimation</text>
<text text-anchor="start" x="493" y="-18.5" font-family="Helvetica,sans-Serif" font-size="10.00">/build/human&#45;viz&#45;bridge/autogenerated</text>
<text text-anchor="middle" x="576" y="-7.5" font-family="Helvetica,sans-Serif" font-size="10.00">/msgs/include/tf/tfMessage.h</text>
</a>
</g>
</g>
<!-- Node18&#45;&gt;Node20 -->
<g id="edge19" class="edge"><title>Node18&#45;&gt;Node20</title>
<path fill="none" stroke="midnightblue" d="M508.468,-99.2583C520.348,-87.6017 533.285,-74.9091 544.627,-63.7813"/>
<polygon fill="midnightblue" stroke="midnightblue" points="505.917,-96.8573 501.23,-106.359 510.819,-101.854 505.917,-96.8573"/>
</g>
<!-- Node22 -->
<g id="node22" class="node"><title>Node22</title>
<g id="a_node22"><a xlink:href="__yarp__idl___2msgs_2geometry__msgs_2_wrench_8h.html" target="_top" xlink:title="/home/travis/build\l/robotology&#45;playground\l/human&#45;dynamics&#45;estimation\l/build/human&#45;viz&#45;bridge/\l_yarp_idl_/msgs/geometry_msgs\l/Wrench.h">
<polygon fill="none" stroke="black" points="1659.5,-325 1659.5,-399 1820.5,-399 1820.5,-325 1659.5,-325"/>
<text text-anchor="start" x="1667.5" y="-387" font-family="Helvetica,sans-Serif" font-size="10.00">/home/travis/build</text>
<text text-anchor="start" x="1667.5" y="-376" font-family="Helvetica,sans-Serif" font-size="10.00">/robotology&#45;playground</text>
<text text-anchor="start" x="1667.5" y="-365" font-family="Helvetica,sans-Serif" font-size="10.00">/human&#45;dynamics&#45;estimation</text>
<text text-anchor="start" x="1667.5" y="-354" font-family="Helvetica,sans-Serif" font-size="10.00">/build/human&#45;viz&#45;bridge/</text>
<text text-anchor="start" x="1667.5" y="-343" font-family="Helvetica,sans-Serif" font-size="10.00">_yarp_idl_/msgs/geometry_msgs</text>
<text text-anchor="middle" x="1740" y="-332" font-family="Helvetica,sans-Serif" font-size="10.00">/Wrench.h</text>
</a>
</g>
</g>
<!-- Node21&#45;&gt;Node22 -->
<g id="edge32" class="edge"><title>Node21&#45;&gt;Node22</title>
<path fill="none" stroke="midnightblue" d="M1797.68,-434.294C1788.49,-422.926 1778.46,-410.538 1769.39,-399.325"/>
<polygon fill="midnightblue" stroke="midnightblue" points="1795.2,-436.786 1804.21,-442.359 1800.64,-432.383 1795.2,-436.786"/>
</g>
<!-- Node23 -->
<g id="node23" class="node"><title>Node23</title>
<g id="a_node23"><a xlink:href="autogenerated_2msgs_2include_2geometry__msgs_2_wrench_8h.html" target="_top" xlink:title="/home/travis/build\l/robotology&#45;playground\l/human&#45;dynamics&#45;estimation\l/build/human&#45;viz&#45;bridge/autogenerated\l/msgs/include/geometry_msgs/Wrench.h">
<polygon fill="none" stroke="black" points="1838.5,-330.5 1838.5,-393.5 2033.5,-393.5 2033.5,-330.5 1838.5,-330.5"/>
<text text-anchor="start" x="1846.5" y="-381.5" font-family="Helvetica,sans-Serif" font-size="10.00">/home/travis/build</text>
<text text-anchor="start" x="1846.5" y="-370.5" font-family="Helvetica,sans-Serif" font-size="10.00">/robotology&#45;playground</text>
<text text-anchor="start" x="1846.5" y="-359.5" font-family="Helvetica,sans-Serif" font-size="10.00">/human&#45;dynamics&#45;estimation</text>
<text text-anchor="start" x="1846.5" y="-348.5" font-family="Helvetica,sans-Serif" font-size="10.00">/build/human&#45;viz&#45;bridge/autogenerated</text>
<text text-anchor="middle" x="1936" y="-337.5" font-family="Helvetica,sans-Serif" font-size="10.00">/msgs/include/geometry_msgs/Wrench.h</text>
</a>
</g>
</g>
<!-- Node21&#45;&gt;Node23 -->
<g id="edge33" class="edge"><title>Node21&#45;&gt;Node23</title>
<path fill="none" stroke="midnightblue" d="M1865.9,-435.064C1878.99,-421.612 1893.54,-406.649 1905.98,-393.858"/>
<polygon fill="midnightblue" stroke="midnightblue" points="1863.27,-432.75 1858.81,-442.359 1868.29,-437.631 1863.27,-432.75"/>
</g>
<!-- Node21&#45;&gt;Node24 -->
<g id="edge34" class="edge"><title>Node21&#45;&gt;Node24</title>
<path fill="none" stroke="midnightblue" d="M1933.51,-439.286C1978.7,-424.711 2031.19,-407.777 2075.23,-393.572"/>
<polygon fill="midnightblue" stroke="midnightblue" points="1932.43,-435.958 1923.99,-442.359 1934.58,-442.62 1932.43,-435.958"/>
</g>
<!-- Node25 -->
<g id="node25" class="node"><title>Node25</title>
<g id="a_node25"><a xlink:href="__yarp__idl___2msgs_2geometry__msgs_2_wrench_stamped_8h.html" target="_top" xlink:title="/home/travis/build\l/robotology&#45;playground\l/human&#45;dynamics&#45;estimation\l/build/human&#45;viz&#45;bridge/\l_yarp_idl_/msgs/geometry_msgs\l/WrenchStamped.h">
<polygon fill="none" stroke="black" points="2197.5,-213 2197.5,-287 2358.5,-287 2358.5,-213 2197.5,-213"/>
<text text-anchor="start" x="2205.5" y="-275" font-family="Helvetica,sans-Serif" font-size="10.00">/home/travis/build</text>
<text text-anchor="start" x="2205.5" y="-264" font-family="Helvetica,sans-Serif" font-size="10.00">/robotology&#45;playground</text>
<text text-anchor="start" x="2205.5" y="-253" font-family="Helvetica,sans-Serif" font-size="10.00">/human&#45;dynamics&#45;estimation</text>
<text text-anchor="start" x="2205.5" y="-242" font-family="Helvetica,sans-Serif" font-size="10.00">/build/human&#45;viz&#45;bridge/</text>
<text text-anchor="start" x="2205.5" y="-231" font-family="Helvetica,sans-Serif" font-size="10.00">_yarp_idl_/msgs/geometry_msgs</text>
<text text-anchor="middle" x="2278" y="-220" font-family="Helvetica,sans-Serif" font-size="10.00">/WrenchStamped.h</text>
</a>
</g>
</g>
<!-- Node24&#45;&gt;Node25 -->
<g id="edge35" class="edge"><title>Node24&#45;&gt;Node25</title>
<path fill="none" stroke="midnightblue" d="M2207.35,-322.955C2218.69,-311.408 2231.11,-298.756 2242.34,-287.325"/>
<polygon fill="midnightblue" stroke="midnightblue" points="2204.59,-320.771 2200.08,-330.359 2209.59,-325.675 2204.59,-320.771"/>
</g>
<!-- Node26 -->
<g id="node26" class="node"><title>Node26</title>
<g id="a_node26"><a xlink:href="autogenerated_2msgs_2include_2geometry__msgs_2_wrench_stamped_8h.html" target="_top" xlink:title="/home/travis/build\l/robotology&#45;playground\l/human&#45;dynamics&#45;estimation\l/build/human&#45;viz&#45;bridge/autogenerated\l/msgs/include/geometry_msgs/WrenchStamped.h">
<polygon fill="none" stroke="black" points="1945,-218.5 1945,-281.5 2179,-281.5 2179,-218.5 1945,-218.5"/>
<text text-anchor="start" x="1953" y="-269.5" font-family="Helvetica,sans-Serif" font-size="10.00">/home/travis/build</text>
<text text-anchor="start" x="1953" y="-258.5" font-family="Helvetica,sans-Serif" font-size="10.00">/robotology&#45;playground</text>
<text text-anchor="start" x="1953" y="-247.5" font-family="Helvetica,sans-Serif" font-size="10.00">/human&#45;dynamics&#45;estimation</text>
<text text-anchor="start" x="1953" y="-236.5" font-family="Helvetica,sans-Serif" font-size="10.00">/build/human&#45;viz&#45;bridge/autogenerated</text>
<text text-anchor="middle" x="2062" y="-225.5" font-family="Helvetica,sans-Serif" font-size="10.00">/msgs/include/geometry_msgs/WrenchStamped.h</text>
</a>
</g>
</g>
<!-- Node24&#45;&gt;Node26 -->
<g id="edge36" class="edge"><title>Node24&#45;&gt;Node26</title>
<path fill="none" stroke="midnightblue" d="M2132.75,-323.064C2119.55,-309.612 2104.86,-294.649 2092.3,-281.858"/>
<polygon fill="midnightblue" stroke="midnightblue" points="2130.41,-325.675 2139.92,-330.359 2135.41,-320.771 2130.41,-325.675"/>
</g>
</g>
</svg>
