<?xml version="1.0" encoding="UTF-8" standalone="no"?>
<!DOCTYPE svg PUBLIC "-//W3C//DTD SVG 1.1//EN"
 "http://www.w3.org/Graphics/SVG/1.1/DTD/svg11.dtd">
<!-- Generated by graphviz version 2.36.0 (20140111.2315)
 -->
<!-- Title: /home/travis/build/robotology&#45;playground/human&#45;dynamics&#45;estimation/build/human&#45;forces&#45;provider/autogenerated/include/thrifts/HumanForces.h Pages: 1 -->
<svg width="240pt" height="196pt"
 viewBox="0.00 0.00 240.00 196.00" xmlns="http://www.w3.org/2000/svg" xmlns:xlink="http://www.w3.org/1999/xlink">
<g id="graph0" class="graph" transform="scale(1 1) rotate(0) translate(4 192)">
<title>/home/travis/build/robotology&#45;playground/human&#45;dynamics&#45;estimation/build/human&#45;forces&#45;provider/autogenerated/include/thrifts/HumanForces.h</title>
<!-- Node1 -->
<g id="node1" class="node"><title>Node1</title>
<polygon fill="#bfbfbf" stroke="black" points="34.5,-113 34.5,-187 177.5,-187 177.5,-113 34.5,-113"/>
<text text-anchor="start" x="42.5" y="-175" font-family="Helvetica,sans-Serif" font-size="10.00">/home/travis/build</text>
<text text-anchor="start" x="42.5" y="-164" font-family="Helvetica,sans-Serif" font-size="10.00">/robotology&#45;playground</text>
<text text-anchor="start" x="42.5" y="-153" font-family="Helvetica,sans-Serif" font-size="10.00">/human&#45;dynamics&#45;estimation</text>
<text text-anchor="start" x="42.5" y="-142" font-family="Helvetica,sans-Serif" font-size="10.00">/build/human&#45;forces&#45;provider</text>
<text text-anchor="start" x="42.5" y="-131" font-family="Helvetica,sans-Serif" font-size="10.00">/autogenerated/include/thrifts</text>
<text text-anchor="middle" x="106" y="-120" font-family="Helvetica,sans-Serif" font-size="10.00">/HumanForces.h</text>
</g>
<!-- Node2 -->
<g id="node2" class="node"><title>Node2</title>
<polygon fill="none" stroke="#bfbfbf" points="0,-0.5 0,-19.5 80,-19.5 80,-0.5 0,-0.5"/>
<text text-anchor="middle" x="40" y="-7.5" font-family="Helvetica,sans-Serif" font-size="10.00">yarp/os/Wire.h</text>
</g>
<!-- Node1&#45;&gt;Node2 -->
<g id="edge1" class="edge"><title>Node1&#45;&gt;Node2</title>
<path fill="none" stroke="midnightblue" d="M74.1773,-112.764C65.8186,-101.613 57.589,-88.8689 52,-76 45.6359,-61.3464 42.6447,-43.4074 41.2401,-30.0901"/>
<polygon fill="midnightblue" stroke="midnightblue" points="44.6982,-29.4455 40.3693,-19.7754 37.7231,-30.0344 44.6982,-29.4455"/>
</g>
<!-- Node3 -->
<g id="node3" class="node"><title>Node3</title>
<polygon fill="none" stroke="#bfbfbf" points="112,-0.5 112,-19.5 232,-19.5 232,-0.5 112,-0.5"/>
<text text-anchor="middle" x="172" y="-7.5" font-family="Helvetica,sans-Serif" font-size="10.00">yarp/os/idl/WireTypes.h</text>
</g>
<!-- Node1&#45;&gt;Node3 -->
<g id="edge2" class="edge"><title>Node1&#45;&gt;Node3</title>
<path fill="none" stroke="midnightblue" d="M137.823,-112.764C146.181,-101.613 154.411,-88.8689 160,-76 166.364,-61.3464 169.355,-43.4074 170.76,-30.0901"/>
<polygon fill="midnightblue" stroke="midnightblue" points="174.277,-30.0344 171.631,-19.7754 167.302,-29.4455 174.277,-30.0344"/>
</g>
<!-- Node4 -->
<g id="node4" class="node"><title>Node4</title>
<g id="a_node4"><a xlink:href="autogenerated_2include_2thrifts_2_force6_d_8h.html" target="_top" xlink:title="thrifts/Force6D.h">
<polygon fill="none" stroke="black" points="61,-56.5 61,-75.5 151,-75.5 151,-56.5 61,-56.5"/>
<text text-anchor="middle" x="106" y="-63.5" font-family="Helvetica,sans-Serif" font-size="10.00">thrifts/Force6D.h</text>
</a>
</g>
</g>
<!-- Node1&#45;&gt;Node4 -->
<g id="edge3" class="edge"><title>Node1&#45;&gt;Node4</title>
<path fill="none" stroke="midnightblue" d="M106,-112.795C106,-103.463 106,-93.7959 106,-85.7618"/>
<polygon fill="midnightblue" stroke="midnightblue" points="109.5,-85.6978 106,-75.6978 102.5,-85.6978 109.5,-85.6978"/>
</g>
<!-- Node4&#45;&gt;Node2 -->
<g id="edge4" class="edge"><title>Node4&#45;&gt;Node2</title>
<path fill="none" stroke="midnightblue" d="M95.396,-56.324C85.5438,-48.2631 70.6491,-36.0765 58.7849,-26.3695"/>
<polygon fill="midnightblue" stroke="midnightblue" points="60.7529,-23.4575 50.797,-19.8339 56.3202,-28.8752 60.7529,-23.4575"/>
</g>
<!-- Node4&#45;&gt;Node3 -->
<g id="edge5" class="edge"><title>Node4&#45;&gt;Node3</title>
<path fill="none" stroke="midnightblue" d="M116.604,-56.324C126.456,-48.2631 141.351,-36.0765 153.215,-26.3695"/>
<polygon fill="midnightblue" stroke="midnightblue" points="155.68,-28.8752 161.203,-19.8339 151.247,-23.4575 155.68,-28.8752"/>
</g>
</g>
</svg>
