<?xml version="1.0" encoding="UTF-8" standalone="no"?>
<!DOCTYPE svg PUBLIC "-//W3C//DTD SVG 1.1//EN"
 "http://www.w3.org/Graphics/SVG/1.1/DTD/svg11.dtd">
<!-- Generated by graphviz version 2.36.0 (20140111.2315)
 -->
<!-- Title: HumanTFBridge Pages: 1 -->
<!--zoomable 454 -->
<svg id="main" version="1.1" xmlns="http://www.w3.org/2000/svg" xmlns:xlink="http://www.w3.org/1999/xlink" xml:space="preserve" onload="init(evt)">
<style type="text/css"><![CDATA[
.edge:hover path { stroke: red; }
.edge:hover polygon { stroke: red; fill: red; }
]]></style>
<script type="text/javascript"><![CDATA[
var edges = document.getElementsByTagName('g');
if (edges && edges.length) {
  for (var i=0;i<edges.length;i++) {
    if (edges[i].id.substr(0,4)=='edge') {
      edges[i].setAttribute('class','edge');
    }
  }
}
]]></script>
        <defs>
                <circle id="rim" cx="0" cy="0" r="7"/>
                <circle id="rim2" cx="0" cy="0" r="3.5"/>
                <g id="zoomPlus">
                        <use xlink:href="#rim" fill="#404040">
                                <set attributeName="fill" to="#808080" begin="zoomplus.mouseover" end="zoomplus.mouseout"/>
                        </use>
                        <path d="M-4,0h8M0,-4v8" fill="none" stroke="white" stroke-width="1.5" pointer-events="none"/>
                </g>
                <g id="zoomMin">
                        <use xlink:href="#rim" fill="#404040">
                                <set attributeName="fill" to="#808080" begin="zoomminus.mouseover" end="zoomminus.mouseout"/>
                        </use>
                        <path d="M-4,0h8" fill="none" stroke="white" stroke-width="1.5" pointer-events="none"/>
                </g>
                <g id="dirArrow">
                        <path fill="none" stroke="white" stroke-width="1.5" d="M0,-3.0v7 M-2.5,-0.5L0,-3.0L2.5,-0.5"/>
                </g>
               <g id="resetDef">
                       <use xlink:href="#rim2" fill="#404040">
                               <set attributeName="fill" to="#808080" begin="reset.mouseover" end="reset.mouseout"/>
                       </use>
               </g>
        </defs>

<script type="text/javascript">
var viewWidth = 961;
var viewHeight = 454;
var sectionId = 'dynsection-1';
</script>
<script xlink:href="svgpan.js"/>
<svg id="graph" class="graph">
<g id="viewport">
<title>HumanTFBridge</title>
<!-- Node1 -->
<g id="node1" class="node"><title>Node1</title>
<polygon fill="#bfbfbf" stroke="black" points="470,-0.5 470,-101.5 562,-101.5 562,-0.5 470,-0.5"/>
<text text-anchor="middle" x="516" y="-89.5" font-family="Helvetica,sans-Serif" font-size="10.00">HumanTFBridge</text>
<polyline fill="none" stroke="black" points="470,-82.5 562,-82.5 "/>
<text text-anchor="middle" x="516" y="-70.5" font-family="Helvetica,sans-Serif" font-size="10.00"> </text>
<polyline fill="none" stroke="black" points="470,-63.5 562,-63.5 "/>
<text text-anchor="start" x="478" y="-51.5" font-family="Helvetica,sans-Serif" font-size="10.00">+ getPeriod()</text>
<text text-anchor="start" x="478" y="-40.5" font-family="Helvetica,sans-Serif" font-size="10.00">+ updateModule()</text>
<text text-anchor="start" x="478" y="-29.5" font-family="Helvetica,sans-Serif" font-size="10.00">+ configure()</text>
<text text-anchor="start" x="478" y="-18.5" font-family="Helvetica,sans-Serif" font-size="10.00">+ close()</text>
<text text-anchor="start" x="478" y="-7.5" font-family="Helvetica,sans-Serif" font-size="10.00">+ onRead()</text>
</g>
<!-- Node2 -->
<g id="node2" class="node"><title>Node2</title>
<g id="a_node2"><a xlink:href="class_r_f_module.html" target="_top" xlink:title="{RFModule\n||}">
<polygon fill="none" stroke="black" points="0,-215.5 0,-272.5 62,-272.5 62,-215.5 0,-215.5"/>
<text text-anchor="middle" x="31" y="-260.5" font-family="Helvetica,sans-Serif" font-size="10.00">RFModule</text>
<polyline fill="none" stroke="black" points="0,-253.5 62,-253.5 "/>
<text text-anchor="middle" x="31" y="-241.5" font-family="Helvetica,sans-Serif" font-size="10.00"> </text>
<polyline fill="none" stroke="black" points="0,-234.5 62,-234.5 "/>
<text text-anchor="middle" x="31" y="-222.5" font-family="Helvetica,sans-Serif" font-size="10.00"> </text>
</a>
</g>
</g>
<!-- Node2&#45;&gt;Node1 -->
<g id="edge1" class="edge"><title>Node2&#45;&gt;Node1</title>
<path fill="none" stroke="midnightblue" d="M41.1337,-205.42C47.2898,-189.265 56.7847,-171.493 71,-160 132.744,-110.08 369.062,-72.3091 469.931,-58.1208"/>
<polygon fill="none" stroke="midnightblue" points="37.7114,-204.605 37.7198,-215.199 44.3203,-206.912 37.7114,-204.605"/>
</g>
<!-- Node3 -->
<g id="node3" class="node"><title>Node3</title>
<g id="a_node3"><a xlink:href="class_typed_reader_callback.html" target="_top" xlink:title="{TypedReaderCallback\l\&lt; XsensSegmentsFrame \&gt;\n||}">
<polygon fill="none" stroke="black" points="80,-210 80,-278 214,-278 214,-210 80,-210"/>
<text text-anchor="start" x="88" y="-266" font-family="Helvetica,sans-Serif" font-size="10.00">TypedReaderCallback</text>
<text text-anchor="middle" x="147" y="-255" font-family="Helvetica,sans-Serif" font-size="10.00">&lt; XsensSegmentsFrame &gt;</text>
<polyline fill="none" stroke="black" points="80,-248 214,-248 "/>
<text text-anchor="middle" x="147" y="-236" font-family="Helvetica,sans-Serif" font-size="10.00"> </text>
<polyline fill="none" stroke="black" points="80,-229 214,-229 "/>
<text text-anchor="middle" x="147" y="-217" font-family="Helvetica,sans-Serif" font-size="10.00"> </text>
</a>
</g>
</g>
<!-- Node3&#45;&gt;Node1 -->
<g id="edge2" class="edge"><title>Node3&#45;&gt;Node1</title>
<path fill="none" stroke="midnightblue" d="M177.801,-201.851C190.49,-187.082 206.166,-171.303 223,-160 301.655,-107.191 409.456,-76.1544 469.961,-61.7729"/>
<polygon fill="none" stroke="midnightblue" points="174.789,-199.996 171.07,-209.917 180.164,-204.481 174.789,-199.996"/>
</g>
<!-- Node4 -->
<g id="node4" class="node"><title>Node4</title>
<g id="a_node4"><a xlink:href="classtf2__msgs___t_f_message.html" target="_top" xlink:title="{tf2_msgs_TFMessage\n||+ tf2_msgs_TFMessage()\l+ readBare()\l+ readBottle()\l+ read()\l+ writeBare()\l+ writeBottle()\l+ write()\l+ getTypeText()\l+ getType()\l+ tf2_msgs_TFMessage()\land 8 more...\l}">
<polygon fill="none" stroke="black" points="232.5,-160.5 232.5,-327.5 361.5,-327.5 361.5,-160.5 232.5,-160.5"/>
<text text-anchor="middle" x="297" y="-315.5" font-family="Helvetica,sans-Serif" font-size="10.00">tf2_msgs_TFMessage</text>
<polyline fill="none" stroke="black" points="232.5,-308.5 361.5,-308.5 "/>
<text text-anchor="middle" x="297" y="-296.5" font-family="Helvetica,sans-Serif" font-size="10.00"> </text>
<polyline fill="none" stroke="black" points="232.5,-289.5 361.5,-289.5 "/>
<text text-anchor="start" x="240.5" y="-277.5" font-family="Helvetica,sans-Serif" font-size="10.00">+ tf2_msgs_TFMessage()</text>
<text text-anchor="start" x="240.5" y="-266.5" font-family="Helvetica,sans-Serif" font-size="10.00">+ readBare()</text>
<text text-anchor="start" x="240.5" y="-255.5" font-family="Helvetica,sans-Serif" font-size="10.00">+ readBottle()</text>
<text text-anchor="start" x="240.5" y="-244.5" font-family="Helvetica,sans-Serif" font-size="10.00">+ read()</text>
<text text-anchor="start" x="240.5" y="-233.5" font-family="Helvetica,sans-Serif" font-size="10.00">+ writeBare()</text>
<text text-anchor="start" x="240.5" y="-222.5" font-family="Helvetica,sans-Serif" font-size="10.00">+ writeBottle()</text>
<text text-anchor="start" x="240.5" y="-211.5" font-family="Helvetica,sans-Serif" font-size="10.00">+ write()</text>
<text text-anchor="start" x="240.5" y="-200.5" font-family="Helvetica,sans-Serif" font-size="10.00">+ getTypeText()</text>
<text text-anchor="start" x="240.5" y="-189.5" font-family="Helvetica,sans-Serif" font-size="10.00">+ getType()</text>
<text text-anchor="start" x="240.5" y="-178.5" font-family="Helvetica,sans-Serif" font-size="10.00">+ tf2_msgs_TFMessage()</text>
<text text-anchor="start" x="240.5" y="-167.5" font-family="Helvetica,sans-Serif" font-size="10.00">and 8 more...</text>
</a>
</g>
</g>
<!-- Node4&#45;&gt;Node1 -->
<g id="edge3" class="edge"><title>Node4&#45;&gt;Node1</title>
<path fill="none" stroke="#404040" d="M361.603,-168.923C364.727,-165.857 367.868,-162.868 371,-160 398.628,-134.701 432.009,-109.519 459.775,-89.8423"/>
<polygon fill="none" stroke="#404040" points="459.909,-89.7483 462.52,-83.0267 469.729,-82.8522 467.118,-89.5738 459.909,-89.7483"/>
<text text-anchor="middle" x="423.5" y="-128.5" font-family="Helvetica,sans-Serif" font-size="10.00"> &#45;tf</text>
</g>
<!-- Node5 -->
<g id="node5" class="node"><title>Node5</title>
<g id="a_node5"><a xlink:href="classyarp_1_1os_1_1idl_1_1_wire_portable.html" target="_top" xlink:title="{WirePortable\n||}">
<polygon fill="none" stroke="black" points="260.5,-382.5 260.5,-439.5 333.5,-439.5 333.5,-382.5 260.5,-382.5"/>
<text text-anchor="middle" x="297" y="-427.5" font-family="Helvetica,sans-Serif" font-size="10.00">WirePortable</text>
<polyline fill="none" stroke="black" points="260.5,-420.5 333.5,-420.5 "/>
<text text-anchor="middle" x="297" y="-408.5" font-family="Helvetica,sans-Serif" font-size="10.00"> </text>
<polyline fill="none" stroke="black" points="260.5,-401.5 333.5,-401.5 "/>
<text text-anchor="middle" x="297" y="-389.5" font-family="Helvetica,sans-Serif" font-size="10.00"> </text>
</a>
</g>
</g>
<!-- Node5&#45;&gt;Node4 -->
<g id="edge4" class="edge"><title>Node5&#45;&gt;Node4</title>
<path fill="none" stroke="midnightblue" d="M291.221,-372.179C290.574,-358.802 290.251,-343.182 290.25,-327.559"/>
<polygon fill="none" stroke="midnightblue" points="287.739,-372.6 291.808,-382.383 294.728,-372.198 287.739,-372.6"/>
</g>
<!-- Node5&#45;&gt;Node4 -->
<g id="edge5" class="edge"><title>Node5&#45;&gt;Node4</title>
<path fill="none" stroke="midnightblue" d="M302.779,-372.179C303.426,-358.802 303.749,-343.182 303.75,-327.559"/>
<polygon fill="none" stroke="midnightblue" points="299.272,-372.198 302.192,-382.383 306.261,-372.6 299.272,-372.198"/>
</g>
<!-- Node6 -->
<g id="node6" class="node"><title>Node6</title>
<polygon fill="none" stroke="#bfbfbf" points="352,-377 352,-445 474,-445 474,-377 352,-377"/>
<text text-anchor="start" x="360" y="-433" font-family="Helvetica,sans-Serif" font-size="10.00">vector&lt; geometry_msgs</text>
<text text-anchor="middle" x="413" y="-422" font-family="Helvetica,sans-Serif" font-size="10.00">_TransformStamped &gt;</text>
<polyline fill="none" stroke="#bfbfbf" points="352,-415 474,-415 "/>
<text text-anchor="middle" x="413" y="-403" font-family="Helvetica,sans-Serif" font-size="10.00"> </text>
<polyline fill="none" stroke="#bfbfbf" points="352,-396 474,-396 "/>
<text text-anchor="middle" x="413" y="-384" font-family="Helvetica,sans-Serif" font-size="10.00"> </text>
</g>
<!-- Node6&#45;&gt;Node4 -->
<g id="edge6" class="edge"><title>Node6&#45;&gt;Node4</title>
<path fill="none" stroke="#404040" d="M389.526,-376.61C381.482,-365.168 372.044,-351.744 362.328,-337.924"/>
<polygon fill="none" stroke="#404040" points="362.122,-337.63 355.399,-335.022 355.22,-327.813 361.943,-330.421 362.122,-337.63"/>
<text text-anchor="middle" x="404" y="-349.5" font-family="Helvetica,sans-Serif" font-size="10.00"> +transforms</text>
</g>
<!-- Node7 -->
<g id="node7" class="node"><title>Node7</title>
<g id="a_node7"><a xlink:href="classyarp_1_1os_1_1_buffered_port.html" target="_top" xlink:title="{yarp::os::BufferedPort\l\&lt; XsensSegmentsFrame \&gt;\n||}">
<polygon fill="none" stroke="black" points="380,-210 380,-278 514,-278 514,-210 380,-210"/>
<text text-anchor="start" x="388" y="-266" font-family="Helvetica,sans-Serif" font-size="10.00">yarp::os::BufferedPort</text>
<text text-anchor="middle" x="447" y="-255" font-family="Helvetica,sans-Serif" font-size="10.00">&lt; XsensSegmentsFrame &gt;</text>
<polyline fill="none" stroke="black" points="380,-248 514,-248 "/>
<text text-anchor="middle" x="447" y="-236" font-family="Helvetica,sans-Serif" font-size="10.00"> </text>
<polyline fill="none" stroke="black" points="380,-229 514,-229 "/>
<text text-anchor="middle" x="447" y="-217" font-family="Helvetica,sans-Serif" font-size="10.00"> </text>
</a>
</g>
</g>
<!-- Node7&#45;&gt;Node1 -->
<g id="edge7" class="edge"><title>Node7&#45;&gt;Node1</title>
<path fill="none" stroke="#404040" d="M459.019,-209.73C468.613,-183.172 482.316,-145.241 493.88,-113.232"/>
<polygon fill="none" stroke="#404040" points="493.954,-113.025 492.231,-106.023 498.032,-101.739 499.755,-108.741 493.954,-113.025"/>
<text text-anchor="middle" x="526" y="-128.5" font-family="Helvetica,sans-Serif" font-size="10.00"> &#45;xsensDataPort</text>
</g>
<!-- Node8 -->
<g id="node8" class="node"><title>Node8</title>
<polygon fill="none" stroke="#bfbfbf" points="532.5,-210 532.5,-278 639.5,-278 639.5,-210 532.5,-210"/>
<text text-anchor="start" x="540.5" y="-266" font-family="Helvetica,sans-Serif" font-size="10.00">Publisher&lt; tf2_msgs</text>
<text text-anchor="middle" x="586" y="-255" font-family="Helvetica,sans-Serif" font-size="10.00">_TFMessage &gt;</text>
<polyline fill="none" stroke="#bfbfbf" points="532.5,-248 639.5,-248 "/>
<text text-anchor="middle" x="586" y="-236" font-family="Helvetica,sans-Serif" font-size="10.00"> </text>
<polyline fill="none" stroke="#bfbfbf" points="532.5,-229 639.5,-229 "/>
<text text-anchor="middle" x="586" y="-217" font-family="Helvetica,sans-Serif" font-size="10.00"> </text>
</g>
<!-- Node8&#45;&gt;Node1 -->
<g id="edge8" class="edge"><title>Node8&#45;&gt;Node1</title>
<path fill="none" stroke="#404040" d="M583.994,-209.786C581.538,-184.383 576.086,-148.923 564,-120 562.959,-117.508 561.814,-115.018 560.586,-112.542"/>
<polygon fill="none" stroke="#404040" points="560.483,-112.354 554.097,-109.004 554.734,-101.821 561.119,-105.171 560.483,-112.354"/>
<text text-anchor="middle" x="599.5" y="-128.5" font-family="Helvetica,sans-Serif" font-size="10.00"> &#45;publisher_tf</text>
</g>
<!-- Node9 -->
<g id="node9" class="node"><title>Node9</title>
<polygon fill="none" stroke="#bfbfbf" points="658,-215.5 658,-272.5 744,-272.5 744,-215.5 658,-215.5"/>
<text text-anchor="middle" x="701" y="-260.5" font-family="Helvetica,sans-Serif" font-size="10.00">vector&lt; string &gt;</text>
<polyline fill="none" stroke="#bfbfbf" points="658,-253.5 744,-253.5 "/>
<text text-anchor="middle" x="701" y="-241.5" font-family="Helvetica,sans-Serif" font-size="10.00"> </text>
<polyline fill="none" stroke="#bfbfbf" points="658,-234.5 744,-234.5 "/>
<text text-anchor="middle" x="701" y="-222.5" font-family="Helvetica,sans-Serif" font-size="10.00"> </text>
</g>
<!-- Node9&#45;&gt;Node1 -->
<g id="edge9" class="edge"><title>Node9&#45;&gt;Node1</title>
<path fill="none" stroke="#404040" d="M690.532,-215.374C679.279,-188.506 659.266,-147.788 632,-120 615.231,-102.91 593.279,-88.5984 572.988,-77.5827"/>
<polygon fill="none" stroke="#404040" points="572.882,-77.5274 565.712,-78.291 562.249,-71.9658 569.419,-71.2021 572.882,-77.5274"/>
<text text-anchor="middle" x="685" y="-134" font-family="Helvetica,sans-Serif" font-size="10.00"> &#45;fakeSegments</text>
<text text-anchor="middle" x="685" y="-123" font-family="Helvetica,sans-Serif" font-size="10.00">&#45;segments</text>
</g>
<!-- Node10 -->
<g id="node10" class="node"><title>Node10</title>
<g id="a_node10"><a xlink:href="classxsens_1_1_xsens_driver_service.html" target="_top" xlink:title="{xsens::XsensDriverService\n||+ XsensDriverService()\l+ calibrateAsync()\l+ calibrateAsyncWithType()\l+ calibrate()\l+ calibrateWithType()\l+ abortCalibration()\l+ startAcquisition()\l+ stopAcquisition()\l+ segments()\l+ bodyDimensions()\land 18 more...\l}">
<polygon fill="none" stroke="black" points="762,-160.5 762,-327.5 900,-327.5 900,-160.5 762,-160.5"/>
<text text-anchor="middle" x="831" y="-315.5" font-family="Helvetica,sans-Serif" font-size="10.00">xsens::XsensDriverService</text>
<polyline fill="none" stroke="black" points="762,-308.5 900,-308.5 "/>
<text text-anchor="middle" x="831" y="-296.5" font-family="Helvetica,sans-Serif" font-size="10.00"> </text>
<polyline fill="none" stroke="black" points="762,-289.5 900,-289.5 "/>
<text text-anchor="start" x="770" y="-277.5" font-family="Helvetica,sans-Serif" font-size="10.00">+ XsensDriverService()</text>
<text text-anchor="start" x="770" y="-266.5" font-family="Helvetica,sans-Serif" font-size="10.00">+ calibrateAsync()</text>
<text text-anchor="start" x="770" y="-255.5" font-family="Helvetica,sans-Serif" font-size="10.00">+ calibrateAsyncWithType()</text>
<text text-anchor="start" x="770" y="-244.5" font-family="Helvetica,sans-Serif" font-size="10.00">+ calibrate()</text>
<text text-anchor="start" x="770" y="-233.5" font-family="Helvetica,sans-Serif" font-size="10.00">+ calibrateWithType()</text>
<text text-anchor="start" x="770" y="-222.5" font-family="Helvetica,sans-Serif" font-size="10.00">+ abortCalibration()</text>
<text text-anchor="start" x="770" y="-211.5" font-family="Helvetica,sans-Serif" font-size="10.00">+ startAcquisition()</text>
<text text-anchor="start" x="770" y="-200.5" font-family="Helvetica,sans-Serif" font-size="10.00">+ stopAcquisition()</text>
<text text-anchor="start" x="770" y="-189.5" font-family="Helvetica,sans-Serif" font-size="10.00">+ segments()</text>
<text text-anchor="start" x="770" y="-178.5" font-family="Helvetica,sans-Serif" font-size="10.00">+ bodyDimensions()</text>
<text text-anchor="start" x="770" y="-167.5" font-family="Helvetica,sans-Serif" font-size="10.00">and 18 more...</text>
</a>
</g>
</g>
<!-- Node10&#45;&gt;Node1 -->
<g id="edge10" class="edge"><title>Node10&#45;&gt;Node1</title>
<path fill="none" stroke="#404040" d="M770.072,-160.214C756.217,-145.306 740.631,-131.025 724,-120 678.268,-89.6828 617.936,-71.9305 574.033,-62.215"/>
<polygon fill="none" stroke="#404040" points="573.85,-62.1762 567.15,-64.8429 562.111,-59.6841 568.811,-57.0173 573.85,-62.1762"/>
<text text-anchor="middle" x="781.5" y="-128.5" font-family="Helvetica,sans-Serif" font-size="10.00"> &#45;xsensDriver</text>
</g>
<!-- Node11 -->
<g id="node11" class="node"><title>Node11</title>
<g id="a_node11"><a xlink:href="classyarp_1_1os_1_1_wire.html" target="_top" xlink:title="{Wire\n||}">
<polygon fill="none" stroke="black" points="812.5,-382.5 812.5,-439.5 849.5,-439.5 849.5,-382.5 812.5,-382.5"/>
<text text-anchor="middle" x="831" y="-427.5" font-family="Helvetica,sans-Serif" font-size="10.00">Wire</text>
<polyline fill="none" stroke="black" points="812.5,-420.5 849.5,-420.5 "/>
<text text-anchor="middle" x="831" y="-408.5" font-family="Helvetica,sans-Serif" font-size="10.00"> </text>
<polyline fill="none" stroke="black" points="812.5,-401.5 849.5,-401.5 "/>
<text text-anchor="middle" x="831" y="-389.5" font-family="Helvetica,sans-Serif" font-size="10.00"> </text>
</a>
</g>
</g>
<!-- Node11&#45;&gt;Node10 -->
<g id="edge11" class="edge"><title>Node11&#45;&gt;Node10</title>
<path fill="none" stroke="midnightblue" d="M825.221,-372.179C824.574,-358.802 824.251,-343.182 824.25,-327.559"/>
<polygon fill="none" stroke="midnightblue" points="821.739,-372.6 825.808,-382.383 828.728,-372.198 821.739,-372.6"/>
</g>
<!-- Node11&#45;&gt;Node10 -->
<g id="edge12" class="edge"><title>Node11&#45;&gt;Node10</title>
<path fill="none" stroke="midnightblue" d="M836.779,-372.179C837.426,-358.802 837.749,-343.182 837.75,-327.559"/>
<polygon fill="none" stroke="midnightblue" points="833.272,-372.198 836.192,-382.383 840.261,-372.6 833.272,-372.198"/>
</g>
<!-- Node12 -->
<g id="node12" class="node"><title>Node12</title>
<polygon fill="none" stroke="#bfbfbf" points="918.5,-215.5 918.5,-272.5 953.5,-272.5 953.5,-215.5 918.5,-215.5"/>
<text text-anchor="middle" x="936" y="-260.5" font-family="Helvetica,sans-Serif" font-size="10.00">Port</text>
<polyline fill="none" stroke="#bfbfbf" points="918.5,-253.5 953.5,-253.5 "/>
<text text-anchor="middle" x="936" y="-241.5" font-family="Helvetica,sans-Serif" font-size="10.00"> </text>
<polyline fill="none" stroke="#bfbfbf" points="918.5,-234.5 953.5,-234.5 "/>
<text text-anchor="middle" x="936" y="-222.5" font-family="Helvetica,sans-Serif" font-size="10.00"> </text>
</g>
<!-- Node12&#45;&gt;Node1 -->
<g id="edge13" class="edge"><title>Node12&#45;&gt;Node1</title>
<path fill="none" stroke="#404040" d="M932.939,-215.404C929.669,-197.673 922.918,-175.198 909,-160 863.973,-110.834 672.292,-75.5315 574.258,-60.3226"/>
<polygon fill="none" stroke="#404040" points="574.074,-60.2946 567.539,-63.3423 562.212,-58.4819 568.747,-55.4341 574.074,-60.2946"/>
<text text-anchor="middle" x="910" y="-128.5" font-family="Helvetica,sans-Serif" font-size="10.00"> &#45;client_port</text>
</g>
</g>
</svg>
        <g id="navigator" transform="translate(0 0)" fill="#404254">
                <rect fill="#f2f5e9" fill-opacity="0.5" stroke="#606060" stroke-width=".5" x="0" y="0" width="60" height="60"/>
                <use id="zoomplus" xlink:href="#zoomPlus" x="17" y="9" onmousedown="handleZoom(evt,'in')"/>
                <use id="zoomminus" xlink:href="#zoomMin" x="42" y="9" onmousedown="handleZoom(evt,'out')"/>
                <use id="reset" xlink:href="#resetDef" x="30" y="36" onmousedown="handleReset()"/>
                <g id="arrowUp" xlink:href="#dirArrow" transform="translate(30 24)" onmousedown="handlePan(0,-1)">
                  <use xlink:href="#rim" fill="#404040">
                        <set attributeName="fill" to="#808080" begin="arrowUp.mouseover" end="arrowUp.mouseout"/>
                  </use>
                  <path fill="none" stroke="white" stroke-width="1.5" d="M0,-3.0v7 M-2.5,-0.5L0,-3.0L2.5,-0.5"/>
                </g>
                <g id="arrowRight" xlink:href="#dirArrow" transform="rotate(90) translate(36 -43)" onmousedown="handlePan(1,0)">
                  <use xlink:href="#rim" fill="#404040">
                        <set attributeName="fill" to="#808080" begin="arrowRight.mouseover" end="arrowRight.mouseout"/>
                  </use>
                  <path fill="none" stroke="white" stroke-width="1.5" d="M0,-3.0v7 M-2.5,-0.5L0,-3.0L2.5,-0.5"/>
                </g>
                <g id="arrowDown" xlink:href="#dirArrow" transform="rotate(180) translate(-30 -48)" onmousedown="handlePan(0,1)">
                  <use xlink:href="#rim" fill="#404040">
                        <set attributeName="fill" to="#808080" begin="arrowDown.mouseover" end="arrowDown.mouseout"/>
                  </use>
                  <path fill="none" stroke="white" stroke-width="1.5" d="M0,-3.0v7 M-2.5,-0.5L0,-3.0L2.5,-0.5"/>
                </g>
                <g id="arrowLeft" xlink:href="#dirArrow" transform="rotate(270) translate(-36 17)" onmousedown="handlePan(-1,0)">
                  <use xlink:href="#rim" fill="#404040">
                        <set attributeName="fill" to="#808080" begin="arrowLeft.mouseover" end="arrowLeft.mouseout"/>
                  </use>
                  <path fill="none" stroke="white" stroke-width="1.5" d="M0,-3.0v7 M-2.5,-0.5L0,-3.0L2.5,-0.5"/>
                </g>
        </g>
        <svg viewBox="0 0 15 15" width="100%" height="30px" preserveAspectRatio="xMaxYMin meet">
         <g id="arrow_out" transform="scale(0.3 0.3)">
          <a xlink:href="class_human_t_f_bridge__coll__graph_org.svg" target="_base">
           <rect id="button" ry="5" rx="5" y="6" x="6" height="38" width="38"
                fill="#f2f5e9" fill-opacity="0.5" stroke="#606060" stroke-width="1.0"/>
           <path id="arrow"
             d="M 11.500037,31.436501 C 11.940474,20.09759 22.043105,11.32322 32.158766,21.979434 L 37.068811,17.246167 C 37.068811,17.246167 37.088388,32 37.088388,32 L 22.160133,31.978069 C 22.160133,31.978069 26.997745,27.140456 26.997745,27.140456 C 18.528582,18.264221 13.291696,25.230495 11.500037,31.436501 z"
             style="fill:#404040;"/>
          </a>
         </g>
        </svg>
</svg>
