<?xml version="1.0" encoding="UTF-8" standalone="no"?>
<!DOCTYPE svg PUBLIC "-//W3C//DTD SVG 1.1//EN"
 "http://www.w3.org/Graphics/SVG/1.1/DTD/svg11.dtd">
<!-- Generated by graphviz version 2.36.0 (20140111.2315)
 -->
<!-- Title: human::AbstractForceReader Pages: 1 -->
<svg width="272pt" height="356pt"
 viewBox="0.00 0.00 272.00 356.00" xmlns="http://www.w3.org/2000/svg" xmlns:xlink="http://www.w3.org/1999/xlink">
<g id="graph0" class="graph" transform="scale(1 1) rotate(0) translate(4 352)">
<title>human::AbstractForceReader</title>
<!-- Node1 -->
<g id="node1" class="node"><title>Node1</title>
<polygon fill="#bfbfbf" stroke="black" points="57.5,-107 57.5,-241 202.5,-241 202.5,-107 57.5,-107"/>
<text text-anchor="middle" x="130" y="-229" font-family="Helvetica,sans-Serif" font-size="10.00">human::AbstractForceReader</text>
<polyline fill="none" stroke="black" points="57.5,-222 202.5,-222 "/>
<text text-anchor="start" x="65.5" y="-210" font-family="Helvetica,sans-Serif" font-size="10.00">&#45; m_frameTransformer</text>
<text text-anchor="start" x="65.5" y="-199" font-family="Helvetica,sans-Serif" font-size="10.00">&#45; m_attachedLink</text>
<text text-anchor="start" x="65.5" y="-188" font-family="Helvetica,sans-Serif" font-size="10.00">&#45; m_referenceFrame</text>
<text text-anchor="start" x="65.5" y="-177" font-family="Helvetica,sans-Serif" font-size="10.00">&#45; m_packedForce</text>
<polyline fill="none" stroke="black" points="57.5,-170 202.5,-170 "/>
<text text-anchor="start" x="65.5" y="-158" font-family="Helvetica,sans-Serif" font-size="10.00">+ AbstractForceReader()</text>
<text text-anchor="start" x="65.5" y="-147" font-family="Helvetica,sans-Serif" font-size="10.00">+ setTransformer()</text>
<text text-anchor="start" x="65.5" y="-136" font-family="Helvetica,sans-Serif" font-size="10.00">+ getTransformer()</text>
<text text-anchor="start" x="65.5" y="-125" font-family="Helvetica,sans-Serif" font-size="10.00">+ readForce()</text>
<text text-anchor="start" x="65.5" y="-114" font-family="Helvetica,sans-Serif" font-size="10.00"># lowLevelRead()</text>
</g>
<!-- Node3 -->
<g id="node3" class="node"><title>Node3</title>
<g id="a_node3"><a xlink:href="classhuman_1_1_f_t_force_reader.html" target="_top" xlink:title="Implementation of the ForceReader interface for handling forces coming from devices. ">
<polygon fill="none" stroke="black" points="0,-1 0,-69 120,-69 120,-1 0,-1"/>
<text text-anchor="middle" x="60" y="-57" font-family="Helvetica,sans-Serif" font-size="10.00">human::FTForceReader</text>
<polyline fill="none" stroke="black" points="0,-50 120,-50 "/>
<text text-anchor="start" x="8" y="-38" font-family="Helvetica,sans-Serif" font-size="10.00">&#45; m_sensor</text>
<polyline fill="none" stroke="black" points="0,-31 120,-31 "/>
<text text-anchor="start" x="8" y="-19" font-family="Helvetica,sans-Serif" font-size="10.00">+ FTForceReader()</text>
<text text-anchor="start" x="8" y="-8" font-family="Helvetica,sans-Serif" font-size="10.00"># lowLevelRead()</text>
</a>
</g>
</g>
<!-- Node1&#45;&gt;Node3 -->
<g id="edge2" class="edge"><title>Node1&#45;&gt;Node3</title>
<path fill="none" stroke="midnightblue" d="M91.67,-97.9826C86.4963,-87.857 81.4205,-77.923 76.9004,-69.0765"/>
<polygon fill="none" stroke="midnightblue" points="88.5635,-99.5953 96.2302,-106.908 94.797,-96.4103 88.5635,-99.5953"/>
</g>
<!-- Node4 -->
<g id="node4" class="node"><title>Node4</title>
<g id="a_node4"><a xlink:href="classhuman_1_1_port_force_reader.html" target="_top" xlink:title="Implementation of the ForceReader interface for handling forces coming from a YARP port...">
<polygon fill="none" stroke="black" points="138,-1 138,-69 264,-69 264,-1 138,-1"/>
<text text-anchor="middle" x="201" y="-57" font-family="Helvetica,sans-Serif" font-size="10.00">human::PortForceReader</text>
<polyline fill="none" stroke="black" points="138,-50 264,-50 "/>
<text text-anchor="start" x="146" y="-38" font-family="Helvetica,sans-Serif" font-size="10.00">&#45; m_bufferedPort</text>
<polyline fill="none" stroke="black" points="138,-31 264,-31 "/>
<text text-anchor="start" x="146" y="-19" font-family="Helvetica,sans-Serif" font-size="10.00">+ PortForceReader()</text>
<text text-anchor="start" x="146" y="-8" font-family="Helvetica,sans-Serif" font-size="10.00"># lowLevelRead()</text>
</a>
</g>
</g>
<!-- Node1&#45;&gt;Node4 -->
<g id="edge3" class="edge"><title>Node1&#45;&gt;Node4</title>
<path fill="none" stroke="midnightblue" d="M168.878,-97.9826C174.125,-87.857 179.273,-77.923 183.858,-69.0765"/>
<polygon fill="none" stroke="midnightblue" points="165.746,-96.4188 164.252,-106.908 171.961,-99.6397 165.746,-96.4188"/>
</g>
<!-- Node2 -->
<g id="node2" class="node"><title>Node2</title>
<g id="a_node2"><a xlink:href="classhuman_1_1_force_reader.html" target="_top" xlink:title="Interface for reading forces from device and sensors. ">
<polygon fill="none" stroke="black" points="76,-279 76,-347 184,-347 184,-279 76,-279"/>
<text text-anchor="middle" x="130" y="-335" font-family="Helvetica,sans-Serif" font-size="10.00">human::ForceReader</text>
<polyline fill="none" stroke="black" points="76,-328 184,-328 "/>
<text text-anchor="middle" x="130" y="-316" font-family="Helvetica,sans-Serif" font-size="10.00"> </text>
<polyline fill="none" stroke="black" points="76,-309 184,-309 "/>
<text text-anchor="start" x="84" y="-297" font-family="Helvetica,sans-Serif" font-size="10.00">+ readForce()</text>
<text text-anchor="start" x="84" y="-286" font-family="Helvetica,sans-Serif" font-size="10.00">+ ~ForceReader()</text>
</a>
</g>
</g>
<!-- Node2&#45;&gt;Node1 -->
<g id="edge1" class="edge"><title>Node2&#45;&gt;Node1</title>
<path fill="none" stroke="midnightblue" d="M130,-268.83C130,-260.015 130,-250.549 130,-241.142"/>
<polygon fill="none" stroke="midnightblue" points="126.5,-268.836 130,-278.836 133.5,-268.836 126.5,-268.836"/>
</g>
</g>
</svg>
