<?xml version="1.0" encoding="UTF-8" standalone="no"?>
<!DOCTYPE svg PUBLIC "-//W3C//DTD SVG 1.1//EN"
 "http://www.w3.org/Graphics/SVG/1.1/DTD/svg11.dtd">
<!-- Generated by graphviz version 2.36.0 (20140111.2315)
 -->
<!-- Title: human::RobotFrameTransformer Pages: 1 -->
<svg width="1043pt" height="410pt"
 viewBox="0.00 0.00 1042.91 410.00" xmlns="http://www.w3.org/2000/svg" xmlns:xlink="http://www.w3.org/1999/xlink">
<g id="graph0" class="graph" transform="scale(1 1) rotate(0) translate(4 406)">
<title>human::RobotFrameTransformer</title>
<!-- Node1 -->
<g id="node1" class="node"><title>Node1</title>
<polygon fill="#bfbfbf" stroke="black" points="398.914,-0.5 398.914,-79.5 556.914,-79.5 556.914,-0.5 398.914,-0.5"/>
<text text-anchor="middle" x="477.914" y="-67.5" font-family="Helvetica,sans-Serif" font-size="10.00">human::RobotFrameTransformer</text>
<polyline fill="none" stroke="black" points="398.914,-60.5 556.914,-60.5 "/>
<text text-anchor="middle" x="477.914" y="-48.5" font-family="Helvetica,sans-Serif" font-size="10.00"> </text>
<polyline fill="none" stroke="black" points="398.914,-41.5 556.914,-41.5 "/>
<text text-anchor="start" x="406.914" y="-29.5" font-family="Helvetica,sans-Serif" font-size="10.00">+ RobotFrameTransformer()</text>
<text text-anchor="start" x="406.914" y="-18.5" font-family="Helvetica,sans-Serif" font-size="10.00">+ init()</text>
<text text-anchor="start" x="406.914" y="-7.5" font-family="Helvetica,sans-Serif" font-size="10.00">+ transformForceFrame()</text>
</g>
<!-- Node2 -->
<g id="node2" class="node"><title>Node2</title>
<g id="a_node2"><a xlink:href="classhuman_1_1_generic_frame_transformer.html" target="_top" xlink:title="Implementation of the FrameTransformer interface for the conversion of the robot forces into human fo...">
<polygon fill="none" stroke="black" points="166.914,-161 166.914,-273 332.914,-273 332.914,-161 166.914,-161"/>
<text text-anchor="middle" x="249.914" y="-261" font-family="Helvetica,sans-Serif" font-size="10.00">human::GenericFrameTransformer</text>
<polyline fill="none" stroke="black" points="166.914,-254 332.914,-254 "/>
<text text-anchor="middle" x="249.914" y="-242" font-family="Helvetica,sans-Serif" font-size="10.00"> </text>
<polyline fill="none" stroke="black" points="166.914,-235 332.914,-235 "/>
<text text-anchor="start" x="174.914" y="-223" font-family="Helvetica,sans-Serif" font-size="10.00">+ GenericFrameTransformer()</text>
<text text-anchor="start" x="174.914" y="-212" font-family="Helvetica,sans-Serif" font-size="10.00">+ getOriginFrame()</text>
<text text-anchor="start" x="174.914" y="-201" font-family="Helvetica,sans-Serif" font-size="10.00">+ getTransformedFrame()</text>
<text text-anchor="start" x="174.914" y="-190" font-family="Helvetica,sans-Serif" font-size="10.00">+ setTransform()</text>
<text text-anchor="start" x="174.914" y="-179" font-family="Helvetica,sans-Serif" font-size="10.00">+ getTransform()</text>
<text text-anchor="start" x="174.914" y="-168" font-family="Helvetica,sans-Serif" font-size="10.00">+ transformForceFrame()</text>
</a>
</g>
</g>
<!-- Node2&#45;&gt;Node1 -->
<g id="edge1" class="edge"><title>Node2&#45;&gt;Node1</title>
<path fill="none" stroke="midnightblue" d="M310.125,-153.991C330.158,-134.93 353.179,-114.616 375.914,-98 384.677,-91.5964 394.231,-85.3798 403.865,-79.5518"/>
<polygon fill="none" stroke="midnightblue" points="307.672,-151.495 302.886,-160.947 312.522,-156.542 307.672,-151.495"/>
</g>
<!-- Node3 -->
<g id="node3" class="node"><title>Node3</title>
<g id="a_node3"><a xlink:href="classhuman_1_1_frame_transformer.html" target="_top" xlink:title="Interface for transforming forces into human frames. In general, given two generic frames A and B...">
<polygon fill="none" stroke="black" points="129.914,-333 129.914,-401 261.914,-401 261.914,-333 129.914,-333"/>
<text text-anchor="middle" x="195.914" y="-389" font-family="Helvetica,sans-Serif" font-size="10.00">human::FrameTransformer</text>
<polyline fill="none" stroke="black" points="129.914,-382 261.914,-382 "/>
<text text-anchor="middle" x="195.914" y="-370" font-family="Helvetica,sans-Serif" font-size="10.00"> </text>
<polyline fill="none" stroke="black" points="129.914,-363 261.914,-363 "/>
<text text-anchor="start" x="137.914" y="-351" font-family="Helvetica,sans-Serif" font-size="10.00">+ transformForceFrame()</text>
<text text-anchor="start" x="137.914" y="-340" font-family="Helvetica,sans-Serif" font-size="10.00">+ ~FrameTransformer()</text>
</a>
</g>
</g>
<!-- Node3&#45;&gt;Node2 -->
<g id="edge2" class="edge"><title>Node3&#45;&gt;Node2</title>
<path fill="none" stroke="midnightblue" d="M201.799,-322.654C203.817,-312.439 206.468,-301.703 209.914,-292 212.114,-285.807 214.776,-279.505 217.67,-273.323"/>
<polygon fill="none" stroke="midnightblue" points="198.329,-322.173 199.985,-332.638 205.216,-323.425 198.329,-322.173"/>
</g>
<!-- Node4 -->
<g id="node4" class="node"><title>Node4</title>
<polygon fill="none" stroke="#bfbfbf" points="15.4142,-338.5 15.4142,-395.5 76.4142,-395.5 76.4142,-338.5 15.4142,-338.5"/>
<text text-anchor="middle" x="45.9142" y="-383.5" font-family="Helvetica,sans-Serif" font-size="10.00">Transform</text>
<polyline fill="none" stroke="#bfbfbf" points="15.4142,-376.5 76.4142,-376.5 "/>
<text text-anchor="middle" x="45.9142" y="-364.5" font-family="Helvetica,sans-Serif" font-size="10.00"> </text>
<polyline fill="none" stroke="#bfbfbf" points="15.4142,-357.5 76.4142,-357.5 "/>
<text text-anchor="middle" x="45.9142" y="-345.5" font-family="Helvetica,sans-Serif" font-size="10.00"> </text>
</g>
<!-- Node4&#45;&gt;Node1 -->
<g id="edge7" class="edge"><title>Node4&#45;&gt;Node1</title>
<path fill="none" stroke="#404040" d="M31.1026,-338.382C10.3522,-295.48 -20.5527,-212.325 19.9142,-160 64.3746,-102.511 266.136,-67.6465 386.539,-51.5927"/>
<polygon fill="none" stroke="#404040" points="386.748,-51.5653 392.177,-46.8191 398.646,-50.0051 393.217,-54.7512 386.748,-51.5653"/>
<text text-anchor="middle" x="88.9142" y="-220" font-family="Helvetica,sans-Serif" font-size="10.00"> &#45;m_matrixTransform</text>
<text text-anchor="middle" x="88.9142" y="-209" font-family="Helvetica,sans-Serif" font-size="10.00">&#45;m_constTransformFromFixture</text>
</g>
<!-- Node4&#45;&gt;Node2 -->
<g id="edge3" class="edge"><title>Node4&#45;&gt;Node2</title>
<path fill="none" stroke="#404040" d="M64.5643,-338.142C75.9205,-322.881 91.561,-304.571 108.914,-292 126.025,-279.605 133.944,-283.303 152.914,-274 153.907,-273.513 154.904,-273.02 155.904,-272.522"/>
<polygon fill="none" stroke="#404040" points="156.023,-272.461 159.541,-266.167 166.705,-266.994 163.186,-273.288 156.023,-272.461"/>
<text text-anchor="middle" x="154.414" y="-300.5" font-family="Helvetica,sans-Serif" font-size="10.00"> &#45;m_matrixTransform</text>
</g>
<!-- Node5 -->
<g id="node5" class="node"><title>Node5</title>
<polygon fill="none" stroke="#bfbfbf" points="324.414,-338.5 324.414,-395.5 365.414,-395.5 365.414,-338.5 324.414,-338.5"/>
<text text-anchor="middle" x="344.914" y="-383.5" font-family="Helvetica,sans-Serif" font-size="10.00">string</text>
<polyline fill="none" stroke="#bfbfbf" points="324.414,-376.5 365.414,-376.5 "/>
<text text-anchor="middle" x="344.914" y="-364.5" font-family="Helvetica,sans-Serif" font-size="10.00"> </text>
<polyline fill="none" stroke="#bfbfbf" points="324.414,-357.5 365.414,-357.5 "/>
<text text-anchor="middle" x="344.914" y="-345.5" font-family="Helvetica,sans-Serif" font-size="10.00"> </text>
</g>
<!-- Node5&#45;&gt;Node1 -->
<g id="edge8" class="edge"><title>Node5&#45;&gt;Node1</title>
<path fill="none" stroke="#404040" d="M364.071,-338.382C368.588,-330.771 372.946,-322.315 375.914,-314 399.183,-248.826 374.073,-224.591 398.914,-160 408.515,-135.038 424.048,-109.987 438.81,-89.3532"/>
<polygon fill="none" stroke="#404040" points="438.868,-89.2741 439.192,-82.0702 445.966,-79.5983 445.642,-86.8022 438.868,-89.2741"/>
<text text-anchor="middle" x="433.414" y="-220" font-family="Helvetica,sans-Serif" font-size="10.00"> &#45;m_humanFoot</text>
<text text-anchor="middle" x="433.414" y="-209" font-family="Helvetica,sans-Serif" font-size="10.00">&#45;m_robotSole</text>
</g>
<!-- Node5&#45;&gt;Node2 -->
<g id="edge4" class="edge"><title>Node5&#45;&gt;Node2</title>
<path fill="none" stroke="#404040" d="M324.224,-356.38C309.409,-349.519 288.97,-340.111 270.914,-332 252.761,-323.845 240.796,-330.662 229.914,-314 224.227,-305.292 222.393,-295.273 222.898,-285.064"/>
<polygon fill="none" stroke="#404040" points="222.911,-284.958 219.726,-278.489 224.473,-273.06 227.658,-279.53 222.911,-284.958"/>
<text text-anchor="middle" x="302.914" y="-306" font-family="Helvetica,sans-Serif" font-size="10.00"> &#45;m_transformedExpressedFrame</text>
<text text-anchor="middle" x="302.914" y="-295" font-family="Helvetica,sans-Serif" font-size="10.00">&#45;m_originExpressedFrame</text>
</g>
<!-- Node6 -->
<g id="node6" class="node"><title>Node6</title>
<polygon fill="none" stroke="#bfbfbf" points="477.414,-188.5 477.414,-245.5 548.414,-245.5 548.414,-188.5 477.414,-188.5"/>
<text text-anchor="middle" x="512.914" y="-233.5" font-family="Helvetica,sans-Serif" font-size="10.00">IEncoders &amp;</text>
<polyline fill="none" stroke="#bfbfbf" points="477.414,-226.5 548.414,-226.5 "/>
<text text-anchor="middle" x="512.914" y="-214.5" font-family="Helvetica,sans-Serif" font-size="10.00"> </text>
<polyline fill="none" stroke="#bfbfbf" points="477.414,-207.5 548.414,-207.5 "/>
<text text-anchor="middle" x="512.914" y="-195.5" font-family="Helvetica,sans-Serif" font-size="10.00"> </text>
</g>
<!-- Node6&#45;&gt;Node1 -->
<g id="edge5" class="edge"><title>Node6&#45;&gt;Node1</title>
<path fill="none" stroke="#404040" d="M496.746,-188.171C489.815,-174.698 482.498,-158.004 478.914,-142 475.311,-125.91 474.22,-108.013 474.282,-91.8078"/>
<polygon fill="none" stroke="#404040" points="474.282,-91.8007 470.407,-85.7189 474.531,-79.8033 478.405,-85.8851 474.282,-91.8007"/>
<text text-anchor="start" x="478.914" y="-123" font-family="Helvetica,sans-Serif" font-size="10.00"> &#45;m_robotJointConfiguration</text>
<text text-anchor="middle" x="539.414" y="-112" font-family="Helvetica,sans-Serif" font-size="10.00">_encoder</text>
</g>
<!-- Node7 -->
<g id="node7" class="node"><title>Node7</title>
<polygon fill="none" stroke="#bfbfbf" points="566.914,-188.5 566.914,-245.5 676.914,-245.5 676.914,-188.5 566.914,-188.5"/>
<text text-anchor="middle" x="621.914" y="-233.5" font-family="Helvetica,sans-Serif" font-size="10.00">KinDynComputations</text>
<polyline fill="none" stroke="#bfbfbf" points="566.914,-226.5 676.914,-226.5 "/>
<text text-anchor="middle" x="621.914" y="-214.5" font-family="Helvetica,sans-Serif" font-size="10.00"> </text>
<polyline fill="none" stroke="#bfbfbf" points="566.914,-207.5 676.914,-207.5 "/>
<text text-anchor="middle" x="621.914" y="-195.5" font-family="Helvetica,sans-Serif" font-size="10.00"> </text>
</g>
<!-- Node7&#45;&gt;Node1 -->
<g id="edge6" class="edge"><title>Node7&#45;&gt;Node1</title>
<path fill="none" stroke="#404040" d="M623.577,-188.313C623.684,-162.387 619.949,-123.866 599.914,-98 591.247,-86.8093 579.855,-77.7237 567.512,-70.3733"/>
<polygon fill="none" stroke="#404040" points="567.486,-70.3593 560.302,-70.9881 556.959,-64.5989 564.143,-63.9701 567.486,-70.3593"/>
<text text-anchor="middle" x="673.914" y="-123" font-family="Helvetica,sans-Serif" font-size="10.00"> &#45;m_humanComputations</text>
<text text-anchor="middle" x="673.914" y="-112" font-family="Helvetica,sans-Serif" font-size="10.00">&#45;m_robotComputations</text>
</g>
<!-- Node8 -->
<g id="node8" class="node"><title>Node8</title>
<g id="a_node8"><a xlink:href="classyarp_1_1os_1_1_buffered_port.html" target="_top" xlink:title="{yarp::os::BufferedPort\l\&lt; human::HumanState \&gt;\n||}">
<polygon fill="none" stroke="black" points="695.414,-183 695.414,-251 820.414,-251 820.414,-183 695.414,-183"/>
<text text-anchor="start" x="703.414" y="-239" font-family="Helvetica,sans-Serif" font-size="10.00">yarp::os::BufferedPort</text>
<text text-anchor="middle" x="757.914" y="-228" font-family="Helvetica,sans-Serif" font-size="10.00">&lt; human::HumanState &gt;</text>
<polyline fill="none" stroke="black" points="695.414,-221 820.414,-221 "/>
<text text-anchor="middle" x="757.914" y="-209" font-family="Helvetica,sans-Serif" font-size="10.00"> </text>
<polyline fill="none" stroke="black" points="695.414,-202 820.414,-202 "/>
<text text-anchor="middle" x="757.914" y="-190" font-family="Helvetica,sans-Serif" font-size="10.00"> </text>
</a>
</g>
</g>
<!-- Node8&#45;&gt;Node1 -->
<g id="edge9" class="edge"><title>Node8&#45;&gt;Node1</title>
<path fill="none" stroke="#404040" d="M759.959,-182.749C759.691,-156.276 754.78,-120.111 732.914,-98 710.027,-74.8569 632.673,-59.7492 569.107,-50.9403"/>
<polygon fill="none" stroke="#404040" points="568.9,-50.9126 562.421,-54.0783 557.007,-49.3152 563.486,-46.1495 568.9,-50.9126"/>
<text text-anchor="middle" x="830.914" y="-117.5" font-family="Helvetica,sans-Serif" font-size="10.00"> &#45;m_humanJointConfiguration_port</text>
</g>
<!-- Node9 -->
<g id="node9" class="node"><title>Node9</title>
<polygon fill="none" stroke="#bfbfbf" points="887.414,-188.5 887.414,-245.5 970.414,-245.5 970.414,-188.5 887.414,-188.5"/>
<text text-anchor="middle" x="928.914" y="-233.5" font-family="Helvetica,sans-Serif" font-size="10.00">VectorDynSize</text>
<polyline fill="none" stroke="#bfbfbf" points="887.414,-226.5 970.414,-226.5 "/>
<text text-anchor="middle" x="928.914" y="-214.5" font-family="Helvetica,sans-Serif" font-size="10.00"> </text>
<polyline fill="none" stroke="#bfbfbf" points="887.414,-207.5 970.414,-207.5 "/>
<text text-anchor="middle" x="928.914" y="-195.5" font-family="Helvetica,sans-Serif" font-size="10.00"> </text>
</g>
<!-- Node9&#45;&gt;Node1 -->
<g id="edge10" class="edge"><title>Node9&#45;&gt;Node1</title>
<path fill="none" stroke="#404040" d="M932.156,-188.347C933.646,-161.309 931.099,-120.953 906.914,-98 859.836,-53.319 680.901,-42.9854 569.532,-40.9889"/>
<polygon fill="none" stroke="#404040" points="569.301,-40.9854 563.239,-44.8913 557.302,-40.7982 563.364,-36.8923 569.301,-40.9854"/>
<text text-anchor="middle" x="981.414" y="-134" font-family="Helvetica,sans-Serif" font-size="10.00"> &#45;m_humanConfiguration</text>
<text text-anchor="middle" x="981.414" y="-123" font-family="Helvetica,sans-Serif" font-size="10.00">&#45;m_humanVelocity</text>
<text text-anchor="middle" x="981.414" y="-112" font-family="Helvetica,sans-Serif" font-size="10.00">&#45;m_robotVelocity</text>
<text text-anchor="middle" x="981.414" y="-101" font-family="Helvetica,sans-Serif" font-size="10.00">&#45;m_robotConfiguration</text>
</g>
</g>
</svg>
