<?xml version="1.0" encoding="UTF-8" standalone="no"?>
<!DOCTYPE svg PUBLIC "-//W3C//DTD SVG 1.1//EN"
 "http://www.w3.org/Graphics/SVG/1.1/DTD/svg11.dtd">
<!-- Generated by graphviz version 2.36.0 (20140111.2315)
 -->
<!-- Title: InverseKinematics Pages: 1 -->
<!--zoomable 394 -->
<svg id="main" version="1.1" xmlns="http://www.w3.org/2000/svg" xmlns:xlink="http://www.w3.org/1999/xlink" xml:space="preserve" onload="init(evt)">
<style type="text/css"><![CDATA[
.edge:hover path { stroke: red; }
.edge:hover polygon { stroke: red; fill: red; }
]]></style>
<script type="text/javascript"><![CDATA[
var edges = document.getElementsByTagName('g');
if (edges && edges.length) {
  for (var i=0;i<edges.length;i++) {
    if (edges[i].id.substr(0,4)=='edge') {
      edges[i].setAttribute('class','edge');
    }
  }
}
]]></script>
        <defs>
                <circle id="rim" cx="0" cy="0" r="7"/>
                <circle id="rim2" cx="0" cy="0" r="3.5"/>
                <g id="zoomPlus">
                        <use xlink:href="#rim" fill="#404040">
                                <set attributeName="fill" to="#808080" begin="zoomplus.mouseover" end="zoomplus.mouseout"/>
                        </use>
                        <path d="M-4,0h8M0,-4v8" fill="none" stroke="white" stroke-width="1.5" pointer-events="none"/>
                </g>
                <g id="zoomMin">
                        <use xlink:href="#rim" fill="#404040">
                                <set attributeName="fill" to="#808080" begin="zoomminus.mouseover" end="zoomminus.mouseout"/>
                        </use>
                        <path d="M-4,0h8" fill="none" stroke="white" stroke-width="1.5" pointer-events="none"/>
                </g>
                <g id="dirArrow">
                        <path fill="none" stroke="white" stroke-width="1.5" d="M0,-3.0v7 M-2.5,-0.5L0,-3.0L2.5,-0.5"/>
                </g>
               <g id="resetDef">
                       <use xlink:href="#rim2" fill="#404040">
                               <set attributeName="fill" to="#808080" begin="reset.mouseover" end="reset.mouseout"/>
                       </use>
               </g>
        </defs>

<script type="text/javascript">
var viewWidth = 690;
var viewHeight = 394;
var sectionId = 'dynsection-0';
</script>
<script xlink:href="svgpan.js"/>
<svg id="graph" class="graph">
<g id="viewport">
<title>InverseKinematics</title>
<!-- Node1 -->
<g id="node1" class="node"><title>Node1</title>
<polygon fill="#bfbfbf" stroke="black" points="320,-1 320,-245 484,-245 484,-1 320,-1"/>
<text text-anchor="middle" x="402" y="-233" font-family="Helvetica,sans-Serif" font-size="10.00">InverseKinematics</text>
<polyline fill="none" stroke="black" points="320,-226 484,-226 "/>
<text text-anchor="middle" x="402" y="-214" font-family="Helvetica,sans-Serif" font-size="10.00"> </text>
<polyline fill="none" stroke="black" points="320,-207 484,-207 "/>
<text text-anchor="start" x="328" y="-195" font-family="Helvetica,sans-Serif" font-size="10.00">+ InverseKinematics()</text>
<text text-anchor="start" x="328" y="-184" font-family="Helvetica,sans-Serif" font-size="10.00">+ InverseKinematics()</text>
<text text-anchor="start" x="328" y="-173" font-family="Helvetica,sans-Serif" font-size="10.00">+ ~InverseKinematics()</text>
<text text-anchor="start" x="328" y="-162" font-family="Helvetica,sans-Serif" font-size="10.00">+ setModelfromURDF()</text>
<text text-anchor="start" x="328" y="-151" font-family="Helvetica,sans-Serif" font-size="10.00">+ setModelfromURDF()</text>
<text text-anchor="start" x="328" y="-140" font-family="Helvetica,sans-Serif" font-size="10.00">+ setModel()</text>
<text text-anchor="start" x="328" y="-129" font-family="Helvetica,sans-Serif" font-size="10.00">+ setWeights()</text>
<text text-anchor="start" x="328" y="-118" font-family="Helvetica,sans-Serif" font-size="10.00">+ setDesiredPosition()</text>
<text text-anchor="start" x="328" y="-107" font-family="Helvetica,sans-Serif" font-size="10.00">+ setDesiredQuaternion()</text>
<text text-anchor="start" x="328" y="-96" font-family="Helvetica,sans-Serif" font-size="10.00">+ setDesiredTransformation()</text>
<text text-anchor="start" x="328" y="-85" font-family="Helvetica,sans-Serif" font-size="10.00">and 15 more...</text>
<text text-anchor="start" x="328" y="-74" font-family="Helvetica,sans-Serif" font-size="10.00">&#45; update()</text>
<text text-anchor="start" x="328" y="-63" font-family="Helvetica,sans-Serif" font-size="10.00">&#45; getReducedModel()</text>
<text text-anchor="start" x="328" y="-52" font-family="Helvetica,sans-Serif" font-size="10.00">&#45; getFrameIndeces()</text>
<text text-anchor="start" x="328" y="-41" font-family="Helvetica,sans-Serif" font-size="10.00">&#45; removeUnsupportedJoints()</text>
<text text-anchor="start" x="328" y="-30" font-family="Helvetica,sans-Serif" font-size="10.00">&#45; autoSelectJointsFromTraversal()</text>
<text text-anchor="start" x="328" y="-19" font-family="Helvetica,sans-Serif" font-size="10.00">&#45; InverseKinematics()</text>
<text text-anchor="start" x="328" y="-8" font-family="Helvetica,sans-Serif" font-size="10.00">&#45; operator=()</text>
</g>
<!-- Node2 -->
<g id="node2" class="node"><title>Node2</title>
<polygon fill="none" stroke="#bfbfbf" points="0,-317 0,-385 146,-385 146,-317 0,-317"/>
<text text-anchor="start" x="8" y="-373" font-family="Helvetica,sans-Serif" font-size="10.00">SmartPtr&lt; InverseKinematics</text>
<text text-anchor="middle" x="73" y="-362" font-family="Helvetica,sans-Serif" font-size="10.00">V2IPOPT &gt;</text>
<polyline fill="none" stroke="#bfbfbf" points="0,-355 146,-355 "/>
<text text-anchor="middle" x="73" y="-343" font-family="Helvetica,sans-Serif" font-size="10.00"> </text>
<polyline fill="none" stroke="#bfbfbf" points="0,-336 146,-336 "/>
<text text-anchor="middle" x="73" y="-324" font-family="Helvetica,sans-Serif" font-size="10.00"> </text>
</g>
<!-- Node2&#45;&gt;Node1 -->
<g id="edge1" class="edge"><title>Node2&#45;&gt;Node1</title>
<path fill="none" stroke="#404040" d="M121.192,-316.896C170.56,-282.983 248.543,-229.414 309.815,-187.325"/>
<polygon fill="none" stroke="#404040" points="309.993,-187.202 312.674,-180.508 319.884,-180.408 317.204,-187.102 309.993,-187.202"/>
<text text-anchor="middle" x="221" y="-278.5" font-family="Helvetica,sans-Serif" font-size="10.00"> &#45;solverPointer</text>
</g>
<!-- Node3 -->
<g id="node3" class="node"><title>Node3</title>
<polygon fill="none" stroke="#bfbfbf" points="164.5,-322.5 164.5,-379.5 335.5,-379.5 335.5,-322.5 164.5,-322.5"/>
<text text-anchor="middle" x="250" y="-367.5" font-family="Helvetica,sans-Serif" font-size="10.00">SmartPtr&lt; Ipopt::IpoptApplication &gt;</text>
<polyline fill="none" stroke="#bfbfbf" points="164.5,-360.5 335.5,-360.5 "/>
<text text-anchor="middle" x="250" y="-348.5" font-family="Helvetica,sans-Serif" font-size="10.00"> </text>
<polyline fill="none" stroke="#bfbfbf" points="164.5,-341.5 335.5,-341.5 "/>
<text text-anchor="middle" x="250" y="-329.5" font-family="Helvetica,sans-Serif" font-size="10.00"> </text>
</g>
<!-- Node3&#45;&gt;Node1 -->
<g id="edge2" class="edge"><title>Node3&#45;&gt;Node1</title>
<path fill="none" stroke="#404040" d="M268.638,-322.288C280.431,-304.755 296.628,-280.672 313.675,-255.325"/>
<polygon fill="none" stroke="#404040" points="313.803,-255.134 313.833,-247.923 320.5,-245.177 320.471,-252.388 313.803,-255.134"/>
<text text-anchor="middle" x="320.5" y="-278.5" font-family="Helvetica,sans-Serif" font-size="10.00"> &#45;loader</text>
</g>
<!-- Node4 -->
<g id="node4" class="node"><title>Node4</title>
<polygon fill="none" stroke="#bfbfbf" points="353.5,-322.5 353.5,-379.5 394.5,-379.5 394.5,-322.5 353.5,-322.5"/>
<text text-anchor="middle" x="374" y="-367.5" font-family="Helvetica,sans-Serif" font-size="10.00">string</text>
<polyline fill="none" stroke="#bfbfbf" points="353.5,-360.5 394.5,-360.5 "/>
<text text-anchor="middle" x="374" y="-348.5" font-family="Helvetica,sans-Serif" font-size="10.00"> </text>
<polyline fill="none" stroke="#bfbfbf" points="353.5,-341.5 394.5,-341.5 "/>
<text text-anchor="middle" x="374" y="-329.5" font-family="Helvetica,sans-Serif" font-size="10.00"> </text>
</g>
<!-- Node4&#45;&gt;Node1 -->
<g id="edge3" class="edge"><title>Node4&#45;&gt;Node1</title>
<path fill="none" stroke="#404040" d="M363.802,-322.289C361.41,-314.537 359.208,-306.033 358,-298 355.993,-284.654 355.925,-270.844 357.197,-257.107"/>
<polygon fill="none" stroke="#404040" points="357.212,-256.983 353.957,-250.549 358.644,-245.069 361.899,-251.504 357.212,-256.983"/>
<text text-anchor="middle" x="391.5" y="-284" font-family="Helvetica,sans-Serif" font-size="10.00"> &#45;_parentFrame</text>
<text text-anchor="middle" x="391.5" y="-273" font-family="Helvetica,sans-Serif" font-size="10.00">&#45;_targetFrame</text>
</g>
<!-- Node5 -->
<g id="node5" class="node"><title>Node5</title>
<polygon fill="none" stroke="#bfbfbf" points="429.5,-322.5 429.5,-379.5 464.5,-379.5 464.5,-322.5 429.5,-322.5"/>
<text text-anchor="middle" x="447" y="-367.5" font-family="Helvetica,sans-Serif" font-size="10.00">bool</text>
<polyline fill="none" stroke="#bfbfbf" points="429.5,-360.5 464.5,-360.5 "/>
<text text-anchor="middle" x="447" y="-348.5" font-family="Helvetica,sans-Serif" font-size="10.00"> </text>
<polyline fill="none" stroke="#bfbfbf" points="429.5,-341.5 464.5,-341.5 "/>
<text text-anchor="middle" x="447" y="-329.5" font-family="Helvetica,sans-Serif" font-size="10.00"> </text>
</g>
<!-- Node5&#45;&gt;Node1 -->
<g id="edge4" class="edge"><title>Node5&#45;&gt;Node1</title>
<path fill="none" stroke="#404040" d="M441.482,-322.288C438.068,-305.143 433.407,-281.734 428.483,-257.006"/>
<polygon fill="none" stroke="#404040" points="428.472,-256.946 423.377,-251.843 426.128,-245.177 431.223,-250.28 428.472,-256.946"/>
<text text-anchor="middle" x="476.5" y="-289.5" font-family="Helvetica,sans-Serif" font-size="10.00"> &#45;updated</text>
<text text-anchor="middle" x="476.5" y="-278.5" font-family="Helvetica,sans-Serif" font-size="10.00">&#45;initialized</text>
<text text-anchor="middle" x="476.5" y="-267.5" font-family="Helvetica,sans-Serif" font-size="10.00">&#45;alreadyOptimized</text>
</g>
<!-- Node6 -->
<g id="node6" class="node"><title>Node6</title>
<polygon fill="none" stroke="#bfbfbf" points="521,-322.5 521,-379.5 577,-379.5 577,-322.5 521,-322.5"/>
<text text-anchor="middle" x="549" y="-367.5" font-family="Helvetica,sans-Serif" font-size="10.00">unsigned</text>
<polyline fill="none" stroke="#bfbfbf" points="521,-360.5 577,-360.5 "/>
<text text-anchor="middle" x="549" y="-348.5" font-family="Helvetica,sans-Serif" font-size="10.00"> </text>
<polyline fill="none" stroke="#bfbfbf" points="521,-341.5 577,-341.5 "/>
<text text-anchor="middle" x="549" y="-329.5" font-family="Helvetica,sans-Serif" font-size="10.00"> </text>
</g>
<!-- Node6&#45;&gt;Node1 -->
<g id="edge5" class="edge"><title>Node6&#45;&gt;Node1</title>
<path fill="none" stroke="#404040" d="M542.469,-322.165C537.707,-304.76 530.281,-282.261 520,-264 511.843,-249.512 502.093,-235.1 491.742,-221.338"/>
<polygon fill="none" stroke="#404040" points="491.439,-220.944 484.608,-218.634 484.113,-211.44 490.944,-213.75 491.439,-220.944"/>
<text text-anchor="middle" x="568.5" y="-284" font-family="Helvetica,sans-Serif" font-size="10.00"> &#45;maxIterations</text>
<text text-anchor="middle" x="568.5" y="-273" font-family="Helvetica,sans-Serif" font-size="10.00">&#45;verbosityLevel</text>
</g>
<!-- Node7 -->
<g id="node7" class="node"><title>Node7</title>
<polygon fill="none" stroke="#bfbfbf" points="597.5,-322.5 597.5,-379.5 680.5,-379.5 680.5,-322.5 597.5,-322.5"/>
<text text-anchor="middle" x="639" y="-367.5" font-family="Helvetica,sans-Serif" font-size="10.00">VectorDynSize</text>
<polyline fill="none" stroke="#bfbfbf" points="597.5,-360.5 680.5,-360.5 "/>
<text text-anchor="middle" x="639" y="-348.5" font-family="Helvetica,sans-Serif" font-size="10.00"> </text>
<polyline fill="none" stroke="#bfbfbf" points="597.5,-341.5 680.5,-341.5 "/>
<text text-anchor="middle" x="639" y="-329.5" font-family="Helvetica,sans-Serif" font-size="10.00"> </text>
</g>
<!-- Node7&#45;&gt;Node1 -->
<g id="edge6" class="edge"><title>Node7&#45;&gt;Node1</title>
<path fill="none" stroke="#404040" d="M632.924,-322.282C627.941,-304.28 619.47,-281.076 606,-264 576.273,-226.314 533.629,-194.853 495.009,-171.363"/>
<polygon fill="none" stroke="#404040" points="494.548,-171.089 487.346,-171.457 484.237,-164.951 491.438,-164.583 494.548,-171.089"/>
<text text-anchor="middle" x="653.5" y="-284" font-family="Helvetica,sans-Serif" font-size="10.00"> &#45;tempGuess</text>
<text text-anchor="middle" x="653.5" y="-273" font-family="Helvetica,sans-Serif" font-size="10.00">&#45;lastSolution</text>
</g>
</g>
</svg>
        <g id="navigator" transform="translate(0 0)" fill="#404254">
                <rect fill="#f2f5e9" fill-opacity="0.5" stroke="#606060" stroke-width=".5" x="0" y="0" width="60" height="60"/>
                <use id="zoomplus" xlink:href="#zoomPlus" x="17" y="9" onmousedown="handleZoom(evt,'in')"/>
                <use id="zoomminus" xlink:href="#zoomMin" x="42" y="9" onmousedown="handleZoom(evt,'out')"/>
                <use id="reset" xlink:href="#resetDef" x="30" y="36" onmousedown="handleReset()"/>
                <g id="arrowUp" xlink:href="#dirArrow" transform="translate(30 24)" onmousedown="handlePan(0,-1)">
                  <use xlink:href="#rim" fill="#404040">
                        <set attributeName="fill" to="#808080" begin="arrowUp.mouseover" end="arrowUp.mouseout"/>
                  </use>
                  <path fill="none" stroke="white" stroke-width="1.5" d="M0,-3.0v7 M-2.5,-0.5L0,-3.0L2.5,-0.5"/>
                </g>
                <g id="arrowRight" xlink:href="#dirArrow" transform="rotate(90) translate(36 -43)" onmousedown="handlePan(1,0)">
                  <use xlink:href="#rim" fill="#404040">
                        <set attributeName="fill" to="#808080" begin="arrowRight.mouseover" end="arrowRight.mouseout"/>
                  </use>
                  <path fill="none" stroke="white" stroke-width="1.5" d="M0,-3.0v7 M-2.5,-0.5L0,-3.0L2.5,-0.5"/>
                </g>
                <g id="arrowDown" xlink:href="#dirArrow" transform="rotate(180) translate(-30 -48)" onmousedown="handlePan(0,1)">
                  <use xlink:href="#rim" fill="#404040">
                        <set attributeName="fill" to="#808080" begin="arrowDown.mouseover" end="arrowDown.mouseout"/>
                  </use>
                  <path fill="none" stroke="white" stroke-width="1.5" d="M0,-3.0v7 M-2.5,-0.5L0,-3.0L2.5,-0.5"/>
                </g>
                <g id="arrowLeft" xlink:href="#dirArrow" transform="rotate(270) translate(-36 17)" onmousedown="handlePan(-1,0)">
                  <use xlink:href="#rim" fill="#404040">
                        <set attributeName="fill" to="#808080" begin="arrowLeft.mouseover" end="arrowLeft.mouseout"/>
                  </use>
                  <path fill="none" stroke="white" stroke-width="1.5" d="M0,-3.0v7 M-2.5,-0.5L0,-3.0L2.5,-0.5"/>
                </g>
        </g>
        <svg viewBox="0 0 15 15" width="100%" height="30px" preserveAspectRatio="xMaxYMin meet">
         <g id="arrow_out" transform="scale(0.3 0.3)">
          <a xlink:href="class_inverse_kinematics__coll__graph_org.svg" target="_base">
           <rect id="button" ry="5" rx="5" y="6" x="6" height="38" width="38"
                fill="#f2f5e9" fill-opacity="0.5" stroke="#606060" stroke-width="1.0"/>
           <path id="arrow"
             d="M 11.500037,31.436501 C 11.940474,20.09759 22.043105,11.32322 32.158766,21.979434 L 37.068811,17.246167 C 37.068811,17.246167 37.088388,32 37.088388,32 L 22.160133,31.978069 C 22.160133,31.978069 26.997745,27.140456 26.997745,27.140456 C 18.528582,18.264221 13.291696,25.230495 11.500037,31.436501 z"
             style="fill:#404040;"/>
          </a>
         </g>
        </svg>
</svg>
