<?xml version="1.0" encoding="UTF-8" standalone="no"?>
<!DOCTYPE svg PUBLIC "-//W3C//DTD SVG 1.1//EN"
 "http://www.w3.org/Graphics/SVG/1.1/DTD/svg11.dtd">
<!-- Generated by graphviz version 2.36.0 (20140111.2315)
 -->
<!-- Title: HumanDynamicsEstimator Pages: 1 -->
<svg width="211pt" height="216pt"
 viewBox="0.00 0.00 211.00 216.00" xmlns="http://www.w3.org/2000/svg" xmlns:xlink="http://www.w3.org/1999/xlink">
<g id="graph0" class="graph" transform="scale(1 1) rotate(0) translate(4 212)">
<title>HumanDynamicsEstimator</title>
<!-- Node1 -->
<g id="node1" class="node"><title>Node1</title>
<polygon fill="#bfbfbf" stroke="black" points="27,-0.5 27,-101.5 161,-101.5 161,-0.5 27,-0.5"/>
<text text-anchor="middle" x="94" y="-89.5" font-family="Helvetica,sans-Serif" font-size="10.00">HumanDynamicsEstimator</text>
<polyline fill="none" stroke="black" points="27,-82.5 161,-82.5 "/>
<text text-anchor="middle" x="94" y="-70.5" font-family="Helvetica,sans-Serif" font-size="10.00"> </text>
<polyline fill="none" stroke="black" points="27,-63.5 161,-63.5 "/>
<text text-anchor="start" x="35" y="-51.5" font-family="Helvetica,sans-Serif" font-size="10.00">+ getPeriod()</text>
<text text-anchor="start" x="35" y="-40.5" font-family="Helvetica,sans-Serif" font-size="10.00">+ configure()</text>
<text text-anchor="start" x="35" y="-29.5" font-family="Helvetica,sans-Serif" font-size="10.00">+ updateModule()</text>
<text text-anchor="start" x="35" y="-18.5" font-family="Helvetica,sans-Serif" font-size="10.00">+ interruptModule()</text>
<text text-anchor="start" x="35" y="-7.5" font-family="Helvetica,sans-Serif" font-size="10.00">+ close()</text>
</g>
<!-- Node2 -->
<g id="node2" class="node"><title>Node2</title>
<g id="a_node2"><a xlink:href="classyarp_1_1os_1_1_r_f_module.html" target="_top" xlink:title="{RFModule\n||}">
<polygon fill="none" stroke="black" points="0,-150.5 0,-207.5 62,-207.5 62,-150.5 0,-150.5"/>
<text text-anchor="middle" x="31" y="-195.5" font-family="Helvetica,sans-Serif" font-size="10.00">RFModule</text>
<polyline fill="none" stroke="black" points="0,-188.5 62,-188.5 "/>
<text text-anchor="middle" x="31" y="-176.5" font-family="Helvetica,sans-Serif" font-size="10.00"> </text>
<polyline fill="none" stroke="black" points="0,-169.5 62,-169.5 "/>
<text text-anchor="middle" x="31" y="-157.5" font-family="Helvetica,sans-Serif" font-size="10.00"> </text>
</a>
</g>
</g>
<!-- Node2&#45;&gt;Node1 -->
<g id="edge1" class="edge"><title>Node2&#45;&gt;Node1</title>
<path fill="none" stroke="midnightblue" d="M49.3749,-141.25C55.5601,-128.88 62.5676,-114.865 69.1661,-101.668"/>
<polygon fill="none" stroke="midnightblue" points="46.1673,-139.839 44.8256,-150.349 52.4283,-142.97 46.1673,-139.839"/>
</g>
<!-- Node3 -->
<g id="node3" class="node"><title>Node3</title>
<polygon fill="none" stroke="#bfbfbf" points="79.5,-150.5 79.5,-207.5 108.5,-207.5 108.5,-150.5 79.5,-150.5"/>
<text text-anchor="middle" x="94" y="-195.5" font-family="Helvetica,sans-Serif" font-size="10.00">int</text>
<polyline fill="none" stroke="#bfbfbf" points="79.5,-188.5 108.5,-188.5 "/>
<text text-anchor="middle" x="94" y="-176.5" font-family="Helvetica,sans-Serif" font-size="10.00"> </text>
<polyline fill="none" stroke="#bfbfbf" points="79.5,-169.5 108.5,-169.5 "/>
<text text-anchor="middle" x="94" y="-157.5" font-family="Helvetica,sans-Serif" font-size="10.00"> </text>
</g>
<!-- Node3&#45;&gt;Node1 -->
<g id="edge2" class="edge"><title>Node3&#45;&gt;Node1</title>
<path fill="none" stroke="#404040" d="M94,-150.349C94,-139.534 94,-126.664 94,-113.858"/>
<polygon fill="none" stroke="#404040" points="94.0001,-113.668 90,-107.668 94,-101.668 98,-107.668 94.0001,-113.668"/>
<text text-anchor="middle" x="109.5" y="-123.5" font-family="Helvetica,sans-Serif" font-size="10.00"> &#45;count</text>
</g>
<!-- Node4 -->
<g id="node4" class="node"><title>Node4</title>
<polygon fill="none" stroke="#bfbfbf" points="127.5,-150.5 127.5,-207.5 168.5,-207.5 168.5,-150.5 127.5,-150.5"/>
<text text-anchor="middle" x="148" y="-195.5" font-family="Helvetica,sans-Serif" font-size="10.00">string</text>
<polyline fill="none" stroke="#bfbfbf" points="127.5,-188.5 168.5,-188.5 "/>
<text text-anchor="middle" x="148" y="-176.5" font-family="Helvetica,sans-Serif" font-size="10.00"> </text>
<polyline fill="none" stroke="#bfbfbf" points="127.5,-169.5 168.5,-169.5 "/>
<text text-anchor="middle" x="148" y="-157.5" font-family="Helvetica,sans-Serif" font-size="10.00"> </text>
</g>
<!-- Node4&#45;&gt;Node1 -->
<g id="edge3" class="edge"><title>Node4&#45;&gt;Node1</title>
<path fill="none" stroke="#404040" d="M138.024,-150.388C134.397,-140.713 130.164,-129.815 126,-120 124.965,-117.56 123.893,-115.079 122.796,-112.58"/>
<polygon fill="none" stroke="#404040" points="122.768,-112.518 116.666,-108.675 117.866,-101.565 123.968,-105.407 122.768,-112.518"/>
<text text-anchor="middle" x="166.5" y="-123.5" font-family="Helvetica,sans-Serif" font-size="10.00"> &#45;modelFilename</text>
</g>
</g>
</svg>
