<?xml version="1.0" encoding="UTF-8" standalone="no"?>
<!DOCTYPE svg PUBLIC "-//W3C//DTD SVG 1.1//EN"
 "http://www.w3.org/Graphics/SVG/1.1/DTD/svg11.dtd">
<!-- Generated by graphviz version 2.36.0 (20140111.2315)
 -->
<!-- Title: human::PortForceReader Pages: 1 -->
<svg width="152pt" height="356pt"
 viewBox="0.00 0.00 152.00 356.00" xmlns="http://www.w3.org/2000/svg" xmlns:xlink="http://www.w3.org/1999/xlink">
<g id="graph0" class="graph" transform="scale(1 1) rotate(0) translate(4 352)">
<title>human::PortForceReader</title>
<!-- Node1 -->
<g id="node1" class="node"><title>Node1</title>
<polygon fill="#bfbfbf" stroke="black" points="9,-1 9,-69 135,-69 135,-1 9,-1"/>
<text text-anchor="middle" x="72" y="-57" font-family="Helvetica,sans-Serif" font-size="10.00">human::PortForceReader</text>
<polyline fill="none" stroke="black" points="9,-50 135,-50 "/>
<text text-anchor="start" x="17" y="-38" font-family="Helvetica,sans-Serif" font-size="10.00">&#45; m_bufferedPort</text>
<polyline fill="none" stroke="black" points="9,-31 135,-31 "/>
<text text-anchor="start" x="17" y="-19" font-family="Helvetica,sans-Serif" font-size="10.00">+ PortForceReader()</text>
<text text-anchor="start" x="17" y="-8" font-family="Helvetica,sans-Serif" font-size="10.00"># lowLevelRead()</text>
</g>
<!-- Node2 -->
<g id="node2" class="node"><title>Node2</title>
<g id="a_node2"><a xlink:href="classhuman_1_1_abstract_force_reader.html" target="_top" xlink:title="Abstract class for implementing code required from its derived classes. ">
<polygon fill="none" stroke="black" points="-0.5,-107 -0.5,-241 144.5,-241 144.5,-107 -0.5,-107"/>
<text text-anchor="middle" x="72" y="-229" font-family="Helvetica,sans-Serif" font-size="10.00">human::AbstractForceReader</text>
<polyline fill="none" stroke="black" points="-0.5,-222 144.5,-222 "/>
<text text-anchor="start" x="7.5" y="-210" font-family="Helvetica,sans-Serif" font-size="10.00">&#45; m_frameTransformer</text>
<text text-anchor="start" x="7.5" y="-199" font-family="Helvetica,sans-Serif" font-size="10.00">&#45; m_attachedLink</text>
<text text-anchor="start" x="7.5" y="-188" font-family="Helvetica,sans-Serif" font-size="10.00">&#45; m_referenceFrame</text>
<text text-anchor="start" x="7.5" y="-177" font-family="Helvetica,sans-Serif" font-size="10.00">&#45; m_packedForce</text>
<polyline fill="none" stroke="black" points="-0.5,-170 144.5,-170 "/>
<text text-anchor="start" x="7.5" y="-158" font-family="Helvetica,sans-Serif" font-size="10.00">+ AbstractForceReader()</text>
<text text-anchor="start" x="7.5" y="-147" font-family="Helvetica,sans-Serif" font-size="10.00">+ setTransformer()</text>
<text text-anchor="start" x="7.5" y="-136" font-family="Helvetica,sans-Serif" font-size="10.00">+ getTransformer()</text>
<text text-anchor="start" x="7.5" y="-125" font-family="Helvetica,sans-Serif" font-size="10.00">+ readForce()</text>
<text text-anchor="start" x="7.5" y="-114" font-family="Helvetica,sans-Serif" font-size="10.00"># lowLevelRead()</text>
</a>
</g>
</g>
<!-- Node2&#45;&gt;Node1 -->
<g id="edge1" class="edge"><title>Node2&#45;&gt;Node1</title>
<path fill="none" stroke="midnightblue" d="M72,-96.7563C72,-87.056 72,-77.5656 72,-69.0765"/>
<polygon fill="none" stroke="midnightblue" points="68.5001,-96.9077 72,-106.908 75.5001,-96.9078 68.5001,-96.9077"/>
</g>
<!-- Node3 -->
<g id="node3" class="node"><title>Node3</title>
<g id="a_node3"><a xlink:href="classhuman_1_1_force_reader.html" target="_top" xlink:title="Interface for reading forces from device and sensors. ">
<polygon fill="none" stroke="black" points="18,-279 18,-347 126,-347 126,-279 18,-279"/>
<text text-anchor="middle" x="72" y="-335" font-family="Helvetica,sans-Serif" font-size="10.00">human::ForceReader</text>
<polyline fill="none" stroke="black" points="18,-328 126,-328 "/>
<text text-anchor="middle" x="72" y="-316" font-family="Helvetica,sans-Serif" font-size="10.00"> </text>
<polyline fill="none" stroke="black" points="18,-309 126,-309 "/>
<text text-anchor="start" x="26" y="-297" font-family="Helvetica,sans-Serif" font-size="10.00">+ readForce()</text>
<text text-anchor="start" x="26" y="-286" font-family="Helvetica,sans-Serif" font-size="10.00">+ ~ForceReader()</text>
</a>
</g>
</g>
<!-- Node3&#45;&gt;Node2 -->
<g id="edge2" class="edge"><title>Node3&#45;&gt;Node2</title>
<path fill="none" stroke="midnightblue" d="M72,-268.83C72,-260.015 72,-250.549 72,-241.142"/>
<polygon fill="none" stroke="midnightblue" points="68.5001,-268.836 72,-278.836 75.5001,-268.836 68.5001,-268.836"/>
</g>
</g>
</svg>
