<?xml version="1.0" encoding="UTF-8" standalone="no"?>
<!DOCTYPE svg PUBLIC "-//W3C//DTD SVG 1.1//EN"
 "http://www.w3.org/Graphics/SVG/1.1/DTD/svg11.dtd">
<!-- Generated by graphviz version 2.36.0 (20140111.2315)
 -->
<!-- Title: xsensJointStatePublisherModule Pages: 1 -->
<!--zoomable 920 -->
<svg id="main" version="1.1" xmlns="http://www.w3.org/2000/svg" xmlns:xlink="http://www.w3.org/1999/xlink" xml:space="preserve" onload="init(evt)">
<style type="text/css"><![CDATA[
.edge:hover path { stroke: red; }
.edge:hover polygon { stroke: red; fill: red; }
]]></style>
<script type="text/javascript"><![CDATA[
var edges = document.getElementsByTagName('g');
if (edges && edges.length) {
  for (var i=0;i<edges.length;i++) {
    if (edges[i].id.substr(0,4)=='edge') {
      edges[i].setAttribute('class','edge');
    }
  }
}
]]></script>
        <defs>
                <circle id="rim" cx="0" cy="0" r="7"/>
                <circle id="rim2" cx="0" cy="0" r="3.5"/>
                <g id="zoomPlus">
                        <use xlink:href="#rim" fill="#404040">
                                <set attributeName="fill" to="#808080" begin="zoomplus.mouseover" end="zoomplus.mouseout"/>
                        </use>
                        <path d="M-4,0h8M0,-4v8" fill="none" stroke="white" stroke-width="1.5" pointer-events="none"/>
                </g>
                <g id="zoomMin">
                        <use xlink:href="#rim" fill="#404040">
                                <set attributeName="fill" to="#808080" begin="zoomminus.mouseover" end="zoomminus.mouseout"/>
                        </use>
                        <path d="M-4,0h8" fill="none" stroke="white" stroke-width="1.5" pointer-events="none"/>
                </g>
                <g id="dirArrow">
                        <path fill="none" stroke="white" stroke-width="1.5" d="M0,-3.0v7 M-2.5,-0.5L0,-3.0L2.5,-0.5"/>
                </g>
               <g id="resetDef">
                       <use xlink:href="#rim2" fill="#404040">
                               <set attributeName="fill" to="#808080" begin="reset.mouseover" end="reset.mouseout"/>
                       </use>
               </g>
        </defs>

<script type="text/javascript">
var viewWidth = 865;
var viewHeight = 920;
var sectionId = 'dynsection-1';
</script>
<script xlink:href="svgpan.js"/>
<svg id="graph" class="graph">
<g id="viewport">
<title>xsensJointStatePublisherModule</title>
<!-- Node1 -->
<g id="node1" class="node"><title>Node1</title>
<polygon fill="#bfbfbf" stroke="black" points="360,-1 360,-113 488,-113 488,-1 360,-1"/>
<text text-anchor="start" x="368" y="-101" font-family="Helvetica,sans-Serif" font-size="10.00">xsensJointStatePublisher</text>
<text text-anchor="middle" x="424" y="-90" font-family="Helvetica,sans-Serif" font-size="10.00">Module</text>
<polyline fill="none" stroke="black" points="360,-83 488,-83 "/>
<text text-anchor="middle" x="424" y="-71" font-family="Helvetica,sans-Serif" font-size="10.00"> </text>
<polyline fill="none" stroke="black" points="360,-64 488,-64 "/>
<text text-anchor="start" x="368" y="-52" font-family="Helvetica,sans-Serif" font-size="10.00">+ getPeriod()</text>
<text text-anchor="start" x="368" y="-41" font-family="Helvetica,sans-Serif" font-size="10.00">+ updateModule()</text>
<text text-anchor="start" x="368" y="-30" font-family="Helvetica,sans-Serif" font-size="10.00">+ configure()</text>
<text text-anchor="start" x="368" y="-19" font-family="Helvetica,sans-Serif" font-size="10.00">+ close()</text>
<text text-anchor="start" x="368" y="-8" font-family="Helvetica,sans-Serif" font-size="10.00">+ onRead()</text>
</g>
<!-- Node2 -->
<g id="node2" class="node"><title>Node2</title>
<g id="a_node2"><a xlink:href="class_r_f_module.html" target="_top" xlink:title="{RFModule\n||}">
<polygon fill="none" stroke="black" points="0,-217.5 0,-274.5 62,-274.5 62,-217.5 0,-217.5"/>
<text text-anchor="middle" x="31" y="-262.5" font-family="Helvetica,sans-Serif" font-size="10.00">RFModule</text>
<polyline fill="none" stroke="black" points="0,-255.5 62,-255.5 "/>
<text text-anchor="middle" x="31" y="-243.5" font-family="Helvetica,sans-Serif" font-size="10.00"> </text>
<polyline fill="none" stroke="black" points="0,-236.5 62,-236.5 "/>
<text text-anchor="middle" x="31" y="-224.5" font-family="Helvetica,sans-Serif" font-size="10.00"> </text>
</a>
</g>
</g>
<!-- Node2&#45;&gt;Node1 -->
<g id="edge1" class="edge"><title>Node2&#45;&gt;Node1</title>
<path fill="none" stroke="midnightblue" d="M41.3933,-207.734C47.6025,-191.643 57.0671,-173.834 71,-162 154.026,-91.4828 283.041,-68.7647 359.958,-61.4557"/>
<polygon fill="none" stroke="midnightblue" points="37.987,-206.867 37.9371,-217.462 44.583,-209.21 37.987,-206.867"/>
</g>
<!-- Node3 -->
<g id="node3" class="node"><title>Node3</title>
<g id="a_node3"><a xlink:href="class_typed_reader_callback.html" target="_top" xlink:title="{TypedReaderCallback\l\&lt; HumanState \&gt;\n||}">
<polygon fill="none" stroke="black" points="80.5,-212 80.5,-280 193.5,-280 193.5,-212 80.5,-212"/>
<text text-anchor="start" x="88.5" y="-268" font-family="Helvetica,sans-Serif" font-size="10.00">TypedReaderCallback</text>
<text text-anchor="middle" x="137" y="-257" font-family="Helvetica,sans-Serif" font-size="10.00">&lt; HumanState &gt;</text>
<polyline fill="none" stroke="black" points="80.5,-250 193.5,-250 "/>
<text text-anchor="middle" x="137" y="-238" font-family="Helvetica,sans-Serif" font-size="10.00"> </text>
<polyline fill="none" stroke="black" points="80.5,-231 193.5,-231 "/>
<text text-anchor="middle" x="137" y="-219" font-family="Helvetica,sans-Serif" font-size="10.00"> </text>
</a>
</g>
</g>
<!-- Node3&#45;&gt;Node1 -->
<g id="edge2" class="edge"><title>Node3&#45;&gt;Node1</title>
<path fill="none" stroke="midnightblue" d="M154.817,-202.804C166.757,-179.058 184.592,-150.543 208,-132 252.122,-97.0485 313.755,-78.1032 359.897,-68.1609"/>
<polygon fill="none" stroke="midnightblue" points="151.585,-201.448 150.374,-211.974 157.884,-204.5 151.585,-201.448"/>
</g>
<!-- Node4 -->
<g id="node4" class="node"><title>Node4</title>
<g id="a_node4"><a xlink:href="classtf2__msgs___t_f_message.html" target="_top" xlink:title="{tf2_msgs_TFMessage\n||+ tf2_msgs_TFMessage()\l+ readBare()\l+ readBottle()\l+ read()\l+ writeBare()\l+ writeBottle()\l+ write()\l+ getTypeText()\l+ getType()\l+ tf2_msgs_TFMessage()\land 8 more...\l}">
<polygon fill="none" stroke="black" points="150.5,-616.5 150.5,-783.5 279.5,-783.5 279.5,-616.5 150.5,-616.5"/>
<text text-anchor="middle" x="215" y="-771.5" font-family="Helvetica,sans-Serif" font-size="10.00">tf2_msgs_TFMessage</text>
<polyline fill="none" stroke="black" points="150.5,-764.5 279.5,-764.5 "/>
<text text-anchor="middle" x="215" y="-752.5" font-family="Helvetica,sans-Serif" font-size="10.00"> </text>
<polyline fill="none" stroke="black" points="150.5,-745.5 279.5,-745.5 "/>
<text text-anchor="start" x="158.5" y="-733.5" font-family="Helvetica,sans-Serif" font-size="10.00">+ tf2_msgs_TFMessage()</text>
<text text-anchor="start" x="158.5" y="-722.5" font-family="Helvetica,sans-Serif" font-size="10.00">+ readBare()</text>
<text text-anchor="start" x="158.5" y="-711.5" font-family="Helvetica,sans-Serif" font-size="10.00">+ readBottle()</text>
<text text-anchor="start" x="158.5" y="-700.5" font-family="Helvetica,sans-Serif" font-size="10.00">+ read()</text>
<text text-anchor="start" x="158.5" y="-689.5" font-family="Helvetica,sans-Serif" font-size="10.00">+ writeBare()</text>
<text text-anchor="start" x="158.5" y="-678.5" font-family="Helvetica,sans-Serif" font-size="10.00">+ writeBottle()</text>
<text text-anchor="start" x="158.5" y="-667.5" font-family="Helvetica,sans-Serif" font-size="10.00">+ write()</text>
<text text-anchor="start" x="158.5" y="-656.5" font-family="Helvetica,sans-Serif" font-size="10.00">+ getTypeText()</text>
<text text-anchor="start" x="158.5" y="-645.5" font-family="Helvetica,sans-Serif" font-size="10.00">+ getType()</text>
<text text-anchor="start" x="158.5" y="-634.5" font-family="Helvetica,sans-Serif" font-size="10.00">+ tf2_msgs_TFMessage()</text>
<text text-anchor="start" x="158.5" y="-623.5" font-family="Helvetica,sans-Serif" font-size="10.00">and 8 more...</text>
</a>
</g>
</g>
<!-- Node4&#45;&gt;Node1 -->
<g id="edge3" class="edge"><title>Node4&#45;&gt;Node1</title>
<path fill="none" stroke="#404040" d="M209.529,-616.298C202.386,-484.912 195.632,-235.8 241,-162 264.95,-123.041 309.217,-97.3185 348.213,-81.2018"/>
<polygon fill="none" stroke="#404040" points="348.423,-81.1187 352.532,-75.1927 359.583,-76.7063 355.474,-82.6323 348.423,-81.1187"/>
<text text-anchor="middle" x="213.5" y="-362.5" font-family="Helvetica,sans-Serif" font-size="10.00"> &#45;tf</text>
</g>
<!-- Node5 -->
<g id="node5" class="node"><title>Node5</title>
<g id="a_node5"><a xlink:href="classyarp_1_1os_1_1idl_1_1_wire_portable.html" target="_top" xlink:title="{WirePortable\n||}">
<polygon fill="none" stroke="black" points="330.5,-848.5 330.5,-905.5 403.5,-905.5 403.5,-848.5 330.5,-848.5"/>
<text text-anchor="middle" x="367" y="-893.5" font-family="Helvetica,sans-Serif" font-size="10.00">WirePortable</text>
<polyline fill="none" stroke="black" points="330.5,-886.5 403.5,-886.5 "/>
<text text-anchor="middle" x="367" y="-874.5" font-family="Helvetica,sans-Serif" font-size="10.00"> </text>
<polyline fill="none" stroke="black" points="330.5,-867.5 403.5,-867.5 "/>
<text text-anchor="middle" x="367" y="-855.5" font-family="Helvetica,sans-Serif" font-size="10.00"> </text>
</a>
</g>
</g>
<!-- Node5&#45;&gt;Node4 -->
<g id="edge4" class="edge"><title>Node5&#45;&gt;Node4</title>
<path fill="none" stroke="midnightblue" d="M321.661,-852.316C309.883,-844.097 297.819,-834.332 288,-824 276.42,-811.815 265.397,-797.813 255.556,-783.721"/>
<polygon fill="none" stroke="midnightblue" points="319.897,-855.347 330.15,-858.013 323.797,-849.534 319.897,-855.347"/>
</g>
<!-- Node5&#45;&gt;Node4 -->
<g id="edge5" class="edge"><title>Node5&#45;&gt;Node4</title>
<path fill="none" stroke="midnightblue" d="M325.464,-841.86C318.66,-836.256 311.922,-830.231 306,-824 294.42,-811.815 283.397,-797.813 273.255,-783.721"/>
<polygon fill="none" stroke="midnightblue" points="323.439,-844.722 333.435,-848.233 327.81,-839.255 323.439,-844.722"/>
</g>
<!-- Node10 -->
<g id="node10" class="node"><title>Node10</title>
<g id="a_node10"><a xlink:href="classsensor__msgs___joint_state.html" target="_top" xlink:title="{sensor_msgs_JointState\n||+ sensor_msgs_JointState()\l+ readBare()\l+ readBottle()\l+ read()\l+ writeBare()\l+ writeBottle()\l+ write()\l+ getTypeText()\l+ getType()\l+ sensor_msgs_JointState()\land 8 more...\l}">
<polygon fill="none" stroke="black" points="250,-162.5 250,-329.5 390,-329.5 390,-162.5 250,-162.5"/>
<text text-anchor="middle" x="320" y="-317.5" font-family="Helvetica,sans-Serif" font-size="10.00">sensor_msgs_JointState</text>
<polyline fill="none" stroke="black" points="250,-310.5 390,-310.5 "/>
<text text-anchor="middle" x="320" y="-298.5" font-family="Helvetica,sans-Serif" font-size="10.00"> </text>
<polyline fill="none" stroke="black" points="250,-291.5 390,-291.5 "/>
<text text-anchor="start" x="258" y="-279.5" font-family="Helvetica,sans-Serif" font-size="10.00">+ sensor_msgs_JointState()</text>
<text text-anchor="start" x="258" y="-268.5" font-family="Helvetica,sans-Serif" font-size="10.00">+ readBare()</text>
<text text-anchor="start" x="258" y="-257.5" font-family="Helvetica,sans-Serif" font-size="10.00">+ readBottle()</text>
<text text-anchor="start" x="258" y="-246.5" font-family="Helvetica,sans-Serif" font-size="10.00">+ read()</text>
<text text-anchor="start" x="258" y="-235.5" font-family="Helvetica,sans-Serif" font-size="10.00">+ writeBare()</text>
<text text-anchor="start" x="258" y="-224.5" font-family="Helvetica,sans-Serif" font-size="10.00">+ writeBottle()</text>
<text text-anchor="start" x="258" y="-213.5" font-family="Helvetica,sans-Serif" font-size="10.00">+ write()</text>
<text text-anchor="start" x="258" y="-202.5" font-family="Helvetica,sans-Serif" font-size="10.00">+ getTypeText()</text>
<text text-anchor="start" x="258" y="-191.5" font-family="Helvetica,sans-Serif" font-size="10.00">+ getType()</text>
<text text-anchor="start" x="258" y="-180.5" font-family="Helvetica,sans-Serif" font-size="10.00">+ sensor_msgs_JointState()</text>
<text text-anchor="start" x="258" y="-169.5" font-family="Helvetica,sans-Serif" font-size="10.00">and 8 more...</text>
</a>
</g>
</g>
<!-- Node5&#45;&gt;Node10 -->
<g id="edge11" class="edge"><title>Node5&#45;&gt;Node10</title>
<path fill="none" stroke="midnightblue" d="M354.007,-838.32C340.057,-780.456 320.436,-666.108 313,-568 306.871,-487.144 307.063,-394.506 310.023,-329.597"/>
<polygon fill="none" stroke="midnightblue" points="350.635,-839.263 356.454,-848.117 357.426,-837.566 350.635,-839.263"/>
</g>
<!-- Node5&#45;&gt;Node10 -->
<g id="edge12" class="edge"><title>Node5&#45;&gt;Node10</title>
<path fill="none" stroke="midnightblue" d="M365.485,-837.96C357.976,-779.983 338.421,-665.905 331,-568 324.871,-487.144 325.063,-394.506 324.718,-329.597"/>
<polygon fill="none" stroke="midnightblue" points="362.04,-838.622 366.741,-848.117 368.987,-837.763 362.04,-838.622"/>
</g>
<!-- Node12 -->
<g id="node12" class="node"><title>Node12</title>
<g id="a_node12"><a xlink:href="classstd__msgs___header.html" target="_top" xlink:title="{std_msgs_Header\n||+ std_msgs_Header()\l+ readBare()\l+ readBottle()\l+ read()\l+ writeBare()\l+ writeBottle()\l+ write()\l+ getTypeText()\l+ getType()\l+ std_msgs_Header()\land 8 more...\l}">
<polygon fill="none" stroke="black" points="623.5,-400.5 623.5,-567.5 734.5,-567.5 734.5,-400.5 623.5,-400.5"/>
<text text-anchor="middle" x="679" y="-555.5" font-family="Helvetica,sans-Serif" font-size="10.00">std_msgs_Header</text>
<polyline fill="none" stroke="black" points="623.5,-548.5 734.5,-548.5 "/>
<text text-anchor="middle" x="679" y="-536.5" font-family="Helvetica,sans-Serif" font-size="10.00"> </text>
<polyline fill="none" stroke="black" points="623.5,-529.5 734.5,-529.5 "/>
<text text-anchor="start" x="631.5" y="-517.5" font-family="Helvetica,sans-Serif" font-size="10.00">+ std_msgs_Header()</text>
<text text-anchor="start" x="631.5" y="-506.5" font-family="Helvetica,sans-Serif" font-size="10.00">+ readBare()</text>
<text text-anchor="start" x="631.5" y="-495.5" font-family="Helvetica,sans-Serif" font-size="10.00">+ readBottle()</text>
<text text-anchor="start" x="631.5" y="-484.5" font-family="Helvetica,sans-Serif" font-size="10.00">+ read()</text>
<text text-anchor="start" x="631.5" y="-473.5" font-family="Helvetica,sans-Serif" font-size="10.00">+ writeBare()</text>
<text text-anchor="start" x="631.5" y="-462.5" font-family="Helvetica,sans-Serif" font-size="10.00">+ writeBottle()</text>
<text text-anchor="start" x="631.5" y="-451.5" font-family="Helvetica,sans-Serif" font-size="10.00">+ write()</text>
<text text-anchor="start" x="631.5" y="-440.5" font-family="Helvetica,sans-Serif" font-size="10.00">+ getTypeText()</text>
<text text-anchor="start" x="631.5" y="-429.5" font-family="Helvetica,sans-Serif" font-size="10.00">+ getType()</text>
<text text-anchor="start" x="631.5" y="-418.5" font-family="Helvetica,sans-Serif" font-size="10.00">+ std_msgs_Header()</text>
<text text-anchor="start" x="631.5" y="-407.5" font-family="Helvetica,sans-Serif" font-size="10.00">and 8 more...</text>
</a>
</g>
</g>
<!-- Node5&#45;&gt;Node12 -->
<g id="edge15" class="edge"><title>Node5&#45;&gt;Node12</title>
<path fill="none" stroke="midnightblue" d="M369.709,-838.227C380.861,-782.754 414.697,-679.024 479,-616 502.591,-592.878 516.064,-597.581 547,-586 572.277,-576.537 582.78,-583.322 605,-568 611.479,-563.532 617.616,-558.224 623.384,-552.483"/>
<polygon fill="none" stroke="midnightblue" points="366.218,-837.857 367.834,-848.328 373.101,-839.135 366.218,-837.857"/>
</g>
<!-- Node5&#45;&gt;Node12 -->
<g id="edge16" class="edge"><title>Node5&#45;&gt;Node12</title>
<path fill="none" stroke="midnightblue" d="M381.255,-838.573C398.721,-783.186 432.564,-679.155 497,-616 520.591,-592.878 534.064,-597.581 565,-586 590.277,-576.537 600.78,-583.322 623,-568 623.151,-567.896 623.301,-567.792 623.451,-567.687"/>
<polygon fill="none" stroke="midnightblue" points="377.848,-837.738 378.18,-848.328 384.524,-839.842 377.848,-837.738"/>
</g>
<!-- Node13 -->
<g id="node13" class="node"><title>Node13</title>
<g id="a_node13"><a xlink:href="class_tick_time.html" target="_top" xlink:title="{TickTime\n||+ TickTime()\l+ readBare()\l+ readBottle()\l+ read()\l+ writeBare()\l+ writeBottle()\l+ write()\l+ getTypeText()\l+ getType()\l+ TickTime()\land 8 more...\l}">
<polygon fill="none" stroke="black" points="557,-616.5 557,-783.5 643,-783.5 643,-616.5 557,-616.5"/>
<text text-anchor="middle" x="600" y="-771.5" font-family="Helvetica,sans-Serif" font-size="10.00">TickTime</text>
<polyline fill="none" stroke="black" points="557,-764.5 643,-764.5 "/>
<text text-anchor="middle" x="600" y="-752.5" font-family="Helvetica,sans-Serif" font-size="10.00"> </text>
<polyline fill="none" stroke="black" points="557,-745.5 643,-745.5 "/>
<text text-anchor="start" x="565" y="-733.5" font-family="Helvetica,sans-Serif" font-size="10.00">+ TickTime()</text>
<text text-anchor="start" x="565" y="-722.5" font-family="Helvetica,sans-Serif" font-size="10.00">+ readBare()</text>
<text text-anchor="start" x="565" y="-711.5" font-family="Helvetica,sans-Serif" font-size="10.00">+ readBottle()</text>
<text text-anchor="start" x="565" y="-700.5" font-family="Helvetica,sans-Serif" font-size="10.00">+ read()</text>
<text text-anchor="start" x="565" y="-689.5" font-family="Helvetica,sans-Serif" font-size="10.00">+ writeBare()</text>
<text text-anchor="start" x="565" y="-678.5" font-family="Helvetica,sans-Serif" font-size="10.00">+ writeBottle()</text>
<text text-anchor="start" x="565" y="-667.5" font-family="Helvetica,sans-Serif" font-size="10.00">+ write()</text>
<text text-anchor="start" x="565" y="-656.5" font-family="Helvetica,sans-Serif" font-size="10.00">+ getTypeText()</text>
<text text-anchor="start" x="565" y="-645.5" font-family="Helvetica,sans-Serif" font-size="10.00">+ getType()</text>
<text text-anchor="start" x="565" y="-634.5" font-family="Helvetica,sans-Serif" font-size="10.00">+ TickTime()</text>
<text text-anchor="start" x="565" y="-623.5" font-family="Helvetica,sans-Serif" font-size="10.00">and 8 more...</text>
</a>
</g>
</g>
<!-- Node5&#45;&gt;Node13 -->
<g id="edge18" class="edge"><title>Node5&#45;&gt;Node13</title>
<path fill="none" stroke="midnightblue" d="M413.021,-857.397C449.892,-842.092 501.16,-817.47 538,-784 544.833,-777.792 551.142,-770.51 556.928,-762.883"/>
<polygon fill="none" stroke="midnightblue" points="411.442,-854.261 403.502,-861.276 414.083,-860.743 411.442,-854.261"/>
</g>
<!-- Node5&#45;&gt;Node13 -->
<g id="edge19" class="edge"><title>Node5&#45;&gt;Node13</title>
<path fill="none" stroke="midnightblue" d="M413.098,-862.864C454.397,-848.31 514.397,-821.797 556,-784 556.253,-783.77 556.505,-783.539 556.757,-783.306"/>
<polygon fill="none" stroke="midnightblue" points="411.873,-859.584 403.545,-866.133 414.14,-866.207 411.873,-859.584"/>
</g>
<!-- Node6 -->
<g id="node6" class="node"><title>Node6</title>
<polygon fill="none" stroke="#bfbfbf" points="133,-843 133,-911 255,-911 255,-843 133,-843"/>
<text text-anchor="start" x="141" y="-899" font-family="Helvetica,sans-Serif" font-size="10.00">vector&lt; geometry_msgs</text>
<text text-anchor="middle" x="194" y="-888" font-family="Helvetica,sans-Serif" font-size="10.00">_TransformStamped &gt;</text>
<polyline fill="none" stroke="#bfbfbf" points="133,-881 255,-881 "/>
<text text-anchor="middle" x="194" y="-869" font-family="Helvetica,sans-Serif" font-size="10.00"> </text>
<polyline fill="none" stroke="#bfbfbf" points="133,-862 255,-862 "/>
<text text-anchor="middle" x="194" y="-850" font-family="Helvetica,sans-Serif" font-size="10.00"> </text>
</g>
<!-- Node6&#45;&gt;Node4 -->
<g id="edge6" class="edge"><title>Node6&#45;&gt;Node4</title>
<path fill="none" stroke="#404040" d="M193.165,-842.771C193.18,-829.994 193.606,-815.289 195,-802 195.215,-799.953 195.451,-797.885 195.705,-795.804"/>
<polygon fill="none" stroke="#404040" points="195.725,-795.657 192.576,-789.169 197.353,-783.768 200.502,-790.255 195.725,-795.657"/>
<text text-anchor="middle" x="223" y="-810.5" font-family="Helvetica,sans-Serif" font-size="10.00"> +transforms</text>
</g>
<!-- Node7 -->
<g id="node7" class="node"><title>Node7</title>
<polygon fill="none" stroke="#bfbfbf" points="408.5,-212 408.5,-280 515.5,-280 515.5,-212 408.5,-212"/>
<text text-anchor="start" x="416.5" y="-268" font-family="Helvetica,sans-Serif" font-size="10.00">Publisher&lt; tf2_msgs</text>
<text text-anchor="middle" x="462" y="-257" font-family="Helvetica,sans-Serif" font-size="10.00">_TFMessage &gt;</text>
<polyline fill="none" stroke="#bfbfbf" points="408.5,-250 515.5,-250 "/>
<text text-anchor="middle" x="462" y="-238" font-family="Helvetica,sans-Serif" font-size="10.00"> </text>
<polyline fill="none" stroke="#bfbfbf" points="408.5,-231 515.5,-231 "/>
<text text-anchor="middle" x="462" y="-219" font-family="Helvetica,sans-Serif" font-size="10.00"> </text>
</g>
<!-- Node7&#45;&gt;Node1 -->
<g id="edge7" class="edge"><title>Node7&#45;&gt;Node1</title>
<path fill="none" stroke="#404040" d="M455.294,-211.999C450.406,-187.946 443.616,-154.533 437.61,-124.976"/>
<polygon fill="none" stroke="#404040" points="437.569,-124.773 432.454,-119.689 435.179,-113.013 440.294,-118.096 437.569,-124.773"/>
<text text-anchor="middle" x="469.5" y="-135.5" font-family="Helvetica,sans-Serif" font-size="10.00"> &#45;publisher_tf</text>
</g>
<!-- Node8 -->
<g id="node8" class="node"><title>Node8</title>
<polygon fill="none" stroke="#bfbfbf" points="533.5,-212 533.5,-280 658.5,-280 658.5,-212 533.5,-212"/>
<text text-anchor="start" x="541.5" y="-268" font-family="Helvetica,sans-Serif" font-size="10.00">Publisher&lt; sensor_msgs</text>
<text text-anchor="middle" x="596" y="-257" font-family="Helvetica,sans-Serif" font-size="10.00">_JointState &gt;</text>
<polyline fill="none" stroke="#bfbfbf" points="533.5,-250 658.5,-250 "/>
<text text-anchor="middle" x="596" y="-238" font-family="Helvetica,sans-Serif" font-size="10.00"> </text>
<polyline fill="none" stroke="#bfbfbf" points="533.5,-231 658.5,-231 "/>
<text text-anchor="middle" x="596" y="-219" font-family="Helvetica,sans-Serif" font-size="10.00"> </text>
</g>
<!-- Node8&#45;&gt;Node1 -->
<g id="edge8" class="edge"><title>Node8&#45;&gt;Node1</title>
<path fill="none" stroke="#404040" d="M570.24,-211.986C551.879,-188.976 526.25,-157.886 502,-132 498.79,-128.573 495.457,-125.105 492.057,-121.637"/>
<polygon fill="none" stroke="#404040" points="491.965,-121.545 484.897,-120.115 483.499,-113.041 490.567,-114.471 491.965,-121.545"/>
<text text-anchor="middle" x="536" y="-135.5" font-family="Helvetica,sans-Serif" font-size="10.00"> &#45;publisher</text>
</g>
<!-- Node9 -->
<g id="node9" class="node"><title>Node9</title>
<g id="a_node9"><a xlink:href="classyarp_1_1os_1_1_buffered_port.html" target="_top" xlink:title="{yarp::os::BufferedPort\l\&lt; HumanState \&gt;\n||}">
<polygon fill="none" stroke="black" points="676.5,-212 676.5,-280 789.5,-280 789.5,-212 676.5,-212"/>
<text text-anchor="start" x="684.5" y="-268" font-family="Helvetica,sans-Serif" font-size="10.00">yarp::os::BufferedPort</text>
<text text-anchor="middle" x="733" y="-257" font-family="Helvetica,sans-Serif" font-size="10.00">&lt; HumanState &gt;</text>
<polyline fill="none" stroke="black" points="676.5,-250 789.5,-250 "/>
<text text-anchor="middle" x="733" y="-238" font-family="Helvetica,sans-Serif" font-size="10.00"> </text>
<polyline fill="none" stroke="black" points="676.5,-231 789.5,-231 "/>
<text text-anchor="middle" x="733" y="-219" font-family="Helvetica,sans-Serif" font-size="10.00"> </text>
</a>
</g>
</g>
<!-- Node9&#45;&gt;Node1 -->
<g id="edge9" class="edge"><title>Node9&#45;&gt;Node1</title>
<path fill="none" stroke="#404040" d="M712.359,-211.782C700.684,-195.112 684.857,-175.623 667,-162 616.821,-123.719 550.42,-96.5526 499.711,-79.6074"/>
<polygon fill="none" stroke="#404040" points="499.569,-79.5609 492.623,-81.4992 488.162,-75.8333 495.108,-73.8949 499.569,-79.5609"/>
<text text-anchor="middle" x="687" y="-135.5" font-family="Helvetica,sans-Serif" font-size="10.00"> &#45;humanStateDataPort</text>
</g>
<!-- Node10&#45;&gt;Node1 -->
<g id="edge10" class="edge"><title>Node10&#45;&gt;Node1</title>
<path fill="none" stroke="#404040" d="M365.919,-162.435C373.115,-149.494 380.47,-136.271 387.42,-123.774"/>
<polygon fill="none" stroke="#404040" points="387.577,-123.491 386.997,-116.304 393.409,-113.004 393.989,-120.192 387.577,-123.491"/>
<text text-anchor="middle" x="408" y="-135.5" font-family="Helvetica,sans-Serif" font-size="10.00"> &#45;joint_state</text>
</g>
<!-- Node11 -->
<g id="node11" class="node"><title>Node11</title>
<polygon fill="none" stroke="#bfbfbf" points="331.5,-455.5 331.5,-512.5 436.5,-512.5 436.5,-455.5 331.5,-455.5"/>
<text text-anchor="middle" x="384" y="-500.5" font-family="Helvetica,sans-Serif" font-size="10.00">vector&lt; std::string &gt;</text>
<polyline fill="none" stroke="#bfbfbf" points="331.5,-493.5 436.5,-493.5 "/>
<text text-anchor="middle" x="384" y="-481.5" font-family="Helvetica,sans-Serif" font-size="10.00"> </text>
<polyline fill="none" stroke="#bfbfbf" points="331.5,-474.5 436.5,-474.5 "/>
<text text-anchor="middle" x="384" y="-462.5" font-family="Helvetica,sans-Serif" font-size="10.00"> </text>
</g>
<!-- Node11&#45;&gt;Node10 -->
<g id="edge13" class="edge"><title>Node11&#45;&gt;Node10</title>
<path fill="none" stroke="#404040" d="M376.533,-455.466C368.939,-427.463 356.738,-382.472 345.611,-341.442"/>
<polygon fill="none" stroke="#404040" points="345.571,-341.292 340.14,-336.548 342.43,-329.71 347.861,-334.454 345.571,-341.292"/>
<text text-anchor="middle" x="373" y="-362.5" font-family="Helvetica,sans-Serif" font-size="10.00"> +name</text>
</g>
<!-- Node12&#45;&gt;Node10 -->
<g id="edge14" class="edge"><title>Node12&#45;&gt;Node10</title>
<path fill="none" stroke="#404040" d="M623.448,-407.768C620.381,-405.014 617.228,-402.407 614,-400 563.456,-362.301 542.342,-366.297 482,-348 449.123,-338.031 434.598,-346.612 400.685,-330.111"/>
<polygon fill="none" stroke="#404040" points="400.635,-330.084 393.459,-330.799 390.04,-324.45 397.215,-323.735 400.635,-330.084"/>
<text text-anchor="middle" x="606.5" y="-362.5" font-family="Helvetica,sans-Serif" font-size="10.00"> +header</text>
</g>
<!-- Node13&#45;&gt;Node12 -->
<g id="edge17" class="edge"><title>Node13&#45;&gt;Node12</title>
<path fill="none" stroke="#404040" d="M618.212,-616.259C621.147,-605.963 624.415,-595.664 628,-586 628.881,-583.626 629.802,-581.235 630.758,-578.835"/>
<polygon fill="none" stroke="#404040" points="630.839,-578.639 629.456,-571.562 635.457,-567.563 636.84,-574.64 630.839,-578.639"/>
<text text-anchor="middle" x="646.5" y="-589.5" font-family="Helvetica,sans-Serif" font-size="10.00"> +stamp</text>
</g>
<!-- Node14 -->
<g id="node14" class="node"><title>Node14</title>
<polygon fill="none" stroke="#bfbfbf" points="617.5,-848.5 617.5,-905.5 678.5,-905.5 678.5,-848.5 617.5,-848.5"/>
<text text-anchor="middle" x="648" y="-893.5" font-family="Helvetica,sans-Serif" font-size="10.00">NetUint32</text>
<polyline fill="none" stroke="#bfbfbf" points="617.5,-886.5 678.5,-886.5 "/>
<text text-anchor="middle" x="648" y="-874.5" font-family="Helvetica,sans-Serif" font-size="10.00"> </text>
<polyline fill="none" stroke="#bfbfbf" points="617.5,-867.5 678.5,-867.5 "/>
<text text-anchor="middle" x="648" y="-855.5" font-family="Helvetica,sans-Serif" font-size="10.00"> </text>
</g>
<!-- Node14&#45;&gt;Node12 -->
<g id="edge21" class="edge"><title>Node14&#45;&gt;Node12</title>
<path fill="none" stroke="#404040" d="M658.613,-848.297C661.154,-840.544 663.549,-832.038 665,-824 679.735,-742.384 682.497,-648.001 681.999,-579.582"/>
<polygon fill="none" stroke="#404040" points="681.998,-579.547 677.937,-573.588 681.875,-567.547 685.937,-573.506 681.998,-579.547"/>
<text text-anchor="middle" x="694.5" y="-697.5" font-family="Helvetica,sans-Serif" font-size="10.00"> +seq</text>
</g>
<!-- Node14&#45;&gt;Node13 -->
<g id="edge20" class="edge"><title>Node14&#45;&gt;Node13</title>
<path fill="none" stroke="#404040" d="M640.394,-848.271C636.391,-833.676 631.223,-814.832 625.928,-795.529"/>
<polygon fill="none" stroke="#404040" points="625.889,-795.386 620.444,-790.658 622.715,-783.814 628.159,-788.542 625.889,-795.386"/>
<text text-anchor="middle" x="647" y="-816" font-family="Helvetica,sans-Serif" font-size="10.00"> +sec</text>
<text text-anchor="middle" x="647" y="-805" font-family="Helvetica,sans-Serif" font-size="10.00">+nsec</text>
</g>
<!-- Node15 -->
<g id="node15" class="node"><title>Node15</title>
<polygon fill="none" stroke="#bfbfbf" points="497.5,-671.5 497.5,-728.5 538.5,-728.5 538.5,-671.5 497.5,-671.5"/>
<text text-anchor="middle" x="518" y="-716.5" font-family="Helvetica,sans-Serif" font-size="10.00">string</text>
<polyline fill="none" stroke="#bfbfbf" points="497.5,-709.5 538.5,-709.5 "/>
<text text-anchor="middle" x="518" y="-697.5" font-family="Helvetica,sans-Serif" font-size="10.00"> </text>
<polyline fill="none" stroke="#bfbfbf" points="497.5,-690.5 538.5,-690.5 "/>
<text text-anchor="middle" x="518" y="-678.5" font-family="Helvetica,sans-Serif" font-size="10.00"> </text>
</g>
<!-- Node15&#45;&gt;Node12 -->
<g id="edge22" class="edge"><title>Node15&#45;&gt;Node12</title>
<path fill="none" stroke="#404040" d="M525.329,-671.412C530.391,-654.737 538.013,-633.411 548,-616 556.636,-600.945 559.129,-596.433 573,-586 588.904,-574.038 598.279,-580.203 614,-568 614.099,-567.923 614.199,-567.846 614.298,-567.768"/>
<polygon fill="none" stroke="#404040" points="614.193,-567.857 616.169,-560.922 623.33,-560.078 621.355,-567.013 614.193,-567.857"/>
<text text-anchor="middle" x="596.5" y="-589.5" font-family="Helvetica,sans-Serif" font-size="10.00"> +frame_id</text>
</g>
<!-- Node16 -->
<g id="node16" class="node"><title>Node16</title>
<polygon fill="none" stroke="#bfbfbf" points="454.5,-455.5 454.5,-512.5 605.5,-512.5 605.5,-455.5 454.5,-455.5"/>
<text text-anchor="middle" x="530" y="-500.5" font-family="Helvetica,sans-Serif" font-size="10.00">vector&lt; yarp::os::NetFloat64 &gt;</text>
<polyline fill="none" stroke="#bfbfbf" points="454.5,-493.5 605.5,-493.5 "/>
<text text-anchor="middle" x="530" y="-481.5" font-family="Helvetica,sans-Serif" font-size="10.00"> </text>
<polyline fill="none" stroke="#bfbfbf" points="454.5,-474.5 605.5,-474.5 "/>
<text text-anchor="middle" x="530" y="-462.5" font-family="Helvetica,sans-Serif" font-size="10.00"> </text>
</g>
<!-- Node16&#45;&gt;Node10 -->
<g id="edge23" class="edge"><title>Node16&#45;&gt;Node10</title>
<path fill="none" stroke="#404040" d="M505.499,-455.466C479.237,-425.952 436.183,-377.567 398.161,-334.838"/>
<polygon fill="none" stroke="#404040" points="398.109,-334.78 391.133,-332.957 390.132,-325.815 397.109,-327.639 398.109,-334.78"/>
<text text-anchor="middle" x="458" y="-373.5" font-family="Helvetica,sans-Serif" font-size="10.00"> +effort</text>
<text text-anchor="middle" x="458" y="-362.5" font-family="Helvetica,sans-Serif" font-size="10.00">+velocity</text>
<text text-anchor="middle" x="458" y="-351.5" font-family="Helvetica,sans-Serif" font-size="10.00">+position</text>
</g>
<!-- Node17 -->
<g id="node17" class="node"><title>Node17</title>
<polygon fill="none" stroke="#bfbfbf" points="821.5,-217.5 821.5,-274.5 856.5,-274.5 856.5,-217.5 821.5,-217.5"/>
<text text-anchor="middle" x="839" y="-262.5" font-family="Helvetica,sans-Serif" font-size="10.00">Port</text>
<polyline fill="none" stroke="#bfbfbf" points="821.5,-255.5 856.5,-255.5 "/>
<text text-anchor="middle" x="839" y="-243.5" font-family="Helvetica,sans-Serif" font-size="10.00"> </text>
<polyline fill="none" stroke="#bfbfbf" points="821.5,-236.5 856.5,-236.5 "/>
<text text-anchor="middle" x="839" y="-224.5" font-family="Helvetica,sans-Serif" font-size="10.00"> </text>
</g>
<!-- Node17&#45;&gt;Node1 -->
<g id="edge24" class="edge"><title>Node17&#45;&gt;Node1</title>
<path fill="none" stroke="#404040" d="M830.367,-217.278C823.77,-199.718 813.199,-177.484 798,-162 777.669,-141.289 767.226,-142.052 740,-132 660.424,-102.619 565.158,-82.2033 500.176,-70.3687"/>
<polygon fill="none" stroke="#404040" points="499.814,-70.3038 493.202,-73.1829 488.002,-68.1874 494.613,-65.3083 499.814,-70.3038"/>
<text text-anchor="middle" x="800" y="-135.5" font-family="Helvetica,sans-Serif" font-size="10.00"> &#45;client_port</text>
</g>
</g>
</svg>
        <g id="navigator" transform="translate(0 0)" fill="#404254">
                <rect fill="#f2f5e9" fill-opacity="0.5" stroke="#606060" stroke-width=".5" x="0" y="0" width="60" height="60"/>
                <use id="zoomplus" xlink:href="#zoomPlus" x="17" y="9" onmousedown="handleZoom(evt,'in')"/>
                <use id="zoomminus" xlink:href="#zoomMin" x="42" y="9" onmousedown="handleZoom(evt,'out')"/>
                <use id="reset" xlink:href="#resetDef" x="30" y="36" onmousedown="handleReset()"/>
                <g id="arrowUp" xlink:href="#dirArrow" transform="translate(30 24)" onmousedown="handlePan(0,-1)">
                  <use xlink:href="#rim" fill="#404040">
                        <set attributeName="fill" to="#808080" begin="arrowUp.mouseover" end="arrowUp.mouseout"/>
                  </use>
                  <path fill="none" stroke="white" stroke-width="1.5" d="M0,-3.0v7 M-2.5,-0.5L0,-3.0L2.5,-0.5"/>
                </g>
                <g id="arrowRight" xlink:href="#dirArrow" transform="rotate(90) translate(36 -43)" onmousedown="handlePan(1,0)">
                  <use xlink:href="#rim" fill="#404040">
                        <set attributeName="fill" to="#808080" begin="arrowRight.mouseover" end="arrowRight.mouseout"/>
                  </use>
                  <path fill="none" stroke="white" stroke-width="1.5" d="M0,-3.0v7 M-2.5,-0.5L0,-3.0L2.5,-0.5"/>
                </g>
                <g id="arrowDown" xlink:href="#dirArrow" transform="rotate(180) translate(-30 -48)" onmousedown="handlePan(0,1)">
                  <use xlink:href="#rim" fill="#404040">
                        <set attributeName="fill" to="#808080" begin="arrowDown.mouseover" end="arrowDown.mouseout"/>
                  </use>
                  <path fill="none" stroke="white" stroke-width="1.5" d="M0,-3.0v7 M-2.5,-0.5L0,-3.0L2.5,-0.5"/>
                </g>
                <g id="arrowLeft" xlink:href="#dirArrow" transform="rotate(270) translate(-36 17)" onmousedown="handlePan(-1,0)">
                  <use xlink:href="#rim" fill="#404040">
                        <set attributeName="fill" to="#808080" begin="arrowLeft.mouseover" end="arrowLeft.mouseout"/>
                  </use>
                  <path fill="none" stroke="white" stroke-width="1.5" d="M0,-3.0v7 M-2.5,-0.5L0,-3.0L2.5,-0.5"/>
                </g>
        </g>
        <svg viewBox="0 0 15 15" width="100%" height="30px" preserveAspectRatio="xMaxYMin meet">
         <g id="arrow_out" transform="scale(0.3 0.3)">
          <a xlink:href="classxsens_joint_state_publisher_module__coll__graph_org.svg" target="_base">
           <rect id="button" ry="5" rx="5" y="6" x="6" height="38" width="38"
                fill="#f2f5e9" fill-opacity="0.5" stroke="#606060" stroke-width="1.0"/>
           <path id="arrow"
             d="M 11.500037,31.436501 C 11.940474,20.09759 22.043105,11.32322 32.158766,21.979434 L 37.068811,17.246167 C 37.068811,17.246167 37.088388,32 37.088388,32 L 22.160133,31.978069 C 22.160133,31.978069 26.997745,27.140456 26.997745,27.140456 C 18.528582,18.264221 13.291696,25.230495 11.500037,31.436501 z"
             style="fill:#404040;"/>
          </a>
         </g>
        </svg>
</svg>
