<?xml version="1.0" encoding="UTF-8" standalone="no"?>
<!DOCTYPE svg PUBLIC "-//W3C//DTD SVG 1.1//EN"
 "http://www.w3.org/Graphics/SVG/1.1/DTD/svg11.dtd">
<!-- Generated by graphviz version 2.36.0 (20140111.2315)
 -->
<!-- Title: human::HumanState Pages: 1 -->
<!--zoomable 1146 -->
<svg id="main" version="1.1" xmlns="http://www.w3.org/2000/svg" xmlns:xlink="http://www.w3.org/1999/xlink" xml:space="preserve" onload="init(evt)">
<style type="text/css"><![CDATA[
.edge:hover path { stroke: red; }
.edge:hover polygon { stroke: red; fill: red; }
]]></style>
<script type="text/javascript"><![CDATA[
var edges = document.getElementsByTagName('g');
if (edges && edges.length) {
  for (var i=0;i<edges.length;i++) {
    if (edges[i].id.substr(0,4)=='edge') {
      edges[i].setAttribute('class','edge');
    }
  }
}
]]></script>
        <defs>
                <circle id="rim" cx="0" cy="0" r="7"/>
                <circle id="rim2" cx="0" cy="0" r="3.5"/>
                <g id="zoomPlus">
                        <use xlink:href="#rim" fill="#404040">
                                <set attributeName="fill" to="#808080" begin="zoomplus.mouseover" end="zoomplus.mouseout"/>
                        </use>
                        <path d="M-4,0h8M0,-4v8" fill="none" stroke="white" stroke-width="1.5" pointer-events="none"/>
                </g>
                <g id="zoomMin">
                        <use xlink:href="#rim" fill="#404040">
                                <set attributeName="fill" to="#808080" begin="zoomminus.mouseover" end="zoomminus.mouseout"/>
                        </use>
                        <path d="M-4,0h8" fill="none" stroke="white" stroke-width="1.5" pointer-events="none"/>
                </g>
                <g id="dirArrow">
                        <path fill="none" stroke="white" stroke-width="1.5" d="M0,-3.0v7 M-2.5,-0.5L0,-3.0L2.5,-0.5"/>
                </g>
               <g id="resetDef">
                       <use xlink:href="#rim2" fill="#404040">
                               <set attributeName="fill" to="#808080" begin="reset.mouseover" end="reset.mouseout"/>
                       </use>
               </g>
        </defs>

<script type="text/javascript">
var viewWidth = 601;
var viewHeight = 1146;
var sectionId = 'dynsection-1';
</script>
<script xlink:href="svgpan.js"/>
<svg id="graph" class="graph">
<g id="viewport">
<title>human::HumanState</title>
<!-- Node1 -->
<g id="node1" class="node"><title>Node1</title>
<polygon fill="#bfbfbf" stroke="black" points="97.5,-1 97.5,-311 284.5,-311 284.5,-1 97.5,-1"/>
<text text-anchor="middle" x="191" y="-299" font-family="Helvetica,sans-Serif" font-size="10.00">human::HumanState</text>
<polyline fill="none" stroke="black" points="97.5,-292 284.5,-292 "/>
<text text-anchor="middle" x="191" y="-280" font-family="Helvetica,sans-Serif" font-size="10.00"> </text>
<polyline fill="none" stroke="black" points="97.5,-273 284.5,-273 "/>
<text text-anchor="start" x="105.5" y="-261" font-family="Helvetica,sans-Serif" font-size="10.00">+ HumanState()</text>
<text text-anchor="start" x="105.5" y="-250" font-family="Helvetica,sans-Serif" font-size="10.00">+ HumanState()</text>
<text text-anchor="start" x="105.5" y="-239" font-family="Helvetica,sans-Serif" font-size="10.00">+ HumanState()</text>
<text text-anchor="start" x="105.5" y="-228" font-family="Helvetica,sans-Serif" font-size="10.00">+ operator=()</text>
<text text-anchor="start" x="105.5" y="-217" font-family="Helvetica,sans-Serif" font-size="10.00">+ read()</text>
<text text-anchor="start" x="105.5" y="-206" font-family="Helvetica,sans-Serif" font-size="10.00">+ read()</text>
<text text-anchor="start" x="105.5" y="-195" font-family="Helvetica,sans-Serif" font-size="10.00">+ write()</text>
<text text-anchor="start" x="105.5" y="-184" font-family="Helvetica,sans-Serif" font-size="10.00">+ write()</text>
<text text-anchor="start" x="105.5" y="-173" font-family="Helvetica,sans-Serif" font-size="10.00">+ toString()</text>
<text text-anchor="start" x="105.5" y="-162" font-family="Helvetica,sans-Serif" font-size="10.00">+ HumanState()</text>
<text text-anchor="start" x="105.5" y="-151" font-family="Helvetica,sans-Serif" font-size="10.00">and 8 more...</text>
<text text-anchor="start" x="105.5" y="-140" font-family="Helvetica,sans-Serif" font-size="10.00">&#45; write_positions()</text>
<text text-anchor="start" x="105.5" y="-129" font-family="Helvetica,sans-Serif" font-size="10.00">&#45; nested_write_positions()</text>
<text text-anchor="start" x="105.5" y="-118" font-family="Helvetica,sans-Serif" font-size="10.00">&#45; write_velocities()</text>
<text text-anchor="start" x="105.5" y="-107" font-family="Helvetica,sans-Serif" font-size="10.00">&#45; nested_write_velocities()</text>
<text text-anchor="start" x="105.5" y="-96" font-family="Helvetica,sans-Serif" font-size="10.00">&#45; write_baseOriginWRTGlobal()</text>
<text text-anchor="start" x="105.5" y="-85" font-family="Helvetica,sans-Serif" font-size="10.00">&#45; nested_write_baseOriginWRTGlobal()</text>
<text text-anchor="start" x="105.5" y="-74" font-family="Helvetica,sans-Serif" font-size="10.00">&#45; write_baseOrientationWRTGlobal()</text>
<text text-anchor="start" x="105.5" y="-63" font-family="Helvetica,sans-Serif" font-size="10.00">&#45; nested_write_baseOrientation</text>
<text text-anchor="start" x="105.5" y="-52" font-family="Helvetica,sans-Serif" font-size="10.00">WRTGlobal()</text>
<text text-anchor="start" x="105.5" y="-41" font-family="Helvetica,sans-Serif" font-size="10.00">&#45; write_baseVelocityWRTGlobal()</text>
<text text-anchor="start" x="105.5" y="-30" font-family="Helvetica,sans-Serif" font-size="10.00">&#45; nested_write_baseVelocity</text>
<text text-anchor="start" x="105.5" y="-19" font-family="Helvetica,sans-Serif" font-size="10.00">WRTGlobal()</text>
<text text-anchor="start" x="105.5" y="-8" font-family="Helvetica,sans-Serif" font-size="10.00">and 30 more...</text>
</g>
<!-- Node2 -->
<g id="node2" class="node"><title>Node2</title>
<g id="a_node2"><a xlink:href="classyarp_1_1os_1_1idl_1_1_wire_portable.html" target="_top" xlink:title="{yarp::os::idl::WirePortable\n||}">
<polygon fill="none" stroke="black" points="0,-498.5 0,-555.5 130,-555.5 130,-498.5 0,-498.5"/>
<text text-anchor="middle" x="65" y="-543.5" font-family="Helvetica,sans-Serif" font-size="10.00">yarp::os::idl::WirePortable</text>
<polyline fill="none" stroke="black" points="0,-536.5 130,-536.5 "/>
<text text-anchor="middle" x="65" y="-524.5" font-family="Helvetica,sans-Serif" font-size="10.00"> </text>
<polyline fill="none" stroke="black" points="0,-517.5 130,-517.5 "/>
<text text-anchor="middle" x="65" y="-505.5" font-family="Helvetica,sans-Serif" font-size="10.00"> </text>
</a>
</g>
</g>
<!-- Node2&#45;&gt;Node1 -->
<g id="edge1" class="edge"><title>Node2&#45;&gt;Node1</title>
<path fill="none" stroke="midnightblue" d="M77.7042,-488.795C91.9601,-447.045 116.016,-376.596 138.303,-311.326"/>
<polygon fill="none" stroke="midnightblue" points="74.3898,-487.67 74.4705,-498.265 81.0142,-489.933 74.3898,-487.67"/>
</g>
<!-- Node3 -->
<g id="node3" class="node"><title>Node3</title>
<g id="a_node3"><a xlink:href="classyarp_1_1os_1_1idl_1_1_wire_portable.html" target="_top" xlink:title="{WirePortable\n||}">
<polygon fill="none" stroke="black" points="215.5,-1080.5 215.5,-1137.5 288.5,-1137.5 288.5,-1080.5 215.5,-1080.5"/>
<text text-anchor="middle" x="252" y="-1125.5" font-family="Helvetica,sans-Serif" font-size="10.00">WirePortable</text>
<polyline fill="none" stroke="black" points="215.5,-1118.5 288.5,-1118.5 "/>
<text text-anchor="middle" x="252" y="-1106.5" font-family="Helvetica,sans-Serif" font-size="10.00"> </text>
<polyline fill="none" stroke="black" points="215.5,-1099.5 288.5,-1099.5 "/>
<text text-anchor="middle" x="252" y="-1087.5" font-family="Helvetica,sans-Serif" font-size="10.00"> </text>
</a>
</g>
</g>
<!-- Node3&#45;&gt;Node1 -->
<g id="edge2" class="edge"><title>Node3&#45;&gt;Node1</title>
<path fill="none" stroke="midnightblue" d="M243.32,-1070.49C226.436,-995.369 189.715,-820.921 177,-672 166.035,-543.578 172.996,-510.827 177,-382 177.711,-359.115 178.829,-334.94 180.129,-311.26"/>
<polygon fill="none" stroke="midnightblue" points="239.946,-1071.43 245.566,-1080.41 246.773,-1069.89 239.946,-1071.43"/>
</g>
<!-- Node4 -->
<g id="node4" class="node"><title>Node4</title>
<g id="a_node4"><a xlink:href="classhuman_1_1_vector3.html" target="_top" xlink:title="{human::Vector3\n||+ Vector3()\l+ Vector3()\l+ Vector3()\l+ operator=()\l+ read()\l+ read()\l+ write()\l+ write()\l+ toString()\l+ Vector3()\land 8 more...\l&#45; write_x()\l&#45; nested_write_x()\l&#45; write_y()\l&#45; nested_write_y()\l&#45; write_z()\l&#45; nested_write_z()\l&#45; read_x()\l&#45; nested_read_x()\l&#45; read_y()\l&#45; nested_read_y()\land 14 more...\l}">
<polygon fill="none" stroke="black" points="289.5,-721 289.5,-1009 384.5,-1009 384.5,-721 289.5,-721"/>
<text text-anchor="middle" x="337" y="-997" font-family="Helvetica,sans-Serif" font-size="10.00">human::Vector3</text>
<polyline fill="none" stroke="black" points="289.5,-990 384.5,-990 "/>
<text text-anchor="middle" x="337" y="-978" font-family="Helvetica,sans-Serif" font-size="10.00"> </text>
<polyline fill="none" stroke="black" points="289.5,-971 384.5,-971 "/>
<text text-anchor="start" x="297.5" y="-959" font-family="Helvetica,sans-Serif" font-size="10.00">+ Vector3()</text>
<text text-anchor="start" x="297.5" y="-948" font-family="Helvetica,sans-Serif" font-size="10.00">+ Vector3()</text>
<text text-anchor="start" x="297.5" y="-937" font-family="Helvetica,sans-Serif" font-size="10.00">+ Vector3()</text>
<text text-anchor="start" x="297.5" y="-926" font-family="Helvetica,sans-Serif" font-size="10.00">+ operator=()</text>
<text text-anchor="start" x="297.5" y="-915" font-family="Helvetica,sans-Serif" font-size="10.00">+ read()</text>
<text text-anchor="start" x="297.5" y="-904" font-family="Helvetica,sans-Serif" font-size="10.00">+ read()</text>
<text text-anchor="start" x="297.5" y="-893" font-family="Helvetica,sans-Serif" font-size="10.00">+ write()</text>
<text text-anchor="start" x="297.5" y="-882" font-family="Helvetica,sans-Serif" font-size="10.00">+ write()</text>
<text text-anchor="start" x="297.5" y="-871" font-family="Helvetica,sans-Serif" font-size="10.00">+ toString()</text>
<text text-anchor="start" x="297.5" y="-860" font-family="Helvetica,sans-Serif" font-size="10.00">+ Vector3()</text>
<text text-anchor="start" x="297.5" y="-849" font-family="Helvetica,sans-Serif" font-size="10.00">and 8 more...</text>
<text text-anchor="start" x="297.5" y="-838" font-family="Helvetica,sans-Serif" font-size="10.00">&#45; write_x()</text>
<text text-anchor="start" x="297.5" y="-827" font-family="Helvetica,sans-Serif" font-size="10.00">&#45; nested_write_x()</text>
<text text-anchor="start" x="297.5" y="-816" font-family="Helvetica,sans-Serif" font-size="10.00">&#45; write_y()</text>
<text text-anchor="start" x="297.5" y="-805" font-family="Helvetica,sans-Serif" font-size="10.00">&#45; nested_write_y()</text>
<text text-anchor="start" x="297.5" y="-794" font-family="Helvetica,sans-Serif" font-size="10.00">&#45; write_z()</text>
<text text-anchor="start" x="297.5" y="-783" font-family="Helvetica,sans-Serif" font-size="10.00">&#45; nested_write_z()</text>
<text text-anchor="start" x="297.5" y="-772" font-family="Helvetica,sans-Serif" font-size="10.00">&#45; read_x()</text>
<text text-anchor="start" x="297.5" y="-761" font-family="Helvetica,sans-Serif" font-size="10.00">&#45; nested_read_x()</text>
<text text-anchor="start" x="297.5" y="-750" font-family="Helvetica,sans-Serif" font-size="10.00">&#45; read_y()</text>
<text text-anchor="start" x="297.5" y="-739" font-family="Helvetica,sans-Serif" font-size="10.00">&#45; nested_read_y()</text>
<text text-anchor="start" x="297.5" y="-728" font-family="Helvetica,sans-Serif" font-size="10.00">and 14 more...</text>
</a>
</g>
</g>
<!-- Node3&#45;&gt;Node4 -->
<g id="edge4" class="edge"><title>Node3&#45;&gt;Node4</title>
<path fill="none" stroke="midnightblue" d="M262.241,-1070.79C263.553,-1067.84 264.831,-1064.89 266,-1062 274.243,-1041.66 282.104,-1019.78 289.415,-998.272"/>
<polygon fill="none" stroke="midnightblue" points="258.96,-1069.55 258.024,-1080.1 265.337,-1072.44 258.96,-1069.55"/>
</g>
<!-- Node3&#45;&gt;Node4 -->
<g id="edge5" class="edge"><title>Node3&#45;&gt;Node4</title>
<path fill="none" stroke="midnightblue" d="M280.064,-1071.07C281.47,-1068.03 282.793,-1064.98 284,-1062 290.869,-1045.05 297.473,-1027.03 303.57,-1009.05"/>
<polygon fill="none" stroke="midnightblue" points="276.895,-1069.58 275.623,-1080.1 283.177,-1072.67 276.895,-1069.58"/>
</g>
<!-- Node7 -->
<g id="node7" class="node"><title>Node7</title>
<g id="a_node7"><a xlink:href="classhuman_1_1_quaternion.html" target="_top" xlink:title="{human::Quaternion\n||+ Quaternion()\l+ Quaternion()\l+ Quaternion()\l+ operator=()\l+ read()\l+ read()\l+ write()\l+ write()\l+ toString()\l+ Quaternion()\land 8 more...\l&#45; write_w()\l&#45; nested_write_w()\l&#45; write_imaginary()\l&#45; nested_write_imaginary()\l&#45; read_w()\l&#45; nested_read_w()\l&#45; read_imaginary()\l&#45; nested_read_imaginary()\l&#45; write_w()\l&#45; nested_write_w()\land 6 more...\l}">
<polygon fill="none" stroke="black" points="186.5,-383 186.5,-671 317.5,-671 317.5,-383 186.5,-383"/>
<text text-anchor="middle" x="252" y="-659" font-family="Helvetica,sans-Serif" font-size="10.00">human::Quaternion</text>
<polyline fill="none" stroke="black" points="186.5,-652 317.5,-652 "/>
<text text-anchor="middle" x="252" y="-640" font-family="Helvetica,sans-Serif" font-size="10.00"> </text>
<polyline fill="none" stroke="black" points="186.5,-633 317.5,-633 "/>
<text text-anchor="start" x="194.5" y="-621" font-family="Helvetica,sans-Serif" font-size="10.00">+ Quaternion()</text>
<text text-anchor="start" x="194.5" y="-610" font-family="Helvetica,sans-Serif" font-size="10.00">+ Quaternion()</text>
<text text-anchor="start" x="194.5" y="-599" font-family="Helvetica,sans-Serif" font-size="10.00">+ Quaternion()</text>
<text text-anchor="start" x="194.5" y="-588" font-family="Helvetica,sans-Serif" font-size="10.00">+ operator=()</text>
<text text-anchor="start" x="194.5" y="-577" font-family="Helvetica,sans-Serif" font-size="10.00">+ read()</text>
<text text-anchor="start" x="194.5" y="-566" font-family="Helvetica,sans-Serif" font-size="10.00">+ read()</text>
<text text-anchor="start" x="194.5" y="-555" font-family="Helvetica,sans-Serif" font-size="10.00">+ write()</text>
<text text-anchor="start" x="194.5" y="-544" font-family="Helvetica,sans-Serif" font-size="10.00">+ write()</text>
<text text-anchor="start" x="194.5" y="-533" font-family="Helvetica,sans-Serif" font-size="10.00">+ toString()</text>
<text text-anchor="start" x="194.5" y="-522" font-family="Helvetica,sans-Serif" font-size="10.00">+ Quaternion()</text>
<text text-anchor="start" x="194.5" y="-511" font-family="Helvetica,sans-Serif" font-size="10.00">and 8 more...</text>
<text text-anchor="start" x="194.5" y="-500" font-family="Helvetica,sans-Serif" font-size="10.00">&#45; write_w()</text>
<text text-anchor="start" x="194.5" y="-489" font-family="Helvetica,sans-Serif" font-size="10.00">&#45; nested_write_w()</text>
<text text-anchor="start" x="194.5" y="-478" font-family="Helvetica,sans-Serif" font-size="10.00">&#45; write_imaginary()</text>
<text text-anchor="start" x="194.5" y="-467" font-family="Helvetica,sans-Serif" font-size="10.00">&#45; nested_write_imaginary()</text>
<text text-anchor="start" x="194.5" y="-456" font-family="Helvetica,sans-Serif" font-size="10.00">&#45; read_w()</text>
<text text-anchor="start" x="194.5" y="-445" font-family="Helvetica,sans-Serif" font-size="10.00">&#45; nested_read_w()</text>
<text text-anchor="start" x="194.5" y="-434" font-family="Helvetica,sans-Serif" font-size="10.00">&#45; read_imaginary()</text>
<text text-anchor="start" x="194.5" y="-423" font-family="Helvetica,sans-Serif" font-size="10.00">&#45; nested_read_imaginary()</text>
<text text-anchor="start" x="194.5" y="-412" font-family="Helvetica,sans-Serif" font-size="10.00">&#45; write_w()</text>
<text text-anchor="start" x="194.5" y="-401" font-family="Helvetica,sans-Serif" font-size="10.00">&#45; nested_write_w()</text>
<text text-anchor="start" x="194.5" y="-390" font-family="Helvetica,sans-Serif" font-size="10.00">and 6 more...</text>
</a>
</g>
</g>
<!-- Node3&#45;&gt;Node7 -->
<g id="edge9" class="edge"><title>Node3&#45;&gt;Node7</title>
<path fill="none" stroke="midnightblue" d="M248.46,-1070.41C245.227,-991.178 244.436,-803.42 246.088,-671.102"/>
<polygon fill="none" stroke="midnightblue" points="244.963,-1070.58 248.91,-1080.42 251.956,-1070.27 244.963,-1070.58"/>
</g>
<!-- Node3&#45;&gt;Node7 -->
<g id="edge10" class="edge"><title>Node3&#45;&gt;Node7</title>
<path fill="none" stroke="midnightblue" d="M255.54,-1070.41C258.773,-991.178 259.564,-803.42 257.912,-671.102"/>
<polygon fill="none" stroke="midnightblue" points="252.044,-1070.27 255.09,-1080.42 259.037,-1070.58 252.044,-1070.27"/>
</g>
<!-- Node4&#45;&gt;Node1 -->
<g id="edge3" class="edge"><title>Node4&#45;&gt;Node1</title>
<path fill="none" stroke="#404040" d="M384.525,-788.263C445.547,-680.468 534.51,-479.326 454,-330 420.435,-267.746 353.599,-224.224 295.706,-196.404"/>
<polygon fill="none" stroke="#404040" points="295.503,-196.308 288.372,-197.386 284.635,-191.219 291.765,-190.141 295.503,-196.308"/>
<text text-anchor="middle" x="539.5" y="-524.5" font-family="Helvetica,sans-Serif" font-size="10.00"> +baseOriginWRTGlobal</text>
</g>
<!-- Node4&#45;&gt;Node7 -->
<g id="edge12" class="edge"><title>Node4&#45;&gt;Node7</title>
<path fill="none" stroke="#404040" d="M300.706,-720.531C297.577,-708.163 294.402,-695.614 291.252,-683.159"/>
<polygon fill="none" stroke="#404040" points="291.184,-682.89 285.834,-678.054 288.24,-671.257 293.59,-676.092 291.184,-682.89"/>
<text text-anchor="middle" x="321" y="-693.5" font-family="Helvetica,sans-Serif" font-size="10.00"> +imaginary</text>
</g>
<!-- Node5 -->
<g id="node5" class="node"><title>Node5</title>
<polygon fill="none" stroke="#bfbfbf" points="434.5,-1080.5 434.5,-1137.5 479.5,-1137.5 479.5,-1080.5 434.5,-1080.5"/>
<text text-anchor="middle" x="457" y="-1125.5" font-family="Helvetica,sans-Serif" font-size="10.00">double</text>
<polyline fill="none" stroke="#bfbfbf" points="434.5,-1118.5 479.5,-1118.5 "/>
<text text-anchor="middle" x="457" y="-1106.5" font-family="Helvetica,sans-Serif" font-size="10.00"> </text>
<polyline fill="none" stroke="#bfbfbf" points="434.5,-1099.5 479.5,-1099.5 "/>
<text text-anchor="middle" x="457" y="-1087.5" font-family="Helvetica,sans-Serif" font-size="10.00"> </text>
</g>
<!-- Node5&#45;&gt;Node4 -->
<g id="edge6" class="edge"><title>Node5&#45;&gt;Node4</title>
<path fill="none" stroke="#404040" d="M443.234,-1080.24C430.123,-1053.8 409.538,-1012.29 389.966,-972.814"/>
<polygon fill="none" stroke="#404040" points="389.945,-972.773 383.696,-969.175 384.614,-962.022 390.863,-965.621 389.945,-972.773"/>
<text text-anchor="middle" x="442.5" y="-1053.5" font-family="Helvetica,sans-Serif" font-size="10.00"> +x</text>
<text text-anchor="middle" x="442.5" y="-1042.5" font-family="Helvetica,sans-Serif" font-size="10.00">+y</text>
<text text-anchor="middle" x="442.5" y="-1031.5" font-family="Helvetica,sans-Serif" font-size="10.00">+z</text>
</g>
<!-- Node5&#45;&gt;Node7 -->
<g id="edge11" class="edge"><title>Node5&#45;&gt;Node7</title>
<path fill="none" stroke="#404040" d="M459.523,-1080.47C464.304,-1013.08 468.244,-836.792 393,-720 383.08,-704.603 337.965,-685.867 326,-672 325.822,-671.794 325.645,-671.587 325.467,-671.38"/>
<polygon fill="none" stroke="#404040" points="325.225,-671.08 318.343,-668.928 317.683,-661.747 324.565,-663.9 325.225,-671.08"/>
<text text-anchor="middle" x="470.5" y="-862.5" font-family="Helvetica,sans-Serif" font-size="10.00"> +w</text>
</g>
<!-- Node6 -->
<g id="node6" class="node"><title>Node6</title>
<polygon fill="none" stroke="#bfbfbf" points="335.5,-498.5 335.5,-555.5 380.5,-555.5 380.5,-498.5 335.5,-498.5"/>
<text text-anchor="middle" x="358" y="-543.5" font-family="Helvetica,sans-Serif" font-size="10.00">Vector</text>
<polyline fill="none" stroke="#bfbfbf" points="335.5,-536.5 380.5,-536.5 "/>
<text text-anchor="middle" x="358" y="-524.5" font-family="Helvetica,sans-Serif" font-size="10.00"> </text>
<polyline fill="none" stroke="#bfbfbf" points="335.5,-517.5 380.5,-517.5 "/>
<text text-anchor="middle" x="358" y="-505.5" font-family="Helvetica,sans-Serif" font-size="10.00"> </text>
</g>
<!-- Node6&#45;&gt;Node1 -->
<g id="edge7" class="edge"><title>Node6&#45;&gt;Node1</title>
<path fill="none" stroke="#404040" d="M356.718,-498.207C354.05,-459.123 345.881,-386.395 321,-330 312.95,-311.754 302.649,-293.637 291.377,-276.379"/>
<polygon fill="none" stroke="#404040" points="291.318,-276.292 284.655,-273.534 284.638,-266.323 291.301,-269.08 291.318,-276.292"/>
<text text-anchor="middle" x="391.5" y="-355.5" font-family="Helvetica,sans-Serif" font-size="10.00"> +baseVelocityWRTGlobal</text>
<text text-anchor="middle" x="391.5" y="-344.5" font-family="Helvetica,sans-Serif" font-size="10.00">+positions</text>
<text text-anchor="middle" x="391.5" y="-333.5" font-family="Helvetica,sans-Serif" font-size="10.00">+velocities</text>
</g>
<!-- Node7&#45;&gt;Node1 -->
<g id="edge8" class="edge"><title>Node7&#45;&gt;Node1</title>
<path fill="none" stroke="#404040" d="M195.992,-382.757C194.471,-376.467 193.126,-370.197 192,-364 189.602,-350.805 187.882,-337.058 186.693,-323.2"/>
<polygon fill="none" stroke="#404040" points="186.676,-322.972 182.24,-317.287 185.781,-311.005 190.218,-316.69 186.676,-322.972"/>
<text text-anchor="middle" x="256.5" y="-344.5" font-family="Helvetica,sans-Serif" font-size="10.00"> +baseOrientationWRTGlobal</text>
</g>
</g>
</svg>
        <g id="navigator" transform="translate(0 0)" fill="#404254">
                <rect fill="#f2f5e9" fill-opacity="0.5" stroke="#606060" stroke-width=".5" x="0" y="0" width="60" height="60"/>
                <use id="zoomplus" xlink:href="#zoomPlus" x="17" y="9" onmousedown="handleZoom(evt,'in')"/>
                <use id="zoomminus" xlink:href="#zoomMin" x="42" y="9" onmousedown="handleZoom(evt,'out')"/>
                <use id="reset" xlink:href="#resetDef" x="30" y="36" onmousedown="handleReset()"/>
                <g id="arrowUp" xlink:href="#dirArrow" transform="translate(30 24)" onmousedown="handlePan(0,-1)">
                  <use xlink:href="#rim" fill="#404040">
                        <set attributeName="fill" to="#808080" begin="arrowUp.mouseover" end="arrowUp.mouseout"/>
                  </use>
                  <path fill="none" stroke="white" stroke-width="1.5" d="M0,-3.0v7 M-2.5,-0.5L0,-3.0L2.5,-0.5"/>
                </g>
                <g id="arrowRight" xlink:href="#dirArrow" transform="rotate(90) translate(36 -43)" onmousedown="handlePan(1,0)">
                  <use xlink:href="#rim" fill="#404040">
                        <set attributeName="fill" to="#808080" begin="arrowRight.mouseover" end="arrowRight.mouseout"/>
                  </use>
                  <path fill="none" stroke="white" stroke-width="1.5" d="M0,-3.0v7 M-2.5,-0.5L0,-3.0L2.5,-0.5"/>
                </g>
                <g id="arrowDown" xlink:href="#dirArrow" transform="rotate(180) translate(-30 -48)" onmousedown="handlePan(0,1)">
                  <use xlink:href="#rim" fill="#404040">
                        <set attributeName="fill" to="#808080" begin="arrowDown.mouseover" end="arrowDown.mouseout"/>
                  </use>
                  <path fill="none" stroke="white" stroke-width="1.5" d="M0,-3.0v7 M-2.5,-0.5L0,-3.0L2.5,-0.5"/>
                </g>
                <g id="arrowLeft" xlink:href="#dirArrow" transform="rotate(270) translate(-36 17)" onmousedown="handlePan(-1,0)">
                  <use xlink:href="#rim" fill="#404040">
                        <set attributeName="fill" to="#808080" begin="arrowLeft.mouseover" end="arrowLeft.mouseout"/>
                  </use>
                  <path fill="none" stroke="white" stroke-width="1.5" d="M0,-3.0v7 M-2.5,-0.5L0,-3.0L2.5,-0.5"/>
                </g>
        </g>
        <svg viewBox="0 0 15 15" width="100%" height="30px" preserveAspectRatio="xMaxYMin meet">
         <g id="arrow_out" transform="scale(0.3 0.3)">
          <a xlink:href="classhuman_1_1_human_state__coll__graph_org.svg" target="_base">
           <rect id="button" ry="5" rx="5" y="6" x="6" height="38" width="38"
                fill="#f2f5e9" fill-opacity="0.5" stroke="#606060" stroke-width="1.0"/>
           <path id="arrow"
             d="M 11.500037,31.436501 C 11.940474,20.09759 22.043105,11.32322 32.158766,21.979434 L 37.068811,17.246167 C 37.068811,17.246167 37.088388,32 37.088388,32 L 22.160133,31.978069 C 22.160133,31.978069 26.997745,27.140456 26.997745,27.140456 C 18.528582,18.264221 13.291696,25.230495 11.500037,31.436501 z"
             style="fill:#404040;"/>
          </a>
         </g>
        </svg>
</svg>
