<?xml version="1.0" encoding="UTF-8" standalone="no"?>
<!DOCTYPE svg PUBLIC "-//W3C//DTD SVG 1.1//EN"
 "http://www.w3.org/Graphics/SVG/1.1/DTD/svg11.dtd">
<!-- Generated by graphviz version 2.36.0 (20140111.2315)
 -->
<!-- Title: HumanForcesProvider Pages: 1 -->
<svg width="822pt" height="262pt"
 viewBox="0.00 0.00 822.00 262.00" xmlns="http://www.w3.org/2000/svg" xmlns:xlink="http://www.w3.org/1999/xlink">
<g id="graph0" class="graph" transform="scale(1 1) rotate(0) translate(4 258)">
<title>HumanForcesProvider</title>
<!-- Node1 -->
<g id="node1" class="node"><title>Node1</title>
<polygon fill="#bfbfbf" stroke="black" points="203.5,-1 203.5,-113 338.5,-113 338.5,-1 203.5,-1"/>
<text text-anchor="middle" x="271" y="-101" font-family="Helvetica,sans-Serif" font-size="10.00">HumanForcesProvider</text>
<polyline fill="none" stroke="black" points="203.5,-94 338.5,-94 "/>
<text text-anchor="middle" x="271" y="-82" font-family="Helvetica,sans-Serif" font-size="10.00"> </text>
<polyline fill="none" stroke="black" points="203.5,-75 338.5,-75 "/>
<text text-anchor="start" x="211.5" y="-63" font-family="Helvetica,sans-Serif" font-size="10.00">+ HumanForcesProvider()</text>
<text text-anchor="start" x="211.5" y="-52" font-family="Helvetica,sans-Serif" font-size="10.00">+ ~HumanForcesProvider()</text>
<text text-anchor="start" x="211.5" y="-41" font-family="Helvetica,sans-Serif" font-size="10.00">+ getPeriod()</text>
<text text-anchor="start" x="211.5" y="-30" font-family="Helvetica,sans-Serif" font-size="10.00">+ configure()</text>
<text text-anchor="start" x="211.5" y="-19" font-family="Helvetica,sans-Serif" font-size="10.00">+ updateModule()</text>
<text text-anchor="start" x="211.5" y="-8" font-family="Helvetica,sans-Serif" font-size="10.00">+ close()</text>
</g>
<!-- Node2 -->
<g id="node2" class="node"><title>Node2</title>
<g id="a_node2"><a xlink:href="classyarp_1_1os_1_1_r_f_module.html" target="_top" xlink:title="{RFModule\n||}">
<polygon fill="none" stroke="black" points="0,-190.5 0,-247.5 62,-247.5 62,-190.5 0,-190.5"/>
<text text-anchor="middle" x="31" y="-235.5" font-family="Helvetica,sans-Serif" font-size="10.00">RFModule</text>
<polyline fill="none" stroke="black" points="0,-228.5 62,-228.5 "/>
<text text-anchor="middle" x="31" y="-216.5" font-family="Helvetica,sans-Serif" font-size="10.00"> </text>
<polyline fill="none" stroke="black" points="0,-209.5 62,-209.5 "/>
<text text-anchor="middle" x="31" y="-197.5" font-family="Helvetica,sans-Serif" font-size="10.00"> </text>
</a>
</g>
</g>
<!-- Node2&#45;&gt;Node1 -->
<g id="edge1" class="edge"><title>Node2&#45;&gt;Node1</title>
<path fill="none" stroke="midnightblue" d="M60.1041,-182.292C74.995,-165.561 94.1427,-146.23 114,-132 141.187,-112.517 174.315,-96.0169 203.12,-83.5762"/>
<polygon fill="none" stroke="midnightblue" points="57.0876,-180.425 53.1516,-190.262 62.3627,-185.027 57.0876,-180.425"/>
</g>
<!-- Node3 -->
<g id="node3" class="node"><title>Node3</title>
<polygon fill="none" stroke="#bfbfbf" points="80.5,-190.5 80.5,-247.5 125.5,-247.5 125.5,-190.5 80.5,-190.5"/>
<text text-anchor="middle" x="103" y="-235.5" font-family="Helvetica,sans-Serif" font-size="10.00">double</text>
<polyline fill="none" stroke="#bfbfbf" points="80.5,-228.5 125.5,-228.5 "/>
<text text-anchor="middle" x="103" y="-216.5" font-family="Helvetica,sans-Serif" font-size="10.00"> </text>
<polyline fill="none" stroke="#bfbfbf" points="80.5,-209.5 125.5,-209.5 "/>
<text text-anchor="middle" x="103" y="-197.5" font-family="Helvetica,sans-Serif" font-size="10.00"> </text>
</g>
<!-- Node3&#45;&gt;Node1 -->
<g id="edge2" class="edge"><title>Node3&#45;&gt;Node1</title>
<path fill="none" stroke="#404040" d="M108.794,-190.234C113.758,-171.985 122.474,-148.516 137,-132 152.175,-114.746 172.384,-100.706 192.497,-89.6766"/>
<polygon fill="none" stroke="#404040" points="192.67,-89.5858 196.131,-83.2593 203.301,-84.0205 199.841,-90.347 192.67,-89.5858"/>
<text text-anchor="middle" x="160" y="-146.5" font-family="Helvetica,sans-Serif" font-size="10.00"> &#45;m_period</text>
</g>
<!-- Node4 -->
<g id="node4" class="node"><title>Node4</title>
<polygon fill="none" stroke="#bfbfbf" points="144,-190.5 144,-247.5 206,-247.5 206,-190.5 144,-190.5"/>
<text text-anchor="middle" x="175" y="-235.5" font-family="Helvetica,sans-Serif" font-size="10.00">PolyDriver</text>
<polyline fill="none" stroke="#bfbfbf" points="144,-228.5 206,-228.5 "/>
<text text-anchor="middle" x="175" y="-216.5" font-family="Helvetica,sans-Serif" font-size="10.00"> </text>
<polyline fill="none" stroke="#bfbfbf" points="144,-209.5 206,-209.5 "/>
<text text-anchor="middle" x="175" y="-197.5" font-family="Helvetica,sans-Serif" font-size="10.00"> </text>
</g>
<!-- Node4&#45;&gt;Node1 -->
<g id="edge3" class="edge"><title>Node4&#45;&gt;Node1</title>
<path fill="none" stroke="#404040" d="M179.941,-190.34C183.881,-172.795 190.513,-150.08 201,-132 202.747,-128.988 204.639,-126.002 206.644,-123.056"/>
<polygon fill="none" stroke="#404040" points="206.762,-122.894 207.076,-115.69 213.847,-113.209 213.533,-120.413 206.762,-122.894"/>
<text text-anchor="middle" x="234" y="-157.5" font-family="Helvetica,sans-Serif" font-size="10.00"> &#45;m_PolyRobot</text>
<text text-anchor="middle" x="234" y="-146.5" font-family="Helvetica,sans-Serif" font-size="10.00">&#45;m_forcePoly1</text>
<text text-anchor="middle" x="234" y="-135.5" font-family="Helvetica,sans-Serif" font-size="10.00">&#45;m_forcePoly2</text>
</g>
<!-- Node5 -->
<g id="node5" class="node"><title>Node5</title>
<g id="a_node5"><a xlink:href="classyarp_1_1os_1_1_buffered_port.html" target="_top" xlink:title="{yarp::os::BufferedPort\l\&lt; yarp::sig::Vector \&gt;\n||}">
<polygon fill="none" stroke="black" points="224.5,-185 224.5,-253 337.5,-253 337.5,-185 224.5,-185"/>
<text text-anchor="start" x="232.5" y="-241" font-family="Helvetica,sans-Serif" font-size="10.00">yarp::os::BufferedPort</text>
<text text-anchor="middle" x="281" y="-230" font-family="Helvetica,sans-Serif" font-size="10.00">&lt; yarp::sig::Vector &gt;</text>
<polyline fill="none" stroke="black" points="224.5,-223 337.5,-223 "/>
<text text-anchor="middle" x="281" y="-211" font-family="Helvetica,sans-Serif" font-size="10.00"> </text>
<polyline fill="none" stroke="black" points="224.5,-204 337.5,-204 "/>
<text text-anchor="middle" x="281" y="-192" font-family="Helvetica,sans-Serif" font-size="10.00"> </text>
</a>
</g>
</g>
<!-- Node5&#45;&gt;Node1 -->
<g id="edge4" class="edge"><title>Node5&#45;&gt;Node1</title>
<path fill="none" stroke="#404040" d="M274.432,-184.818C273.434,-178.589 272.554,-172.114 272,-166 270.809,-152.846 270.197,-138.755 269.937,-125.237"/>
<polygon fill="none" stroke="#404040" points="269.934,-125.027 265.862,-119.076 269.79,-113.028 273.862,-118.979 269.934,-125.027"/>
<text text-anchor="start" x="272" y="-157.5" font-family="Helvetica,sans-Serif" font-size="10.00"> &#45;m_robotLeftArmForce</text>
<text text-anchor="middle" x="335.5" y="-146.5" font-family="Helvetica,sans-Serif" font-size="10.00">_port</text>
<text text-anchor="middle" x="335.5" y="-135.5" font-family="Helvetica,sans-Serif" font-size="10.00">&#45;m_robotRightArmForce_port</text>
</g>
<!-- Node6 -->
<g id="node6" class="node"><title>Node6</title>
<g id="a_node6"><a xlink:href="classyarp_1_1os_1_1_buffered_port.html" target="_top" xlink:title="{yarp::os::BufferedPort\l\&lt; human::HumanForces \&gt;\n||}">
<polygon fill="none" stroke="black" points="355.5,-185 355.5,-253 486.5,-253 486.5,-185 355.5,-185"/>
<text text-anchor="start" x="363.5" y="-241" font-family="Helvetica,sans-Serif" font-size="10.00">yarp::os::BufferedPort</text>
<text text-anchor="middle" x="421" y="-230" font-family="Helvetica,sans-Serif" font-size="10.00">&lt; human::HumanForces &gt;</text>
<polyline fill="none" stroke="black" points="355.5,-223 486.5,-223 "/>
<text text-anchor="middle" x="421" y="-211" font-family="Helvetica,sans-Serif" font-size="10.00"> </text>
<polyline fill="none" stroke="black" points="355.5,-204 486.5,-204 "/>
<text text-anchor="middle" x="421" y="-192" font-family="Helvetica,sans-Serif" font-size="10.00"> </text>
</a>
</g>
</g>
<!-- Node6&#45;&gt;Node1 -->
<g id="edge5" class="edge"><title>Node6&#45;&gt;Node1</title>
<path fill="none" stroke="#404040" d="M418.627,-184.715C415.976,-167.551 410.45,-147.107 399,-132 386.044,-114.905 367.908,-101.086 349.353,-90.2248"/>
<polygon fill="none" stroke="#404040" points="349.22,-90.1512 342.033,-90.7398 338.726,-84.332 345.913,-83.7434 349.22,-90.1512"/>
<text text-anchor="middle" x="449.5" y="-146.5" font-family="Helvetica,sans-Serif" font-size="10.00"> &#45;m_output_port</text>
</g>
<!-- Node7 -->
<g id="node7" class="node"><title>Node7</title>
<g id="a_node7"><a xlink:href="classyarp_1_1os_1_1_buffered_port.html" target="_top" xlink:title="{yarp::os::BufferedPort\l\&lt; human::HumanState \&gt;\n||}">
<polygon fill="none" stroke="black" points="504.5,-185 504.5,-253 629.5,-253 629.5,-185 504.5,-185"/>
<text text-anchor="start" x="512.5" y="-241" font-family="Helvetica,sans-Serif" font-size="10.00">yarp::os::BufferedPort</text>
<text text-anchor="middle" x="567" y="-230" font-family="Helvetica,sans-Serif" font-size="10.00">&lt; human::HumanState &gt;</text>
<polyline fill="none" stroke="black" points="504.5,-223 629.5,-223 "/>
<text text-anchor="middle" x="567" y="-211" font-family="Helvetica,sans-Serif" font-size="10.00"> </text>
<polyline fill="none" stroke="black" points="504.5,-204 629.5,-204 "/>
<text text-anchor="middle" x="567" y="-192" font-family="Helvetica,sans-Serif" font-size="10.00"> </text>
</a>
</g>
</g>
<!-- Node7&#45;&gt;Node1 -->
<g id="edge6" class="edge"><title>Node7&#45;&gt;Node1</title>
<path fill="none" stroke="#404040" d="M543.124,-184.793C528.864,-167.013 509.392,-145.961 488,-132 446.41,-104.857 393.814,-86.5943 350.82,-75.0029"/>
<polygon fill="none" stroke="#404040" points="350.576,-74.9393 343.76,-77.2943 338.965,-71.9086 345.781,-69.5536 350.576,-74.9393"/>
<text text-anchor="middle" x="602" y="-146.5" font-family="Helvetica,sans-Serif" font-size="10.00"> &#45;m_humanJointConfiguration_port</text>
</g>
<!-- Node8 -->
<g id="node8" class="node"><title>Node8</title>
<polygon fill="none" stroke="#bfbfbf" points="654,-190.5 654,-247.5 814,-247.5 814,-190.5 654,-190.5"/>
<text text-anchor="middle" x="734" y="-235.5" font-family="Helvetica,sans-Serif" font-size="10.00">vector&lt; human::ForceReader * &gt;</text>
<polyline fill="none" stroke="#bfbfbf" points="654,-228.5 814,-228.5 "/>
<text text-anchor="middle" x="734" y="-216.5" font-family="Helvetica,sans-Serif" font-size="10.00"> </text>
<polyline fill="none" stroke="#bfbfbf" points="654,-209.5 814,-209.5 "/>
<text text-anchor="middle" x="734" y="-197.5" font-family="Helvetica,sans-Serif" font-size="10.00"> </text>
</g>
<!-- Node8&#45;&gt;Node1 -->
<g id="edge7" class="edge"><title>Node8&#45;&gt;Node1</title>
<path fill="none" stroke="#404040" d="M724.071,-190.374C715.632,-170.957 701.575,-146.032 681,-132 628.405,-96.1311 454.285,-74.6018 350.633,-64.6513"/>
<polygon fill="none" stroke="#404040" points="350.612,-64.6494 344.263,-68.0689 338.665,-63.5236 345.013,-60.1041 350.612,-64.6494"/>
<text text-anchor="middle" x="737" y="-146.5" font-family="Helvetica,sans-Serif" font-size="10.00"> &#45;m_readers</text>
</g>
</g>
</svg>
