<?xml version="1.0" encoding="UTF-8" standalone="no"?>
<!DOCTYPE svg PUBLIC "-//W3C//DTD SVG 1.1//EN"
 "http://www.w3.org/Graphics/SVG/1.1/DTD/svg11.dtd">
<!-- Generated by graphviz version 2.36.0 (20140111.2315)
 -->
<!-- Title: human::Quaternion::Editor Pages: 1 -->
<!--zoomable 1134 -->
<svg id="main" version="1.1" xmlns="http://www.w3.org/2000/svg" xmlns:xlink="http://www.w3.org/1999/xlink" xml:space="preserve" onload="init(evt)">
<style type="text/css"><![CDATA[
.edge:hover path { stroke: red; }
.edge:hover polygon { stroke: red; fill: red; }
]]></style>
<script type="text/javascript"><![CDATA[
var edges = document.getElementsByTagName('g');
if (edges && edges.length) {
  for (var i=0;i<edges.length;i++) {
    if (edges[i].id.substr(0,4)=='edge') {
      edges[i].setAttribute('class','edge');
    }
  }
}
]]></script>
        <defs>
                <circle id="rim" cx="0" cy="0" r="7"/>
                <circle id="rim2" cx="0" cy="0" r="3.5"/>
                <g id="zoomPlus">
                        <use xlink:href="#rim" fill="#404040">
                                <set attributeName="fill" to="#808080" begin="zoomplus.mouseover" end="zoomplus.mouseout"/>
                        </use>
                        <path d="M-4,0h8M0,-4v8" fill="none" stroke="white" stroke-width="1.5" pointer-events="none"/>
                </g>
                <g id="zoomMin">
                        <use xlink:href="#rim" fill="#404040">
                                <set attributeName="fill" to="#808080" begin="zoomminus.mouseover" end="zoomminus.mouseout"/>
                        </use>
                        <path d="M-4,0h8" fill="none" stroke="white" stroke-width="1.5" pointer-events="none"/>
                </g>
                <g id="dirArrow">
                        <path fill="none" stroke="white" stroke-width="1.5" d="M0,-3.0v7 M-2.5,-0.5L0,-3.0L2.5,-0.5"/>
                </g>
               <g id="resetDef">
                       <use xlink:href="#rim2" fill="#404040">
                               <set attributeName="fill" to="#808080" begin="reset.mouseover" end="reset.mouseout"/>
                       </use>
               </g>
        </defs>

<script type="text/javascript">
var viewWidth = 676;
var viewHeight = 1134;
var sectionId = 'dynsection-1';
</script>
<script xlink:href="svgpan.js"/>
<svg id="graph" class="graph">
<g id="viewport">
<title>human::Quaternion::Editor</title>
<!-- Node1 -->
<g id="node1" class="node"><title>Node1</title>
<polygon fill="#bfbfbf" stroke="black" points="241,-1 241,-289 363,-289 363,-1 241,-1"/>
<text text-anchor="start" x="249" y="-277" font-family="Helvetica,sans-Serif" font-size="10.00">human::Quaternion::</text>
<text text-anchor="middle" x="302" y="-266" font-family="Helvetica,sans-Serif" font-size="10.00">Editor</text>
<polyline fill="none" stroke="black" points="241,-259 363,-259 "/>
<text text-anchor="middle" x="302" y="-247" font-family="Helvetica,sans-Serif" font-size="10.00"> </text>
<polyline fill="none" stroke="black" points="241,-240 363,-240 "/>
<text text-anchor="start" x="249" y="-228" font-family="Helvetica,sans-Serif" font-size="10.00">+ Editor()</text>
<text text-anchor="start" x="249" y="-217" font-family="Helvetica,sans-Serif" font-size="10.00">+ Editor()</text>
<text text-anchor="start" x="249" y="-206" font-family="Helvetica,sans-Serif" font-size="10.00">+ edit()</text>
<text text-anchor="start" x="249" y="-195" font-family="Helvetica,sans-Serif" font-size="10.00">+ ~Editor()</text>
<text text-anchor="start" x="249" y="-184" font-family="Helvetica,sans-Serif" font-size="10.00">+ isValid()</text>
<text text-anchor="start" x="249" y="-173" font-family="Helvetica,sans-Serif" font-size="10.00">+ state()</text>
<text text-anchor="start" x="249" y="-162" font-family="Helvetica,sans-Serif" font-size="10.00">+ begin()</text>
<text text-anchor="start" x="249" y="-151" font-family="Helvetica,sans-Serif" font-size="10.00">+ end()</text>
<text text-anchor="start" x="249" y="-140" font-family="Helvetica,sans-Serif" font-size="10.00">+ set_w()</text>
<text text-anchor="start" x="249" y="-129" font-family="Helvetica,sans-Serif" font-size="10.00">+ set_imaginary()</text>
<text text-anchor="start" x="249" y="-118" font-family="Helvetica,sans-Serif" font-size="10.00">and 28 more...</text>
<text text-anchor="start" x="249" y="-107" font-family="Helvetica,sans-Serif" font-size="10.00">&#45; communicate()</text>
<text text-anchor="start" x="249" y="-96" font-family="Helvetica,sans-Serif" font-size="10.00">&#45; mark_dirty()</text>
<text text-anchor="start" x="249" y="-85" font-family="Helvetica,sans-Serif" font-size="10.00">&#45; mark_dirty_w()</text>
<text text-anchor="start" x="249" y="-74" font-family="Helvetica,sans-Serif" font-size="10.00">&#45; mark_dirty_imaginary()</text>
<text text-anchor="start" x="249" y="-63" font-family="Helvetica,sans-Serif" font-size="10.00">&#45; dirty_flags()</text>
<text text-anchor="start" x="249" y="-52" font-family="Helvetica,sans-Serif" font-size="10.00">&#45; communicate()</text>
<text text-anchor="start" x="249" y="-41" font-family="Helvetica,sans-Serif" font-size="10.00">&#45; mark_dirty()</text>
<text text-anchor="start" x="249" y="-30" font-family="Helvetica,sans-Serif" font-size="10.00">&#45; mark_dirty_w()</text>
<text text-anchor="start" x="249" y="-19" font-family="Helvetica,sans-Serif" font-size="10.00">&#45; mark_dirty_imaginary()</text>
<text text-anchor="start" x="249" y="-8" font-family="Helvetica,sans-Serif" font-size="10.00">&#45; dirty_flags()</text>
</g>
<!-- Node2 -->
<g id="node2" class="node"><title>Node2</title>
<g id="a_node2"><a xlink:href="classyarp_1_1os_1_1_wire.html" target="_top" xlink:title="{yarp::os::Wire\n||}">
<polygon fill="none" stroke="black" points="0,-486.5 0,-543.5 78,-543.5 78,-486.5 0,-486.5"/>
<text text-anchor="middle" x="39" y="-531.5" font-family="Helvetica,sans-Serif" font-size="10.00">yarp::os::Wire</text>
<polyline fill="none" stroke="black" points="0,-524.5 78,-524.5 "/>
<text text-anchor="middle" x="39" y="-512.5" font-family="Helvetica,sans-Serif" font-size="10.00"> </text>
<polyline fill="none" stroke="black" points="0,-505.5 78,-505.5 "/>
<text text-anchor="middle" x="39" y="-493.5" font-family="Helvetica,sans-Serif" font-size="10.00"> </text>
</a>
</g>
</g>
<!-- Node2&#45;&gt;Node1 -->
<g id="edge1" class="edge"><title>Node2&#45;&gt;Node1</title>
<path fill="none" stroke="midnightblue" d="M46.6192,-476.712C53.9022,-446.438 66.8038,-403.44 87,-370 127.965,-302.172 192.776,-238.382 240.539,-196.356"/>
<polygon fill="none" stroke="midnightblue" points="43.2085,-475.926 44.3623,-486.458 50.028,-477.506 43.2085,-475.926"/>
</g>
<!-- Node3 -->
<g id="node3" class="node"><title>Node3</title>
<g id="a_node3"><a xlink:href="classyarp_1_1os_1_1_port_writer.html" target="_top" xlink:title="{yarp::os::PortWriter\n||}">
<polygon fill="none" stroke="black" points="96,-486.5 96,-543.5 198,-543.5 198,-486.5 96,-486.5"/>
<text text-anchor="middle" x="147" y="-531.5" font-family="Helvetica,sans-Serif" font-size="10.00">yarp::os::PortWriter</text>
<polyline fill="none" stroke="black" points="96,-524.5 198,-524.5 "/>
<text text-anchor="middle" x="147" y="-512.5" font-family="Helvetica,sans-Serif" font-size="10.00"> </text>
<polyline fill="none" stroke="black" points="96,-505.5 198,-505.5 "/>
<text text-anchor="middle" x="147" y="-493.5" font-family="Helvetica,sans-Serif" font-size="10.00"> </text>
</a>
</g>
</g>
<!-- Node3&#45;&gt;Node1 -->
<g id="edge2" class="edge"><title>Node3&#45;&gt;Node1</title>
<path fill="none" stroke="midnightblue" d="M162.339,-477.006C174.424,-447.904 191.724,-406.339 207,-370 218.009,-343.812 229.79,-315.925 241.177,-289.039"/>
<polygon fill="none" stroke="midnightblue" points="159.052,-475.795 158.451,-486.373 165.517,-478.479 159.052,-475.795"/>
</g>
<!-- Node4 -->
<g id="node4" class="node"><title>Node4</title>
<g id="a_node4"><a xlink:href="classyarp_1_1os_1_1_wire.html" target="_top" xlink:title="{Wire\n||}">
<polygon fill="none" stroke="black" points="216.5,-486.5 216.5,-543.5 253.5,-543.5 253.5,-486.5 216.5,-486.5"/>
<text text-anchor="middle" x="235" y="-531.5" font-family="Helvetica,sans-Serif" font-size="10.00">Wire</text>
<polyline fill="none" stroke="black" points="216.5,-524.5 253.5,-524.5 "/>
<text text-anchor="middle" x="235" y="-512.5" font-family="Helvetica,sans-Serif" font-size="10.00"> </text>
<polyline fill="none" stroke="black" points="216.5,-505.5 253.5,-505.5 "/>
<text text-anchor="middle" x="235" y="-493.5" font-family="Helvetica,sans-Serif" font-size="10.00"> </text>
</a>
</g>
</g>
<!-- Node4&#45;&gt;Node1 -->
<g id="edge3" class="edge"><title>Node4&#45;&gt;Node1</title>
<path fill="none" stroke="midnightblue" d="M241.848,-476.389C249.854,-432.411 263.584,-357.003 275.906,-289.324"/>
<polygon fill="none" stroke="midnightblue" points="238.384,-475.875 240.036,-486.34 245.271,-477.129 238.384,-475.875"/>
</g>
<!-- Node5 -->
<g id="node5" class="node"><title>Node5</title>
<g id="a_node5"><a xlink:href="classyarp_1_1os_1_1_port_writer.html" target="_top" xlink:title="{PortWriter\n||}">
<polygon fill="none" stroke="black" points="271.5,-486.5 271.5,-543.5 332.5,-543.5 332.5,-486.5 271.5,-486.5"/>
<text text-anchor="middle" x="302" y="-531.5" font-family="Helvetica,sans-Serif" font-size="10.00">PortWriter</text>
<polyline fill="none" stroke="black" points="271.5,-524.5 332.5,-524.5 "/>
<text text-anchor="middle" x="302" y="-512.5" font-family="Helvetica,sans-Serif" font-size="10.00"> </text>
<polyline fill="none" stroke="black" points="271.5,-505.5 332.5,-505.5 "/>
<text text-anchor="middle" x="302" y="-493.5" font-family="Helvetica,sans-Serif" font-size="10.00"> </text>
</a>
</g>
</g>
<!-- Node5&#45;&gt;Node1 -->
<g id="edge4" class="edge"><title>Node5&#45;&gt;Node1</title>
<path fill="none" stroke="midnightblue" d="M302,-476.111C302,-432.093 302,-356.86 302,-289.324"/>
<polygon fill="none" stroke="midnightblue" points="298.5,-476.34 302,-486.34 305.5,-476.34 298.5,-476.34"/>
</g>
<!-- Node6 -->
<g id="node6" class="node"><title>Node6</title>
<polygon fill="none" stroke="#bfbfbf" points="350.5,-486.5 350.5,-543.5 379.5,-543.5 379.5,-486.5 350.5,-486.5"/>
<text text-anchor="middle" x="365" y="-531.5" font-family="Helvetica,sans-Serif" font-size="10.00">int</text>
<polyline fill="none" stroke="#bfbfbf" points="350.5,-524.5 379.5,-524.5 "/>
<text text-anchor="middle" x="365" y="-512.5" font-family="Helvetica,sans-Serif" font-size="10.00"> </text>
<polyline fill="none" stroke="#bfbfbf" points="350.5,-505.5 379.5,-505.5 "/>
<text text-anchor="middle" x="365" y="-493.5" font-family="Helvetica,sans-Serif" font-size="10.00"> </text>
</g>
<!-- Node6&#45;&gt;Node1 -->
<g id="edge5" class="edge"><title>Node6&#45;&gt;Node1</title>
<path fill="none" stroke="#404040" d="M360.458,-486.384C355.675,-457.389 347.896,-410.475 341,-370 337.203,-347.715 333.153,-324.192 329.154,-301.098"/>
<polygon fill="none" stroke="#404040" points="329.118,-300.893 324.152,-295.665 327.068,-289.07 332.034,-294.298 329.118,-300.893"/>
<text text-anchor="middle" x="365.5" y="-333" font-family="Helvetica,sans-Serif" font-size="10.00"> &#45;dirty_count</text>
<text text-anchor="middle" x="365.5" y="-322" font-family="Helvetica,sans-Serif" font-size="10.00">&#45;group</text>
</g>
<!-- Node7 -->
<g id="node7" class="node"><title>Node7</title>
<polygon fill="none" stroke="#bfbfbf" points="397.5,-486.5 397.5,-543.5 432.5,-543.5 432.5,-486.5 397.5,-486.5"/>
<text text-anchor="middle" x="415" y="-531.5" font-family="Helvetica,sans-Serif" font-size="10.00">bool</text>
<polyline fill="none" stroke="#bfbfbf" points="397.5,-524.5 432.5,-524.5 "/>
<text text-anchor="middle" x="415" y="-512.5" font-family="Helvetica,sans-Serif" font-size="10.00"> </text>
<polyline fill="none" stroke="#bfbfbf" points="397.5,-505.5 432.5,-505.5 "/>
<text text-anchor="middle" x="415" y="-493.5" font-family="Helvetica,sans-Serif" font-size="10.00"> </text>
</g>
<!-- Node7&#45;&gt;Node1 -->
<g id="edge6" class="edge"><title>Node7&#45;&gt;Node1</title>
<path fill="none" stroke="#404040" d="M415.542,-486.284C415.554,-446.035 412.639,-369.502 393,-308 386.848,-288.734 378.251,-269.188 368.776,-250.655"/>
<polygon fill="none" stroke="#404040" points="368.69,-250.492 362.358,-247.042 363.107,-239.87 369.44,-243.32 368.69,-250.492"/>
<text text-anchor="middle" x="445.5" y="-344" font-family="Helvetica,sans-Serif" font-size="10.00"> &#45;is_dirty_imaginary</text>
<text text-anchor="middle" x="445.5" y="-333" font-family="Helvetica,sans-Serif" font-size="10.00">&#45;is_dirty_w</text>
<text text-anchor="middle" x="445.5" y="-322" font-family="Helvetica,sans-Serif" font-size="10.00">&#45;is_dirty</text>
<text text-anchor="middle" x="445.5" y="-311" font-family="Helvetica,sans-Serif" font-size="10.00">&#45;obj_owned</text>
</g>
<!-- Node8 -->
<g id="node8" class="node"><title>Node8</title>
<g id="a_node8"><a xlink:href="classhuman_1_1_quaternion.html" target="_top" xlink:title="{human::Quaternion\n||+ Quaternion()\l+ Quaternion()\l+ Quaternion()\l+ operator=()\l+ read()\l+ read()\l+ write()\l+ write()\l+ toString()\l+ Quaternion()\land 8 more...\l&#45; write_w()\l&#45; nested_write_w()\l&#45; write_imaginary()\l&#45; nested_write_imaginary()\l&#45; read_w()\l&#45; nested_read_w()\l&#45; read_imaginary()\l&#45; nested_read_imaginary()\l&#45; write_w()\l&#45; nested_write_w()\land 6 more...\l}">
<polygon fill="none" stroke="black" points="457.5,-371 457.5,-659 588.5,-659 588.5,-371 457.5,-371"/>
<text text-anchor="middle" x="523" y="-647" font-family="Helvetica,sans-Serif" font-size="10.00">human::Quaternion</text>
<polyline fill="none" stroke="black" points="457.5,-640 588.5,-640 "/>
<text text-anchor="middle" x="523" y="-628" font-family="Helvetica,sans-Serif" font-size="10.00"> </text>
<polyline fill="none" stroke="black" points="457.5,-621 588.5,-621 "/>
<text text-anchor="start" x="465.5" y="-609" font-family="Helvetica,sans-Serif" font-size="10.00">+ Quaternion()</text>
<text text-anchor="start" x="465.5" y="-598" font-family="Helvetica,sans-Serif" font-size="10.00">+ Quaternion()</text>
<text text-anchor="start" x="465.5" y="-587" font-family="Helvetica,sans-Serif" font-size="10.00">+ Quaternion()</text>
<text text-anchor="start" x="465.5" y="-576" font-family="Helvetica,sans-Serif" font-size="10.00">+ operator=()</text>
<text text-anchor="start" x="465.5" y="-565" font-family="Helvetica,sans-Serif" font-size="10.00">+ read()</text>
<text text-anchor="start" x="465.5" y="-554" font-family="Helvetica,sans-Serif" font-size="10.00">+ read()</text>
<text text-anchor="start" x="465.5" y="-543" font-family="Helvetica,sans-Serif" font-size="10.00">+ write()</text>
<text text-anchor="start" x="465.5" y="-532" font-family="Helvetica,sans-Serif" font-size="10.00">+ write()</text>
<text text-anchor="start" x="465.5" y="-521" font-family="Helvetica,sans-Serif" font-size="10.00">+ toString()</text>
<text text-anchor="start" x="465.5" y="-510" font-family="Helvetica,sans-Serif" font-size="10.00">+ Quaternion()</text>
<text text-anchor="start" x="465.5" y="-499" font-family="Helvetica,sans-Serif" font-size="10.00">and 8 more...</text>
<text text-anchor="start" x="465.5" y="-488" font-family="Helvetica,sans-Serif" font-size="10.00">&#45; write_w()</text>
<text text-anchor="start" x="465.5" y="-477" font-family="Helvetica,sans-Serif" font-size="10.00">&#45; nested_write_w()</text>
<text text-anchor="start" x="465.5" y="-466" font-family="Helvetica,sans-Serif" font-size="10.00">&#45; write_imaginary()</text>
<text text-anchor="start" x="465.5" y="-455" font-family="Helvetica,sans-Serif" font-size="10.00">&#45; nested_write_imaginary()</text>
<text text-anchor="start" x="465.5" y="-444" font-family="Helvetica,sans-Serif" font-size="10.00">&#45; read_w()</text>
<text text-anchor="start" x="465.5" y="-433" font-family="Helvetica,sans-Serif" font-size="10.00">&#45; nested_read_w()</text>
<text text-anchor="start" x="465.5" y="-422" font-family="Helvetica,sans-Serif" font-size="10.00">&#45; read_imaginary()</text>
<text text-anchor="start" x="465.5" y="-411" font-family="Helvetica,sans-Serif" font-size="10.00">&#45; nested_read_imaginary()</text>
<text text-anchor="start" x="465.5" y="-400" font-family="Helvetica,sans-Serif" font-size="10.00">&#45; write_w()</text>
<text text-anchor="start" x="465.5" y="-389" font-family="Helvetica,sans-Serif" font-size="10.00">&#45; nested_write_w()</text>
<text text-anchor="start" x="465.5" y="-378" font-family="Helvetica,sans-Serif" font-size="10.00">and 6 more...</text>
</a>
</g>
</g>
<!-- Node8&#45;&gt;Node1 -->
<g id="edge7" class="edge"><title>Node8&#45;&gt;Node1</title>
<path fill="none" stroke="#404040" d="M515.028,-370.814C510.021,-348.898 502.67,-327.207 492,-308 464.287,-258.114 414.833,-216.695 373.325,-188.227"/>
<polygon fill="none" stroke="#404040" points="373.199,-188.142 365.988,-188.118 363.237,-181.452 370.448,-181.476 373.199,-188.142"/>
<text text-anchor="middle" x="518.5" y="-327.5" font-family="Helvetica,sans-Serif" font-size="10.00"> &#45;obj</text>
</g>
<!-- Node9 -->
<g id="node9" class="node"><title>Node9</title>
<g id="a_node9"><a xlink:href="classyarp_1_1os_1_1idl_1_1_wire_portable.html" target="_top" xlink:title="{WirePortable\n||}">
<polygon fill="none" stroke="black" points="495.5,-1068.5 495.5,-1125.5 568.5,-1125.5 568.5,-1068.5 495.5,-1068.5"/>
<text text-anchor="middle" x="532" y="-1113.5" font-family="Helvetica,sans-Serif" font-size="10.00">WirePortable</text>
<polyline fill="none" stroke="black" points="495.5,-1106.5 568.5,-1106.5 "/>
<text text-anchor="middle" x="532" y="-1094.5" font-family="Helvetica,sans-Serif" font-size="10.00"> </text>
<polyline fill="none" stroke="black" points="495.5,-1087.5 568.5,-1087.5 "/>
<text text-anchor="middle" x="532" y="-1075.5" font-family="Helvetica,sans-Serif" font-size="10.00"> </text>
</a>
</g>
</g>
<!-- Node9&#45;&gt;Node8 -->
<g id="edge8" class="edge"><title>Node9&#45;&gt;Node8</title>
<path fill="none" stroke="midnightblue" d="M518.145,-1058.28C514.821,-1040.11 512.218,-1017.97 511,-998 504.058,-884.195 505.355,-754.996 509.445,-659.026"/>
<polygon fill="none" stroke="midnightblue" points="514.735,-1059.08 520.121,-1068.2 521.6,-1057.71 514.735,-1059.08"/>
</g>
<!-- Node9&#45;&gt;Node8 -->
<g id="edge9" class="edge"><title>Node9&#45;&gt;Node8</title>
<path fill="none" stroke="midnightblue" d="M534.416,-1058.03C532.797,-1039.9 530.213,-1017.88 529,-998 522.058,-884.195 523.355,-754.996 524.731,-659.026"/>
<polygon fill="none" stroke="midnightblue" points="530.944,-1058.52 535.24,-1068.2 537.921,-1057.95 530.944,-1058.52"/>
</g>
<!-- Node11 -->
<g id="node11" class="node"><title>Node11</title>
<g id="a_node11"><a xlink:href="classhuman_1_1_vector3.html" target="_top" xlink:title="{human::Vector3\n||+ Vector3()\l+ Vector3()\l+ Vector3()\l+ operator=()\l+ read()\l+ read()\l+ write()\l+ write()\l+ toString()\l+ Vector3()\land 8 more...\l&#45; write_x()\l&#45; nested_write_x()\l&#45; write_y()\l&#45; nested_write_y()\l&#45; write_z()\l&#45; nested_write_z()\l&#45; read_x()\l&#45; nested_read_x()\l&#45; read_y()\l&#45; nested_read_y()\land 14 more...\l}">
<polygon fill="none" stroke="black" points="528.5,-709 528.5,-997 623.5,-997 623.5,-709 528.5,-709"/>
<text text-anchor="middle" x="576" y="-985" font-family="Helvetica,sans-Serif" font-size="10.00">human::Vector3</text>
<polyline fill="none" stroke="black" points="528.5,-978 623.5,-978 "/>
<text text-anchor="middle" x="576" y="-966" font-family="Helvetica,sans-Serif" font-size="10.00"> </text>
<polyline fill="none" stroke="black" points="528.5,-959 623.5,-959 "/>
<text text-anchor="start" x="536.5" y="-947" font-family="Helvetica,sans-Serif" font-size="10.00">+ Vector3()</text>
<text text-anchor="start" x="536.5" y="-936" font-family="Helvetica,sans-Serif" font-size="10.00">+ Vector3()</text>
<text text-anchor="start" x="536.5" y="-925" font-family="Helvetica,sans-Serif" font-size="10.00">+ Vector3()</text>
<text text-anchor="start" x="536.5" y="-914" font-family="Helvetica,sans-Serif" font-size="10.00">+ operator=()</text>
<text text-anchor="start" x="536.5" y="-903" font-family="Helvetica,sans-Serif" font-size="10.00">+ read()</text>
<text text-anchor="start" x="536.5" y="-892" font-family="Helvetica,sans-Serif" font-size="10.00">+ read()</text>
<text text-anchor="start" x="536.5" y="-881" font-family="Helvetica,sans-Serif" font-size="10.00">+ write()</text>
<text text-anchor="start" x="536.5" y="-870" font-family="Helvetica,sans-Serif" font-size="10.00">+ write()</text>
<text text-anchor="start" x="536.5" y="-859" font-family="Helvetica,sans-Serif" font-size="10.00">+ toString()</text>
<text text-anchor="start" x="536.5" y="-848" font-family="Helvetica,sans-Serif" font-size="10.00">+ Vector3()</text>
<text text-anchor="start" x="536.5" y="-837" font-family="Helvetica,sans-Serif" font-size="10.00">and 8 more...</text>
<text text-anchor="start" x="536.5" y="-826" font-family="Helvetica,sans-Serif" font-size="10.00">&#45; write_x()</text>
<text text-anchor="start" x="536.5" y="-815" font-family="Helvetica,sans-Serif" font-size="10.00">&#45; nested_write_x()</text>
<text text-anchor="start" x="536.5" y="-804" font-family="Helvetica,sans-Serif" font-size="10.00">&#45; write_y()</text>
<text text-anchor="start" x="536.5" y="-793" font-family="Helvetica,sans-Serif" font-size="10.00">&#45; nested_write_y()</text>
<text text-anchor="start" x="536.5" y="-782" font-family="Helvetica,sans-Serif" font-size="10.00">&#45; write_z()</text>
<text text-anchor="start" x="536.5" y="-771" font-family="Helvetica,sans-Serif" font-size="10.00">&#45; nested_write_z()</text>
<text text-anchor="start" x="536.5" y="-760" font-family="Helvetica,sans-Serif" font-size="10.00">&#45; read_x()</text>
<text text-anchor="start" x="536.5" y="-749" font-family="Helvetica,sans-Serif" font-size="10.00">&#45; nested_read_x()</text>
<text text-anchor="start" x="536.5" y="-738" font-family="Helvetica,sans-Serif" font-size="10.00">&#45; read_y()</text>
<text text-anchor="start" x="536.5" y="-727" font-family="Helvetica,sans-Serif" font-size="10.00">&#45; nested_read_y()</text>
<text text-anchor="start" x="536.5" y="-716" font-family="Helvetica,sans-Serif" font-size="10.00">and 14 more...</text>
</a>
</g>
</g>
<!-- Node9&#45;&gt;Node11 -->
<g id="edge12" class="edge"><title>Node9&#45;&gt;Node11</title>
<path fill="none" stroke="midnightblue" d="M533.818,-1058.15C536.086,-1041 539.46,-1019.54 543.346,-997.024"/>
<polygon fill="none" stroke="midnightblue" points="530.324,-1057.88 532.553,-1068.24 537.269,-1058.75 530.324,-1057.88"/>
</g>
<!-- Node9&#45;&gt;Node11 -->
<g id="edge13" class="edge"><title>Node9&#45;&gt;Node11</title>
<path fill="none" stroke="midnightblue" d="M543.946,-1058.15C547.914,-1041 552.344,-1019.54 556.645,-997.024"/>
<polygon fill="none" stroke="midnightblue" points="540.455,-1057.7 541.541,-1068.24 547.265,-1059.32 540.455,-1057.7"/>
</g>
<!-- Node10 -->
<g id="node10" class="node"><title>Node10</title>
<polygon fill="none" stroke="#bfbfbf" points="607.5,-1068.5 607.5,-1125.5 652.5,-1125.5 652.5,-1068.5 607.5,-1068.5"/>
<text text-anchor="middle" x="630" y="-1113.5" font-family="Helvetica,sans-Serif" font-size="10.00">double</text>
<polyline fill="none" stroke="#bfbfbf" points="607.5,-1106.5 652.5,-1106.5 "/>
<text text-anchor="middle" x="630" y="-1094.5" font-family="Helvetica,sans-Serif" font-size="10.00"> </text>
<polyline fill="none" stroke="#bfbfbf" points="607.5,-1087.5 652.5,-1087.5 "/>
<text text-anchor="middle" x="630" y="-1075.5" font-family="Helvetica,sans-Serif" font-size="10.00"> </text>
</g>
<!-- Node10&#45;&gt;Node8 -->
<g id="edge10" class="edge"><title>Node10&#45;&gt;Node8</title>
<path fill="none" stroke="#404040" d="M635.2,-1068.05C646.168,-1003.29 667.842,-838.568 632,-708 623.804,-678.142 609.928,-648.011 594.772,-620.751"/>
<polygon fill="none" stroke="#404040" points="594.619,-620.482 588.173,-617.248 588.679,-610.055 595.125,-613.288 594.619,-620.482"/>
<text text-anchor="middle" x="659.5" y="-850.5" font-family="Helvetica,sans-Serif" font-size="10.00"> +w</text>
</g>
<!-- Node10&#45;&gt;Node11 -->
<g id="edge14" class="edge"><title>Node10&#45;&gt;Node11</title>
<path fill="none" stroke="#404040" d="M623.806,-1068.24C620.314,-1052.59 615.645,-1031.67 610.589,-1009.01"/>
<polygon fill="none" stroke="#404040" points="610.528,-1008.74 605.317,-1003.75 607.914,-997.024 613.125,-1002.01 610.528,-1008.74"/>
<text text-anchor="middle" x="626.5" y="-1041.5" font-family="Helvetica,sans-Serif" font-size="10.00"> +x</text>
<text text-anchor="middle" x="626.5" y="-1030.5" font-family="Helvetica,sans-Serif" font-size="10.00">+y</text>
<text text-anchor="middle" x="626.5" y="-1019.5" font-family="Helvetica,sans-Serif" font-size="10.00">+z</text>
</g>
<!-- Node11&#45;&gt;Node8 -->
<g id="edge11" class="edge"><title>Node11&#45;&gt;Node8</title>
<path fill="none" stroke="#404040" d="M553.369,-708.531C551.419,-696.163 549.439,-683.614 547.475,-671.159"/>
<polygon fill="none" stroke="#404040" points="547.467,-671.11 542.581,-665.807 545.597,-659.257 550.483,-664.56 547.467,-671.11"/>
<text text-anchor="middle" x="575" y="-681.5" font-family="Helvetica,sans-Serif" font-size="10.00"> +imaginary</text>
</g>
</g>
</svg>
        <g id="navigator" transform="translate(0 0)" fill="#404254">
                <rect fill="#f2f5e9" fill-opacity="0.5" stroke="#606060" stroke-width=".5" x="0" y="0" width="60" height="60"/>
                <use id="zoomplus" xlink:href="#zoomPlus" x="17" y="9" onmousedown="handleZoom(evt,'in')"/>
                <use id="zoomminus" xlink:href="#zoomMin" x="42" y="9" onmousedown="handleZoom(evt,'out')"/>
                <use id="reset" xlink:href="#resetDef" x="30" y="36" onmousedown="handleReset()"/>
                <g id="arrowUp" xlink:href="#dirArrow" transform="translate(30 24)" onmousedown="handlePan(0,-1)">
                  <use xlink:href="#rim" fill="#404040">
                        <set attributeName="fill" to="#808080" begin="arrowUp.mouseover" end="arrowUp.mouseout"/>
                  </use>
                  <path fill="none" stroke="white" stroke-width="1.5" d="M0,-3.0v7 M-2.5,-0.5L0,-3.0L2.5,-0.5"/>
                </g>
                <g id="arrowRight" xlink:href="#dirArrow" transform="rotate(90) translate(36 -43)" onmousedown="handlePan(1,0)">
                  <use xlink:href="#rim" fill="#404040">
                        <set attributeName="fill" to="#808080" begin="arrowRight.mouseover" end="arrowRight.mouseout"/>
                  </use>
                  <path fill="none" stroke="white" stroke-width="1.5" d="M0,-3.0v7 M-2.5,-0.5L0,-3.0L2.5,-0.5"/>
                </g>
                <g id="arrowDown" xlink:href="#dirArrow" transform="rotate(180) translate(-30 -48)" onmousedown="handlePan(0,1)">
                  <use xlink:href="#rim" fill="#404040">
                        <set attributeName="fill" to="#808080" begin="arrowDown.mouseover" end="arrowDown.mouseout"/>
                  </use>
                  <path fill="none" stroke="white" stroke-width="1.5" d="M0,-3.0v7 M-2.5,-0.5L0,-3.0L2.5,-0.5"/>
                </g>
                <g id="arrowLeft" xlink:href="#dirArrow" transform="rotate(270) translate(-36 17)" onmousedown="handlePan(-1,0)">
                  <use xlink:href="#rim" fill="#404040">
                        <set attributeName="fill" to="#808080" begin="arrowLeft.mouseover" end="arrowLeft.mouseout"/>
                  </use>
                  <path fill="none" stroke="white" stroke-width="1.5" d="M0,-3.0v7 M-2.5,-0.5L0,-3.0L2.5,-0.5"/>
                </g>
        </g>
        <svg viewBox="0 0 15 15" width="100%" height="30px" preserveAspectRatio="xMaxYMin meet">
         <g id="arrow_out" transform="scale(0.3 0.3)">
          <a xlink:href="classhuman_1_1_quaternion_1_1_editor__coll__graph_org.svg" target="_base">
           <rect id="button" ry="5" rx="5" y="6" x="6" height="38" width="38"
                fill="#f2f5e9" fill-opacity="0.5" stroke="#606060" stroke-width="1.0"/>
           <path id="arrow"
             d="M 11.500037,31.436501 C 11.940474,20.09759 22.043105,11.32322 32.158766,21.979434 L 37.068811,17.246167 C 37.068811,17.246167 37.088388,32 37.088388,32 L 22.160133,31.978069 C 22.160133,31.978069 26.997745,27.140456 26.997745,27.140456 C 18.528582,18.264221 13.291696,25.230495 11.500037,31.436501 z"
             style="fill:#404040;"/>
          </a>
         </g>
        </svg>
</svg>
