<?xml version="1.0" encoding="UTF-8" standalone="no"?>
<!DOCTYPE svg PUBLIC "-//W3C//DTD SVG 1.1//EN"
 "http://www.w3.org/Graphics/SVG/1.1/DTD/svg11.dtd">
<!-- Generated by graphviz version 2.36.0 (20140111.2315)
 -->
<!-- Title: xsensJointStatePublisherModule Pages: 1 -->
<svg width="201pt" height="282pt"
 viewBox="0.00 0.00 201.00 282.00" xmlns="http://www.w3.org/2000/svg" xmlns:xlink="http://www.w3.org/1999/xlink">
<g id="graph0" class="graph" transform="scale(1 1) rotate(0) translate(4 278)">
<title>xsensJointStatePublisherModule</title>
<!-- Node1 -->
<g id="node1" class="node"><title>Node1</title>
<polygon fill="#bfbfbf" stroke="black" points="20,-0.5 20,-167.5 148,-167.5 148,-0.5 20,-0.5"/>
<text text-anchor="start" x="28" y="-155.5" font-family="Helvetica,sans-Serif" font-size="10.00">xsensJointStatePublisher</text>
<text text-anchor="middle" x="84" y="-144.5" font-family="Helvetica,sans-Serif" font-size="10.00">Module</text>
<polyline fill="none" stroke="black" points="20,-137.5 148,-137.5 "/>
<text text-anchor="start" x="28" y="-125.5" font-family="Helvetica,sans-Serif" font-size="10.00">&#45; client_port</text>
<text text-anchor="start" x="28" y="-114.5" font-family="Helvetica,sans-Serif" font-size="10.00">&#45; humanStateDataPort</text>
<text text-anchor="start" x="28" y="-103.5" font-family="Helvetica,sans-Serif" font-size="10.00">&#45; publisher</text>
<text text-anchor="start" x="28" y="-92.5" font-family="Helvetica,sans-Serif" font-size="10.00">&#45; publisher_tf</text>
<text text-anchor="start" x="28" y="-81.5" font-family="Helvetica,sans-Serif" font-size="10.00">&#45; joint_state</text>
<text text-anchor="start" x="28" y="-70.5" font-family="Helvetica,sans-Serif" font-size="10.00">&#45; tf</text>
<polyline fill="none" stroke="black" points="20,-63.5 148,-63.5 "/>
<text text-anchor="start" x="28" y="-51.5" font-family="Helvetica,sans-Serif" font-size="10.00">+ getPeriod()</text>
<text text-anchor="start" x="28" y="-40.5" font-family="Helvetica,sans-Serif" font-size="10.00">+ updateModule()</text>
<text text-anchor="start" x="28" y="-29.5" font-family="Helvetica,sans-Serif" font-size="10.00">+ configure()</text>
<text text-anchor="start" x="28" y="-18.5" font-family="Helvetica,sans-Serif" font-size="10.00">+ close()</text>
<text text-anchor="start" x="28" y="-7.5" font-family="Helvetica,sans-Serif" font-size="10.00">+ onRead()</text>
</g>
<!-- Node2 -->
<g id="node2" class="node"><title>Node2</title>
<g id="a_node2"><a xlink:href="class_r_f_module.html" target="_top" xlink:title="{RFModule\n||}">
<polygon fill="none" stroke="black" points="0,-210.5 0,-267.5 62,-267.5 62,-210.5 0,-210.5"/>
<text text-anchor="middle" x="31" y="-255.5" font-family="Helvetica,sans-Serif" font-size="10.00">RFModule</text>
<polyline fill="none" stroke="black" points="0,-248.5 62,-248.5 "/>
<text text-anchor="middle" x="31" y="-236.5" font-family="Helvetica,sans-Serif" font-size="10.00"> </text>
<polyline fill="none" stroke="black" points="0,-229.5 62,-229.5 "/>
<text text-anchor="middle" x="31" y="-217.5" font-family="Helvetica,sans-Serif" font-size="10.00"> </text>
</a>
</g>
</g>
<!-- Node2&#45;&gt;Node1 -->
<g id="edge1" class="edge"><title>Node2&#45;&gt;Node1</title>
<path fill="none" stroke="midnightblue" d="M43.9466,-200.626C47.4534,-190.503 51.3934,-179.128 55.3979,-167.568"/>
<polygon fill="none" stroke="midnightblue" points="40.564,-199.698 40.5979,-210.293 47.1784,-201.989 40.564,-199.698"/>
</g>
<!-- Node3 -->
<g id="node3" class="node"><title>Node3</title>
<g id="a_node3"><a xlink:href="class_typed_reader_callback.html" target="_top" xlink:title="{TypedReaderCallback\l\&lt; HumanState \&gt;\n||}">
<polygon fill="none" stroke="black" points="80.5,-205 80.5,-273 193.5,-273 193.5,-205 80.5,-205"/>
<text text-anchor="start" x="88.5" y="-261" font-family="Helvetica,sans-Serif" font-size="10.00">TypedReaderCallback</text>
<text text-anchor="middle" x="137" y="-250" font-family="Helvetica,sans-Serif" font-size="10.00">&lt; HumanState &gt;</text>
<polyline fill="none" stroke="black" points="80.5,-243 193.5,-243 "/>
<text text-anchor="middle" x="137" y="-231" font-family="Helvetica,sans-Serif" font-size="10.00"> </text>
<polyline fill="none" stroke="black" points="80.5,-224 193.5,-224 "/>
<text text-anchor="middle" x="137" y="-212" font-family="Helvetica,sans-Serif" font-size="10.00"> </text>
</a>
</g>
</g>
<!-- Node3&#45;&gt;Node1 -->
<g id="edge2" class="edge"><title>Node3&#45;&gt;Node1</title>
<path fill="none" stroke="midnightblue" d="M122.224,-195.344C119.218,-186.666 115.959,-177.26 112.656,-167.724"/>
<polygon fill="none" stroke="midnightblue" points="118.919,-196.498 125.5,-204.801 125.534,-194.206 118.919,-196.498"/>
</g>
</g>
</svg>
