<?xml version="1.0" encoding="UTF-8" standalone="no"?>
<!DOCTYPE svg PUBLIC "-//W3C//DTD SVG 1.1//EN"
 "http://www.w3.org/Graphics/SVG/1.1/DTD/svg11.dtd">
<!-- Generated by graphviz version 2.36.0 (20140111.2315)
 -->
<!-- Title: RFModule Pages: 1 -->
<svg width="487pt" height="304pt"
 viewBox="0.00 0.00 487.00 304.00" xmlns="http://www.w3.org/2000/svg" xmlns:xlink="http://www.w3.org/1999/xlink">
<g id="graph0" class="graph" transform="scale(1 1) rotate(0) translate(4 300)">
<title>RFModule</title>
<!-- Node1 -->
<g id="node1" class="node"><title>Node1</title>
<polygon fill="#bfbfbf" stroke="black" points="197,-238.5 197,-295.5 259,-295.5 259,-238.5 197,-238.5"/>
<text text-anchor="middle" x="228" y="-283.5" font-family="Helvetica,sans-Serif" font-size="10.00">RFModule</text>
<polyline fill="none" stroke="black" points="197,-276.5 259,-276.5 "/>
<text text-anchor="middle" x="228" y="-264.5" font-family="Helvetica,sans-Serif" font-size="10.00"> </text>
<polyline fill="none" stroke="black" points="197,-257.5 259,-257.5 "/>
<text text-anchor="middle" x="228" y="-245.5" font-family="Helvetica,sans-Serif" font-size="10.00"> </text>
</g>
<!-- Node2 -->
<g id="node2" class="node"><title>Node2</title>
<g id="a_node2"><a xlink:href="classhuman_1_1_human_state_provider.html" target="_top" xlink:title="{human::HumanStateProvider\n|&#45; m_pimpl\l|+ HumanStateProvider()\l+ ~HumanStateProvider()\l+ getPeriod()\l+ updateModule()\l+ configure()\l+ close()\l}">
<polygon fill="none" stroke="black" points="-0.5,-45 -0.5,-157 142.5,-157 142.5,-45 -0.5,-45"/>
<text text-anchor="middle" x="71" y="-145" font-family="Helvetica,sans-Serif" font-size="10.00">human::HumanStateProvider</text>
<polyline fill="none" stroke="black" points="-0.5,-138 142.5,-138 "/>
<text text-anchor="start" x="7.5" y="-126" font-family="Helvetica,sans-Serif" font-size="10.00">&#45; m_pimpl</text>
<polyline fill="none" stroke="black" points="-0.5,-119 142.5,-119 "/>
<text text-anchor="start" x="7.5" y="-107" font-family="Helvetica,sans-Serif" font-size="10.00">+ HumanStateProvider()</text>
<text text-anchor="start" x="7.5" y="-96" font-family="Helvetica,sans-Serif" font-size="10.00">+ ~HumanStateProvider()</text>
<text text-anchor="start" x="7.5" y="-85" font-family="Helvetica,sans-Serif" font-size="10.00">+ getPeriod()</text>
<text text-anchor="start" x="7.5" y="-74" font-family="Helvetica,sans-Serif" font-size="10.00">+ updateModule()</text>
<text text-anchor="start" x="7.5" y="-63" font-family="Helvetica,sans-Serif" font-size="10.00">+ configure()</text>
<text text-anchor="start" x="7.5" y="-52" font-family="Helvetica,sans-Serif" font-size="10.00">+ close()</text>
</a>
</g>
</g>
<!-- Node1&#45;&gt;Node2 -->
<g id="edge1" class="edge"><title>Node1&#45;&gt;Node2</title>
<path fill="none" stroke="midnightblue" d="M188.989,-235.564C176.714,-225.361 163.396,-213.616 152,-202 138.387,-188.125 124.672,-172.131 112.496,-157.062"/>
<polygon fill="none" stroke="midnightblue" points="186.922,-238.395 196.874,-242.029 191.36,-232.982 186.922,-238.395"/>
</g>
<!-- Node3 -->
<g id="node3" class="node"><title>Node3</title>
<g id="a_node3"><a xlink:href="class_human_dynamics_estimator.html" target="_top" xlink:title="{HumanDynamicsEstimator\n|&#45; modelFilename\l&#45; count\l|+ getPeriod()\l+ configure()\l+ updateModule()\l+ interruptModule()\l+ close()\l}">
<polygon fill="none" stroke="black" points="161,-45 161,-157 295,-157 295,-45 161,-45"/>
<text text-anchor="middle" x="228" y="-145" font-family="Helvetica,sans-Serif" font-size="10.00">HumanDynamicsEstimator</text>
<polyline fill="none" stroke="black" points="161,-138 295,-138 "/>
<text text-anchor="start" x="169" y="-126" font-family="Helvetica,sans-Serif" font-size="10.00">&#45; modelFilename</text>
<text text-anchor="start" x="169" y="-115" font-family="Helvetica,sans-Serif" font-size="10.00">&#45; count</text>
<polyline fill="none" stroke="black" points="161,-108 295,-108 "/>
<text text-anchor="start" x="169" y="-96" font-family="Helvetica,sans-Serif" font-size="10.00">+ getPeriod()</text>
<text text-anchor="start" x="169" y="-85" font-family="Helvetica,sans-Serif" font-size="10.00">+ configure()</text>
<text text-anchor="start" x="169" y="-74" font-family="Helvetica,sans-Serif" font-size="10.00">+ updateModule()</text>
<text text-anchor="start" x="169" y="-63" font-family="Helvetica,sans-Serif" font-size="10.00">+ interruptModule()</text>
<text text-anchor="start" x="169" y="-52" font-family="Helvetica,sans-Serif" font-size="10.00">+ close()</text>
</a>
</g>
</g>
<!-- Node1&#45;&gt;Node3 -->
<g id="edge2" class="edge"><title>Node1&#45;&gt;Node3</title>
<path fill="none" stroke="midnightblue" d="M228,-228.036C228,-207.013 228,-180.499 228,-157.219"/>
<polygon fill="none" stroke="midnightblue" points="224.5,-228.18 228,-238.18 231.5,-228.18 224.5,-228.18"/>
</g>
<!-- Node4 -->
<g id="node4" class="node"><title>Node4</title>
<g id="a_node4"><a xlink:href="class_human_forces_provider.html" target="_top" xlink:title="{HumanForcesProvider\n|&#45; m_period\l&#45; m_humanJointConfiguration_port\l&#45; m_forcePoly1\l&#45; m_forcePoly2\l&#45; m_PolyRobot\l&#45; m_robotLeftArmForce_port\l&#45; m_robotRightArmForce_port\l&#45; m_output_port\l&#45; m_readers\l|+ HumanForcesProvider()\l+ ~HumanForcesProvider()\l+ getPeriod()\l+ configure()\l+ updateModule()\l+ close()\l}">
<polygon fill="none" stroke="black" points="313,-1 313,-201 479,-201 479,-1 313,-1"/>
<text text-anchor="middle" x="396" y="-189" font-family="Helvetica,sans-Serif" font-size="10.00">HumanForcesProvider</text>
<polyline fill="none" stroke="black" points="313,-182 479,-182 "/>
<text text-anchor="start" x="321" y="-170" font-family="Helvetica,sans-Serif" font-size="10.00">&#45; m_period</text>
<text text-anchor="start" x="321" y="-159" font-family="Helvetica,sans-Serif" font-size="10.00">&#45; m_humanJointConfiguration_port</text>
<text text-anchor="start" x="321" y="-148" font-family="Helvetica,sans-Serif" font-size="10.00">&#45; m_forcePoly1</text>
<text text-anchor="start" x="321" y="-137" font-family="Helvetica,sans-Serif" font-size="10.00">&#45; m_forcePoly2</text>
<text text-anchor="start" x="321" y="-126" font-family="Helvetica,sans-Serif" font-size="10.00">&#45; m_PolyRobot</text>
<text text-anchor="start" x="321" y="-115" font-family="Helvetica,sans-Serif" font-size="10.00">&#45; m_robotLeftArmForce_port</text>
<text text-anchor="start" x="321" y="-104" font-family="Helvetica,sans-Serif" font-size="10.00">&#45; m_robotRightArmForce_port</text>
<text text-anchor="start" x="321" y="-93" font-family="Helvetica,sans-Serif" font-size="10.00">&#45; m_output_port</text>
<text text-anchor="start" x="321" y="-82" font-family="Helvetica,sans-Serif" font-size="10.00">&#45; m_readers</text>
<polyline fill="none" stroke="black" points="313,-75 479,-75 "/>
<text text-anchor="start" x="321" y="-63" font-family="Helvetica,sans-Serif" font-size="10.00">+ HumanForcesProvider()</text>
<text text-anchor="start" x="321" y="-52" font-family="Helvetica,sans-Serif" font-size="10.00">+ ~HumanForcesProvider()</text>
<text text-anchor="start" x="321" y="-41" font-family="Helvetica,sans-Serif" font-size="10.00">+ getPeriod()</text>
<text text-anchor="start" x="321" y="-30" font-family="Helvetica,sans-Serif" font-size="10.00">+ configure()</text>
<text text-anchor="start" x="321" y="-19" font-family="Helvetica,sans-Serif" font-size="10.00">+ updateModule()</text>
<text text-anchor="start" x="321" y="-8" font-family="Helvetica,sans-Serif" font-size="10.00">+ close()</text>
</a>
</g>
</g>
<!-- Node1&#45;&gt;Node4 -->
<g id="edge3" class="edge"><title>Node1&#45;&gt;Node4</title>
<path fill="none" stroke="midnightblue" d="M266.901,-234.861C279.065,-224.699 292.346,-213.154 304,-202 306.983,-199.146 309.987,-196.214 312.997,-193.229"/>
<polygon fill="none" stroke="midnightblue" points="264.568,-232.248 259.096,-241.321 269.031,-237.641 264.568,-232.248"/>
</g>
</g>
</svg>
