<?xml version="1.0" encoding="UTF-8" standalone="no"?>
<!DOCTYPE svg PUBLIC "-//W3C//DTD SVG 1.1//EN"
 "http://www.w3.org/Graphics/SVG/1.1/DTD/svg11.dtd">
<!-- Generated by graphviz version 2.36.0 (20140111.2315)
 -->
<!-- Title: /home/travis/build/robotology&#45;playground/human&#45;dynamics&#45;estimation/build/human&#45;state&#45;provider/autogenerated/include/thrifts/Vector3.h Pages: 1 -->
<!--zoomable 520 -->
<svg id="main" version="1.1" xmlns="http://www.w3.org/2000/svg" xmlns:xlink="http://www.w3.org/1999/xlink" xml:space="preserve" onload="init(evt)">
<style type="text/css"><![CDATA[
.edge:hover path { stroke: red; }
.edge:hover polygon { stroke: red; fill: red; }
]]></style>
<script type="text/javascript"><![CDATA[
var edges = document.getElementsByTagName('g');
if (edges && edges.length) {
  for (var i=0;i<edges.length;i++) {
    if (edges[i].id.substr(0,4)=='edge') {
      edges[i].setAttribute('class','edge');
    }
  }
}
]]></script>
        <defs>
                <circle id="rim" cx="0" cy="0" r="7"/>
                <circle id="rim2" cx="0" cy="0" r="3.5"/>
                <g id="zoomPlus">
                        <use xlink:href="#rim" fill="#404040">
                                <set attributeName="fill" to="#808080" begin="zoomplus.mouseover" end="zoomplus.mouseout"/>
                        </use>
                        <path d="M-4,0h8M0,-4v8" fill="none" stroke="white" stroke-width="1.5" pointer-events="none"/>
                </g>
                <g id="zoomMin">
                        <use xlink:href="#rim" fill="#404040">
                                <set attributeName="fill" to="#808080" begin="zoomminus.mouseover" end="zoomminus.mouseout"/>
                        </use>
                        <path d="M-4,0h8" fill="none" stroke="white" stroke-width="1.5" pointer-events="none"/>
                </g>
                <g id="dirArrow">
                        <path fill="none" stroke="white" stroke-width="1.5" d="M0,-3.0v7 M-2.5,-0.5L0,-3.0L2.5,-0.5"/>
                </g>
               <g id="resetDef">
                       <use xlink:href="#rim2" fill="#404040">
                               <set attributeName="fill" to="#808080" begin="reset.mouseover" end="reset.mouseout"/>
                       </use>
               </g>
        </defs>

<script type="text/javascript">
var viewWidth = 1303;
var viewHeight = 520;
var sectionId = 'dynsection-1';
</script>
<script xlink:href="svgpan.js"/>
<svg id="graph" class="graph">
<g id="viewport">
<title>/home/travis/build/robotology&#45;playground/human&#45;dynamics&#45;estimation/build/human&#45;state&#45;provider/autogenerated/include/thrifts/Vector3.h</title>
<!-- Node1 -->
<g id="node1" class="node"><title>Node1</title>
<polygon fill="#bfbfbf" stroke="black" points="390.5,-437 390.5,-511 533.5,-511 533.5,-437 390.5,-437"/>
<text text-anchor="start" x="398.5" y="-499" font-family="Helvetica,sans-Serif" font-size="10.00">/home/travis/build</text>
<text text-anchor="start" x="398.5" y="-488" font-family="Helvetica,sans-Serif" font-size="10.00">/robotology&#45;playground</text>
<text text-anchor="start" x="398.5" y="-477" font-family="Helvetica,sans-Serif" font-size="10.00">/human&#45;dynamics&#45;estimation</text>
<text text-anchor="start" x="398.5" y="-466" font-family="Helvetica,sans-Serif" font-size="10.00">/build/human&#45;state&#45;provider</text>
<text text-anchor="start" x="398.5" y="-455" font-family="Helvetica,sans-Serif" font-size="10.00">/autogenerated/include/thrifts</text>
<text text-anchor="middle" x="462" y="-444" font-family="Helvetica,sans-Serif" font-size="10.00">/Vector3.h</text>
</g>
<!-- Node2 -->
<g id="node2" class="node"><title>Node2</title>
<g id="a_node2"><a xlink:href="__yarp__idl___2thrifts_2humanstate_2_human_state_8h.html" target="_top" xlink:title="/home/travis/build\l/robotology&#45;playground\l/human&#45;dynamics&#45;estimation\l/build/human&#45;state&#45;provider\l/_yarp_idl_/thrifts/humanstate\l/HumanState.h">
<polygon fill="none" stroke="black" points="276,-213 276,-287 422,-287 422,-213 276,-213"/>
<text text-anchor="start" x="284" y="-275" font-family="Helvetica,sans-Serif" font-size="10.00">/home/travis/build</text>
<text text-anchor="start" x="284" y="-264" font-family="Helvetica,sans-Serif" font-size="10.00">/robotology&#45;playground</text>
<text text-anchor="start" x="284" y="-253" font-family="Helvetica,sans-Serif" font-size="10.00">/human&#45;dynamics&#45;estimation</text>
<text text-anchor="start" x="284" y="-242" font-family="Helvetica,sans-Serif" font-size="10.00">/build/human&#45;state&#45;provider</text>
<text text-anchor="start" x="284" y="-231" font-family="Helvetica,sans-Serif" font-size="10.00">/_yarp_idl_/thrifts/humanstate</text>
<text text-anchor="middle" x="349" y="-220" font-family="Helvetica,sans-Serif" font-size="10.00">/HumanState.h</text>
</a>
</g>
</g>
<!-- Node1&#45;&gt;Node2 -->
<g id="edge1" class="edge"><title>Node1&#45;&gt;Node2</title>
<path fill="none" stroke="midnightblue" d="M435.511,-428.223C430.24,-418.964 424.841,-409.222 420,-400 400.089,-362.069 379.22,-317.626 365.302,-287.212"/>
<polygon fill="midnightblue" stroke="midnightblue" points="432.489,-429.989 440.504,-436.919 438.56,-426.504 432.489,-429.989"/>
</g>
<!-- Node4 -->
<g id="node4" class="node"><title>Node4</title>
<g id="a_node4"><a xlink:href="human-state-provider_2__yarp__idl___2thrifts_2humanstate_2_quaternion_8h.html" target="_top" xlink:title="/home/travis/build\l/robotology&#45;playground\l/human&#45;dynamics&#45;estimation\l/build/human&#45;state&#45;provider\l/_yarp_idl_/thrifts/humanstate\l/Quaternion.h">
<polygon fill="none" stroke="black" points="172,-325 172,-399 318,-399 318,-325 172,-325"/>
<text text-anchor="start" x="180" y="-387" font-family="Helvetica,sans-Serif" font-size="10.00">/home/travis/build</text>
<text text-anchor="start" x="180" y="-376" font-family="Helvetica,sans-Serif" font-size="10.00">/robotology&#45;playground</text>
<text text-anchor="start" x="180" y="-365" font-family="Helvetica,sans-Serif" font-size="10.00">/human&#45;dynamics&#45;estimation</text>
<text text-anchor="start" x="180" y="-354" font-family="Helvetica,sans-Serif" font-size="10.00">/build/human&#45;state&#45;provider</text>
<text text-anchor="start" x="180" y="-343" font-family="Helvetica,sans-Serif" font-size="10.00">/_yarp_idl_/thrifts/humanstate</text>
<text text-anchor="middle" x="245" y="-332" font-family="Helvetica,sans-Serif" font-size="10.00">/Quaternion.h</text>
</a>
</g>
</g>
<!-- Node1&#45;&gt;Node4 -->
<g id="edge3" class="edge"><title>Node1&#45;&gt;Node4</title>
<path fill="none" stroke="midnightblue" d="M381.834,-432.363C360.319,-421.457 337.206,-409.741 316.214,-399.099"/>
<polygon fill="midnightblue" stroke="midnightblue" points="380.444,-435.582 390.946,-436.982 383.609,-429.339 380.444,-435.582"/>
</g>
<!-- Node5 -->
<g id="node5" class="node"><title>Node5</title>
<g id="a_node5"><a xlink:href="human-state-provider_2__yarp__idl___2thrifts_2humanstate_2_vector3_8cpp.html" target="_top" xlink:title="/home/travis/build\l/robotology&#45;playground\l/human&#45;dynamics&#45;estimation\l/build/human&#45;state&#45;provider\l/_yarp_idl_/thrifts/humanstate\l/Vector3.cpp">
<polygon fill="none" stroke="black" points="602,-325 602,-399 748,-399 748,-325 602,-325"/>
<text text-anchor="start" x="610" y="-387" font-family="Helvetica,sans-Serif" font-size="10.00">/home/travis/build</text>
<text text-anchor="start" x="610" y="-376" font-family="Helvetica,sans-Serif" font-size="10.00">/robotology&#45;playground</text>
<text text-anchor="start" x="610" y="-365" font-family="Helvetica,sans-Serif" font-size="10.00">/human&#45;dynamics&#45;estimation</text>
<text text-anchor="start" x="610" y="-354" font-family="Helvetica,sans-Serif" font-size="10.00">/build/human&#45;state&#45;provider</text>
<text text-anchor="start" x="610" y="-343" font-family="Helvetica,sans-Serif" font-size="10.00">/_yarp_idl_/thrifts/humanstate</text>
<text text-anchor="middle" x="675" y="-332" font-family="Helvetica,sans-Serif" font-size="10.00">/Vector3.cpp</text>
</a>
</g>
</g>
<!-- Node1&#45;&gt;Node5 -->
<g id="edge5" class="edge"><title>Node1&#45;&gt;Node5</title>
<path fill="none" stroke="midnightblue" d="M540.688,-432.363C561.806,-421.457 584.493,-409.741 605.099,-399.099"/>
<polygon fill="midnightblue" stroke="midnightblue" points="539.023,-429.283 531.744,-436.982 542.235,-435.503 539.023,-429.283"/>
</g>
<!-- Node6 -->
<g id="node6" class="node"><title>Node6</title>
<g id="a_node6"><a xlink:href="autogenerated_2include_2thrifts_2_human_state_8h.html" target="_top" xlink:title="/home/travis/build\l/robotology&#45;playground\l/human&#45;dynamics&#45;estimation\l/build/human&#45;state&#45;provider\l/autogenerated/include/thrifts\l/HumanState.h">
<polygon fill="none" stroke="black" points="440.5,-213 440.5,-287 583.5,-287 583.5,-213 440.5,-213"/>
<text text-anchor="start" x="448.5" y="-275" font-family="Helvetica,sans-Serif" font-size="10.00">/home/travis/build</text>
<text text-anchor="start" x="448.5" y="-264" font-family="Helvetica,sans-Serif" font-size="10.00">/robotology&#45;playground</text>
<text text-anchor="start" x="448.5" y="-253" font-family="Helvetica,sans-Serif" font-size="10.00">/human&#45;dynamics&#45;estimation</text>
<text text-anchor="start" x="448.5" y="-242" font-family="Helvetica,sans-Serif" font-size="10.00">/build/human&#45;state&#45;provider</text>
<text text-anchor="start" x="448.5" y="-231" font-family="Helvetica,sans-Serif" font-size="10.00">/autogenerated/include/thrifts</text>
<text text-anchor="middle" x="512" y="-220" font-family="Helvetica,sans-Serif" font-size="10.00">/HumanState.h</text>
</a>
</g>
</g>
<!-- Node1&#45;&gt;Node6 -->
<g id="edge6" class="edge"><title>Node1&#45;&gt;Node6</title>
<path fill="none" stroke="midnightblue" d="M438.391,-427.286C426.09,-396.98 416.365,-356.892 431,-324 437.234,-309.99 447.632,-297.538 458.935,-287.06"/>
<polygon fill="midnightblue" stroke="midnightblue" points="435.294,-428.945 442.447,-436.761 441.729,-426.19 435.294,-428.945"/>
</g>
<!-- Node19 -->
<g id="node19" class="node"><title>Node19</title>
<g id="a_node19"><a xlink:href="human-state-provider_2autogenerated_2include_2thrifts_2_quaternion_8h.html" target="_top" xlink:title="/home/travis/build\l/robotology&#45;playground\l/human&#45;dynamics&#45;estimation\l/build/human&#45;state&#45;provider\l/autogenerated/include/thrifts\l/Quaternion.h">
<polygon fill="none" stroke="black" points="440.5,-325 440.5,-399 583.5,-399 583.5,-325 440.5,-325"/>
<text text-anchor="start" x="448.5" y="-387" font-family="Helvetica,sans-Serif" font-size="10.00">/home/travis/build</text>
<text text-anchor="start" x="448.5" y="-376" font-family="Helvetica,sans-Serif" font-size="10.00">/robotology&#45;playground</text>
<text text-anchor="start" x="448.5" y="-365" font-family="Helvetica,sans-Serif" font-size="10.00">/human&#45;dynamics&#45;estimation</text>
<text text-anchor="start" x="448.5" y="-354" font-family="Helvetica,sans-Serif" font-size="10.00">/build/human&#45;state&#45;provider</text>
<text text-anchor="start" x="448.5" y="-343" font-family="Helvetica,sans-Serif" font-size="10.00">/autogenerated/include/thrifts</text>
<text text-anchor="middle" x="512" y="-332" font-family="Helvetica,sans-Serif" font-size="10.00">/Quaternion.h</text>
</a>
</g>
</g>
<!-- Node1&#45;&gt;Node19 -->
<g id="edge21" class="edge"><title>Node1&#45;&gt;Node19</title>
<path fill="none" stroke="midnightblue" d="M482.616,-427.645C486.94,-418.131 491.445,-408.22 495.591,-399.099"/>
<polygon fill="midnightblue" stroke="midnightblue" points="479.324,-426.43 478.372,-436.982 485.696,-429.327 479.324,-426.43"/>
</g>
<!-- Node22 -->
<g id="node22" class="node"><title>Node22</title>
<g id="a_node22"><a xlink:href="human-state-provider_2autogenerated_2src_2_vector3_8cpp.html" target="_top" xlink:title="/home/travis/build\l/robotology&#45;playground\l/human&#45;dynamics&#45;estimation\l/build/human&#45;state&#45;provider\l/autogenerated/src/Vector3.cpp">
<polygon fill="none" stroke="black" points="766.5,-330.5 766.5,-393.5 919.5,-393.5 919.5,-330.5 766.5,-330.5"/>
<text text-anchor="start" x="774.5" y="-381.5" font-family="Helvetica,sans-Serif" font-size="10.00">/home/travis/build</text>
<text text-anchor="start" x="774.5" y="-370.5" font-family="Helvetica,sans-Serif" font-size="10.00">/robotology&#45;playground</text>
<text text-anchor="start" x="774.5" y="-359.5" font-family="Helvetica,sans-Serif" font-size="10.00">/human&#45;dynamics&#45;estimation</text>
<text text-anchor="start" x="774.5" y="-348.5" font-family="Helvetica,sans-Serif" font-size="10.00">/build/human&#45;state&#45;provider</text>
<text text-anchor="middle" x="843" y="-337.5" font-family="Helvetica,sans-Serif" font-size="10.00">/autogenerated/src/Vector3.cpp</text>
</a>
</g>
</g>
<!-- Node1&#45;&gt;Node22 -->
<g id="edge26" class="edge"><title>Node1&#45;&gt;Node22</title>
<path fill="none" stroke="midnightblue" d="M543.709,-456.552C603.505,-443.608 686.209,-423.809 757,-400 762.854,-398.031 768.865,-395.831 774.858,-393.513"/>
<polygon fill="midnightblue" stroke="midnightblue" points="542.61,-453.208 533.567,-458.729 544.079,-460.052 542.61,-453.208"/>
</g>
<!-- Node3 -->
<g id="node3" class="node"><title>Node3</title>
<g id="a_node3"><a xlink:href="_human_state__index_8h.html" target="_top" xlink:title="/home/travis/build\l/robotology&#45;playground\l/human&#45;dynamics&#45;estimation\l/build/human&#45;state&#45;provider\l/_yarp_idl_/thrifts/humanstate\l/HumanState_index.h">
<polygon fill="none" stroke="black" points="35,-101 35,-175 181,-175 181,-101 35,-101"/>
<text text-anchor="start" x="43" y="-163" font-family="Helvetica,sans-Serif" font-size="10.00">/home/travis/build</text>
<text text-anchor="start" x="43" y="-152" font-family="Helvetica,sans-Serif" font-size="10.00">/robotology&#45;playground</text>
<text text-anchor="start" x="43" y="-141" font-family="Helvetica,sans-Serif" font-size="10.00">/human&#45;dynamics&#45;estimation</text>
<text text-anchor="start" x="43" y="-130" font-family="Helvetica,sans-Serif" font-size="10.00">/build/human&#45;state&#45;provider</text>
<text text-anchor="start" x="43" y="-119" font-family="Helvetica,sans-Serif" font-size="10.00">/_yarp_idl_/thrifts/humanstate</text>
<text text-anchor="middle" x="108" y="-108" font-family="Helvetica,sans-Serif" font-size="10.00">/HumanState_index.h</text>
</a>
</g>
</g>
<!-- Node2&#45;&gt;Node3 -->
<g id="edge2" class="edge"><title>Node2&#45;&gt;Node3</title>
<path fill="none" stroke="midnightblue" d="M266.464,-211.328C238.833,-198.716 208.237,-184.751 181.356,-172.482"/>
<polygon fill="midnightblue" stroke="midnightblue" points="265.16,-214.58 275.71,-215.548 268.067,-208.212 265.16,-214.58"/>
</g>
<!-- Node4&#45;&gt;Node3 -->
<g id="edge4" class="edge"><title>Node4&#45;&gt;Node3</title>
<path fill="none" stroke="midnightblue" d="M217.407,-316.287C191.776,-274.753 154.087,-213.682 130.307,-175.147"/>
<polygon fill="midnightblue" stroke="midnightblue" points="214.453,-318.166 222.684,-324.838 220.41,-314.49 214.453,-318.166"/>
</g>
<!-- Node7 -->
<g id="node7" class="node"><title>Node7</title>
<g id="a_node7"><a xlink:href="__yarp__idl___2thrifts_2humanstate_2_human_state_8cpp.html" target="_top" xlink:title="/home/travis/build\l/robotology&#45;playground\l/human&#45;dynamics&#45;estimation\l/build/human&#45;state&#45;provider\l/_yarp_idl_/thrifts/humanstate\l/HumanState.cpp">
<polygon fill="none" stroke="black" points="789,-101 789,-175 935,-175 935,-101 789,-101"/>
<text text-anchor="start" x="797" y="-163" font-family="Helvetica,sans-Serif" font-size="10.00">/home/travis/build</text>
<text text-anchor="start" x="797" y="-152" font-family="Helvetica,sans-Serif" font-size="10.00">/robotology&#45;playground</text>
<text text-anchor="start" x="797" y="-141" font-family="Helvetica,sans-Serif" font-size="10.00">/human&#45;dynamics&#45;estimation</text>
<text text-anchor="start" x="797" y="-130" font-family="Helvetica,sans-Serif" font-size="10.00">/build/human&#45;state&#45;provider</text>
<text text-anchor="start" x="797" y="-119" font-family="Helvetica,sans-Serif" font-size="10.00">/_yarp_idl_/thrifts/humanstate</text>
<text text-anchor="middle" x="862" y="-108" font-family="Helvetica,sans-Serif" font-size="10.00">/HumanState.cpp</text>
</a>
</g>
</g>
<!-- Node6&#45;&gt;Node7 -->
<g id="edge7" class="edge"><title>Node6&#45;&gt;Node7</title>
<path fill="none" stroke="midnightblue" d="M593.395,-212.158C675.603,-187.317 702.315,-200.63 780,-176 782.829,-175.103 785.689,-174.136 788.561,-173.113"/>
<polygon fill="midnightblue" stroke="midnightblue" points="592.139,-208.884 583.636,-215.205 594.225,-215.565 592.139,-208.884"/>
</g>
<!-- Node8 -->
<g id="node8" class="node"><title>Node8</title>
<g id="a_node8"><a xlink:href="autogenerated_2src_2_human_state_8cpp.html" target="_top" xlink:title="/home/travis/build\l/robotology&#45;playground\l/human&#45;dynamics&#45;estimation\l/build/human&#45;state&#45;provider\l/autogenerated/src/HumanState.cpp">
<polygon fill="none" stroke="black" points="953,-106.5 953,-169.5 1127,-169.5 1127,-106.5 953,-106.5"/>
<text text-anchor="start" x="961" y="-157.5" font-family="Helvetica,sans-Serif" font-size="10.00">/home/travis/build</text>
<text text-anchor="start" x="961" y="-146.5" font-family="Helvetica,sans-Serif" font-size="10.00">/robotology&#45;playground</text>
<text text-anchor="start" x="961" y="-135.5" font-family="Helvetica,sans-Serif" font-size="10.00">/human&#45;dynamics&#45;estimation</text>
<text text-anchor="start" x="961" y="-124.5" font-family="Helvetica,sans-Serif" font-size="10.00">/build/human&#45;state&#45;provider</text>
<text text-anchor="middle" x="1040" y="-113.5" font-family="Helvetica,sans-Serif" font-size="10.00">/autogenerated/src/HumanState.cpp</text>
</a>
</g>
</g>
<!-- Node6&#45;&gt;Node8 -->
<g id="edge8" class="edge"><title>Node6&#45;&gt;Node8</title>
<path fill="none" stroke="midnightblue" d="M593.285,-212.259C746.309,-172.551 794.621,-211.771 944,-176 951.469,-174.211 959.138,-171.98 966.728,-169.504"/>
<polygon fill="midnightblue" stroke="midnightblue" points="592.295,-208.901 583.534,-214.858 594.098,-215.665 592.295,-208.901"/>
</g>
<!-- Node9 -->
<g id="node9" class="node"><title>Node9</title>
<g id="a_node9"><a xlink:href="_human_forces_provider_8h.html" target="_top" xlink:title="/home/travis/build\l/robotology&#45;playground\l/human&#45;dynamics&#45;estimation\l/human&#45;forces&#45;provider/include\l/HumanForcesProvider.h">
<polygon fill="none" stroke="black" points="437,-106.5 437,-169.5 587,-169.5 587,-106.5 437,-106.5"/>
<text text-anchor="start" x="445" y="-157.5" font-family="Helvetica,sans-Serif" font-size="10.00">/home/travis/build</text>
<text text-anchor="start" x="445" y="-146.5" font-family="Helvetica,sans-Serif" font-size="10.00">/robotology&#45;playground</text>
<text text-anchor="start" x="445" y="-135.5" font-family="Helvetica,sans-Serif" font-size="10.00">/human&#45;dynamics&#45;estimation</text>
<text text-anchor="start" x="445" y="-124.5" font-family="Helvetica,sans-Serif" font-size="10.00">/human&#45;forces&#45;provider/include</text>
<text text-anchor="middle" x="512" y="-113.5" font-family="Helvetica,sans-Serif" font-size="10.00">/HumanForcesProvider.h</text>
</a>
</g>
</g>
<!-- Node6&#45;&gt;Node9 -->
<g id="edge9" class="edge"><title>Node6&#45;&gt;Node9</title>
<path fill="none" stroke="midnightblue" d="M512,-202.859C512,-191.621 512,-179.876 512,-169.568"/>
<polygon fill="midnightblue" stroke="midnightblue" points="508.5,-202.982 512,-212.982 515.5,-202.982 508.5,-202.982"/>
</g>
<!-- Node12 -->
<g id="node12" class="node"><title>Node12</title>
<g id="a_node12"><a xlink:href="_robot_frame_transformer_8h.html" target="_top" xlink:title="/home/travis/build\l/robotology&#45;playground\l/human&#45;dynamics&#45;estimation\l/human&#45;forces&#45;provider/include\l/RobotFrameTransformer.h">
<polygon fill="none" stroke="black" points="1145,-106.5 1145,-169.5 1295,-169.5 1295,-106.5 1145,-106.5"/>
<text text-anchor="start" x="1153" y="-157.5" font-family="Helvetica,sans-Serif" font-size="10.00">/home/travis/build</text>
<text text-anchor="start" x="1153" y="-146.5" font-family="Helvetica,sans-Serif" font-size="10.00">/robotology&#45;playground</text>
<text text-anchor="start" x="1153" y="-135.5" font-family="Helvetica,sans-Serif" font-size="10.00">/human&#45;dynamics&#45;estimation</text>
<text text-anchor="start" x="1153" y="-124.5" font-family="Helvetica,sans-Serif" font-size="10.00">/human&#45;forces&#45;provider/include</text>
<text text-anchor="middle" x="1220" y="-113.5" font-family="Helvetica,sans-Serif" font-size="10.00">/RobotFrameTransformer.h</text>
</a>
</g>
</g>
<!-- Node6&#45;&gt;Node12 -->
<g id="edge12" class="edge"><title>Node6&#45;&gt;Node12</title>
<path fill="none" stroke="midnightblue" d="M593.846,-212.117C829.545,-154.969 904.313,-232.834 1136,-176 1142.81,-174.33 1149.76,-172.14 1156.6,-169.66"/>
<polygon fill="midnightblue" stroke="midnightblue" points="592.814,-208.767 583.951,-214.572 594.499,-215.561 592.814,-208.767"/>
</g>
<!-- Node14 -->
<g id="node14" class="node"><title>Node14</title>
<g id="a_node14"><a xlink:href="_human_state_provider_private_8h.html" target="_top" xlink:title="/home/travis/build\l/robotology&#45;playground\l/human&#45;dynamics&#45;estimation\l/human&#45;state&#45;provider/include\l/private/HumanStateProviderPrivate.h">
<polygon fill="none" stroke="black" points="199,-106.5 199,-169.5 381,-169.5 381,-106.5 199,-106.5"/>
<text text-anchor="start" x="207" y="-157.5" font-family="Helvetica,sans-Serif" font-size="10.00">/home/travis/build</text>
<text text-anchor="start" x="207" y="-146.5" font-family="Helvetica,sans-Serif" font-size="10.00">/robotology&#45;playground</text>
<text text-anchor="start" x="207" y="-135.5" font-family="Helvetica,sans-Serif" font-size="10.00">/human&#45;dynamics&#45;estimation</text>
<text text-anchor="start" x="207" y="-124.5" font-family="Helvetica,sans-Serif" font-size="10.00">/human&#45;state&#45;provider/include</text>
<text text-anchor="middle" x="290" y="-113.5" font-family="Helvetica,sans-Serif" font-size="10.00">/private/HumanStateProviderPrivate.h</text>
</a>
</g>
</g>
<!-- Node6&#45;&gt;Node14 -->
<g id="edge15" class="edge"><title>Node6&#45;&gt;Node14</title>
<path fill="none" stroke="midnightblue" d="M431.089,-208.909C404.934,-195.95 376.369,-181.795 351.824,-169.633"/>
<polygon fill="midnightblue" stroke="midnightblue" points="429.715,-212.134 440.23,-213.438 432.823,-205.862 429.715,-212.134"/>
</g>
<!-- Node16 -->
<g id="node16" class="node"><title>Node16</title>
<g id="a_node16"><a xlink:href="_human_state_provider_8cpp.html" target="_top" xlink:title="/home/travis/build\l/robotology&#45;playground\l/human&#45;dynamics&#45;estimation\l/human&#45;state&#45;provider/src\l/HumanStateProvider.cpp">
<polygon fill="none" stroke="black" points="338,-0.5 338,-63.5 480,-63.5 480,-0.5 338,-0.5"/>
<text text-anchor="start" x="346" y="-51.5" font-family="Helvetica,sans-Serif" font-size="10.00">/home/travis/build</text>
<text text-anchor="start" x="346" y="-40.5" font-family="Helvetica,sans-Serif" font-size="10.00">/robotology&#45;playground</text>
<text text-anchor="start" x="346" y="-29.5" font-family="Helvetica,sans-Serif" font-size="10.00">/human&#45;dynamics&#45;estimation</text>
<text text-anchor="start" x="346" y="-18.5" font-family="Helvetica,sans-Serif" font-size="10.00">/human&#45;state&#45;provider/src</text>
<text text-anchor="middle" x="409" y="-7.5" font-family="Helvetica,sans-Serif" font-size="10.00">/HumanStateProvider.cpp</text>
</a>
</g>
</g>
<!-- Node6&#45;&gt;Node16 -->
<g id="edge19" class="edge"><title>Node6&#45;&gt;Node16</title>
<path fill="none" stroke="midnightblue" d="M450.978,-205.745C442.018,-196.869 433.852,-186.874 428,-176 409.069,-140.824 406.352,-93.9701 406.994,-63.6446"/>
<polygon fill="midnightblue" stroke="midnightblue" points="448.617,-208.329 458.304,-212.619 453.407,-203.225 448.617,-208.329"/>
</g>
<!-- Node18 -->
<g id="node18" class="node"><title>Node18</title>
<g id="a_node18"><a xlink:href="_human_joint_state_bridge_8cpp.html" target="_top" xlink:title="/home/travis/build\l/robotology&#45;playground\l/human&#45;dynamics&#45;estimation\l/human&#45;viz&#45;bridge/src/HumanJoint\lStateBridge.cpp">
<polygon fill="none" stroke="black" points="605,-106.5 605,-169.5 771,-169.5 771,-106.5 605,-106.5"/>
<text text-anchor="start" x="613" y="-157.5" font-family="Helvetica,sans-Serif" font-size="10.00">/home/travis/build</text>
<text text-anchor="start" x="613" y="-146.5" font-family="Helvetica,sans-Serif" font-size="10.00">/robotology&#45;playground</text>
<text text-anchor="start" x="613" y="-135.5" font-family="Helvetica,sans-Serif" font-size="10.00">/human&#45;dynamics&#45;estimation</text>
<text text-anchor="start" x="613" y="-124.5" font-family="Helvetica,sans-Serif" font-size="10.00">/human&#45;viz&#45;bridge/src/HumanJoint</text>
<text text-anchor="middle" x="688" y="-113.5" font-family="Helvetica,sans-Serif" font-size="10.00">StateBridge.cpp</text>
</a>
</g>
</g>
<!-- Node6&#45;&gt;Node18 -->
<g id="edge20" class="edge"><title>Node6&#45;&gt;Node18</title>
<path fill="none" stroke="midnightblue" d="M578.178,-207.639C598.39,-195.006 620.242,-181.349 639.091,-169.568"/>
<polygon fill="midnightblue" stroke="midnightblue" points="576.254,-204.714 569.629,-212.982 579.964,-210.65 576.254,-204.714"/>
</g>
<!-- Node10 -->
<g id="node10" class="node"><title>Node10</title>
<g id="a_node10"><a xlink:href="_human_forces_provider_8cpp.html" target="_top" xlink:title="/home/travis/build\l/robotology&#45;playground\l/human&#45;dynamics&#45;estimation\l/human&#45;forces&#45;provider/src\l/HumanForcesProvider.cpp">
<polygon fill="none" stroke="black" points="822,-0.5 822,-63.5 964,-63.5 964,-0.5 822,-0.5"/>
<text text-anchor="start" x="830" y="-51.5" font-family="Helvetica,sans-Serif" font-size="10.00">/home/travis/build</text>
<text text-anchor="start" x="830" y="-40.5" font-family="Helvetica,sans-Serif" font-size="10.00">/robotology&#45;playground</text>
<text text-anchor="start" x="830" y="-29.5" font-family="Helvetica,sans-Serif" font-size="10.00">/human&#45;dynamics&#45;estimation</text>
<text text-anchor="start" x="830" y="-18.5" font-family="Helvetica,sans-Serif" font-size="10.00">/human&#45;forces&#45;provider/src</text>
<text text-anchor="middle" x="893" y="-7.5" font-family="Helvetica,sans-Serif" font-size="10.00">/HumanForcesProvider.cpp</text>
</a>
</g>
</g>
<!-- Node9&#45;&gt;Node10 -->
<g id="edge10" class="edge"><title>Node9&#45;&gt;Node10</title>
<path fill="none" stroke="midnightblue" d="M588.109,-102.721C590.759,-101.77 593.394,-100.859 596,-100 671.553,-75.0973 760.92,-56.3185 821.747,-45.07"/>
<polygon fill="midnightblue" stroke="midnightblue" points="586.622,-99.5412 578.486,-106.328 589.078,-106.096 586.622,-99.5412"/>
</g>
<!-- Node11 -->
<g id="node11" class="node"><title>Node11</title>
<g id="a_node11"><a xlink:href="human-forces-provider_2src_2main_8cpp.html" target="_top" xlink:title="/home/travis/build\l/robotology&#45;playground\l/human&#45;dynamics&#45;estimation\l/human&#45;forces&#45;provider/src\l/main.cpp">
<polygon fill="none" stroke="black" points="498,-0.5 498,-63.5 640,-63.5 640,-0.5 498,-0.5"/>
<text text-anchor="start" x="506" y="-51.5" font-family="Helvetica,sans-Serif" font-size="10.00">/home/travis/build</text>
<text text-anchor="start" x="506" y="-40.5" font-family="Helvetica,sans-Serif" font-size="10.00">/robotology&#45;playground</text>
<text text-anchor="start" x="506" y="-29.5" font-family="Helvetica,sans-Serif" font-size="10.00">/human&#45;dynamics&#45;estimation</text>
<text text-anchor="start" x="506" y="-18.5" font-family="Helvetica,sans-Serif" font-size="10.00">/human&#45;forces&#45;provider/src</text>
<text text-anchor="middle" x="569" y="-7.5" font-family="Helvetica,sans-Serif" font-size="10.00">/main.cpp</text>
</a>
</g>
</g>
<!-- Node9&#45;&gt;Node11 -->
<g id="edge11" class="edge"><title>Node9&#45;&gt;Node11</title>
<path fill="none" stroke="midnightblue" d="M533.775,-97.2694C539.859,-86.1698 546.376,-74.2792 552.129,-63.7813"/>
<polygon fill="midnightblue" stroke="midnightblue" points="530.531,-95.9076 528.794,-106.359 536.669,-99.272 530.531,-95.9076"/>
</g>
<!-- Node12&#45;&gt;Node10 -->
<g id="edge13" class="edge"><title>Node12&#45;&gt;Node10</title>
<path fill="none" stroke="midnightblue" d="M1143.63,-102.803C1141.06,-101.833 1138.52,-100.896 1136,-100 1079.11,-79.7482 1012.94,-61.8609 964.027,-49.6739"/>
<polygon fill="midnightblue" stroke="midnightblue" points="1142.36,-106.066 1152.95,-106.436 1144.91,-99.544 1142.36,-106.066"/>
</g>
<!-- Node13 -->
<g id="node13" class="node"><title>Node13</title>
<g id="a_node13"><a xlink:href="_robot_frame_transformer_8cpp.html" target="_top" xlink:title="/home/travis/build\l/robotology&#45;playground\l/human&#45;dynamics&#45;estimation\l/human&#45;forces&#45;provider/src\l/RobotFrameTransformer.cpp">
<polygon fill="none" stroke="black" points="1147.5,-0.5 1147.5,-63.5 1292.5,-63.5 1292.5,-0.5 1147.5,-0.5"/>
<text text-anchor="start" x="1155.5" y="-51.5" font-family="Helvetica,sans-Serif" font-size="10.00">/home/travis/build</text>
<text text-anchor="start" x="1155.5" y="-40.5" font-family="Helvetica,sans-Serif" font-size="10.00">/robotology&#45;playground</text>
<text text-anchor="start" x="1155.5" y="-29.5" font-family="Helvetica,sans-Serif" font-size="10.00">/human&#45;dynamics&#45;estimation</text>
<text text-anchor="start" x="1155.5" y="-18.5" font-family="Helvetica,sans-Serif" font-size="10.00">/human&#45;forces&#45;provider/src</text>
<text text-anchor="middle" x="1220" y="-7.5" font-family="Helvetica,sans-Serif" font-size="10.00">/RobotFrameTransformer.cpp</text>
</a>
</g>
</g>
<!-- Node12&#45;&gt;Node13 -->
<g id="edge14" class="edge"><title>Node12&#45;&gt;Node13</title>
<path fill="none" stroke="midnightblue" d="M1220,-96.2683C1220,-85.4576 1220,-73.9643 1220,-63.7813"/>
<polygon fill="midnightblue" stroke="midnightblue" points="1216.5,-96.359 1220,-106.359 1223.5,-96.3591 1216.5,-96.359"/>
</g>
<!-- Node15 -->
<g id="node15" class="node"><title>Node15</title>
<g id="a_node15"><a xlink:href="_human_i_k_worker_pool_8cpp.html" target="_top" xlink:title="/home/travis/build\l/robotology&#45;playground\l/human&#45;dynamics&#45;estimation\l/human&#45;state&#45;provider/src\l/HumanIKWorkerPool.cpp">
<polygon fill="none" stroke="black" points="0,-0.5 0,-63.5 142,-63.5 142,-0.5 0,-0.5"/>
<text text-anchor="start" x="8" y="-51.5" font-family="Helvetica,sans-Serif" font-size="10.00">/home/travis/build</text>
<text text-anchor="start" x="8" y="-40.5" font-family="Helvetica,sans-Serif" font-size="10.00">/robotology&#45;playground</text>
<text text-anchor="start" x="8" y="-29.5" font-family="Helvetica,sans-Serif" font-size="10.00">/human&#45;dynamics&#45;estimation</text>
<text text-anchor="start" x="8" y="-18.5" font-family="Helvetica,sans-Serif" font-size="10.00">/human&#45;state&#45;provider/src</text>
<text text-anchor="middle" x="71" y="-7.5" font-family="Helvetica,sans-Serif" font-size="10.00">/HumanIKWorkerPool.cpp</text>
</a>
</g>
</g>
<!-- Node14&#45;&gt;Node15 -->
<g id="edge16" class="edge"><title>Node14&#45;&gt;Node15</title>
<path fill="none" stroke="midnightblue" d="M216.593,-102.14C190.238,-89.6244 160.742,-75.6171 135.226,-63.5002"/>
<polygon fill="midnightblue" stroke="midnightblue" points="215.238,-105.371 225.773,-106.499 218.241,-99.0479 215.238,-105.371"/>
</g>
<!-- Node14&#45;&gt;Node16 -->
<g id="edge17" class="edge"><title>Node14&#45;&gt;Node16</title>
<path fill="none" stroke="midnightblue" d="M332.808,-99.5879C346.249,-87.8413 360.926,-75.0141 373.779,-63.7813"/>
<polygon fill="midnightblue" stroke="midnightblue" points="330.287,-97.1431 325.06,-106.359 334.893,-102.414 330.287,-97.1431"/>
</g>
<!-- Node17 -->
<g id="node17" class="node"><title>Node17</title>
<g id="a_node17"><a xlink:href="_human_state_provider_private_8cpp.html" target="_top" xlink:title="/home/travis/build\l/robotology&#45;playground\l/human&#45;dynamics&#45;estimation\l/human&#45;state&#45;provider/src\l/HumanStateProviderPrivate.cpp">
<polygon fill="none" stroke="black" points="160,-0.5 160,-63.5 320,-63.5 320,-0.5 160,-0.5"/>
<text text-anchor="start" x="168" y="-51.5" font-family="Helvetica,sans-Serif" font-size="10.00">/home/travis/build</text>
<text text-anchor="start" x="168" y="-40.5" font-family="Helvetica,sans-Serif" font-size="10.00">/robotology&#45;playground</text>
<text text-anchor="start" x="168" y="-29.5" font-family="Helvetica,sans-Serif" font-size="10.00">/human&#45;dynamics&#45;estimation</text>
<text text-anchor="start" x="168" y="-18.5" font-family="Helvetica,sans-Serif" font-size="10.00">/human&#45;state&#45;provider/src</text>
<text text-anchor="middle" x="240" y="-7.5" font-family="Helvetica,sans-Serif" font-size="10.00">/HumanStateProviderPrivate.cpp</text>
</a>
</g>
</g>
<!-- Node14&#45;&gt;Node17 -->
<g id="edge18" class="edge"><title>Node14&#45;&gt;Node17</title>
<path fill="none" stroke="midnightblue" d="M270.899,-97.2694C265.562,-86.1698 259.846,-74.2792 254.799,-63.7813"/>
<polygon fill="midnightblue" stroke="midnightblue" points="267.781,-98.8631 275.269,-106.359 274.09,-95.83 267.781,-98.8631"/>
</g>
<!-- Node19&#45;&gt;Node2 -->
<g id="edge22" class="edge"><title>Node19&#45;&gt;Node2</title>
<path fill="none" stroke="midnightblue" d="M450.047,-319.191C434.384,-308.621 417.698,-297.361 402.492,-287.099"/>
<polygon fill="midnightblue" stroke="midnightblue" points="448.381,-322.289 458.628,-324.982 452.296,-316.487 448.381,-322.289"/>
</g>
<!-- Node19&#45;&gt;Node6 -->
<g id="edge24" class="edge"><title>Node19&#45;&gt;Node6</title>
<path fill="none" stroke="midnightblue" d="M512,-314.752C512,-305.513 512,-295.935 512,-287.099"/>
<polygon fill="midnightblue" stroke="midnightblue" points="508.5,-314.982 512,-324.982 515.5,-314.982 508.5,-314.982"/>
</g>
<!-- Node20 -->
<g id="node20" class="node"><title>Node20</title>
<g id="a_node20"><a xlink:href="human-state-provider_2__yarp__idl___2thrifts_2humanstate_2_quaternion_8cpp.html" target="_top" xlink:title="/home/travis/build\l/robotology&#45;playground\l/human&#45;dynamics&#45;estimation\l/build/human&#45;state&#45;provider\l/_yarp_idl_/thrifts/humanstate\l/Quaternion.cpp">
<polygon fill="none" stroke="black" points="787,-213 787,-287 933,-287 933,-213 787,-213"/>
<text text-anchor="start" x="795" y="-275" font-family="Helvetica,sans-Serif" font-size="10.00">/home/travis/build</text>
<text text-anchor="start" x="795" y="-264" font-family="Helvetica,sans-Serif" font-size="10.00">/robotology&#45;playground</text>
<text text-anchor="start" x="795" y="-253" font-family="Helvetica,sans-Serif" font-size="10.00">/human&#45;dynamics&#45;estimation</text>
<text text-anchor="start" x="795" y="-242" font-family="Helvetica,sans-Serif" font-size="10.00">/build/human&#45;state&#45;provider</text>
<text text-anchor="start" x="795" y="-231" font-family="Helvetica,sans-Serif" font-size="10.00">/_yarp_idl_/thrifts/humanstate</text>
<text text-anchor="middle" x="860" y="-220" font-family="Helvetica,sans-Serif" font-size="10.00">/Quaternion.cpp</text>
</a>
</g>
</g>
<!-- Node19&#45;&gt;Node20 -->
<g id="edge23" class="edge"><title>Node19&#45;&gt;Node20</title>
<path fill="none" stroke="midnightblue" d="M593.258,-324.196C674.281,-299.542 700.498,-312.192 777,-288 780.159,-287.001 783.358,-285.917 786.57,-284.769"/>
<polygon fill="midnightblue" stroke="midnightblue" points="592.132,-320.881 583.64,-327.216 594.229,-327.559 592.132,-320.881"/>
</g>
<!-- Node21 -->
<g id="node21" class="node"><title>Node21</title>
<g id="a_node21"><a xlink:href="human-state-provider_2autogenerated_2src_2_quaternion_8cpp.html" target="_top" xlink:title="/home/travis/build\l/robotology&#45;playground\l/human&#45;dynamics&#45;estimation\l/build/human&#45;state&#45;provider\l/autogenerated/src/Quaternion.cpp">
<polygon fill="none" stroke="black" points="601.5,-218.5 601.5,-281.5 768.5,-281.5 768.5,-218.5 601.5,-218.5"/>
<text text-anchor="start" x="609.5" y="-269.5" font-family="Helvetica,sans-Serif" font-size="10.00">/home/travis/build</text>
<text text-anchor="start" x="609.5" y="-258.5" font-family="Helvetica,sans-Serif" font-size="10.00">/robotology&#45;playground</text>
<text text-anchor="start" x="609.5" y="-247.5" font-family="Helvetica,sans-Serif" font-size="10.00">/human&#45;dynamics&#45;estimation</text>
<text text-anchor="start" x="609.5" y="-236.5" font-family="Helvetica,sans-Serif" font-size="10.00">/build/human&#45;state&#45;provider</text>
<text text-anchor="middle" x="685" y="-225.5" font-family="Helvetica,sans-Serif" font-size="10.00">/autogenerated/src/Quaternion.cpp</text>
</a>
</g>
</g>
<!-- Node19&#45;&gt;Node21 -->
<g id="edge25" class="edge"><title>Node19&#45;&gt;Node21</title>
<path fill="none" stroke="midnightblue" d="M577.316,-319.47C597.109,-306.884 618.48,-293.296 636.925,-281.568"/>
<polygon fill="midnightblue" stroke="midnightblue" points="575.207,-316.663 568.647,-324.982 578.963,-322.57 575.207,-316.663"/>
</g>
</g>
</svg>
        <g id="navigator" transform="translate(0 0)" fill="#404254">
                <rect fill="#f2f5e9" fill-opacity="0.5" stroke="#606060" stroke-width=".5" x="0" y="0" width="60" height="60"/>
                <use id="zoomplus" xlink:href="#zoomPlus" x="17" y="9" onmousedown="handleZoom(evt,'in')"/>
                <use id="zoomminus" xlink:href="#zoomMin" x="42" y="9" onmousedown="handleZoom(evt,'out')"/>
                <use id="reset" xlink:href="#resetDef" x="30" y="36" onmousedown="handleReset()"/>
                <g id="arrowUp" xlink:href="#dirArrow" transform="translate(30 24)" onmousedown="handlePan(0,-1)">
                  <use xlink:href="#rim" fill="#404040">
                        <set attributeName="fill" to="#808080" begin="arrowUp.mouseover" end="arrowUp.mouseout"/>
                  </use>
                  <path fill="none" stroke="white" stroke-width="1.5" d="M0,-3.0v7 M-2.5,-0.5L0,-3.0L2.5,-0.5"/>
                </g>
                <g id="arrowRight" xlink:href="#dirArrow" transform="rotate(90) translate(36 -43)" onmousedown="handlePan(1,0)">
                  <use xlink:href="#rim" fill="#404040">
                        <set attributeName="fill" to="#808080" begin="arrowRight.mouseover" end="arrowRight.mouseout"/>
                  </use>
                  <path fill="none" stroke="white" stroke-width="1.5" d="M0,-3.0v7 M-2.5,-0.5L0,-3.0L2.5,-0.5"/>
                </g>
                <g id="arrowDown" xlink:href="#dirArrow" transform="rotate(180) translate(-30 -48)" onmousedown="handlePan(0,1)">
                  <use xlink:href="#rim" fill="#404040">
                        <set attributeName="fill" to="#808080" begin="arrowDown.mouseover" end="arrowDown.mouseout"/>
                  </use>
                  <path fill="none" stroke="white" stroke-width="1.5" d="M0,-3.0v7 M-2.5,-0.5L0,-3.0L2.5,-0.5"/>
                </g>
                <g id="arrowLeft" xlink:href="#dirArrow" transform="rotate(270) translate(-36 17)" onmousedown="handlePan(-1,0)">
                  <use xlink:href="#rim" fill="#404040">
                        <set attributeName="fill" to="#808080" begin="arrowLeft.mouseover" end="arrowLeft.mouseout"/>
                  </use>
                  <path fill="none" stroke="white" stroke-width="1.5" d="M0,-3.0v7 M-2.5,-0.5L0,-3.0L2.5,-0.5"/>
                </g>
        </g>
        <svg viewBox="0 0 15 15" width="100%" height="30px" preserveAspectRatio="xMaxYMin meet">
         <g id="arrow_out" transform="scale(0.3 0.3)">
          <a xlink:href="human-state-provider_2autogenerated_2include_2thrifts_2_vector3_8h__dep__incl_org.svg" target="_base">
           <rect id="button" ry="5" rx="5" y="6" x="6" height="38" width="38"
                fill="#f2f5e9" fill-opacity="0.5" stroke="#606060" stroke-width="1.0"/>
           <path id="arrow"
             d="M 11.500037,31.436501 C 11.940474,20.09759 22.043105,11.32322 32.158766,21.979434 L 37.068811,17.246167 C 37.068811,17.246167 37.088388,32 37.088388,32 L 22.160133,31.978069 C 22.160133,31.978069 26.997745,27.140456 26.997745,27.140456 C 18.528582,18.264221 13.291696,25.230495 11.500037,31.436501 z"
             style="fill:#404040;"/>
          </a>
         </g>
        </svg>
</svg>
