<?xml version="1.0" encoding="UTF-8" standalone="no"?>
<!DOCTYPE svg PUBLIC "-//W3C//DTD SVG 1.1//EN"
 "http://www.w3.org/Graphics/SVG/1.1/DTD/svg11.dtd">
<!-- Generated by graphviz version 2.36.0 (20140111.2315)
 -->
<!-- Title: /home/travis/build/robotology&#45;playground/human&#45;dynamics&#45;estimation/build/human&#45;viz&#45;bridge/autogenerated/data/include/thrift/Vector3.h Pages: 1 -->
<svg width="1696pt" height="520pt"
 viewBox="0.00 0.00 1696.00 520.00" xmlns="http://www.w3.org/2000/svg" xmlns:xlink="http://www.w3.org/1999/xlink">
<g id="graph0" class="graph" transform="scale(1 1) rotate(0) translate(4 516)">
<title>/home/travis/build/robotology&#45;playground/human&#45;dynamics&#45;estimation/build/human&#45;viz&#45;bridge/autogenerated/data/include/thrift/Vector3.h</title>
<!-- Node1 -->
<g id="node1" class="node"><title>Node1</title>
<polygon fill="#bfbfbf" stroke="black" points="316,-448.5 316,-511.5 498,-511.5 498,-448.5 316,-448.5"/>
<text text-anchor="start" x="324" y="-499.5" font-family="Helvetica,sans-Serif" font-size="10.00">/home/travis/build</text>
<text text-anchor="start" x="324" y="-488.5" font-family="Helvetica,sans-Serif" font-size="10.00">/robotology&#45;playground</text>
<text text-anchor="start" x="324" y="-477.5" font-family="Helvetica,sans-Serif" font-size="10.00">/human&#45;dynamics&#45;estimation</text>
<text text-anchor="start" x="324" y="-466.5" font-family="Helvetica,sans-Serif" font-size="10.00">/build/human&#45;viz&#45;bridge/autogenerated</text>
<text text-anchor="middle" x="407" y="-455.5" font-family="Helvetica,sans-Serif" font-size="10.00">/data/include/thrift/Vector3.h</text>
</g>
<!-- Node2 -->
<g id="node2" class="node"><title>Node2</title>
<g id="a_node2"><a xlink:href="human-viz-bridge_2__yarp__idl___2thrift_2xsensframe_2_quaternion_8h.html" target="_top" xlink:title="/home/travis/build\l/robotology&#45;playground\l/human&#45;dynamics&#45;estimation\l/build/human&#45;viz&#45;bridge/\l_yarp_idl_/thrift/xsensframe\l/Quaternion.h">
<polygon fill="none" stroke="black" points="110,-337 110,-411 252,-411 252,-337 110,-337"/>
<text text-anchor="start" x="118" y="-399" font-family="Helvetica,sans-Serif" font-size="10.00">/home/travis/build</text>
<text text-anchor="start" x="118" y="-388" font-family="Helvetica,sans-Serif" font-size="10.00">/robotology&#45;playground</text>
<text text-anchor="start" x="118" y="-377" font-family="Helvetica,sans-Serif" font-size="10.00">/human&#45;dynamics&#45;estimation</text>
<text text-anchor="start" x="118" y="-366" font-family="Helvetica,sans-Serif" font-size="10.00">/build/human&#45;viz&#45;bridge/</text>
<text text-anchor="start" x="118" y="-355" font-family="Helvetica,sans-Serif" font-size="10.00">_yarp_idl_/thrift/xsensframe</text>
<text text-anchor="middle" x="181" y="-344" font-family="Helvetica,sans-Serif" font-size="10.00">/Quaternion.h</text>
</a>
</g>
</g>
<!-- Node1&#45;&gt;Node2 -->
<g id="edge1" class="edge"><title>Node1&#45;&gt;Node2</title>
<path fill="none" stroke="midnightblue" d="M331.42,-444.22C305.792,-432.426 277.269,-419.301 252.01,-407.677"/>
<polygon fill="midnightblue" stroke="midnightblue" points="330.172,-447.498 340.72,-448.499 333.098,-441.139 330.172,-447.498"/>
</g>
<!-- Node4 -->
<g id="node4" class="node"><title>Node4</title>
<g id="a_node4"><a xlink:href="human-viz-bridge_2__yarp__idl___2thrift_2xsensframe_2_vector3_8cpp.html" target="_top" xlink:title="/home/travis/build\l/robotology&#45;playground\l/human&#45;dynamics&#45;estimation\l/build/human&#45;viz&#45;bridge/\l_yarp_idl_/thrift/xsensframe\l/Vector3.cpp">
<polygon fill="none" stroke="black" points="614,-337 614,-411 756,-411 756,-337 614,-337"/>
<text text-anchor="start" x="622" y="-399" font-family="Helvetica,sans-Serif" font-size="10.00">/home/travis/build</text>
<text text-anchor="start" x="622" y="-388" font-family="Helvetica,sans-Serif" font-size="10.00">/robotology&#45;playground</text>
<text text-anchor="start" x="622" y="-377" font-family="Helvetica,sans-Serif" font-size="10.00">/human&#45;dynamics&#45;estimation</text>
<text text-anchor="start" x="622" y="-366" font-family="Helvetica,sans-Serif" font-size="10.00">/build/human&#45;viz&#45;bridge/</text>
<text text-anchor="start" x="622" y="-355" font-family="Helvetica,sans-Serif" font-size="10.00">_yarp_idl_/thrift/xsensframe</text>
<text text-anchor="middle" x="685" y="-344" font-family="Helvetica,sans-Serif" font-size="10.00">/Vector3.cpp</text>
</a>
</g>
</g>
<!-- Node1&#45;&gt;Node4 -->
<g id="edge3" class="edge"><title>Node1&#45;&gt;Node4</title>
<path fill="none" stroke="midnightblue" d="M507.919,-445.595C537.742,-435.285 570.337,-423.585 600,-412 604.497,-410.243 609.108,-408.39 613.744,-406.488"/>
<polygon fill="midnightblue" stroke="midnightblue" points="506.658,-442.327 498.341,-448.891 508.936,-448.946 506.658,-442.327"/>
</g>
<!-- Node5 -->
<g id="node5" class="node"><title>Node5</title>
<g id="a_node5"><a xlink:href="__yarp__idl___2thrift_2xsensframe_2_xsens_segment_data_8h.html" target="_top" xlink:title="/home/travis/build\l/robotology&#45;playground\l/human&#45;dynamics&#45;estimation\l/build/human&#45;viz&#45;bridge/\l_yarp_idl_/thrift/xsensframe\l/XsensSegmentData.h">
<polygon fill="none" stroke="black" points="0,-225 0,-299 142,-299 142,-225 0,-225"/>
<text text-anchor="start" x="8" y="-287" font-family="Helvetica,sans-Serif" font-size="10.00">/home/travis/build</text>
<text text-anchor="start" x="8" y="-276" font-family="Helvetica,sans-Serif" font-size="10.00">/robotology&#45;playground</text>
<text text-anchor="start" x="8" y="-265" font-family="Helvetica,sans-Serif" font-size="10.00">/human&#45;dynamics&#45;estimation</text>
<text text-anchor="start" x="8" y="-254" font-family="Helvetica,sans-Serif" font-size="10.00">/build/human&#45;viz&#45;bridge/</text>
<text text-anchor="start" x="8" y="-243" font-family="Helvetica,sans-Serif" font-size="10.00">_yarp_idl_/thrift/xsensframe</text>
<text text-anchor="middle" x="71" y="-232" font-family="Helvetica,sans-Serif" font-size="10.00">/XsensSegmentData.h</text>
</a>
</g>
</g>
<!-- Node1&#45;&gt;Node5 -->
<g id="edge4" class="edge"><title>Node1&#45;&gt;Node5</title>
<path fill="none" stroke="midnightblue" d="M305.542,-468.726C227.848,-458.745 129.326,-440.808 101,-412 71.8617,-382.366 67.2217,-332.797 67.9649,-299.04"/>
<polygon fill="midnightblue" stroke="midnightblue" points="305.515,-472.25 315.873,-470.023 306.387,-465.305 305.515,-472.25"/>
</g>
<!-- Node6 -->
<g id="node6" class="node"><title>Node6</title>
<g id="a_node6"><a xlink:href="__yarp__idl___2thrift_2xsensframe_2_xsens_sensor_data_8h.html" target="_top" xlink:title="/home/travis/build\l/robotology&#45;playground\l/human&#45;dynamics&#45;estimation\l/build/human&#45;viz&#45;bridge/\l_yarp_idl_/thrift/xsensframe\l/XsensSensorData.h">
<polygon fill="none" stroke="black" points="210,-225 210,-299 352,-299 352,-225 210,-225"/>
<text text-anchor="start" x="218" y="-287" font-family="Helvetica,sans-Serif" font-size="10.00">/home/travis/build</text>
<text text-anchor="start" x="218" y="-276" font-family="Helvetica,sans-Serif" font-size="10.00">/robotology&#45;playground</text>
<text text-anchor="start" x="218" y="-265" font-family="Helvetica,sans-Serif" font-size="10.00">/human&#45;dynamics&#45;estimation</text>
<text text-anchor="start" x="218" y="-254" font-family="Helvetica,sans-Serif" font-size="10.00">/build/human&#45;viz&#45;bridge/</text>
<text text-anchor="start" x="218" y="-243" font-family="Helvetica,sans-Serif" font-size="10.00">_yarp_idl_/thrift/xsensframe</text>
<text text-anchor="middle" x="281" y="-232" font-family="Helvetica,sans-Serif" font-size="10.00">/XsensSensorData.h</text>
</a>
</g>
</g>
<!-- Node1&#45;&gt;Node6 -->
<g id="edge6" class="edge"><title>Node1&#45;&gt;Node6</title>
<path fill="none" stroke="midnightblue" d="M374.098,-440.279C367.085,-431.262 359.994,-421.51 354,-412 330.806,-375.203 309.576,-329.975 296.063,-299.065"/>
<polygon fill="midnightblue" stroke="midnightblue" points="371.525,-442.668 380.482,-448.326 377.008,-438.317 371.525,-442.668"/>
</g>
<!-- Node7 -->
<g id="node7" class="node"><title>Node7</title>
<g id="a_node7"><a xlink:href="human-viz-bridge_2autogenerated_2data_2include_2thrift_2_quaternion_8h.html" target="_top" xlink:title="/home/travis/build\l/robotology&#45;playground\l/human&#45;dynamics&#45;estimation\l/build/human&#45;viz&#45;bridge/autogenerated\l/data/include/thrift/Quaternion.h">
<polygon fill="none" stroke="black" points="376,-342.5 376,-405.5 558,-405.5 558,-342.5 376,-342.5"/>
<text text-anchor="start" x="384" y="-393.5" font-family="Helvetica,sans-Serif" font-size="10.00">/home/travis/build</text>
<text text-anchor="start" x="384" y="-382.5" font-family="Helvetica,sans-Serif" font-size="10.00">/robotology&#45;playground</text>
<text text-anchor="start" x="384" y="-371.5" font-family="Helvetica,sans-Serif" font-size="10.00">/human&#45;dynamics&#45;estimation</text>
<text text-anchor="start" x="384" y="-360.5" font-family="Helvetica,sans-Serif" font-size="10.00">/build/human&#45;viz&#45;bridge/autogenerated</text>
<text text-anchor="middle" x="467" y="-349.5" font-family="Helvetica,sans-Serif" font-size="10.00">/data/include/thrift/Quaternion.h</text>
</a>
</g>
</g>
<!-- Node1&#45;&gt;Node7 -->
<g id="edge8" class="edge"><title>Node1&#45;&gt;Node7</title>
<path fill="none" stroke="midnightblue" d="M429.73,-439.602C436.188,-428.408 443.124,-416.384 449.242,-405.781"/>
<polygon fill="midnightblue" stroke="midnightblue" points="426.643,-437.948 424.677,-448.359 432.706,-441.446 426.643,-437.948"/>
</g>
<!-- Node9 -->
<g id="node9" class="node"><title>Node9</title>
<g id="a_node9"><a xlink:href="autogenerated_2data_2include_2thrift_2_xsens_segment_data_8h.html" target="_top" xlink:title="/home/travis/build\l/robotology&#45;playground\l/human&#45;dynamics&#45;estimation\l/build/human&#45;viz&#45;bridge/autogenerated\l/data/include/thrift/XsensSegmentData.h">
<polygon fill="none" stroke="black" points="370,-230.5 370,-293.5 564,-293.5 564,-230.5 370,-230.5"/>
<text text-anchor="start" x="378" y="-281.5" font-family="Helvetica,sans-Serif" font-size="10.00">/home/travis/build</text>
<text text-anchor="start" x="378" y="-270.5" font-family="Helvetica,sans-Serif" font-size="10.00">/robotology&#45;playground</text>
<text text-anchor="start" x="378" y="-259.5" font-family="Helvetica,sans-Serif" font-size="10.00">/human&#45;dynamics&#45;estimation</text>
<text text-anchor="start" x="378" y="-248.5" font-family="Helvetica,sans-Serif" font-size="10.00">/build/human&#45;viz&#45;bridge/autogenerated</text>
<text text-anchor="middle" x="467" y="-237.5" font-family="Helvetica,sans-Serif" font-size="10.00">/data/include/thrift/XsensSegmentData.h</text>
</a>
</g>
</g>
<!-- Node1&#45;&gt;Node9 -->
<g id="edge30" class="edge"><title>Node1&#45;&gt;Node9</title>
<path fill="none" stroke="midnightblue" d="M378.73,-439.488C373.891,-430.814 369.593,-421.402 367,-412 358.019,-379.438 351.699,-366.114 367,-336 375.763,-318.753 390.724,-304.611 406.442,-293.521"/>
<polygon fill="midnightblue" stroke="midnightblue" points="375.805,-441.417 383.92,-448.228 381.823,-437.843 375.805,-441.417"/>
</g>
<!-- Node17 -->
<g id="node17" class="node"><title>Node17</title>
<g id="a_node17"><a xlink:href="autogenerated_2data_2include_2thrift_2_xsens_sensor_data_8h.html" target="_top" xlink:title="/home/travis/build\l/robotology&#45;playground\l/human&#45;dynamics&#45;estimation\l/build/human&#45;viz&#45;bridge/autogenerated\l/data/include/thrift/XsensSensorData.h">
<polygon fill="none" stroke="black" points="1020.5,-230.5 1020.5,-293.5 1205.5,-293.5 1205.5,-230.5 1020.5,-230.5"/>
<text text-anchor="start" x="1028.5" y="-281.5" font-family="Helvetica,sans-Serif" font-size="10.00">/home/travis/build</text>
<text text-anchor="start" x="1028.5" y="-270.5" font-family="Helvetica,sans-Serif" font-size="10.00">/robotology&#45;playground</text>
<text text-anchor="start" x="1028.5" y="-259.5" font-family="Helvetica,sans-Serif" font-size="10.00">/human&#45;dynamics&#45;estimation</text>
<text text-anchor="start" x="1028.5" y="-248.5" font-family="Helvetica,sans-Serif" font-size="10.00">/build/human&#45;viz&#45;bridge/autogenerated</text>
<text text-anchor="middle" x="1113" y="-237.5" font-family="Helvetica,sans-Serif" font-size="10.00">/data/include/thrift/XsensSensorData.h</text>
</a>
</g>
</g>
<!-- Node1&#45;&gt;Node17 -->
<g id="edge31" class="edge"><title>Node1&#45;&gt;Node17</title>
<path fill="none" stroke="midnightblue" d="M507.727,-449.639C529.028,-440.099 550.138,-427.767 567,-412 594.584,-386.207 574.008,-357.579 605,-336 665.176,-294.1 860.564,-311.394 933,-300 961.522,-295.513 992.373,-289.575 1020.34,-283.772"/>
<polygon fill="midnightblue" stroke="midnightblue" points="506.082,-446.536 498.27,-453.693 508.84,-452.97 506.082,-446.536"/>
</g>
<!-- Node25 -->
<g id="node25" class="node"><title>Node25</title>
<g id="a_node25"><a xlink:href="human-viz-bridge_2autogenerated_2data_2src_2_vector3_8cpp.html" target="_top" xlink:title="/home/travis/build\l/robotology&#45;playground\l/human&#45;dynamics&#45;estimation\l/build/human&#45;viz&#45;bridge/autogenerated\l/data/src/Vector3.cpp">
<polygon fill="none" stroke="black" points="774,-342.5 774,-405.5 956,-405.5 956,-342.5 774,-342.5"/>
<text text-anchor="start" x="782" y="-393.5" font-family="Helvetica,sans-Serif" font-size="10.00">/home/travis/build</text>
<text text-anchor="start" x="782" y="-382.5" font-family="Helvetica,sans-Serif" font-size="10.00">/robotology&#45;playground</text>
<text text-anchor="start" x="782" y="-371.5" font-family="Helvetica,sans-Serif" font-size="10.00">/human&#45;dynamics&#45;estimation</text>
<text text-anchor="start" x="782" y="-360.5" font-family="Helvetica,sans-Serif" font-size="10.00">/build/human&#45;viz&#45;bridge/autogenerated</text>
<text text-anchor="middle" x="865" y="-349.5" font-family="Helvetica,sans-Serif" font-size="10.00">/data/src/Vector3.cpp</text>
</a>
</g>
</g>
<!-- Node1&#45;&gt;Node25 -->
<g id="edge32" class="edge"><title>Node1&#45;&gt;Node25</title>
<path fill="none" stroke="midnightblue" d="M508.101,-464.764C580.383,-453.453 679.579,-435.613 765,-412 771.958,-410.076 779.118,-407.88 786.255,-405.539"/>
<polygon fill="midnightblue" stroke="midnightblue" points="507.43,-461.326 498.084,-466.316 508.502,-468.243 507.43,-461.326"/>
</g>
<!-- Node3 -->
<g id="node3" class="node"><title>Node3</title>
<g id="a_node3"><a xlink:href="_xsens_frame__index_8h.html" target="_top" xlink:title="/home/travis/build\l/robotology&#45;playground\l/human&#45;dynamics&#45;estimation\l/build/human&#45;viz&#45;bridge/\l_yarp_idl_/thrift/xsensframe\l/XsensFrame_index.h">
<polygon fill="none" stroke="black" points="127,-1 127,-75 269,-75 269,-1 127,-1"/>
<text text-anchor="start" x="135" y="-63" font-family="Helvetica,sans-Serif" font-size="10.00">/home/travis/build</text>
<text text-anchor="start" x="135" y="-52" font-family="Helvetica,sans-Serif" font-size="10.00">/robotology&#45;playground</text>
<text text-anchor="start" x="135" y="-41" font-family="Helvetica,sans-Serif" font-size="10.00">/human&#45;dynamics&#45;estimation</text>
<text text-anchor="start" x="135" y="-30" font-family="Helvetica,sans-Serif" font-size="10.00">/build/human&#45;viz&#45;bridge/</text>
<text text-anchor="start" x="135" y="-19" font-family="Helvetica,sans-Serif" font-size="10.00">_yarp_idl_/thrift/xsensframe</text>
<text text-anchor="middle" x="198" y="-8" font-family="Helvetica,sans-Serif" font-size="10.00">/XsensFrame_index.h</text>
</a>
</g>
</g>
<!-- Node2&#45;&gt;Node3 -->
<g id="edge2" class="edge"><title>Node2&#45;&gt;Node3</title>
<path fill="none" stroke="midnightblue" d="M183.359,-326.644C186.782,-259.392 193.055,-136.157 196.159,-75.1634"/>
<polygon fill="midnightblue" stroke="midnightblue" points="179.848,-326.774 182.835,-336.939 186.839,-327.13 179.848,-326.774"/>
</g>
<!-- Node5&#45;&gt;Node3 -->
<g id="edge5" class="edge"><title>Node5&#45;&gt;Node3</title>
<path fill="none" stroke="midnightblue" d="M91.6437,-215.577C105.823,-185.556 125.691,-145.679 146,-112 153.473,-99.6078 162.379,-86.5852 170.69,-75.0258"/>
<polygon fill="midnightblue" stroke="midnightblue" points="88.3219,-214.418 87.2466,-224.958 94.6601,-217.389 88.3219,-214.418"/>
</g>
<!-- Node6&#45;&gt;Node3 -->
<g id="edge7" class="edge"><title>Node6&#45;&gt;Node3</title>
<path fill="none" stroke="midnightblue" d="M235.069,-216.751C228.006,-207.861 221.559,-198.118 217,-188 200.771,-151.98 197.096,-106.41 196.8,-75.2078"/>
<polygon fill="midnightblue" stroke="midnightblue" points="232.59,-219.242 241.692,-224.663 237.957,-214.749 232.59,-219.242"/>
</g>
<!-- Node7&#45;&gt;Node5 -->
<g id="edge10" class="edge"><title>Node7&#45;&gt;Node5</title>
<path fill="none" stroke="midnightblue" d="M366.047,-345.536C316.318,-331.946 255.48,-315.228 201,-300 181.903,-294.662 161.25,-288.817 142.148,-283.381"/>
<polygon fill="midnightblue" stroke="midnightblue" points="365.27,-348.952 375.839,-348.211 367.115,-342.199 365.27,-348.952"/>
</g>
<!-- Node7&#45;&gt;Node6 -->
<g id="edge11" class="edge"><title>Node7&#45;&gt;Node6</title>
<path fill="none" stroke="midnightblue" d="M406.505,-337.224C385.863,-325.016 362.776,-311.362 342.086,-299.126"/>
<polygon fill="midnightblue" stroke="midnightblue" points="404.8,-340.281 415.189,-342.359 408.363,-334.256 404.8,-340.281"/>
</g>
<!-- Node8 -->
<g id="node8" class="node"><title>Node8</title>
<g id="a_node8"><a xlink:href="human-viz-bridge_2__yarp__idl___2thrift_2xsensframe_2_quaternion_8cpp.html" target="_top" xlink:title="/home/travis/build\l/robotology&#45;playground\l/human&#45;dynamics&#45;estimation\l/build/human&#45;viz&#45;bridge/\l_yarp_idl_/thrift/xsensframe\l/Quaternion.cpp">
<polygon fill="none" stroke="black" points="782,-225 782,-299 924,-299 924,-225 782,-225"/>
<text text-anchor="start" x="790" y="-287" font-family="Helvetica,sans-Serif" font-size="10.00">/home/travis/build</text>
<text text-anchor="start" x="790" y="-276" font-family="Helvetica,sans-Serif" font-size="10.00">/robotology&#45;playground</text>
<text text-anchor="start" x="790" y="-265" font-family="Helvetica,sans-Serif" font-size="10.00">/human&#45;dynamics&#45;estimation</text>
<text text-anchor="start" x="790" y="-254" font-family="Helvetica,sans-Serif" font-size="10.00">/build/human&#45;viz&#45;bridge/</text>
<text text-anchor="start" x="790" y="-243" font-family="Helvetica,sans-Serif" font-size="10.00">_yarp_idl_/thrift/xsensframe</text>
<text text-anchor="middle" x="853" y="-232" font-family="Helvetica,sans-Serif" font-size="10.00">/Quaternion.cpp</text>
</a>
</g>
</g>
<!-- Node7&#45;&gt;Node8 -->
<g id="edge9" class="edge"><title>Node7&#45;&gt;Node8</title>
<path fill="none" stroke="midnightblue" d="M559.537,-339.482C563.732,-338.25 567.9,-337.082 572,-336 659.751,-312.843 686.44,-327.271 773,-300 775.919,-299.08 778.87,-298.079 781.831,-297.013"/>
<polygon fill="midnightblue" stroke="midnightblue" points="558.274,-336.207 549.721,-342.46 560.307,-342.906 558.274,-336.207"/>
</g>
<!-- Node7&#45;&gt;Node9 -->
<g id="edge12" class="edge"><title>Node7&#45;&gt;Node9</title>
<path fill="none" stroke="midnightblue" d="M467,-332.052C467,-319.408 467,-305.701 467,-293.858"/>
<polygon fill="midnightblue" stroke="midnightblue" points="463.5,-332.359 467,-342.359 470.5,-332.359 463.5,-332.359"/>
</g>
<!-- Node7&#45;&gt;Node17 -->
<g id="edge21" class="edge"><title>Node7&#45;&gt;Node17</title>
<path fill="none" stroke="midnightblue" d="M557.535,-339.592C562.397,-338.271 567.239,-337.06 572,-336 729.386,-300.955 773.596,-324.265 933,-300 961.544,-295.655 992.401,-289.758 1020.37,-283.949"/>
<polygon fill="midnightblue" stroke="midnightblue" points="556.202,-336.333 547.549,-342.446 558.126,-343.063 556.202,-336.333"/>
</g>
<!-- Node24 -->
<g id="node24" class="node"><title>Node24</title>
<g id="a_node24"><a xlink:href="human-viz-bridge_2autogenerated_2data_2src_2_quaternion_8cpp.html" target="_top" xlink:title="/home/travis/build\l/robotology&#45;playground\l/human&#45;dynamics&#45;estimation\l/build/human&#45;viz&#45;bridge/autogenerated\l/data/src/Quaternion.cpp">
<polygon fill="none" stroke="black" points="582,-230.5 582,-293.5 764,-293.5 764,-230.5 582,-230.5"/>
<text text-anchor="start" x="590" y="-281.5" font-family="Helvetica,sans-Serif" font-size="10.00">/home/travis/build</text>
<text text-anchor="start" x="590" y="-270.5" font-family="Helvetica,sans-Serif" font-size="10.00">/robotology&#45;playground</text>
<text text-anchor="start" x="590" y="-259.5" font-family="Helvetica,sans-Serif" font-size="10.00">/human&#45;dynamics&#45;estimation</text>
<text text-anchor="start" x="590" y="-248.5" font-family="Helvetica,sans-Serif" font-size="10.00">/build/human&#45;viz&#45;bridge/autogenerated</text>
<text text-anchor="middle" x="673" y="-237.5" font-family="Helvetica,sans-Serif" font-size="10.00">/data/src/Quaternion.cpp</text>
</a>
</g>
</g>
<!-- Node7&#45;&gt;Node24 -->
<g id="edge29" class="edge"><title>Node7&#45;&gt;Node24</title>
<path fill="none" stroke="midnightblue" d="M533.22,-337.64C559.737,-323.48 589.999,-307.321 615.568,-293.667"/>
<polygon fill="midnightblue" stroke="midnightblue" points="531.555,-334.561 524.382,-342.359 534.852,-340.736 531.555,-334.561"/>
</g>
<!-- Node10 -->
<g id="node10" class="node"><title>Node10</title>
<g id="a_node10"><a xlink:href="__yarp__idl___2thrift_2xsensframe_2_xsens_segments_frame_8h.html" target="_top" xlink:title="/home/travis/build\l/robotology&#45;playground\l/human&#45;dynamics&#45;estimation\l/build/human&#45;viz&#45;bridge/\l_yarp_idl_/thrift/xsensframe\l/XsensSegmentsFrame.h">
<polygon fill="none" stroke="black" points="226,-113 226,-187 368,-187 368,-113 226,-113"/>
<text text-anchor="start" x="234" y="-175" font-family="Helvetica,sans-Serif" font-size="10.00">/home/travis/build</text>
<text text-anchor="start" x="234" y="-164" font-family="Helvetica,sans-Serif" font-size="10.00">/robotology&#45;playground</text>
<text text-anchor="start" x="234" y="-153" font-family="Helvetica,sans-Serif" font-size="10.00">/human&#45;dynamics&#45;estimation</text>
<text text-anchor="start" x="234" y="-142" font-family="Helvetica,sans-Serif" font-size="10.00">/build/human&#45;viz&#45;bridge/</text>
<text text-anchor="start" x="234" y="-131" font-family="Helvetica,sans-Serif" font-size="10.00">_yarp_idl_/thrift/xsensframe</text>
<text text-anchor="middle" x="297" y="-120" font-family="Helvetica,sans-Serif" font-size="10.00">/XsensSegmentsFrame.h</text>
</a>
</g>
</g>
<!-- Node9&#45;&gt;Node10 -->
<g id="edge13" class="edge"><title>Node9&#45;&gt;Node10</title>
<path fill="none" stroke="midnightblue" d="M411.203,-224.896C392.466,-212.772 371.572,-199.253 352.832,-187.126"/>
<polygon fill="midnightblue" stroke="midnightblue" points="409.348,-227.865 419.646,-230.359 413.151,-221.988 409.348,-227.865"/>
</g>
<!-- Node11 -->
<g id="node11" class="node"><title>Node11</title>
<g id="a_node11"><a xlink:href="__yarp__idl___2thrift_2xsensframe_2_xsens_segment_data_8cpp.html" target="_top" xlink:title="/home/travis/build\l/robotology&#45;playground\l/human&#45;dynamics&#45;estimation\l/build/human&#45;viz&#45;bridge/\l_yarp_idl_/thrift/xsensframe\l/XsensSegmentData.cpp">
<polygon fill="none" stroke="black" points="586,-113 586,-187 728,-187 728,-113 586,-113"/>
<text text-anchor="start" x="594" y="-175" font-family="Helvetica,sans-Serif" font-size="10.00">/home/travis/build</text>
<text text-anchor="start" x="594" y="-164" font-family="Helvetica,sans-Serif" font-size="10.00">/robotology&#45;playground</text>
<text text-anchor="start" x="594" y="-153" font-family="Helvetica,sans-Serif" font-size="10.00">/human&#45;dynamics&#45;estimation</text>
<text text-anchor="start" x="594" y="-142" font-family="Helvetica,sans-Serif" font-size="10.00">/build/human&#45;viz&#45;bridge/</text>
<text text-anchor="start" x="594" y="-131" font-family="Helvetica,sans-Serif" font-size="10.00">_yarp_idl_/thrift/xsensframe</text>
<text text-anchor="middle" x="657" y="-120" font-family="Helvetica,sans-Serif" font-size="10.00">/XsensSegmentData.cpp</text>
</a>
</g>
</g>
<!-- Node9&#45;&gt;Node11 -->
<g id="edge15" class="edge"><title>Node9&#45;&gt;Node11</title>
<path fill="none" stroke="midnightblue" d="M528.796,-225.224C549.882,-213.016 573.466,-199.362 594.6,-187.126"/>
<polygon fill="midnightblue" stroke="midnightblue" points="526.826,-222.319 519.926,-230.359 530.334,-228.377 526.826,-222.319"/>
</g>
<!-- Node12 -->
<g id="node12" class="node"><title>Node12</title>
<g id="a_node12"><a xlink:href="autogenerated_2data_2include_2thrift_2_xsens_segments_frame_8h.html" target="_top" xlink:title="/home/travis/build\l/robotology&#45;playground\l/human&#45;dynamics&#45;estimation\l/build/human&#45;viz&#45;bridge/autogenerated\l/data/include/thrift/XsensSegmentsFrame.h">
<polygon fill="none" stroke="black" points="906,-118.5 906,-181.5 1112,-181.5 1112,-118.5 906,-118.5"/>
<text text-anchor="start" x="914" y="-169.5" font-family="Helvetica,sans-Serif" font-size="10.00">/home/travis/build</text>
<text text-anchor="start" x="914" y="-158.5" font-family="Helvetica,sans-Serif" font-size="10.00">/robotology&#45;playground</text>
<text text-anchor="start" x="914" y="-147.5" font-family="Helvetica,sans-Serif" font-size="10.00">/human&#45;dynamics&#45;estimation</text>
<text text-anchor="start" x="914" y="-136.5" font-family="Helvetica,sans-Serif" font-size="10.00">/build/human&#45;viz&#45;bridge/autogenerated</text>
<text text-anchor="middle" x="1009" y="-125.5" font-family="Helvetica,sans-Serif" font-size="10.00">/data/include/thrift/XsensSegmentsFrame.h</text>
</a>
</g>
</g>
<!-- Node9&#45;&gt;Node12 -->
<g id="edge16" class="edge"><title>Node9&#45;&gt;Node12</title>
<path fill="none" stroke="midnightblue" d="M558.594,-227.615C563.437,-226.294 568.26,-225.076 573,-224 714.291,-191.923 755.445,-218.892 897,-188 905.303,-186.188 913.857,-183.991 922.363,-181.582"/>
<polygon fill="midnightblue" stroke="midnightblue" points="557.293,-224.346 548.641,-230.461 559.218,-231.077 557.293,-224.346"/>
</g>
<!-- Node16 -->
<g id="node16" class="node"><title>Node16</title>
<g id="a_node16"><a xlink:href="autogenerated_2data_2src_2_xsens_segment_data_8cpp.html" target="_top" xlink:title="/home/travis/build\l/robotology&#45;playground\l/human&#45;dynamics&#45;estimation\l/build/human&#45;viz&#45;bridge/autogenerated\l/data/src/XsensSegmentData.cpp">
<polygon fill="none" stroke="black" points="386,-118.5 386,-181.5 568,-181.5 568,-118.5 386,-118.5"/>
<text text-anchor="start" x="394" y="-169.5" font-family="Helvetica,sans-Serif" font-size="10.00">/home/travis/build</text>
<text text-anchor="start" x="394" y="-158.5" font-family="Helvetica,sans-Serif" font-size="10.00">/robotology&#45;playground</text>
<text text-anchor="start" x="394" y="-147.5" font-family="Helvetica,sans-Serif" font-size="10.00">/human&#45;dynamics&#45;estimation</text>
<text text-anchor="start" x="394" y="-136.5" font-family="Helvetica,sans-Serif" font-size="10.00">/build/human&#45;viz&#45;bridge/autogenerated</text>
<text text-anchor="middle" x="477" y="-125.5" font-family="Helvetica,sans-Serif" font-size="10.00">/data/src/XsensSegmentData.cpp</text>
</a>
</g>
</g>
<!-- Node9&#45;&gt;Node16 -->
<g id="edge20" class="edge"><title>Node9&#45;&gt;Node16</title>
<path fill="none" stroke="midnightblue" d="M470.723,-220.052C471.872,-207.408 473.118,-193.701 474.195,-181.858"/>
<polygon fill="midnightblue" stroke="midnightblue" points="467.205,-220.083 469.786,-230.359 474.177,-220.717 467.205,-220.083"/>
</g>
<!-- Node10&#45;&gt;Node3 -->
<g id="edge14" class="edge"><title>Node10&#45;&gt;Node3</title>
<path fill="none" stroke="midnightblue" d="M257.781,-105.424C248.736,-95.3733 239.211,-84.7905 230.489,-75.099"/>
<polygon fill="midnightblue" stroke="midnightblue" points="255.292,-107.89 264.584,-112.982 260.496,-103.208 255.292,-107.89"/>
</g>
<!-- Node13 -->
<g id="node13" class="node"><title>Node13</title>
<g id="a_node13"><a xlink:href="__yarp__idl___2thrift_2xsensframe_2_xsens_segments_frame_8cpp.html" target="_top" xlink:title="/home/travis/build\l/robotology&#45;playground\l/human&#45;dynamics&#45;estimation\l/build/human&#45;viz&#45;bridge/\l_yarp_idl_/thrift/xsensframe\l/XsensSegmentsFrame.cpp">
<polygon fill="none" stroke="black" points="736,-1 736,-75 878,-75 878,-1 736,-1"/>
<text text-anchor="start" x="744" y="-63" font-family="Helvetica,sans-Serif" font-size="10.00">/home/travis/build</text>
<text text-anchor="start" x="744" y="-52" font-family="Helvetica,sans-Serif" font-size="10.00">/robotology&#45;playground</text>
<text text-anchor="start" x="744" y="-41" font-family="Helvetica,sans-Serif" font-size="10.00">/human&#45;dynamics&#45;estimation</text>
<text text-anchor="start" x="744" y="-30" font-family="Helvetica,sans-Serif" font-size="10.00">/build/human&#45;viz&#45;bridge/</text>
<text text-anchor="start" x="744" y="-19" font-family="Helvetica,sans-Serif" font-size="10.00">_yarp_idl_/thrift/xsensframe</text>
<text text-anchor="middle" x="807" y="-8" font-family="Helvetica,sans-Serif" font-size="10.00">/XsensSegmentsFrame.cpp</text>
</a>
</g>
</g>
<!-- Node12&#45;&gt;Node13 -->
<g id="edge17" class="edge"><title>Node12&#45;&gt;Node13</title>
<path fill="none" stroke="midnightblue" d="M943.901,-113.55C921.331,-101.259 896.011,-87.4711 873.341,-75.1264"/>
<polygon fill="midnightblue" stroke="midnightblue" points="942.276,-116.65 952.732,-118.359 945.623,-110.503 942.276,-116.65"/>
</g>
<!-- Node14 -->
<g id="node14" class="node"><title>Node14</title>
<g id="a_node14"><a xlink:href="autogenerated_2data_2src_2_xsens_segments_frame_8cpp.html" target="_top" xlink:title="/home/travis/build\l/robotology&#45;playground\l/human&#45;dynamics&#45;estimation\l/build/human&#45;viz&#45;bridge/autogenerated\l/data/src/XsensSegmentsFrame.cpp">
<polygon fill="none" stroke="black" points="896,-6.5 896,-69.5 1078,-69.5 1078,-6.5 896,-6.5"/>
<text text-anchor="start" x="904" y="-57.5" font-family="Helvetica,sans-Serif" font-size="10.00">/home/travis/build</text>
<text text-anchor="start" x="904" y="-46.5" font-family="Helvetica,sans-Serif" font-size="10.00">/robotology&#45;playground</text>
<text text-anchor="start" x="904" y="-35.5" font-family="Helvetica,sans-Serif" font-size="10.00">/human&#45;dynamics&#45;estimation</text>
<text text-anchor="start" x="904" y="-24.5" font-family="Helvetica,sans-Serif" font-size="10.00">/build/human&#45;viz&#45;bridge/autogenerated</text>
<text text-anchor="middle" x="987" y="-13.5" font-family="Helvetica,sans-Serif" font-size="10.00">/data/src/XsensSegmentsFrame.cpp</text>
</a>
</g>
</g>
<!-- Node12&#45;&gt;Node14 -->
<g id="edge18" class="edge"><title>Node12&#45;&gt;Node14</title>
<path fill="none" stroke="midnightblue" d="M1000.89,-108.431C998.336,-95.6819 995.564,-81.8198 993.172,-69.8583"/>
<polygon fill="midnightblue" stroke="midnightblue" points="997.478,-109.239 1002.87,-118.359 1004.34,-107.867 997.478,-109.239"/>
</g>
<!-- Node15 -->
<g id="node15" class="node"><title>Node15</title>
<g id="a_node15"><a xlink:href="_human_t_f_bridge_8cpp.html" target="_top" xlink:title="/home/travis/build\l/robotology&#45;playground\l/human&#45;dynamics&#45;estimation\l/human&#45;viz&#45;bridge/src/HumanTFBridge.cpp">
<polygon fill="none" stroke="black" points="1096.5,-12 1096.5,-64 1299.5,-64 1299.5,-12 1096.5,-12"/>
<text text-anchor="start" x="1104.5" y="-52" font-family="Helvetica,sans-Serif" font-size="10.00">/home/travis/build</text>
<text text-anchor="start" x="1104.5" y="-41" font-family="Helvetica,sans-Serif" font-size="10.00">/robotology&#45;playground</text>
<text text-anchor="start" x="1104.5" y="-30" font-family="Helvetica,sans-Serif" font-size="10.00">/human&#45;dynamics&#45;estimation</text>
<text text-anchor="middle" x="1198" y="-19" font-family="Helvetica,sans-Serif" font-size="10.00">/human&#45;viz&#45;bridge/src/HumanTFBridge.cpp</text>
</a>
</g>
</g>
<!-- Node12&#45;&gt;Node15 -->
<g id="edge19" class="edge"><title>Node12&#45;&gt;Node15</title>
<path fill="none" stroke="midnightblue" d="M1070.43,-113.245C1098.01,-97.1964 1129.88,-78.647 1154.87,-64.1037"/>
<polygon fill="midnightblue" stroke="midnightblue" points="1068.53,-110.304 1061.65,-118.359 1072.05,-116.354 1068.53,-110.304"/>
</g>
<!-- Node18 -->
<g id="node18" class="node"><title>Node18</title>
<g id="a_node18"><a xlink:href="__yarp__idl___2thrift_2xsensframe_2_xsens_sensors_frame_8h.html" target="_top" xlink:title="/home/travis/build\l/robotology&#45;playground\l/human&#45;dynamics&#45;estimation\l/build/human&#45;viz&#45;bridge/\l_yarp_idl_/thrift/xsensframe\l/XsensSensorsFrame.h">
<polygon fill="none" stroke="black" points="746,-113 746,-187 888,-187 888,-113 746,-113"/>
<text text-anchor="start" x="754" y="-175" font-family="Helvetica,sans-Serif" font-size="10.00">/home/travis/build</text>
<text text-anchor="start" x="754" y="-164" font-family="Helvetica,sans-Serif" font-size="10.00">/robotology&#45;playground</text>
<text text-anchor="start" x="754" y="-153" font-family="Helvetica,sans-Serif" font-size="10.00">/human&#45;dynamics&#45;estimation</text>
<text text-anchor="start" x="754" y="-142" font-family="Helvetica,sans-Serif" font-size="10.00">/build/human&#45;viz&#45;bridge/</text>
<text text-anchor="start" x="754" y="-131" font-family="Helvetica,sans-Serif" font-size="10.00">_yarp_idl_/thrift/xsensframe</text>
<text text-anchor="middle" x="817" y="-120" font-family="Helvetica,sans-Serif" font-size="10.00">/XsensSensorsFrame.h</text>
</a>
</g>
</g>
<!-- Node17&#45;&gt;Node18 -->
<g id="edge22" class="edge"><title>Node17&#45;&gt;Node18</title>
<path fill="none" stroke="midnightblue" d="M1010.65,-228.908C974.44,-216.898 933.619,-202.607 897,-188 894.157,-186.866 891.271,-185.683 888.364,-184.467"/>
<polygon fill="midnightblue" stroke="midnightblue" points="1009.65,-232.263 1020.24,-232.072 1011.84,-225.615 1009.65,-232.263"/>
</g>
<!-- Node19 -->
<g id="node19" class="node"><title>Node19</title>
<g id="a_node19"><a xlink:href="__yarp__idl___2thrift_2xsensframe_2_xsens_sensor_data_8cpp.html" target="_top" xlink:title="/home/travis/build\l/robotology&#45;playground\l/human&#45;dynamics&#45;estimation\l/build/human&#45;viz&#45;bridge/\l_yarp_idl_/thrift/xsensframe\l/XsensSensorData.cpp">
<polygon fill="none" stroke="black" points="1130,-113 1130,-187 1272,-187 1272,-113 1130,-113"/>
<text text-anchor="start" x="1138" y="-175" font-family="Helvetica,sans-Serif" font-size="10.00">/home/travis/build</text>
<text text-anchor="start" x="1138" y="-164" font-family="Helvetica,sans-Serif" font-size="10.00">/robotology&#45;playground</text>
<text text-anchor="start" x="1138" y="-153" font-family="Helvetica,sans-Serif" font-size="10.00">/human&#45;dynamics&#45;estimation</text>
<text text-anchor="start" x="1138" y="-142" font-family="Helvetica,sans-Serif" font-size="10.00">/build/human&#45;viz&#45;bridge/</text>
<text text-anchor="start" x="1138" y="-131" font-family="Helvetica,sans-Serif" font-size="10.00">_yarp_idl_/thrift/xsensframe</text>
<text text-anchor="middle" x="1201" y="-120" font-family="Helvetica,sans-Serif" font-size="10.00">/XsensSensorData.cpp</text>
</a>
</g>
</g>
<!-- Node17&#45;&gt;Node19 -->
<g id="edge24" class="edge"><title>Node17&#45;&gt;Node19</title>
<path fill="none" stroke="midnightblue" d="M1143.97,-222.294C1153.06,-210.926 1162.97,-198.538 1171.94,-187.325"/>
<polygon fill="midnightblue" stroke="midnightblue" points="1141.03,-220.364 1137.51,-230.359 1146.49,-224.737 1141.03,-220.364"/>
</g>
<!-- Node20 -->
<g id="node20" class="node"><title>Node20</title>
<g id="a_node20"><a xlink:href="autogenerated_2data_2include_2thrift_2_xsens_sensors_frame_8h.html" target="_top" xlink:title="/home/travis/build\l/robotology&#45;playground\l/human&#45;dynamics&#45;estimation\l/build/human&#45;viz&#45;bridge/autogenerated\l/data/include/thrift/XsensSensorsFrame.h">
<polygon fill="none" stroke="black" points="1290.5,-118.5 1290.5,-181.5 1487.5,-181.5 1487.5,-118.5 1290.5,-118.5"/>
<text text-anchor="start" x="1298.5" y="-169.5" font-family="Helvetica,sans-Serif" font-size="10.00">/home/travis/build</text>
<text text-anchor="start" x="1298.5" y="-158.5" font-family="Helvetica,sans-Serif" font-size="10.00">/robotology&#45;playground</text>
<text text-anchor="start" x="1298.5" y="-147.5" font-family="Helvetica,sans-Serif" font-size="10.00">/human&#45;dynamics&#45;estimation</text>
<text text-anchor="start" x="1298.5" y="-136.5" font-family="Helvetica,sans-Serif" font-size="10.00">/build/human&#45;viz&#45;bridge/autogenerated</text>
<text text-anchor="middle" x="1389" y="-125.5" font-family="Helvetica,sans-Serif" font-size="10.00">/data/include/thrift/XsensSensorsFrame.h</text>
</a>
</g>
</g>
<!-- Node17&#45;&gt;Node20 -->
<g id="edge25" class="edge"><title>Node17&#45;&gt;Node20</title>
<path fill="none" stroke="midnightblue" d="M1199.41,-226.561C1235.48,-212.184 1277.05,-195.618 1312.05,-181.667"/>
<polygon fill="midnightblue" stroke="midnightblue" points="1197.87,-223.405 1189.88,-230.359 1200.47,-229.908 1197.87,-223.405"/>
</g>
<!-- Node23 -->
<g id="node23" class="node"><title>Node23</title>
<g id="a_node23"><a xlink:href="autogenerated_2data_2src_2_xsens_sensor_data_8cpp.html" target="_top" xlink:title="/home/travis/build\l/robotology&#45;playground\l/human&#45;dynamics&#45;estimation\l/build/human&#45;viz&#45;bridge/autogenerated\l/data/src/XsensSensorData.cpp">
<polygon fill="none" stroke="black" points="1506,-118.5 1506,-181.5 1688,-181.5 1688,-118.5 1506,-118.5"/>
<text text-anchor="start" x="1514" y="-169.5" font-family="Helvetica,sans-Serif" font-size="10.00">/home/travis/build</text>
<text text-anchor="start" x="1514" y="-158.5" font-family="Helvetica,sans-Serif" font-size="10.00">/robotology&#45;playground</text>
<text text-anchor="start" x="1514" y="-147.5" font-family="Helvetica,sans-Serif" font-size="10.00">/human&#45;dynamics&#45;estimation</text>
<text text-anchor="start" x="1514" y="-136.5" font-family="Helvetica,sans-Serif" font-size="10.00">/build/human&#45;viz&#45;bridge/autogenerated</text>
<text text-anchor="middle" x="1597" y="-125.5" font-family="Helvetica,sans-Serif" font-size="10.00">/data/src/XsensSensorData.cpp</text>
</a>
</g>
</g>
<!-- Node17&#45;&gt;Node23 -->
<g id="edge28" class="edge"><title>Node17&#45;&gt;Node23</title>
<path fill="none" stroke="midnightblue" d="M1215.94,-246.046C1293.65,-233.637 1402.5,-213.852 1496,-188 1503.02,-186.059 1510.24,-183.851 1517.45,-181.502"/>
<polygon fill="midnightblue" stroke="midnightblue" points="1215,-242.652 1205.67,-247.673 1216.1,-249.566 1215,-242.652"/>
</g>
<!-- Node18&#45;&gt;Node3 -->
<g id="edge23" class="edge"><title>Node18&#45;&gt;Node3</title>
<path fill="none" stroke="midnightblue" d="M736.02,-111.983C566.24,-63.7544 371.654,-47.531 269.165,-41.8927"/>
<polygon fill="midnightblue" stroke="midnightblue" points="735.301,-115.418 745.879,-114.828 737.242,-108.692 735.301,-115.418"/>
</g>
<!-- Node21 -->
<g id="node21" class="node"><title>Node21</title>
<g id="a_node21"><a xlink:href="__yarp__idl___2thrift_2xsensframe_2_xsens_sensors_frame_8cpp.html" target="_top" xlink:title="/home/travis/build\l/robotology&#45;playground\l/human&#45;dynamics&#45;estimation\l/build/human&#45;viz&#45;bridge/\l_yarp_idl_/thrift/xsensframe\l/XsensSensorsFrame.cpp">
<polygon fill="none" stroke="black" points="1318,-1 1318,-75 1460,-75 1460,-1 1318,-1"/>
<text text-anchor="start" x="1326" y="-63" font-family="Helvetica,sans-Serif" font-size="10.00">/home/travis/build</text>
<text text-anchor="start" x="1326" y="-52" font-family="Helvetica,sans-Serif" font-size="10.00">/robotology&#45;playground</text>
<text text-anchor="start" x="1326" y="-41" font-family="Helvetica,sans-Serif" font-size="10.00">/human&#45;dynamics&#45;estimation</text>
<text text-anchor="start" x="1326" y="-30" font-family="Helvetica,sans-Serif" font-size="10.00">/build/human&#45;viz&#45;bridge/</text>
<text text-anchor="start" x="1326" y="-19" font-family="Helvetica,sans-Serif" font-size="10.00">_yarp_idl_/thrift/xsensframe</text>
<text text-anchor="middle" x="1389" y="-8" font-family="Helvetica,sans-Serif" font-size="10.00">/XsensSensorsFrame.cpp</text>
</a>
</g>
</g>
<!-- Node20&#45;&gt;Node21 -->
<g id="edge26" class="edge"><title>Node20&#45;&gt;Node21</title>
<path fill="none" stroke="midnightblue" d="M1389,-108.297C1389,-97.487 1389,-85.8851 1389,-75.3254"/>
<polygon fill="midnightblue" stroke="midnightblue" points="1385.5,-108.359 1389,-118.359 1392.5,-108.359 1385.5,-108.359"/>
</g>
<!-- Node22 -->
<g id="node22" class="node"><title>Node22</title>
<g id="a_node22"><a xlink:href="autogenerated_2data_2src_2_xsens_sensors_frame_8cpp.html" target="_top" xlink:title="/home/travis/build\l/robotology&#45;playground\l/human&#45;dynamics&#45;estimation\l/build/human&#45;viz&#45;bridge/autogenerated\l/data/src/XsensSensorsFrame.cpp">
<polygon fill="none" stroke="black" points="1478,-6.5 1478,-69.5 1660,-69.5 1660,-6.5 1478,-6.5"/>
<text text-anchor="start" x="1486" y="-57.5" font-family="Helvetica,sans-Serif" font-size="10.00">/home/travis/build</text>
<text text-anchor="start" x="1486" y="-46.5" font-family="Helvetica,sans-Serif" font-size="10.00">/robotology&#45;playground</text>
<text text-anchor="start" x="1486" y="-35.5" font-family="Helvetica,sans-Serif" font-size="10.00">/human&#45;dynamics&#45;estimation</text>
<text text-anchor="start" x="1486" y="-24.5" font-family="Helvetica,sans-Serif" font-size="10.00">/build/human&#45;viz&#45;bridge/autogenerated</text>
<text text-anchor="middle" x="1569" y="-13.5" font-family="Helvetica,sans-Serif" font-size="10.00">/data/src/XsensSensorsFrame.cpp</text>
</a>
</g>
</g>
<!-- Node20&#45;&gt;Node22 -->
<g id="edge27" class="edge"><title>Node20&#45;&gt;Node22</title>
<path fill="none" stroke="midnightblue" d="M1447.77,-113.085C1470.72,-99.059 1496.77,-83.1428 1518.82,-69.6674"/>
<polygon fill="midnightblue" stroke="midnightblue" points="1445.85,-110.158 1439.14,-118.359 1449.5,-116.131 1445.85,-110.158"/>
</g>
</g>
</svg>
