<?xml version="1.0" encoding="UTF-8" standalone="no"?>
<!DOCTYPE svg PUBLIC "-//W3C//DTD SVG 1.1//EN"
 "http://www.w3.org/Graphics/SVG/1.1/DTD/svg11.dtd">
<!-- Generated by graphviz version 2.36.0 (20140111.2315)
 -->
<!-- Title: /home/travis/build/robotology&#45;playground/human&#45;dynamics&#45;estimation/human&#45;dynamics&#45;estimator/src/main.cpp Pages: 1 -->
<svg width="507pt" height="196pt"
 viewBox="0.00 0.00 507.00 196.00" xmlns="http://www.w3.org/2000/svg" xmlns:xlink="http://www.w3.org/1999/xlink">
<g id="graph0" class="graph" transform="scale(1 1) rotate(0) translate(4 192)">
<title>/home/travis/build/robotology&#45;playground/human&#45;dynamics&#45;estimation/human&#45;dynamics&#45;estimator/src/main.cpp</title>
<!-- Node1 -->
<g id="node1" class="node"><title>Node1</title>
<polygon fill="#bfbfbf" stroke="black" points="115,-124.5 115,-187.5 257,-187.5 257,-124.5 115,-124.5"/>
<text text-anchor="start" x="123" y="-175.5" font-family="Helvetica,sans-Serif" font-size="10.00">/home/travis/build</text>
<text text-anchor="start" x="123" y="-164.5" font-family="Helvetica,sans-Serif" font-size="10.00">/robotology&#45;playground</text>
<text text-anchor="start" x="123" y="-153.5" font-family="Helvetica,sans-Serif" font-size="10.00">/human&#45;dynamics&#45;estimation</text>
<text text-anchor="start" x="123" y="-142.5" font-family="Helvetica,sans-Serif" font-size="10.00">/human&#45;dynamics&#45;estimator</text>
<text text-anchor="middle" x="186" y="-131.5" font-family="Helvetica,sans-Serif" font-size="10.00">/src/main.cpp</text>
</g>
<!-- Node2 -->
<g id="node2" class="node"><title>Node2</title>
<polygon fill="none" stroke="#bfbfbf" points="0,-68.5 0,-87.5 54,-87.5 54,-68.5 0,-68.5"/>
<text text-anchor="middle" x="27" y="-75.5" font-family="Helvetica,sans-Serif" font-size="10.00">iostream</text>
</g>
<!-- Node1&#45;&gt;Node2 -->
<g id="edge1" class="edge"><title>Node1&#45;&gt;Node2</title>
<path fill="none" stroke="midnightblue" d="M121.787,-124.307C98.1539,-113.011 72.6478,-100.819 54.0533,-91.9311"/>
<polygon fill="midnightblue" stroke="midnightblue" points="55.5378,-88.7615 45.0061,-87.6067 52.519,-95.0771 55.5378,-88.7615"/>
</g>
<!-- Node3 -->
<g id="node3" class="node"><title>Node3</title>
<polygon fill="none" stroke="#bfbfbf" points="72.5,-68.5 72.5,-87.5 179.5,-87.5 179.5,-68.5 72.5,-68.5"/>
<text text-anchor="middle" x="126" y="-75.5" font-family="Helvetica,sans-Serif" font-size="10.00">yarp/os/LogStream.h</text>
</g>
<!-- Node1&#45;&gt;Node3 -->
<g id="edge2" class="edge"><title>Node1&#45;&gt;Node3</title>
<path fill="none" stroke="midnightblue" d="M161.596,-124.088C153.89,-114.328 145.674,-103.921 139.079,-95.567"/>
<polygon fill="midnightblue" stroke="midnightblue" points="141.826,-93.3982 132.883,-87.7182 136.332,-97.7358 141.826,-93.3982"/>
</g>
<!-- Node4 -->
<g id="node4" class="node"><title>Node4</title>
<polygon fill="none" stroke="#bfbfbf" points="197.5,-68.5 197.5,-87.5 294.5,-87.5 294.5,-68.5 197.5,-68.5"/>
<text text-anchor="middle" x="246" y="-75.5" font-family="Helvetica,sans-Serif" font-size="10.00">yarp/os/Network.h</text>
</g>
<!-- Node1&#45;&gt;Node4 -->
<g id="edge3" class="edge"><title>Node1&#45;&gt;Node4</title>
<path fill="none" stroke="midnightblue" d="M210.404,-124.088C218.11,-114.328 226.326,-103.921 232.921,-95.567"/>
<polygon fill="midnightblue" stroke="midnightblue" points="235.668,-97.7358 239.117,-87.7182 230.174,-93.3982 235.668,-97.7358"/>
</g>
<!-- Node5 -->
<g id="node5" class="node"><title>Node5</title>
<g id="a_node5"><a xlink:href="_human_dynamics_estimator_8h.html" target="_top" xlink:title="HumanDynamicsEstimator.h">
<polygon fill="none" stroke="black" points="312.5,-68.5 312.5,-87.5 455.5,-87.5 455.5,-68.5 312.5,-68.5"/>
<text text-anchor="middle" x="384" y="-75.5" font-family="Helvetica,sans-Serif" font-size="10.00">HumanDynamicsEstimator.h</text>
</a>
</g>
</g>
<!-- Node1&#45;&gt;Node5 -->
<g id="edge4" class="edge"><title>Node1&#45;&gt;Node5</title>
<path fill="none" stroke="midnightblue" d="M257.203,-127.67C289.698,-115.197 326.54,-101.055 352.105,-91.2427"/>
<polygon fill="midnightblue" stroke="midnightblue" points="353.571,-94.429 361.652,-87.5779 351.062,-87.8939 353.571,-94.429"/>
</g>
<!-- Node6 -->
<g id="node6" class="node"><title>Node6</title>
<polygon fill="none" stroke="#bfbfbf" points="269.5,-6.5 269.5,-25.5 374.5,-25.5 374.5,-6.5 269.5,-6.5"/>
<text text-anchor="middle" x="322" y="-13.5" font-family="Helvetica,sans-Serif" font-size="10.00">yarp/os/RFModule.h</text>
</g>
<!-- Node5&#45;&gt;Node6 -->
<g id="edge5" class="edge"><title>Node5&#45;&gt;Node6</title>
<path fill="none" stroke="midnightblue" d="M375.117,-68.4035C365.541,-59.1361 350.089,-44.1828 338.314,-32.7876"/>
<polygon fill="midnightblue" stroke="midnightblue" points="340.487,-30.0197 330.867,-25.5806 335.619,-35.05 340.487,-30.0197"/>
</g>
<!-- Node7 -->
<g id="node7" class="node"><title>Node7</title>
<polygon fill="none" stroke="#bfbfbf" points="393,-1 393,-31 499,-31 499,-1 393,-1"/>
<text text-anchor="start" x="401" y="-19" font-family="Helvetica,sans-Serif" font-size="10.00">iDynTree/Estimation</text>
<text text-anchor="middle" x="446" y="-8" font-family="Helvetica,sans-Serif" font-size="10.00">/BerdyHelper.h</text>
</g>
<!-- Node5&#45;&gt;Node7 -->
<g id="edge6" class="edge"><title>Node5&#45;&gt;Node7</title>
<path fill="none" stroke="midnightblue" d="M392.883,-68.4035C400.966,-60.5811 413.235,-48.7077 423.946,-38.3424"/>
<polygon fill="midnightblue" stroke="midnightblue" points="426.636,-40.6102 431.388,-31.1408 421.768,-35.5799 426.636,-40.6102"/>
</g>
</g>
</svg>
