<?xml version="1.0" encoding="UTF-8" standalone="no"?>
<!DOCTYPE svg PUBLIC "-//W3C//DTD SVG 1.1//EN"
 "http://www.w3.org/Graphics/SVG/1.1/DTD/svg11.dtd">
<!-- Generated by graphviz version 2.36.0 (20140111.2315)
 -->
<!-- Title: /home/travis/build/robotology&#45;playground/human&#45;dynamics&#45;estimation/build/human&#45;state&#45;provider/autogenerated/include/thrifts/Quaternion.h Pages: 1 -->
<svg width="238pt" height="196pt"
 viewBox="0.00 0.00 238.00 196.00" xmlns="http://www.w3.org/2000/svg" xmlns:xlink="http://www.w3.org/1999/xlink">
<g id="graph0" class="graph" transform="scale(1 1) rotate(0) translate(4 192)">
<title>/home/travis/build/robotology&#45;playground/human&#45;dynamics&#45;estimation/build/human&#45;state&#45;provider/autogenerated/include/thrifts/Quaternion.h</title>
<!-- Node1 -->
<g id="node1" class="node"><title>Node1</title>
<polygon fill="#bfbfbf" stroke="black" points="33.5,-113 33.5,-187 176.5,-187 176.5,-113 33.5,-113"/>
<text text-anchor="start" x="41.5" y="-175" font-family="Helvetica,sans-Serif" font-size="10.00">/home/travis/build</text>
<text text-anchor="start" x="41.5" y="-164" font-family="Helvetica,sans-Serif" font-size="10.00">/robotology&#45;playground</text>
<text text-anchor="start" x="41.5" y="-153" font-family="Helvetica,sans-Serif" font-size="10.00">/human&#45;dynamics&#45;estimation</text>
<text text-anchor="start" x="41.5" y="-142" font-family="Helvetica,sans-Serif" font-size="10.00">/build/human&#45;state&#45;provider</text>
<text text-anchor="start" x="41.5" y="-131" font-family="Helvetica,sans-Serif" font-size="10.00">/autogenerated/include/thrifts</text>
<text text-anchor="middle" x="105" y="-120" font-family="Helvetica,sans-Serif" font-size="10.00">/Quaternion.h</text>
</g>
<!-- Node2 -->
<g id="node2" class="node"><title>Node2</title>
<polygon fill="none" stroke="#bfbfbf" points="0,-0.5 0,-19.5 80,-19.5 80,-0.5 0,-0.5"/>
<text text-anchor="middle" x="40" y="-7.5" font-family="Helvetica,sans-Serif" font-size="10.00">yarp/os/Wire.h</text>
</g>
<!-- Node1&#45;&gt;Node2 -->
<g id="edge1" class="edge"><title>Node1&#45;&gt;Node2</title>
<path fill="none" stroke="midnightblue" d="M74.7739,-112.937C66.636,-101.692 58.5588,-88.8537 53,-76 46.6405,-61.2946 43.3532,-43.3602 41.6774,-30.0577"/>
<polygon fill="midnightblue" stroke="midnightblue" points="45.1201,-29.3319 40.5829,-19.7577 38.1593,-30.0716 45.1201,-29.3319"/>
</g>
<!-- Node3 -->
<g id="node3" class="node"><title>Node3</title>
<polygon fill="none" stroke="#bfbfbf" points="110,-0.5 110,-19.5 230,-19.5 230,-0.5 110,-0.5"/>
<text text-anchor="middle" x="170" y="-7.5" font-family="Helvetica,sans-Serif" font-size="10.00">yarp/os/idl/WireTypes.h</text>
</g>
<!-- Node1&#45;&gt;Node3 -->
<g id="edge2" class="edge"><title>Node1&#45;&gt;Node3</title>
<path fill="none" stroke="midnightblue" d="M135.226,-112.937C143.364,-101.692 151.441,-88.8537 157,-76 163.36,-61.2946 166.647,-43.3602 168.323,-30.0577"/>
<polygon fill="midnightblue" stroke="midnightblue" points="171.841,-30.0716 169.417,-19.7577 164.88,-29.3319 171.841,-30.0716"/>
</g>
<!-- Node4 -->
<g id="node4" class="node"><title>Node4</title>
<g id="a_node4"><a xlink:href="human-state-provider_2autogenerated_2include_2thrifts_2_vector3_8h.html" target="_top" xlink:title="thrifts/Vector3.h">
<polygon fill="none" stroke="black" points="62,-56.5 62,-75.5 148,-75.5 148,-56.5 62,-56.5"/>
<text text-anchor="middle" x="105" y="-63.5" font-family="Helvetica,sans-Serif" font-size="10.00">thrifts/Vector3.h</text>
</a>
</g>
</g>
<!-- Node1&#45;&gt;Node4 -->
<g id="edge3" class="edge"><title>Node1&#45;&gt;Node4</title>
<path fill="none" stroke="midnightblue" d="M105,-112.795C105,-103.463 105,-93.7959 105,-85.7618"/>
<polygon fill="midnightblue" stroke="midnightblue" points="108.5,-85.6978 105,-75.6978 101.5,-85.6978 108.5,-85.6978"/>
</g>
<!-- Node4&#45;&gt;Node2 -->
<g id="edge4" class="edge"><title>Node4&#45;&gt;Node2</title>
<path fill="none" stroke="midnightblue" d="M94.5566,-56.324C84.8538,-48.2631 70.1847,-36.0765 58.5003,-26.3695"/>
<polygon fill="midnightblue" stroke="midnightblue" points="60.5619,-23.532 50.6334,-19.8339 56.0887,-28.9163 60.5619,-23.532"/>
</g>
<!-- Node4&#45;&gt;Node3 -->
<g id="edge5" class="edge"><title>Node4&#45;&gt;Node3</title>
<path fill="none" stroke="midnightblue" d="M115.443,-56.324C125.146,-48.2631 139.815,-36.0765 151.5,-26.3695"/>
<polygon fill="midnightblue" stroke="midnightblue" points="153.911,-28.9163 159.367,-19.8339 149.438,-23.532 153.911,-28.9163"/>
</g>
</g>
</svg>
