<?xml version="1.0" encoding="UTF-8" standalone="no"?>
<!DOCTYPE svg PUBLIC "-//W3C//DTD SVG 1.1//EN"
 "http://www.w3.org/Graphics/SVG/1.1/DTD/svg11.dtd">
<!-- Generated by graphviz version 2.36.0 (20140111.2315)
 -->
<!-- Title: /home/travis/build/robotology&#45;playground/human&#45;dynamics&#45;estimation/build/human&#45;viz&#45;bridge/autogenerated/data/include/thrift/Quaternion.h Pages: 1 -->
<svg width="1694pt" height="408pt"
 viewBox="0.00 0.00 1694.00 408.00" xmlns="http://www.w3.org/2000/svg" xmlns:xlink="http://www.w3.org/1999/xlink">
<g id="graph0" class="graph" transform="scale(1 1) rotate(0) translate(4 404)">
<title>/home/travis/build/robotology&#45;playground/human&#45;dynamics&#45;estimation/build/human&#45;viz&#45;bridge/autogenerated/data/include/thrift/Quaternion.h</title>
<!-- Node1 -->
<g id="node1" class="node"><title>Node1</title>
<polygon fill="#bfbfbf" stroke="black" points="393,-336.5 393,-399.5 575,-399.5 575,-336.5 393,-336.5"/>
<text text-anchor="start" x="401" y="-387.5" font-family="Helvetica,sans-Serif" font-size="10.00">/home/travis/build</text>
<text text-anchor="start" x="401" y="-376.5" font-family="Helvetica,sans-Serif" font-size="10.00">/robotology&#45;playground</text>
<text text-anchor="start" x="401" y="-365.5" font-family="Helvetica,sans-Serif" font-size="10.00">/human&#45;dynamics&#45;estimation</text>
<text text-anchor="start" x="401" y="-354.5" font-family="Helvetica,sans-Serif" font-size="10.00">/build/human&#45;viz&#45;bridge/autogenerated</text>
<text text-anchor="middle" x="484" y="-343.5" font-family="Helvetica,sans-Serif" font-size="10.00">/data/include/thrift/Quaternion.h</text>
</g>
<!-- Node2 -->
<g id="node2" class="node"><title>Node2</title>
<g id="a_node2"><a xlink:href="human-viz-bridge_2__yarp__idl___2thrift_2xsensframe_2_quaternion_8cpp.html" target="_top" xlink:title="/home/travis/build\l/robotology&#45;playground\l/human&#45;dynamics&#45;estimation\l/build/human&#45;viz&#45;bridge/\l_yarp_idl_/thrift/xsensframe\l/Quaternion.cpp">
<polygon fill="none" stroke="black" points="0,-225 0,-299 142,-299 142,-225 0,-225"/>
<text text-anchor="start" x="8" y="-287" font-family="Helvetica,sans-Serif" font-size="10.00">/home/travis/build</text>
<text text-anchor="start" x="8" y="-276" font-family="Helvetica,sans-Serif" font-size="10.00">/robotology&#45;playground</text>
<text text-anchor="start" x="8" y="-265" font-family="Helvetica,sans-Serif" font-size="10.00">/human&#45;dynamics&#45;estimation</text>
<text text-anchor="start" x="8" y="-254" font-family="Helvetica,sans-Serif" font-size="10.00">/build/human&#45;viz&#45;bridge/</text>
<text text-anchor="start" x="8" y="-243" font-family="Helvetica,sans-Serif" font-size="10.00">_yarp_idl_/thrift/xsensframe</text>
<text text-anchor="middle" x="71" y="-232" font-family="Helvetica,sans-Serif" font-size="10.00">/Quaternion.cpp</text>
</a>
</g>
</g>
<!-- Node1&#45;&gt;Node2 -->
<g id="edge1" class="edge"><title>Node1&#45;&gt;Node2</title>
<path fill="none" stroke="midnightblue" d="M382.664,-352.95C315.849,-342.149 226.976,-324.83 151,-300 148.091,-299.049 145.148,-298.021 142.195,-296.934"/>
<polygon fill="midnightblue" stroke="midnightblue" points="382.348,-356.444 392.774,-354.562 383.45,-349.531 382.348,-356.444"/>
</g>
<!-- Node3 -->
<g id="node3" class="node"><title>Node3</title>
<g id="a_node3"><a xlink:href="__yarp__idl___2thrift_2xsensframe_2_xsens_segment_data_8h.html" target="_top" xlink:title="/home/travis/build\l/robotology&#45;playground\l/human&#45;dynamics&#45;estimation\l/build/human&#45;viz&#45;bridge/\l_yarp_idl_/thrift/xsensframe\l/XsensSegmentData.h">
<polygon fill="none" stroke="black" points="160,-225 160,-299 302,-299 302,-225 160,-225"/>
<text text-anchor="start" x="168" y="-287" font-family="Helvetica,sans-Serif" font-size="10.00">/home/travis/build</text>
<text text-anchor="start" x="168" y="-276" font-family="Helvetica,sans-Serif" font-size="10.00">/robotology&#45;playground</text>
<text text-anchor="start" x="168" y="-265" font-family="Helvetica,sans-Serif" font-size="10.00">/human&#45;dynamics&#45;estimation</text>
<text text-anchor="start" x="168" y="-254" font-family="Helvetica,sans-Serif" font-size="10.00">/build/human&#45;viz&#45;bridge/</text>
<text text-anchor="start" x="168" y="-243" font-family="Helvetica,sans-Serif" font-size="10.00">_yarp_idl_/thrift/xsensframe</text>
<text text-anchor="middle" x="231" y="-232" font-family="Helvetica,sans-Serif" font-size="10.00">/XsensSegmentData.h</text>
</a>
</g>
</g>
<!-- Node1&#45;&gt;Node3 -->
<g id="edge2" class="edge"><title>Node1&#45;&gt;Node3</title>
<path fill="none" stroke="midnightblue" d="M392.137,-332.673C365.799,-322.494 337.142,-311.094 311,-300 308.183,-298.804 305.317,-297.57 302.429,-296.31"/>
<polygon fill="midnightblue" stroke="midnightblue" points="391.136,-336.039 401.726,-336.365 393.652,-329.506 391.136,-336.039"/>
</g>
<!-- Node5 -->
<g id="node5" class="node"><title>Node5</title>
<g id="a_node5"><a xlink:href="__yarp__idl___2thrift_2xsensframe_2_xsens_sensor_data_8h.html" target="_top" xlink:title="/home/travis/build\l/robotology&#45;playground\l/human&#45;dynamics&#45;estimation\l/build/human&#45;viz&#45;bridge/\l_yarp_idl_/thrift/xsensframe\l/XsensSensorData.h">
<polygon fill="none" stroke="black" points="320,-225 320,-299 462,-299 462,-225 320,-225"/>
<text text-anchor="start" x="328" y="-287" font-family="Helvetica,sans-Serif" font-size="10.00">/home/travis/build</text>
<text text-anchor="start" x="328" y="-276" font-family="Helvetica,sans-Serif" font-size="10.00">/robotology&#45;playground</text>
<text text-anchor="start" x="328" y="-265" font-family="Helvetica,sans-Serif" font-size="10.00">/human&#45;dynamics&#45;estimation</text>
<text text-anchor="start" x="328" y="-254" font-family="Helvetica,sans-Serif" font-size="10.00">/build/human&#45;viz&#45;bridge/</text>
<text text-anchor="start" x="328" y="-243" font-family="Helvetica,sans-Serif" font-size="10.00">_yarp_idl_/thrift/xsensframe</text>
<text text-anchor="middle" x="391" y="-232" font-family="Helvetica,sans-Serif" font-size="10.00">/XsensSensorData.h</text>
</a>
</g>
</g>
<!-- Node1&#45;&gt;Node5 -->
<g id="edge4" class="edge"><title>Node1&#45;&gt;Node5</title>
<path fill="none" stroke="midnightblue" d="M449.841,-328.801C441.22,-319.16 431.988,-308.836 423.453,-299.292"/>
<polygon fill="midnightblue" stroke="midnightblue" points="447.325,-331.238 456.6,-336.359 452.543,-326.572 447.325,-331.238"/>
</g>
<!-- Node6 -->
<g id="node6" class="node"><title>Node6</title>
<g id="a_node6"><a xlink:href="autogenerated_2data_2include_2thrift_2_xsens_segment_data_8h.html" target="_top" xlink:title="/home/travis/build\l/robotology&#45;playground\l/human&#45;dynamics&#45;estimation\l/build/human&#45;viz&#45;bridge/autogenerated\l/data/include/thrift/XsensSegmentData.h">
<polygon fill="none" stroke="black" points="480,-230.5 480,-293.5 674,-293.5 674,-230.5 480,-230.5"/>
<text text-anchor="start" x="488" y="-281.5" font-family="Helvetica,sans-Serif" font-size="10.00">/home/travis/build</text>
<text text-anchor="start" x="488" y="-270.5" font-family="Helvetica,sans-Serif" font-size="10.00">/robotology&#45;playground</text>
<text text-anchor="start" x="488" y="-259.5" font-family="Helvetica,sans-Serif" font-size="10.00">/human&#45;dynamics&#45;estimation</text>
<text text-anchor="start" x="488" y="-248.5" font-family="Helvetica,sans-Serif" font-size="10.00">/build/human&#45;viz&#45;bridge/autogenerated</text>
<text text-anchor="middle" x="577" y="-237.5" font-family="Helvetica,sans-Serif" font-size="10.00">/data/include/thrift/XsensSegmentData.h</text>
</a>
</g>
</g>
<!-- Node1&#45;&gt;Node6 -->
<g id="edge6" class="edge"><title>Node1&#45;&gt;Node6</title>
<path fill="none" stroke="midnightblue" d="M518.341,-328.597C528.601,-317.123 539.711,-304.699 549.474,-293.781"/>
<polygon fill="midnightblue" stroke="midnightblue" points="515.457,-326.572 511.4,-336.359 520.675,-331.238 515.457,-326.572"/>
</g>
<!-- Node14 -->
<g id="node14" class="node"><title>Node14</title>
<g id="a_node14"><a xlink:href="autogenerated_2data_2include_2thrift_2_xsens_sensor_data_8h.html" target="_top" xlink:title="/home/travis/build\l/robotology&#45;playground\l/human&#45;dynamics&#45;estimation\l/build/human&#45;viz&#45;bridge/autogenerated\l/data/include/thrift/XsensSensorData.h">
<polygon fill="none" stroke="black" points="945.5,-230.5 945.5,-293.5 1130.5,-293.5 1130.5,-230.5 945.5,-230.5"/>
<text text-anchor="start" x="953.5" y="-281.5" font-family="Helvetica,sans-Serif" font-size="10.00">/home/travis/build</text>
<text text-anchor="start" x="953.5" y="-270.5" font-family="Helvetica,sans-Serif" font-size="10.00">/robotology&#45;playground</text>
<text text-anchor="start" x="953.5" y="-259.5" font-family="Helvetica,sans-Serif" font-size="10.00">/human&#45;dynamics&#45;estimation</text>
<text text-anchor="start" x="953.5" y="-248.5" font-family="Helvetica,sans-Serif" font-size="10.00">/build/human&#45;viz&#45;bridge/autogenerated</text>
<text text-anchor="middle" x="1038" y="-237.5" font-family="Helvetica,sans-Serif" font-size="10.00">/data/include/thrift/XsensSensorData.h</text>
</a>
</g>
</g>
<!-- Node1&#45;&gt;Node14 -->
<g id="edge15" class="edge"><title>Node1&#45;&gt;Node14</title>
<path fill="none" stroke="midnightblue" d="M585.251,-347.993C688.023,-328.7 845.784,-299.084 945.349,-280.393"/>
<polygon fill="midnightblue" stroke="midnightblue" points="584.354,-344.6 575.171,-349.885 585.646,-351.48 584.354,-344.6"/>
</g>
<!-- Node21 -->
<g id="node21" class="node"><title>Node21</title>
<g id="a_node21"><a xlink:href="human-viz-bridge_2autogenerated_2data_2src_2_quaternion_8cpp.html" target="_top" xlink:title="/home/travis/build\l/robotology&#45;playground\l/human&#45;dynamics&#45;estimation\l/build/human&#45;viz&#45;bridge/autogenerated\l/data/src/Quaternion.cpp">
<polygon fill="none" stroke="black" points="1149,-230.5 1149,-293.5 1331,-293.5 1331,-230.5 1149,-230.5"/>
<text text-anchor="start" x="1157" y="-281.5" font-family="Helvetica,sans-Serif" font-size="10.00">/home/travis/build</text>
<text text-anchor="start" x="1157" y="-270.5" font-family="Helvetica,sans-Serif" font-size="10.00">/robotology&#45;playground</text>
<text text-anchor="start" x="1157" y="-259.5" font-family="Helvetica,sans-Serif" font-size="10.00">/human&#45;dynamics&#45;estimation</text>
<text text-anchor="start" x="1157" y="-248.5" font-family="Helvetica,sans-Serif" font-size="10.00">/build/human&#45;viz&#45;bridge/autogenerated</text>
<text text-anchor="middle" x="1240" y="-237.5" font-family="Helvetica,sans-Serif" font-size="10.00">/data/src/Quaternion.cpp</text>
</a>
</g>
</g>
<!-- Node1&#45;&gt;Node21 -->
<g id="edge23" class="edge"><title>Node1&#45;&gt;Node21</title>
<path fill="none" stroke="midnightblue" d="M585.547,-364.43C715.402,-359.369 946.5,-344.372 1139,-300 1146.73,-298.217 1154.68,-296.007 1162.56,-293.56"/>
<polygon fill="midnightblue" stroke="midnightblue" points="585.084,-360.945 575.223,-364.819 585.348,-367.94 585.084,-360.945"/>
</g>
<!-- Node4 -->
<g id="node4" class="node"><title>Node4</title>
<g id="a_node4"><a xlink:href="_xsens_frame__index_8h.html" target="_top" xlink:title="/home/travis/build\l/robotology&#45;playground\l/human&#45;dynamics&#45;estimation\l/build/human&#45;viz&#45;bridge/\l_yarp_idl_/thrift/xsensframe\l/XsensFrame_index.h">
<polygon fill="none" stroke="black" points="171,-1 171,-75 313,-75 313,-1 171,-1"/>
<text text-anchor="start" x="179" y="-63" font-family="Helvetica,sans-Serif" font-size="10.00">/home/travis/build</text>
<text text-anchor="start" x="179" y="-52" font-family="Helvetica,sans-Serif" font-size="10.00">/robotology&#45;playground</text>
<text text-anchor="start" x="179" y="-41" font-family="Helvetica,sans-Serif" font-size="10.00">/human&#45;dynamics&#45;estimation</text>
<text text-anchor="start" x="179" y="-30" font-family="Helvetica,sans-Serif" font-size="10.00">/build/human&#45;viz&#45;bridge/</text>
<text text-anchor="start" x="179" y="-19" font-family="Helvetica,sans-Serif" font-size="10.00">_yarp_idl_/thrift/xsensframe</text>
<text text-anchor="middle" x="242" y="-8" font-family="Helvetica,sans-Serif" font-size="10.00">/XsensFrame_index.h</text>
</a>
</g>
</g>
<!-- Node3&#45;&gt;Node4 -->
<g id="edge3" class="edge"><title>Node3&#45;&gt;Node4</title>
<path fill="none" stroke="midnightblue" d="M192.932,-216.496C187.203,-207.572 182.16,-197.884 179,-188 168.713,-155.827 167.227,-143.66 179,-112 183.959,-98.6627 192.571,-86.1343 201.862,-75.348"/>
<polygon fill="midnightblue" stroke="midnightblue" points="190.07,-218.51 198.597,-224.798 195.852,-214.565 190.07,-218.51"/>
</g>
<!-- Node5&#45;&gt;Node4 -->
<g id="edge5" class="edge"><title>Node5&#45;&gt;Node4</title>
<path fill="none" stroke="midnightblue" d="M310.138,-224.056C264.115,-208.452 237.181,-223.951 212,-188 188.687,-154.716 204.279,-107.557 220.405,-75.2613"/>
<polygon fill="midnightblue" stroke="midnightblue" points="309.011,-227.371 319.603,-227.616 311.475,-220.819 309.011,-227.371"/>
</g>
<!-- Node7 -->
<g id="node7" class="node"><title>Node7</title>
<g id="a_node7"><a xlink:href="__yarp__idl___2thrift_2xsensframe_2_xsens_segments_frame_8h.html" target="_top" xlink:title="/home/travis/build\l/robotology&#45;playground\l/human&#45;dynamics&#45;estimation\l/build/human&#45;viz&#45;bridge/\l_yarp_idl_/thrift/xsensframe\l/XsensSegmentsFrame.h">
<polygon fill="none" stroke="black" points="221,-113 221,-187 363,-187 363,-113 221,-113"/>
<text text-anchor="start" x="229" y="-175" font-family="Helvetica,sans-Serif" font-size="10.00">/home/travis/build</text>
<text text-anchor="start" x="229" y="-164" font-family="Helvetica,sans-Serif" font-size="10.00">/robotology&#45;playground</text>
<text text-anchor="start" x="229" y="-153" font-family="Helvetica,sans-Serif" font-size="10.00">/human&#45;dynamics&#45;estimation</text>
<text text-anchor="start" x="229" y="-142" font-family="Helvetica,sans-Serif" font-size="10.00">/build/human&#45;viz&#45;bridge/</text>
<text text-anchor="start" x="229" y="-131" font-family="Helvetica,sans-Serif" font-size="10.00">_yarp_idl_/thrift/xsensframe</text>
<text text-anchor="middle" x="292" y="-120" font-family="Helvetica,sans-Serif" font-size="10.00">/XsensSegmentsFrame.h</text>
</a>
</g>
</g>
<!-- Node6&#45;&gt;Node7 -->
<g id="edge7" class="edge"><title>Node6&#45;&gt;Node7</title>
<path fill="none" stroke="midnightblue" d="M480.461,-227.068C432.739,-210.213 383.005,-192.494 372,-188 369.167,-186.843 366.288,-185.641 363.388,-184.408"/>
<polygon fill="midnightblue" stroke="midnightblue" points="479.372,-230.395 489.967,-230.424 481.702,-223.795 479.372,-230.395"/>
</g>
<!-- Node8 -->
<g id="node8" class="node"><title>Node8</title>
<g id="a_node8"><a xlink:href="__yarp__idl___2thrift_2xsensframe_2_xsens_segment_data_8cpp.html" target="_top" xlink:title="/home/travis/build\l/robotology&#45;playground\l/human&#45;dynamics&#45;estimation\l/build/human&#45;viz&#45;bridge/\l_yarp_idl_/thrift/xsensframe\l/XsensSegmentData.cpp">
<polygon fill="none" stroke="black" points="581,-113 581,-187 723,-187 723,-113 581,-113"/>
<text text-anchor="start" x="589" y="-175" font-family="Helvetica,sans-Serif" font-size="10.00">/home/travis/build</text>
<text text-anchor="start" x="589" y="-164" font-family="Helvetica,sans-Serif" font-size="10.00">/robotology&#45;playground</text>
<text text-anchor="start" x="589" y="-153" font-family="Helvetica,sans-Serif" font-size="10.00">/human&#45;dynamics&#45;estimation</text>
<text text-anchor="start" x="589" y="-142" font-family="Helvetica,sans-Serif" font-size="10.00">/build/human&#45;viz&#45;bridge/</text>
<text text-anchor="start" x="589" y="-131" font-family="Helvetica,sans-Serif" font-size="10.00">_yarp_idl_/thrift/xsensframe</text>
<text text-anchor="middle" x="652" y="-120" font-family="Helvetica,sans-Serif" font-size="10.00">/XsensSegmentData.cpp</text>
</a>
</g>
</g>
<!-- Node6&#45;&gt;Node8 -->
<g id="edge9" class="edge"><title>Node6&#45;&gt;Node8</title>
<path fill="none" stroke="midnightblue" d="M603.617,-221.962C611.305,-210.686 619.662,-198.429 627.233,-187.325"/>
<polygon fill="midnightblue" stroke="midnightblue" points="600.633,-220.125 597.892,-230.359 606.417,-224.068 600.633,-220.125"/>
</g>
<!-- Node9 -->
<g id="node9" class="node"><title>Node9</title>
<g id="a_node9"><a xlink:href="autogenerated_2data_2include_2thrift_2_xsens_segments_frame_8h.html" target="_top" xlink:title="/home/travis/build\l/robotology&#45;playground\l/human&#45;dynamics&#45;estimation\l/build/human&#45;viz&#45;bridge/autogenerated\l/data/include/thrift/XsensSegmentsFrame.h">
<polygon fill="none" stroke="black" points="901,-118.5 901,-181.5 1107,-181.5 1107,-118.5 901,-118.5"/>
<text text-anchor="start" x="909" y="-169.5" font-family="Helvetica,sans-Serif" font-size="10.00">/home/travis/build</text>
<text text-anchor="start" x="909" y="-158.5" font-family="Helvetica,sans-Serif" font-size="10.00">/robotology&#45;playground</text>
<text text-anchor="start" x="909" y="-147.5" font-family="Helvetica,sans-Serif" font-size="10.00">/human&#45;dynamics&#45;estimation</text>
<text text-anchor="start" x="909" y="-136.5" font-family="Helvetica,sans-Serif" font-size="10.00">/build/human&#45;viz&#45;bridge/autogenerated</text>
<text text-anchor="middle" x="1004" y="-125.5" font-family="Helvetica,sans-Serif" font-size="10.00">/data/include/thrift/XsensSegmentsFrame.h</text>
</a>
</g>
</g>
<!-- Node6&#45;&gt;Node9 -->
<g id="edge10" class="edge"><title>Node6&#45;&gt;Node9</title>
<path fill="none" stroke="midnightblue" d="M684.15,-238.715C745.375,-225.347 823.39,-207.24 892,-188 899.197,-185.982 906.618,-183.787 914.054,-181.507"/>
<polygon fill="midnightblue" stroke="midnightblue" points="683.113,-235.358 674.085,-240.903 684.6,-242.199 683.113,-235.358"/>
</g>
<!-- Node13 -->
<g id="node13" class="node"><title>Node13</title>
<g id="a_node13"><a xlink:href="autogenerated_2data_2src_2_xsens_segment_data_8cpp.html" target="_top" xlink:title="/home/travis/build\l/robotology&#45;playground\l/human&#45;dynamics&#45;estimation\l/build/human&#45;viz&#45;bridge/autogenerated\l/data/src/XsensSegmentData.cpp">
<polygon fill="none" stroke="black" points="381,-118.5 381,-181.5 563,-181.5 563,-118.5 381,-118.5"/>
<text text-anchor="start" x="389" y="-169.5" font-family="Helvetica,sans-Serif" font-size="10.00">/home/travis/build</text>
<text text-anchor="start" x="389" y="-158.5" font-family="Helvetica,sans-Serif" font-size="10.00">/robotology&#45;playground</text>
<text text-anchor="start" x="389" y="-147.5" font-family="Helvetica,sans-Serif" font-size="10.00">/human&#45;dynamics&#45;estimation</text>
<text text-anchor="start" x="389" y="-136.5" font-family="Helvetica,sans-Serif" font-size="10.00">/build/human&#45;viz&#45;bridge/autogenerated</text>
<text text-anchor="middle" x="472" y="-125.5" font-family="Helvetica,sans-Serif" font-size="10.00">/data/src/XsensSegmentData.cpp</text>
</a>
</g>
</g>
<!-- Node6&#45;&gt;Node13 -->
<g id="edge14" class="edge"><title>Node6&#45;&gt;Node13</title>
<path fill="none" stroke="midnightblue" d="M540.789,-223.064C527.948,-209.612 513.665,-194.649 501.456,-181.858"/>
<polygon fill="midnightblue" stroke="midnightblue" points="538.315,-225.542 547.752,-230.359 543.379,-220.709 538.315,-225.542"/>
</g>
<!-- Node7&#45;&gt;Node4 -->
<g id="edge8" class="edge"><title>Node7&#45;&gt;Node4</title>
<path fill="none" stroke="midnightblue" d="M271.384,-103.645C267.06,-94.1313 262.555,-84.2204 258.409,-75.099"/>
<polygon fill="midnightblue" stroke="midnightblue" points="268.304,-105.327 275.628,-112.982 274.676,-102.43 268.304,-105.327"/>
</g>
<!-- Node10 -->
<g id="node10" class="node"><title>Node10</title>
<g id="a_node10"><a xlink:href="__yarp__idl___2thrift_2xsensframe_2_xsens_segments_frame_8cpp.html" target="_top" xlink:title="/home/travis/build\l/robotology&#45;playground\l/human&#45;dynamics&#45;estimation\l/build/human&#45;viz&#45;bridge/\l_yarp_idl_/thrift/xsensframe\l/XsensSegmentsFrame.cpp">
<polygon fill="none" stroke="black" points="753,-1 753,-75 895,-75 895,-1 753,-1"/>
<text text-anchor="start" x="761" y="-63" font-family="Helvetica,sans-Serif" font-size="10.00">/home/travis/build</text>
<text text-anchor="start" x="761" y="-52" font-family="Helvetica,sans-Serif" font-size="10.00">/robotology&#45;playground</text>
<text text-anchor="start" x="761" y="-41" font-family="Helvetica,sans-Serif" font-size="10.00">/human&#45;dynamics&#45;estimation</text>
<text text-anchor="start" x="761" y="-30" font-family="Helvetica,sans-Serif" font-size="10.00">/build/human&#45;viz&#45;bridge/</text>
<text text-anchor="start" x="761" y="-19" font-family="Helvetica,sans-Serif" font-size="10.00">_yarp_idl_/thrift/xsensframe</text>
<text text-anchor="middle" x="824" y="-8" font-family="Helvetica,sans-Serif" font-size="10.00">/XsensSegmentsFrame.cpp</text>
</a>
</g>
</g>
<!-- Node9&#45;&gt;Node10 -->
<g id="edge11" class="edge"><title>Node9&#45;&gt;Node10</title>
<path fill="none" stroke="midnightblue" d="M945.189,-113.06C925.28,-100.894 903.048,-87.3073 883.116,-75.1264"/>
<polygon fill="midnightblue" stroke="midnightblue" points="943.502,-116.131 953.86,-118.359 947.152,-110.158 943.502,-116.131"/>
</g>
<!-- Node11 -->
<g id="node11" class="node"><title>Node11</title>
<g id="a_node11"><a xlink:href="autogenerated_2data_2src_2_xsens_segments_frame_8cpp.html" target="_top" xlink:title="/home/travis/build\l/robotology&#45;playground\l/human&#45;dynamics&#45;estimation\l/build/human&#45;viz&#45;bridge/autogenerated\l/data/src/XsensSegmentsFrame.cpp">
<polygon fill="none" stroke="black" points="913,-6.5 913,-69.5 1095,-69.5 1095,-6.5 913,-6.5"/>
<text text-anchor="start" x="921" y="-57.5" font-family="Helvetica,sans-Serif" font-size="10.00">/home/travis/build</text>
<text text-anchor="start" x="921" y="-46.5" font-family="Helvetica,sans-Serif" font-size="10.00">/robotology&#45;playground</text>
<text text-anchor="start" x="921" y="-35.5" font-family="Helvetica,sans-Serif" font-size="10.00">/human&#45;dynamics&#45;estimation</text>
<text text-anchor="start" x="921" y="-24.5" font-family="Helvetica,sans-Serif" font-size="10.00">/build/human&#45;viz&#45;bridge/autogenerated</text>
<text text-anchor="middle" x="1004" y="-13.5" font-family="Helvetica,sans-Serif" font-size="10.00">/data/src/XsensSegmentsFrame.cpp</text>
</a>
</g>
</g>
<!-- Node9&#45;&gt;Node11 -->
<g id="edge12" class="edge"><title>Node9&#45;&gt;Node11</title>
<path fill="none" stroke="midnightblue" d="M1004,-108.052C1004,-95.4076 1004,-81.7014 1004,-69.8583"/>
<polygon fill="midnightblue" stroke="midnightblue" points="1000.5,-108.359 1004,-118.359 1007.5,-108.359 1000.5,-108.359"/>
</g>
<!-- Node12 -->
<g id="node12" class="node"><title>Node12</title>
<g id="a_node12"><a xlink:href="_human_t_f_bridge_8cpp.html" target="_top" xlink:title="/home/travis/build\l/robotology&#45;playground\l/human&#45;dynamics&#45;estimation\l/human&#45;viz&#45;bridge/src/HumanTFBridge.cpp">
<polygon fill="none" stroke="black" points="1113.5,-12 1113.5,-64 1316.5,-64 1316.5,-12 1113.5,-12"/>
<text text-anchor="start" x="1121.5" y="-52" font-family="Helvetica,sans-Serif" font-size="10.00">/home/travis/build</text>
<text text-anchor="start" x="1121.5" y="-41" font-family="Helvetica,sans-Serif" font-size="10.00">/robotology&#45;playground</text>
<text text-anchor="start" x="1121.5" y="-30" font-family="Helvetica,sans-Serif" font-size="10.00">/human&#45;dynamics&#45;estimation</text>
<text text-anchor="middle" x="1215" y="-19" font-family="Helvetica,sans-Serif" font-size="10.00">/human&#45;viz&#45;bridge/src/HumanTFBridge.cpp</text>
</a>
</g>
</g>
<!-- Node9&#45;&gt;Node12 -->
<g id="edge13" class="edge"><title>Node9&#45;&gt;Node12</title>
<path fill="none" stroke="midnightblue" d="M1071.79,-113.661C1102.75,-97.5179 1138.71,-78.7729 1166.85,-64.1037"/>
<polygon fill="midnightblue" stroke="midnightblue" points="1070.02,-110.632 1062.78,-118.359 1073.26,-116.84 1070.02,-110.632"/>
</g>
<!-- Node15 -->
<g id="node15" class="node"><title>Node15</title>
<g id="a_node15"><a xlink:href="__yarp__idl___2thrift_2xsensframe_2_xsens_sensors_frame_8h.html" target="_top" xlink:title="/home/travis/build\l/robotology&#45;playground\l/human&#45;dynamics&#45;estimation\l/build/human&#45;viz&#45;bridge/\l_yarp_idl_/thrift/xsensframe\l/XsensSensorsFrame.h">
<polygon fill="none" stroke="black" points="741,-113 741,-187 883,-187 883,-113 741,-113"/>
<text text-anchor="start" x="749" y="-175" font-family="Helvetica,sans-Serif" font-size="10.00">/home/travis/build</text>
<text text-anchor="start" x="749" y="-164" font-family="Helvetica,sans-Serif" font-size="10.00">/robotology&#45;playground</text>
<text text-anchor="start" x="749" y="-153" font-family="Helvetica,sans-Serif" font-size="10.00">/human&#45;dynamics&#45;estimation</text>
<text text-anchor="start" x="749" y="-142" font-family="Helvetica,sans-Serif" font-size="10.00">/build/human&#45;viz&#45;bridge/</text>
<text text-anchor="start" x="749" y="-131" font-family="Helvetica,sans-Serif" font-size="10.00">_yarp_idl_/thrift/xsensframe</text>
<text text-anchor="middle" x="812" y="-120" font-family="Helvetica,sans-Serif" font-size="10.00">/XsensSensorsFrame.h</text>
</a>
</g>
</g>
<!-- Node14&#45;&gt;Node15 -->
<g id="edge16" class="edge"><title>Node14&#45;&gt;Node15</title>
<path fill="none" stroke="midnightblue" d="M965.872,-225.893C939.496,-213.056 909.687,-198.547 883.377,-185.741"/>
<polygon fill="midnightblue" stroke="midnightblue" points="964.523,-229.129 975.046,-230.359 967.587,-222.835 964.523,-229.129"/>
</g>
<!-- Node16 -->
<g id="node16" class="node"><title>Node16</title>
<g id="a_node16"><a xlink:href="__yarp__idl___2thrift_2xsensframe_2_xsens_sensor_data_8cpp.html" target="_top" xlink:title="/home/travis/build\l/robotology&#45;playground\l/human&#45;dynamics&#45;estimation\l/build/human&#45;viz&#45;bridge/\l_yarp_idl_/thrift/xsensframe\l/XsensSensorData.cpp">
<polygon fill="none" stroke="black" points="1541,-113 1541,-187 1683,-187 1683,-113 1541,-113"/>
<text text-anchor="start" x="1549" y="-175" font-family="Helvetica,sans-Serif" font-size="10.00">/home/travis/build</text>
<text text-anchor="start" x="1549" y="-164" font-family="Helvetica,sans-Serif" font-size="10.00">/robotology&#45;playground</text>
<text text-anchor="start" x="1549" y="-153" font-family="Helvetica,sans-Serif" font-size="10.00">/human&#45;dynamics&#45;estimation</text>
<text text-anchor="start" x="1549" y="-142" font-family="Helvetica,sans-Serif" font-size="10.00">/build/human&#45;viz&#45;bridge/</text>
<text text-anchor="start" x="1549" y="-131" font-family="Helvetica,sans-Serif" font-size="10.00">_yarp_idl_/thrift/xsensframe</text>
<text text-anchor="middle" x="1612" y="-120" font-family="Helvetica,sans-Serif" font-size="10.00">/XsensSensorData.cpp</text>
</a>
</g>
</g>
<!-- Node14&#45;&gt;Node16 -->
<g id="edge18" class="edge"><title>Node14&#45;&gt;Node16</title>
<path fill="none" stroke="midnightblue" d="M1125.75,-227.581C1130.53,-226.257 1135.31,-225.049 1140,-224 1310.31,-185.933 1362.36,-232.889 1531,-188 1534.29,-187.125 1537.61,-186.127 1540.93,-185.034"/>
<polygon fill="midnightblue" stroke="midnightblue" points="1124.53,-224.289 1115.92,-230.451 1126.5,-231.009 1124.53,-224.289"/>
</g>
<!-- Node17 -->
<g id="node17" class="node"><title>Node17</title>
<g id="a_node17"><a xlink:href="autogenerated_2data_2include_2thrift_2_xsens_sensors_frame_8h.html" target="_top" xlink:title="/home/travis/build\l/robotology&#45;playground\l/human&#45;dynamics&#45;estimation\l/build/human&#45;viz&#45;bridge/autogenerated\l/data/include/thrift/XsensSensorsFrame.h">
<polygon fill="none" stroke="black" points="1325.5,-118.5 1325.5,-181.5 1522.5,-181.5 1522.5,-118.5 1325.5,-118.5"/>
<text text-anchor="start" x="1333.5" y="-169.5" font-family="Helvetica,sans-Serif" font-size="10.00">/home/travis/build</text>
<text text-anchor="start" x="1333.5" y="-158.5" font-family="Helvetica,sans-Serif" font-size="10.00">/robotology&#45;playground</text>
<text text-anchor="start" x="1333.5" y="-147.5" font-family="Helvetica,sans-Serif" font-size="10.00">/human&#45;dynamics&#45;estimation</text>
<text text-anchor="start" x="1333.5" y="-136.5" font-family="Helvetica,sans-Serif" font-size="10.00">/build/human&#45;viz&#45;bridge/autogenerated</text>
<text text-anchor="middle" x="1424" y="-125.5" font-family="Helvetica,sans-Serif" font-size="10.00">/data/include/thrift/XsensSensorsFrame.h</text>
</a>
</g>
</g>
<!-- Node14&#45;&gt;Node17 -->
<g id="edge19" class="edge"><title>Node14&#45;&gt;Node17</title>
<path fill="none" stroke="midnightblue" d="M1128.55,-227.383C1132.4,-226.196 1136.23,-225.063 1140,-224 1216.84,-202.329 1238.96,-208.982 1316,-188 1323.17,-186.047 1330.56,-183.872 1337.95,-181.582"/>
<polygon fill="midnightblue" stroke="midnightblue" points="1127.41,-224.072 1118.94,-230.43 1129.53,-230.745 1127.41,-224.072"/>
</g>
<!-- Node20 -->
<g id="node20" class="node"><title>Node20</title>
<g id="a_node20"><a xlink:href="autogenerated_2data_2src_2_xsens_sensor_data_8cpp.html" target="_top" xlink:title="/home/travis/build\l/robotology&#45;playground\l/human&#45;dynamics&#45;estimation\l/build/human&#45;viz&#45;bridge/autogenerated\l/data/src/XsensSensorData.cpp">
<polygon fill="none" stroke="black" points="1125,-118.5 1125,-181.5 1307,-181.5 1307,-118.5 1125,-118.5"/>
<text text-anchor="start" x="1133" y="-169.5" font-family="Helvetica,sans-Serif" font-size="10.00">/home/travis/build</text>
<text text-anchor="start" x="1133" y="-158.5" font-family="Helvetica,sans-Serif" font-size="10.00">/robotology&#45;playground</text>
<text text-anchor="start" x="1133" y="-147.5" font-family="Helvetica,sans-Serif" font-size="10.00">/human&#45;dynamics&#45;estimation</text>
<text text-anchor="start" x="1133" y="-136.5" font-family="Helvetica,sans-Serif" font-size="10.00">/build/human&#45;viz&#45;bridge/autogenerated</text>
<text text-anchor="middle" x="1216" y="-125.5" font-family="Helvetica,sans-Serif" font-size="10.00">/data/src/XsensSensorData.cpp</text>
</a>
</g>
</g>
<!-- Node14&#45;&gt;Node20 -->
<g id="edge22" class="edge"><title>Node14&#45;&gt;Node20</title>
<path fill="none" stroke="midnightblue" d="M1096.12,-225.085C1118.81,-211.059 1144.57,-195.143 1166.37,-181.667"/>
<polygon fill="midnightblue" stroke="midnightblue" points="1094.25,-222.124 1087.58,-230.359 1097.93,-228.079 1094.25,-222.124"/>
</g>
<!-- Node15&#45;&gt;Node4 -->
<g id="edge17" class="edge"><title>Node15&#45;&gt;Node4</title>
<path fill="none" stroke="midnightblue" d="M730.914,-111.936C579.392,-67.8562 407.679,-50.2389 313.158,-43.2265"/>
<polygon fill="midnightblue" stroke="midnightblue" points="730.282,-115.399 740.864,-114.878 732.267,-108.686 730.282,-115.399"/>
</g>
<!-- Node18 -->
<g id="node18" class="node"><title>Node18</title>
<g id="a_node18"><a xlink:href="__yarp__idl___2thrift_2xsensframe_2_xsens_sensors_frame_8cpp.html" target="_top" xlink:title="/home/travis/build\l/robotology&#45;playground\l/human&#45;dynamics&#45;estimation\l/build/human&#45;viz&#45;bridge/\l_yarp_idl_/thrift/xsensframe\l/XsensSensorsFrame.cpp">
<polygon fill="none" stroke="black" points="1344,-1 1344,-75 1486,-75 1486,-1 1344,-1"/>
<text text-anchor="start" x="1352" y="-63" font-family="Helvetica,sans-Serif" font-size="10.00">/home/travis/build</text>
<text text-anchor="start" x="1352" y="-52" font-family="Helvetica,sans-Serif" font-size="10.00">/robotology&#45;playground</text>
<text text-anchor="start" x="1352" y="-41" font-family="Helvetica,sans-Serif" font-size="10.00">/human&#45;dynamics&#45;estimation</text>
<text text-anchor="start" x="1352" y="-30" font-family="Helvetica,sans-Serif" font-size="10.00">/build/human&#45;viz&#45;bridge/</text>
<text text-anchor="start" x="1352" y="-19" font-family="Helvetica,sans-Serif" font-size="10.00">_yarp_idl_/thrift/xsensframe</text>
<text text-anchor="middle" x="1415" y="-8" font-family="Helvetica,sans-Serif" font-size="10.00">/XsensSensorsFrame.cpp</text>
</a>
</g>
</g>
<!-- Node17&#45;&gt;Node18 -->
<g id="edge20" class="edge"><title>Node17&#45;&gt;Node18</title>
<path fill="none" stroke="midnightblue" d="M1420.67,-108.297C1419.79,-97.487 1418.84,-85.8851 1417.97,-75.3254"/>
<polygon fill="midnightblue" stroke="midnightblue" points="1417.19,-108.678 1421.49,-118.359 1424.17,-108.107 1417.19,-108.678"/>
</g>
<!-- Node19 -->
<g id="node19" class="node"><title>Node19</title>
<g id="a_node19"><a xlink:href="autogenerated_2data_2src_2_xsens_sensors_frame_8cpp.html" target="_top" xlink:title="/home/travis/build\l/robotology&#45;playground\l/human&#45;dynamics&#45;estimation\l/build/human&#45;viz&#45;bridge/autogenerated\l/data/src/XsensSensorsFrame.cpp">
<polygon fill="none" stroke="black" points="1504,-6.5 1504,-69.5 1686,-69.5 1686,-6.5 1504,-6.5"/>
<text text-anchor="start" x="1512" y="-57.5" font-family="Helvetica,sans-Serif" font-size="10.00">/home/travis/build</text>
<text text-anchor="start" x="1512" y="-46.5" font-family="Helvetica,sans-Serif" font-size="10.00">/robotology&#45;playground</text>
<text text-anchor="start" x="1512" y="-35.5" font-family="Helvetica,sans-Serif" font-size="10.00">/human&#45;dynamics&#45;estimation</text>
<text text-anchor="start" x="1512" y="-24.5" font-family="Helvetica,sans-Serif" font-size="10.00">/build/human&#45;viz&#45;bridge/autogenerated</text>
<text text-anchor="middle" x="1595" y="-13.5" font-family="Helvetica,sans-Serif" font-size="10.00">/data/src/XsensSensorsFrame.cpp</text>
</a>
</g>
</g>
<!-- Node17&#45;&gt;Node19 -->
<g id="edge21" class="edge"><title>Node17&#45;&gt;Node19</title>
<path fill="none" stroke="midnightblue" d="M1480.12,-112.899C1501.85,-98.9188 1526.47,-83.0834 1547.33,-69.6674"/>
<polygon fill="midnightblue" stroke="midnightblue" points="1478.15,-110.005 1471.63,-118.359 1481.94,-115.892 1478.15,-110.005"/>
</g>
</g>
</svg>
