<?xml version="1.0" encoding="UTF-8" standalone="no"?>
<!DOCTYPE svg PUBLIC "-//W3C//DTD SVG 1.1//EN"
 "http://www.w3.org/Graphics/SVG/1.1/DTD/svg11.dtd">
<!-- Generated by graphviz version 2.36.0 (20140111.2315)
 -->
<!-- Title: /home/travis/build/robotology&#45;playground/human&#45;dynamics&#45;estimation/human&#45;forces&#45;provider/src/main.cpp Pages: 1 -->
<!--zoomable 352 -->
<svg id="main" version="1.1" xmlns="http://www.w3.org/2000/svg" xmlns:xlink="http://www.w3.org/1999/xlink" xml:space="preserve" onload="init(evt)">
<style type="text/css"><![CDATA[
.edge:hover path { stroke: red; }
.edge:hover polygon { stroke: red; fill: red; }
]]></style>
<script type="text/javascript"><![CDATA[
var edges = document.getElementsByTagName('g');
if (edges && edges.length) {
  for (var i=0;i<edges.length;i++) {
    if (edges[i].id.substr(0,4)=='edge') {
      edges[i].setAttribute('class','edge');
    }
  }
}
]]></script>
        <defs>
                <circle id="rim" cx="0" cy="0" r="7"/>
                <circle id="rim2" cx="0" cy="0" r="3.5"/>
                <g id="zoomPlus">
                        <use xlink:href="#rim" fill="#404040">
                                <set attributeName="fill" to="#808080" begin="zoomplus.mouseover" end="zoomplus.mouseout"/>
                        </use>
                        <path d="M-4,0h8M0,-4v8" fill="none" stroke="white" stroke-width="1.5" pointer-events="none"/>
                </g>
                <g id="zoomMin">
                        <use xlink:href="#rim" fill="#404040">
                                <set attributeName="fill" to="#808080" begin="zoomminus.mouseover" end="zoomminus.mouseout"/>
                        </use>
                        <path d="M-4,0h8" fill="none" stroke="white" stroke-width="1.5" pointer-events="none"/>
                </g>
                <g id="dirArrow">
                        <path fill="none" stroke="white" stroke-width="1.5" d="M0,-3.0v7 M-2.5,-0.5L0,-3.0L2.5,-0.5"/>
                </g>
               <g id="resetDef">
                       <use xlink:href="#rim2" fill="#404040">
                               <set attributeName="fill" to="#808080" begin="reset.mouseover" end="reset.mouseout"/>
                       </use>
               </g>
        </defs>

<script type="text/javascript">
var viewWidth = 773;
var viewHeight = 352;
var sectionId = 'dynsection-0';
</script>
<script xlink:href="svgpan.js"/>
<svg id="graph" class="graph">
<g id="viewport">
<title>/home/travis/build/robotology&#45;playground/human&#45;dynamics&#45;estimation/human&#45;forces&#45;provider/src/main.cpp</title>
<!-- Node1 -->
<g id="node1" class="node"><title>Node1</title>
<polygon fill="#bfbfbf" stroke="black" points="415,-280.5 415,-343.5 557,-343.5 557,-280.5 415,-280.5"/>
<text text-anchor="start" x="423" y="-331.5" font-family="Helvetica,sans-Serif" font-size="10.00">/home/travis/build</text>
<text text-anchor="start" x="423" y="-320.5" font-family="Helvetica,sans-Serif" font-size="10.00">/robotology&#45;playground</text>
<text text-anchor="start" x="423" y="-309.5" font-family="Helvetica,sans-Serif" font-size="10.00">/human&#45;dynamics&#45;estimation</text>
<text text-anchor="start" x="423" y="-298.5" font-family="Helvetica,sans-Serif" font-size="10.00">/human&#45;forces&#45;provider/src</text>
<text text-anchor="middle" x="486" y="-287.5" font-family="Helvetica,sans-Serif" font-size="10.00">/main.cpp</text>
</g>
<!-- Node2 -->
<g id="node2" class="node"><title>Node2</title>
<g id="a_node2"><a xlink:href="_human_forces_provider_8h.html" target="_top" xlink:title="HumanForcesProvider.h">
<polygon fill="none" stroke="black" points="292,-224.5 292,-243.5 414,-243.5 414,-224.5 292,-224.5"/>
<text text-anchor="middle" x="353" y="-231.5" font-family="Helvetica,sans-Serif" font-size="10.00">HumanForcesProvider.h</text>
</a>
</g>
</g>
<!-- Node1&#45;&gt;Node2 -->
<g id="edge1" class="edge"><title>Node1&#45;&gt;Node2</title>
<path fill="none" stroke="midnightblue" d="M432.287,-280.307C413.063,-269.322 392.357,-257.489 376.927,-248.672"/>
<polygon fill="midnightblue" stroke="midnightblue" points="378.481,-245.529 368.062,-243.607 375.008,-251.607 378.481,-245.529"/>
</g>
<!-- Node14 -->
<g id="node14" class="node"><title>Node14</title>
<polygon fill="none" stroke="#bfbfbf" points="432.5,-224.5 432.5,-243.5 539.5,-243.5 539.5,-224.5 432.5,-224.5"/>
<text text-anchor="middle" x="486" y="-231.5" font-family="Helvetica,sans-Serif" font-size="10.00">yarp/os/LogStream.h</text>
</g>
<!-- Node1&#45;&gt;Node14 -->
<g id="edge23" class="edge"><title>Node1&#45;&gt;Node14</title>
<path fill="none" stroke="midnightblue" d="M486,-280.088C486,-271.15 486,-261.669 486,-253.719"/>
<polygon fill="midnightblue" stroke="midnightblue" points="489.5,-253.718 486,-243.718 482.5,-253.718 489.5,-253.718"/>
</g>
<!-- Node15 -->
<g id="node15" class="node"><title>Node15</title>
<polygon fill="none" stroke="#bfbfbf" points="557.5,-224.5 557.5,-243.5 654.5,-243.5 654.5,-224.5 557.5,-224.5"/>
<text text-anchor="middle" x="606" y="-231.5" font-family="Helvetica,sans-Serif" font-size="10.00">yarp/os/Network.h</text>
</g>
<!-- Node1&#45;&gt;Node15 -->
<g id="edge24" class="edge"><title>Node1&#45;&gt;Node15</title>
<path fill="none" stroke="midnightblue" d="M534.463,-280.307C551.481,-269.529 569.786,-257.936 583.619,-249.175"/>
<polygon fill="midnightblue" stroke="midnightblue" points="585.835,-251.914 592.41,-243.607 582.09,-246 585.835,-251.914"/>
</g>
<!-- Node3 -->
<g id="node3" class="node"><title>Node3</title>
<polygon fill="none" stroke="#bfbfbf" points="-0.5,-168.5 -0.5,-187.5 104.5,-187.5 104.5,-168.5 -0.5,-168.5"/>
<text text-anchor="middle" x="52" y="-175.5" font-family="Helvetica,sans-Serif" font-size="10.00">yarp/os/RFModule.h</text>
</g>
<!-- Node2&#45;&gt;Node3 -->
<g id="edge2" class="edge"><title>Node2&#45;&gt;Node3</title>
<path fill="none" stroke="midnightblue" d="M305.306,-224.444C252.136,-214.905 166.176,-199.483 109.374,-189.293"/>
<polygon fill="midnightblue" stroke="midnightblue" points="109.932,-185.837 99.4712,-187.516 108.696,-192.727 109.932,-185.837"/>
</g>
<!-- Node4 -->
<g id="node4" class="node"><title>Node4</title>
<polygon fill="none" stroke="#bfbfbf" points="122.5,-168.5 122.5,-187.5 237.5,-187.5 237.5,-168.5 122.5,-168.5"/>
<text text-anchor="middle" x="180" y="-175.5" font-family="Helvetica,sans-Serif" font-size="10.00">yarp/os/BufferedPort.h</text>
</g>
<!-- Node2&#45;&gt;Node4 -->
<g id="edge3" class="edge"><title>Node2&#45;&gt;Node4</title>
<path fill="none" stroke="midnightblue" d="M325.588,-224.444C296.231,-215.28 249.481,-200.688 216.904,-190.519"/>
<polygon fill="midnightblue" stroke="midnightblue" points="217.873,-187.155 207.284,-187.516 215.787,-193.837 217.873,-187.155"/>
</g>
<!-- Node5 -->
<g id="node5" class="node"><title>Node5</title>
<polygon fill="none" stroke="#bfbfbf" points="255.5,-168.5 255.5,-187.5 366.5,-187.5 366.5,-168.5 255.5,-168.5"/>
<text text-anchor="middle" x="311" y="-175.5" font-family="Helvetica,sans-Serif" font-size="10.00">yarp/dev/PolyDriver.h</text>
</g>
<!-- Node2&#45;&gt;Node5 -->
<g id="edge4" class="edge"><title>Node2&#45;&gt;Node5</title>
<path fill="none" stroke="midnightblue" d="M346.065,-224.083C340.071,-216.377 331.248,-205.033 323.952,-195.653"/>
<polygon fill="midnightblue" stroke="midnightblue" points="326.709,-193.496 317.806,-187.751 321.183,-197.793 326.709,-193.496"/>
</g>
<!-- Node6 -->
<g id="node6" class="node"><title>Node6</title>
<polygon fill="none" stroke="#bfbfbf" points="279.5,-112.5 279.5,-131.5 370.5,-131.5 370.5,-112.5 279.5,-112.5"/>
<text text-anchor="middle" x="325" y="-119.5" font-family="Helvetica,sans-Serif" font-size="10.00">yarp/sig/Vector.h</text>
</g>
<!-- Node2&#45;&gt;Node6 -->
<g id="edge5" class="edge"><title>Node2&#45;&gt;Node6</title>
<path fill="none" stroke="midnightblue" d="M359.972,-224.395C369.304,-211.766 383.724,-187.589 375,-168 369.432,-155.498 358.484,-145.012 348.249,-137.317"/>
<polygon fill="midnightblue" stroke="midnightblue" points="350.156,-134.379 339.952,-131.526 346.149,-140.119 350.156,-134.379"/>
</g>
<!-- Node7 -->
<g id="node7" class="node"><title>Node7</title>
<g id="a_node7"><a xlink:href="autogenerated_2include_2thrifts_2_human_forces_8h.html" target="_top" xlink:title="thrifts/HumanForces.h">
<polygon fill="none" stroke="black" points="589,-112.5 589,-131.5 703,-131.5 703,-112.5 589,-112.5"/>
<text text-anchor="middle" x="646" y="-119.5" font-family="Helvetica,sans-Serif" font-size="10.00">thrifts/HumanForces.h</text>
</a>
</g>
</g>
<!-- Node2&#45;&gt;Node7 -->
<g id="edge6" class="edge"><title>Node2&#45;&gt;Node7</title>
<path fill="none" stroke="midnightblue" d="M407.294,-224.439C445.149,-217.379 496.316,-205.627 539,-188 571.375,-174.63 605.391,-152.335 626.152,-137.65"/>
<polygon fill="midnightblue" stroke="midnightblue" points="628.374,-140.364 634.45,-131.684 624.288,-134.68 628.374,-140.364"/>
</g>
<!-- Node11 -->
<g id="node11" class="node"><title>Node11</title>
<g id="a_node11"><a xlink:href="autogenerated_2include_2thrifts_2_human_state_8h.html" target="_top" xlink:title="thrifts/HumanState.h">
<polygon fill="none" stroke="black" points="423.5,-168.5 423.5,-187.5 530.5,-187.5 530.5,-168.5 423.5,-168.5"/>
<text text-anchor="middle" x="477" y="-175.5" font-family="Helvetica,sans-Serif" font-size="10.00">thrifts/HumanState.h</text>
</a>
</g>
</g>
<!-- Node2&#45;&gt;Node11 -->
<g id="edge12" class="edge"><title>Node2&#45;&gt;Node11</title>
<path fill="none" stroke="midnightblue" d="M372.648,-224.444C392.965,-215.596 424.903,-201.687 448.098,-191.586"/>
<polygon fill="midnightblue" stroke="midnightblue" points="449.673,-194.718 457.444,-187.516 446.878,-188.3 449.673,-194.718"/>
</g>
<!-- Node8 -->
<g id="node8" class="node"><title>Node8</title>
<polygon fill="none" stroke="#bfbfbf" points="685,-0.5 685,-19.5 765,-19.5 765,-0.5 685,-0.5"/>
<text text-anchor="middle" x="725" y="-7.5" font-family="Helvetica,sans-Serif" font-size="10.00">yarp/os/Wire.h</text>
</g>
<!-- Node7&#45;&gt;Node8 -->
<g id="edge7" class="edge"><title>Node7&#45;&gt;Node8</title>
<path fill="none" stroke="midnightblue" d="M685.255,-112.475C704.996,-105.99 727.184,-94.8434 739,-76 747.981,-61.6771 742.104,-42.4688 735.43,-28.6525"/>
<polygon fill="midnightblue" stroke="midnightblue" points="738.438,-26.8544 730.631,-19.6919 732.267,-30.1596 738.438,-26.8544"/>
</g>
<!-- Node9 -->
<g id="node9" class="node"><title>Node9</title>
<polygon fill="none" stroke="#bfbfbf" points="448,-0.5 448,-19.5 568,-19.5 568,-0.5 448,-0.5"/>
<text text-anchor="middle" x="508" y="-7.5" font-family="Helvetica,sans-Serif" font-size="10.00">yarp/os/idl/WireTypes.h</text>
</g>
<!-- Node7&#45;&gt;Node9 -->
<g id="edge8" class="edge"><title>Node7&#45;&gt;Node9</title>
<path fill="none" stroke="midnightblue" d="M635.171,-112.368C611.692,-93.6531 555.862,-49.1509 526.608,-25.8324"/>
<polygon fill="midnightblue" stroke="midnightblue" points="528.78,-23.0877 518.778,-19.5914 524.416,-28.5615 528.78,-23.0877"/>
</g>
<!-- Node10 -->
<g id="node10" class="node"><title>Node10</title>
<g id="a_node10"><a xlink:href="autogenerated_2include_2thrifts_2_force6_d_8h.html" target="_top" xlink:title="thrifts/Force6D.h">
<polygon fill="none" stroke="black" points="607,-56.5 607,-75.5 697,-75.5 697,-56.5 607,-56.5"/>
<text text-anchor="middle" x="652" y="-63.5" font-family="Helvetica,sans-Serif" font-size="10.00">thrifts/Force6D.h</text>
</a>
</g>
</g>
<!-- Node7&#45;&gt;Node10 -->
<g id="edge9" class="edge"><title>Node7&#45;&gt;Node10</title>
<path fill="none" stroke="midnightblue" d="M646.991,-112.083C647.786,-104.927 648.929,-94.6353 649.923,-85.6911"/>
<polygon fill="midnightblue" stroke="midnightblue" points="653.402,-86.0765 651.028,-75.7511 646.445,-85.3034 653.402,-86.0765"/>
</g>
<!-- Node10&#45;&gt;Node8 -->
<g id="edge10" class="edge"><title>Node10&#45;&gt;Node8</title>
<path fill="none" stroke="midnightblue" d="M663.729,-56.324C674.837,-48.1066 691.742,-35.6017 704.983,-25.8069"/>
<polygon fill="midnightblue" stroke="midnightblue" points="707.1,-28.5948 713.058,-19.8339 702.937,-22.9671 707.1,-28.5948"/>
</g>
<!-- Node10&#45;&gt;Node9 -->
<g id="edge11" class="edge"><title>Node10&#45;&gt;Node9</title>
<path fill="none" stroke="midnightblue" d="M629.183,-56.4435C605.168,-47.4381 567.171,-33.1891 540.131,-23.049"/>
<polygon fill="midnightblue" stroke="midnightblue" points="541.303,-19.7506 530.71,-19.5164 538.845,-26.3049 541.303,-19.7506"/>
</g>
<!-- Node11&#45;&gt;Node6 -->
<g id="edge22" class="edge"><title>Node11&#45;&gt;Node6</title>
<path fill="none" stroke="midnightblue" d="M452.915,-168.444C427.455,-159.399 387.106,-145.064 358.541,-134.916"/>
<polygon fill="midnightblue" stroke="midnightblue" points="359.567,-131.566 348.972,-131.516 357.223,-138.162 359.567,-131.566"/>
</g>
<!-- Node11&#45;&gt;Node8 -->
<g id="edge13" class="edge"><title>Node11&#45;&gt;Node8</title>
<path fill="none" stroke="midnightblue" d="M530.828,-177.355C581.161,-175.343 656.665,-166.123 712,-132 738.71,-115.529 744.908,-105.713 755,-76 760.781,-58.9799 750.455,-40.4452 740.377,-27.5394"/>
<polygon fill="midnightblue" stroke="midnightblue" points="742.775,-24.9566 733.639,-19.5916 737.436,-29.4829 742.775,-24.9566"/>
</g>
<!-- Node11&#45;&gt;Node9 -->
<g id="edge14" class="edge"><title>Node11&#45;&gt;Node9</title>
<path fill="none" stroke="midnightblue" d="M458.016,-168.398C444.114,-160.954 426.286,-148.741 418,-132 414.057,-124.034 415.777,-120.606 418,-112 425.115,-84.4562 430.405,-77.5293 449,-56 459.334,-44.0357 473.318,-33.2013 485.078,-25.1628"/>
<polygon fill="midnightblue" stroke="midnightblue" points="487.115,-28.0122 493.541,-19.5883 483.264,-22.1666 487.115,-28.0122"/>
</g>
<!-- Node12 -->
<g id="node12" class="node"><title>Node12</title>
<g id="a_node12"><a xlink:href="human-state-provider_2autogenerated_2include_2thrifts_2_quaternion_8h.html" target="_top" xlink:title="thrifts/Quaternion.h">
<polygon fill="none" stroke="black" points="427,-112.5 427,-131.5 527,-131.5 527,-112.5 427,-112.5"/>
<text text-anchor="middle" x="477" y="-119.5" font-family="Helvetica,sans-Serif" font-size="10.00">thrifts/Quaternion.h</text>
</a>
</g>
</g>
<!-- Node11&#45;&gt;Node12 -->
<g id="edge15" class="edge"><title>Node11&#45;&gt;Node12</title>
<path fill="none" stroke="midnightblue" d="M477,-168.083C477,-161.006 477,-150.861 477,-141.986"/>
<polygon fill="midnightblue" stroke="midnightblue" points="480.5,-141.751 477,-131.751 473.5,-141.751 480.5,-141.751"/>
</g>
<!-- Node13 -->
<g id="node13" class="node"><title>Node13</title>
<g id="a_node13"><a xlink:href="human-state-provider_2autogenerated_2include_2thrifts_2_vector3_8h.html" target="_top" xlink:title="thrifts/Vector3.h">
<polygon fill="none" stroke="black" points="465,-56.5 465,-75.5 551,-75.5 551,-56.5 465,-56.5"/>
<text text-anchor="middle" x="508" y="-63.5" font-family="Helvetica,sans-Serif" font-size="10.00">thrifts/Vector3.h</text>
</a>
</g>
</g>
<!-- Node11&#45;&gt;Node13 -->
<g id="edge21" class="edge"><title>Node11&#45;&gt;Node13</title>
<path fill="none" stroke="midnightblue" d="M495.984,-168.398C509.886,-160.954 527.714,-148.741 536,-132 544.048,-115.74 533.497,-96.6128 523.125,-83.3354"/>
<polygon fill="midnightblue" stroke="midnightblue" points="525.663,-80.9169 516.532,-75.5438 520.32,-85.4385 525.663,-80.9169"/>
</g>
<!-- Node12&#45;&gt;Node8 -->
<g id="edge16" class="edge"><title>Node12&#45;&gt;Node8</title>
<path fill="none" stroke="midnightblue" d="M527.254,-117.163C586.566,-111.629 680.386,-99.3987 706,-76 718.866,-64.247 723.203,-44.3144 724.574,-29.6136"/>
<polygon fill="midnightblue" stroke="midnightblue" points="728.069,-29.7946 725.137,-19.6138 721.08,-29.4013 728.069,-29.7946"/>
</g>
<!-- Node12&#45;&gt;Node9 -->
<g id="edge17" class="edge"><title>Node12&#45;&gt;Node9</title>
<path fill="none" stroke="midnightblue" d="M470.2,-112.348C461.113,-99.6623 447.126,-75.4144 456,-56 461.777,-43.3602 473.052,-32.911 483.631,-25.2737"/>
<polygon fill="midnightblue" stroke="midnightblue" points="485.849,-28.0009 492.217,-19.5333 481.958,-22.1817 485.849,-28.0009"/>
</g>
<!-- Node12&#45;&gt;Node13 -->
<g id="edge18" class="edge"><title>Node12&#45;&gt;Node13</title>
<path fill="none" stroke="midnightblue" d="M482.119,-112.083C486.408,-104.613 492.658,-93.7244 497.942,-84.5199"/>
<polygon fill="midnightblue" stroke="midnightblue" points="501.033,-86.1662 502.976,-75.7511 494.962,-82.6811 501.033,-86.1662"/>
</g>
<!-- Node13&#45;&gt;Node8 -->
<g id="edge19" class="edge"><title>Node13&#45;&gt;Node8</title>
<path fill="none" stroke="midnightblue" d="M542.384,-56.4435C579.922,-47.1024 640.131,-32.1194 681.067,-21.9326"/>
<polygon fill="midnightblue" stroke="midnightblue" points="681.918,-25.3278 690.777,-19.5164 680.227,-18.5349 681.918,-25.3278"/>
</g>
<!-- Node13&#45;&gt;Node9 -->
<g id="edge20" class="edge"><title>Node13&#45;&gt;Node9</title>
<path fill="none" stroke="midnightblue" d="M508,-56.083C508,-49.0059 508,-38.8611 508,-29.9865"/>
<polygon fill="midnightblue" stroke="midnightblue" points="511.5,-29.751 508,-19.7511 504.5,-29.7511 511.5,-29.751"/>
</g>
</g>
</svg>
        <g id="navigator" transform="translate(0 0)" fill="#404254">
                <rect fill="#f2f5e9" fill-opacity="0.5" stroke="#606060" stroke-width=".5" x="0" y="0" width="60" height="60"/>
                <use id="zoomplus" xlink:href="#zoomPlus" x="17" y="9" onmousedown="handleZoom(evt,'in')"/>
                <use id="zoomminus" xlink:href="#zoomMin" x="42" y="9" onmousedown="handleZoom(evt,'out')"/>
                <use id="reset" xlink:href="#resetDef" x="30" y="36" onmousedown="handleReset()"/>
                <g id="arrowUp" xlink:href="#dirArrow" transform="translate(30 24)" onmousedown="handlePan(0,-1)">
                  <use xlink:href="#rim" fill="#404040">
                        <set attributeName="fill" to="#808080" begin="arrowUp.mouseover" end="arrowUp.mouseout"/>
                  </use>
                  <path fill="none" stroke="white" stroke-width="1.5" d="M0,-3.0v7 M-2.5,-0.5L0,-3.0L2.5,-0.5"/>
                </g>
                <g id="arrowRight" xlink:href="#dirArrow" transform="rotate(90) translate(36 -43)" onmousedown="handlePan(1,0)">
                  <use xlink:href="#rim" fill="#404040">
                        <set attributeName="fill" to="#808080" begin="arrowRight.mouseover" end="arrowRight.mouseout"/>
                  </use>
                  <path fill="none" stroke="white" stroke-width="1.5" d="M0,-3.0v7 M-2.5,-0.5L0,-3.0L2.5,-0.5"/>
                </g>
                <g id="arrowDown" xlink:href="#dirArrow" transform="rotate(180) translate(-30 -48)" onmousedown="handlePan(0,1)">
                  <use xlink:href="#rim" fill="#404040">
                        <set attributeName="fill" to="#808080" begin="arrowDown.mouseover" end="arrowDown.mouseout"/>
                  </use>
                  <path fill="none" stroke="white" stroke-width="1.5" d="M0,-3.0v7 M-2.5,-0.5L0,-3.0L2.5,-0.5"/>
                </g>
                <g id="arrowLeft" xlink:href="#dirArrow" transform="rotate(270) translate(-36 17)" onmousedown="handlePan(-1,0)">
                  <use xlink:href="#rim" fill="#404040">
                        <set attributeName="fill" to="#808080" begin="arrowLeft.mouseover" end="arrowLeft.mouseout"/>
                  </use>
                  <path fill="none" stroke="white" stroke-width="1.5" d="M0,-3.0v7 M-2.5,-0.5L0,-3.0L2.5,-0.5"/>
                </g>
        </g>
        <svg viewBox="0 0 15 15" width="100%" height="30px" preserveAspectRatio="xMaxYMin meet">
         <g id="arrow_out" transform="scale(0.3 0.3)">
          <a xlink:href="human-forces-provider_2src_2main_8cpp__incl_org.svg" target="_base">
           <rect id="button" ry="5" rx="5" y="6" x="6" height="38" width="38"
                fill="#f2f5e9" fill-opacity="0.5" stroke="#606060" stroke-width="1.0"/>
           <path id="arrow"
             d="M 11.500037,31.436501 C 11.940474,20.09759 22.043105,11.32322 32.158766,21.979434 L 37.068811,17.246167 C 37.068811,17.246167 37.088388,32 37.088388,32 L 22.160133,31.978069 C 22.160133,31.978069 26.997745,27.140456 26.997745,27.140456 C 18.528582,18.264221 13.291696,25.230495 11.500037,31.436501 z"
             style="fill:#404040;"/>
          </a>
         </g>
        </svg>
</svg>
