<?xml version="1.0" encoding="UTF-8" standalone="no"?>
<!DOCTYPE svg PUBLIC "-//W3C//DTD SVG 1.1//EN"
 "http://www.w3.org/Graphics/SVG/1.1/DTD/svg11.dtd">
<!-- Generated by graphviz version 2.36.0 (20140111.2315)
 -->
<!-- Title: /home/travis/build/robotology&#45;playground/human&#45;dynamics&#45;estimation/build/human&#45;state&#45;provider/autogenerated/include/thrifts/Quaternion.h Pages: 1 -->
<svg width="1339pt" height="408pt"
 viewBox="0.00 0.00 1339.00 408.00" xmlns="http://www.w3.org/2000/svg" xmlns:xlink="http://www.w3.org/1999/xlink">
<g id="graph0" class="graph" transform="scale(1 1) rotate(0) translate(4 404)">
<title>/home/travis/build/robotology&#45;playground/human&#45;dynamics&#45;estimation/build/human&#45;state&#45;provider/autogenerated/include/thrifts/Quaternion.h</title>
<!-- Node1 -->
<g id="node1" class="node"><title>Node1</title>
<polygon fill="#bfbfbf" stroke="black" points="525.5,-325 525.5,-399 668.5,-399 668.5,-325 525.5,-325"/>
<text text-anchor="start" x="533.5" y="-387" font-family="Helvetica,sans-Serif" font-size="10.00">/home/travis/build</text>
<text text-anchor="start" x="533.5" y="-376" font-family="Helvetica,sans-Serif" font-size="10.00">/robotology&#45;playground</text>
<text text-anchor="start" x="533.5" y="-365" font-family="Helvetica,sans-Serif" font-size="10.00">/human&#45;dynamics&#45;estimation</text>
<text text-anchor="start" x="533.5" y="-354" font-family="Helvetica,sans-Serif" font-size="10.00">/build/human&#45;state&#45;provider</text>
<text text-anchor="start" x="533.5" y="-343" font-family="Helvetica,sans-Serif" font-size="10.00">/autogenerated/include/thrifts</text>
<text text-anchor="middle" x="597" y="-332" font-family="Helvetica,sans-Serif" font-size="10.00">/Quaternion.h</text>
</g>
<!-- Node2 -->
<g id="node2" class="node"><title>Node2</title>
<g id="a_node2"><a xlink:href="__yarp__idl___2thrifts_2humanstate_2_human_state_8h.html" target="_top" xlink:title="/home/travis/build\l/robotology&#45;playground\l/human&#45;dynamics&#45;estimation\l/build/human&#45;state&#45;provider\l/_yarp_idl_/thrifts/humanstate\l/HumanState.h">
<polygon fill="none" stroke="black" points="182,-213 182,-287 328,-287 328,-213 182,-213"/>
<text text-anchor="start" x="190" y="-275" font-family="Helvetica,sans-Serif" font-size="10.00">/home/travis/build</text>
<text text-anchor="start" x="190" y="-264" font-family="Helvetica,sans-Serif" font-size="10.00">/robotology&#45;playground</text>
<text text-anchor="start" x="190" y="-253" font-family="Helvetica,sans-Serif" font-size="10.00">/human&#45;dynamics&#45;estimation</text>
<text text-anchor="start" x="190" y="-242" font-family="Helvetica,sans-Serif" font-size="10.00">/build/human&#45;state&#45;provider</text>
<text text-anchor="start" x="190" y="-231" font-family="Helvetica,sans-Serif" font-size="10.00">/_yarp_idl_/thrifts/humanstate</text>
<text text-anchor="middle" x="255" y="-220" font-family="Helvetica,sans-Serif" font-size="10.00">/HumanState.h</text>
</a>
</g>
</g>
<!-- Node1&#45;&gt;Node2 -->
<g id="edge1" class="edge"><title>Node1&#45;&gt;Node2</title>
<path fill="none" stroke="midnightblue" d="M515.609,-334.822C458.623,-316.493 383.133,-292.212 328.073,-274.503"/>
<polygon fill="midnightblue" stroke="midnightblue" points="514.714,-338.21 525.306,-337.94 516.858,-331.547 514.714,-338.21"/>
</g>
<!-- Node4 -->
<g id="node4" class="node"><title>Node4</title>
<g id="a_node4"><a xlink:href="human-state-provider_2__yarp__idl___2thrifts_2humanstate_2_quaternion_8cpp.html" target="_top" xlink:title="/home/travis/build\l/robotology&#45;playground\l/human&#45;dynamics&#45;estimation\l/build/human&#45;state&#45;provider\l/_yarp_idl_/thrifts/humanstate\l/Quaternion.cpp">
<polygon fill="none" stroke="black" points="443,-213 443,-287 589,-287 589,-213 443,-213"/>
<text text-anchor="start" x="451" y="-275" font-family="Helvetica,sans-Serif" font-size="10.00">/home/travis/build</text>
<text text-anchor="start" x="451" y="-264" font-family="Helvetica,sans-Serif" font-size="10.00">/robotology&#45;playground</text>
<text text-anchor="start" x="451" y="-253" font-family="Helvetica,sans-Serif" font-size="10.00">/human&#45;dynamics&#45;estimation</text>
<text text-anchor="start" x="451" y="-242" font-family="Helvetica,sans-Serif" font-size="10.00">/build/human&#45;state&#45;provider</text>
<text text-anchor="start" x="451" y="-231" font-family="Helvetica,sans-Serif" font-size="10.00">/_yarp_idl_/thrifts/humanstate</text>
<text text-anchor="middle" x="516" y="-220" font-family="Helvetica,sans-Serif" font-size="10.00">/Quaternion.cpp</text>
</a>
</g>
</g>
<!-- Node1&#45;&gt;Node4 -->
<g id="edge3" class="edge"><title>Node1&#45;&gt;Node4</title>
<path fill="none" stroke="midnightblue" d="M564.476,-316.832C557.206,-306.959 549.579,-296.6 542.582,-287.099"/>
<polygon fill="midnightblue" stroke="midnightblue" points="561.73,-319.005 570.478,-324.982 567.366,-314.854 561.73,-319.005"/>
</g>
<!-- Node5 -->
<g id="node5" class="node"><title>Node5</title>
<g id="a_node5"><a xlink:href="autogenerated_2include_2thrifts_2_human_state_8h.html" target="_top" xlink:title="/home/travis/build\l/robotology&#45;playground\l/human&#45;dynamics&#45;estimation\l/build/human&#45;state&#45;provider\l/autogenerated/include/thrifts\l/HumanState.h">
<polygon fill="none" stroke="black" points="607.5,-213 607.5,-287 750.5,-287 750.5,-213 607.5,-213"/>
<text text-anchor="start" x="615.5" y="-275" font-family="Helvetica,sans-Serif" font-size="10.00">/home/travis/build</text>
<text text-anchor="start" x="615.5" y="-264" font-family="Helvetica,sans-Serif" font-size="10.00">/robotology&#45;playground</text>
<text text-anchor="start" x="615.5" y="-253" font-family="Helvetica,sans-Serif" font-size="10.00">/human&#45;dynamics&#45;estimation</text>
<text text-anchor="start" x="615.5" y="-242" font-family="Helvetica,sans-Serif" font-size="10.00">/build/human&#45;state&#45;provider</text>
<text text-anchor="start" x="615.5" y="-231" font-family="Helvetica,sans-Serif" font-size="10.00">/autogenerated/include/thrifts</text>
<text text-anchor="middle" x="679" y="-220" font-family="Helvetica,sans-Serif" font-size="10.00">/HumanState.h</text>
</a>
</g>
</g>
<!-- Node1&#45;&gt;Node5 -->
<g id="edge4" class="edge"><title>Node1&#45;&gt;Node5</title>
<path fill="none" stroke="midnightblue" d="M629.925,-316.832C637.285,-306.959 645.007,-296.6 652.09,-287.099"/>
<polygon fill="midnightblue" stroke="midnightblue" points="627.02,-314.873 623.85,-324.982 632.633,-319.056 627.02,-314.873"/>
</g>
<!-- Node18 -->
<g id="node18" class="node"><title>Node18</title>
<g id="a_node18"><a xlink:href="human-state-provider_2autogenerated_2src_2_quaternion_8cpp.html" target="_top" xlink:title="/home/travis/build\l/robotology&#45;playground\l/human&#45;dynamics&#45;estimation\l/build/human&#45;state&#45;provider\l/autogenerated/src/Quaternion.cpp">
<polygon fill="none" stroke="black" points="768.5,-218.5 768.5,-281.5 935.5,-281.5 935.5,-218.5 768.5,-218.5"/>
<text text-anchor="start" x="776.5" y="-269.5" font-family="Helvetica,sans-Serif" font-size="10.00">/home/travis/build</text>
<text text-anchor="start" x="776.5" y="-258.5" font-family="Helvetica,sans-Serif" font-size="10.00">/robotology&#45;playground</text>
<text text-anchor="start" x="776.5" y="-247.5" font-family="Helvetica,sans-Serif" font-size="10.00">/human&#45;dynamics&#45;estimation</text>
<text text-anchor="start" x="776.5" y="-236.5" font-family="Helvetica,sans-Serif" font-size="10.00">/build/human&#45;state&#45;provider</text>
<text text-anchor="middle" x="852" y="-225.5" font-family="Helvetica,sans-Serif" font-size="10.00">/autogenerated/src/Quaternion.cpp</text>
</a>
</g>
</g>
<!-- Node1&#45;&gt;Node18 -->
<g id="edge19" class="edge"><title>Node1&#45;&gt;Node18</title>
<path fill="none" stroke="midnightblue" d="M677.935,-326.087C711.13,-311.767 749.208,-295.342 781.269,-281.512"/>
<polygon fill="midnightblue" stroke="midnightblue" points="676.506,-322.891 668.71,-330.066 679.279,-329.319 676.506,-322.891"/>
</g>
<!-- Node3 -->
<g id="node3" class="node"><title>Node3</title>
<g id="a_node3"><a xlink:href="_human_state__index_8h.html" target="_top" xlink:title="/home/travis/build\l/robotology&#45;playground\l/human&#45;dynamics&#45;estimation\l/build/human&#45;state&#45;provider\l/_yarp_idl_/thrifts/humanstate\l/HumanState_index.h">
<polygon fill="none" stroke="black" points="0,-101 0,-175 146,-175 146,-101 0,-101"/>
<text text-anchor="start" x="8" y="-163" font-family="Helvetica,sans-Serif" font-size="10.00">/home/travis/build</text>
<text text-anchor="start" x="8" y="-152" font-family="Helvetica,sans-Serif" font-size="10.00">/robotology&#45;playground</text>
<text text-anchor="start" x="8" y="-141" font-family="Helvetica,sans-Serif" font-size="10.00">/human&#45;dynamics&#45;estimation</text>
<text text-anchor="start" x="8" y="-130" font-family="Helvetica,sans-Serif" font-size="10.00">/build/human&#45;state&#45;provider</text>
<text text-anchor="start" x="8" y="-119" font-family="Helvetica,sans-Serif" font-size="10.00">/_yarp_idl_/thrifts/humanstate</text>
<text text-anchor="middle" x="73" y="-108" font-family="Helvetica,sans-Serif" font-size="10.00">/HumanState_index.h</text>
</a>
</g>
</g>
<!-- Node2&#45;&gt;Node3 -->
<g id="edge2" class="edge"><title>Node2&#45;&gt;Node3</title>
<path fill="none" stroke="midnightblue" d="M186.796,-207.778C169.028,-197.039 150.02,-185.551 132.727,-175.099"/>
<polygon fill="midnightblue" stroke="midnightblue" points="185.038,-210.805 195.406,-212.982 188.659,-204.814 185.038,-210.805"/>
</g>
<!-- Node6 -->
<g id="node6" class="node"><title>Node6</title>
<g id="a_node6"><a xlink:href="__yarp__idl___2thrifts_2humanstate_2_human_state_8cpp.html" target="_top" xlink:title="/home/travis/build\l/robotology&#45;playground\l/human&#45;dynamics&#45;estimation\l/build/human&#45;state&#45;provider\l/_yarp_idl_/thrifts/humanstate\l/HumanState.cpp">
<polygon fill="none" stroke="black" points="164,-101 164,-175 310,-175 310,-101 164,-101"/>
<text text-anchor="start" x="172" y="-163" font-family="Helvetica,sans-Serif" font-size="10.00">/home/travis/build</text>
<text text-anchor="start" x="172" y="-152" font-family="Helvetica,sans-Serif" font-size="10.00">/robotology&#45;playground</text>
<text text-anchor="start" x="172" y="-141" font-family="Helvetica,sans-Serif" font-size="10.00">/human&#45;dynamics&#45;estimation</text>
<text text-anchor="start" x="172" y="-130" font-family="Helvetica,sans-Serif" font-size="10.00">/build/human&#45;state&#45;provider</text>
<text text-anchor="start" x="172" y="-119" font-family="Helvetica,sans-Serif" font-size="10.00">/_yarp_idl_/thrifts/humanstate</text>
<text text-anchor="middle" x="237" y="-108" font-family="Helvetica,sans-Serif" font-size="10.00">/HumanState.cpp</text>
</a>
</g>
</g>
<!-- Node5&#45;&gt;Node6 -->
<g id="edge5" class="edge"><title>Node5&#45;&gt;Node6</title>
<path fill="none" stroke="midnightblue" d="M597.735,-212.251C475.779,-179.244 436.239,-209.217 319,-176 316.145,-175.191 313.262,-174.298 310.371,-173.339"/>
<polygon fill="midnightblue" stroke="midnightblue" points="596.864,-215.642 607.437,-214.962 598.748,-208.9 596.864,-215.642"/>
</g>
<!-- Node7 -->
<g id="node7" class="node"><title>Node7</title>
<g id="a_node7"><a xlink:href="autogenerated_2src_2_human_state_8cpp.html" target="_top" xlink:title="/home/travis/build\l/robotology&#45;playground\l/human&#45;dynamics&#45;estimation\l/build/human&#45;state&#45;provider\l/autogenerated/src/HumanState.cpp">
<polygon fill="none" stroke="black" points="328,-106.5 328,-169.5 502,-169.5 502,-106.5 328,-106.5"/>
<text text-anchor="start" x="336" y="-157.5" font-family="Helvetica,sans-Serif" font-size="10.00">/home/travis/build</text>
<text text-anchor="start" x="336" y="-146.5" font-family="Helvetica,sans-Serif" font-size="10.00">/robotology&#45;playground</text>
<text text-anchor="start" x="336" y="-135.5" font-family="Helvetica,sans-Serif" font-size="10.00">/human&#45;dynamics&#45;estimation</text>
<text text-anchor="start" x="336" y="-124.5" font-family="Helvetica,sans-Serif" font-size="10.00">/build/human&#45;state&#45;provider</text>
<text text-anchor="middle" x="415" y="-113.5" font-family="Helvetica,sans-Serif" font-size="10.00">/autogenerated/src/HumanState.cpp</text>
</a>
</g>
</g>
<!-- Node5&#45;&gt;Node7 -->
<g id="edge6" class="edge"><title>Node5&#45;&gt;Node7</title>
<path fill="none" stroke="midnightblue" d="M597.626,-211.891C558.625,-195.304 524.105,-181.41 494.163,-169.601"/>
<polygon fill="midnightblue" stroke="midnightblue" points="596.521,-215.225 607.092,-215.933 599.27,-208.787 596.521,-215.225"/>
</g>
<!-- Node8 -->
<g id="node8" class="node"><title>Node8</title>
<g id="a_node8"><a xlink:href="_human_forces_provider_8h.html" target="_top" xlink:title="/home/travis/build\l/robotology&#45;playground\l/human&#45;dynamics&#45;estimation\l/human&#45;forces&#45;provider/include\l/HumanForcesProvider.h">
<polygon fill="none" stroke="black" points="520,-106.5 520,-169.5 670,-169.5 670,-106.5 520,-106.5"/>
<text text-anchor="start" x="528" y="-157.5" font-family="Helvetica,sans-Serif" font-size="10.00">/home/travis/build</text>
<text text-anchor="start" x="528" y="-146.5" font-family="Helvetica,sans-Serif" font-size="10.00">/robotology&#45;playground</text>
<text text-anchor="start" x="528" y="-135.5" font-family="Helvetica,sans-Serif" font-size="10.00">/human&#45;dynamics&#45;estimation</text>
<text text-anchor="start" x="528" y="-124.5" font-family="Helvetica,sans-Serif" font-size="10.00">/human&#45;forces&#45;provider/include</text>
<text text-anchor="middle" x="595" y="-113.5" font-family="Helvetica,sans-Serif" font-size="10.00">/HumanForcesProvider.h</text>
</a>
</g>
</g>
<!-- Node5&#45;&gt;Node8 -->
<g id="edge7" class="edge"><title>Node5&#45;&gt;Node8</title>
<path fill="none" stroke="midnightblue" d="M645.337,-204.917C636.286,-193.065 626.696,-180.507 618.343,-169.568"/>
<polygon fill="midnightblue" stroke="midnightblue" points="642.644,-207.158 651.495,-212.982 648.208,-202.91 642.644,-207.158"/>
</g>
<!-- Node11 -->
<g id="node11" class="node"><title>Node11</title>
<g id="a_node11"><a xlink:href="_robot_frame_transformer_8h.html" target="_top" xlink:title="/home/travis/build\l/robotology&#45;playground\l/human&#45;dynamics&#45;estimation\l/human&#45;forces&#45;provider/include\l/RobotFrameTransformer.h">
<polygon fill="none" stroke="black" points="688,-106.5 688,-169.5 838,-169.5 838,-106.5 688,-106.5"/>
<text text-anchor="start" x="696" y="-157.5" font-family="Helvetica,sans-Serif" font-size="10.00">/home/travis/build</text>
<text text-anchor="start" x="696" y="-146.5" font-family="Helvetica,sans-Serif" font-size="10.00">/robotology&#45;playground</text>
<text text-anchor="start" x="696" y="-135.5" font-family="Helvetica,sans-Serif" font-size="10.00">/human&#45;dynamics&#45;estimation</text>
<text text-anchor="start" x="696" y="-124.5" font-family="Helvetica,sans-Serif" font-size="10.00">/human&#45;forces&#45;provider/include</text>
<text text-anchor="middle" x="763" y="-113.5" font-family="Helvetica,sans-Serif" font-size="10.00">/RobotFrameTransformer.h</text>
</a>
</g>
</g>
<!-- Node5&#45;&gt;Node11 -->
<g id="edge10" class="edge"><title>Node5&#45;&gt;Node11</title>
<path fill="none" stroke="midnightblue" d="M712.663,-204.917C721.714,-193.065 731.304,-180.507 739.657,-169.568"/>
<polygon fill="midnightblue" stroke="midnightblue" points="709.792,-202.91 706.505,-212.982 715.356,-207.158 709.792,-202.91"/>
</g>
<!-- Node13 -->
<g id="node13" class="node"><title>Node13</title>
<g id="a_node13"><a xlink:href="_human_state_provider_private_8h.html" target="_top" xlink:title="/home/travis/build\l/robotology&#45;playground\l/human&#45;dynamics&#45;estimation\l/human&#45;state&#45;provider/include\l/private/HumanStateProviderPrivate.h">
<polygon fill="none" stroke="black" points="856,-106.5 856,-169.5 1038,-169.5 1038,-106.5 856,-106.5"/>
<text text-anchor="start" x="864" y="-157.5" font-family="Helvetica,sans-Serif" font-size="10.00">/home/travis/build</text>
<text text-anchor="start" x="864" y="-146.5" font-family="Helvetica,sans-Serif" font-size="10.00">/robotology&#45;playground</text>
<text text-anchor="start" x="864" y="-135.5" font-family="Helvetica,sans-Serif" font-size="10.00">/human&#45;dynamics&#45;estimation</text>
<text text-anchor="start" x="864" y="-124.5" font-family="Helvetica,sans-Serif" font-size="10.00">/human&#45;state&#45;provider/include</text>
<text text-anchor="middle" x="947" y="-113.5" font-family="Helvetica,sans-Serif" font-size="10.00">/private/HumanStateProviderPrivate.h</text>
</a>
</g>
</g>
<!-- Node5&#45;&gt;Node13 -->
<g id="edge13" class="edge"><title>Node5&#45;&gt;Node13</title>
<path fill="none" stroke="midnightblue" d="M760.234,-211.959C799.85,-195.292 835.027,-181.412 865.598,-169.632"/>
<polygon fill="midnightblue" stroke="midnightblue" points="758.745,-208.788 750.896,-215.905 761.469,-215.236 758.745,-208.788"/>
</g>
<!-- Node15 -->
<g id="node15" class="node"><title>Node15</title>
<g id="a_node15"><a xlink:href="_human_state_provider_8cpp.html" target="_top" xlink:title="/home/travis/build\l/robotology&#45;playground\l/human&#45;dynamics&#45;estimation\l/human&#45;state&#45;provider/src\l/HumanStateProvider.cpp">
<polygon fill="none" stroke="black" points="1189,-0.5 1189,-63.5 1331,-63.5 1331,-0.5 1189,-0.5"/>
<text text-anchor="start" x="1197" y="-51.5" font-family="Helvetica,sans-Serif" font-size="10.00">/home/travis/build</text>
<text text-anchor="start" x="1197" y="-40.5" font-family="Helvetica,sans-Serif" font-size="10.00">/robotology&#45;playground</text>
<text text-anchor="start" x="1197" y="-29.5" font-family="Helvetica,sans-Serif" font-size="10.00">/human&#45;dynamics&#45;estimation</text>
<text text-anchor="start" x="1197" y="-18.5" font-family="Helvetica,sans-Serif" font-size="10.00">/human&#45;state&#45;provider/src</text>
<text text-anchor="middle" x="1260" y="-7.5" font-family="Helvetica,sans-Serif" font-size="10.00">/HumanStateProvider.cpp</text>
</a>
</g>
</g>
<!-- Node5&#45;&gt;Node15 -->
<g id="edge17" class="edge"><title>Node5&#45;&gt;Node15</title>
<path fill="none" stroke="midnightblue" d="M760.555,-212.26C886.663,-180.52 944.736,-248.387 1047,-176 1077.82,-154.182 1056.98,-125.316 1085,-100 1118.5,-69.732 1137.84,-80.1573 1180,-64 1182.92,-62.8807 1185.9,-61.7364 1188.91,-60.5788"/>
<polygon fill="midnightblue" stroke="midnightblue" points="759.307,-208.971 750.559,-214.948 761.125,-215.731 759.307,-208.971"/>
</g>
<!-- Node17 -->
<g id="node17" class="node"><title>Node17</title>
<g id="a_node17"><a xlink:href="_human_joint_state_bridge_8cpp.html" target="_top" xlink:title="/home/travis/build\l/robotology&#45;playground\l/human&#45;dynamics&#45;estimation\l/human&#45;viz&#45;bridge/src/HumanJoint\lStateBridge.cpp">
<polygon fill="none" stroke="black" points="1094,-106.5 1094,-169.5 1260,-169.5 1260,-106.5 1094,-106.5"/>
<text text-anchor="start" x="1102" y="-157.5" font-family="Helvetica,sans-Serif" font-size="10.00">/home/travis/build</text>
<text text-anchor="start" x="1102" y="-146.5" font-family="Helvetica,sans-Serif" font-size="10.00">/robotology&#45;playground</text>
<text text-anchor="start" x="1102" y="-135.5" font-family="Helvetica,sans-Serif" font-size="10.00">/human&#45;dynamics&#45;estimation</text>
<text text-anchor="start" x="1102" y="-124.5" font-family="Helvetica,sans-Serif" font-size="10.00">/human&#45;viz&#45;bridge/src/HumanJoint</text>
<text text-anchor="middle" x="1177" y="-113.5" font-family="Helvetica,sans-Serif" font-size="10.00">StateBridge.cpp</text>
</a>
</g>
</g>
<!-- Node5&#45;&gt;Node17 -->
<g id="edge18" class="edge"><title>Node5&#45;&gt;Node17</title>
<path fill="none" stroke="midnightblue" d="M760.32,-212.242C899.904,-175.371 944.046,-209.014 1080,-176 1087.44,-174.192 1095.09,-171.965 1102.66,-169.508"/>
<polygon fill="midnightblue" stroke="midnightblue" points="759.278,-208.899 750.545,-214.897 761.112,-215.654 759.278,-208.899"/>
</g>
<!-- Node9 -->
<g id="node9" class="node"><title>Node9</title>
<g id="a_node9"><a xlink:href="_human_forces_provider_8cpp.html" target="_top" xlink:title="/home/travis/build\l/robotology&#45;playground\l/human&#45;dynamics&#45;estimation\l/human&#45;forces&#45;provider/src\l/HumanForcesProvider.cpp">
<polygon fill="none" stroke="black" points="527,-0.5 527,-63.5 669,-63.5 669,-0.5 527,-0.5"/>
<text text-anchor="start" x="535" y="-51.5" font-family="Helvetica,sans-Serif" font-size="10.00">/home/travis/build</text>
<text text-anchor="start" x="535" y="-40.5" font-family="Helvetica,sans-Serif" font-size="10.00">/robotology&#45;playground</text>
<text text-anchor="start" x="535" y="-29.5" font-family="Helvetica,sans-Serif" font-size="10.00">/human&#45;dynamics&#45;estimation</text>
<text text-anchor="start" x="535" y="-18.5" font-family="Helvetica,sans-Serif" font-size="10.00">/human&#45;forces&#45;provider/src</text>
<text text-anchor="middle" x="598" y="-7.5" font-family="Helvetica,sans-Serif" font-size="10.00">/HumanForcesProvider.cpp</text>
</a>
</g>
</g>
<!-- Node8&#45;&gt;Node9 -->
<g id="edge8" class="edge"><title>Node8&#45;&gt;Node9</title>
<path fill="none" stroke="midnightblue" d="M596.175,-96.2683C596.487,-85.4576 596.818,-73.9643 597.112,-63.7813"/>
<polygon fill="midnightblue" stroke="midnightblue" points="592.674,-96.2623 595.884,-106.359 599.671,-96.4642 592.674,-96.2623"/>
</g>
<!-- Node10 -->
<g id="node10" class="node"><title>Node10</title>
<g id="a_node10"><a xlink:href="human-forces-provider_2src_2main_8cpp.html" target="_top" xlink:title="/home/travis/build\l/robotology&#45;playground\l/human&#45;dynamics&#45;estimation\l/human&#45;forces&#45;provider/src\l/main.cpp">
<polygon fill="none" stroke="black" points="367,-0.5 367,-63.5 509,-63.5 509,-0.5 367,-0.5"/>
<text text-anchor="start" x="375" y="-51.5" font-family="Helvetica,sans-Serif" font-size="10.00">/home/travis/build</text>
<text text-anchor="start" x="375" y="-40.5" font-family="Helvetica,sans-Serif" font-size="10.00">/robotology&#45;playground</text>
<text text-anchor="start" x="375" y="-29.5" font-family="Helvetica,sans-Serif" font-size="10.00">/human&#45;dynamics&#45;estimation</text>
<text text-anchor="start" x="375" y="-18.5" font-family="Helvetica,sans-Serif" font-size="10.00">/human&#45;forces&#45;provider/src</text>
<text text-anchor="middle" x="438" y="-7.5" font-family="Helvetica,sans-Serif" font-size="10.00">/main.cpp</text>
</a>
</g>
</g>
<!-- Node8&#45;&gt;Node10 -->
<g id="edge9" class="edge"><title>Node8&#45;&gt;Node10</title>
<path fill="none" stroke="midnightblue" d="M539.97,-100.547C521.754,-88.4801 501.68,-75.1831 484.196,-63.6015"/>
<polygon fill="midnightblue" stroke="midnightblue" points="538.474,-103.754 548.744,-106.359 542.34,-97.9187 538.474,-103.754"/>
</g>
<!-- Node11&#45;&gt;Node9 -->
<g id="edge11" class="edge"><title>Node11&#45;&gt;Node9</title>
<path fill="none" stroke="midnightblue" d="M705.688,-100.876C686.405,-88.722 665.092,-75.2884 646.55,-63.6015"/>
<polygon fill="midnightblue" stroke="midnightblue" points="704.061,-103.988 714.387,-106.359 707.794,-98.0659 704.061,-103.988"/>
</g>
<!-- Node12 -->
<g id="node12" class="node"><title>Node12</title>
<g id="a_node12"><a xlink:href="_robot_frame_transformer_8cpp.html" target="_top" xlink:title="/home/travis/build\l/robotology&#45;playground\l/human&#45;dynamics&#45;estimation\l/human&#45;forces&#45;provider/src\l/RobotFrameTransformer.cpp">
<polygon fill="none" stroke="black" points="687.5,-0.5 687.5,-63.5 832.5,-63.5 832.5,-0.5 687.5,-0.5"/>
<text text-anchor="start" x="695.5" y="-51.5" font-family="Helvetica,sans-Serif" font-size="10.00">/home/travis/build</text>
<text text-anchor="start" x="695.5" y="-40.5" font-family="Helvetica,sans-Serif" font-size="10.00">/robotology&#45;playground</text>
<text text-anchor="start" x="695.5" y="-29.5" font-family="Helvetica,sans-Serif" font-size="10.00">/human&#45;dynamics&#45;estimation</text>
<text text-anchor="start" x="695.5" y="-18.5" font-family="Helvetica,sans-Serif" font-size="10.00">/human&#45;forces&#45;provider/src</text>
<text text-anchor="middle" x="760" y="-7.5" font-family="Helvetica,sans-Serif" font-size="10.00">/RobotFrameTransformer.cpp</text>
</a>
</g>
</g>
<!-- Node11&#45;&gt;Node12 -->
<g id="edge12" class="edge"><title>Node11&#45;&gt;Node12</title>
<path fill="none" stroke="midnightblue" d="M761.825,-96.2683C761.513,-85.4576 761.182,-73.9643 760.888,-63.7813"/>
<polygon fill="midnightblue" stroke="midnightblue" points="758.329,-96.4642 762.116,-106.359 765.326,-96.2623 758.329,-96.4642"/>
</g>
<!-- Node14 -->
<g id="node14" class="node"><title>Node14</title>
<g id="a_node14"><a xlink:href="_human_i_k_worker_pool_8cpp.html" target="_top" xlink:title="/home/travis/build\l/robotology&#45;playground\l/human&#45;dynamics&#45;estimation\l/human&#45;state&#45;provider/src\l/HumanIKWorkerPool.cpp">
<polygon fill="none" stroke="black" points="851,-0.5 851,-63.5 993,-63.5 993,-0.5 851,-0.5"/>
<text text-anchor="start" x="859" y="-51.5" font-family="Helvetica,sans-Serif" font-size="10.00">/home/travis/build</text>
<text text-anchor="start" x="859" y="-40.5" font-family="Helvetica,sans-Serif" font-size="10.00">/robotology&#45;playground</text>
<text text-anchor="start" x="859" y="-29.5" font-family="Helvetica,sans-Serif" font-size="10.00">/human&#45;dynamics&#45;estimation</text>
<text text-anchor="start" x="859" y="-18.5" font-family="Helvetica,sans-Serif" font-size="10.00">/human&#45;state&#45;provider/src</text>
<text text-anchor="middle" x="922" y="-7.5" font-family="Helvetica,sans-Serif" font-size="10.00">/HumanIKWorkerPool.cpp</text>
</a>
</g>
</g>
<!-- Node13&#45;&gt;Node14 -->
<g id="edge14" class="edge"><title>Node13&#45;&gt;Node14</title>
<path fill="none" stroke="midnightblue" d="M937.289,-96.6025C934.667,-85.6947 931.872,-74.0693 929.399,-63.7813"/>
<polygon fill="midnightblue" stroke="midnightblue" points="933.894,-97.4541 939.634,-106.359 940.7,-95.818 933.894,-97.4541"/>
</g>
<!-- Node13&#45;&gt;Node15 -->
<g id="edge15" class="edge"><title>Node13&#45;&gt;Node15</title>
<path fill="none" stroke="midnightblue" d="M1041.89,-103.253C1045.3,-102.14 1048.67,-101.052 1052,-100 1108.34,-82.1704 1123.94,-82.6976 1180,-64 1182.83,-63.0575 1185.7,-62.073 1188.59,-61.0588"/>
<polygon fill="midnightblue" stroke="midnightblue" points="1040.62,-99.9852 1032.23,-106.449 1042.82,-106.631 1040.62,-99.9852"/>
</g>
<!-- Node16 -->
<g id="node16" class="node"><title>Node16</title>
<g id="a_node16"><a xlink:href="_human_state_provider_private_8cpp.html" target="_top" xlink:title="/home/travis/build\l/robotology&#45;playground\l/human&#45;dynamics&#45;estimation\l/human&#45;state&#45;provider/src\l/HumanStateProviderPrivate.cpp">
<polygon fill="none" stroke="black" points="1011,-0.5 1011,-63.5 1171,-63.5 1171,-0.5 1011,-0.5"/>
<text text-anchor="start" x="1019" y="-51.5" font-family="Helvetica,sans-Serif" font-size="10.00">/home/travis/build</text>
<text text-anchor="start" x="1019" y="-40.5" font-family="Helvetica,sans-Serif" font-size="10.00">/robotology&#45;playground</text>
<text text-anchor="start" x="1019" y="-29.5" font-family="Helvetica,sans-Serif" font-size="10.00">/human&#45;dynamics&#45;estimation</text>
<text text-anchor="start" x="1019" y="-18.5" font-family="Helvetica,sans-Serif" font-size="10.00">/human&#45;state&#45;provider/src</text>
<text text-anchor="middle" x="1091" y="-7.5" font-family="Helvetica,sans-Serif" font-size="10.00">/HumanStateProviderPrivate.cpp</text>
</a>
</g>
</g>
<!-- Node13&#45;&gt;Node16 -->
<g id="edge16" class="edge"><title>Node13&#45;&gt;Node16</title>
<path fill="none" stroke="midnightblue" d="M997.891,-100.245C1014.4,-88.3214 1032.54,-75.224 1048.38,-63.7813"/>
<polygon fill="midnightblue" stroke="midnightblue" points="995.483,-97.6667 989.426,-106.359 999.582,-103.342 995.483,-97.6667"/>
</g>
</g>
</svg>
