<?xml version="1.0" encoding="UTF-8" standalone="no"?>
<!DOCTYPE svg PUBLIC "-//W3C//DTD SVG 1.1//EN"
 "http://www.w3.org/Graphics/SVG/1.1/DTD/svg11.dtd">
<!-- Generated by graphviz version 2.36.0 (20140111.2315)
 -->
<!-- Title: Graphical Class Hierarchy Pages: 1 -->
<svg width="250pt" height="104pt"
 viewBox="0.00 0.00 250.00 104.00" xmlns="http://www.w3.org/2000/svg" xmlns:xlink="http://www.w3.org/1999/xlink">
<g id="graph0" class="graph" transform="scale(1 1) rotate(0) translate(4 100)">
<title>Graphical Class Hierarchy</title>
<!-- Node1 -->
<g id="node1" class="node"><title>Node1</title>
<g id="a_node1"><a xlink:href="classyarp_1_1os_1_1_r_f_module.html" target="_top" xlink:title="RFModule">
<polygon fill="none" stroke="black" points="0,-38.5 0,-57.5 62,-57.5 62,-38.5 0,-38.5"/>
<text text-anchor="middle" x="31" y="-45.5" font-family="Helvetica,sans-Serif" font-size="10.00">RFModule</text>
</a>
</g>
</g>
<!-- Node2 -->
<g id="node2" class="node"><title>Node2</title>
<g id="a_node2"><a xlink:href="classhuman_1_1_human_state_provider.html" target="_top" xlink:title="human::HumanStateProvider">
<polygon fill="none" stroke="black" points="98.5,-76.5 98.5,-95.5 241.5,-95.5 241.5,-76.5 98.5,-76.5"/>
<text text-anchor="middle" x="170" y="-83.5" font-family="Helvetica,sans-Serif" font-size="10.00">human::HumanStateProvider</text>
</a>
</g>
</g>
<!-- Node1&#45;&gt;Node2 -->
<g id="edge1" class="edge"><title>Node1&#45;&gt;Node2</title>
<path fill="none" stroke="midnightblue" d="M71.9938,-59.6441C80.5659,-62.1033 89.5772,-64.6609 98,-67 109.311,-70.1413 121.662,-73.4787 132.845,-76.4654"/>
<polygon fill="midnightblue" stroke="midnightblue" points="72.7724,-56.2262 62.1943,-56.8216 70.8349,-62.9527 72.7724,-56.2262"/>
</g>
<!-- Node3 -->
<g id="node3" class="node"><title>Node3</title>
<g id="a_node3"><a xlink:href="class_human_dynamics_estimator.html" target="_top" xlink:title="HumanDynamicsEstimator">
<polygon fill="none" stroke="black" points="103,-38.5 103,-57.5 237,-57.5 237,-38.5 103,-38.5"/>
<text text-anchor="middle" x="170" y="-45.5" font-family="Helvetica,sans-Serif" font-size="10.00">HumanDynamicsEstimator</text>
</a>
</g>
</g>
<!-- Node1&#45;&gt;Node3 -->
<g id="edge2" class="edge"><title>Node1&#45;&gt;Node3</title>
<path fill="none" stroke="midnightblue" d="M72.1188,-48C81.756,-48 92.3036,-48 102.78,-48"/>
<polygon fill="midnightblue" stroke="midnightblue" points="72.0653,-44.5001 62.0652,-48 72.0652,-51.5001 72.0653,-44.5001"/>
</g>
<!-- Node4 -->
<g id="node4" class="node"><title>Node4</title>
<g id="a_node4"><a xlink:href="class_human_forces_provider.html" target="_top" xlink:title="HumanForcesProvider">
<polygon fill="none" stroke="black" points="113,-0.5 113,-19.5 227,-19.5 227,-0.5 113,-0.5"/>
<text text-anchor="middle" x="170" y="-7.5" font-family="Helvetica,sans-Serif" font-size="10.00">HumanForcesProvider</text>
</a>
</g>
</g>
<!-- Node1&#45;&gt;Node4 -->
<g id="edge3" class="edge"><title>Node1&#45;&gt;Node4</title>
<path fill="none" stroke="midnightblue" d="M71.9938,-36.3559C80.5659,-33.8967 89.5772,-31.3391 98,-29 109.311,-25.8587 121.662,-22.5213 132.845,-19.5346"/>
<polygon fill="midnightblue" stroke="midnightblue" points="70.8349,-33.0473 62.1943,-39.1784 72.7724,-39.7738 70.8349,-33.0473"/>
</g>
</g>
</svg>
