<?xml version="1.0" encoding="UTF-8" standalone="no"?>
<!DOCTYPE svg PUBLIC "-//W3C//DTD SVG 1.1//EN"
 "http://www.w3.org/Graphics/SVG/1.1/DTD/svg11.dtd">
<!-- Generated by graphviz version 2.36.0 (20140111.2315)
 -->
<!-- Title: Graphical Class Hierarchy Pages: 1 -->
<svg width="294pt" height="902pt"
 viewBox="0.00 0.00 294.00 902.00" xmlns="http://www.w3.org/2000/svg" xmlns:xlink="http://www.w3.org/1999/xlink">
<g id="graph0" class="graph" transform="scale(1 1) rotate(0) translate(4 898)">
<title>Graphical Class Hierarchy</title>
<!-- Node1 -->
<g id="node1" class="node"><title>Node1</title>
<g id="a_node1"><a xlink:href="classyarp_1_1os_1_1idl_1_1_wire_portable.html" target="_top" xlink:title="WirePortable">
<polygon fill="none" stroke="black" points="0.5,-437.5 0.5,-456.5 73.5,-456.5 73.5,-437.5 0.5,-437.5"/>
<text text-anchor="middle" x="37" y="-444.5" font-family="Helvetica,sans-Serif" font-size="10.00">WirePortable</text>
</a>
</g>
</g>
<!-- Node2 -->
<g id="node2" class="node"><title>Node2</title>
<g id="a_node2"><a xlink:href="classgeometry__msgs___quaternion.html" target="_top" xlink:title="geometry_msgs_Quaternion">
<polygon fill="none" stroke="black" points="128.5,-874.5 128.5,-893.5 267.5,-893.5 267.5,-874.5 128.5,-874.5"/>
<text text-anchor="middle" x="198" y="-881.5" font-family="Helvetica,sans-Serif" font-size="10.00">geometry_msgs_Quaternion</text>
</a>
</g>
</g>
<!-- Node1&#45;&gt;Node2 -->
<g id="edge1" class="edge"><title>Node1&#45;&gt;Node2</title>
<path fill="none" stroke="midnightblue" d="M38.5919,-467.231C41.2219,-542.748 54.3164,-806.785 110,-865 115.129,-870.363 121.394,-874.382 128.188,-877.374"/>
<polygon fill="midnightblue" stroke="midnightblue" points="42.0757,-466.672 38.2547,-456.79 35.0794,-466.898 42.0757,-466.672"/>
</g>
<!-- Node3 -->
<g id="node3" class="node"><title>Node3</title>
<g id="a_node3"><a xlink:href="classgeometry__msgs___transform.html" target="_top" xlink:title="geometry_msgs_Transform">
<polygon fill="none" stroke="black" points="130,-836.5 130,-855.5 266,-855.5 266,-836.5 130,-836.5"/>
<text text-anchor="middle" x="198" y="-843.5" font-family="Helvetica,sans-Serif" font-size="10.00">geometry_msgs_Transform</text>
</a>
</g>
</g>
<!-- Node1&#45;&gt;Node3 -->
<g id="edge2" class="edge"><title>Node1&#45;&gt;Node3</title>
<path fill="none" stroke="midnightblue" d="M38.9464,-466.746C42.7298,-537.182 59.1118,-774.679 110,-827 115.605,-832.763 122.523,-836.969 129.989,-840.012"/>
<polygon fill="midnightblue" stroke="midnightblue" points="42.4336,-466.405 38.4279,-456.597 35.4427,-466.763 42.4336,-466.405"/>
</g>
<!-- Node4 -->
<g id="node4" class="node"><title>Node4</title>
<g id="a_node4"><a xlink:href="classgeometry__msgs___transform_stamped.html" target="_top" xlink:title="geometry_msgs_TransformStamped">
<polygon fill="none" stroke="black" points="110.5,-798.5 110.5,-817.5 285.5,-817.5 285.5,-798.5 110.5,-798.5"/>
<text text-anchor="middle" x="198" y="-805.5" font-family="Helvetica,sans-Serif" font-size="10.00">geometry_msgs_TransformStamped</text>
</a>
</g>
</g>
<!-- Node1&#45;&gt;Node4 -->
<g id="edge3" class="edge"><title>Node1&#45;&gt;Node4</title>
<path fill="none" stroke="midnightblue" d="M39.407,-466.866C44.4821,-532.778 64.0327,-742.686 110,-789 113.703,-792.731 117.957,-795.806 122.55,-798.333"/>
<polygon fill="midnightblue" stroke="midnightblue" points="42.877,-466.331 38.6468,-456.617 35.8962,-466.849 42.877,-466.331"/>
</g>
<!-- Node5 -->
<g id="node5" class="node"><title>Node5</title>
<g id="a_node5"><a xlink:href="classgeometry__msgs___vector3.html" target="_top" xlink:title="geometry_msgs_Vector3">
<polygon fill="none" stroke="black" points="135.5,-760.5 135.5,-779.5 260.5,-779.5 260.5,-760.5 135.5,-760.5"/>
<text text-anchor="middle" x="198" y="-767.5" font-family="Helvetica,sans-Serif" font-size="10.00">geometry_msgs_Vector3</text>
</a>
</g>
</g>
<!-- Node1&#45;&gt;Node5 -->
<g id="edge4" class="edge"><title>Node1&#45;&gt;Node5</title>
<path fill="none" stroke="midnightblue" d="M39.9864,-467.009C46.4595,-528.124 68.9307,-710.645 110,-751 116.947,-757.826 125.744,-762.444 135.059,-765.526"/>
<polygon fill="midnightblue" stroke="midnightblue" points="43.4387,-466.365 38.9335,-456.776 36.4755,-467.082 43.4387,-466.365"/>
</g>
<!-- Node6 -->
<g id="node6" class="node"><title>Node6</title>
<g id="a_node6"><a xlink:href="classgeometry__msgs___wrench.html" target="_top" xlink:title="geometry_msgs_Wrench">
<polygon fill="none" stroke="black" points="135.5,-722.5 135.5,-741.5 260.5,-741.5 260.5,-722.5 135.5,-722.5"/>
<text text-anchor="middle" x="198" y="-729.5" font-family="Helvetica,sans-Serif" font-size="10.00">geometry_msgs_Wrench</text>
</a>
</g>
</g>
<!-- Node1&#45;&gt;Node6 -->
<g id="edge5" class="edge"><title>Node1&#45;&gt;Node6</title>
<path fill="none" stroke="midnightblue" d="M40.6635,-466.671C48.5787,-522.211 73.6895,-678.438 110,-713 117.055,-719.715 125.906,-724.276 135.243,-727.336"/>
<polygon fill="midnightblue" stroke="midnightblue" points="44.1206,-466.119 39.2744,-456.698 37.1876,-467.085 44.1206,-466.119"/>
</g>
<!-- Node7 -->
<g id="node7" class="node"><title>Node7</title>
<g id="a_node7"><a xlink:href="classgeometry__msgs___wrench_stamped.html" target="_top" xlink:title="geometry_msgs_WrenchStamped">
<polygon fill="none" stroke="black" points="116,-684.5 116,-703.5 280,-703.5 280,-684.5 116,-684.5"/>
<text text-anchor="middle" x="198" y="-691.5" font-family="Helvetica,sans-Serif" font-size="10.00">geometry_msgs_WrenchStamped</text>
</a>
</g>
</g>
<!-- Node1&#45;&gt;Node7 -->
<g id="edge6" class="edge"><title>Node1&#45;&gt;Node7</title>
<path fill="none" stroke="midnightblue" d="M38.0177,-466.561C39.1807,-510.765 48.5238,-618.871 110,-675 114.11,-678.753 118.785,-681.826 123.784,-684.336"/>
<polygon fill="midnightblue" stroke="midnightblue" points="41.5172,-466.494 37.8709,-456.546 34.5179,-466.597 41.5172,-466.494"/>
</g>
<!-- Node8 -->
<g id="node8" class="node"><title>Node8</title>
<g id="a_node8"><a xlink:href="classhuman_1_1_force6_d.html" target="_top" xlink:title="human::Force6D">
<polygon fill="none" stroke="black" points="153.5,-646.5 153.5,-665.5 242.5,-665.5 242.5,-646.5 153.5,-646.5"/>
<text text-anchor="middle" x="198" y="-653.5" font-family="Helvetica,sans-Serif" font-size="10.00">human::Force6D</text>
</a>
</g>
</g>
<!-- Node1&#45;&gt;Node8 -->
<g id="edge7" class="edge"><title>Node1&#45;&gt;Node8</title>
<path fill="none" stroke="midnightblue" d="M39.4579,-466.704C43.4367,-505.548 57.9759,-592.121 110,-637 121.94,-647.3 138.177,-652.409 153.391,-654.828"/>
<polygon fill="midnightblue" stroke="midnightblue" points="42.9386,-466.331 38.5625,-456.683 35.9664,-466.955 42.9386,-466.331"/>
</g>
<!-- Node9 -->
<g id="node9" class="node"><title>Node9</title>
<g id="a_node9"><a xlink:href="classhuman_1_1_human_forces.html" target="_top" xlink:title="human::HumanForces">
<polygon fill="none" stroke="black" points="141.5,-608.5 141.5,-627.5 254.5,-627.5 254.5,-608.5 141.5,-608.5"/>
<text text-anchor="middle" x="198" y="-615.5" font-family="Helvetica,sans-Serif" font-size="10.00">human::HumanForces</text>
</a>
</g>
</g>
<!-- Node1&#45;&gt;Node9 -->
<g id="edge8" class="edge"><title>Node1&#45;&gt;Node9</title>
<path fill="none" stroke="midnightblue" d="M41.5619,-466.791C48.5504,-499.607 67.2688,-565.026 110,-599 118.955,-606.12 130.003,-610.711 141.184,-613.641"/>
<polygon fill="midnightblue" stroke="midnightblue" points="44.9301,-465.781 39.5591,-456.649 38.0627,-467.137 44.9301,-465.781"/>
</g>
<!-- Node10 -->
<g id="node10" class="node"><title>Node10</title>
<g id="a_node10"><a xlink:href="classhuman_1_1_human_state.html" target="_top" xlink:title="human::HumanState">
<polygon fill="none" stroke="black" points="144.5,-570.5 144.5,-589.5 251.5,-589.5 251.5,-570.5 144.5,-570.5"/>
<text text-anchor="middle" x="198" y="-577.5" font-family="Helvetica,sans-Serif" font-size="10.00">human::HumanState</text>
</a>
</g>
</g>
<!-- Node1&#45;&gt;Node10 -->
<g id="edge9" class="edge"><title>Node1&#45;&gt;Node10</title>
<path fill="none" stroke="midnightblue" d="M44.7019,-466.224C54.7215,-492.002 76.1342,-537.268 110,-561 120.002,-568.009 132.116,-572.502 144.086,-575.364"/>
<polygon fill="midnightblue" stroke="midnightblue" points="47.9617,-464.948 41.2065,-456.786 41.3974,-467.379 47.9617,-464.948"/>
</g>
<!-- Node11 -->
<g id="node11" class="node"><title>Node11</title>
<g id="a_node11"><a xlink:href="classhuman_1_1_quaternion.html" target="_top" xlink:title="human::Quaternion">
<polygon fill="none" stroke="black" points="148.5,-532.5 148.5,-551.5 247.5,-551.5 247.5,-532.5 148.5,-532.5"/>
<text text-anchor="middle" x="198" y="-539.5" font-family="Helvetica,sans-Serif" font-size="10.00">human::Quaternion</text>
</a>
</g>
</g>
<!-- Node1&#45;&gt;Node11 -->
<g id="edge10" class="edge"><title>Node1&#45;&gt;Node11</title>
<path fill="none" stroke="midnightblue" d="M50.074,-464.987C62.8542,-482.564 84.6582,-508.701 110,-523 121.58,-529.534 135.197,-533.822 148.177,-536.636"/>
<polygon fill="midnightblue" stroke="midnightblue" points="52.854,-462.856 44.2423,-456.684 47.1257,-466.879 52.854,-462.856"/>
</g>
<!-- Node12 -->
<g id="node12" class="node"><title>Node12</title>
<g id="a_node12"><a xlink:href="classhuman_1_1_vector3.html" target="_top" xlink:title="human::Vector3">
<polygon fill="none" stroke="black" points="155,-494.5 155,-513.5 241,-513.5 241,-494.5 155,-494.5"/>
<text text-anchor="middle" x="198" y="-501.5" font-family="Helvetica,sans-Serif" font-size="10.00">human::Vector3</text>
</a>
</g>
</g>
<!-- Node1&#45;&gt;Node12 -->
<g id="edge11" class="edge"><title>Node1&#45;&gt;Node12</title>
<path fill="none" stroke="midnightblue" d="M61.9234,-461.729C75.587,-469.596 93.281,-478.891 110,-485 124.231,-490.2 140.316,-494.203 154.749,-497.163"/>
<polygon fill="midnightblue" stroke="midnightblue" points="63.5612,-458.631 53.1695,-456.566 60.0055,-464.661 63.5612,-458.631"/>
</g>
<!-- Node13 -->
<g id="node13" class="node"><title>Node13</title>
<g id="a_node13"><a xlink:href="classmsgs___string.html" target="_top" xlink:title="msgs_String">
<polygon fill="none" stroke="black" points="162.5,-456.5 162.5,-475.5 233.5,-475.5 233.5,-456.5 162.5,-456.5"/>
<text text-anchor="middle" x="198" y="-463.5" font-family="Helvetica,sans-Serif" font-size="10.00">msgs_String</text>
</a>
</g>
</g>
<!-- Node1&#45;&gt;Node13 -->
<g id="edge12" class="edge"><title>Node1&#45;&gt;Node13</title>
<path fill="none" stroke="midnightblue" d="M83.6758,-452.458C108.691,-455.447 139.199,-459.093 162.256,-461.848"/>
<polygon fill="midnightblue" stroke="midnightblue" points="84.0274,-448.975 73.6827,-451.264 83.1967,-455.926 84.0274,-448.975"/>
</g>
<!-- Node14 -->
<g id="node14" class="node"><title>Node14</title>
<g id="a_node14"><a xlink:href="classsensor__msgs___joint_state.html" target="_top" xlink:title="sensor_msgs_JointState">
<polygon fill="none" stroke="black" points="135.5,-418.5 135.5,-437.5 260.5,-437.5 260.5,-418.5 135.5,-418.5"/>
<text text-anchor="middle" x="198" y="-425.5" font-family="Helvetica,sans-Serif" font-size="10.00">sensor_msgs_JointState</text>
</a>
</g>
</g>
<!-- Node1&#45;&gt;Node14 -->
<g id="edge13" class="edge"><title>Node1&#45;&gt;Node14</title>
<path fill="none" stroke="midnightblue" d="M83.8479,-441.521C99.86,-439.608 118.106,-437.428 135.201,-435.385"/>
<polygon fill="midnightblue" stroke="midnightblue" points="83.1967,-438.074 73.6827,-442.736 84.0274,-445.025 83.1967,-438.074"/>
</g>
<!-- Node15 -->
<g id="node15" class="node"><title>Node15</title>
<g id="a_node15"><a xlink:href="classstd__msgs___header.html" target="_top" xlink:title="std_msgs_Header">
<polygon fill="none" stroke="black" points="150,-380.5 150,-399.5 246,-399.5 246,-380.5 150,-380.5"/>
<text text-anchor="middle" x="198" y="-387.5" font-family="Helvetica,sans-Serif" font-size="10.00">std_msgs_Header</text>
</a>
</g>
</g>
<!-- Node1&#45;&gt;Node15 -->
<g id="edge14" class="edge"><title>Node1&#45;&gt;Node15</title>
<path fill="none" stroke="midnightblue" d="M61.9234,-432.271C75.587,-424.404 93.281,-415.109 110,-409 122.633,-404.384 136.728,-400.711 149.832,-397.873"/>
<polygon fill="midnightblue" stroke="midnightblue" points="60.0055,-429.339 53.1695,-437.434 63.5612,-435.369 60.0055,-429.339"/>
</g>
<!-- Node16 -->
<g id="node16" class="node"><title>Node16</title>
<g id="a_node16"><a xlink:href="classtf2__msgs___t_f_message.html" target="_top" xlink:title="tf2_msgs_TFMessage">
<polygon fill="none" stroke="black" points="141,-342.5 141,-361.5 255,-361.5 255,-342.5 141,-342.5"/>
<text text-anchor="middle" x="198" y="-349.5" font-family="Helvetica,sans-Serif" font-size="10.00">tf2_msgs_TFMessage</text>
</a>
</g>
</g>
<!-- Node1&#45;&gt;Node16 -->
<g id="edge15" class="edge"><title>Node1&#45;&gt;Node16</title>
<path fill="none" stroke="midnightblue" d="M50.074,-429.013C62.8542,-411.436 84.6582,-385.299 110,-371 119.425,-365.682 130.201,-361.851 140.884,-359.093"/>
<polygon fill="midnightblue" stroke="midnightblue" points="47.1257,-427.121 44.2423,-437.316 52.854,-431.144 47.1257,-427.121"/>
</g>
<!-- Node17 -->
<g id="node17" class="node"><title>Node17</title>
<g id="a_node17"><a xlink:href="classtf__tf_message.html" target="_top" xlink:title="tf_tfMessage">
<polygon fill="none" stroke="black" points="161,-304.5 161,-323.5 235,-323.5 235,-304.5 161,-304.5"/>
<text text-anchor="middle" x="198" y="-311.5" font-family="Helvetica,sans-Serif" font-size="10.00">tf_tfMessage</text>
</a>
</g>
</g>
<!-- Node1&#45;&gt;Node17 -->
<g id="edge16" class="edge"><title>Node1&#45;&gt;Node17</title>
<path fill="none" stroke="midnightblue" d="M44.7019,-427.776C54.7215,-401.998 76.1342,-356.732 110,-333 124.687,-322.708 143.926,-317.842 160.578,-315.598"/>
<polygon fill="midnightblue" stroke="midnightblue" points="41.3974,-426.621 41.2065,-437.214 47.9617,-429.052 41.3974,-426.621"/>
</g>
<!-- Node18 -->
<g id="node18" class="node"><title>Node18</title>
<g id="a_node18"><a xlink:href="class_tick_time.html" target="_top" xlink:title="TickTime">
<polygon fill="none" stroke="black" points="169.5,-266.5 169.5,-285.5 226.5,-285.5 226.5,-266.5 169.5,-266.5"/>
<text text-anchor="middle" x="198" y="-273.5" font-family="Helvetica,sans-Serif" font-size="10.00">TickTime</text>
</a>
</g>
</g>
<!-- Node1&#45;&gt;Node18 -->
<g id="edge17" class="edge"><title>Node1&#45;&gt;Node18</title>
<path fill="none" stroke="midnightblue" d="M41.5619,-427.209C48.5504,-394.393 67.2688,-328.974 110,-295 126.7,-281.723 150.677,-277.239 169.232,-275.926"/>
<polygon fill="midnightblue" stroke="midnightblue" points="38.0627,-426.863 39.5591,-437.351 44.9301,-428.219 38.0627,-426.863"/>
</g>
<!-- Node19 -->
<g id="node19" class="node"><title>Node19</title>
<g id="a_node19"><a xlink:href="classxsens_1_1_frame_referece.html" target="_top" xlink:title="xsens::FrameReferece">
<polygon fill="none" stroke="black" points="140,-228.5 140,-247.5 256,-247.5 256,-228.5 140,-228.5"/>
<text text-anchor="middle" x="198" y="-235.5" font-family="Helvetica,sans-Serif" font-size="10.00">xsens::FrameReferece</text>
</a>
</g>
</g>
<!-- Node1&#45;&gt;Node19 -->
<g id="edge18" class="edge"><title>Node1&#45;&gt;Node19</title>
<path fill="none" stroke="midnightblue" d="M39.4579,-427.296C43.4367,-388.452 57.9759,-301.879 110,-257 118.429,-249.729 128.998,-245.045 139.837,-242.068"/>
<polygon fill="midnightblue" stroke="midnightblue" points="35.9664,-427.045 38.5625,-437.317 42.9386,-427.669 35.9664,-427.045"/>
</g>
<!-- Node20 -->
<g id="node20" class="node"><title>Node20</title>
<g id="a_node20"><a xlink:href="classxsens_1_1_quaternion.html" target="_top" xlink:title="xsens::Quaternion">
<polygon fill="none" stroke="black" points="150,-190.5 150,-209.5 246,-209.5 246,-190.5 150,-190.5"/>
<text text-anchor="middle" x="198" y="-197.5" font-family="Helvetica,sans-Serif" font-size="10.00">xsens::Quaternion</text>
</a>
</g>
</g>
<!-- Node1&#45;&gt;Node20 -->
<g id="edge19" class="edge"><title>Node1&#45;&gt;Node20</title>
<path fill="none" stroke="midnightblue" d="M38.0177,-427.439C39.1807,-383.235 48.5238,-275.129 110,-219 120.846,-209.097 135.623,-203.927 149.92,-201.342"/>
<polygon fill="midnightblue" stroke="midnightblue" points="34.5179,-427.403 37.8709,-437.454 41.5172,-427.506 34.5179,-427.403"/>
</g>
<!-- Node21 -->
<g id="node21" class="node"><title>Node21</title>
<g id="a_node21"><a xlink:href="classxsens_1_1_vector3.html" target="_top" xlink:title="xsens::Vector3">
<polygon fill="none" stroke="black" points="156.5,-152.5 156.5,-171.5 239.5,-171.5 239.5,-152.5 156.5,-152.5"/>
<text text-anchor="middle" x="198" y="-159.5" font-family="Helvetica,sans-Serif" font-size="10.00">xsens::Vector3</text>
</a>
</g>
</g>
<!-- Node1&#45;&gt;Node21 -->
<g id="edge20" class="edge"><title>Node1&#45;&gt;Node21</title>
<path fill="none" stroke="midnightblue" d="M40.6635,-427.329C48.5787,-371.789 73.6895,-215.562 110,-181 122.318,-169.275 140.113,-164.118 156.404,-162.05"/>
<polygon fill="midnightblue" stroke="midnightblue" points="37.1876,-426.915 39.2744,-437.302 44.1206,-427.881 37.1876,-426.915"/>
</g>
<!-- Node22 -->
<g id="node22" class="node"><title>Node22</title>
<g id="a_node22"><a xlink:href="classxsens_1_1_xsens_segment_data.html" target="_top" xlink:title="xsens::XsensSegmentData">
<polygon fill="none" stroke="black" points="129.5,-114.5 129.5,-133.5 266.5,-133.5 266.5,-114.5 129.5,-114.5"/>
<text text-anchor="middle" x="198" y="-121.5" font-family="Helvetica,sans-Serif" font-size="10.00">xsens::XsensSegmentData</text>
</a>
</g>
</g>
<!-- Node1&#45;&gt;Node22 -->
<g id="edge21" class="edge"><title>Node1&#45;&gt;Node22</title>
<path fill="none" stroke="midnightblue" d="M39.9864,-426.991C46.4595,-365.876 68.9307,-183.355 110,-143 115.514,-137.582 122.192,-133.556 129.371,-130.584"/>
<polygon fill="midnightblue" stroke="midnightblue" points="36.4755,-426.918 38.9335,-437.224 43.4387,-427.635 36.4755,-426.918"/>
</g>
<!-- Node23 -->
<g id="node23" class="node"><title>Node23</title>
<g id="a_node23"><a xlink:href="classxsens_1_1_xsens_segments_frame.html" target="_top" xlink:title="xsens::XsensSegmentsFrame">
<polygon fill="none" stroke="black" points="123.5,-76.5 123.5,-95.5 272.5,-95.5 272.5,-76.5 123.5,-76.5"/>
<text text-anchor="middle" x="198" y="-83.5" font-family="Helvetica,sans-Serif" font-size="10.00">xsens::XsensSegmentsFrame</text>
</a>
</g>
</g>
<!-- Node1&#45;&gt;Node23 -->
<g id="edge22" class="edge"><title>Node1&#45;&gt;Node23</title>
<path fill="none" stroke="midnightblue" d="M39.407,-427.134C44.4821,-361.222 64.0327,-151.314 110,-105 113.921,-101.05 118.459,-97.8347 123.364,-95.2263"/>
<polygon fill="midnightblue" stroke="midnightblue" points="35.8962,-427.151 38.6468,-437.383 42.877,-427.669 35.8962,-427.151"/>
</g>
<!-- Node24 -->
<g id="node24" class="node"><title>Node24</title>
<g id="a_node24"><a xlink:href="classxsens_1_1_xsens_sensor_data.html" target="_top" xlink:title="xsens::XsensSensorData">
<polygon fill="none" stroke="black" points="134,-38.5 134,-57.5 262,-57.5 262,-38.5 134,-38.5"/>
<text text-anchor="middle" x="198" y="-45.5" font-family="Helvetica,sans-Serif" font-size="10.00">xsens::XsensSensorData</text>
</a>
</g>
</g>
<!-- Node1&#45;&gt;Node24 -->
<g id="edge23" class="edge"><title>Node1&#45;&gt;Node24</title>
<path fill="none" stroke="midnightblue" d="M38.9464,-427.254C42.7298,-356.818 59.1118,-119.321 110,-67 116.575,-60.2396 124.957,-55.6221 133.91,-52.5102"/>
<polygon fill="midnightblue" stroke="midnightblue" points="35.4427,-427.237 38.4279,-437.403 42.4336,-427.595 35.4427,-427.237"/>
</g>
<!-- Node25 -->
<g id="node25" class="node"><title>Node25</title>
<g id="a_node25"><a xlink:href="classxsens_1_1_xsens_sensors_frame.html" target="_top" xlink:title="xsens::XsensSensorsFrame">
<polygon fill="none" stroke="black" points="128,-0.5 128,-19.5 268,-19.5 268,-0.5 128,-0.5"/>
<text text-anchor="middle" x="198" y="-7.5" font-family="Helvetica,sans-Serif" font-size="10.00">xsens::XsensSensorsFrame</text>
</a>
</g>
</g>
<!-- Node1&#45;&gt;Node25 -->
<g id="edge24" class="edge"><title>Node1&#45;&gt;Node25</title>
<path fill="none" stroke="midnightblue" d="M38.5919,-426.769C41.2219,-351.252 54.3164,-87.2148 110,-29 115.023,-23.7491 121.133,-19.7858 127.764,-16.8144"/>
<polygon fill="midnightblue" stroke="midnightblue" points="35.0794,-427.102 38.2547,-437.21 42.0757,-427.328 35.0794,-427.102"/>
</g>
</g>
</svg>
