<?xml version="1.0" encoding="UTF-8" standalone="no"?>
<!DOCTYPE svg PUBLIC "-//W3C//DTD SVG 1.1//EN"
 "http://www.w3.org/Graphics/SVG/1.1/DTD/svg11.dtd">
<!-- Generated by graphviz version 2.36.0 (20140111.2315)
 -->
<!-- Title: Graphical Class Hierarchy Pages: 1 -->
<svg width="436pt" height="635pt"
 viewBox="0.00 0.00 436.00 635.00" xmlns="http://www.w3.org/2000/svg" xmlns:xlink="http://www.w3.org/1999/xlink">
<g id="graph0" class="graph" transform="scale(1 1) rotate(0) translate(4 631)">
<title>Graphical Class Hierarchy</title>
<!-- Node1 -->
<g id="node1" class="node"><title>Node1</title>
<g id="a_node1"><a xlink:href="classyarp_1_1os_1_1_port_writer.html" target="_top" xlink:title="PortWriter">
<polygon fill="none" stroke="black" points="0.5,-352.5 0.5,-371.5 61.5,-371.5 61.5,-352.5 0.5,-352.5"/>
<text text-anchor="middle" x="31" y="-359.5" font-family="Helvetica,sans-Serif" font-size="10.00">PortWriter</text>
</a>
</g>
</g>
<!-- Node2 -->
<g id="node2" class="node"><title>Node2</title>
<g id="a_node2"><a xlink:href="classhuman_1_1_force6_d_1_1_editor.html" target="_top" xlink:title="human::Force6D::Editor">
<polygon fill="none" stroke="black" points="112.5,-607.5 112.5,-626.5 233.5,-626.5 233.5,-607.5 112.5,-607.5"/>
<text text-anchor="middle" x="173" y="-614.5" font-family="Helvetica,sans-Serif" font-size="10.00">human::Force6D::Editor</text>
</a>
</g>
</g>
<!-- Node1&#45;&gt;Node2 -->
<g id="edge1" class="edge"><title>Node1&#45;&gt;Node2</title>
<path fill="none" stroke="midnightblue" d="M31.4482,-381.888C31.3343,-426.88 37.6123,-537.203 98,-597 102.35,-601.307 107.526,-604.713 113.091,-607.401"/>
<polygon fill="midnightblue" stroke="midnightblue" points="34.9504,-381.748 31.5918,-371.7 27.9511,-381.65 34.9504,-381.748"/>
</g>
<!-- Node3 -->
<g id="node3" class="node"><title>Node3</title>
<g id="a_node3"><a xlink:href="classhuman_1_1_human_forces_1_1_editor.html" target="_top" xlink:title="human::HumanForces\l::Editor">
<polygon fill="none" stroke="black" points="116.5,-558 116.5,-588 229.5,-588 229.5,-558 116.5,-558"/>
<text text-anchor="start" x="124.5" y="-576" font-family="Helvetica,sans-Serif" font-size="10.00">human::HumanForces</text>
<text text-anchor="middle" x="173" y="-565" font-family="Helvetica,sans-Serif" font-size="10.00">::Editor</text>
</a>
</g>
</g>
<!-- Node1&#45;&gt;Node3 -->
<g id="edge2" class="edge"><title>Node1&#45;&gt;Node3</title>
<path fill="none" stroke="midnightblue" d="M33.462,-381.8C37.2936,-419.416 50.8777,-501.588 98,-548 103.217,-553.138 109.526,-557.222 116.234,-560.466"/>
<polygon fill="midnightblue" stroke="midnightblue" points="36.9312,-381.296 32.5597,-371.645 29.9586,-381.916 36.9312,-381.296"/>
</g>
<!-- Node4 -->
<g id="node4" class="node"><title>Node4</title>
<g id="a_node4"><a xlink:href="classhuman_1_1_human_state_1_1_editor.html" target="_top" xlink:title="human::HumanState::\lEditor">
<polygon fill="none" stroke="black" points="116.5,-509 116.5,-539 229.5,-539 229.5,-509 116.5,-509"/>
<text text-anchor="start" x="124.5" y="-527" font-family="Helvetica,sans-Serif" font-size="10.00">human::HumanState::</text>
<text text-anchor="middle" x="173" y="-516" font-family="Helvetica,sans-Serif" font-size="10.00">Editor</text>
</a>
</g>
</g>
<!-- Node1&#45;&gt;Node4 -->
<g id="edge3" class="edge"><title>Node1&#45;&gt;Node4</title>
<path fill="none" stroke="midnightblue" d="M36.2497,-381.424C43.6952,-410.952 61.8662,-467.063 98,-499 103.385,-503.76 109.712,-507.62 116.361,-510.75"/>
<polygon fill="midnightblue" stroke="midnightblue" points="39.6138,-380.441 33.9062,-371.515 32.8017,-382.052 39.6138,-380.441"/>
</g>
<!-- Node5 -->
<g id="node5" class="node"><title>Node5</title>
<g id="a_node5"><a xlink:href="classhuman_1_1_quaternion_1_1_editor.html" target="_top" xlink:title="human::Quaternion::\lEditor">
<polygon fill="none" stroke="black" points="120.5,-460 120.5,-490 225.5,-490 225.5,-460 120.5,-460"/>
<text text-anchor="start" x="128.5" y="-478" font-family="Helvetica,sans-Serif" font-size="10.00">human::Quaternion::</text>
<text text-anchor="middle" x="173" y="-467" font-family="Helvetica,sans-Serif" font-size="10.00">Editor</text>
</a>
</g>
</g>
<!-- Node1&#45;&gt;Node5 -->
<g id="edge4" class="edge"><title>Node1&#45;&gt;Node5</title>
<path fill="none" stroke="midnightblue" d="M41.5648,-380.721C52.6177,-400.591 72.5908,-431.608 98,-450 104.701,-454.85 112.41,-458.809 120.266,-462.024"/>
<polygon fill="midnightblue" stroke="midnightblue" points="44.5502,-378.882 36.7434,-371.719 38.3795,-382.187 44.5502,-378.882"/>
</g>
<!-- Node6 -->
<g id="node6" class="node"><title>Node6</title>
<g id="a_node6"><a xlink:href="classhuman_1_1_vector3_1_1_editor.html" target="_top" xlink:title="human::Vector3::Editor">
<polygon fill="none" stroke="black" points="114.5,-421.5 114.5,-440.5 231.5,-440.5 231.5,-421.5 114.5,-421.5"/>
<text text-anchor="middle" x="173" y="-428.5" font-family="Helvetica,sans-Serif" font-size="10.00">human::Vector3::Editor</text>
</a>
</g>
</g>
<!-- Node1&#45;&gt;Node6 -->
<g id="edge5" class="edge"><title>Node1&#45;&gt;Node6</title>
<path fill="none" stroke="midnightblue" d="M50.2587,-378.509C62.8703,-389.137 80.4704,-402.504 98,-411 106.742,-415.237 116.516,-418.684 126.022,-421.447"/>
<polygon fill="midnightblue" stroke="midnightblue" points="52.2346,-375.59 42.3867,-371.683 47.6484,-380.879 52.2346,-375.59"/>
</g>
<!-- Node7 -->
<g id="node7" class="node"><title>Node7</title>
<g id="a_node7"><a xlink:href="classxsens_1_1_frame_referece_1_1_editor.html" target="_top" xlink:title="xsens::FrameReferece\l::Editor">
<polygon fill="none" stroke="black" points="115,-372 115,-402 231,-402 231,-372 115,-372"/>
<text text-anchor="start" x="123" y="-390" font-family="Helvetica,sans-Serif" font-size="10.00">xsens::FrameReferece</text>
<text text-anchor="middle" x="173" y="-379" font-family="Helvetica,sans-Serif" font-size="10.00">::Editor</text>
</a>
</g>
</g>
<!-- Node1&#45;&gt;Node7 -->
<g id="edge6" class="edge"><title>Node1&#45;&gt;Node7</title>
<path fill="none" stroke="midnightblue" d="M71.5812,-369.068C85.0477,-371.473 100.379,-374.211 114.937,-376.81"/>
<polygon fill="midnightblue" stroke="midnightblue" points="72.15,-365.614 61.6904,-367.302 70.9194,-372.505 72.15,-365.614"/>
</g>
<!-- Node8 -->
<g id="node8" class="node"><title>Node8</title>
<g id="a_node8"><a xlink:href="classxsens_1_1_quaternion_1_1_editor.html" target="_top" xlink:title="xsens::Quaternion::\lEditor">
<polygon fill="none" stroke="black" points="122,-323 122,-353 224,-353 224,-323 122,-323"/>
<text text-anchor="start" x="130" y="-341" font-family="Helvetica,sans-Serif" font-size="10.00">xsens::Quaternion::</text>
<text text-anchor="middle" x="173" y="-330" font-family="Helvetica,sans-Serif" font-size="10.00">Editor</text>
</a>
</g>
</g>
<!-- Node1&#45;&gt;Node8 -->
<g id="edge7" class="edge"><title>Node1&#45;&gt;Node8</title>
<path fill="none" stroke="midnightblue" d="M71.573,-355.216C87.2304,-352.532 105.41,-349.416 121.963,-346.578"/>
<polygon fill="midnightblue" stroke="midnightblue" points="70.9552,-351.771 61.6904,-356.91 72.138,-358.67 70.9552,-351.771"/>
</g>
<!-- Node9 -->
<g id="node9" class="node"><title>Node9</title>
<g id="a_node9"><a xlink:href="classxsens_1_1_vector3_1_1_editor.html" target="_top" xlink:title="xsens::Vector3::Editor">
<polygon fill="none" stroke="black" points="116,-284.5 116,-303.5 230,-303.5 230,-284.5 116,-284.5"/>
<text text-anchor="middle" x="173" y="-291.5" font-family="Helvetica,sans-Serif" font-size="10.00">xsens::Vector3::Editor</text>
</a>
</g>
</g>
<!-- Node1&#45;&gt;Node9 -->
<g id="edge8" class="edge"><title>Node1&#45;&gt;Node9</title>
<path fill="none" stroke="midnightblue" d="M50.7676,-345.472C63.3688,-335.13 80.7631,-322.25 98,-314 106.883,-309.749 116.814,-306.284 126.444,-303.506"/>
<polygon fill="midnightblue" stroke="midnightblue" points="48.2543,-343.013 42.8702,-352.138 52.7695,-348.363 48.2543,-343.013"/>
</g>
<!-- Node10 -->
<g id="node10" class="node"><title>Node10</title>
<g id="a_node10"><a xlink:href="classxsens_1_1_xsens_segment_data_1_1_editor.html" target="_top" xlink:title="xsens::XsensSegmentData\l::Editor">
<polygon fill="none" stroke="black" points="104.5,-235 104.5,-265 241.5,-265 241.5,-235 104.5,-235"/>
<text text-anchor="start" x="112.5" y="-253" font-family="Helvetica,sans-Serif" font-size="10.00">xsens::XsensSegmentData</text>
<text text-anchor="middle" x="173" y="-242" font-family="Helvetica,sans-Serif" font-size="10.00">::Editor</text>
</a>
</g>
</g>
<!-- Node1&#45;&gt;Node10 -->
<g id="edge9" class="edge"><title>Node1&#45;&gt;Node10</title>
<path fill="none" stroke="midnightblue" d="M47.9181,-344.812C52.5975,-339.535 57.63,-333.633 62,-328 79.4549,-305.501 75.3304,-292.232 98,-275 103.074,-271.143 108.779,-267.86 114.713,-265.069"/>
<polygon fill="midnightblue" stroke="midnightblue" points="45.1135,-342.695 41.0014,-352.459 50.3051,-347.39 45.1135,-342.695"/>
</g>
<!-- Node11 -->
<g id="node11" class="node"><title>Node11</title>
<g id="a_node11"><a xlink:href="classxsens_1_1_xsens_segments_frame_1_1_editor.html" target="_top" xlink:title="xsens::XsensSegmentsFrame\l::Editor">
<polygon fill="none" stroke="black" points="98.5,-186 98.5,-216 247.5,-216 247.5,-186 98.5,-186"/>
<text text-anchor="start" x="106.5" y="-204" font-family="Helvetica,sans-Serif" font-size="10.00">xsens::XsensSegmentsFrame</text>
<text text-anchor="middle" x="173" y="-193" font-family="Helvetica,sans-Serif" font-size="10.00">::Editor</text>
</a>
</g>
</g>
<!-- Node1&#45;&gt;Node11 -->
<g id="edge10" class="edge"><title>Node1&#45;&gt;Node11</title>
<path fill="none" stroke="midnightblue" d="M49.2787,-344.997C53.8563,-339.849 58.4937,-333.969 62,-328 86.3501,-286.549 63.778,-259.763 98,-226 101.958,-222.095 106.546,-218.8 111.461,-216.019"/>
<polygon fill="midnightblue" stroke="midnightblue" points="46.62,-342.715 42.3057,-352.391 51.7128,-347.517 46.62,-342.715"/>
</g>
<!-- Node12 -->
<g id="node12" class="node"><title>Node12</title>
<g id="a_node12"><a xlink:href="classxsens_1_1_xsens_sensor_data_1_1_editor.html" target="_top" xlink:title="xsens::XsensSensorData\l::Editor">
<polygon fill="none" stroke="black" points="109,-137 109,-167 237,-167 237,-137 109,-137"/>
<text text-anchor="start" x="117" y="-155" font-family="Helvetica,sans-Serif" font-size="10.00">xsens::XsensSensorData</text>
<text text-anchor="middle" x="173" y="-144" font-family="Helvetica,sans-Serif" font-size="10.00">::Editor</text>
</a>
</g>
</g>
<!-- Node1&#45;&gt;Node12 -->
<g id="edge11" class="edge"><title>Node1&#45;&gt;Node12</title>
<path fill="none" stroke="midnightblue" d="M49.8962,-344.994C54.4101,-339.903 58.8601,-334.053 62,-328 93.7679,-266.757 51.504,-227.971 98,-177 101.564,-173.093 105.76,-169.796 110.312,-167.014"/>
<polygon fill="midnightblue" stroke="midnightblue" points="47.3046,-342.64 42.9294,-352.289 52.367,-347.474 47.3046,-342.64"/>
</g>
<!-- Node13 -->
<g id="node13" class="node"><title>Node13</title>
<g id="a_node13"><a xlink:href="classxsens_1_1_xsens_sensors_frame_1_1_editor.html" target="_top" xlink:title="xsens::XsensSensorsFrame\l::Editor">
<polygon fill="none" stroke="black" points="103,-88 103,-118 243,-118 243,-88 103,-88"/>
<text text-anchor="start" x="111" y="-106" font-family="Helvetica,sans-Serif" font-size="10.00">xsens::XsensSensorsFrame</text>
<text text-anchor="middle" x="173" y="-95" font-family="Helvetica,sans-Serif" font-size="10.00">::Editor</text>
</a>
</g>
</g>
<!-- Node1&#45;&gt;Node13 -->
<g id="edge12" class="edge"><title>Node1&#45;&gt;Node13</title>
<path fill="none" stroke="midnightblue" d="M50.1201,-345.106C54.6358,-340.016 59.0306,-334.139 62,-328 101.329,-246.695 39.0223,-196.402 98,-128 101.365,-124.097 105.361,-120.802 109.728,-118.021"/>
<polygon fill="midnightblue" stroke="midnightblue" points="47.5294,-342.75 43.1123,-352.381 52.5707,-347.607 47.5294,-342.75"/>
</g>
<!-- Node14 -->
<g id="node14" class="node"><title>Node14</title>
<g id="a_node14"><a xlink:href="classyarp_1_1os_1_1_wire.html" target="_top" xlink:title="Wire">
<polygon fill="none" stroke="black" points="12.5,-299.5 12.5,-318.5 49.5,-318.5 49.5,-299.5 12.5,-299.5"/>
<text text-anchor="middle" x="31" y="-306.5" font-family="Helvetica,sans-Serif" font-size="10.00">Wire</text>
</a>
</g>
</g>
<!-- Node14&#45;&gt;Node2 -->
<g id="edge13" class="edge"><title>Node14&#45;&gt;Node2</title>
<path fill="none" stroke="midnightblue" d="M50.2712,-325.823C54.7879,-330.912 59.1456,-336.807 62,-343 109.726,-446.548 22.4925,-511.569 98,-597 102.054,-601.587 107.041,-605.171 112.493,-607.965"/>
<polygon fill="midnightblue" stroke="midnightblue" points="52.7077,-323.308 43.2356,-318.561 47.6803,-328.179 52.7077,-323.308"/>
</g>
<!-- Node14&#45;&gt;Node3 -->
<g id="edge14" class="edge"><title>Node14&#45;&gt;Node3</title>
<path fill="none" stroke="midnightblue" d="M50.1373,-325.886C54.653,-330.976 59.0437,-336.855 62,-343 102.104,-426.36 37.7428,-477.812 98,-548 103.035,-553.865 109.496,-558.357 116.499,-561.798"/>
<polygon fill="midnightblue" stroke="midnightblue" points="52.5863,-323.383 43.1263,-318.613 47.5465,-328.241 52.5863,-323.383"/>
</g>
<!-- Node14&#45;&gt;Node4 -->
<g id="edge15" class="edge"><title>Node14&#45;&gt;Node4</title>
<path fill="none" stroke="midnightblue" d="M49.925,-325.991C54.4391,-331.082 58.882,-336.935 62,-343 94.5351,-406.282 50.2366,-446.258 98,-499 103.097,-504.629 109.506,-508.991 116.408,-512.372"/>
<polygon fill="midnightblue" stroke="midnightblue" points="52.3932,-323.508 42.9529,-318.699 47.3336,-328.346 52.3932,-323.508"/>
</g>
<!-- Node14&#45;&gt;Node5 -->
<g id="edge18" class="edge"><title>Node14&#45;&gt;Node5</title>
<path fill="none" stroke="midnightblue" d="M49.3357,-325.97C53.9142,-331.117 58.5377,-337.006 62,-343 87.0947,-386.449 62.5431,-414.499 98,-450 104.229,-456.237 112.065,-460.918 120.291,-464.432"/>
<polygon fill="midnightblue" stroke="midnightblue" points="51.7646,-323.444 42.3515,-318.582 46.6778,-328.253 51.7646,-323.444"/>
</g>
<!-- Node14&#45;&gt;Node6 -->
<g id="edge19" class="edge"><title>Node14&#45;&gt;Node6</title>
<path fill="none" stroke="midnightblue" d="M48.5176,-326.128C53.1484,-331.339 58.0043,-337.221 62,-343 81.4478,-371.128 71.2799,-389.659 98,-411 103.407,-415.319 109.671,-418.708 116.22,-421.368"/>
<polygon fill="midnightblue" stroke="midnightblue" points="50.933,-323.585 41.5821,-318.604 45.7859,-328.329 50.933,-323.585"/>
</g>
<!-- Node14&#45;&gt;Node7 -->
<g id="edge20" class="edge"><title>Node14&#45;&gt;Node7</title>
<path fill="none" stroke="midnightblue" d="M49.4073,-325.83C62.0504,-337.307 80.0271,-352.154 98,-362 104.779,-365.714 112.208,-369.013 119.661,-371.899"/>
<polygon fill="midnightblue" stroke="midnightblue" points="51.6266,-323.114 41.9229,-318.861 46.8563,-328.237 51.6266,-323.114"/>
</g>
<!-- Node14&#45;&gt;Node8 -->
<g id="edge21" class="edge"><title>Node14&#45;&gt;Node8</title>
<path fill="none" stroke="midnightblue" d="M59.95,-314.79C77.6661,-318.459 101.092,-323.312 121.942,-327.631"/>
<polygon fill="midnightblue" stroke="midnightblue" points="60.2332,-311.274 49.7311,-312.673 58.8133,-318.129 60.2332,-311.274"/>
</g>
<!-- Node14&#45;&gt;Node9 -->
<g id="edge22" class="edge"><title>Node14&#45;&gt;Node9</title>
<path fill="none" stroke="midnightblue" d="M59.9744,-306.003C75.9478,-304.291 96.5568,-302.083 115.734,-300.028"/>
<polygon fill="midnightblue" stroke="midnightblue" points="59.3013,-302.555 49.7311,-307.1 60.0471,-309.515 59.3013,-302.555"/>
</g>
<!-- Node14&#45;&gt;Node10 -->
<g id="edge24" class="edge"><title>Node14&#45;&gt;Node10</title>
<path fill="none" stroke="midnightblue" d="M57.7735,-294.583C69.7966,-288.155 84.4212,-280.753 98,-275 106.241,-271.509 115.151,-268.156 123.838,-265.102"/>
<polygon fill="midnightblue" stroke="midnightblue" points="55.8757,-291.631 48.7585,-299.479 59.2165,-297.782 55.8757,-291.631"/>
</g>
<!-- Node14&#45;&gt;Node11 -->
<g id="edge25" class="edge"><title>Node14&#45;&gt;Node11</title>
<path fill="none" stroke="midnightblue" d="M42.3324,-290.51C53.6982,-271.756 73.6261,-243.123 98,-226 103.437,-222.18 109.504,-218.907 115.76,-216.111"/>
<polygon fill="midnightblue" stroke="midnightblue" points="39.217,-288.904 37.1912,-299.304 45.26,-292.437 39.217,-288.904"/>
</g>
<!-- Node14&#45;&gt;Node12 -->
<g id="edge26" class="edge"><title>Node14&#45;&gt;Node12</title>
<path fill="none" stroke="midnightblue" d="M36.6731,-289.481C44.52,-260.817 63.0318,-207.452 98,-177 102.397,-173.171 107.405,-169.922 112.695,-167.168"/>
<polygon fill="midnightblue" stroke="midnightblue" points="33.2031,-288.921 34.0984,-299.478 39.9819,-290.667 33.2031,-288.921"/>
</g>
<!-- Node14&#45;&gt;Node13 -->
<g id="edge27" class="edge"><title>Node14&#45;&gt;Node13</title>
<path fill="none" stroke="midnightblue" d="M33.689,-289.203C37.8824,-252.348 52.0218,-172.894 98,-128 101.978,-124.116 106.58,-120.834 111.504,-118.063"/>
<polygon fill="midnightblue" stroke="midnightblue" points="30.2032,-288.887 32.6827,-299.187 37.1679,-289.589 30.2032,-288.887"/>
</g>
<!-- Node15 -->
<g id="node15" class="node"><title>Node15</title>
<g id="a_node15"><a xlink:href="classhuman_1_1_human_state_provider_service.html" target="_top" xlink:title="human::HumanStateProvider\lService">
<polygon fill="none" stroke="black" points="101.5,-39 101.5,-69 244.5,-69 244.5,-39 101.5,-39"/>
<text text-anchor="start" x="109.5" y="-57" font-family="Helvetica,sans-Serif" font-size="10.00">human::HumanStateProvider</text>
<text text-anchor="middle" x="173" y="-46" font-family="Helvetica,sans-Serif" font-size="10.00">Service</text>
</a>
</g>
</g>
<!-- Node14&#45;&gt;Node15 -->
<g id="edge16" class="edge"><title>Node14&#45;&gt;Node15</title>
<path fill="none" stroke="midnightblue" d="M31.8663,-288.896C32.6814,-244.82 40.8576,-138.854 98,-79 101.652,-75.1747 105.909,-71.9347 110.501,-69.1905"/>
<polygon fill="midnightblue" stroke="midnightblue" points="28.3647,-289.128 31.7945,-299.152 35.3645,-289.177 28.3647,-289.128"/>
</g>
<!-- Node17 -->
<g id="node17" class="node"><title>Node17</title>
<g id="a_node17"><a xlink:href="classxsens_1_1_xsens_driver_service.html" target="_top" xlink:title="xsens::XsensDriverService">
<polygon fill="none" stroke="black" points="105,-0.5 105,-19.5 241,-19.5 241,-0.5 105,-0.5"/>
<text text-anchor="middle" x="173" y="-7.5" font-family="Helvetica,sans-Serif" font-size="10.00">xsens::XsensDriverService</text>
</a>
</g>
</g>
<!-- Node14&#45;&gt;Node17 -->
<g id="edge23" class="edge"><title>Node14&#45;&gt;Node17</title>
<path fill="none" stroke="midnightblue" d="M34.0264,-289.165C40.2956,-231.654 61.2016,-66.5358 98,-29 101.714,-25.2114 106.074,-22.1428 110.788,-19.6618"/>
<polygon fill="midnightblue" stroke="midnightblue" points="30.5107,-289.129 32.9387,-299.442 37.4718,-289.866 30.5107,-289.129"/>
</g>
<!-- Node16 -->
<g id="node16" class="node"><title>Node16</title>
<g id="a_node16"><a xlink:href="classhuman_1_1_human_state_provider_1_1_human_state_provider_private.html" target="_top" xlink:title="human::HumanStateProvider\l::HumanStateProviderPrivate">
<polygon fill="none" stroke="black" points="284,-39 284,-69 428,-69 428,-39 284,-39"/>
<text text-anchor="start" x="292" y="-57" font-family="Helvetica,sans-Serif" font-size="10.00">human::HumanStateProvider</text>
<text text-anchor="middle" x="356" y="-46" font-family="Helvetica,sans-Serif" font-size="10.00">::HumanStateProviderPrivate</text>
</a>
</g>
</g>
<!-- Node15&#45;&gt;Node16 -->
<g id="edge17" class="edge"><title>Node15&#45;&gt;Node16</title>
<path fill="none" stroke="midnightblue" d="M254.819,-54C264.546,-54 274.423,-54 283.995,-54"/>
<polygon fill="midnightblue" stroke="midnightblue" points="254.757,-50.5001 244.757,-54 254.757,-57.5001 254.757,-50.5001"/>
</g>
</g>
</svg>
