<?xml version="1.0" encoding="UTF-8" standalone="no"?>
<!DOCTYPE svg PUBLIC "-//W3C//DTD SVG 1.1//EN"
 "http://www.w3.org/Graphics/SVG/1.1/DTD/svg11.dtd">
<!-- Generated by graphviz version 2.36.0 (20140111.2315)
 -->
<!-- Title: human::HumanIKWorkerPool::WorkerTaskData Pages: 1 -->
<svg width="1417pt" height="366pt"
 viewBox="0.00 0.00 1417.00 366.00" xmlns="http://www.w3.org/2000/svg" xmlns:xlink="http://www.w3.org/1999/xlink">
<g id="graph0" class="graph" transform="scale(1 1) rotate(0) translate(4 362)">
<title>human::HumanIKWorkerPool::WorkerTaskData</title>
<!-- Node1 -->
<g id="node1" class="node"><title>Node1</title>
<polygon fill="#bfbfbf" stroke="black" points="1068,-1 1068,-69 1212,-69 1212,-1 1068,-1"/>
<text text-anchor="start" x="1076" y="-57" font-family="Helvetica,sans-Serif" font-size="10.00">human::HumanIKWorkerPool</text>
<text text-anchor="middle" x="1140" y="-46" font-family="Helvetica,sans-Serif" font-size="10.00">::WorkerTaskData</text>
<polyline fill="none" stroke="black" points="1068,-39 1212,-39 "/>
<text text-anchor="middle" x="1140" y="-27" font-family="Helvetica,sans-Serif" font-size="10.00"> </text>
<polyline fill="none" stroke="black" points="1068,-20 1212,-20 "/>
<text text-anchor="middle" x="1140" y="-8" font-family="Helvetica,sans-Serif" font-size="10.00"> </text>
</g>
<!-- Node2 -->
<g id="node2" class="node"><title>Node2</title>
<g id="a_node2"><a xlink:href="structhuman_1_1_link_pair_info.html" target="_top" xlink:title="{human::LinkPairInfo\n||}">
<polygon fill="none" stroke="black" points="508,-128.5 508,-185.5 612,-185.5 612,-128.5 508,-128.5"/>
<text text-anchor="middle" x="560" y="-173.5" font-family="Helvetica,sans-Serif" font-size="10.00">human::LinkPairInfo</text>
<polyline fill="none" stroke="black" points="508,-166.5 612,-166.5 "/>
<text text-anchor="middle" x="560" y="-154.5" font-family="Helvetica,sans-Serif" font-size="10.00"> </text>
<polyline fill="none" stroke="black" points="508,-147.5 612,-147.5 "/>
<text text-anchor="middle" x="560" y="-135.5" font-family="Helvetica,sans-Serif" font-size="10.00"> </text>
</a>
</g>
</g>
<!-- Node2&#45;&gt;Node1 -->
<g id="edge1" class="edge"><title>Node2&#45;&gt;Node1</title>
<path fill="none" stroke="#404040" d="M612.238,-145.192C712.888,-124.368 934.466,-78.5242 1056.06,-53.3666"/>
<polygon fill="none" stroke="#404040" points="1056.12,-53.3552 1061.18,-48.2225 1067.87,-50.9239 1062.8,-56.0566 1056.12,-53.3552"/>
<text text-anchor="middle" x="906" y="-96.5" font-family="Helvetica,sans-Serif" font-size="10.00"> +pairInfo</text>
</g>
<!-- Node3 -->
<g id="node3" class="node"><title>Node3</title>
<polygon fill="none" stroke="#bfbfbf" points="-0.5,-283.5 -0.5,-340.5 80.5,-340.5 80.5,-283.5 -0.5,-283.5"/>
<text text-anchor="middle" x="40" y="-328.5" font-family="Helvetica,sans-Serif" font-size="10.00">MatrixDynSize</text>
<polyline fill="none" stroke="#bfbfbf" points="-0.5,-321.5 80.5,-321.5 "/>
<text text-anchor="middle" x="40" y="-309.5" font-family="Helvetica,sans-Serif" font-size="10.00"> </text>
<polyline fill="none" stroke="#bfbfbf" points="-0.5,-302.5 80.5,-302.5 "/>
<text text-anchor="middle" x="40" y="-290.5" font-family="Helvetica,sans-Serif" font-size="10.00"> </text>
</g>
<!-- Node3&#45;&gt;Node2 -->
<g id="edge2" class="edge"><title>Node3&#45;&gt;Node2</title>
<path fill="none" stroke="#404040" d="M42.5741,-283.376C46.4785,-258.412 56.3003,-222.789 81,-204 113.302,-179.428 372.57,-165.655 495.617,-160.445"/>
<polygon fill="none" stroke="#404040" points="495.808,-160.437 501.637,-156.191 507.798,-159.938 501.969,-164.184 495.808,-160.437"/>
<text text-anchor="middle" x="121" y="-234.5" font-family="Helvetica,sans-Serif" font-size="10.00"> +relativeJacobian</text>
<text text-anchor="middle" x="121" y="-223.5" font-family="Helvetica,sans-Serif" font-size="10.00">+parentJacobian</text>
<text text-anchor="middle" x="121" y="-212.5" font-family="Helvetica,sans-Serif" font-size="10.00">+childJacobian</text>
</g>
<!-- Node4 -->
<g id="node4" class="node"><title>Node4</title>
<polygon fill="none" stroke="#bfbfbf" points="535.5,-267 535.5,-357 696.5,-357 696.5,-267 535.5,-267"/>
<text text-anchor="start" x="543.5" y="-345" font-family="Helvetica,sans-Serif" font-size="10.00">ColPivHouseholderQR</text>
<text text-anchor="start" x="543.5" y="-334" font-family="Helvetica,sans-Serif" font-size="10.00">&lt; Eigen::Matrix&lt; double,</text>
<text text-anchor="start" x="543.5" y="-323" font-family="Helvetica,sans-Serif" font-size="10.00"> Eigen::Dynamic, Eigen</text>
<text text-anchor="middle" x="616" y="-312" font-family="Helvetica,sans-Serif" font-size="10.00">::Dynamic, Eigen::RowMajor &gt; &gt;</text>
<polyline fill="none" stroke="#bfbfbf" points="535.5,-305 696.5,-305 "/>
<text text-anchor="middle" x="616" y="-293" font-family="Helvetica,sans-Serif" font-size="10.00"> </text>
<polyline fill="none" stroke="#bfbfbf" points="535.5,-286 696.5,-286 "/>
<text text-anchor="middle" x="616" y="-274" font-family="Helvetica,sans-Serif" font-size="10.00"> </text>
</g>
<!-- Node4&#45;&gt;Node2 -->
<g id="edge3" class="edge"><title>Node4&#45;&gt;Node2</title>
<path fill="none" stroke="#404040" d="M570.995,-266.71C566.97,-260.796 563.484,-254.512 561,-248 555.024,-232.332 553.882,-213.986 554.572,-197.959"/>
<polygon fill="none" stroke="#404040" points="554.593,-197.667 551.037,-191.393 555.461,-185.698 559.016,-191.972 554.593,-197.667"/>
<text text-anchor="middle" x="616.5" y="-223.5" font-family="Helvetica,sans-Serif" font-size="10.00"> +jacobianDecomposition</text>
</g>
<!-- Node5 -->
<g id="node5" class="node"><title>Node5</title>
<polygon fill="none" stroke="#bfbfbf" points="715,-283.5 715,-340.5 783,-340.5 783,-283.5 715,-283.5"/>
<text text-anchor="middle" x="749" y="-328.5" font-family="Helvetica,sans-Serif" font-size="10.00">FrameIndex</text>
<polyline fill="none" stroke="#bfbfbf" points="715,-321.5 783,-321.5 "/>
<text text-anchor="middle" x="749" y="-309.5" font-family="Helvetica,sans-Serif" font-size="10.00"> </text>
<polyline fill="none" stroke="#bfbfbf" points="715,-302.5 783,-302.5 "/>
<text text-anchor="middle" x="749" y="-290.5" font-family="Helvetica,sans-Serif" font-size="10.00"> </text>
</g>
<!-- Node5&#45;&gt;Node2 -->
<g id="edge4" class="edge"><title>Node5&#45;&gt;Node2</title>
<path fill="none" stroke="#404040" d="M722.83,-283.244C713.484,-272.64 703.238,-260.167 695,-248 682.629,-229.728 688.304,-218.869 672,-204 658.371,-191.57 640.926,-182.257 623.883,-175.384"/>
<polygon fill="none" stroke="#404040" points="623.437,-175.217 616.415,-176.858 612.199,-171.008 619.221,-169.367 623.437,-175.217"/>
<text text-anchor="middle" x="760" y="-240" font-family="Helvetica,sans-Serif" font-size="10.00"> +parentFrameModelIndex</text>
<text text-anchor="middle" x="760" y="-229" font-family="Helvetica,sans-Serif" font-size="10.00">+childFrameSegmentsIndex</text>
<text text-anchor="middle" x="760" y="-218" font-family="Helvetica,sans-Serif" font-size="10.00">+childFrameModelIndex</text>
<text text-anchor="middle" x="760" y="-207" font-family="Helvetica,sans-Serif" font-size="10.00">+parentFrameSegmentsIndex</text>
</g>
<!-- Node6 -->
<g id="node6" class="node"><title>Node6</title>
<polygon fill="none" stroke="#bfbfbf" points="1044.5,-283.5 1044.5,-340.5 1085.5,-340.5 1085.5,-283.5 1044.5,-283.5"/>
<text text-anchor="middle" x="1065" y="-328.5" font-family="Helvetica,sans-Serif" font-size="10.00">string</text>
<polyline fill="none" stroke="#bfbfbf" points="1044.5,-321.5 1085.5,-321.5 "/>
<text text-anchor="middle" x="1065" y="-309.5" font-family="Helvetica,sans-Serif" font-size="10.00"> </text>
<polyline fill="none" stroke="#bfbfbf" points="1044.5,-302.5 1085.5,-302.5 "/>
<text text-anchor="middle" x="1065" y="-290.5" font-family="Helvetica,sans-Serif" font-size="10.00"> </text>
</g>
<!-- Node6&#45;&gt;Node2 -->
<g id="edge5" class="edge"><title>Node6&#45;&gt;Node2</title>
<path fill="none" stroke="#404040" d="M1049.93,-283.315C1044.14,-272.402 1037.58,-259.702 1032,-248 1022.83,-228.774 1030.18,-216.587 1013,-204 982.319,-181.527 741.784,-166.847 624.234,-160.943"/>
<polygon fill="none" stroke="#404040" points="624.216,-160.942 618.026,-164.641 612.231,-160.349 618.421,-156.65 624.216,-160.942"/>
<text text-anchor="middle" x="1076" y="-229" font-family="Helvetica,sans-Serif" font-size="10.00"> +childFrameName</text>
<text text-anchor="middle" x="1076" y="-218" font-family="Helvetica,sans-Serif" font-size="10.00">+parentFrameName</text>
</g>
<!-- Node11 -->
<g id="node11" class="node"><title>Node11</title>
<g id="a_node11"><a xlink:href="structhuman_1_1_segment_info.html" target="_top" xlink:title="{human::SegmentInfo\n||}">
<polygon fill="none" stroke="black" points="1092.5,-128.5 1092.5,-185.5 1199.5,-185.5 1199.5,-128.5 1092.5,-128.5"/>
<text text-anchor="middle" x="1146" y="-173.5" font-family="Helvetica,sans-Serif" font-size="10.00">human::SegmentInfo</text>
<polyline fill="none" stroke="black" points="1092.5,-166.5 1199.5,-166.5 "/>
<text text-anchor="middle" x="1146" y="-154.5" font-family="Helvetica,sans-Serif" font-size="10.00"> </text>
<polyline fill="none" stroke="black" points="1092.5,-147.5 1199.5,-147.5 "/>
<text text-anchor="middle" x="1146" y="-135.5" font-family="Helvetica,sans-Serif" font-size="10.00"> </text>
</a>
</g>
</g>
<!-- Node6&#45;&gt;Node11 -->
<g id="edge12" class="edge"><title>Node6&#45;&gt;Node11</title>
<path fill="none" stroke="#404040" d="M1085.63,-294.005C1098.49,-282.337 1114.37,-265.79 1124,-248 1132.36,-232.557 1137.59,-213.918 1140.84,-197.617"/>
<polygon fill="none" stroke="#404040" points="1140.86,-197.514 1137.97,-190.907 1142.96,-185.699 1145.85,-192.307 1140.86,-197.514"/>
<text text-anchor="middle" x="1176.5" y="-223.5" font-family="Helvetica,sans-Serif" font-size="10.00"> +segmentName</text>
</g>
<!-- Node7 -->
<g id="node7" class="node"><title>Node7</title>
<polygon fill="none" stroke="#bfbfbf" points="99,-278 99,-346 195,-346 195,-278 99,-278"/>
<text text-anchor="start" x="107" y="-334" font-family="Helvetica,sans-Serif" font-size="10.00">vector&lt; std::pair&lt;</text>
<text text-anchor="middle" x="147" y="-323" font-family="Helvetica,sans-Serif" font-size="10.00"> size_t, size_t &gt; &gt;</text>
<polyline fill="none" stroke="#bfbfbf" points="99,-316 195,-316 "/>
<text text-anchor="middle" x="147" y="-304" font-family="Helvetica,sans-Serif" font-size="10.00"> </text>
<polyline fill="none" stroke="#bfbfbf" points="99,-297 195,-297 "/>
<text text-anchor="middle" x="147" y="-285" font-family="Helvetica,sans-Serif" font-size="10.00"> </text>
</g>
<!-- Node7&#45;&gt;Node2 -->
<g id="edge6" class="edge"><title>Node7&#45;&gt;Node2</title>
<path fill="none" stroke="#404040" d="M153.498,-277.973C160.124,-253.514 172.974,-221.513 197,-204 243.257,-170.284 404.28,-161.241 495.562,-158.843"/>
<polygon fill="none" stroke="#404040" points="495.693,-158.84 501.595,-154.697 507.689,-158.552 501.787,-162.695 495.693,-158.84"/>
<text text-anchor="middle" x="257" y="-223.5" font-family="Helvetica,sans-Serif" font-size="10.00"> +consideredJointLocations</text>
</g>
<!-- Node8 -->
<g id="node8" class="node"><title>Node8</title>
<polygon fill="none" stroke="#bfbfbf" points="213.5,-278 213.5,-346 338.5,-346 338.5,-278 213.5,-278"/>
<text text-anchor="start" x="221.5" y="-334" font-family="Helvetica,sans-Serif" font-size="10.00">unique_ptr&lt; iDynTree</text>
<text text-anchor="middle" x="276" y="-323" font-family="Helvetica,sans-Serif" font-size="10.00">::KinDynComputations &gt;</text>
<polyline fill="none" stroke="#bfbfbf" points="213.5,-316 338.5,-316 "/>
<text text-anchor="middle" x="276" y="-304" font-family="Helvetica,sans-Serif" font-size="10.00"> </text>
<polyline fill="none" stroke="#bfbfbf" points="213.5,-297 338.5,-297 "/>
<text text-anchor="middle" x="276" y="-285" font-family="Helvetica,sans-Serif" font-size="10.00"> </text>
</g>
<!-- Node8&#45;&gt;Node2 -->
<g id="edge7" class="edge"><title>Node8&#45;&gt;Node2</title>
<path fill="none" stroke="#404040" d="M296.912,-277.806C313.776,-253.755 339.635,-222.357 370,-204 408.215,-180.897 457.338,-169.391 496.062,-163.664"/>
<polygon fill="none" stroke="#404040" points="496.092,-163.66 501.494,-158.883 507.981,-162.033 502.579,-166.809 496.092,-163.66"/>
<text text-anchor="middle" x="420.5" y="-223.5" font-family="Helvetica,sans-Serif" font-size="10.00"> +kinDynComputations</text>
</g>
<!-- Node9 -->
<g id="node9" class="node"><title>Node9</title>
<polygon fill="none" stroke="#bfbfbf" points="356.5,-283.5 356.5,-340.5 517.5,-340.5 517.5,-283.5 356.5,-283.5"/>
<text text-anchor="middle" x="437" y="-328.5" font-family="Helvetica,sans-Serif" font-size="10.00">unique_ptr&lt; InverseKinematics &gt;</text>
<polyline fill="none" stroke="#bfbfbf" points="356.5,-321.5 517.5,-321.5 "/>
<text text-anchor="middle" x="437" y="-309.5" font-family="Helvetica,sans-Serif" font-size="10.00"> </text>
<polyline fill="none" stroke="#bfbfbf" points="356.5,-302.5 517.5,-302.5 "/>
<text text-anchor="middle" x="437" y="-290.5" font-family="Helvetica,sans-Serif" font-size="10.00"> </text>
</g>
<!-- Node9&#45;&gt;Node2 -->
<g id="edge8" class="edge"><title>Node9&#45;&gt;Node2</title>
<path fill="none" stroke="#404040" d="M451.976,-283.08C464.759,-260.532 484.454,-228.616 506,-204 508.973,-200.603 512.202,-197.236 515.553,-193.959"/>
<polygon fill="none" stroke="#404040" points="515.822,-193.709 517.495,-186.694 524.613,-185.541 522.94,-192.555 515.822,-193.709"/>
<text text-anchor="middle" x="528.5" y="-223.5" font-family="Helvetica,sans-Serif" font-size="10.00"> +ikSolver</text>
</g>
<!-- Node10 -->
<g id="node10" class="node"><title>Node10</title>
<polygon fill="none" stroke="#bfbfbf" points="889.5,-283.5 889.5,-340.5 972.5,-340.5 972.5,-283.5 889.5,-283.5"/>
<text text-anchor="middle" x="931" y="-328.5" font-family="Helvetica,sans-Serif" font-size="10.00">VectorDynSize</text>
<polyline fill="none" stroke="#bfbfbf" points="889.5,-321.5 972.5,-321.5 "/>
<text text-anchor="middle" x="931" y="-309.5" font-family="Helvetica,sans-Serif" font-size="10.00"> </text>
<polyline fill="none" stroke="#bfbfbf" points="889.5,-302.5 972.5,-302.5 "/>
<text text-anchor="middle" x="931" y="-290.5" font-family="Helvetica,sans-Serif" font-size="10.00"> </text>
</g>
<!-- Node10&#45;&gt;Node2 -->
<g id="edge9" class="edge"><title>Node10&#45;&gt;Node2</title>
<path fill="none" stroke="#404040" d="M889.159,-283.404C875.674,-273.279 861.306,-261.069 850,-248 835.284,-230.991 843.397,-216.94 825,-204 793.449,-181.808 692.247,-169.101 624.437,-162.879"/>
<polygon fill="none" stroke="#404040" points="624.142,-162.853 617.812,-166.307 612.189,-161.792 618.519,-158.338 624.142,-162.853"/>
<text text-anchor="middle" x="895.5" y="-229" font-family="Helvetica,sans-Serif" font-size="10.00"> +jointConfigurations</text>
<text text-anchor="middle" x="895.5" y="-218" font-family="Helvetica,sans-Serif" font-size="10.00">+jointVelocities</text>
</g>
<!-- Node10&#45;&gt;Node11 -->
<g id="edge14" class="edge"><title>Node10&#45;&gt;Node11</title>
<path fill="none" stroke="#404040" d="M935.758,-283.483C941.128,-255.574 950.615,-214.971 962,-204 978.977,-187.64 1034.54,-175.189 1080.2,-167.393"/>
<polygon fill="none" stroke="#404040" points="1080.33,-167.372 1085.6,-162.447 1092.17,-165.415 1086.9,-170.34 1080.33,-167.372"/>
<text text-anchor="middle" x="987.5" y="-223.5" font-family="Helvetica,sans-Serif" font-size="10.00"> +velocities</text>
</g>
<!-- Node11&#45;&gt;Node1 -->
<g id="edge10" class="edge"><title>Node11&#45;&gt;Node1</title>
<path fill="none" stroke="#404040" d="M1142.56,-128.306C1141.93,-122.28 1141.36,-115.934 1141,-110 1140.43,-100.726 1140.11,-90.7871 1139.93,-81.2986"/>
<polygon fill="none" stroke="#404040" points="1139.93,-81.1773 1135.86,-75.2285 1139.78,-69.1783 1143.85,-75.1271 1139.93,-81.1773"/>
<text text-anchor="middle" x="1180" y="-102" font-family="Helvetica,sans-Serif" font-size="10.00"> +childFrameInfo</text>
<text text-anchor="middle" x="1180" y="-91" font-family="Helvetica,sans-Serif" font-size="10.00">+parentFrameInfo</text>
</g>
<!-- Node12 -->
<g id="node12" class="node"><title>Node12</title>
<polygon fill="none" stroke="#bfbfbf" points="1211.5,-283.5 1211.5,-340.5 1272.5,-340.5 1272.5,-283.5 1211.5,-283.5"/>
<text text-anchor="middle" x="1242" y="-328.5" font-family="Helvetica,sans-Serif" font-size="10.00">Transform</text>
<polyline fill="none" stroke="#bfbfbf" points="1211.5,-321.5 1272.5,-321.5 "/>
<text text-anchor="middle" x="1242" y="-309.5" font-family="Helvetica,sans-Serif" font-size="10.00"> </text>
<polyline fill="none" stroke="#bfbfbf" points="1211.5,-302.5 1272.5,-302.5 "/>
<text text-anchor="middle" x="1242" y="-290.5" font-family="Helvetica,sans-Serif" font-size="10.00"> </text>
</g>
<!-- Node12&#45;&gt;Node11 -->
<g id="edge11" class="edge"><title>Node12&#45;&gt;Node11</title>
<path fill="none" stroke="#404040" d="M1241.16,-283.198C1239.21,-260.122 1233.46,-227.41 1217,-204 1214.44,-200.362 1211.5,-196.94 1208.29,-193.736"/>
<polygon fill="none" stroke="#404040" points="1208.26,-193.713 1201.12,-192.731 1199.28,-185.759 1206.42,-186.741 1208.26,-193.713"/>
<text text-anchor="middle" x="1275.5" y="-223.5" font-family="Helvetica,sans-Serif" font-size="10.00"> +poseWRTWorld</text>
</g>
<!-- Node13 -->
<g id="node13" class="node"><title>Node13</title>
<polygon fill="none" stroke="#bfbfbf" points="1321.5,-283.5 1321.5,-340.5 1366.5,-340.5 1366.5,-283.5 1321.5,-283.5"/>
<text text-anchor="middle" x="1344" y="-328.5" font-family="Helvetica,sans-Serif" font-size="10.00">Vector</text>
<polyline fill="none" stroke="#bfbfbf" points="1321.5,-321.5 1366.5,-321.5 "/>
<text text-anchor="middle" x="1344" y="-309.5" font-family="Helvetica,sans-Serif" font-size="10.00"> </text>
<polyline fill="none" stroke="#bfbfbf" points="1321.5,-302.5 1366.5,-302.5 "/>
<text text-anchor="middle" x="1344" y="-290.5" font-family="Helvetica,sans-Serif" font-size="10.00"> </text>
</g>
<!-- Node13&#45;&gt;Node11 -->
<g id="edge13" class="edge"><title>Node13&#45;&gt;Node11</title>
<path fill="none" stroke="#404040" d="M1345.44,-283.17C1345.09,-258.773 1340.38,-224.144 1319,-204 1284.54,-171.535 1259.5,-199.093 1214,-186 1213.13,-185.748 1212.25,-185.489 1211.37,-185.223"/>
<polygon fill="none" stroke="#404040" points="1211.2,-185.17 1204.25,-187.091 1199.81,-181.414 1206.76,-179.493 1211.2,-185.17"/>
<text text-anchor="middle" x="1375.5" y="-223.5" font-family="Helvetica,sans-Serif" font-size="10.00"> +accelerations</text>
</g>
<!-- Node14 -->
<g id="node14" class="node"><title>Node14</title>
<polygon fill="none" stroke="#bfbfbf" points="1223.5,-128.5 1223.5,-185.5 1258.5,-185.5 1258.5,-128.5 1223.5,-128.5"/>
<text text-anchor="middle" x="1241" y="-173.5" font-family="Helvetica,sans-Serif" font-size="10.00">long</text>
<polyline fill="none" stroke="#bfbfbf" points="1223.5,-166.5 1258.5,-166.5 "/>
<text text-anchor="middle" x="1241" y="-154.5" font-family="Helvetica,sans-Serif" font-size="10.00"> </text>
<polyline fill="none" stroke="#bfbfbf" points="1223.5,-147.5 1258.5,-147.5 "/>
<text text-anchor="middle" x="1241" y="-135.5" font-family="Helvetica,sans-Serif" font-size="10.00"> </text>
</g>
<!-- Node14&#45;&gt;Node1 -->
<g id="edge15" class="edge"><title>Node14&#45;&gt;Node1</title>
<path fill="none" stroke="#404040" d="M1236.45,-128.179C1233.24,-115.007 1227.87,-99.6489 1219,-88 1216.12,-84.2135 1212.87,-80.6179 1209.39,-77.2184"/>
<polygon fill="none" stroke="#404040" points="1209.29,-77.1269 1202.14,-76.1469 1200.3,-69.1754 1207.44,-70.1553 1209.29,-77.1269"/>
<text text-anchor="middle" x="1254" y="-96.5" font-family="Helvetica,sans-Serif" font-size="10.00"> +identifier</text>
</g>
</g>
</svg>
