<?xml version="1.0" encoding="UTF-8" standalone="no"?>
<!DOCTYPE svg PUBLIC "-//W3C//DTD SVG 1.1//EN"
 "http://www.w3.org/Graphics/SVG/1.1/DTD/svg11.dtd">
<!-- Generated by graphviz version 2.36.0 (20140111.2315)
 -->
<!-- Title: human::LinkPairInfo Pages: 1 -->
<svg width="1063pt" height="238pt"
 viewBox="0.00 0.00 1063.00 238.00" xmlns="http://www.w3.org/2000/svg" xmlns:xlink="http://www.w3.org/1999/xlink">
<g id="graph0" class="graph" transform="scale(1 1) rotate(0) translate(4 234)">
<title>human::LinkPairInfo</title>
<!-- Node1 -->
<g id="node1" class="node"><title>Node1</title>
<polygon fill="#bfbfbf" stroke="black" points="469,-0.5 469,-57.5 573,-57.5 573,-0.5 469,-0.5"/>
<text text-anchor="middle" x="521" y="-45.5" font-family="Helvetica,sans-Serif" font-size="10.00">human::LinkPairInfo</text>
<polyline fill="none" stroke="black" points="469,-38.5 573,-38.5 "/>
<text text-anchor="middle" x="521" y="-26.5" font-family="Helvetica,sans-Serif" font-size="10.00"> </text>
<polyline fill="none" stroke="black" points="469,-19.5 573,-19.5 "/>
<text text-anchor="middle" x="521" y="-7.5" font-family="Helvetica,sans-Serif" font-size="10.00"> </text>
</g>
<!-- Node2 -->
<g id="node2" class="node"><title>Node2</title>
<polygon fill="none" stroke="#bfbfbf" points="-0.5,-155.5 -0.5,-212.5 80.5,-212.5 80.5,-155.5 -0.5,-155.5"/>
<text text-anchor="middle" x="40" y="-200.5" font-family="Helvetica,sans-Serif" font-size="10.00">MatrixDynSize</text>
<polyline fill="none" stroke="#bfbfbf" points="-0.5,-193.5 80.5,-193.5 "/>
<text text-anchor="middle" x="40" y="-181.5" font-family="Helvetica,sans-Serif" font-size="10.00"> </text>
<polyline fill="none" stroke="#bfbfbf" points="-0.5,-174.5 80.5,-174.5 "/>
<text text-anchor="middle" x="40" y="-162.5" font-family="Helvetica,sans-Serif" font-size="10.00"> </text>
</g>
<!-- Node2&#45;&gt;Node1 -->
<g id="edge1" class="edge"><title>Node2&#45;&gt;Node1</title>
<path fill="none" stroke="#404040" d="M45.2744,-155.269C51.5957,-130.23 64.8034,-94.5558 91,-76 148.312,-35.4042 351.521,-29.5765 456.765,-29.3804"/>
<polygon fill="none" stroke="#404040" points="456.79,-29.3803 462.791,-25.3811 468.79,-29.3818 462.79,-33.3811 456.79,-29.3803"/>
<text text-anchor="middle" x="131" y="-106.5" font-family="Helvetica,sans-Serif" font-size="10.00"> +relativeJacobian</text>
<text text-anchor="middle" x="131" y="-95.5" font-family="Helvetica,sans-Serif" font-size="10.00">+parentJacobian</text>
<text text-anchor="middle" x="131" y="-84.5" font-family="Helvetica,sans-Serif" font-size="10.00">+childJacobian</text>
</g>
<!-- Node3 -->
<g id="node3" class="node"><title>Node3</title>
<polygon fill="none" stroke="#bfbfbf" points="98.5,-139 98.5,-229 259.5,-229 259.5,-139 98.5,-139"/>
<text text-anchor="start" x="106.5" y="-217" font-family="Helvetica,sans-Serif" font-size="10.00">ColPivHouseholderQR</text>
<text text-anchor="start" x="106.5" y="-206" font-family="Helvetica,sans-Serif" font-size="10.00">&lt; Eigen::Matrix&lt; double,</text>
<text text-anchor="start" x="106.5" y="-195" font-family="Helvetica,sans-Serif" font-size="10.00"> Eigen::Dynamic, Eigen</text>
<text text-anchor="middle" x="179" y="-184" font-family="Helvetica,sans-Serif" font-size="10.00">::Dynamic, Eigen::RowMajor &gt; &gt;</text>
<polyline fill="none" stroke="#bfbfbf" points="98.5,-177 259.5,-177 "/>
<text text-anchor="middle" x="179" y="-165" font-family="Helvetica,sans-Serif" font-size="10.00"> </text>
<polyline fill="none" stroke="#bfbfbf" points="98.5,-158 259.5,-158 "/>
<text text-anchor="middle" x="179" y="-146" font-family="Helvetica,sans-Serif" font-size="10.00"> </text>
</g>
<!-- Node3&#45;&gt;Node1 -->
<g id="edge2" class="edge"><title>Node3&#45;&gt;Node1</title>
<path fill="none" stroke="#404040" d="M173.266,-138.819C173.012,-117.093 176.979,-92.1698 193,-76 228.826,-39.8415 371.974,-31.6949 456.866,-30.1093"/>
<polygon fill="none" stroke="#404040" points="456.95,-30.1081 462.887,-26.0148 468.949,-29.9204 463.012,-34.0138 456.95,-30.1081"/>
<text text-anchor="middle" x="248.5" y="-95.5" font-family="Helvetica,sans-Serif" font-size="10.00"> +jacobianDecomposition</text>
</g>
<!-- Node4 -->
<g id="node4" class="node"><title>Node4</title>
<polygon fill="none" stroke="#bfbfbf" points="279,-155.5 279,-212.5 347,-212.5 347,-155.5 279,-155.5"/>
<text text-anchor="middle" x="313" y="-200.5" font-family="Helvetica,sans-Serif" font-size="10.00">FrameIndex</text>
<polyline fill="none" stroke="#bfbfbf" points="279,-193.5 347,-193.5 "/>
<text text-anchor="middle" x="313" y="-181.5" font-family="Helvetica,sans-Serif" font-size="10.00"> </text>
<polyline fill="none" stroke="#bfbfbf" points="279,-174.5 347,-174.5 "/>
<text text-anchor="middle" x="313" y="-162.5" font-family="Helvetica,sans-Serif" font-size="10.00"> </text>
</g>
<!-- Node4&#45;&gt;Node1 -->
<g id="edge3" class="edge"><title>Node4&#45;&gt;Node1</title>
<path fill="none" stroke="#404040" d="M307.74,-155.389C304.878,-131.475 305.119,-97.4441 324,-76 341.421,-56.214 406.155,-43.815 456.721,-36.9434"/>
<polygon fill="none" stroke="#404040" points="457.006,-36.9063 462.439,-32.1644 468.905,-35.3554 463.473,-40.0973 457.006,-36.9063"/>
<text text-anchor="middle" x="389" y="-112" font-family="Helvetica,sans-Serif" font-size="10.00"> +parentFrameModelIndex</text>
<text text-anchor="middle" x="389" y="-101" font-family="Helvetica,sans-Serif" font-size="10.00">+childFrameSegmentsIndex</text>
<text text-anchor="middle" x="389" y="-90" font-family="Helvetica,sans-Serif" font-size="10.00">+childFrameModelIndex</text>
<text text-anchor="middle" x="389" y="-79" font-family="Helvetica,sans-Serif" font-size="10.00">+parentFrameSegmentsIndex</text>
</g>
<!-- Node5 -->
<g id="node5" class="node"><title>Node5</title>
<polygon fill="none" stroke="#bfbfbf" points="445.5,-155.5 445.5,-212.5 486.5,-212.5 486.5,-155.5 445.5,-155.5"/>
<text text-anchor="middle" x="466" y="-200.5" font-family="Helvetica,sans-Serif" font-size="10.00">string</text>
<polyline fill="none" stroke="#bfbfbf" points="445.5,-193.5 486.5,-193.5 "/>
<text text-anchor="middle" x="466" y="-181.5" font-family="Helvetica,sans-Serif" font-size="10.00"> </text>
<polyline fill="none" stroke="#bfbfbf" points="445.5,-174.5 486.5,-174.5 "/>
<text text-anchor="middle" x="466" y="-162.5" font-family="Helvetica,sans-Serif" font-size="10.00"> </text>
</g>
<!-- Node5&#45;&gt;Node1 -->
<g id="edge4" class="edge"><title>Node5&#45;&gt;Node1</title>
<path fill="none" stroke="#404040" d="M460.167,-155.236C456.842,-132.778 455.357,-100.907 467,-76 468.491,-72.8099 470.323,-69.7586 472.401,-66.8548"/>
<polygon fill="none" stroke="#404040" points="472.516,-66.7183 473.344,-59.5548 480.275,-57.5634 479.447,-64.7269 472.516,-66.7183"/>
<text text-anchor="middle" x="511" y="-101" font-family="Helvetica,sans-Serif" font-size="10.00"> +childFrameName</text>
<text text-anchor="middle" x="511" y="-90" font-family="Helvetica,sans-Serif" font-size="10.00">+parentFrameName</text>
</g>
<!-- Node6 -->
<g id="node6" class="node"><title>Node6</title>
<polygon fill="none" stroke="#bfbfbf" points="529,-150 529,-218 625,-218 625,-150 529,-150"/>
<text text-anchor="start" x="537" y="-206" font-family="Helvetica,sans-Serif" font-size="10.00">vector&lt; std::pair&lt;</text>
<text text-anchor="middle" x="577" y="-195" font-family="Helvetica,sans-Serif" font-size="10.00"> size_t, size_t &gt; &gt;</text>
<polyline fill="none" stroke="#bfbfbf" points="529,-188 625,-188 "/>
<text text-anchor="middle" x="577" y="-176" font-family="Helvetica,sans-Serif" font-size="10.00"> </text>
<polyline fill="none" stroke="#bfbfbf" points="529,-169 625,-169 "/>
<text text-anchor="middle" x="577" y="-157" font-family="Helvetica,sans-Serif" font-size="10.00"> </text>
</g>
<!-- Node6&#45;&gt;Node1 -->
<g id="edge5" class="edge"><title>Node6&#45;&gt;Node1</title>
<path fill="none" stroke="#404040" d="M573.893,-149.555C570.979,-127.858 565.431,-99.3813 555,-76 553.761,-73.2226 552.332,-70.4514 550.775,-67.7246"/>
<polygon fill="none" stroke="#404040" points="550.718,-67.6347 544.123,-64.7185 544.278,-57.5091 550.874,-60.4252 550.718,-67.6347"/>
<text text-anchor="middle" x="629" y="-95.5" font-family="Helvetica,sans-Serif" font-size="10.00"> +consideredJointLocations</text>
</g>
<!-- Node7 -->
<g id="node7" class="node"><title>Node7</title>
<polygon fill="none" stroke="#bfbfbf" points="650.5,-150 650.5,-218 775.5,-218 775.5,-150 650.5,-150"/>
<text text-anchor="start" x="658.5" y="-206" font-family="Helvetica,sans-Serif" font-size="10.00">unique_ptr&lt; iDynTree</text>
<text text-anchor="middle" x="713" y="-195" font-family="Helvetica,sans-Serif" font-size="10.00">::KinDynComputations &gt;</text>
<polyline fill="none" stroke="#bfbfbf" points="650.5,-188 775.5,-188 "/>
<text text-anchor="middle" x="713" y="-176" font-family="Helvetica,sans-Serif" font-size="10.00"> </text>
<polyline fill="none" stroke="#bfbfbf" points="650.5,-169 775.5,-169 "/>
<text text-anchor="middle" x="713" y="-157" font-family="Helvetica,sans-Serif" font-size="10.00"> </text>
</g>
<!-- Node7&#45;&gt;Node1 -->
<g id="edge6" class="edge"><title>Node7&#45;&gt;Node1</title>
<path fill="none" stroke="#404040" d="M715.483,-149.955C715.395,-126.456 711.236,-95.6876 693,-76 678.2,-60.0214 627.575,-47.6955 585.05,-39.8426"/>
<polygon fill="none" stroke="#404040" points="584.836,-39.8045 578.227,-42.6891 573.022,-37.6979 579.631,-34.8133 584.836,-39.8045"/>
<text text-anchor="middle" x="763.5" y="-95.5" font-family="Helvetica,sans-Serif" font-size="10.00"> +kinDynComputations</text>
</g>
<!-- Node8 -->
<g id="node8" class="node"><title>Node8</title>
<polygon fill="none" stroke="#bfbfbf" points="793.5,-155.5 793.5,-212.5 954.5,-212.5 954.5,-155.5 793.5,-155.5"/>
<text text-anchor="middle" x="874" y="-200.5" font-family="Helvetica,sans-Serif" font-size="10.00">unique_ptr&lt; InverseKinematics &gt;</text>
<polyline fill="none" stroke="#bfbfbf" points="793.5,-193.5 954.5,-193.5 "/>
<text text-anchor="middle" x="874" y="-181.5" font-family="Helvetica,sans-Serif" font-size="10.00"> </text>
<polyline fill="none" stroke="#bfbfbf" points="793.5,-174.5 954.5,-174.5 "/>
<text text-anchor="middle" x="874" y="-162.5" font-family="Helvetica,sans-Serif" font-size="10.00"> </text>
</g>
<!-- Node8&#45;&gt;Node1 -->
<g id="edge7" class="edge"><title>Node8&#45;&gt;Node1</title>
<path fill="none" stroke="#404040" d="M867.217,-155.488C859.575,-130.604 844.599,-95.0351 818,-76 781.725,-50.0403 661.419,-38.2374 585.511,-33.2611"/>
<polygon fill="none" stroke="#404040" points="585.245,-33.2445 579.006,-36.8604 573.269,-32.4922 579.508,-28.8762 585.245,-33.2445"/>
<text text-anchor="middle" x="875.5" y="-95.5" font-family="Helvetica,sans-Serif" font-size="10.00"> +ikSolver</text>
</g>
<!-- Node9 -->
<g id="node9" class="node"><title>Node9</title>
<polygon fill="none" stroke="#bfbfbf" points="972.5,-155.5 972.5,-212.5 1055.5,-212.5 1055.5,-155.5 972.5,-155.5"/>
<text text-anchor="middle" x="1014" y="-200.5" font-family="Helvetica,sans-Serif" font-size="10.00">VectorDynSize</text>
<polyline fill="none" stroke="#bfbfbf" points="972.5,-193.5 1055.5,-193.5 "/>
<text text-anchor="middle" x="1014" y="-181.5" font-family="Helvetica,sans-Serif" font-size="10.00"> </text>
<polyline fill="none" stroke="#bfbfbf" points="972.5,-174.5 1055.5,-174.5 "/>
<text text-anchor="middle" x="1014" y="-162.5" font-family="Helvetica,sans-Serif" font-size="10.00"> </text>
</g>
<!-- Node9&#45;&gt;Node1 -->
<g id="edge8" class="edge"><title>Node9&#45;&gt;Node1</title>
<path fill="none" stroke="#404040" d="M993.833,-155.462C973.65,-130.193 940.174,-94.0352 902,-76 847.374,-50.1921 678.933,-37.8643 585.351,-32.8694"/>
<polygon fill="none" stroke="#404040" points="585.2,-32.8616 579.001,-36.5457 573.216,-32.2404 579.415,-28.5564 585.2,-32.8616"/>
<text text-anchor="middle" x="1005.5" y="-101" font-family="Helvetica,sans-Serif" font-size="10.00"> +jointConfigurations</text>
<text text-anchor="middle" x="1005.5" y="-90" font-family="Helvetica,sans-Serif" font-size="10.00">+jointVelocities</text>
</g>
</g>
</svg>
